<?xml version="1.0" encoding="utf-8"?>
<!-- Generator: Adobe Illustrator 23.0.6, SVG Export Plug-In . SVG Version: 6.00 Build 0)  -->
<svg version="1.1"
	 id="chairs" xmlns:cc="http://creativecommons.org/ns#" xmlns:dc="http://purl.org/dc/elements/1.1/" xmlns:inkscape="http://www.inkscape.org/namespaces/inkscape" xmlns:rdf="http://www.w3.org/1999/02/22-rdf-syntax-ns#" xmlns:sodipodi="http://sodipodi.sourceforge.net/DTD/sodipodi-0.dtd" xmlns:svg="http://www.w3.org/2000/svg"
	 xmlns="http://www.w3.org/2000/svg" xmlns:xlink="http://www.w3.org/1999/xlink" x="0px" y="0px" viewBox="0 0 512 512"
	 style="enable-background:new 0 0 512 512;" xml:space="preserve">
<style type="text/css">
	.st0{fill:#FFFFFF;}
	.st1{fill:#4AA0C7;}
	.st2{fill:#3D83A3;}
</style>
<rect class="st0" width="512" height="512"/>
<g id="Icon">
	<polygon id="Chair" class="st1" points="266.1,475.99 116.1,402.58 116.67,309.66 188.5,274.97 188.5,190.37 301.08,164.2 
		411.22,222.14 412.52,400.73 	"/>
	<polygon id="Player" class="st2" points="280.57,431.37 217.75,426.52 218.79,377.12 229.58,351.1 225.9,348.74 138.63,401.31 
		108.41,381.83 99.48,335.85 211.18,276.98 211.38,248.61 185.54,292.37 149.3,283.65 124.9,256.83 196.98,134.55 220.35,139.87 
		229.37,39.01 348.29,48.04 336.48,155.2 367.08,153.5 381.09,178.13 338.85,323.81 307.01,322.02 	"/>
</g>
</svg>
