<?xml version="1.0" encoding="utf-8"?>
<!-- Generator: Adobe Illustrator 23.0.6, SVG Export Plug-In . SVG Version: 6.00 Build 0)  -->
<svg version="1.1" id="iacio_shamir" xmlns="http://www.w3.org/2000/svg" xmlns:xlink="http://www.w3.org/1999/xlink" x="0px"
	 y="0px" viewBox="0 0 512 512" style="enable-background:new 0 0 512 512;" xml:space="preserve">
<style type="text/css">
	.st0{fill:#FFFFFF;}
	.st1{fill:#3D83A3;}
	.st2{fill:#7FBCD7;}
	.st3{fill:#A1CEE2;}
	.st4{fill:#4AA0C7;}
</style>
<g id="Background">
	<rect class="st0" width="512" height="512"/>
</g>
<g id="Icon">
	<g id="Shamir">
		<rect id="Cast" x="223.1" y="52.5" class="st1" width="66.5" height="66.4"/>
		<rect id="Band" x="216.7" y="73.2" class="st2" width="78.6" height="21.8"/>
	</g>
	<g id="Shamir_Particles">
		<g>
			
				<rect x="309" y="131.6" transform="matrix(0.2252 -0.9743 0.9743 0.2252 110.5295 408.9354)" class="st2" width="6.7" height="6.7"/>
			
				<rect x="314.6" y="139.2" transform="matrix(0.2252 -0.9743 0.9743 0.2252 107.8342 416.7218)" class="st2" width="2.7" height="2.7"/>
			
				<rect x="316.7" y="130.1" transform="matrix(0.2252 -0.9743 0.9743 0.2252 118.3606 411.6972)" class="st2" width="2.7" height="2.7"/>
			
				<rect x="307.6" y="128" transform="matrix(0.2252 -0.9743 0.9743 0.2252 113.3365 401.174)" class="st2" width="2.7" height="2.7"/>
			
				<rect x="305.5" y="137.1" transform="matrix(0.2252 -0.9743 0.9743 0.2252 102.8019 406.2002)" class="st2" width="2.7" height="2.7"/>
		</g>
		<g>
			
				<rect x="193.5" y="120.2" transform="matrix(0.2587 -0.966 0.966 0.2587 26.0566 285.1953)" class="st2" width="10.8" height="10.8"/>
			<rect x="202" y="132.7" transform="matrix(0.2587 -0.966 0.966 0.2587 21.0674 297.154)" class="st2" width="4.3" height="4.3"/>
			
				<rect x="205.9" y="118.2" transform="matrix(0.2587 -0.966 0.966 0.2587 37.9984 290.1375)" class="st2" width="4.3" height="4.3"/>
			
				<rect x="191.3" y="114.3" transform="matrix(0.2587 -0.966 0.966 0.2587 30.9773 273.1953)" class="st2" width="4.3" height="4.3"/>
			
				<rect x="187.4" y="128.8" transform="matrix(0.2587 -0.966 0.966 0.2587 14.0473 280.2293)" class="st2" width="4.3" height="4.3"/>
		</g>
		<g>
			
				<rect x="181.6" y="50.5" transform="matrix(0.536 -0.8442 0.8442 0.536 40.3646 181.1367)" class="st2" width="6.7" height="6.7"/>
			<rect x="185.1" y="59" transform="matrix(0.536 -0.8442 0.8442 0.536 35.5667 185.3944)" class="st2" width="2.7" height="2.7"/>
			<rect x="190.1" y="51.1" transform="matrix(0.536 -0.8442 0.8442 0.536 44.5581 185.98)" class="st2" width="2.7" height="2.7"/>
			<rect x="182.2" y="46" transform="matrix(0.536 -0.8442 0.8442 0.536 45.1475 176.9376)" class="st2" width="2.7" height="2.7"/>
			<rect x="177.1" y="54" transform="matrix(0.536 -0.8442 0.8442 0.536 36.1182 176.3495)" class="st2" width="2.7" height="2.7"/>
		</g>
		<g>
			
				<rect x="260.1" y="27.7" transform="matrix(0.3107 -0.9505 0.9505 0.3107 152.5719 268.5955)" class="st2" width="2.7" height="2.7"/>
			
				<rect x="258.4" y="24.3" transform="matrix(0.3107 -0.9505 0.9505 0.3107 154.6545 264.5552)" class="st2" width="2.7" height="2.7"/>
			
				<rect x="263.6" y="25.9" transform="matrix(0.3107 -0.9505 0.9505 0.3107 156.6722 270.6667)" class="st2" width="2.7" height="2.7"/>
			
				<rect x="256.6" y="29.5" transform="matrix(0.3107 -0.9505 0.9505 0.3107 148.5214 266.5013)" class="st2" width="2.7" height="2.7"/>
			
				<rect x="261.8" y="31.2" transform="matrix(0.3107 -0.9505 0.9505 0.3107 150.4743 272.6302)" class="st2" width="2.7" height="2.7"/>
		</g>
		<g>
			
				<rect x="321.4" y="69" transform="matrix(0.9999 -1.040048e-02 1.040048e-02 0.9999 -0.7353 3.3815)" class="st2" width="6.7" height="6.7"/>
			
				<rect x="328.1" y="75.7" transform="matrix(0.9999 -1.040048e-02 1.040048e-02 0.9999 -0.7836 3.431)" class="st2" width="2.7" height="2.7"/>
			
				<rect x="328.1" y="66.3" transform="matrix(0.9999 -1.040048e-02 1.040048e-02 0.9999 -0.6858 3.4296)" class="st2" width="2.7" height="2.7"/>
			
				<rect x="318.7" y="66.4" transform="matrix(0.9999 -1.040048e-02 1.040048e-02 0.9999 -0.6876 3.332)" class="st2" width="2.7" height="2.7"/>
			
				<rect x="318.8" y="75.8" transform="matrix(0.9999 -1.040048e-02 1.040048e-02 0.9999 -0.7848 3.3337)" class="st2" width="2.7" height="2.7"/>
		</g>
	</g>
	<g id="Throw">
		<g id="Sweep_1_">
			<path class="st3" d="M213.7,300c-7-10-4-10-21-10c47-117,204-139,247-117l-17,51C317.7,198,224.7,249,213.7,300z"/>
		</g>
	</g>
	<g id="Player">
		<g>
			<path class="st4" d="M175.7,301c3.7-7,7.5-13.9,11.2-21c0.6-1.2,1.2-1.6,2.6-1.3c6.7,1.4,13.3,2.8,20,4.1
				c1.3,0.3,2.3,0.9,3.2,1.9c3.9,4.6,7.8,9.2,11.7,13.7c0.8,1,1.1,1.8,0.4,3c-5.5,10.2-10.9,20.5-16.3,30.7
				c-2.8,5.2-5.8,10.3-10.7,13.8c-1.6,1.1-3.2,2.1-5,2.7c-9,3.4-17.9,7.1-27,10.1c-3,1-3.1,2.5-3.2,4.8c-0.2,8.7-0.4,17.3-0.6,26
				c-0.1,4.2-0.3,8.4-0.3,12.6c0,1.6-0.6,6.2-0.9,7.7c-1.3,5.9-2.5,11.9-3.7,17.8c-0.8,4-1.6,8-2.4,12c-0.3,1.6-0.4,3.2-0.4,4.8
				c0.1,5.5,0.2,11,0.3,16.5c0.1,1.7-0.4,2.7-2.1,3.2c-4.5,1.5-7.6,4.2-9.3,9.1c-2.4,7.2-5.8,14.1-8.8,21.1c-0.9,2.2-1,2.2-3.3,1.5
				c-4.9-1.6-9.8-3.2-14.7-4.8c-4.4-1.4-8.2-4-12.4-6c-2.8-1.4-5.6-3-8.4-4.4c-1.1-0.6-1.3-1.2-0.8-2.4c5-11.4,9.9-22.8,14.8-34.3
				c2.3-5.3,3-11.1,4.1-16.8c0.2-0.9-0.3-1.5-0.7-2.3c-3.7-7.8-7.4-15.6-11.1-23.3c-0.7-1.4-2.2-6.8-2.2-8.8
				c0.1-6.9,0-13.8-0.2-20.7c-0.5,2.2-1,4.4-1.5,6.6c-0.7,3-1.3,6.1-1.9,9.1c-0.2,1.2-1,1.4-2,1.3c-9.1-1.7-18.5-2.2-27.3-5.4
				c-3.3-1.2-6.7-2.1-10.1-3.1c-1.1-0.3-1.6-0.8-1.4-2.1c2.6-12,5.2-24,7.7-36c1.6-7.7,5.3-14.3,10.4-20.3
				c4.4-5.1,8.6-10.4,12.9-15.6c1-1.3,1.5-2.6,1.5-4.2C88,286.8,88,271,88,255.2c0-4.2,0-4.2,4.1-4.6c12.9-1.2,25.9-2.3,38.9-3.5
				c5.1-0.5,10.1,0.7,15.1,1.3c9.5,1.1,18.9,2.4,28.4,3.6c1.8,0.2,2.2,0.9,2.2,2.6c-0.4,12.3-0.7,24.5-1.1,36.8
				C175.4,294.5,175.2,297.7,175.7,301z"/>
		</g>
	</g>
	<g id="Snowball">
		<rect x="422.8" y="173" class="st4" width="16.8" height="50.5"/>
		<rect x="406" y="189.8" class="st4" width="50.5" height="16.8"/>
		<rect x="414.4" y="177.2" class="st4" width="33.7" height="42.1"/>
		<rect x="410.2" y="181.4" class="st4" width="42.1" height="33.7"/>
	</g>
</g>
</svg>
