<?xml version="1.0" encoding="utf-8"?>
<!-- Generator: Adobe Illustrator 23.0.6, SVG Export Plug-In . SVG Version: 6.00 Build 0)  -->
<svg version="1.1" id="vertical_rails" xmlns="http://www.w3.org/2000/svg" xmlns:xlink="http://www.w3.org/1999/xlink" x="0px"
	 y="0px" viewBox="0 0 512 512" style="enable-background:new 0 0 512 512;" xml:space="preserve">
<style type="text/css">
	.st0{fill:#FFFFFF;}
	.st1{fill:#4AA0C7;}
	.st2{fill:#3D83A3;}
	.st3{fill:none;}
	.st4{fill:#7FBCD7;}
</style>
<rect y="0.66" class="st0" width="512" height="511.32"/>
<g id="Icon">
	<rect id="main_rail" x="212.04" y="0.67" class="st1" width="6.03" height="511.31"/>
	<g id="connectors">
		<rect x="207.22" y="0.68" class="st1" width="6.03" height="11.97"/>
		<rect x="207.22" y="26.5" class="st1" width="6.03" height="10.84"/>
		<rect x="207.22" y="51.19" class="st1" width="6.03" height="10.84"/>
		<rect x="207.22" y="77.08" class="st1" width="6.03" height="10.84"/>
		<rect x="207.22" y="101.77" class="st1" width="6.03" height="10.84"/>
		<rect x="207.22" y="126.46" class="st1" width="6.03" height="10.84"/>
		<rect x="207.22" y="152.35" class="st1" width="6.03" height="10.84"/>
		<rect x="207.22" y="177.03" class="st1" width="6.03" height="10.84"/>
		<rect x="207.22" y="201.72" class="st1" width="6.03" height="10.84"/>
		<rect x="207.22" y="227.62" class="st1" width="6.03" height="10.84"/>
		<rect x="207.22" y="252.3" class="st1" width="6.03" height="10.84"/>
		<rect x="207.22" y="276.99" class="st1" width="6.03" height="10.84"/>
		<rect x="207.22" y="302.88" class="st1" width="6.03" height="10.84"/>
		<rect x="207.22" y="327.57" class="st1" width="6.03" height="10.84"/>
		<rect x="207.22" y="352.26" class="st1" width="6.03" height="10.84"/>
		<rect x="207.22" y="378.15" class="st1" width="6.03" height="10.84"/>
		<rect x="207.22" y="402.84" class="st1" width="6.03" height="10.84"/>
		<rect x="207.22" y="427.53" class="st1" width="6.03" height="10.84"/>
		<rect x="207.22" y="453.42" class="st1" width="6.03" height="10.85"/>
		<rect x="207.22" y="478.1" class="st1" width="6.03" height="10.84"/>
		<rect x="207.22" y="502.79" class="st1" width="6.03" height="9.18"/>
	</g>
	<g id="bars">
		<rect x="209.63" y="0.68" class="st2" width="6.03" height="11.98"/>
		<rect x="209.63" y="26.5" class="st2" width="6.03" height="10.84"/>
		<rect x="209.63" y="51.19" class="st2" width="6.03" height="10.84"/>
		<rect x="209.63" y="77.08" class="st2" width="6.03" height="10.84"/>
		<rect x="209.63" y="101.77" class="st2" width="6.03" height="10.84"/>
		<rect x="209.63" y="126.46" class="st2" width="6.03" height="10.84"/>
		<rect x="209.63" y="152.35" class="st2" width="6.03" height="10.84"/>
		<rect x="209.63" y="177.03" class="st2" width="6.03" height="10.84"/>
		<rect x="209.63" y="201.72" class="st2" width="6.03" height="10.84"/>
		<rect x="209.63" y="227.62" class="st2" width="6.03" height="10.84"/>
		<rect x="209.63" y="252.3" class="st2" width="6.03" height="10.84"/>
		<rect x="209.63" y="276.99" class="st2" width="6.03" height="10.84"/>
		<rect x="209.63" y="302.88" class="st2" width="6.03" height="10.84"/>
		<rect x="209.63" y="327.57" class="st2" width="6.03" height="10.84"/>
		<rect x="209.63" y="352.26" class="st2" width="6.03" height="10.84"/>
		<rect x="209.63" y="378.15" class="st2" width="6.03" height="10.84"/>
		<rect x="209.63" y="402.84" class="st2" width="6.03" height="10.84"/>
		<rect x="209.63" y="427.53" class="st2" width="6.03" height="10.84"/>
		<rect x="209.63" y="453.42" class="st2" width="6.03" height="10.85"/>
		<rect x="209.63" y="478.1" class="st2" width="6.03" height="10.84"/>
		<rect x="209.63" y="502.79" class="st2" width="6.03" height="9.21"/>
	</g>
	<g id="player">
		<rect x="268.72" y="173.42" class="st1" width="41" height="39.14"/>
		<rect x="280.17" y="208.95" class="st1" width="18.69" height="49.74"/>
		<polygon class="st1" points="237.65,245.01 283.39,218.64 291.95,233.45 246.21,259.82 		"/>
	</g>
	<g id="cart">
		<rect x="218.07" y="244.47" class="st2" width="101.89" height="58.41"/>
	</g>
</g>
<path class="st3" d="M403.75,0l-197.5,0.7v511.28l197.5-0.7c27.63,0,50.03-22.36,50.03-49.96V49.96C453.78,22.37,431.38,0,403.75,0z
	"/>
<polygon class="st2" points="250.18,302.88 249.03,302.88 247.88,302.88 246.73,302.88 245.58,302.88 244.43,302.88 243.28,302.88 
	242.13,302.88 240.98,302.88 239.83,302.88 238.68,302.88 237.53,302.88 236.38,302.88 236.38,304.03 236.38,305.18 237.53,305.18 
	237.53,306.33 238.68,306.33 238.68,307.48 239.83,307.48 240.98,307.48 240.98,308.62 242.13,308.62 243.28,308.62 244.43,308.62 
	245.58,308.62 246.73,308.62 246.73,307.48 247.88,307.48 249.03,307.48 249.03,306.33 250.18,306.33 250.18,305.18 251.33,305.18 
	251.33,304.03 251.33,302.88 "/>
<polygon class="st2" points="303.41,302.88 302.27,302.88 301.12,302.88 299.97,302.88 298.82,302.88 297.66,302.88 296.52,302.88 
	295.37,302.88 294.22,302.88 293.07,302.88 291.92,302.88 290.77,302.88 289.62,302.88 289.62,304.03 289.62,305.18 290.77,305.18 
	290.77,306.33 291.92,306.33 291.92,307.48 293.07,307.48 294.22,307.48 294.22,308.62 295.37,308.62 296.52,308.62 297.66,308.62 
	298.82,308.62 299.97,308.62 299.97,307.48 301.12,307.48 302.27,307.48 302.27,306.33 303.41,306.33 303.41,305.18 304.57,305.18 
	304.57,304.03 304.57,302.88 "/>
<polygon class="st4" points="207.21,0.04 54.96,0.04 54.96,0 0,0 0,117.02 0.08,117.02 0.08,341.92 0,341.92 0,512 111.68,512 
	111.68,511.98 207.21,511.98 "/>
</svg>
