<?xml version="1.0" encoding="utf-8"?>
<!-- Generator: Adobe Illustrator 23.0.6, SVG Export Plug-In . SVG Version: 6.00 Build 0)  -->
<svg version="1.1" id="scuba_gear" xmlns="http://www.w3.org/2000/svg" xmlns:xlink="http://www.w3.org/1999/xlink" x="0px" y="0px"
	 viewBox="0 0 512 512" style="enable-background:new 0 0 512 512;" xml:space="preserve">
<style type="text/css">
	.st0{fill:#FFFFFF;}
	.st1{fill:#A1CEE2;}
	.st2{fill:#4AA0C7;}
	.st3{fill:#7FBCD7;}
	.st4{fill:#3D83A3;}
	.st5{fill:#2E627A;}
</style>
<rect x="0" y="0" class="st0" width="512" height="512"/>
<g id="Icon_1_">
	<g id="bubbles">
		<g id="bubble">
			<polygon class="st1" points="181.28,212.8 186.98,207.15 196.38,216.65 190.68,222.3 			"/>
			<polygon class="st1" points="181.27,216.59 190.75,207.19 196.39,212.88 186.9,222.29 			"/>
		</g>
		<g id="bubble_1_">
			
				<rect x="145.63" y="238.17" transform="matrix(0.7108 -0.7034 0.7034 0.7108 -129.6944 177.0663)" class="st1" width="9.7" height="16.17"/>
			<polygon class="st1" points="141.32,248.49 152.82,237.11 159.64,244 148.15,255.39 			"/>
		</g>
		<g id="bubble_2_">
			<polygon class="st1" points="135.39,309.06 147.27,304.18 155.39,323.95 143.51,328.83 			"/>
			<polygon class="st1" points="133.08,314.6 152.86,306.49 157.73,318.35 137.96,326.49 			"/>
		</g>
		<g id="bubble_3_">
			<polygon class="st1" points="164.89,271.5 168.11,264.15 180.34,269.52 177.12,276.87 			"/>
			<polygon class="st1" points="166.25,274.97 171.61,262.75 178.96,265.95 173.59,278.2 			"/>
		</g>
		<g id="bubble_4_">
			<polygon class="st1" points="131.6,241.2 132.66,239.46 135.56,241.23 134.5,242.96 			"/>
			<polygon class="st1" points="131.86,242.1 133.63,239.21 135.37,240.27 133.6,243.16 			"/>
		</g>
		<g id="bubble_5_">
			
				<rect x="157.48" y="175.03" transform="matrix(0.3245 -0.9459 0.9459 0.3245 -60.6485 270.5811)" class="st1" width="3.28" height="5.45"/>
			<polygon class="st1" points="156.67,179.82 158.44,174.65 161.54,175.72 159.76,180.88 			"/>
		</g>
		<g id="bubble_6_">
			<polygon class="st1" points="159.1,158.22 162.73,157.71 163.58,163.76 159.95,164.27 			"/>
			
				<rect x="158.29" y="159.16" transform="matrix(0.9903 -0.1391 0.1391 0.9903 -20.8252 24.0083)" class="st1" width="6.11" height="3.66"/>
		</g>
		<g id="bubble_7_">
			<polygon class="st1" points="136.44,143.28 144.8,137.97 153.66,151.9 145.3,157.21 			"/>
			<polygon class="st1" points="135.42,147.87 149.35,139.01 154.67,147.37 140.73,156.23 			"/>
		</g>
		<g id="bubble_8_">
			<polygon class="st1" points="169.74,139.59 169.96,136.22 175.6,136.6 175.37,139.97 			"/>
			<polygon class="st1" points="170.77,140.78 171.16,135.15 174.53,135.37 174.14,141.01 			"/>
		</g>
		<g id="bubble_9_">
			<polygon class="st1" points="171.39,125.71 172.44,119.33 183.08,121.09 182.02,127.47 			"/>
			<polygon class="st1" points="173.16,128.19 174.91,117.55 181.29,118.61 179.54,129.24 			"/>
		</g>
		<g id="bubble_10_">
			<polygon class="st1" points="126.79,111.74 127.32,105.82 137.18,106.7 136.65,112.62 			"/>
			<polygon class="st1" points="128.57,113.87 129.46,104 135.37,104.54 134.48,114.4 			"/>
		</g>
		<g id="bubble_11_">
			<polygon class="st1" points="172.78,39.65 183.56,37.01 187.95,54.95 177.18,57.59 			"/>
			
				<rect x="171.14" y="41.75" transform="matrix(0.9713 -0.2379 0.2379 0.9713 -6.0725 44.2693)" class="st1" width="18.47" height="11.09"/>
		</g>
		<g id="bubble_12_">
			
				<rect x="144.18" y="36.25" transform="matrix(0.7106 -0.7036 0.7036 0.7106 12.4054 117.0631)" class="st1" width="8.65" height="14.41"/>
			<polygon class="st1" points="140.33,45.46 150.57,35.31 156.66,41.46 146.42,51.6 			"/>
		</g>
		<g id="bubble_13_">
			<polygon class="st1" points="197.93,182.87 197.98,172.1 215.94,172.21 215.87,182.98 			"/>
			<polygon class="st1" points="201.49,186.49 201.61,168.54 212.38,168.61 212.26,186.55 			"/>
		</g>
	</g>
	<g id="sea_animals">
		<polygon id="dolphin_1_" class="st2" points="96.82,262.6 80.76,265.9 88.32,274.41 79.81,282.89 65.65,268.72 47.22,272.03 
			40.61,266.37 30.69,268.72 26.91,264.47 28.8,259.29 32.1,259.29 31.63,257.39 36.83,238.02 77.45,230.46 80.29,226.68 
			85.48,229.52 87.37,229.05 96.35,238.02 115.25,236.6 134.14,253.61 133.19,257.39 118.08,257.39 115.71,255.5 115.71,257.39 
			98.24,259.29 		"/>
		<polygon id="dolphin" class="st2" points="105.89,202.59 93.67,206.86 100.48,212.71 94.72,220.25 82.15,210.66 68.09,215.17 
			62.33,211.43 54.82,214.31 51.42,211.39 52.35,207.13 54.94,206.79 54.37,205.35 56.41,189.66 87.38,179.5 89.19,176.24 
			93.56,177.91 94.99,177.35 102.94,183.43 117.57,180.34 134.13,191.66 133.78,194.71 121.97,196.29 119.92,195.06 120.11,196.54 
			106.65,199.85 		"/>
		<polygon id="cod" class="st2" points="200.27,109.53 198.85,107.64 200.27,101.5 208.03,100.21 208.3,99.61 212.08,99.14 
			212.01,99.53 213.97,99.14 213.97,98.67 219.63,97.72 219.63,98.2 222,97.72 224.37,100.56 226.25,100.56 226.72,100.09 
			227.19,98.2 230.97,97.25 230.49,99.14 228.6,99.61 227.19,104.34 229.08,103.86 228.6,105.75 224.83,106.23 225.3,104.34 
			223.41,104.34 222.48,108.59 211.6,110.48 211.6,111.42 209.71,111.42 210.19,113.79 208.3,114.26 207.82,111.42 202.63,112.37 
			199.8,110.01 		"/>
		<polygon id="cod_1_" class="st2" points="196.03,86.73 194.87,85.19 196.03,80.18 202.36,79.13 202.57,78.64 205.65,78.26 
			205.6,78.57 207.19,78.26 207.19,77.87 211.82,77.1 211.82,77.49 213.73,77.1 215.67,79.41 217.2,79.41 217.59,79.03 
			217.98,77.49 221.05,76.72 220.67,78.26 219.13,78.64 217.98,82.5 219.52,82.11 219.13,83.65 216.04,84.04 216.43,82.5 
			214.89,82.5 214.12,85.96 205.27,87.5 205.27,88.27 203.72,88.27 204.11,90.2 202.57,90.58 202.19,88.27 197.95,89.04 
			195.64,87.11 		"/>
		<polygon id="cod_2_" class="st2" points="231.65,85.37 230.51,83.84 231.65,78.87 237.93,77.83 238.16,77.35 241.21,76.97 
			241.15,77.28 242.73,76.97 242.73,76.58 247.31,75.82 247.31,76.2 249.22,75.82 251.14,78.11 252.65,78.11 253.04,77.73 
			253.43,76.2 256.48,75.44 256.1,76.97 254.58,77.35 253.43,81.17 254.95,80.78 254.58,82.31 251.51,82.69 251.9,81.17 
			250.36,81.17 249.61,84.6 240.82,86.13 240.82,86.9 239.3,86.9 239.67,88.81 238.16,89.19 237.77,86.9 233.57,87.66 231.28,85.75 
					"/>
		<polygon id="cod_3_" class="st2" points="215.88,73.12 214.75,71.6 215.88,66.66 222.14,65.62 222.35,65.14 225.38,64.76 
			225.35,65.07 226.91,64.76 226.91,64.38 231.46,63.62 231.46,64 233.36,63.62 235.27,65.9 236.79,65.9 237.17,65.52 237.54,64 
			240.58,63.24 240.21,64.76 238.69,65.14 237.54,68.95 239.07,68.56 238.69,70.08 235.64,70.46 236.03,68.95 234.5,68.95 
			233.75,72.36 225.02,73.88 225.02,74.64 223.49,74.64 223.87,76.54 222.35,76.92 221.96,74.64 217.79,75.4 215.51,73.5 		"/>
		<polygon id="cod_4_" class="st2" points="251.29,59.93 249.86,58.04 251.29,51.9 259.06,50.61 259.31,50.01 263.09,49.54 
			263.04,49.93 264.99,49.54 264.99,49.07 270.65,48.12 270.65,48.6 273.03,48.12 275.38,50.96 277.25,50.96 277.73,50.49 
			278.2,48.6 281.98,47.65 281.51,49.54 279.63,50.01 278.2,54.74 280.11,54.27 279.63,56.16 275.85,56.63 276.33,54.74 
			274.42,54.74 273.47,58.99 262.61,60.88 262.61,61.82 260.74,61.82 261.22,64.19 259.31,64.66 258.83,61.82 253.64,62.77 
			250.82,60.41 		"/>
		<polygon id="cod_5_" class="st2" points="208.95,57.6 207.8,56.07 208.95,51.1 215.24,50.05 215.45,49.57 218.5,49.18 
			218.46,49.5 220.04,49.18 220.04,48.8 224.63,48.03 224.63,48.42 226.54,48.03 228.46,50.33 229.98,50.33 230.37,49.95 
			230.74,48.42 233.81,47.65 233.42,49.18 231.89,49.57 230.74,53.39 232.28,53.01 231.89,54.53 228.83,54.92 229.22,53.39 
			227.69,53.39 226.93,56.83 218.13,58.36 218.13,59.12 216.6,59.12 216.99,61.04 215.45,61.42 215.07,59.12 210.86,59.89 
			208.56,57.98 		"/>
		<polygon id="cod_6_" class="st2" points="167.35,66.57 165.92,64.65 167.35,58.45 175.2,57.14 175.46,56.53 179.29,56.06 
			179.22,56.45 181.2,56.06 181.2,55.58 186.93,54.63 186.93,55.1 189.31,54.63 191.7,57.49 193.6,57.49 194.09,57.01 194.57,55.1 
			198.38,54.15 197.9,56.06 195.99,56.53 194.57,61.31 196.47,60.83 195.99,62.74 192.18,63.22 192.65,61.31 190.74,61.31 
			189.79,65.6 178.81,67.52 178.81,68.47 176.91,68.47 177.38,70.86 175.46,71.33 174.99,68.47 169.74,69.43 166.88,67.04 		"/>
		<polygon id="tropical_fish" class="st2" points="319.77,183.23 318.85,183.23 318.85,183.7 316.94,183.7 316.94,183.23 
			315.52,183.23 315.52,185.12 314.12,185.12 314.12,185.59 313.64,186.06 311.74,185.59 311.74,182.75 307.51,182.28 
			307.51,180.86 302.78,179.92 302.78,175.19 307.51,175.67 307.51,174.25 311.29,174.25 311.29,171.89 315.52,172.36 
			315.52,174.72 319.77,175.19 		"/>
		<polygon id="tropical_fish_1_" class="st2" points="327.14,209.11 326.01,209.11 326.01,209.68 323.76,209.68 323.76,209.11 
			322.04,209.11 322.04,211.38 320.35,211.38 320.35,211.95 319.77,212.52 317.53,211.95 317.53,208.54 312.41,207.97 
			312.41,206.28 306.75,205.15 306.75,199.48 312.41,200.05 312.41,198.34 316.94,198.34 316.94,195.5 322.04,196.07 322.04,198.91 
			327.14,199.48 		"/>
		<polygon id="tropical_fish_2_" class="st2" points="366.2,200.83 365.06,200.83 365.06,201.39 362.79,201.39 362.79,200.83 
			361.1,200.83 361.1,203.1 359.41,203.1 359.41,203.67 358.83,204.24 356.55,203.67 356.55,200.26 351.45,199.69 351.45,198 
			345.8,196.86 345.8,191.19 351.45,191.76 351.45,190.06 356,190.06 356,187.23 361.1,187.79 361.1,190.63 366.2,191.19 		"/>
		<polygon id="tropical_fish_3_" class="st2" points="392.17,172.96 391.04,172.96 391.04,173.53 388.79,173.53 388.79,172.96 
			387.07,172.96 387.07,175.23 385.39,175.23 385.39,175.79 384.8,176.36 382.55,175.79 382.55,172.39 377.45,171.82 377.45,170.12 
			371.78,168.99 371.78,163.32 377.45,163.89 377.45,162.19 381.98,162.19 381.98,159.35 387.07,159.92 387.07,162.76 
			392.17,163.32 		"/>
		<polygon id="tropical_fish_4_" class="st2" points="365.13,223.85 364.19,223.85 364.19,224.32 362.29,224.32 362.29,223.85 
			360.89,223.85 360.89,225.74 359.46,225.74 359.46,226.21 358.98,226.68 357.11,226.21 357.11,223.38 352.86,222.9 352.86,221.49 
			348.12,220.54 348.12,215.82 352.86,216.3 352.86,214.87 356.63,214.87 356.63,212.52 360.89,212.98 360.89,215.35 365.13,215.82 
					"/>
		<polygon id="tropical_fish_5_" class="st2" points="393.94,194.09 392.99,194.09 392.99,194.56 391.12,194.56 391.12,194.09 
			389.69,194.09 389.69,195.98 388.27,195.98 388.27,196.45 387.81,196.93 385.91,196.45 385.91,193.61 381.66,193.15 
			381.66,191.73 376.93,190.78 376.93,186.06 381.66,186.53 381.66,185.12 385.44,185.12 385.44,182.75 389.69,183.23 
			389.69,185.59 393.94,186.06 		"/>
		<polygon id="tropical_fish_6_" class="st2" points="342.92,167.95 342.24,167.95 342.24,168.29 340.89,168.29 340.89,167.95 
			339.87,167.95 339.87,169.32 338.82,169.32 338.82,169.66 338.48,170 337.13,169.66 337.13,167.61 334.05,167.27 334.05,166.25 
			330.65,165.57 330.65,162.15 334.05,162.49 334.05,161.47 336.79,161.47 336.79,159.76 339.87,160.11 339.87,161.81 
			342.92,162.15 		"/>
		<polygon id="pufferfish" class="st2" points="252.22,157.09 244.19,160.4 244.19,161.34 245.14,161.81 244.19,163.7 
			235.22,158.51 236.15,157.09 233.8,157.09 233.8,152.84 236.15,152.84 236.15,150.95 233.8,150.95 233.8,147.17 235.69,147.17 
			237.58,146.23 234.74,144.81 237.58,142.92 240.89,144.81 244.19,142.92 245.14,141.51 246.55,141.97 245.65,143.9 247.03,144.81 
			248.44,142.92 249.86,143.39 248.44,145.28 249.86,146.23 251.74,144.33 253.16,144.81 252.22,147.17 254.11,147.17 
			254.11,149.06 252.22,149.06 252.22,150.95 254.11,150.95 254.11,152.84 252.22,152.84 252.22,155.2 254.11,155.2 254.11,157.09 
					"/>
		<polygon id="turtle" class="st2" points="409.06,234.71 468.58,238.02 469.04,254.08 467.17,260.69 486.06,263.51 489.36,275.8 
			481.81,292.82 461.96,288.09 458.66,297.08 455.83,297.08 454.4,303.21 449.22,302.25 430.78,335.81 428.43,335.81 415.19,324.93 
			430.31,298 387.81,289.04 385.91,286.19 377.4,286.66 376,285.27 380.25,276.28 381.18,276.28 380.7,275.33 391.12,260.21 
			385.91,259.29 385.44,256.91 391.59,250.31 396.77,252.2 		"/>
	</g>
	<polygon id="body" class="st3" points="94.46,469.01 56.2,444.92 60.92,410.91 162.96,326.83 208.3,361.32 294.75,361.32 
		339.62,326.83 436.46,408.08 444.5,441.14 405.76,470.9 305.61,389.18 297.1,512 200.27,512 199.8,389.18 	"/>
	<g id="helmet">
		<g id="Icon">
			<rect x="185.15" y="226.68" class="st4" width="131.79" height="135.59"/>
		</g>
		<rect x="220.29" y="252.69" class="st2" width="62.26" height="15.76"/>
		<rect x="204.52" y="268.44" class="st2" width="15.77" height="47.35"/>
		<rect x="282.55" y="268.44" class="st2" width="15.77" height="47.35"/>
		<rect x="220.29" y="252.69" class="st5" width="15.77" height="15.75"/>
		<rect x="220.29" y="315.79" class="st2" width="62.26" height="15.77"/>
		<rect x="267.62" y="252.69" class="st5" width="15.77" height="15.76"/>
		<rect x="282.55" y="268.44" class="st5" width="15.77" height="15.77"/>
		<rect x="282.55" y="300.02" class="st5" width="15.77" height="15.77"/>
		<rect x="250.99" y="315.79" class="st5" width="31.56" height="15.77"/>
		<rect x="204.52" y="284.22" class="st5" width="15.77" height="15.79"/>
		<rect x="236.06" y="268.44" class="st1" width="15.77" height="15.77"/>
		<rect x="220.29" y="284.22" class="st1" width="15.77" height="31.57"/>
	</g>
</g>
</svg>
