<?xml version="1.0" encoding="utf-8"?>
<!-- Generator: Adobe Illustrator 23.0.6, SVG Export Plug-In . SVG Version: 6.00 Build 0)  -->
<svg version="1.1" id="ziprails" xmlns="http://www.w3.org/2000/svg" xmlns:xlink="http://www.w3.org/1999/xlink" x="0px" y="0px"
	 viewBox="0 0 512 512" style="enable-background:new 0 0 512 512;" xml:space="preserve">
<style type="text/css">
	.st0{fill:#FFFFFF;}
	.st1{fill:#4AA0C7;}
	.st2{fill:#3D83A3;}
	.st3{fill:#DBECF4;}
	.st4{fill:#7FBCD7;}
	.st5{fill:none;}
</style>
<rect class="st0" width="512" height="512"/>
<g id="Icon">
	<g id="player">
		<rect x="238.9" y="176.9" class="st1" width="17.8" height="17"/>
		<rect x="243.6" y="192.3" class="st1" width="8.1" height="21.6"/>
		<polygon class="st1" points="246.7,202.9 250.4,196.5 270.3,208 266.5,214.4 		"/>
		<g id="cart">
			<rect x="230.4" y="207.7" class="st2" width="44.3" height="25.4"/>
			<polygon class="st2" points="244.2,233.1 243.8,233.1 243.2,233.1 242.8,233.1 242.3,233.1 241.8,233.1 241.3,233.1 240.8,233.1 
				240.3,233.1 239.8,233.1 239.3,233.1 238.8,233.1 238.3,233.1 238.3,233.6 238.3,234.1 238.8,234.1 238.8,234.6 239.3,234.6 
				239.3,235.1 239.8,235.1 240.3,235.1 240.3,235.6 240.8,235.6 241.3,235.6 241.8,235.6 242.3,235.6 242.8,235.6 242.8,235.1 
				243.2,235.1 243.8,235.1 243.8,234.6 244.2,234.6 244.2,234.1 244.8,234.1 244.8,233.6 244.8,233.1 			"/>
			<polygon class="st2" points="267.3,233.1 266.8,233.1 266.3,233.1 265.8,233.1 265.3,233.1 264.8,233.1 264.3,233.1 263.8,233.1 
				263.3,233.1 262.8,233.1 262.3,233.1 261.9,233.1 261.3,233.1 261.3,233.6 261.3,234.1 261.9,234.1 261.9,234.6 262.3,234.6 
				262.3,235.1 262.8,235.1 263.3,235.1 263.3,235.6 263.8,235.6 264.3,235.6 264.8,235.6 265.3,235.6 265.8,235.6 265.8,235.1 
				266.3,235.1 266.8,235.1 266.8,234.6 267.3,234.6 267.3,234.1 267.8,234.1 267.8,233.6 267.8,233.1 			"/>
		</g>
	</g>
	<g id="cliff">
		<g id="cart_1_">
			<polygon class="st2" points="51.2,254.2 50.7,254.2 50.2,254.2 49.7,254.2 49.2,254.2 48.7,254.2 48.2,254.2 47.7,254.2 
				47.2,254.2 46.7,254.2 46.2,254.2 45.7,254.2 45.2,254.2 45.2,254.7 45.2,255.2 45.7,255.2 45.7,255.7 46.2,255.7 46.2,256.2 
				46.7,256.2 47.2,256.2 47.2,256.7 47.7,256.7 48.2,256.7 48.7,256.7 49.2,256.7 49.7,256.7 49.7,256.2 50.2,256.2 50.7,256.2 
				50.7,255.7 51.2,255.7 51.2,255.2 51.7,255.2 51.7,254.7 51.7,254.2 			"/>
			<polygon class="st2" points="74.3,254.2 73.8,254.2 73.3,254.2 72.8,254.2 72.3,254.2 71.8,254.2 71.3,254.2 70.8,254.2 
				70.3,254.2 69.8,254.2 69.3,254.2 68.8,254.2 68.3,254.2 68.3,254.7 68.3,255.2 68.8,255.2 68.8,255.7 69.3,255.7 69.3,256.2 
				69.8,256.2 70.3,256.2 70.3,256.7 70.8,256.7 71.3,256.7 71.8,256.7 72.3,256.7 72.8,256.7 72.8,256.2 73.3,256.2 73.8,256.2 
				73.8,255.7 74.3,255.7 74.3,255.2 74.8,255.2 74.8,254.7 74.8,254.2 			"/>
			<rect x="37.3" y="228.8" class="st2" width="44.3" height="25.4"/>
		</g>
		<g id="cart_2_">
			<rect x="431.7" y="228.8" class="st2" width="44.3" height="25.4"/>
			<polygon class="st2" points="445.6,254.2 445.1,254.2 444.6,254.2 444.1,254.2 443.6,254.2 443.1,254.2 442.6,254.2 442.1,254.2 
				441.6,254.2 441.1,254.2 440.6,254.2 440.1,254.2 439.6,254.2 439.6,254.7 439.6,255.2 440.1,255.2 440.1,255.7 440.6,255.7 
				440.6,256.2 441.1,256.2 441.6,256.2 441.6,256.7 442.1,256.7 442.6,256.7 443.1,256.7 443.6,256.7 444.1,256.7 444.1,256.2 
				444.6,256.2 445.1,256.2 445.1,255.7 445.6,255.7 445.6,255.2 446.1,255.2 446.1,254.7 446.1,254.2 			"/>
			<polygon class="st2" points="468.6,254.2 468.1,254.2 467.6,254.2 467.1,254.2 466.6,254.2 466.1,254.2 465.6,254.2 465.1,254.2 
				464.6,254.2 464.1,254.2 463.6,254.2 463.1,254.2 462.6,254.2 462.6,254.7 462.6,255.2 463.1,255.2 463.1,255.7 463.6,255.7 
				463.6,256.2 464.1,256.2 464.6,256.2 464.6,256.7 465.1,256.7 465.6,256.7 466.1,256.7 466.6,256.7 467.1,256.7 467.1,256.2 
				467.6,256.2 468.1,256.2 468.1,255.7 468.6,255.7 468.6,255.2 469.1,255.2 469.1,254.7 469.1,254.2 			"/>
		</g>
		<g id="connectors">
			<rect x="1.9" y="259" class="st1" width="5.4" height="3"/>
			<rect x="14.7" y="259" class="st1" width="5.4" height="3"/>
			<rect x="26.8" y="259" class="st1" width="5.4" height="3"/>
			<rect x="39" y="259" class="st1" width="5.4" height="3"/>
			<rect x="51.8" y="259" class="st1" width="5.4" height="3"/>
			<rect x="64" y="259" class="st1" width="5.4" height="3"/>
			<rect x="76.2" y="259" class="st1" width="5.4" height="3"/>
			<rect x="88.9" y="259" class="st1" width="5.4" height="3"/>
			<rect x="101.1" y="259" class="st1" width="5.4" height="3"/>
		</g>
		<g id="connectors_1_">
			<rect x="505.5" y="259.1" class="st1" width="5.4" height="3"/>
			<rect x="492.8" y="259.1" class="st1" width="5.4" height="3"/>
			<rect x="480.6" y="259.1" class="st1" width="5.4" height="3"/>
			<rect x="468.4" y="259.1" class="st1" width="5.4" height="3"/>
			<rect x="455.6" y="259.1" class="st1" width="5.4" height="3"/>
			<rect x="443.5" y="259.1" class="st1" width="5.3" height="3"/>
			<rect x="431.3" y="259.1" class="st1" width="5.4" height="3"/>
			<rect x="418.5" y="259.1" class="st1" width="5.4" height="3"/>
			<rect x="406.3" y="259.1" class="st1" width="5.4" height="3"/>
		</g>
		<g id="bars">
			<rect x="1.9" y="257.9" class="st2" width="5.4" height="3"/>
			<rect x="14.7" y="257.9" class="st2" width="5.4" height="3"/>
			<rect x="26.8" y="257.9" class="st2" width="5.4" height="3"/>
			<rect x="39" y="257.9" class="st2" width="5.4" height="3"/>
			<rect x="51.8" y="257.9" class="st2" width="5.4" height="3"/>
			<rect x="64" y="257.9" class="st2" width="5.4" height="3"/>
			<rect x="76.2" y="257.9" class="st2" width="5.4" height="3"/>
			<rect x="88.9" y="257.9" class="st2" width="5.4" height="3"/>
			<rect x="101.1" y="257.9" class="st2" width="5.4" height="3"/>
		</g>
		<g id="bars_1_">
			<rect x="505.5" y="257.9" class="st2" width="5.4" height="3"/>
			<rect x="492.8" y="257.9" class="st2" width="5.4" height="3"/>
			<rect x="480.6" y="257.9" class="st2" width="5.4" height="3"/>
			<rect x="468.4" y="257.9" class="st2" width="5.4" height="3"/>
			<rect x="455.6" y="257.9" class="st2" width="5.4" height="3"/>
			<rect x="443.5" y="257.9" class="st2" width="5.3" height="3"/>
			<rect x="431.3" y="257.9" class="st2" width="5.4" height="3"/>
			<rect x="418.5" y="257.9" class="st2" width="5.4" height="3"/>
			<rect x="406.3" y="257.9" class="st2" width="5.4" height="3"/>
		</g>
		<rect id="tripwire" x="148.8" y="207.3" class="st3" width="214.7" height="1.2"/>
		<g id="tripwire_hook">
			<rect x="365.9" y="200.7" class="st2" width="3" height="8.9"/>
			<rect x="364.7" y="204.3" class="st2" width="1.8" height="4.2"/>
			<rect x="362.9" y="207.3" class="st2" width="2.4" height="1.2"/>
		</g>
		<g id="tripwire_hook_1_">
			<rect x="143.4" y="200.7" class="st2" width="3" height="8.9"/>
			<rect x="145.8" y="204.3" class="st2" width="1.8" height="4.2"/>
			<rect x="147" y="207.3" class="st2" width="2.4" height="1.2"/>
		</g>
		<g>
			<polygon class="st4" points="512,262.1 512,512 368.9,512 368.9,512 368.5,512 368.5,192 404.1,192 404.1,262.1 			"/>
			<polygon class="st4" points="144.1,192.4 144.1,512 144,512 144,512 144,512 144,261.5 144,261.5 144,512 0,512 0,261.5 
				108.9,261.5 108.9,192.4 			"/>
			<rect x="144" y="261.5" class="st4" width="0" height="250.5"/>
			<rect x="144" y="261.5" class="st4" width="0" height="250.5"/>
			<line class="st5" x1="368.5" y1="512" x2="144.1" y2="512"/>
			<line class="st5" x1="512" y1="512" x2="404.1" y2="512"/>
			<line class="st5" x1="368.9" y1="512" x2="368.5" y2="512"/>
			<line class="st5" x1="404.1" y1="512" x2="368.9" y2="512"/>
			<line class="st5" x1="108.9" y1="512" x2="0" y2="512"/>
			<line class="st5" x1="144.1" y1="512" x2="144" y2="512"/>
			<line class="st5" x1="144" y1="512" x2="108.9" y2="512"/>
			<g>
				<rect x="400.4" y="256.7" class="st1" width="111.6" height="3"/>
			</g>
			<g>
				<rect y="256.6" class="st1" width="112.5" height="3"/>
			</g>
		</g>
	</g>
</g>
</svg>
