<?xml version="1.0" encoding="utf-8"?>
<!-- Generator: Adobe Illustrator 23.0.6, SVG Export Plug-In . SVG Version: 6.00 Build 0)  -->
<svg version="1.1" id="poses_pack" xmlns="http://www.w3.org/2000/svg" xmlns:xlink="http://www.w3.org/1999/xlink" x="0px" y="0px"
	 viewBox="0 0 512 512" style="enable-background:new 0 0 512 512;" xml:space="preserve">
<style type="text/css">
	.st0{fill:#FFFFFF;}
	.st1{fill:#7FBCD7;}
	.st2{fill:#3D83A3;}
	.st3{fill:#4AA0C7;}
</style>
<rect x="0" y="0" class="st0" width="512" height="512"/>
<g>
	<g id="Icon">
		<polygon class="st1" points="137.84,297.25 148.61,294.43 217.43,323.01 212.75,204.55 379.42,222.81 377.06,251.84 
			278.29,256.04 282.03,355.77 253.95,374.03 134.1,323.01 		"/>
		<g id="sword">
			<g id="g4331">
				<g id="g4273">
					<polygon id="rect4150" class="st2" points="364.76,455.07 340.53,479.49 316.45,455.6 340.64,431.18 					"/>
					<polygon id="rect4152" class="st2" points="362.73,437.01 339.42,460.53 315.57,436.86 338.87,413.34 					"/>
					
						<rect id="rect4154" x="323.98" y="402.18" transform="matrix(0.7042 -0.71 0.71 0.7042 -196.5032 365.95)" class="st2" width="33.92" height="33.26"/>
					<polygon id="rect4156" class="st2" points="364.63,402.71 340.53,427.03 315.98,402.69 340.08,378.4 					"/>
					<polygon id="rect4158" class="st2" points="362.09,384.03 338.51,407.79 314.9,384.33 338.44,360.59 					"/>
					<polygon id="rect4160" class="st2" points="363.63,366.28 340.34,389.81 316.34,366.05 339.68,342.53 					"/>
					<polygon id="rect4160-9" class="st2" points="363.6,349.7 340.27,373.2 314.95,348.08 338.28,324.58 					"/>
					<polygon id="rect4160-4" class="st2" points="363.88,330.35 339.32,355.11 315.33,331.35 339.89,306.59 					"/>
					<polygon id="rect4160-5" class="st2" points="372.09,304.27 339.69,336.92 306.31,303.84 338.75,271.19 					"/>
					<polygon id="rect4160-4-9" class="st2" points="408.99,304.86 392.73,321.27 376.45,305.13 392.7,288.72 					"/>
					<polygon id="rect4160-4-9-7" class="st2" points="391.18,303.35 374.91,319.73 350.36,295.42 366.62,279.01 					"/>
					
						<rect id="rect4160-4-9-2" x="274.22" y="293.35" transform="matrix(0.7039 -0.7103 0.7103 0.7039 -131.8952 293.2361)" class="st2" width="23.1" height="22.93"/>
					<polygon id="rect4160-4-9-7-3" class="st2" points="329.72,295.1 304.27,320.77 287.86,304.51 313.31,278.84 					"/>
					
						<rect id="rect4160-4-9-25" x="327.84" y="258.39" transform="matrix(0.7039 -0.7103 0.7103 0.7039 -91.1806 320.972)" class="st2" width="23.1" height="22.92"/>
					<polygon id="rect4160-4-9-25-6" class="st2" points="355.26,252.04 339,268.43 322.71,252.29 338.98,235.9 					"/>
					<polygon id="rect4160-4-9-25-2" class="st2" points="363.78,224.36 339.47,248.91 315.09,224.75 339.41,200.2 					"/>
				</g>
			</g>
			<g id="g4177" transform="matrix(0.81179945,0.58393634,-0.58393634,0.81179945,-841.48546,-920.78022)">
			</g>
			<a id="a4378" transform="matrix(0.81179945,0.58393634,-0.58393634,0.81179945,267.7046,-60.585579)">
				<g id="g4323">
					<g id="g4384">
					</g>
				</g>
			</a>
			<a id="a4357" transform="matrix(0.81179945,0.58393634,-0.58393634,0.81179945,717.4415,262.91515)">
			</a>
		</g>
		<polygon class="st3" points="232.41,386.67 98.05,372.62 98.05,349.22 113.03,342.67 211.82,349.22 212.75,244.82 180.91,242.01 
			180.45,196.13 194.05,189.92 365.82,236.62 367.87,254.26 352.82,271.91 260.97,254.65 260.97,366.07 244.59,374.03 		"/>
		<polygon class="st2" points="271.74,251.84 282.51,251.84 301.46,226.75 330.51,226.75 384.58,137.14 350.39,117.01 		"/>
		<polygon class="st3" points="225.39,36.48 350.39,117.01 269.41,256.04 159.84,171.78 		"/>
	</g>
	<polyline class="st3" points="384.58,137.14 303.57,85.17 225.39,36.48 350.39,117.01 	"/>
</g>
</svg>
