<?xml version="1.0" encoding="utf-8"?>
<!-- Generator: Adobe Illustrator 23.0.6, SVG Export Plug-In . SVG Version: 6.00 Build 0)  -->
<svg version="1.1" id="moneo_shamir" xmlns="http://www.w3.org/2000/svg" xmlns:xlink="http://www.w3.org/1999/xlink" x="0px"
	 y="0px" viewBox="0 0 512 512" style="enable-background:new 0 0 512 512;" xml:space="preserve">
<style type="text/css">
	.st0{fill:#FFFFFF;}
	.st1{fill:#4AA0C7;}
	.st2{fill:#A1CEE2;}
	.st3{fill:#3D83A3;}
	.st4{fill:#7FBCD7;}
</style>
<rect class="st0" width="512" height="512"/>
<g>
	<g id="Shovel">
		<g>
			<polygon class="st1" points="222.06,215.78 240.86,210.75 271.06,323.5 252.27,328.54 			"/>
			<polygon class="st1" points="208.33,239.62 264.67,224.52 289.84,318.44 233.49,333.54 			"/>
			<polygon class="st1" points="199.63,282.21 331.13,246.98 336.15,265.77 204.66,301 			"/>
			<polygon class="st1" points="283.49,219.49 321.06,209.42 336.15,265.78 298.57,275.84 			"/>
			<polygon class="st1" points="213.37,258.41 307.3,233.23 322.39,289.58 228.46,314.75 			"/>
			<polygon class="st1" points="213.37,258.41 288.51,238.27 308.66,313.41 233.51,333.54 			"/>
			<polygon class="st1" points="245.91,229.56 264.68,224.52 294.9,337.24 276.1,342.26 			"/>
			
				<rect x="214" y="314.12" transform="matrix(0.9659 -0.2588 0.2588 0.9659 -78.3772 71.7838)" class="st1" width="38.9" height="38.9"/>
			<polygon class="st1" points="195.95,343.59 233.53,333.52 243.59,371.09 206.03,381.16 			"/>
			<polygon class="st1" points="182.17,367.44 219.75,357.37 229.81,394.94 192.25,405.01 			"/>
			<polygon class="st1" points="168.4,391.28 205.97,381.21 216.04,418.78 178.47,428.85 			"/>
			<polygon class="st1" points="154.66,415.09 192.23,405.03 202.3,442.59 164.73,452.66 			"/>
			<polygon class="st1" points="159.71,433.86 197.28,423.8 207.35,461.37 169.78,471.43 			"/>
			<polygon class="st2" points="140.9,438.91 197.26,423.81 202.3,442.6 145.94,457.69 			"/>
		</g>
		<polygon class="st3" points="208.34,239.59 227.13,234.56 237.19,272.13 218.4,277.17 		"/>
		
			<rect x="224.27" y="212.96" transform="matrix(0.966 -0.2587 0.2587 0.966 -49.6405 68.1121)" class="st3" width="19.45" height="19.45"/>
		<polygon class="st3" points="245.91,229.53 264.71,224.5 269.73,243.28 250.96,248.31 		"/>
		<polygon class="st3" points="269.73,243.3 288.5,238.27 293.55,257.06 274.78,262.08 		"/>
		<polygon class="st3" points="283.49,219.47 321.06,209.41 326.09,228.18 288.51,238.26 		"/>
		<polygon class="st3" points="302.24,214.48 321.02,209.44 336.13,265.8 317.35,270.84 		"/>
		<polygon class="st3" points="298.61,275.82 317.38,270.77 322.4,289.57 303.63,294.59 		"/>
		<polygon class="st3" points="284.83,299.66 303.61,294.62 308.66,313.42 289.86,318.44 		"/>
		<polygon class="st3" points="271.09,323.47 289.87,318.43 294.91,337.22 276.13,342.25 		"/>
		<polygon class="st3" points="247.3,309.73 266.09,304.71 271.11,323.49 252.33,328.53 		"/>
		<polygon class="st3" points="199.62,282.19 218.4,277.17 223.43,295.95 204.66,301 		"/>
		<polygon class="st3" points="233.35,333.07 252.15,328.06 257.18,346.83 238.38,351.87 		"/>
		<polygon class="st3" points="219.64,356.88 238.43,351.83 243.46,370.64 224.67,375.65 		"/>
		<polygon class="st3" points="205.86,380.73 224.65,375.7 229.68,394.48 210.89,399.5 		"/>
		<polygon class="st3" points="192.13,404.57 210.92,399.55 215.95,418.34 197.16,423.37 		"/>
		<polygon class="st3" points="178.43,428.88 197.22,423.85 207.29,461.42 188.5,466.45 		"/>
		
			<rect x="166.58" y="447.3" transform="matrix(0.9659 -0.2589 0.2589 0.9659 -111.9796 63.7456)" class="st3" width="38.9" height="19.44"/>
		<polygon class="st3" points="140.91,438.9 159.69,433.87 164.73,452.66 145.95,457.68 		"/>
		<polygon class="st3" points="154.64,415.09 173.42,410.05 178.45,428.83 159.67,433.86 		"/>
		<polygon class="st3" points="168.32,390.78 187.1,385.75 192.14,404.54 173.35,409.57 		"/>
		<polygon class="st3" points="182.15,367.45 200.94,362.42 205.97,381.21 187.18,386.25 		"/>
		<polygon class="st3" points="195.92,343.62 214.7,338.6 219.73,357.38 200.95,362.41 		"/>
		<polygon class="st3" points="209.64,319.86 228.43,314.81 233.46,333.59 214.67,338.63 		"/>
		<polygon class="st3" points="223.45,295.94 242.24,290.89 247.27,309.7 228.49,314.72 		"/>
	</g>
	<g id="Sound_Wave">
		<polygon class="st1" points="138.17,263.29 143.32,235.18 152.69,236.9 147.54,265.01 		"/>
		<polygon class="st1" points="145.81,274.33 147.52,264.94 156.89,266.66 155.18,276.04 		"/>
		<polygon class="st1" points="152.68,236.89 154.39,227.52 163.76,229.23 162.05,238.59 		"/>
		<polygon class="st1" points="108.35,267.5 116.91,220.64 126.28,222.36 117.72,269.22 		"/>
		<polygon class="st1" points="116,278.55 117.71,269.17 127.08,270.89 125.36,280.27 		"/>
		<polygon class="st1" points="123.65,289.69 125.37,280.31 134.74,282.03 133.02,291.38 		"/>
		<polygon class="st1" points="126.27,222.34 127.98,212.97 137.35,214.69 135.64,224.06 		"/>
		
			<rect x="138.14" y="206.11" transform="matrix(0.1799 -0.9837 0.9837 0.1799 -90.2423 313.5038)" class="st1" width="9.52" height="9.52"/>
		<polygon class="st1" points="80.25,262.39 88.81,215.52 98.18,217.24 89.61,264.08 		"/>
		<polygon class="st1" points="86.19,282.81 89.61,264.07 98.98,265.79 95.55,284.53 		"/>
		<polygon class="st1" points="98.18,217.22 101.6,198.48 110.97,200.19 107.54,218.93 		"/>
		<polygon class="st1" points="110.97,200.21 112.68,190.84 122.05,192.54 120.34,201.91 		"/>
		<polygon class="st1" points="93.84,293.94 95.55,284.55 104.92,286.27 103.21,295.66 		"/>
	</g>
	<g id="Sound_Wave_1_">
		<polygon class="st1" points="382.96,276.83 375.3,304.36 366.12,301.79 373.78,274.29 		"/>
		<polygon class="st1" points="376.36,265.11 373.8,274.25 364.64,271.71 367.19,262.54 		"/>
		<polygon class="st1" points="366.11,301.81 363.56,310.98 354.39,308.44 356.94,299.27 		"/>
		<polygon class="st1" points="413.08,275.36 400.3,321.25 391.13,318.68 403.91,272.82 		"/>
		<polygon class="st1" points="406.43,263.63 403.89,272.8 394.72,270.24 397.27,261.06 		"/>
		<polygon class="st1" points="399.85,251.9 397.31,261.07 388.14,258.53 390.69,249.34 		"/>
		<polygon class="st1" points="391.12,318.72 388.56,327.88 379.39,325.33 381.95,316.16 		"/>
		<polygon class="st1" points="379.33,325.27 376.77,334.44 367.61,331.9 370.16,322.73 		"/>
		<polygon class="st1" points="440.58,283.02 427.81,328.89 418.63,326.34 431.42,280.45 		"/>
		<polygon class="st1" points="436.38,262.16 431.25,280.52 422.08,277.95 427.2,259.6 		"/>
		<polygon class="st1" points="418.63,326.34 413.51,344.7 404.35,342.13 409.46,323.78 		"/>
		<polygon class="st1" points="404.38,342.18 401.81,351.34 392.64,348.8 395.21,339.62 		"/>
		<polygon class="st1" points="429.97,250.44 427.4,259.6 418.23,257.06 420.79,247.89 		"/>
	</g>
</g>
<g id="Shamir">
	<rect id="Cast" x="224.14" y="53.15" class="st3" width="67.78" height="67.79"/>
	<rect id="Band" x="217.61" y="74.21" class="st4" width="80.18" height="22.19"/>
</g>
<g id="Shamir_Particles">
	<g>
		<polygon class="st4" points="311.95,139.74 313.49,133.07 320.16,134.62 318.63,141.27 		"/>
		<polygon class="st4" points="318.02,143.95 318.65,141.27 321.33,141.88 320.7,144.56 		"/>
		<polygon class="st4" points="320.26,134.67 320.86,131.99 323.54,132.61 322.94,135.3 		"/>
		<polygon class="st4" points="310.91,132.54 311.54,129.86 314.22,130.48 313.59,133.16 		"/>
		<polygon class="st4" points="308.73,141.8 309.36,139.11 312.04,139.74 311.41,142.42 		"/>
	</g>
	<g>
		<polygon class="st4" points="193.53,131.59 196.38,120.99 206.97,123.82 204.13,134.42 		"/>
		<polygon class="st4" points="202.96,138.63 204.09,134.39 208.33,135.53 207.19,139.77 		"/>
		<polygon class="st4" points="206.91,123.85 208.03,119.61 212.28,120.75 211.14,124.98 		"/>
		<polygon class="st4" points="192.06,119.81 193.2,115.57 197.43,116.71 196.3,120.94 		"/>
		<polygon class="st4" points="188.1,134.68 189.25,130.44 193.48,131.58 192.35,135.81 		"/>
	</g>
	<g>
		<polygon class="st4" points="181.37,55.54 185.03,49.76 190.8,53.43 187.14,59.2 		"/>
		<polygon class="st4" points="185.72,61.52 187.19,59.19 189.51,60.67 188.04,63 		"/>
		<polygon class="st4" points="190.83,53.45 192.3,51.13 194.63,52.6 193.14,54.93 		"/>
		<polygon class="st4" points="182.73,48.31 184.21,45.98 186.54,47.46 185.06,49.78 		"/>
		<polygon class="st4" points="177.57,56.37 179.04,54.04 181.36,55.52 179.89,57.84 		"/>
	</g>
	<g>
		<polygon class="st4" points="262.38,30.14 263.28,27.47 265.95,28.34 265.04,31.01 		"/>
		
			<rect x="260.97" y="24.3" transform="matrix(0.3086 -0.9512 0.9512 0.3086 156.9489 267.3386)" class="st4" width="2.8" height="2.81"/>
		<polygon class="st4" points="265.95,28.26 266.81,25.6 269.49,26.47 268.59,29.14 		"/>
		<polygon class="st4" points="258.83,31.88 259.68,29.21 262.35,30.08 261.49,32.75 		"/>
		
			<rect x="264.53" y="31.35" transform="matrix(0.3083 -0.9513 0.9513 0.3083 152.7837 275.6355)" class="st4" width="2.8" height="2.81"/>
	</g>
	<g>
		<polygon class="st4" points="325.22,70.01 332.07,69.93 332.12,76.77 325.31,76.84 		"/>
		<polygon class="st4" points="332.12,76.78 334.9,76.74 334.92,79.5 332.15,79.53 		"/>
		<polygon class="st4" points="332.04,67.19 334.78,67.16 334.81,69.91 332.07,69.94 		"/>
		<polygon class="st4" points="322.5,67.34 325.23,67.31 325.26,70.07 322.52,70.09 		"/>
		<polygon class="st4" points="322.61,76.88 325.35,76.85 325.37,79.6 322.64,79.64 		"/>
	</g>
</g>
</svg>
