<?xml version="1.0" encoding="utf-8"?>
<!-- Generator: Adobe Illustrator 23.0.6, SVG Export Plug-In . SVG Version: 6.00 Build 0)  -->
<svg version="1.1" id="sunken_treasure" xmlns="http://www.w3.org/2000/svg" xmlns:xlink="http://www.w3.org/1999/xlink" x="0px"
	 y="0px" viewBox="0 0 512 512" style="enable-background:new 0 0 512 512;" xml:space="preserve">
<style type="text/css">
	.st0{fill:#FFFFFF;}
	.st1{fill:#A1CEE2;}
	.st2{fill:#3D83A3;}
	.st3{fill:#4AA0C7;}
</style>
<rect class="st0" width="512" height="511.94"/>
<g>
	<g>
		<g>
			<rect y="61.42" class="st1" width="512" height="380.54"/>
		</g>
	</g>
</g>
<g>
	<polygon class="st2" points="325.62,463.04 325.62,450.39 338.28,450.39 338.28,412.42 325.62,412.42 325.62,399.77 312.96,399.77 
		312.96,387.11 300.3,387.11 300.3,374.46 287.65,374.46 287.65,387.11 274.99,387.11 274.99,374.46 262.33,374.46 262.33,361.81 
		249.67,361.81 249.67,349.15 237.02,349.15 237.02,336.49 224.36,336.49 224.36,323.84 211.7,323.84 211.7,311.18 211.7,298.53 
		186.38,298.53 186.38,311.18 173.73,311.18 173.73,336.49 186.38,336.49 199.04,336.49 199.04,349.15 211.7,349.15 211.7,361.81 
		224.36,361.81 224.36,374.46 237.02,374.46 237.02,387.11 249.67,387.11 249.67,399.77 262.33,399.77 262.33,412.42 249.67,412.42 
		249.67,425.08 262.33,425.08 262.33,437.74 274.99,437.74 274.99,450.39 287.65,450.39 287.65,463.04 	"/>
	<g>
		<polygon class="st3" points="325.62,437.74 325.62,412.42 312.96,412.42 312.96,399.77 300.3,399.77 300.3,387.11 287.65,387.11 
			287.65,399.77 274.99,399.77 274.99,412.42 262.33,412.42 262.33,425.08 274.99,425.08 274.99,437.74 287.65,437.74 
			287.65,450.39 312.96,450.39 325.62,450.39 		"/>
		<rect x="262.33" y="387.11" class="st3" width="12.66" height="12.66"/>
		<rect x="249.67" y="374.46" class="st3" width="12.66" height="12.65"/>
		<rect x="237.02" y="361.81" class="st3" width="12.66" height="12.66"/>
		<rect x="224.36" y="349.15" class="st3" width="12.66" height="12.66"/>
		<rect x="211.7" y="336.49" class="st3" width="12.66" height="12.66"/>
		<rect x="199.04" y="323.84" class="st3" width="12.66" height="12.66"/>
		<polygon class="st3" points="199.04,298.53 186.38,298.53 186.38,311.18 173.73,311.18 173.73,323.84 186.38,323.84 
			199.04,323.84 199.04,311.18 		"/>
	</g>
</g>
<polygon class="st2" points="321.9,241.23 321.9,236.68 321.9,232.14 317.36,232.14 317.36,227.59 312.81,227.59 312.81,223.05 
	308.27,223.05 308.27,218.5 303.72,218.5 299.17,218.5 294.63,218.5 290.08,218.5 290.08,223.05 285.54,223.05 285.54,227.59 
	280.99,227.59 280.99,232.14 276.45,232.14 276.45,236.68 276.45,241.23 271.9,241.23 271.9,245.77 271.9,250.32 271.9,254.86 
	271.9,259.42 276.45,259.42 276.45,263.96 276.45,268.51 280.99,268.51 280.99,273.05 285.54,273.05 285.54,277.6 290.08,277.6 
	294.63,277.6 299.17,277.6 303.72,277.6 308.27,277.6 312.81,277.6 312.81,273.05 317.36,273.05 317.36,268.51 321.9,268.51 
	321.9,263.96 321.9,259.42 326.45,259.42 326.45,254.86 326.45,250.32 326.45,245.77 326.45,241.23 "/>
<polygon class="st2" points="240.4,151.28 235.86,151.28 235.86,155.82 231.31,155.82 231.31,160.37 226.77,160.37 226.77,155.82 
	231.31,155.82 231.31,151.28 235.86,151.28 235.86,146.73 240.4,146.73 240.4,142.19 240.4,137.64 235.86,137.64 231.31,137.64 
	231.31,142.19 226.77,142.19 226.77,146.73 222.22,146.73 222.22,151.28 217.68,151.28 217.68,146.73 222.22,146.73 222.22,142.19 
	226.77,142.19 226.77,137.64 226.77,133.1 222.22,133.1 217.68,133.1 217.68,137.64 213.13,137.64 213.13,142.19 208.58,142.19 
	208.58,146.73 208.58,151.28 208.58,155.82 208.58,160.37 208.58,164.91 204.04,164.91 204.04,169.46 199.49,169.46 199.49,174 
	194.94,174 194.94,178.55 190.4,178.55 190.4,183.09 185.85,183.09 185.85,187.64 181.31,187.64 181.31,192.18 176.76,192.18 
	176.76,196.73 176.76,201.28 181.31,201.28 185.85,201.28 185.85,196.73 190.4,196.73 190.4,192.18 194.94,192.18 194.94,187.64 
	199.49,187.64 199.49,183.09 204.04,183.09 204.04,178.55 208.58,178.55 208.58,174 213.13,174 213.13,169.46 217.68,169.46 
	222.22,169.46 226.77,169.46 231.31,169.46 235.86,169.46 235.86,164.91 240.4,164.91 240.4,160.37 244.95,160.37 244.95,155.82 
	244.95,151.28 "/>
<rect x="284.03" y="117.67" class="st0" width="9.1" height="9.1"/>
<rect x="222.96" y="204.52" class="st0" width="9.1" height="9.1"/>
<rect x="191.16" y="217.28" class="st0" width="9.1" height="9.1"/>
<rect x="306.57" y="307" class="st0" width="9.1" height="9.1"/>
<rect x="312.31" y="125.95" class="st0" width="9.1" height="9.1"/>
<rect x="316.86" y="103.82" class="st0" width="9.1" height="9.1"/>
<rect x="202.32" y="192.61" class="st0" width="9.1" height="9.1"/>
<rect x="282.14" y="291.86" class="st0" width="9.1" height="9.1"/>
<rect x="216.16" y="221.83" class="st0" width="4.55" height="4.55"/>
<rect x="213.88" y="263.83" class="st0" width="4.55" height="4.55"/>
<rect x="299.93" y="172.14" class="st0" width="4.55" height="4.55"/>
<rect x="302.02" y="342.28" class="st0" width="4.55" height="4.55"/>
<rect x="208.58" y="245.75" class="st0" width="4.55" height="4.55"/>
<rect x="307.74" y="149.32" class="st0" width="4.55" height="4.55"/>
<rect x="296.5" y="137.07" class="st0" width="4.55" height="4.55"/>
<rect x="307.65" y="286.22" class="st0" width="4.55" height="4.55"/>
<rect x="291.27" y="327.46" class="st0" width="4.55" height="4.55"/>
<g>
	<path class="st3" d="M53.72,429.3H49.5h-4.22v4.22h-4.22v-4.22h4.22v-4.22h-4.22v-4.22h-4.22v-4.22v-4.22v-4.22h4.22v-4.22v-4.22
		v-4.22h-4.22v-4.22h-4.22v4.22v4.22v4.22v4.22H28.4v4.22h-4.22v4.22h-4.22v4.22h-4.22v4.22v4.22h4.22v4.22v4.22v4.22h4.22h4.22
		h4.22h4.22h4.22h4.22h4.22h4.22h4.22v-4.22v-4.22v-4.22v-4.22h-4.22V429.3L53.72,429.3z M36.83,429.3v4.22h-4.22v-4.22v-4.22h4.22
		V429.3z"/>
	<polygon class="st3" points="74.81,425.09 74.81,429.3 70.59,429.3 70.59,433.52 66.37,433.52 62.15,433.52 62.15,437.74 
		62.15,441.96 66.37,441.96 66.37,437.74 70.59,437.74 70.59,441.96 74.81,441.96 79.03,441.96 79.03,437.74 79.03,433.52 
		79.03,429.3 79.03,425.09 79.03,420.87 74.81,420.87 	"/>
	<rect x="57.93" y="420.87" class="st3" width="4.22" height="4.22"/>
	<rect x="62.15" y="416.65" class="st3" width="4.22" height="4.22"/>
	<polygon class="st3" points="45.27,416.65 45.27,412.43 41.06,412.43 41.06,416.65 41.06,420.87 45.27,420.87 	"/>
	<polygon class="st3" points="79.03,408.21 79.03,412.43 79.03,416.65 79.03,420.87 83.25,420.87 83.25,416.65 83.25,412.43 
		83.25,408.21 	"/>
	<rect x="45.27" y="408.21" class="st3" width="4.22" height="4.22"/>
	<rect x="74.81" y="403.99" class="st3" width="4.22" height="4.22"/>
	<polygon class="st3" points="53.72,403.99 53.72,399.77 53.72,395.55 49.5,395.55 49.5,399.77 49.5,403.99 49.5,408.21 
		53.72,408.21 	"/>
</g>
<g>
	<path class="st3" d="M444.78,422.28h-6.56h-6.56v6.56h-6.56v-6.56h6.56v-6.56h-6.56v-6.56h-6.56v-6.56v-6.56v-6.56h6.56v-6.56
		v-6.56v-6.56h-6.56v-6.56h-6.57v6.56v6.56v6.56v6.56h-6.56v6.56h-6.57v6.56h-6.56v6.56h-6.56v6.56v6.56h6.56v6.56v6.56v6.56h6.56
		h6.57h6.56h6.57h6.56h6.56h6.56h6.56h6.56v-6.56v-6.56v-6.56v-6.56h-6.56V422.28z M418.53,422.28v6.56h-6.56v-6.56v-6.56h6.56
		V422.28z"/>
	<polygon class="st3" points="477.6,415.71 477.6,422.28 471.04,422.28 471.04,428.84 464.47,428.84 457.91,428.84 457.91,435.4 
		457.91,441.96 464.47,441.96 464.47,435.4 471.04,435.4 471.04,441.96 477.6,441.96 484.16,441.96 484.16,435.4 484.16,428.84 
		484.16,422.28 484.16,415.71 484.16,409.15 477.6,409.15 	"/>
	<rect x="451.35" y="409.15" class="st3" width="6.56" height="6.56"/>
	<rect x="457.91" y="402.59" class="st3" width="6.56" height="6.56"/>
	<polygon class="st3" points="431.66,402.59 431.66,396.03 425.1,396.03 425.1,402.59 425.1,409.15 431.66,409.15 	"/>
	<polygon class="st3" points="484.16,389.46 484.16,396.03 484.16,402.59 484.16,409.15 490.73,409.15 490.73,402.59 490.73,396.03 
		490.73,389.46 	"/>
	<rect x="431.66" y="389.46" class="st3" width="6.56" height="6.56"/>
	<rect x="477.6" y="382.9" class="st3" width="6.56" height="6.56"/>
	<polygon class="st3" points="444.78,382.9 444.78,376.34 444.78,369.78 438.22,369.78 438.22,376.34 438.22,382.9 438.22,389.46 
		444.78,389.46 	"/>
</g>
<g>
	<polygon class="st3" points="198.19,421.15 198.19,414.24 191.71,414.24 191.71,407.33 191.71,400.41 185.23,400.41 185.23,407.33 
		185.23,414.24 185.23,421.15 191.71,421.15 191.71,428.06 185.23,428.06 185.23,434.97 178.75,434.97 172.27,434.97 172.27,441.89 
		178.75,441.89 185.23,441.89 191.71,441.89 198.19,441.89 198.19,434.97 204.67,434.97 204.67,428.06 204.67,421.15 	"/>
	<polygon class="st3" points="152.82,421.15 146.34,421.15 146.34,428.06 139.86,428.06 139.86,434.97 133.38,434.97 133.38,428.06 
		139.86,428.06 139.86,421.15 139.86,414.24 139.86,407.33 133.38,407.33 133.38,414.24 126.9,414.24 126.9,421.15 120.41,421.15 
		120.41,414.24 120.41,407.33 120.41,400.41 126.9,400.41 126.9,407.33 133.38,407.33 133.38,400.41 133.38,393.5 126.9,393.5 
		126.9,386.59 126.9,379.68 126.9,372.77 126.9,365.85 126.9,358.94 120.41,358.94 120.41,365.85 113.93,365.85 113.93,372.77 
		113.93,379.68 113.93,386.59 113.93,393.5 107.45,393.5 100.97,393.5 100.97,400.41 100.97,407.33 100.97,414.24 100.97,421.15 
		107.45,421.15 107.45,428.06 107.45,434.97 100.97,434.97 100.97,441.89 107.45,441.89 113.93,441.89 120.41,441.89 126.9,441.89 
		133.38,441.89 139.86,441.89 146.34,441.89 146.34,434.97 152.82,434.97 159.3,434.97 159.3,441.89 165.79,441.89 165.79,434.97 
		165.79,428.06 165.79,421.15 159.3,421.15 	"/>
	<polygon class="st3" points="172.27,414.24 172.27,407.33 172.27,400.41 165.79,400.41 165.79,407.33 165.79,414.24 165.79,421.15 
		172.27,421.15 	"/>
	<polygon class="st3" points="198.19,393.5 198.19,386.59 198.19,379.68 191.71,379.68 191.71,386.59 191.71,393.5 191.71,400.41 
		198.19,400.41 	"/>
	<rect x="133.38" y="386.59" class="st3" width="6.48" height="6.91"/>
	<polygon class="st3" points="146.34,379.68 146.34,372.77 139.86,372.77 139.86,379.68 139.86,386.59 146.34,386.59 	"/>
	<polygon class="st3" points="159.3,372.77 159.3,365.85 152.82,365.85 146.34,365.85 146.34,372.77 152.82,372.77 	"/>
</g>
<g>
	<polygon class="st2" points="270.38,61.42 270.38,61.45 265.84,61.45 265.84,65.99 265.84,70.54 265.84,75.08 265.84,79.63 
		265.84,84.17 270.38,84.17 270.38,88.72 274.93,88.72 274.93,93.26 279.48,93.26 279.48,97.81 284.02,97.81 288.57,97.81 
		293.11,97.81 297.66,97.81 297.66,93.26 302.21,93.26 306.75,93.26 311.3,93.26 311.3,88.72 315.84,88.72 320.39,88.72 
		324.93,88.72 324.93,84.17 329.48,84.17 334.03,84.17 334.03,79.63 338.57,79.63 338.57,75.08 338.57,70.54 338.57,65.99 
		338.57,61.45 334.03,61.45 334.03,61.42 	"/>
	<polygon class="st1" points="334.03,56.9 329.48,56.9 329.48,52.36 324.93,52.36 324.93,47.81 320.39,47.81 320.39,43.27 
		315.84,43.27 311.3,43.27 311.3,47.81 306.75,47.81 302.21,47.81 297.66,47.81 297.66,52.36 293.11,52.36 288.57,52.36 
		284.02,52.36 284.02,56.9 279.48,56.9 274.93,56.9 270.38,56.9 270.38,61.42 334.03,61.42 	"/>
</g>
<path class="st2" d="M0,441.96v7.22v12.8V512h79.6l0,0h382.36c0.84,0,1.68-0.02,2.51-0.06h47.52v-49.96v-15.34v-4.69L0,441.96
	L0,441.96z"/>
</svg>
