<?xml version="1.0" encoding="utf-8"?>
<!-- Generator: Adobe Illustrator 23.0.6, SVG Export Plug-In . SVG Version: 6.00 Build 0)  -->
<svg version="1.1"
	 id="orbis" xmlns:cc="http://creativecommons.org/ns#" xmlns:dc="http://purl.org/dc/elements/1.1/" xmlns:inkscape="http://www.inkscape.org/namespaces/inkscape" xmlns:rdf="http://www.w3.org/1999/02/22-rdf-syntax-ns#" xmlns:sodipodi="http://sodipodi.sourceforge.net/DTD/sodipodi-0.dtd" xmlns:svg="http://www.w3.org/2000/svg"
	 xmlns="http://www.w3.org/2000/svg" xmlns:xlink="http://www.w3.org/1999/xlink" x="0px" y="0px" viewBox="0 0 512 512"
	 style="enable-background:new 0 0 512 512;" xml:space="preserve">
<style type="text/css">
	.st0{fill:#FFFFFF;}
	.st1{fill:#4AA0C7;}
	.st2{fill:#A1CEE2;}
	.st3{fill:#7FBCD7;}
	.st4{fill:#3D83A3;}
</style>
<rect class="st0" width="512" height="512"/>
<g id="Icon">
	<g id="Tree">
		<rect x="235.9" y="46.8" class="st1" width="37.6" height="265.5"/>
		<rect x="194.9" y="83.3" class="st1" width="120.8" height="77.5"/>
		<rect x="156.1" y="125.4" class="st1" width="198.3" height="37.6"/>
	</g>
	<g id="Hill_Back">
		<polygon class="st2" points="194.5,203.6 194.5,340.3 0,340.3 0,127.1 87.6,127.1 87.6,164.1 116.4,164.1 116.4,203.6 		"/>
	</g>
	<polygon class="st3" points="398,242.6 398,282.4 78.9,282.4 78.9,318.4 0,318.4 0,512 512,512 512,347.4 512,337.1 512,318.4 
		512,282.4 512,242.6 	"/>
	<g id="Hill_Front">
		<polygon class="st4" points="235.2,437.1 235.2,512 108.6,512 108.6,512 0,512 0,359.6 116.9,359.6 116.9,396.4 196.5,396.4 
			196.5,437.1 		"/>
	</g>
</g>
</svg>
