<?xml version="1.0" encoding="utf-8"?>
<!-- Generator: Adobe Illustrator 19.0.0, SVG Export Plug-In . SVG Version: 6.00 Build 0)  -->
<svg version="1.1" xmlns="http://www.w3.org/2000/svg" xmlns:xlink="http://www.w3.org/1999/xlink" x="0px" y="0px"
	 viewBox="0 0 1000 1000" style="enable-background:new 0 0 1000 1000;" xml:space="preserve">
<style type="text/css">
	.st0{fill:#FFFFFF;}
	.st1{fill:#65B6D9;}
	.st2{fill:#308CB2;}
	.st3{fill:#C3E3F2;}
</style>
<g id="Layer_3">
	<rect id="XMLID_1_" class="st0" width="1000" height="1000"/>
</g>
<g id="Layer_1">
	<g id="XMLID_27_">
		<path id="XMLID_63_" class="st1" d="M706.3,635.6c-2.8-3.4-90.1-188.6-90.1-188.6l-52.7-4.6l0.8-155.7l-162.7-0.2l0.5,152
			l-67.5-11.7l-28.7,87.6l-59.3,38l-8.1,65.9l64.8,35.6L387,588l19.1-62l0.3,128.7l-53.1,140.2l28.7,73.9l63.3,20.4l30.6-59.8
			L460,777.3l23.7-62l17.8,90.6l5.7,101l-0.1-0.3l16.8,3l84-9.8l-4.2-46.2l46.7-8.8c0,0,68.8-57.1,72.2-71.1
			C725.9,759.8,709.1,638.9,706.3,635.6z"/>
		<g id="XMLID_32_">
			<g id="XMLID_56_">
				<path id="XMLID_60_" class="st2" d="M292.2,569.5"/>
			</g>
			<g id="XMLID_50_">
				<line id="XMLID_52_" class="st2" x1="277.8" y1="558.5" x2="280.5" y2="559.9"/>
			</g>
			<g id="XMLID_47_">
				<polygon id="XMLID_49_" class="st2" points="368.2,456.7 350.9,450.7 347.1,458.6 340.1,451.5 347.9,435.4 340.8,427.9 
					348.7,411.6 341.5,403.8 349.4,387.5 342.2,379.2 350.2,362.8 342.9,354.2 351.1,337.7 343.7,328.6 351.9,312 344.5,302.7 
					352.9,286.2 329.7,255.3 311.3,252.7 285.1,302.9 293.6,312.7 284.8,329.6 293.2,339 284.5,355.8 292.8,364.8 284.2,381.5 
					292.5,390.1 284,406.8 284,406.8 292.1,415 283.7,431.7 291.8,439.4 283.4,456.1 283.4,456.1 291.4,463.4 283.1,480.1 
					283.1,480.1 289.9,486 283,500 274.8,496.9 274.8,496.9 267.8,510.8 257.8,507 240.4,541.7 257.8,554.3 257.8,554.3 
					257.8,554.3 276.7,561.2 278,558.6 296.5,568.1 336.7,541.1 330.1,535.6 337.8,519.6 344.5,525.5 349,516.1 352,509.8 
					356.2,501 356.6,501.4 359.9,494.6 365.7,500.3 380.3,469.5 				"/>
			</g>
			<g id="XMLID_33_">
				<path id="XMLID_45_" class="st2" d="M280.7,565.6"/>
			</g>
		</g>
		<polygon id="XMLID_28_" class="st2" points="501,399.1 776.8,368.2 784,372.6 794.5,830.1 546.8,869.3 543.9,865.9 		"/>
	</g>
	<polygon id="XMLID_26_" class="st3" points="455.3,120.3 438.3,103.3 421.8,92.1 404.4,103.3 395.9,119.9 387.5,103.3 371.3,92.1 
		353.6,103.3 336.6,120.3 321.8,146.4 336.6,171.1 353.6,188.1 370.5,205 387.5,222 395.9,231.2 404.4,222 421.4,205 438.3,188.1 
		455.3,171.1 467.6,145.7 	"/>
	<polygon id="XMLID_25_" class="st3" points="624.8,103.1 607.9,91.3 590.9,103.1 573.9,120 565.5,134.1 557,120 540,103.1 
		522.7,92.1 506.1,103.1 491.2,127.9 506.1,153.9 523.1,221.7 566.6,237.6 607.9,221.7 624.8,153.9 634.9,129 	"/>
	<g id="Layer_2">
		<rect id="XMLID_5_" x="353.6" y="86.4" class="st1" width="33.9" height="17"/>
		<rect id="XMLID_4_" x="404.4" y="86.4" class="st1" width="33.9" height="17"/>
		<rect id="XMLID_6_" x="319.7" y="120.3" class="st1" width="17" height="50.9"/>
		<rect id="XMLID_880_" x="438.3" y="103.3" class="st1" width="17" height="17"/>
		<rect id="XMLID_3_" x="455.3" y="120.3" class="st1" width="17" height="50.9"/>
		<rect id="XMLID_884_" x="438.3" y="171.1" class="st1" width="17" height="17"/>
		<rect id="XMLID_888_" x="387.5" y="222" class="st1" width="17" height="17"/>
		<rect id="XMLID_879_" x="404.4" y="205" class="st1" width="17" height="17"/>
		<rect id="XMLID_898_" x="353.6" y="188.1" class="st1" width="17" height="17"/>
		<rect id="XMLID_911_" x="336.6" y="171.1" class="st1" width="17" height="17"/>
		<rect id="XMLID_914_" x="370.5" y="205" class="st1" width="17" height="17"/>
		<rect id="XMLID_915_" x="336.6" y="103.3" class="st1" width="17" height="17"/>
		<rect id="XMLID_919_" x="421.4" y="188.1" class="st1" width="17" height="17"/>
		<rect id="XMLID_924_" x="387.5" y="103.3" class="st1" width="17" height="17"/>
	</g>
	<g id="XMLID_7_">
		<rect id="XMLID_24_" x="573.9" y="103.1" class="st1" width="17" height="17"/>
		<rect id="XMLID_23_" x="540" y="103.1" class="st1" width="17" height="17"/>
		<rect id="XMLID_22_" x="506.1" y="153.9" class="st1" width="17" height="67.8"/>
		<rect id="XMLID_21_" x="557" y="120" class="st1" width="17" height="17"/>
		<rect id="XMLID_20_" x="523.1" y="221.7" class="st1" width="84.8" height="17"/>
		<rect id="XMLID_18_" x="624.8" y="103.1" class="st1" width="17" height="50.9"/>
		<rect id="XMLID_17_" x="590.9" y="86.1" class="st1" width="33.9" height="17"/>
		<rect id="XMLID_13_" x="607.9" y="153.9" class="st1" width="17" height="67.8"/>
		<rect id="XMLID_9_" x="489.2" y="103.1" class="st1" width="17" height="50.9"/>
		<rect id="XMLID_8_" x="506.1" y="86.1" class="st1" width="33.9" height="17"/>
	</g>
</g>
</svg>
