<?xml version="1.0" encoding="utf-8"?>
<!-- Generator: Adobe Illustrator 23.0.6, SVG Export Plug-In . SVG Version: 6.00 Build 0)  -->
<svg version="1.1"
	 id="trapped_signs" xmlns:cc="http://creativecommons.org/ns#" xmlns:dc="http://purl.org/dc/elements/1.1/" xmlns:inkscape="http://www.inkscape.org/namespaces/inkscape" xmlns:rdf="http://www.w3.org/1999/02/22-rdf-syntax-ns#" xmlns:sodipodi="http://sodipodi.sourceforge.net/DTD/sodipodi-0.dtd" xmlns:svg="http://www.w3.org/2000/svg"
	 xmlns="http://www.w3.org/2000/svg" xmlns:xlink="http://www.w3.org/1999/xlink" x="0px" y="0px" viewBox="0 0 512 512"
	 style="enable-background:new 0 0 512 512;" xml:space="preserve">
<style type="text/css">
	.st0{fill:#FFFFFF;}
	.st1{fill:#4AA0C7;}
	.st2{fill:none;}
	.st3{fill:#89C1DA;}
	.st4{fill:#7FBCD7;}
</style>
<rect x="0" y="0" class="st0" width="512" height="512"/>
<g>
	<polygon class="st1" points="154.51,146.69 154.51,217.66 154.51,288.62 193.55,288.62 232.58,288.62 232.58,288.61 279.89,288.61 
		279.89,288.62 319.71,288.62 359.53,288.62 359.53,217.65 359.53,146.69 257.03,146.69 	"/>
	<path class="st2" d="M480.29,187.52V182h11.04h11.04v5.52v5.52h-11.04h-11.04V187.52L480.29,187.52z M109.69,220.64v5.52h-5.52
		h-5.52v5.52v5.52h-5.52h-5.52v5.52v5.52h-5.53h-5.52l0.02-5.53v-5.52h5.52h5.52v-11.03v-11.04h11.04h11.03V220.64L109.69,220.64z
		 M143.59,220.63v5.52h-11.44h-11.43v-5.52v-5.52h11.43h11.44V220.63z M359.53,217.65v70.96h-39.82h-39.82v11.25v28.56v39.81h-23.65
		h-23.66l-0.01-39.81v-28.57V288.6h-39.03h-39.03v-70.94v-70.97h102.51h102.5L359.53,217.65L359.53,217.65z M380.15,242.72v5.52
		h-5.52h-5.52v-5.52v-5.52h5.52h5.52V242.72z M380.15,220.63v5.52h-5.52h-5.52v-5.52v-5.52h5.52h5.52V220.63z"/>
	<polygon class="st2" points="502.36,226.15 502.36,231.67 502.36,237.2 507.89,237.2 512,237.2 512,226.15 507.89,226.15 	"/>
	<polygon class="st2" points="485.8,237.2 491.32,237.2 491.32,231.67 491.32,226.15 485.8,226.15 480.28,226.15 480.28,231.67 
		480.28,237.2 480.29,237.2 	"/>
	<polygon class="st2" points="4.02,237.2 9.54,237.2 9.54,226.16 9.54,215.12 4.02,215.12 0.09,215.12 0.09,237.2 	"/>
	<polygon class="st1" points="232.58,328.44 232.58,368.25 256.24,368.25 279.89,368.25 279.89,328.44 279.89,299.87 232.58,299.87 
			"/>
	<polygon class="st3" points="402.22,237.21 407.75,237.21 413.27,237.21 413.27,231.68 413.27,226.16 407.75,226.16 402.22,226.16 
		402.22,231.68 	"/>
	<polygon class="st3" points="507.89,237.2 502.36,237.2 502.36,231.67 502.36,226.15 507.89,226.15 512,226.15 512,215.12 
		502.37,215.12 502.37,209.6 502.37,204.07 496.85,204.07 491.32,204.07 491.32,209.6 491.32,215.12 469.24,215.12 447.17,215.12 
		447.17,220.64 447.17,226.15 458.2,226.15 469.24,226.15 469.24,231.67 469.24,237.2 474.76,237.2 480.28,237.2 480.28,231.67 
		480.28,226.15 485.8,226.15 491.32,226.15 491.32,231.67 491.32,237.2 485.8,237.2 480.29,237.2 480.29,242.72 480.29,248.24 
		496.85,248.24 512,248.24 512,237.2 	"/>
	<polygon class="st3" points="369.11,215.11 369.11,220.63 369.11,226.16 374.63,226.16 380.15,226.16 380.15,220.63 380.15,215.11 
		374.63,215.11 	"/>
	<polygon class="st3" points="391.18,215.12 391.18,220.64 391.18,226.16 396.7,226.16 402.22,226.16 402.22,220.64 402.22,215.12 
		396.7,215.12 	"/>
	<rect x="447.16" y="226.15" class="st3" width="0" height="0.02"/>
	<polygon class="st3" points="9.52,242.73 9.52,237.21 15.04,237.21 20.56,237.21 20.56,242.73 20.56,248.25 26.08,248.25 
		31.6,248.25 31.6,242.73 31.6,237.21 37.13,237.21 42.65,237.21 42.65,242.73 42.65,248.25 48.56,248.25 54.47,248.25 
		54.47,242.73 54.47,237.21 59.99,237.21 65.52,237.21 65.52,231.68 65.52,226.16 71.04,226.16 76.56,226.16 76.56,220.64 
		76.56,215.12 65.52,215.12 54.49,215.12 54.49,220.64 54.49,226.16 48.58,226.16 42.66,226.16 42.66,220.64 42.66,215.12 
		37.14,215.12 31.62,215.12 31.62,209.6 31.62,204.07 15.06,204.07 0.01,204.07 0.02,215.12 4.02,215.12 9.54,215.12 9.54,226.16 
		9.54,237.2 4.02,237.2 0.01,237.2 0.01,248.25 9.52,248.25 	"/>
	<polygon class="st3" points="369.11,237.2 369.11,242.72 369.11,248.24 374.63,248.24 380.15,248.24 380.15,242.72 380.15,237.2 
		374.63,237.2 	"/>
	<polygon class="st3" points="87.61,215.12 87.61,226.16 87.61,237.2 82.09,237.2 76.57,237.2 76.57,242.72 76.55,248.25 
		82.07,248.25 87.6,248.25 87.6,242.73 87.6,237.21 93.13,237.21 98.65,237.21 98.65,231.68 98.65,226.16 104.17,226.16 
		109.69,226.16 109.69,220.64 109.69,215.12 98.66,215.12 	"/>
	<polygon class="st3" points="120.72,215.11 120.72,220.63 120.72,226.16 132.15,226.16 143.59,226.16 143.59,220.63 143.59,215.11 
		132.15,215.11 	"/>
	<polygon class="st3" points="502.36,193.04 502.36,187.52 502.36,182 491.32,182 480.29,182 480.29,187.52 480.29,193.04 
		491.32,193.04 	"/>
	<polygon class="st3" points="435.35,226.16 435.35,220.64 435.35,215.12 429.82,215.12 424.3,215.12 424.3,209.6 424.3,204.07 
		413.27,204.07 402.22,204.07 402.22,209.6 402.22,215.12 413.27,215.12 424.3,215.12 424.3,226.16 424.3,237.2 435.73,237.2 
		447.16,237.2 447.16,231.67 447.16,226.16 441.26,226.16 	"/>
	<polygon class="st3" points="232.58,288.61 232.58,288.62 232.58,299.87 279.89,299.87 279.89,288.62 279.89,288.61 	"/>
</g>
<g id="Redstone_Dust">
	<g>
		<g>
			<rect x="211.57" y="210.83" class="st4" width="88.98" height="22.22"/>
			<rect x="218.99" y="203.41" class="st4" width="74.13" height="37.06"/>
			<rect x="226.41" y="195.98" class="st4" width="59.34" height="51.92"/>
			<rect x="233.84" y="188.61" class="st4" width="44.49" height="8.11"/>
			<rect x="241.25" y="181.19" class="st4" width="29.65" height="8.39"/>
			<rect x="248.63" y="173.77" class="st4" width="14.85" height="9.35"/>
			<rect x="241.25" y="246.29" class="st4" width="29.65" height="9.02"/>
		</g>
		<g>
			<rect x="241.25" y="188.61" class="st1" width="7.43" height="7.42"/>
			<rect x="233.84" y="225.68" class="st1" width="7.43" height="7.42"/>
			<rect x="256.06" y="210.83" class="st1" width="7.43" height="7.43"/>
			<rect x="278.33" y="203.41" class="st1" width="7.42" height="7.43"/>
			<rect x="278.33" y="233.1" class="st1" width="7.42" height="7.43"/>
			<rect x="218.99" y="210.83" class="st1" width="7.43" height="7.43"/>
		</g>
	</g>
</g>
</svg>
