<?xml version="1.0" encoding="utf-8"?>
<!-- Generator: Adobe Illustrator 23.0.6, SVG Export Plug-In . SVG Version: 6.00 Build 0)  -->
<svg version="1.1" id="block_compressors" xmlns="http://www.w3.org/2000/svg" xmlns:xlink="http://www.w3.org/1999/xlink" x="0px"
	 y="0px" viewBox="0 0 512 512" style="enable-background:new 0 0 512 512;" xml:space="preserve">
<style type="text/css">
	.st0{fill:#FFFFFF;}
	.st1{fill:#DBECF4;}
	.st2{fill:#A1CEE2;}
	.st3{fill:#7FBCD7;}
	.st4{fill:#4AA0C7;}
	.st5{fill:none;}
</style>
<rect class="st0" width="512" height="512"/>
<g id="Icon">
	<g id="block_3_">
		<path id="rect4153-4-4" class="st1" d="M102.95,165.12l152.76-85.19l152.75,85.19v181.11l-152.75,85.18l-152.76-85.18V165.12
			L102.95,165.12z"/>
	</g>
	<g id="block_2_">
		<path id="rect4153-4" class="st2" d="M126.96,179.58l128.7-71.54l128.76,71.54v152.16L255.66,403.3l-128.7-71.56L126.96,179.58
			L126.96,179.58z"/>
	</g>
	<g id="block_1_">
		<path id="rect4153-4-2" class="st3" d="M151.64,194.17l104.07-57.87l104.07,57.87v123l-104.07,57.91l-104.07-57.91L151.64,194.17
			L151.64,194.17z"/>
	</g>
	<g id="block">
		<path id="rect4153" class="st4" d="M179.62,210.69l76.09-42.3l76.09,42.3v89.97l-76.09,42.28l-76.09-42.28V210.69L179.62,210.69z"
			/>
	</g>
</g>
<g>
	<polygon class="st1" points="78.31,231.41 54.3,207.42 54.3,241.5 78.31,241.5 	"/>
	<polygon class="st1" points="54.3,269.84 54.3,303.91 78.31,280.3 78.31,269.84 	"/>
	<polygon class="st2" points="78.31,269.84 78.31,280.3 78.31,303.91 102.96,279.65 102.96,269.84 	"/>
	<polygon class="st2" points="102.96,241.5 102.96,232.07 78.31,207.42 78.31,231.41 78.31,241.5 	"/>
	<line class="st5" x1="26.1" y1="269.84" x2="26.1" y2="241.5"/>
	<polygon class="st4" points="151.61,256.07 102.96,207.42 102.96,232.07 102.96,241.5 78.31,241.5 54.3,241.5 26.1,241.5 
		26.1,269.84 54.3,269.84 78.31,269.84 102.96,269.84 102.96,279.65 102.96,303.91 	"/>
</g>
<g>
	<polygon class="st1" points="433.09,279.92 457.1,303.91 457.1,269.84 433.09,269.84 	"/>
	<polygon class="st1" points="457.1,241.5 457.1,207.42 433.09,231.02 433.09,241.5 	"/>
	<polygon class="st2" points="408.42,269.84 408.42,279.26 433.09,303.91 433.09,279.92 422.99,269.84 	"/>
	<polygon class="st2" points="422.44,241.5 433.09,231.02 433.09,207.42 408.42,231.66 408.42,241.5 	"/>
	<polygon class="st2" points="433.09,241.5 433.09,231.02 422.44,241.5 	"/>
	<line class="st5" x1="485.28" y1="241.5" x2="485.28" y2="269.84"/>
	<polygon class="st2" points="422.99,269.84 433.09,279.92 433.09,269.84 	"/>
	<polygon class="st4" points="408.42,231.66 408.42,207.42 359.78,255.28 408.42,303.91 408.42,279.26 384.43,255.28 	"/>
	<polygon class="st4" points="422.99,269.84 408.43,255.28 422.44,241.5 408.42,241.5 408.42,231.66 384.43,255.28 408.42,279.26 
		408.42,269.84 	"/>
	<polygon class="st4" points="457.1,241.5 433.09,241.5 422.44,241.5 408.43,255.28 422.99,269.84 433.09,269.84 457.1,269.84 
		485.28,269.84 485.28,241.5 	"/>
</g>
</svg>
