<?xml version="1.0" encoding="utf-8"?>
<!-- Generator: Adobe Illustrator 23.0.6, SVG Export Plug-In . SVG Version: 6.00 Build 0)  -->
<svg version="1.1"
	 id="lightning_rods" xmlns:cc="http://creativecommons.org/ns#" xmlns:dc="http://purl.org/dc/elements/1.1/" xmlns:inkscape="http://www.inkscape.org/namespaces/inkscape" xmlns:rdf="http://www.w3.org/1999/02/22-rdf-syntax-ns#" xmlns:sodipodi="http://sodipodi.sourceforge.net/DTD/sodipodi-0.dtd" xmlns:svg="http://www.w3.org/2000/svg"
	 xmlns="http://www.w3.org/2000/svg" xmlns:xlink="http://www.w3.org/1999/xlink" x="0px" y="0px" viewBox="0 0 512 512"
	 style="enable-background:new 0 0 512 512;" xml:space="preserve">
<style type="text/css">
	.st0{fill:#FFFFFF;}
	.st1{fill:#4AA0C7;}
	.st2{fill:#7DBBD7;}
</style>
<rect y="0" class="st0" width="512" height="512"/>
<g id="Icon">
	<g id="layer1" inkscape:groupmode="layer" inkscape:label="Layer 1">
		<g id="g4230" transform="matrix(0.28668289,0,0,0.28668289,313.78995,487.79337)">
			<rect id="rect4147" x="-445.36" y="-173.47" class="st1" width="89.32" height="135.21"/>
			<rect id="rect4147-0" x="-400.58" y="-217.51" class="st1" width="89.31" height="135.24"/>
			<rect id="rect4147-7" x="-359.09" y="-263.38" class="st1" width="89.25" height="135.21"/>
			<rect id="rect4147-8" x="-314.46" y="-303.88" class="st1" width="89.32" height="135.12"/>
			<rect id="rect4147-5" x="-269.84" y="-348.55" class="st1" width="89.38" height="135.16"/>
			<rect id="rect4147-08" x="-226.69" y="-393.26" class="st1" width="89.26" height="135.24"/>
			<rect id="rect4147-88" x="-182.06" y="-435.37" class="st1" width="89.25" height="135.24"/>
			<rect id="rect4147-07" x="-138.88" y="-480.9" class="st1" width="89.25" height="135.12"/>
			<rect id="rect4147-2" x="-94.79" y="-524.59" class="st1" width="89.25" height="135.25"/>
			<rect id="rect4147-9" x="-51.24" y="-568.72" class="st1" width="89.38" height="135.12"/>
			<rect id="rect4147-50" x="-7.55" y="-612.4" class="st1" width="89.25" height="135.25"/>
			<rect id="rect4147-1" x="36.54" y="-654.88" class="st1" width="89.33" height="135.12"/>
			<rect id="rect4147-10" x="120.84" y="-610.79" class="st1" width="50.03" height="45.41"/>
		</g>
	</g>
	<g id="layer1_1_" inkscape:groupmode="layer" inkscape:label="Layer 1">
		<g id="g4380">
			<path id="path4273-4-2" inkscape:connector-curvature="0" sodipodi:nodetypes="ccccccc" class="st2" d="M229.07,206.62
				l40.37-33.47l-21.22,200.94l-3.97-148.53l-41.7,31.3l42.52-224.22L229.07,206.62z"/>
		</g>
	</g>
	<g id="layer1_2_" inkscape:groupmode="layer" inkscape:label="Layer 1">
		<g id="g4380_1_">
			<path id="path4273-4-2-4" inkscape:connector-curvature="0" sodipodi:nodetypes="ccccccc" class="st2" d="M195.29,321.83
				l14.02-18.81l12.01,89.75l-17.45-64.27l-14.83,18.07l-5.18-102.12L195.29,321.83z"/>
		</g>
	</g>
	<g id="layer1_3_" inkscape:groupmode="layer" inkscape:label="Layer 1">
		<g id="g4380_2_">
			<path id="path4273-4-2-4-3" inkscape:connector-curvature="0" sodipodi:nodetypes="ccccccc" class="st2" d="M305.06,271.56
				l-13.7-19.1L277.82,342l18.51-63.93l14.55,18.25l6.98-102L305.06,271.56z"/>
		</g>
	</g>
</g>
</svg>
