<?xml version="1.0" encoding="utf-8"?>
<!-- Generator: Adobe Illustrator 23.0.6, SVG Export Plug-In . SVG Version: 6.00 Build 0)  -->
<svg version="1.1"
	 id="tnt_landmines" xmlns:cc="http://creativecommons.org/ns#" xmlns:dc="http://purl.org/dc/elements/1.1/" xmlns:inkscape="http://www.inkscape.org/namespaces/inkscape" xmlns:rdf="http://www.w3.org/1999/02/22-rdf-syntax-ns#" xmlns:sodipodi="http://sodipodi.sourceforge.net/DTD/sodipodi-0.dtd" xmlns:svg="http://www.w3.org/2000/svg"
	 xmlns="http://www.w3.org/2000/svg" xmlns:xlink="http://www.w3.org/1999/xlink" x="0px" y="0px" viewBox="0 0 512 512"
	 style="enable-background:new 0 0 512 512;" xml:space="preserve">
<style type="text/css">
	.st0{fill:#FFFFFF;}
	.st1{fill:#A1CEE2;}
	.st2{fill:#4AA0C7;}
	.st3{fill:#7FBCD7;}
	.st4{fill:#3D83A3;}
	.st5{fill:none;}
</style>
<rect x="0" y="0" class="st0" width="512" height="512"/>
<polygon class="st1" points="0,287.2 0,440.89 0,461.97 0,512 50.03,512 86.99,512 414.03,512 461.97,512 511.99,512 511.99,461.97 
	511.99,408.5 511.99,287.2 "/>
<g id="Icon" inkscape:groupmode="layer" inkscape:label="Layer 1">
	<g id="g4174">
		<rect id="rect4147" x="186.65" y="252.36" class="st2" width="138.7" height="34.85"/>
		<rect id="rect4147-8" x="186.66" y="290.16" class="st3" width="138.7" height="73.26"/>
		<rect id="rect4147-0" x="186.65" y="366.32" class="st3" width="138.7" height="25.86"/>
	</g>
	<g id="g4264" transform="matrix(0.86378829,0,0,0.86378829,52.25024,63.51967)">
		<rect id="rect4181" x="188.52" y="283.5" class="st1" width="7.65" height="42.26"/>
		<rect id="rect4181-7" x="171.71" y="283.03" class="st1" width="41.15" height="7.65"/>
		<rect id="rect4181-8" x="220.59" y="283.06" class="st1" width="7.65" height="43.06"/>
		<rect id="rect4181-8-9" x="247.01" y="282.98" class="st1" width="7.65" height="43.06"/>
		<rect id="rect4181-8-4" x="221.04" y="296.37" class="st1" width="16.76" height="7.65"/>
		<rect id="rect4181-8-4-6" x="237.79" y="303.92" class="st1" width="12.64" height="7.65"/>
		<rect id="rect4181-3" x="277.34" y="283.36" class="st1" width="7.65" height="42.26"/>
		<rect id="rect4181-7-0" x="262.09" y="282.86" class="st1" width="38.06" height="7.65"/>
	</g>
</g>
<g>
	<polygon class="st4" points="133.92,281.4 133.81,281.4 128.11,281.4 128,281.4 122.3,281.4 122.19,281.4 122.19,287.2 
		122.3,287.2 128,287.2 128.11,287.2 133.81,287.2 133.92,287.2 139.62,287.2 139.72,287.2 139.72,281.4 139.62,281.4 	"/>
	<polygon class="st4" points="133.92,275.59 133.81,275.59 128.11,275.59 128,275.59 128,281.4 128.11,281.4 133.81,281.4 
		133.92,281.4 139.62,281.4 139.72,281.4 139.72,275.59 139.62,275.59 	"/>
	<polygon class="st4" points="122.3,275.59 122.19,275.59 116.49,275.59 116.38,275.59 116.38,281.4 116.49,281.4 122.19,281.4 
		122.3,281.4 	"/>
	<polygon class="st4" points="151.24,269.79 145.53,269.79 145.53,269.79 145.42,269.79 145.42,269.79 139.72,269.79 139.62,269.79 
		139.62,275.59 139.72,275.59 145.42,275.59 145.42,275.59 145.53,275.59 145.53,275.59 151.24,275.59 151.34,275.59 151.34,269.79 
			"/>
	<polygon class="st4" points="116.49,275.59 116.49,275.59 122.19,275.59 122.3,275.59 122.3,269.79 122.19,269.79 116.49,269.79 
		116.49,269.79 116.38,269.79 116.38,269.79 110.68,269.79 110.57,269.79 110.57,275.59 110.68,275.59 116.38,275.59 116.38,275.59 
			"/>
	<polygon class="st4" points="128.11,258.17 128,258.17 128,263.98 128,269.79 128,275.59 128.11,275.59 133.81,275.59 
		133.92,275.59 133.92,269.79 133.92,263.98 133.92,258.17 133.81,258.17 	"/>
	<polygon class="st4" points="133.92,252.36 133.81,252.36 128.11,252.36 128,252.36 128,258.16 128.11,258.16 133.81,258.16 
		133.92,258.16 	"/>
	<polygon class="st4" points="133.92,246.55 133.81,246.55 128.11,246.55 128,246.55 122.3,246.55 122.3,246.55 122.19,246.55 
		122.19,246.55 116.49,246.55 116.38,246.55 116.38,252.36 116.49,252.36 122.19,252.36 122.19,252.36 122.3,252.36 122.3,252.36 
		128,252.36 128.11,252.36 133.81,252.36 133.92,252.36 	"/>
	<polygon class="st4" points="116.38,246.55 116.38,246.55 116.49,246.55 116.49,246.55 122.19,246.55 122.19,246.55 122.3,246.55 
		122.3,246.55 128,246.55 128.11,246.55 133.81,246.55 133.92,246.55 139.62,246.55 139.72,246.55 139.72,240.74 145.42,240.74 
		145.53,240.74 145.53,234.93 145.42,234.93 139.72,234.93 139.62,234.93 133.92,234.93 133.81,234.93 128.11,234.93 128,234.93 
		122.3,234.93 122.3,234.93 122.19,234.93 122.19,234.93 116.49,234.93 116.49,234.93 116.38,234.93 116.38,234.93 110.68,234.93 
		110.57,234.93 110.57,240.74 110.57,246.55 110.68,246.55 	"/>
	<polygon class="st4" points="122.19,234.93 122.19,234.93 122.3,234.93 122.3,234.93 128,234.93 128.11,234.93 133.81,234.93 
		133.92,234.93 139.62,234.93 139.72,234.93 145.42,234.93 145.53,234.93 145.53,229.13 145.42,229.13 139.72,229.13 139.62,229.13 
		133.92,229.13 133.81,229.13 128.11,229.13 128,229.13 122.3,229.13 122.3,229.13 122.19,229.13 122.19,229.13 116.49,229.13 
		116.38,229.13 116.38,234.93 116.49,234.93 	"/>
	<polygon class="st4" points="133.81,229.12 133.92,229.12 139.62,229.12 139.72,229.12 139.72,223.31 139.62,223.31 133.92,223.31 
		133.81,223.31 128.11,223.31 128,223.31 128,229.12 128.11,229.12 	"/>
</g>
<g>
	<polygon class="st4" points="463.25,281.4 463.14,281.4 457.44,281.4 457.33,281.4 451.63,281.4 451.53,281.4 451.53,287.2 
		451.63,287.2 457.33,287.2 457.44,287.2 463.14,287.2 463.25,287.2 468.95,287.2 469.06,287.2 469.06,281.4 468.95,281.4 	"/>
	<polygon class="st4" points="463.25,275.59 463.14,275.59 457.44,275.59 457.33,275.59 457.33,281.4 457.44,281.4 463.14,281.4 
		463.25,281.4 468.95,281.4 469.06,281.4 469.06,275.59 468.95,275.59 	"/>
	<polygon class="st4" points="451.63,275.59 451.52,275.59 445.82,275.59 445.72,275.59 445.72,281.4 445.82,281.4 451.52,281.4 
		451.63,281.4 	"/>
	<polygon class="st4" points="480.57,269.79 474.87,269.79 474.87,269.79 474.76,269.79 474.76,269.79 469.06,269.79 468.95,269.79 
		468.95,275.59 469.06,275.59 474.76,275.59 474.76,275.59 474.87,275.59 474.87,275.59 480.57,275.59 480.68,275.59 480.68,269.79 
			"/>
	<polygon class="st4" points="445.82,275.59 445.82,275.59 451.52,275.59 451.63,275.59 451.63,269.79 451.52,269.79 445.82,269.79 
		445.82,269.79 445.72,269.79 445.71,269.79 440.02,269.79 439.91,269.79 439.91,275.59 440.02,275.59 445.71,275.59 445.72,275.59 
			"/>
	<polygon class="st4" points="457.44,258.17 457.33,258.17 457.33,263.98 457.33,269.79 457.33,275.59 457.44,275.59 463.14,275.59 
		463.25,275.59 463.25,269.79 463.25,263.98 463.25,258.17 463.14,258.17 	"/>
	<polygon class="st4" points="463.25,252.36 463.14,252.36 457.44,252.36 457.33,252.36 457.33,258.16 457.44,258.16 463.14,258.16 
		463.25,258.16 	"/>
	<polygon class="st4" points="463.25,246.55 463.14,246.55 457.44,246.55 457.33,246.55 451.63,246.55 451.63,246.55 451.53,246.55 
		451.52,246.55 445.82,246.55 445.72,246.55 445.72,252.36 445.82,252.36 451.52,252.36 451.53,252.36 451.63,252.36 451.63,252.36 
		457.33,252.36 457.44,252.36 463.14,252.36 463.25,252.36 	"/>
	<polygon class="st4" points="445.71,246.55 445.72,246.55 445.82,246.55 445.82,246.55 451.52,246.55 451.53,246.55 451.63,246.55 
		451.63,246.55 457.33,246.55 457.44,246.55 463.14,246.55 463.25,246.55 468.95,246.55 469.06,246.55 469.06,240.74 474.76,240.74 
		474.87,240.74 474.87,234.93 474.76,234.93 469.06,234.93 468.95,234.93 463.25,234.93 463.14,234.93 457.44,234.93 457.33,234.93 
		451.63,234.93 451.63,234.93 451.53,234.93 451.52,234.93 445.82,234.93 445.82,234.93 445.72,234.93 445.71,234.93 440.02,234.93 
		439.91,234.93 439.91,240.74 439.91,246.55 440.02,246.55 	"/>
	<polygon class="st4" points="451.52,234.93 451.53,234.93 451.63,234.93 451.63,234.93 457.33,234.93 457.44,234.93 463.14,234.93 
		463.25,234.93 468.95,234.93 469.06,234.93 474.76,234.93 474.87,234.93 474.87,229.13 474.76,229.13 469.06,229.13 468.95,229.13 
		463.25,229.13 463.14,229.13 457.44,229.13 457.33,229.13 451.63,229.13 451.63,229.13 451.53,229.13 451.52,229.13 445.82,229.13 
		445.72,229.13 445.72,234.93 445.82,234.93 	"/>
	<polygon class="st4" points="463.14,229.12 463.25,229.12 468.95,229.12 469.06,229.12 469.06,223.31 468.95,223.31 463.25,223.31 
		463.14,223.31 457.44,223.31 457.33,223.31 457.33,229.12 457.44,229.12 	"/>
</g>
<g>
	<polygon class="st4" points="57.78,275.62 52.01,275.62 52.01,281.4 52.01,287.17 57.78,287.17 57.79,287.17 63.56,287.17 
		63.56,281.4 63.56,275.62 57.79,275.62 	"/>
	<polygon class="st4" points="75.1,252.53 75.1,246.76 69.33,246.76 69.33,246.76 63.56,246.76 63.56,246.76 57.79,246.76 
		57.78,246.76 52.02,246.76 52.01,246.76 46.24,246.76 46.24,252.53 46.24,258.31 46.24,264.08 52.01,264.08 52.01,269.85 
		52.01,275.62 57.78,275.62 57.79,275.62 63.56,275.62 63.56,269.85 63.56,264.08 69.33,264.08 69.33,264.08 75.1,264.08 
		80.87,264.08 80.87,258.31 80.87,252.53 	"/>
	<polygon class="st4" points="40.46,252.53 34.7,252.53 34.7,258.31 34.7,264.08 40.46,264.08 40.47,264.08 46.24,264.08 
		46.24,258.31 46.24,252.53 46.24,246.76 40.46,246.76 	"/>
	<polygon class="st4" points="52.02,246.76 57.78,246.76 57.79,246.76 63.56,246.76 63.56,246.76 69.33,246.76 69.33,240.98 
		63.56,240.98 63.56,240.98 57.79,240.98 57.78,240.98 52.02,240.98 52.01,240.98 46.24,240.98 46.24,246.76 52.01,246.76 	"/>
</g>
<g>
	<polygon class="st4" points="379.27,275.63 373.5,275.63 373.5,281.4 373.5,287.17 379.27,287.17 379.27,287.17 385.05,287.17 
		385.05,281.4 385.05,275.63 	"/>
	<polygon class="st4" points="396.59,252.54 396.59,246.76 390.82,246.76 390.82,246.76 385.05,246.76 385.05,246.76 379.27,246.76 
		379.27,246.76 373.5,246.76 373.5,246.76 367.73,246.76 367.73,252.54 367.73,258.31 367.73,264.08 373.5,264.08 373.5,269.85 
		373.5,275.62 379.27,275.62 379.27,275.62 385.05,275.62 385.05,269.85 385.05,264.08 390.82,264.08 390.82,264.08 396.59,264.08 
		402.36,264.08 402.36,258.31 402.36,252.54 	"/>
	<polygon class="st4" points="361.95,252.54 356.18,252.54 356.18,258.31 356.18,264.08 361.95,264.08 361.96,264.08 367.72,264.08 
		367.72,258.31 367.72,252.54 367.72,246.76 361.95,246.76 	"/>
	<polygon class="st4" points="373.5,246.76 379.27,246.76 379.27,246.76 385.05,246.76 385.05,246.76 390.82,246.76 390.82,240.99 
		385.05,240.99 385.05,240.99 379.27,240.99 379.27,240.99 373.5,240.99 373.5,240.99 367.73,240.99 367.73,246.76 	"/>
</g>
<polyline class="st5" points="0,151.62 19.21,139.48 19.44,54.21 0,70.24 "/>
<g>
	<polygon class="st4" points="301.98,281.41 301.87,281.41 296.17,281.41 296.07,281.41 290.37,281.41 290.26,281.41 290.26,287.21 
		290.37,287.21 296.07,287.21 296.17,287.21 301.87,287.21 301.98,287.21 307.68,287.21 307.79,287.21 307.79,281.41 307.68,281.41 
			"/>
	<polygon class="st4" points="301.98,275.6 301.87,275.6 296.17,275.6 296.07,275.6 296.07,281.41 296.17,281.41 301.87,281.41 
		301.98,281.41 307.68,281.41 307.79,281.41 307.79,275.6 307.68,275.6 	"/>
	<polygon class="st4" points="290.37,275.6 290.26,275.6 284.56,275.6 284.45,275.6 284.45,281.41 284.56,281.41 290.26,281.41 
		290.37,281.41 	"/>
	<polygon class="st4" points="319.3,269.79 313.6,269.79 313.6,269.79 313.49,269.79 313.49,269.79 307.79,269.79 307.68,269.79 
		307.68,275.6 307.79,275.6 313.49,275.6 313.49,275.6 313.6,275.6 313.6,275.6 319.3,275.6 319.41,275.6 319.41,269.79 	"/>
	<polygon class="st4" points="284.55,275.6 284.56,275.6 290.26,275.6 290.37,275.6 290.37,269.79 290.26,269.79 284.56,269.79 
		284.55,269.79 284.45,269.79 284.44,269.79 278.75,269.79 278.64,269.79 278.64,275.6 278.75,275.6 284.44,275.6 284.45,275.6 	"/>
	<polygon class="st4" points="296.17,258.18 296.07,258.18 296.07,263.99 296.07,269.79 296.07,275.6 296.17,275.6 301.87,275.6 
		301.98,275.6 301.98,269.79 301.98,263.99 301.98,258.18 301.87,258.18 	"/>
	<polygon class="st4" points="301.98,252.37 301.87,252.37 296.17,252.37 296.07,252.37 296.07,258.17 296.17,258.17 301.87,258.17 
		301.98,258.17 	"/>
	<polygon class="st4" points="301.98,246.56 301.87,246.56 296.17,246.56 296.07,246.56 290.37,246.56 290.37,246.56 290.26,246.56 
		290.26,246.56 284.56,246.56 284.45,246.56 284.45,252.37 284.56,252.37 290.26,252.37 290.26,252.37 290.37,252.37 290.37,252.37 
		296.07,252.37 296.17,252.37 301.87,252.37 301.98,252.37 	"/>
	<polygon class="st4" points="284.44,246.55 284.45,246.55 284.55,246.55 284.56,246.55 290.26,246.55 290.26,246.55 290.37,246.55 
		290.37,246.55 296.07,246.55 296.17,246.55 301.87,246.55 301.98,246.55 307.68,246.55 307.79,246.55 307.79,240.75 313.49,240.75 
		313.6,240.75 313.6,234.94 313.49,234.94 307.79,234.94 307.68,234.94 301.98,234.94 301.87,234.94 296.17,234.94 296.07,234.94 
		290.37,234.94 290.37,234.94 290.26,234.94 290.26,234.94 284.56,234.94 284.55,234.94 284.45,234.94 284.44,234.94 278.75,234.94 
		278.64,234.94 278.64,240.75 278.64,246.55 278.75,246.55 	"/>
	<polygon class="st4" points="290.26,234.93 290.26,234.93 290.37,234.93 290.37,234.93 296.07,234.93 296.17,234.93 301.87,234.93 
		301.98,234.93 307.68,234.93 307.79,234.93 313.49,234.93 313.6,234.93 313.6,229.13 313.49,229.13 307.79,229.13 307.68,229.13 
		301.98,229.13 301.87,229.13 296.17,229.13 296.07,229.13 290.37,229.13 290.37,229.13 290.26,229.13 290.26,229.13 284.56,229.13 
		284.45,229.13 284.45,234.93 284.56,234.93 	"/>
	<polygon class="st4" points="301.87,229.12 301.98,229.12 307.68,229.12 307.79,229.12 307.79,223.32 307.68,223.32 301.98,223.32 
		301.87,223.32 296.17,223.32 296.07,223.32 296.07,229.12 296.17,229.12 	"/>
</g>
<polygon class="st4" points="151.7,72.93 177.92,74.18 250,60.2 255.35,55.53 244.2,8.15 239.41,8.15 180.44,21.76 168.59,19.24 
	136.57,0.01 55.38,0.01 50.03,0.01 0,0.01 0,50.04 0,54.21 0,70.24 19.44,54.21 19.21,139.48 0,151.62 0,212.52 57.86,177.46 
	78.02,165.36 183.22,233.58 201.03,216.1 221.53,176.78 108.94,104.19 107.99,48.56 107.99,39.09 128.51,59.31 "/>
</svg>
