<?xml version="1.0" encoding="utf-8"?>
<!-- Generator: Adobe Illustrator 19.0.0, SVG Export Plug-In . SVG Version: 6.00 Build 0)  -->
<svg version="1.1" xmlns="http://www.w3.org/2000/svg" xmlns:xlink="http://www.w3.org/1999/xlink" x="0px" y="0px"
	 viewBox="0 0 1000 1000" style="enable-background:new 0 0 1000 1000;" xml:space="preserve">
<style type="text/css">
	.st0{fill:#FFFFFF;}
	.st1{fill:#C3E3F2;}
	.st2{fill:#65B6D9;}
	.st3{fill:#87CBE9;}
	.st4{fill:#87CCE9;}
	.st5{fill:#207598;}
	.st6{fill:#48A0C7;}
</style>
<g id="Layer_2">
	<rect id="XMLID_8_" class="st0" width="1000" height="1000"/>
</g>
<g id="Layer_1">
	<g id="XMLID_1602_">
		<polygon id="XMLID_12_" class="st1" points="576.4,161.1 556.3,141 536.2,120.9 516.1,100.9 496,85.2 475.9,100.9 455.9,120.9 
			435.8,141 415.7,161.1 396.4,187.6 451,189.8 448,249.2 475.9,241.5 475.9,241.5 475.9,241.5 496,222.6 516.1,241.5 546.3,244.8 
			546.7,195.7 595.1,187.6 		"/>
		<path id="XMLID_3_" class="st1" d="M451.1,187.6"/>
		<rect id="XMLID_1603_" x="556.3" y="141" class="st2" width="20.1" height="20.1"/>
		<rect id="XMLID_1604_" x="415.7" y="141" class="st2" width="20.1" height="20.1"/>
		<rect id="XMLID_1605_" x="536.2" y="120.9" class="st2" width="20.1" height="20.1"/>
		<rect id="XMLID_1606_" x="435.8" y="120.9" class="st2" width="20.1" height="20.1"/>
		<rect id="XMLID_1607_" x="516.1" y="100.9" class="st2" width="20.1" height="20.1"/>
		<rect id="XMLID_1608_" x="455.9" y="100.9" class="st2" width="20.1" height="20.1"/>
		<rect id="XMLID_18_" x="475.9" y="80.8" class="st2" width="40.2" height="20.1"/>
		<polyline id="XMLID_13_" class="st3" points="516.1,241.5 516.1,221.4 475.9,221.4 475.9,241.5 		"/>
		<rect id="XMLID_1624_" x="556.3" y="281.7" class="st3" width="20.1" height="20.1"/>
		<rect id="XMLID_1625_" x="415.7" y="281.7" class="st3" width="20.1" height="20.1"/>
		<rect id="XMLID_1626_" x="536.2" y="261.6" class="st3" width="20.1" height="20.1"/>
		<rect id="XMLID_1627_" x="435.8" y="261.6" class="st3" width="20.1" height="20.1"/>
		<polygon id="XMLID_10_" class="st4" points="556.3,342 556.3,402.2 435.8,402.2 435.8,342 375.5,342 375.5,321.9 395.6,321.9 
			395.6,301.8 415.7,301.8 415.7,321.9 455.9,321.9 455.9,382.1 536.2,382.1 536.2,321.9 576.4,321.9 576.4,301.8 596.5,301.8 
			596.5,321.9 596.5,321.9 616.6,321.9 616.6,342 		"/>
		<rect id="XMLID_1817_" x="455.9" y="241.5" class="st3" width="20.1" height="20.1"/>
		<rect id="XMLID_1814_" x="516.1" y="241.5" class="st3" width="20.1" height="20.1"/>
		<polygon id="XMLID_9_" class="st2" points="415.7,181.2 415.7,161.1 395.6,161.1 395.6,181.2 375.5,181.2 375.5,201.3 
			435.8,201.3 435.8,261.6 455.9,261.6 455.9,181.2 		"/>
		<polygon id="XMLID_17_" class="st2" points="556.3,201.3 556.3,201.3 556.3,261.6 536.2,261.6 536.2,181.2 576.4,181.2 
			576.4,161.1 596.5,161.1 596.5,181.2 596.5,181.2 616.6,181.2 616.6,201.3 		"/>
	</g>
	<g id="XMLID_1636_">
		<polygon id="XMLID_7_" class="st5" points="502.9,871.5 502.8,844.7 502.8,841.5 479.6,840.3 479.6,842.8 454.8,818.5 
			455.2,845.6 431.3,846 431.9,872.8 433,925 456.7,924.6 479.7,924.1 479.6,871.9 		"/>
		<polygon id="XMLID_6_" class="st5" points="383.6,846.9 382.7,819.9 406.4,819.5 405.6,792.3 405.4,775.6 394.4,764.5 393,764.5 
			398.3,738 405.5,734.1 379.2,711.6 380,736.4 330.6,736.8 305.9,737 281,737.2 282.7,766.1 307.3,765.8 308.7,793.6 333.1,793.2 
			334.3,820.8 335.5,847.8 336.7,874.6 339,926.9 386.2,926 384.5,873.7 		"/>
	</g>
	<polyline id="XMLID_5_" class="st6" points="863.7,671.1 848.9,699.5 816.8,712.7 802.9,740.5 767.5,756.1 753.8,783.7 
		716.1,801.2 702.9,829.5 614.3,873.2 627.6,842.6 576.8,866.3 590,834.3 533,859.4 546.5,824.7 481.1,851.7 387.6,768.2 
		398.3,730.3 569.4,711.6 863.7,671.1 	"/>
	<polygon id="XMLID_1_" class="st2" points="494.8,813.3 398.3,730.3 369.2,705.3 404.6,696.2 298.1,607.9 262.9,613.9 170.5,534.5 
		205.2,530.9 163.7,496.5 196.6,494 176.8,478 208.2,476 188.8,460.8 301.9,455 321.2,468.8 370,465.7 350.8,452.4 440.9,447.7 
		459.7,459.9 478.9,458.7 498.5,471.2 518.1,469.7 557.4,494.5 576,492.5 662.1,546 644.1,549.1 740.1,609.5 757.3,605.1 
		782.4,620.7 863.7,671.1 	"/>
</g>
</svg>
