<?xml version="1.0" encoding="utf-8"?>
<!-- Generator: Adobe Illustrator 23.0.6, SVG Export Plug-In . SVG Version: 6.00 Build 0)  -->
<svg version="1.1" id="desire_lines" xmlns="http://www.w3.org/2000/svg" xmlns:xlink="http://www.w3.org/1999/xlink" x="0px"
	 y="0px" viewBox="0 0 512 512" style="enable-background:new 0 0 512 512;" xml:space="preserve">
<style type="text/css">
	.st0{fill:#FFFFFF;}
	.st1{fill:#4AA0C7;}
	.st2{fill:#367592;}
</style>
<rect x="0" y="0" class="st0" width="512" height="512"/>
<g id="Icon">
	<g id="Player">
		<path id="path6524" class="st1" d="M429.02,259.94l-23.4-32.61l-0.33-15.82l4.3-3.28l-0.66-38.55l20.43,13.17l44.14,12.53
			l8.24-29.99l-39.21-15.82l-24.4-22.08l0.34-8.9l5.27,2.64l18.13-57l-83.38-28.67L337.4,86.64l12.54,9.55l-0.66,4.28l-17.46,1.98
			l-27.02,33.62l-2.3,60.29l14.82,4.94l18.46-0.65l-1.3-37.9l5.58-12.19l7.6,6.58l4.28,52.4l1.63,25.7l-40.18,29.34l5.27,24.36
			l21.09,9.88l35.24-22.72l7.24-9.55l21.09,12.51L429.02,259.94z"/>
	</g>
	<g id="Particles">
		<g id="g6772" transform="matrix(1.5407457,0,0,1.5407457,-152.8915,-235.91436)">
			<rect id="rect6580" x="227.34" y="298.31" class="st2" width="4.28" height="4.49"/>
			<rect id="rect6580-1" x="260.05" y="298.38" class="st2" width="5.57" height="5.83"/>
			<rect id="rect6580-15" x="283.37" y="303.12" class="st2" width="4.29" height="4.5"/>
			<rect id="rect6580-5" x="347.96" y="332.64" class="st2" width="4.26" height="4.48"/>
			<rect id="rect6580-9" x="318.87" y="298.15" class="st2" width="6.41" height="6.73"/>
			<rect id="rect6580-4" x="292.79" y="315.11" class="st2" width="3.83" height="4.04"/>
			<rect id="rect6580-6" x="279.94" y="312.75" class="st2" width="4.29" height="4.48"/>
			<rect id="rect6580-42" x="283.37" y="310.61" class="st2" width="4.29" height="4.5"/>
			<rect id="rect6580-45" x="271.9" y="293.76" class="st2" width="5.41" height="5.69"/>
			<rect id="rect6580-2" x="275.68" y="297.99" class="st2" width="4.27" height="4.5"/>
			<rect id="rect6580-7" x="279.31" y="322.6" class="st2" width="3.42" height="3.61"/>
			<rect id="rect6580-77" x="285.89" y="327.72" class="st2" width="2.64" height="2.77"/>
			<rect id="rect6580-8" x="287.84" y="329.32" class="st2" width="3.87" height="4.07"/>
			<rect id="rect6580-79" x="279.71" y="335" class="st2" width="2.81" height="2.91"/>
			<rect id="rect6580-0" x="294.53" y="341.74" class="st2" width="5.92" height="6.2"/>
			<rect id="rect6580-0-2" x="303.61" y="347.49" class="st2" width="2.06" height="2.16"/>
			<rect id="rect6580-0-20" x="291.69" y="340.43" class="st2" width="3.87" height="4.07"/>
			<rect id="rect6580-0-22" x="306.86" y="352.19" class="st2" width="2.85" height="3.01"/>
			<rect id="rect6580-0-228" x="306.07" y="359.45" class="st2" width="3.12" height="3.27"/>
			<rect id="rect6580-0-228-9" x="327.52" y="346.95" class="st2" width="3.46" height="3.64"/>
			<rect id="rect6580-0-228-6" x="300.83" y="336.79" class="st2" width="2.06" height="2.16"/>
			<rect id="rect6580-0-228-7" x="298.28" y="328.38" class="st2" width="1.41" height="1.49"/>
			<rect id="rect6580-0-228-5" x="304.69" y="313.72" class="st2" width="1.62" height="1.7"/>
			<rect id="rect6580-0-228-3" x="342.13" y="335.63" class="st2" width="1.83" height="1.93"/>
		</g>
	</g>
	<g id="Footprints">
		<g id="g6762" transform="matrix(1.5407457,0,0,1.5407457,-152.8915,-235.91436)">
			<path id="rect6526" class="st1" d="M194.1,372.45l39.44-8.28l27.58,24.31l-42.2,11.03L194.1,372.45z"/>
			<path id="rect6526-6" class="st1" d="M240.47,439.67l33.37-6.99l23.32,20.56l-35.69,9.33L240.47,439.67z"/>
			<path id="rect6526-8" class="st1" d="M257.03,351.47l25.27-5.29l17.65,15.56l-27.01,7.07L257.03,351.47z"/>
			<path id="rect6526-83" class="st1" d="M335.31,342.35l17.83-3.75l12.46,11.01l-19.08,4.97L335.31,342.35z"/>
			<path id="rect6526-1" class="st1" d="M244.85,317.01l22.26-2.17l13.73,15.07l-23.93,3.53L244.85,317.01z"/>
			<path id="rect6526-13" class="st1" d="M161.83,337.28l34.07-7.16l23.82,21l-36.46,9.52L161.83,337.28z"/>
			<path id="rect6526-4" class="st1" d="M118.56,389.66l42.64-8.94l29.81,26.27l-45.62,11.93L118.56,389.66z"/>
			<path id="rect6526-7" class="st1" d="M164.61,433.31l34.71-7.28l24.27,21.38l-37.13,9.71L164.61,433.31z"/>
		</g>
	</g>
</g>
</svg>
