<?xml version="1.0" encoding="utf-8"?>
<!-- Generator: Adobe Illustrator 23.0.6, SVG Export Plug-In . SVG Version: 6.00 Build 0)  -->
<svg version="1.1"
	 id="custom_crafters" xmlns:cc="http://creativecommons.org/ns#" xmlns:dc="http://purl.org/dc/elements/1.1/" xmlns:inkscape="http://www.inkscape.org/namespaces/inkscape" xmlns:rdf="http://www.w3.org/1999/02/22-rdf-syntax-ns#" xmlns:sodipodi="http://sodipodi.sourceforge.net/DTD/sodipodi-0.dtd" xmlns:svg="http://www.w3.org/2000/svg"
	 xmlns="http://www.w3.org/2000/svg" xmlns:xlink="http://www.w3.org/1999/xlink" x="0px" y="0px" viewBox="0 0 512 512"
	 style="enable-background:new 0 0 512 512;" xml:space="preserve">
<style type="text/css">
	.st0{fill:#FFFFFF;}
	.st1{fill:#4AA0C7;}
	.st2{fill:#3D83A3;}
</style>
<rect class="st0" width="512" height="512"/>
<g>
	<g id="layer1" inkscape:groupmode="layer" inkscape:label="Layer 1">
		<path id="path236" class="st1" d="M106.48,197.51l23.05,241.39l256.91,0.6l24.2-242.52L106.48,197.51z"/>
		<path id="path238_2_" class="st1" d="M157.59,121.49l-49.54,73.42l302.28-0.74l-58.47-74.4L157.59,121.49z"/>
		<path id="path238_3_" class="st2" d="M242.9,146.6l-8.05,10.47l49.29-0.1l-9.53-10.6L242.9,146.6z"/>
	</g>
	<g id="layer2" inkscape:groupmode="layer" inkscape:label="Layer 2">
		<path id="path240" sodipodi:nodetypes="ccccc" class="st0" d="M201.62,103.46l110.13,0.05l0.08,91.9l-110.11,0.4L201.62,103.46z"
			/>
		<path id="path600" class="st0" d="M297.89,80.36c-2.46,0-10.87,0-31.12,0.05l0.65,3.98h33.57l-1.77-4.03
			C299.23,80.36,299.23,80.36,297.89,80.36L297.89,80.36z M265.2,80.41c-5.03,0-13.25,0.05-20,0.05l-0.48,3.94h21.12L265.2,80.41z
			 M243.69,80.46c-9.33,0.05-16.96,0.05-29.88,0.1l-1.27,3.78h30.71L243.69,80.46z M211.93,85.96l-1.96,5.8h32.29l0.73-5.8H211.93z
			 M244.53,85.96l-0.75,5.8h23.19l-0.92-5.8H244.53z M267.66,85.96l0.96,5.8h35.57l-2.5-5.8H267.66z M209.48,93.28l-1.77,5.31
			l33.71-0.11l0.65-5.21C242.07,93.28,209.48,93.28,209.48,93.28z M243.59,93.28l-0.63,5.21l64.04-0.2l-2.19-5.01h-35.99l0.77,5.06
			h-1.57l-0.77-5.01L243.59,93.28z"/>
		<path id="rect1635" class="st1" d="M265.12,79.82l0.73,4.57h-21.13l0.54-4.38h-1.57l-0.54,4.38h-32.44v1.57h32.25l-0.75,5.8H209.1
			v1.57h32.92l-0.63,5.26h1.58l0.63-5.26h23.64l0.76,5.01h1.57l-0.76-5.06h36.26v-1.57h-36.54l-0.92-5.8h34.45v-1.57h-34.69
			l-0.77-4.57L265.12,79.82z M244.53,85.96h21.55l0.96,5.8h-23.2L244.53,85.96z"/>
		<path id="path238" class="st1" d="M304.69,77.02l-96.38,0.15l-10.28,22.31l0.1,101.97l118.59-0.4V100.37L304.69,77.02z
			 M297.89,80.36c1.34,0,1.34,0,1.34,0l7.76,17.94l-99.28,0.3l6.05-17.99C277.84,80.31,293.85,80.31,297.89,80.36L297.89,80.36z
			 M205.9,106.21l103.55,0.05l0.23,85.41L206,192.02L205.9,106.21z"/>
	</g>
	<g id="layer3">
		<path id="path238_1_" class="st1" d="M157.59,121.49l-49.54,73.42l302.28-0.74l-58.47-74.4l-35.19,0.3v37.24l-118.69,1.38v-37.6
			L157.59,121.49z"/>
		<polygon class="st0" points="410.64,196.93 106.48,197.51 108.05,194.91 410.33,194.23 		"/>
	</g>
</g>
</svg>
