<?xml version="1.0" encoding="UTF-8" standalone="no"?>
<!-- Created with Inkscape (http://www.inkscape.org/) -->

<svg
   width="1024"
   height="1024"
   viewBox="0 0 270.93333 270.93333"
   version="1.1"
   id="svg5"
   xml:space="preserve"
   inkscape:version="1.2.1 (9c6d41e410, 2022-07-14)"
   sodipodi:docname="pack.svg"
   inkscape:export-filename="pack.png"
   inkscape:export-xdpi="48"
   inkscape:export-ydpi="48"
   xmlns:inkscape="http://www.inkscape.org/namespaces/inkscape"
   xmlns:sodipodi="http://sodipodi.sourceforge.net/DTD/sodipodi-0.dtd"
   xmlns:xlink="http://www.w3.org/1999/xlink"
   xmlns="http://www.w3.org/2000/svg"
   xmlns:svg="http://www.w3.org/2000/svg"><sodipodi:namedview
     id="namedview7"
     pagecolor="#ffffff"
     bordercolor="#666666"
     borderopacity="1.0"
     inkscape:showpageshadow="2"
     inkscape:pageopacity="0.0"
     inkscape:pagecheckerboard="0"
     inkscape:deskcolor="#d1d1d1"
     inkscape:document-units="mm"
     showgrid="true"
     inkscape:zoom="0.79414637"
     inkscape:cx="457.09458"
     inkscape:cy="512.49998"
     inkscape:window-width="1920"
     inkscape:window-height="1017"
     inkscape:window-x="-8"
     inkscape:window-y="-8"
     inkscape:window-maximized="1"
     inkscape:current-layer="layer1"><inkscape:grid
       type="xygrid"
       id="grid1310" /></sodipodi:namedview><defs
     id="defs2"><linearGradient
       id="linearGradient868"
       inkscape:swatch="solid"><stop
         style="stop-color:#333333;stop-opacity:1;"
         offset="0"
         id="stop866" /></linearGradient><linearGradient
       inkscape:collect="always"
       xlink:href="#linearGradient868"
       id="linearGradient870"
       x1="96.992228"
       y1="69.137512"
       x2="152.02556"
       y2="69.137512"
       gradientUnits="userSpaceOnUse" /><filter
       style="color-interpolation-filters:sRGB;"
       inkscape:label="Colorize"
       id="filter4253"
       x="0"
       y="0"
       width="1"
       height="1"><feComposite
         in2="SourceGraphic"
         operator="arithmetic"
         k1="0"
         k2="1"
         result="composite1"
         id="feComposite4239" /><feColorMatrix
         in="composite1"
         values="1"
         type="saturate"
         result="colormatrix1"
         id="feColorMatrix4241" /><feFlood
         flood-opacity="1"
         flood-color="rgb(95,205,255)"
         result="flood1"
         id="feFlood4243" /><feBlend
         in="flood1"
         in2="colormatrix1"
         mode="multiply"
         result="blend1"
         id="feBlend4245" /><feBlend
         in2="blend1"
         mode="screen"
         result="blend2"
         id="feBlend4247" /><feColorMatrix
         in="blend2"
         values="1"
         type="saturate"
         result="colormatrix2"
         id="feColorMatrix4249" /><feComposite
         in="colormatrix2"
         in2="SourceGraphic"
         operator="in"
         k2="1"
         result="composite2"
         id="feComposite4251" /></filter></defs><g
     inkscape:label="Layer 1"
     inkscape:groupmode="layer"
     id="layer1"><rect
       style="fill-opacity:1;stroke-width:1.49;fill:#ffffff"
       id="rect728307"
       width="271.19791"
       height="271.19791"
       x="0"
       y="0" /><path
       style="fill:#4aa0c7;stroke-width:1.1181;fill-opacity:1"
       d="m 21.241673,205.79824 c 0.07088,-20.58454 -0.129028,-41.75657 -0.129028,-41.75657 0,0 2.398431,0 6.7939,0 h 6.308625 l 0.252579,32.15018 0.232698,32.16175 4.860345,0.25782 c 12.030037,0.63817 28.969298,2.097 37.479356,3.51448 11.644685,1.93961 42.945082,9.54847 42.945082,10.43959 0,0.36164 -22.122683,0.65752 -49.161509,0.65752 l -49.711076,0.0374 z m 128.414737,36.77848 c 0,-0.94916 31.60558,-8.51396 43.7259,-10.4658 9.95274,-1.60277 25.07493,-3.07118 35.91772,-3.48775 l 5.82053,-0.26957 0.0534,-32.20731 -0.0534,-32.10462 h 7.27916 6.30861 l 0.11202,39.5551 -0.11202,39.23766 -49.46999,0.19969 c -27.27014,0.11622 -49.58207,-0.0897 -49.58207,-0.4574 z m -28.89034,-3.85606 C 94.429845,230.8588 64.310098,225.61134 45.520551,225.61134 h -5.178929 v -39.74176 -39.74179 l 11.454779,0.44411 c 18.613777,0.72163 46.329133,6.11088 71.702539,13.9425 l 9.2278,2.67546 v 39.18341 c 2e-5,21.54241 0,39.60935 0,39.60935 0,0 -6.80725,-1.72359 -11.96067,-3.26196 z m 17.78402,-36.34739 c 0.38495,-35.92087 0,-39.18341 0,-39.18341 0,0 38.53164,-11.24658 52.7853,-13.64962 8.15958,-1.37565 19.93044,-2.70622 26.15748,-2.9568 l 11.80716,-0.45565 v 39.74179 39.74176 h -5.17893 c -18.56515,0 -47.27911,4.91856 -73.05651,12.51421 -6.52616,1.92302 -12.5145,3.85707 -12.5145,3.85707 0,0 -0.23055,-18.09585 0,-39.60935 z"
       id="path1259"
       sodipodi:nodetypes="scscccsssscssssccccccccssscccsscsscsscscccssscs" /><g
       id="g178"
       transform="matrix(1.7525447,0,0,1.7525447,-75.601412,-35.782304)"
       style="filter:url(#filter4253)"><path
         style="display:inline;fill:#767676;fill-opacity:1;stroke-width:0.264583"
         d="m 122.39223,83.954178 v -2.116666 h 2.11666 2.11667 v 2.116666 2.116667 h -2.11667 -2.11666 z M 92.758895,79.720845 v -2.116667 h 2.116667 2.116666 v -2.116666 -2.116667 h 2.116667 2.116665 v 2.116667 2.116666 h -2.116665 -2.116667 v 2.116667 2.116667 h -2.116666 -2.116667 z m 21.166665,-4.233333 v -2.116667 h 2.11667 2.11666 v 2.116667 2.116666 h -2.11666 -2.11667 z m 16.93333,0 v -2.116667 h 2.11667 2.11667 v 2.116667 2.116666 h -2.11667 -2.11667 z m 12.7,-4.233333 v -2.116667 h 2.11667 2.11667 v 2.116667 2.116666 h -2.11667 -2.11667 z M 96.992228,62.787512 v -2.116666 h 2.116667 2.116665 v 2.116666 2.116667 h -2.116665 -2.116667 z m 21.166662,0 v -2.116666 h 4.23334 4.23333 v 2.116666 2.116667 h -4.23333 -4.23334 z m 16.93334,0 v -2.116666 h 2.11666 2.11667 v -2.116667 -2.116666 h 2.11667 2.11666 v 2.116666 2.116667 h -2.11666 -2.11667 v 2.116666 2.116667 h -2.11667 -2.11666 z M 96.992228,50.087513 v -2.116667 h 2.116667 2.116665 v 2.116667 2.116667 H 99.108895 96.992228 Z M 113.92556,45.85418 v -2.116667 h 4.23333 4.23334 v 2.116667 2.116666 h -4.23334 -4.23333 z m -12.7,-4.233333 V 39.50418 h 4.23333 4.23334 v 2.116667 2.116666 h -4.23334 -4.23333 z m 25.4,0 V 39.50418 h 2.11667 2.11666 v -2.116666 -2.116667 h 2.11667 2.11667 v 2.116667 2.116666 h -2.11667 -2.11667 v 2.116667 2.116666 h -2.11666 -2.11667 z"
         id="path186" /><path
         style="display:inline;fill:#606060;fill-opacity:1;stroke-width:0.264583"
         d="m 113.92556,92.420844 v -6.349999 h 2.11667 2.11666 v -2.116667 -2.116666 h -2.11666 -2.11667 v -2.116667 -2.116667 h 2.11667 2.11666 v 2.116667 2.116667 h 2.11667 2.11667 v -2.116667 -2.116667 h 2.11666 2.11667 v 2.116667 2.116667 h -2.11667 -2.11666 v 4.233333 4.233333 h -2.11667 -2.11667 v 4.233333 4.233333 h -2.11666 -2.11667 z M 92.758895,83.954178 v -2.116666 h 2.116667 2.116666 v -2.116667 -2.116667 h 2.116667 2.116665 v 2.116667 2.116667 h -2.116665 -2.116667 v 2.116666 2.116667 h -2.116666 -2.116667 z m 55.033335,-8.466666 v -2.116667 h 2.11666 2.11667 v 2.116667 2.116666 h -2.11667 -2.11666 z m -46.56667,-4.233333 v -2.116667 h -2.116665 -2.116667 v -2.116666 -2.116667 h 2.116667 2.116665 v 2.116667 2.116666 h 2.11667 2.11666 v -2.116666 -2.116667 h 8.46667 8.46667 v 4.233333 4.233333 h -2.11667 -2.11667 v -2.116666 -2.116667 h -4.23333 -4.23333 v 2.116667 2.116666 h -4.23334 -4.23333 z m 33.86667,0 v -2.116667 h 4.23333 4.23333 v 2.116667 2.116666 h -4.23333 -4.23333 z m 4.23333,-8.466667 v -2.116666 h 2.11667 2.11666 v -2.116667 -2.116666 h -2.11666 -2.11667 V 54.320846 52.20418 h 2.11667 2.11666 v 2.116666 2.116667 h 2.11667 2.11667 v 2.116666 2.116667 h -2.11667 -2.11667 v 2.116666 2.116667 h -2.11666 -2.11667 z m -33.86667,-4.233333 v -2.116666 h -4.23333 -4.233332 V 54.320846 52.20418 h 2.116667 2.116665 v -2.116667 -2.116667 h 2.11667 2.11666 V 45.85418 43.737513 h 2.11667 2.11667 v 2.116667 2.116666 h -2.11667 -2.11667 v 4.233334 4.233333 h 4.23334 4.23333 v 2.116666 2.116667 h -4.23333 -4.23334 z m 12.7,0 v -2.116666 h 2.11667 2.11667 V 54.320846 52.20418 h -2.11667 -2.11667 v -2.116667 -2.116667 h 2.11667 2.11667 V 45.85418 43.737513 h 2.11666 2.11667 v 2.116667 2.116666 h -2.11667 -2.11666 v 2.116667 2.116667 h 2.11666 2.11667 v 2.116666 2.116667 h -2.11667 -2.11666 v 2.116666 2.116667 h -2.11667 -2.11667 z m 12.7,-14.816666 V 39.50418 h 2.11667 2.11667 v 2.116667 2.116666 h 2.11666 2.11667 v 2.116667 2.116666 h -4.23333 -4.23334 z"
         id="path184" /><path
         style="display:inline;fill:#494949;fill-opacity:1;stroke-width:0.264583"
         d="m 118.15889,94.537511 v -4.233333 h 2.11667 2.11667 v 4.233333 4.233333 h -2.11667 -2.11667 z m 8.46667,-10.583333 v -2.116666 h 2.11667 2.11666 v 2.116666 2.116667 h -2.11666 -2.11667 z m -25.4,-8.466666 v -2.116667 h 2.11667 2.11666 v 2.116667 2.116666 h -2.11666 -2.11667 z m 12.7,-4.233333 v -2.116667 h 2.11667 2.11666 v 2.116667 2.116666 h -2.11666 -2.11667 z m 12.7,0 v -2.116667 h -2.11667 -2.11666 v -2.116666 -2.116667 h 2.11666 2.11667 v 2.116667 2.116666 h 4.23333 4.23334 v 2.116667 2.116666 h -4.23334 -4.23333 z m -16.93333,-8.466667 v -2.116666 h 4.23333 4.23333 v 2.116666 2.116667 h -4.23333 -4.23333 z m 12.7,-4.233333 v -2.116666 h 2.11666 2.11667 V 54.320846 52.20418 h 2.11667 2.11666 v -2.116667 -2.116667 h 4.23334 4.23333 v 2.116667 2.116667 h -4.23333 -4.23334 v 2.116666 2.116667 h -2.11666 -2.11667 v 2.116666 2.116667 h -2.11667 -2.11666 z m -16.93334,-8.466666 v -2.116667 h -2.11666 -2.11667 V 45.85418 43.737513 h 2.11667 2.11666 v 2.116667 2.116666 h 2.11667 2.11667 v 2.116667 2.116667 h -2.11667 -2.11667 z"
         id="path182" /><path
         style="display:inline;fill:url(#linearGradient870);fill-opacity:1;stroke-width:0.264583"
         d="m 122.39223,92.420844 v -6.349999 h 4.23333 4.23333 v 2.116666 2.116667 h -2.11666 -2.11667 v 4.233333 4.233333 h -2.11667 -2.11666 z M 96.992228,83.954178 v -2.116666 h 2.116667 2.116665 v -2.116667 -2.116667 h 2.11667 2.11666 v -2.116666 -2.116667 h 2.11667 2.11667 v -2.116666 -2.116667 h 2.11666 2.11667 v 2.116667 2.116666 h -2.11667 -2.11666 v 6.35 6.35 h -2.11667 -2.11667 v -2.116667 -2.116666 h -2.11666 -2.11667 v 2.116666 2.116667 h -2.116665 -2.116667 z m 16.933332,0 v -2.116666 h 2.11667 2.11666 v -4.233334 -4.233333 h 2.11667 2.11667 v -2.116666 -2.116667 h 2.11666 2.11667 v -2.116666 -2.116667 h 4.23333 4.23334 v 2.116667 2.116666 h -4.23334 -4.23333 v 2.116667 2.116666 h 2.11667 2.11666 v 4.233333 4.233334 h -2.11666 -2.11667 v -2.116667 -2.116667 h -2.11667 -2.11666 v 2.116667 2.116667 h -2.11667 -2.11667 v 2.116666 2.116667 h -2.11666 -2.11667 z m 33.86667,-4.233333 v -2.116667 h -2.11667 -2.11667 v -2.116666 -2.116667 h 2.11667 2.11667 v 2.116667 2.116666 h 2.11666 2.11667 v 2.116667 2.116667 h -2.11667 -2.11666 z m -12.7,-4.233333 v -2.116667 h 2.11666 2.11667 v 2.116667 2.116666 h -2.11667 -2.11666 z m 4.23333,-8.466666 v -2.116667 h 2.11667 2.11666 v -2.116667 -2.116666 h 2.11667 2.11667 v 2.116666 2.116667 h -2.11667 -2.11667 v 2.116667 2.116666 h -2.11666 -2.11667 z m -38.1,-4.233334 v -2.116666 h 2.11667 2.11666 v 2.116666 2.116667 h -2.11666 -2.11667 z m 12.7,-4.233333 v -2.116666 h -4.23333 -4.23334 V 54.320846 52.20418 h 2.11667 2.11667 v -2.116667 -2.116667 h 2.11666 2.11667 v 4.233334 4.233333 h 2.11667 2.11666 V 54.320846 52.20418 h 2.11667 2.11667 v -2.116667 -2.116667 h 4.23333 4.23333 v 2.116667 2.116667 h 4.23334 4.23333 v -2.116667 -2.116667 h 2.11667 2.11666 v 2.116667 2.116667 h -2.11666 -2.11667 v 2.116666 2.116667 h -2.11667 -2.11666 v 2.116666 2.116667 h -4.23334 -4.23333 v -2.116667 -2.116666 h 2.11667 2.11666 V 54.320846 52.20418 h -4.23333 -4.23333 v 2.116666 2.116667 h -2.11667 -2.11667 v 2.116666 2.116667 h -2.11666 -2.11667 z M 135.09223,41.620847 V 39.50418 h 2.11666 2.11667 v 2.116667 2.116666 h -2.11667 -2.11666 z"
         id="path180" /></g></g></svg>
