<?xml version="1.0" encoding="utf-8"?>
<!-- Generator: Adobe Illustrator 23.0.6, SVG Export Plug-In . SVG Version: 6.00 Build 0)  -->
<svg version="1.1" id="metallurgy" xmlns="http://www.w3.org/2000/svg" xmlns:xlink="http://www.w3.org/1999/xlink" x="0px" y="0px"
	 viewBox="0 0 512 512" style="enable-background:new 0 0 512 512;" xml:space="preserve">
<style type="text/css">
	.st0{fill:#FFFFFF;}
	.st1{fill:#4AA0C7;}
	.st2{fill:#A1CEE2;}
	.st3{fill:#3D83A3;}
	.st4{fill:#7FBCD7;}
</style>
<rect x="0" y="0" class="st0" width="512" height="512"/>
<g id="Icon">
	<g id="Pickaxe">
		<g>
			<polygon class="st1" points="320.19,232 330.98,221.19 345.72,235.93 334.92,246.74 			"/>
			<polygon class="st1" points="258.94,192.84 291.38,160.38 345.48,214.48 313.02,246.93 			"/>
			<polygon class="st1" points="172.38,214.48 226.47,160.38 258.94,192.84 204.83,246.93 			"/>
			<polygon class="st1" points="215.65,192.83 258.95,149.54 302.24,192.83 258.95,236.11 			"/>
			
				<rect x="175" y="227.19" transform="matrix(0.7074 -0.7069 0.7069 0.7074 -112.011 199.1124)" class="st1" width="18.93" height="15.28"/>
			<polygon class="st1" points="237.27,236.11 258.93,214.46 280.58,236.11 258.93,257.75 			"/>
			<polygon class="st1" points="237.27,257.77 258.93,236.13 280.58,257.78 258.93,279.42 			"/>
			<polygon class="st1" points="237.27,279.41 258.93,257.77 280.58,279.42 258.93,301.06 			"/>
			<polygon class="st1" points="237.27,301.04 258.93,279.4 280.58,301.04 258.93,322.68 			"/>
			<polygon class="st1" points="237.27,322.67 258.94,301.03 280.58,322.67 258.93,344.31 			"/>
			
				<rect x="243.51" y="329.08" transform="matrix(0.7071 -0.7071 0.7071 0.7071 -167.709 283.875)" class="st1" width="30.61" height="30.61"/>
			<polygon class="st1" points="237.07,366.21 258.7,344.56 280.34,366.21 258.7,387.86 			"/>
		</g>
		<rect x="237.06" y="214.48" class="st1" width="43.7" height="21.67"/>
		<rect x="237.06" y="219.25" class="st2" width="43.7" height="12.42"/>
	</g>
	<g id="Shamirs">
		<g id="Shamir">
			<rect id="Cast" x="334.68" y="75.69" class="st3" width="36.13" height="36.12"/>
			<rect id="Band" x="331.19" y="83.23" class="st4" width="42.73" height="15.7"/>
		</g>
		<g id="Shamir_1_">
			<rect id="Cast_1_" x="419.64" y="241.07" class="st3" width="36.1" height="36.11"/>
			<rect id="Band_1_" x="416.15" y="248.6" class="st4" width="42.74" height="15.69"/>
		</g>
		<g id="Shamir_2_">
			<rect id="Cast_2_" x="334.71" y="403.95" class="st3" width="36.14" height="36.1"/>
			<rect id="Band_2_" x="331.25" y="411.48" class="st4" width="42.71" height="15.7"/>
		</g>
		<g id="Shamir_3_">
			<rect id="Cast_3_" x="145.75" y="404.35" class="st3" width="36.11" height="36.11"/>
			<rect id="Band_3_" x="142.27" y="411.89" class="st4" width="42.73" height="15.69"/>
		</g>
		<g id="Shamir_4_">
			<rect id="Cast_4_" x="60.94" y="241.2" class="st3" width="36.11" height="36.11"/>
			<rect id="Band_4_" x="57.46" y="248.72" class="st4" width="42.73" height="15.71"/>
		</g>
		<g id="Shamir_5_">
			<rect id="Cast_5_" x="145.86" y="76.04" class="st3" width="36.12" height="36.12"/>
			<rect id="Band_5_" x="142.38" y="83.57" class="st4" width="42.72" height="15.7"/>
		</g>
	</g>
	<g id="Particles">
		<g>
			<polygon class="st4" points="395.84,272.57 397.74,272.04 398.27,273.96 396.37,274.48 			"/>
			
				<rect x="398.49" y="273.69" transform="matrix(0.9641 -0.2657 0.2657 0.9641 -58.6225 116.0098)" class="st4" width="1.99" height="1.99"/>
			<polygon class="st4" points="394.39,275.04 396.28,274.51 396.81,276.43 394.92,276.96 			"/>
			
				<rect x="397.32" y="269.8" transform="matrix(0.9642 -0.265 0.265 0.9642 -57.5233 115.2404)" class="st4" width="1.99" height="1.99"/>
			
				<rect x="393.53" y="270.86" transform="matrix(0.9639 -0.2662 0.2662 0.9639 -58.1323 114.8341)" class="st4" width="1.99" height="1.99"/>
		</g>
		<g>
			<polygon class="st4" points="421.03,219.3 423,219.2 423.12,221.17 421.14,221.27 			"/>
			<polygon class="st4" points="423.12,221.19 425.09,221.08 425.2,223.07 423.21,223.18 			"/>
			<polygon class="st4" points="419.13,221.41 421.1,221.31 421.22,223.28 419.25,223.38 			"/>
			<polygon class="st4" points="422.9,217.22 424.89,217.11 424.97,219.09 423,219.2 			"/>
			<polygon class="st4" points="418.94,217.42 420.91,217.32 421.03,219.31 419.06,219.41 			"/>
		</g>
		<g>
			<polygon class="st4" points="470.26,249.24 472.24,249.08 472.39,251.07 470.41,251.22 			"/>
			<polygon class="st4" points="472.38,251.08 474.35,250.93 474.51,252.91 472.52,253.05 			"/>
			<polygon class="st4" points="468.43,251.38 470.42,251.24 470.57,253.21 468.58,253.36 			"/>
			<polygon class="st4" points="472.07,247.15 474.04,247.02 474.19,248.99 472.23,249.14 			"/>
			<polygon class="st4" points="468.17,247.4 470.13,247.27 470.29,249.23 468.31,249.39 			"/>
		</g>
		<g>
			<polygon class="st4" points="325.89,69.72 326.42,67.81 328.34,68.35 327.8,70.26 			"/>
			
				<rect x="327.5" y="70.54" transform="matrix(0.2687 -0.9632 0.9632 0.2687 171.3181 368.7228)" class="st4" width="1.98" height="1.99"/>
			
				<rect x="323.67" y="69.48" transform="matrix(0.2689 -0.9632 0.9632 0.2689 169.4877 364.2262)" class="st4" width="1.99" height="1.99"/>
			
				<rect x="328.56" y="66.67" transform="matrix(0.2692 -0.9631 0.9631 0.2692 175.6735 366.8347)" class="st4" width="1.98" height="1.99"/>
			
				<rect x="324.74" y="65.63" transform="matrix(0.268 -0.9634 0.9634 0.268 174.2448 362.5904)" class="st4" width="1.99" height="1.99"/>
		</g>
		<g>
			<polygon class="st4" points="187.22,129.31 187.52,127.35 189.48,127.65 189.19,129.6 			"/>
			<polygon class="st4" points="188.88,131.59 189.17,129.62 191.14,129.92 190.84,131.88 			"/>
			<polygon class="st4" points="184.93,131.01 185.24,129.05 187.19,129.34 186.9,131.3 			"/>
			<polygon class="st4" points="189.47,127.65 189.76,125.69 191.72,125.98 191.43,127.94 			"/>
			<polygon class="st4" points="185.57,127.08 185.87,125.12 187.82,125.42 187.53,127.38 			"/>
		</g>
		<g>
			<polygon class="st4" points="173.52,59.69 174.41,58.87 175.24,59.84 174.35,60.65 			"/>
			<polygon class="st4" points="175.24,59.85 176.13,59.02 176.97,60 176.07,60.81 			"/>
			<polygon class="st4" points="173.46,61.51 174.35,60.68 175.18,61.65 174.29,62.47 			"/>
			<polygon class="st4" points="173.57,57.91 174.46,57.08 175.3,58.05 174.41,58.87 			"/>
			<polygon class="st4" points="171.8,59.55 172.69,58.73 173.52,59.69 172.63,60.52 			"/>
		</g>
		<g>
			<polygon class="st4" points="128.94,88.36 130.91,88.19 131.07,90.17 129.1,90.34 			"/>
			
				<rect x="131.15" y="90.11" transform="matrix(0.9965 -0.0834 0.0834 0.9965 -7.1378 11.3379)" class="st4" width="1.98" height="1.99"/>
			<polygon class="st4" points="127.13,90.52 129.11,90.36 129.26,92.34 127.29,92.5 			"/>
			<polygon class="st4" points="130.74,86.23 132.72,86.06 132.87,88.04 130.9,88.2 			"/>
			<polygon class="st4" points="126.82,86.55 128.79,86.39 128.95,88.36 126.98,88.53 			"/>
		</g>
		<g>
			<polygon class="st4" points="111.89,282.94 112.01,280.84 114.11,280.98 113.99,283.08 			"/>
			<polygon class="st4" points="113.83,285.16 113.96,283.06 116.05,283.15 115.93,285.26 			"/>
			<polygon class="st4" points="109.63,284.9 109.76,282.8 111.85,282.93 111.72,285.04 			"/>
			<polygon class="st4" points="114.11,280.99 114.24,278.89 116.33,279.03 116.2,281.13 			"/>
			<polygon class="st4" points="109.9,280.69 110.03,278.59 112.13,278.73 112,280.83 			"/>
		</g>
		<g>
			<polygon class="st4" points="76.88,291.03 78.31,291.01 78.35,292.43 76.91,292.46 			"/>
			<polygon class="st4" points="78.36,292.44 79.8,292.41 79.84,293.84 78.4,293.87 			"/>
			<polygon class="st4" points="75.46,292.55 76.9,292.48 76.93,293.92 75.5,293.98 			"/>
			<polygon class="st4" points="78.28,289.59 79.71,289.56 79.74,290.98 78.31,291.01 			"/>
			<polygon class="st4" points="75.41,289.64 76.84,289.61 76.88,291.04 75.45,291.07 			"/>
		</g>
		<g>
			<polygon class="st4" points="165.61,452.34 165.76,450.72 167.36,450.87 167.21,452.48 			"/>
			<polygon class="st4" points="167.05,454.1 167.21,452.49 168.81,452.65 168.65,454.25 			"/>
			<polygon class="st4" points="163.83,453.79 163.98,452.19 165.59,452.35 165.44,453.95 			"/>
			<polygon class="st4" points="167.37,450.89 167.52,449.27 169.13,449.42 168.98,451.02 			"/>
			<polygon class="st4" points="164.14,450.56 164.3,448.96 165.9,449.1 165.74,450.72 			"/>
		</g>
		<g>
			<polygon class="st4" points="199.34,424.24 200.75,424.21 200.81,425.62 199.4,425.65 			"/>
			
				<rect x="200.84" y="425.6" transform="matrix(0.9997 -0.0249 0.0249 0.9997 -10.5525 5.1507)" class="st4" width="1.41" height="1.41"/>
			<polygon class="st4" points="197.97,425.73 199.38,425.67 199.43,427.08 198.02,427.14 			"/>
			<polygon class="st4" points="200.73,422.8 202.14,422.76 202.18,424.17 200.77,424.21 			"/>
			<polygon class="st4" points="197.93,422.85 199.34,422.82 199.38,424.23 197.97,424.26 			"/>
		</g>
		<g>
			<polygon class="st4" points="186.77,390.73 188.32,389.44 189.58,390.99 188.03,392.25 			"/>
			<polygon class="st4" points="189.58,390.98 191.13,389.73 192.39,391.28 190.84,392.53 			"/>
			<polygon class="st4" points="186.49,393.59 188.02,392.34 189.29,393.87 187.74,395.13 			"/>
			<polygon class="st4" points="186.99,387.94 188.52,386.67 189.79,388.2 188.25,389.47 			"/>
			<polygon class="st4" points="183.96,390.45 185.51,389.19 186.77,390.74 185.24,392 			"/>
		</g>
		<g>
			<polygon class="st4" points="331.08,454.72 331.35,453.55 332.55,453.83 332.24,455.02 			"/>
			<polygon class="st4" points="331.86,456.22 332.16,455.03 333.36,455.33 333.06,456.51 			"/>
			<polygon class="st4" points="329.52,455.61 329.81,454.43 330.99,454.71 330.72,455.9 			"/>
			<polygon class="st4" points="332.5,453.82 332.77,452.65 333.96,452.93 333.67,454.12 			"/>
			<polygon class="st4" points="330.07,453.24 330.38,452.04 331.54,452.35 331.27,453.54 			"/>
		</g>
		<g>
			<polygon class="st4" points="394.86,404.36 395.95,402.99 397.31,404.1 396.23,405.44 			"/>
			<polygon class="st4" points="397.35,404.13 398.46,402.76 399.8,403.84 398.72,405.21 			"/>
			<polygon class="st4" points="395.15,406.83 396.23,405.48 397.6,406.58 396.5,407.91 			"/>
			<polygon class="st4" points="394.66,401.93 395.75,400.59 397.11,401.68 396.03,403.03 			"/>
			<polygon class="st4" points="392.49,404.59 393.57,403.25 394.92,404.33 393.82,405.69 			"/>
		</g>
		<g>
			<polygon class="st4" points="429.85,295.84 430.02,290.66 435.23,290.82 435.07,296.01 			"/>
			<polygon class="st4" points="427.71,297.88 427.76,295.79 429.84,295.84 429.79,297.93 			"/>
			<polygon class="st4" points="434.97,298.06 435.05,295.97 437.11,296.06 437.05,298.11 			"/>
			<polygon class="st4" points="435.22,290.81 435.28,288.73 437.37,288.78 437.28,290.86 			"/>
			<polygon class="st4" points="427.93,290.55 428,288.5 430.07,288.55 430.01,290.64 			"/>
		</g>
		<g>
			<polygon class="st4" points="450.73,217.73 453.95,213.64 458.03,216.87 454.81,220.97 			"/>
			<polygon class="st4" points="447.9,218.1 449.19,216.48 450.81,217.76 449.54,219.4 			"/>
			<polygon class="st4" points="453.65,222.64 454.96,221 456.58,222.3 455.29,223.91 			"/>
			<polygon class="st4" points="458.15,216.88 459.43,215.26 461.07,216.55 459.77,218.18 			"/>
			<polygon class="st4" points="452.4,212.36 453.7,210.72 455.33,212.01 454.04,213.64 			"/>
		</g>
		<g>
			<polygon class="st4" points="356.85,126.61 362.07,126.59 362.09,131.8 356.87,131.82 			"/>
			<polygon class="st4" points="354.83,131.84 356.88,131.83 356.89,133.91 354.83,133.92 			"/>
			<polygon class="st4" points="362.1,131.79 364.19,131.78 364.19,133.86 362.11,133.87 			"/>
			
				<rect x="362.08" y="124.5" transform="matrix(1 -4.199926e-03 4.199926e-03 1 -0.5241 1.5262)" class="st4" width="2.09" height="2.08"/>
			<polygon class="st4" points="354.8,124.54 356.86,124.53 356.87,126.6 354.82,126.62 			"/>
		</g>
		<g>
			<polygon class="st4" points="373.71,70.41 377.55,66.89 381.08,70.72 377.24,74.24 			"/>
			<polygon class="st4" points="375.69,75.68 377.23,74.27 378.64,75.8 377.1,77.21 			"/>
			<polygon class="st4" points="381.06,70.71 382.56,69.3 383.97,70.83 382.46,72.23 			"/>
			<polygon class="st4" points="376.13,65.36 377.63,63.95 379.04,65.48 377.54,66.89 			"/>
			<polygon class="st4" points="370.78,70.28 372.32,68.88 373.73,70.41 372.19,71.82 			"/>
		</g>
		<g>
			<polygon class="st4" points="311.34,94.11 316.36,92.76 317.73,97.79 312.68,99.14 			"/>
			<polygon class="st4" points="310.7,99.68 312.69,99.14 313.23,101.16 311.24,101.69 			"/>
			<polygon class="st4" points="317.73,97.77 319.72,97.24 320.26,99.24 318.27,99.79 			"/>
			<polygon class="st4" points="315.85,90.78 317.88,90.24 318.42,92.24 316.39,92.79 			"/>
			<polygon class="st4" points="308.8,92.64 310.83,92.1 311.37,94.11 309.34,94.65 			"/>
		</g>
		<g>
			
				<rect x="195.49" y="76.31" transform="matrix(0.8982 -0.4396 0.4396 0.8982 -14.5224 95.1167)" class="st4" width="5.21" height="5.21"/>
			<polygon class="st4" points="195.07,83.38 196.94,82.46 197.85,84.34 195.99,85.25 			"/>
			<polygon class="st4" points="201.56,80.16 203.45,79.25 204.35,81.11 202.49,82.02 			"/>
			<polygon class="st4" points="198.4,73.61 200.28,72.69 201.19,74.56 199.32,75.48 			"/>
			<polygon class="st4" points="191.86,76.8 193.72,75.88 194.65,77.75 192.76,78.67 			"/>
		</g>
		<g>
			<polygon class="st4" points="152.34,130.8 154.12,126.72 158.2,128.51 156.41,132.58 			"/>
			<polygon class="st4" points="150.02,131.7 150.72,130.07 152.35,130.79 151.64,132.4 			"/>
			
				<rect x="155.99" y="132.86" transform="matrix(0.3997 -0.9167 0.9167 0.3997 -28.4262 224.1043)" class="st4" width="1.78" height="1.78"/>
			<polygon class="st4" points="158.18,128.51 158.89,126.88 160.52,127.59 159.81,129.22 			"/>
			
				<rect x="152.81" y="124.66" transform="matrix(0.4002 -0.9164 0.9164 0.4002 -22.8667 216.1446)" class="st4" width="1.77" height="1.77"/>
		</g>
		<g>
			<polygon class="st4" points="109.01,251.68 115.54,249.7 117.51,256.24 110.98,258.18 			"/>
			<polygon class="st4" points="108.35,259 110.95,258.23 111.73,260.8 109.13,261.61 			"/>
			<polygon class="st4" points="117.52,256.24 120.12,255.46 120.91,258.07 118.31,258.83 			"/>
			<polygon class="st4" points="114.75,247.11 117.35,246.32 118.14,248.92 115.53,249.7 			"/>
			
				<rect x="105.92" y="249.41" transform="matrix(0.9573 -0.2891 0.2891 0.9573 -67.9183 41.7236)" class="st4" width="2.72" height="2.73"/>
		</g>
		<g>
			<polygon class="st4" points="37.44,263.25 42.32,261.45 44.13,266.34 39.25,268.14 			"/>
			
				<rect x="37.58" y="268.42" transform="matrix(0.9383 -0.3458 0.3458 0.9383 -90.7966 29.9786)" class="st4" width="2.08" height="2.08"/>
			<polygon class="st4" points="44.09,266.33 46.03,265.57 46.76,267.56 44.8,268.28 			"/>
			<polygon class="st4" points="41.58,259.49 43.52,258.78 44.25,260.73 42.3,261.44 			"/>
			
				<rect x="35.04" y="261.57" transform="matrix(0.9384 -0.3457 0.3457 0.9384 -88.5557 28.6602)" class="st4" width="2.08" height="2.08"/>
		</g>
		<g>
			
				<rect x="146.74" y="387.47" transform="matrix(0.0309 -0.9995 0.9995 0.0309 -245.1844 528.2818)" class="st4" width="6.21" height="6.23"/>
			<polygon class="st4" points="144.13,396.08 144.21,393.6 146.68,393.67 146.61,396.16 			"/>
			<polygon class="st4" points="152.81,396.29 152.89,393.81 155.36,393.91 155.28,396.39 			"/>
			<polygon class="st4" points="153.06,387.58 153.14,385.11 155.62,385.17 155.54,387.65 			"/>
			<polygon class="st4" points="144.39,387.29 144.47,384.82 146.94,384.9 146.87,387.38 			"/>
		</g>
		<g>
			<polygon class="st4" points="121.04,427.66 124.65,423.89 128.41,427.52 124.8,431.26 			"/>
			<polygon class="st4" points="123.32,432.73 124.76,431.25 126.26,432.69 124.82,434.19 			"/>
			<polygon class="st4" points="128.37,427.47 129.82,425.97 131.32,427.41 129.87,428.92 			"/>
			<polygon class="st4" points="123.05,422.41 124.49,420.9 125.99,422.33 124.55,423.85 			"/>
			<polygon class="st4" points="118.05,427.65 119.49,426.15 121,427.58 119.55,429.09 			"/>
		</g>
		<g>
			<polygon class="st4" points="183.58,450.45 185.63,446 190.1,448.05 188.05,452.53 			"/>
			<polygon class="st4" points="180.93,451.37 181.75,449.59 183.52,450.43 182.71,452.2 			"/>
			<polygon class="st4" points="187.22,454.28 188.05,452.49 189.83,453.3 189.02,455.1 			"/>
			<polygon class="st4" points="190.06,448 190.88,446.23 192.66,447.06 191.84,448.84 			"/>
			<polygon class="st4" points="183.81,445.14 184.64,443.36 186.42,444.17 185.6,445.97 			"/>
		</g>
		<g>
			<polygon class="st4" points="349.36,457.35 349.49,452.51 354.36,452.66 354.2,457.51 			"/>
			<polygon class="st4" points="347.34,459.21 347.43,457.28 349.35,457.33 349.28,459.26 			"/>
			<polygon class="st4" points="354.16,459.43 354.21,457.49 356.14,457.56 356.09,459.48 			"/>
			<polygon class="st4" points="354.37,452.65 354.42,450.72 356.36,450.78 356.3,452.71 			"/>
			<polygon class="st4" points="347.59,452.41 347.65,450.48 349.58,450.55 349.51,452.48 			"/>
		</g>
		<g>
			<polygon class="st4" points="316.75,427.75 319.99,427.26 320.44,430.49 317.24,430.95 			"/>
			
				<rect x="316.03" y="431.01" transform="matrix(0.9895 -0.1442 0.1442 0.9895 -58.9372 50.1781)" class="st4" width="1.28" height="1.28"/>
			<polygon class="st4" points="320.41,430.41 321.68,430.22 321.87,431.51 320.6,431.71 			"/>
			
				<rect x="319.91" y="425.88" transform="matrix(0.9893 -0.1456 0.1456 0.9893 -58.6883 51.2202)" class="st4" width="1.28" height="1.28"/>
			
				<rect x="315.42" y="426.51" transform="matrix(0.9896 -0.1436 0.1436 0.9896 -58.0658 49.8177)" class="st4" width="1.32" height="1.3"/>
		</g>
		<g>
			<polygon class="st4" points="392.7,422.62 397.77,421.4 398.98,426.48 393.91,427.68 			"/>
			<polygon class="st4" points="391.87,428.21 393.91,427.73 394.38,429.74 392.36,430.23 			"/>
			<polygon class="st4" points="398.93,426.37 400.97,425.9 401.46,427.92 399.42,428.42 			"/>
			<polygon class="st4" points="397.21,419.36 399.23,418.89 399.72,420.9 397.68,421.4 			"/>
			<polygon class="st4" points="390.22,420.93 392.22,420.46 392.72,422.48 390.7,422.97 			"/>
		</g>
		<g>
			<polygon class="st4" points="355.91,381.92 360.64,377.29 365.24,382.02 360.52,386.62 			"/>
			<polygon class="st4" points="352.21,381.82 354.07,379.99 355.92,381.86 354.03,383.71 			"/>
			<polygon class="st4" points="358.65,388.49 360.54,386.63 362.4,388.52 360.5,390.37 			"/>
			<polygon class="st4" points="365.29,382.03 367.18,380.2 369,382.08 367.15,383.92 			"/>
			<polygon class="st4" points="358.81,375.42 360.7,373.57 362.55,375.46 360.67,377.28 			"/>
		</g>
		<g>
			<polygon class="st4" points="75.63,230.59 78.74,228.35 81,231.46 77.87,233.72 			"/>
			<polygon class="st4" points="73.47,230.25 74.72,229.35 75.62,230.59 74.37,231.49 			"/>
			<polygon class="st4" points="76.61,234.59 77.86,233.68 78.76,234.92 77.51,235.84 			"/>
			<polygon class="st4" points="80.99,231.47 82.24,230.57 83.14,231.82 81.89,232.71 			"/>
			<polygon class="st4" points="77.86,227.1 79.1,226.2 80,227.44 78.75,228.36 			"/>
		</g>
	</g>
</g>
</svg>
