<?xml version="1.0" encoding="utf-8"?>
<!-- Generator: Adobe Illustrator 23.0.6, SVG Export Plug-In . SVG Version: 6.00 Build 0)  -->
<svg version="1.1"
	 id="undead_players" xmlns:cc="http://creativecommons.org/ns#" xmlns:dc="http://purl.org/dc/elements/1.1/" xmlns:inkscape="http://www.inkscape.org/namespaces/inkscape" xmlns:rdf="http://www.w3.org/1999/02/22-rdf-syntax-ns#" xmlns:sodipodi="http://sodipodi.sourceforge.net/DTD/sodipodi-0.dtd" xmlns:svg="http://www.w3.org/2000/svg"
	 xmlns="http://www.w3.org/2000/svg" xmlns:xlink="http://www.w3.org/1999/xlink" x="0px" y="0px" viewBox="0 0 512 512"
	 style="enable-background:new 0 0 512 512;" xml:space="preserve">
<style type="text/css">
	.st0{fill:#FFFFFF;}
	.st1{fill:#4AA0C7;}
	.st2{fill:#A1CEE2;}
</style>
<rect class="st0" width="512" height="512"/>
<g>
	<g id="Icon">
		<g id="layer3_1_" inkscape:groupmode="layer" inkscape:label="Layer 2">
			<g id="g4701" transform="matrix(1.2062044,0,0,1.2062044,-102.75989,2.2195706)">
				<rect id="rect4162" x="165.78" y="22.68" class="st1" width="263.3" height="36.79"/>
				<rect id="rect4175" x="187.67" y="30.61" class="st0" width="3.12" height="18.08"/>
				<rect id="rect4175-8" x="199.72" y="30.58" class="st0" width="3.11" height="18.1"/>
				<rect id="rect4175-8-7" x="190.78" y="48.68" class="st0" width="8.94" height="3.11"/>
				<rect id="rect4175-8-7-6" x="205.73" y="36.49" class="st0" width="12.22" height="3.11"/>
				<rect id="rect4175-8-1" x="205.73" y="36.6" class="st0" width="3.11" height="15.13"/>
				<rect id="rect4175-8-1-4" x="217.95" y="39.58" class="st0" width="3.11" height="12.1"/>
				<rect id="rect4175-8-1-4-7" x="223.82" y="39.58" class="st0" width="3.11" height="9.09"/>
				<path id="rect4175-8-1-4-0" inkscape:connector-curvature="0" sodipodi:nodetypes="cccccccccccc" class="st0" d="M235.91,30.5
					h3.12v21.12h-3.09l-9.02,0.01v-2.97h9v-6.01l-2.94,0.01v-3.08l2.94,0.01L235.91,30.5z"/>
				<rect id="rect4175-8-1-4-8" x="226.93" y="36.47" class="st0" width="6.05" height="3.12"/>
				<rect id="rect4175-8-1-4-7-7" x="278.18" y="39.53" class="st0" width="3.12" height="9.1"/>
				<path id="rect4175-8-1-4-0-2" inkscape:connector-curvature="0" sodipodi:nodetypes="cccccccccccc" class="st0" d="
					M290.28,30.46h3.12v21.12h-3.08l-9.01,0.01v-2.97h9v-6.01l-2.94,0.01v-3.08l2.94,0.01L290.28,30.46z"/>
				<rect id="rect4175-8-1-4-8-7" x="281.3" y="36.42" class="st0" width="6.06" height="3.11"/>
				<rect id="rect4175-8-1-4-8-9" x="245.02" y="36.45" class="st0" width="9.08" height="3.12"/>
				<rect id="rect4175-8-1-4-8-4" x="263.11" y="36.52" class="st0" width="9.18" height="3.12"/>
				<rect id="rect4175-8-1-4-8-73" x="260.08" y="45.6" class="st0" width="3.14" height="3.04"/>
				<rect id="rect4175-8-1-4-8-2" x="244.99" y="48.59" class="st0" width="12.18" height="3.11"/>
				<path id="rect4175-8-1-4-1" inkscape:connector-curvature="0" sodipodi:nodetypes="ccccccccccc" class="st0" d="M241.9,39.56
					h3.11v2.9l9.06,0.02l0.01-2.92l3.07-0.01l-0.01,6.11l-12.1,0.01l-0.03,2.92h-3.11L241.9,39.56L241.9,39.56z"/>
				<path id="rect4175-8-1-4-1-9" inkscape:connector-curvature="0" sodipodi:nodetypes="cccccccccccc" class="st0" d="M275.3,39.48
					h-3.12v2.91h-8.96v3.22l8.94-0.02l0.03,3.06l-8.97-0.01v3.12h12.08l-0.02-3.04L275.3,39.48z"/>
				<rect id="rect4175-8-1-4-8-4-4" x="341.75" y="36.45" class="st0" width="9.17" height="3.12"/>
				<rect id="rect4175-8-1-4-8-73-5" x="338.7" y="45.54" class="st0" width="3.13" height="3.04"/>
				<path id="rect4175-8-1-4-1-9-05" inkscape:connector-curvature="0" sodipodi:nodetypes="cccccccccccc" class="st0" d="
					M353.92,39.41h-3.12v2.91h-8.97l0.01,3.22l8.95-0.02l0.02,3.06l-8.98-0.01v3.12h12.09l-0.01-3.04L353.92,39.41z"/>
				<rect id="rect4175-8-1-4-8-9-0" x="378.11" y="36.3" class="st0" width="9.09" height="3.11"/>
				<rect id="rect4175-8-1-4-8-2-3" x="378.1" y="48.45" class="st0" width="12.19" height="3.11"/>
				<path id="rect4175-8-1-4-1-98" inkscape:connector-curvature="0" sodipodi:nodetypes="ccccccccccc" class="st0" d="
					M375.01,39.41h3.1v2.91l9.08,0.01l0.01-2.92l3.07-0.01l-0.02,6.12l-12.08,0.01l-0.05,2.92h-3.09L375.01,39.41
					C375.02,39.41,375.01,39.41,375.01,39.41z"/>
				<rect id="rect4175-8-1-0" x="311.69" y="30.46" class="st0" width="3.12" height="21.19"/>
				<rect id="rect4175-8-1-0-8" x="329.75" y="30.47" class="st0" width="3.1" height="18.21"/>
				<rect id="rect4175-8-1-0-9" x="369.07" y="36.53" class="st0" width="3.12" height="15.13"/>
				<rect id="rect4175-8-1-0-91" x="356.94" y="36.59" class="st0" width="3.12" height="9.12"/>
				<rect id="rect4175-8-1-0-91-6" x="360.05" y="45.67" class="st0" width="9.12" height="3.12"/>
				<rect id="rect4175-8-1-0-91-9" x="356.94" y="51.66" class="st0" width="12.13" height="3.11"/>
				<rect id="rect4175-8-1-0-8-8" x="393.08" y="36.42" class="st0" width="3.12" height="15.15"/>
				<rect id="rect4175-8-1-0-8-1" x="394.66" y="39.48" class="st0" width="4.62" height="3.11"/>
				<rect id="rect4175-8-1-0-8-2" x="399.26" y="36.39" class="st0" width="5.96" height="3.11"/>
				<rect id="rect4175-8-1-0-8-2-0" x="405.21" y="39.48" class="st0" width="3.13" height="3.11"/>
				<rect id="rect4175-8-1-0-8-2-0-3" x="332.83" y="48.66" class="st0" width="3.13" height="3.12"/>
				<rect id="rect4175-8-1-0-8-2-0-38" x="323.8" y="33.51" class="st0" width="3.13" height="3.11"/>
				<rect id="rect4175-8-1-0-8-2-0-5" x="314.27" y="30.47" class="st0" width="9.53" height="3.04"/>
				<rect id="rect4175-8-1-0-8-2-0-5-1" x="314.27" y="36.6" class="st0" width="9.53" height="3.04"/>
			</g>
		</g>
	</g>
	<g>
		<polyline class="st2" points="334.86,195.78 334.67,210.66 327.3,212.1 287.59,241.94 275.99,245.18 260.77,250.34 242.31,244.02 
			239.55,241.45 223.87,229.44 221.6,225.24 210.66,221.86 210.68,166.98 221.46,166.57 298.7,173.47 332.77,179.5 		"/>
		<polygon class="st1" points="269.71,103.42 193.73,121.28 194.05,177.4 203.96,180.77 204.06,174.96 210.66,173.43 210.66,167.89 
			224.34,171.57 224.5,200.12 245.22,206.34 245.77,177.51 267.37,183.41 267.21,197.97 278.7,201.59 315.96,188.69 315.77,202.72 
			334.81,196.1 334.78,200.12 350.09,203.68 353.35,120.11 		"/>
		<polyline class="st2" points="139.41,266.29 143.21,291.4 175.98,303.38 212.21,275.52 215.95,278.16 232.64,267.55 
			223.96,227.64 221.96,225.91 210.61,222.22 210.74,213.68 198.06,209.66 178.88,216.14 		"/>
		<polyline class="st1" points="115.23,113.24 123.08,114.84 143.32,123.09 140.79,133.33 147.09,135.71 144.74,145.94 
			150.62,148.19 148.27,158.74 154.8,160.81 152.16,171.04 158.21,173.41 155.65,183.47 161.96,185.47 159.35,194.97 165.61,197.11 
			163.01,206.85 173.47,210.01 175.67,200.06 194.53,205.66 189.4,224.33 183.64,223.23 178.95,241.82 173.37,241.1 170.45,249.91 
			160,257.64 156.03,257.57 153.86,267.32 141.32,264.72 138.69,274.53 125.33,272.37 118.66,269.48 124.13,249.41 130.79,250.92 
			133.07,240.8 139.13,242.83 141.59,233.21 135.47,231.16 138.23,221.14 131.52,218.94 134.29,209.98 127.53,207.56 129.93,197.85 
			123.46,195.66 126.07,185.58 119.68,183.45 122.69,172.87 115.29,170.26 118.05,160.56 111.15,158.3 114.43,147.83 107.1,144.76 
					"/>
		<polyline class="st1" points="210.65,183.24 181.88,202.66 192.41,213.92 198.01,210.59 210.74,214.16 		"/>
		<g>
			<path class="st1" d="M367.92,221.02l-42.32-12.69l-40.76,25.84l-0.24,2.27l-2.21,1.31l-5.65,3.05l-15.2-4.78l-0.25,11.34
				l-20.43-7.1l-0.03-9.47l-30.18-10l-0.04,1.97l11.22,3.62l-0.94,43.3l-8.67,5.84l0.11,38.85l7.09,2.53l0.06,4.38l0.9,0.5
				l-0.2,21.08l1.11,0.43l0.87,48.13l-6.38,3.07l0.13,54.13l73.48,37.8l38.39-26.63l1.55-54.83l-6.74-2.75l2.11-73.49l7.77-4.17
				l0.96-15.01l39.83-25.05L367.92,221.02z M259.01,335.56l-31.8-13.81l-7.28-43.55l62.16-33.67l10.79,3.37l10-6.05l18.55,5.82
				l5.09,46.35L259.01,335.56z"/>
			<polygon class="st2" points="302.89,241.84 292.89,247.9 282.09,244.53 219.93,278.2 227.21,321.75 259.01,335.56 326.52,294.02 
				321.43,247.66 			"/>
		</g>
		<polyline class="st1" points="222.73,226.26 210.61,222.22 210.6,222.99 222.72,226.86 		"/>
		<polyline class="st0" points="267.28,193.61 251.6,189.79 251.45,200.88 268.86,205.99 268.93,198.52 267.21,197.97 		"/>
		<polyline class="st0" points="224.39,182.09 218.37,180.47 218.63,191.55 224.46,193.34 		"/>
	</g>
</g>
</svg>
