<?xml version="1.0" encoding="utf-8"?>
<!-- Generator: Adobe Illustrator 23.0.6, SVG Export Plug-In . SVG Version: 6.00 Build 0)  -->
<svg version="1.1" id="disassemblers" xmlns="http://www.w3.org/2000/svg" xmlns:xlink="http://www.w3.org/1999/xlink" x="0px"
	 y="0px" viewBox="0 0 512 512" style="enable-background:new 0 0 512 512;" xml:space="preserve">
<style type="text/css">
	.st0{fill:#FFFFFF;}
	.st1{fill:#A1CEE2;}
	.st2{fill:#7FBCD7;}
	.st3{fill:#3D83A3;}
</style>
<rect class="st0" width="512" height="512"/>
<polyline class="st1" points="185.27,364.81 92.18,338.2 157.22,292.81 110.44,215.01 214.28,229.58 253.68,160.61 299.61,232.27 
	390.97,209.42 350.93,296.96 420.85,336.64 326.16,364.81 "/>
<polyline class="st0" points="197.77,373.09 135.98,333.91 180,297.27 150.8,241.43 224.25,248.83 254.54,201.74 290.39,253.04 
	353.01,241.43 330.03,300.32 376.99,333.91 321.83,367.49 298.63,365.54 346.73,333.91 312.52,303.38 335.15,255.8 287.51,266.56 
	255.88,223.11 230,266.95 173.44,256.56 200.26,300.32 158.03,332.29 211.09,365.54 "/>
<g>
	<g>
		<polygon class="st2" points="57.84,333.39 56.5,339.41 62.19,340.67 67.87,341.92 69.2,335.9 63.52,334.64 		"/>
		<polygon class="st2" points="76.21,331.13 70.53,329.87 69.2,335.9 74.88,337.15 80.56,338.41 86.24,339.67 87.57,333.64 
			81.89,332.38 		"/>
		
			<rect x="52.56" y="326.84" transform="matrix(0.2158 -0.9764 0.9764 0.2158 -278.344 312.9151)" class="st2" width="6.17" height="5.82"/>
		<polygon class="st2" points="94.59,328.87 88.91,327.61 87.57,333.64 93.26,334.89 98.94,336.15 104.62,337.4 105.95,331.38 
			100.27,330.12 		"/>
		
			<rect x="48.2" y="319.55" transform="matrix(0.2158 -0.9764 0.9764 0.2158 -274.6424 302.9519)" class="st2" width="6.17" height="5.82"/>
		<polygon class="st2" points="112.96,326.6 107.28,325.35 105.95,331.38 111.63,332.63 117.31,333.89 118.65,327.86 		"/>
		
			<rect x="43.85" y="312.26" transform="matrix(0.2158 -0.9764 0.9764 0.2158 -270.9363 292.9861)" class="st2" width="6.17" height="5.82"/>
	</g>
	<polygon class="st3" points="124.33,329.12 125.66,323.09 119.98,321.83 121.31,315.81 115.63,314.55 116.96,308.52 111.28,307.27 
		112.61,301.24 106.93,299.98 101.25,298.73 99.92,304.76 94.24,303.5 88.55,302.24 82.87,300.99 81.54,307.02 75.86,305.76 
		70.18,304.5 64.5,303.25 63.16,309.27 57.48,308.02 51.8,306.77 46.12,305.51 44.79,311.54 50.47,312.79 49.14,318.82 
		54.82,320.08 53.49,326.1 59.17,327.36 57.84,333.39 63.52,334.64 69.2,335.9 70.53,329.87 76.21,331.13 81.89,332.38 
		87.57,333.64 88.91,327.61 94.59,328.87 100.27,330.12 105.95,331.38 107.28,325.35 112.96,326.6 118.65,327.86 117.31,333.89 
		111.63,332.63 105.95,331.38 104.62,337.4 98.94,336.15 93.26,334.89 87.57,333.64 86.24,339.67 80.56,338.41 74.88,337.15 
		69.2,335.9 67.87,341.92 62.19,340.67 56.5,339.41 57.84,333.39 52.15,332.13 53.49,326.1 47.8,324.85 49.14,318.82 43.46,317.57 
		44.79,311.54 39.11,310.28 37.77,316.31 36.44,322.34 35.11,328.37 33.78,334.39 32.45,340.42 38.13,341.67 36.8,347.7 
		42.48,348.96 41.14,354.98 46.83,356.24 45.49,362.27 51.17,363.52 56.86,364.78 62.54,366.04 68.22,367.29 69.55,361.26 
		75.23,362.52 80.91,363.77 86.6,365.03 87.93,359 93.61,360.26 99.29,361.51 104.97,362.77 106.3,356.74 111.99,358 117.67,359.25 
		119,353.23 124.68,354.48 126.01,348.45 127.34,342.43 128.68,336.4 130.01,330.37 	"/>
</g>
<g>
	<g>
		<polygon class="st2" points="83.71,194.81 78.46,198.06 81.53,203.01 84.6,207.95 89.84,204.7 86.78,199.75 		"/>
		<polygon class="st2" points="98.16,206.39 95.09,201.44 89.84,204.7 92.91,209.64 95.98,214.58 99.05,219.53 104.29,216.27 
			101.22,211.33 		"/>
		
			<rect x="81.72" y="187.8" transform="matrix(0.8497 -0.5273 0.5273 0.8497 -87.8126 73.384)" class="st2" width="6.17" height="5.82"/>
		<polygon class="st2" points="112.61,217.96 109.54,213.02 104.29,216.27 107.36,221.22 110.43,226.16 113.5,231.11 118.74,227.85 
			115.67,222.91 		"/>
		
			<rect x="83.88" y="179.61" transform="matrix(0.8497 -0.5273 0.5273 0.8497 -83.1708 73.2929)" class="st2" width="6.17" height="5.82"/>
		<polygon class="st2" points="127.05,229.54 123.99,224.6 118.74,227.85 121.81,232.8 124.88,237.74 130.12,234.48 		"/>
		
			<rect x="86.07" y="171.4" transform="matrix(0.8497 -0.5273 0.5273 0.8497 -78.5126 73.2144)" class="st2" width="6.17" height="5.82"/>
	</g>
	<polygon class="st3" points="133.19,239.43 138.44,236.17 135.37,231.23 140.61,227.98 137.55,223.03 142.79,219.78 139.72,214.83 
		144.97,211.58 141.9,206.63 138.83,201.69 133.59,204.94 130.52,200 127.45,195.06 124.38,190.11 119.14,193.37 116.07,188.42 
		113,183.48 109.94,178.53 104.69,181.79 101.62,176.85 98.55,171.9 95.49,166.96 90.24,170.21 93.31,175.16 88.06,178.41 
		91.13,183.35 85.88,186.61 88.95,191.55 83.71,194.81 86.78,199.75 89.84,204.7 95.09,201.44 98.16,206.39 101.22,211.33 
		104.29,216.27 109.54,213.02 112.61,217.96 115.67,222.91 118.74,227.85 123.99,224.6 127.05,229.54 130.12,234.48 124.88,237.74 
		121.81,232.8 118.74,227.85 113.5,231.11 110.43,226.16 107.36,221.22 104.29,216.27 99.05,219.53 95.98,214.58 92.91,209.64 
		89.84,204.7 84.6,207.95 81.53,203.01 78.46,198.06 83.71,194.81 80.64,189.86 85.88,186.61 82.82,181.67 88.06,178.41 85,173.47 
		90.24,170.21 87.17,165.27 81.93,168.52 76.68,171.78 71.44,175.03 66.19,178.29 60.95,181.54 64.01,186.48 58.77,189.74 
		61.84,194.68 56.59,197.94 59.66,202.88 54.41,206.14 57.48,211.08 60.55,216.03 63.62,220.97 66.69,225.91 71.93,222.66 75,227.6 
		78.07,232.55 81.13,237.49 86.38,234.24 89.45,239.18 92.51,244.12 95.58,249.07 100.83,245.81 103.9,250.76 106.96,255.7 
		112.21,252.45 115.28,257.39 120.52,254.14 125.77,250.88 131.01,247.63 136.26,244.37 	"/>
</g>
<g>
	<g>
		<polygon class="st2" points="259.62,130.33 253.74,128.45 251.97,134 250.21,139.54 256.09,141.41 257.85,135.87 		"/>
		<polygon class="st2" points="260.2,148.83 261.97,143.29 256.09,141.41 254.32,146.96 252.55,152.5 250.79,158.04 256.67,159.92 
			258.43,154.37 		"/>
		
			<rect x="260.54" y="125.4" transform="matrix(0.3036 -0.9528 0.9528 0.3036 61.042 340.4923)" class="st2" width="5.82" height="6.17"/>
		<polygon class="st2" points="260.78,167.34 262.55,161.79 256.67,159.92 254.9,165.46 253.13,171.01 251.37,176.55 257.25,178.43 
			259.02,172.88 		"/>
		
			<rect x="268.17" y="121.75" transform="matrix(0.3035 -0.9528 0.9528 0.3035 69.862 345.2431)" class="st2" width="5.82" height="6.17"/>
		<polygon class="st2" points="261.36,185.84 263.13,180.3 257.25,178.43 255.48,183.97 253.72,189.51 259.59,191.39 		"/>
		
			<rect x="275.83" y="118.07" transform="matrix(0.3038 -0.9527 0.9527 0.3038 78.631 349.9083)" class="st2" width="5.82" height="6.17"/>
	</g>
	<polygon class="st3" points="257.83,196.93 263.71,198.81 265.48,193.26 271.36,195.14 273.13,189.59 279.01,191.47 280.77,185.92 
		286.65,187.8 288.42,182.26 290.19,176.71 284.31,174.84 286.07,169.29 287.84,163.75 289.61,158.21 283.73,156.33 285.49,150.79 
		287.26,145.24 289.03,139.7 283.15,137.83 284.91,132.28 286.68,126.74 288.45,121.19 282.57,119.32 280.8,124.86 274.92,122.99 
		273.15,128.53 267.27,126.66 265.5,132.2 259.62,130.33 257.85,135.87 256.09,141.41 261.97,143.29 260.2,148.83 258.43,154.37 
		256.67,159.92 262.55,161.79 260.78,167.34 259.02,172.88 257.25,178.43 263.13,180.3 261.36,185.84 259.59,191.39 253.72,189.51 
		255.48,183.97 257.25,178.43 251.37,176.55 253.13,171.01 254.9,165.46 256.67,159.92 250.79,158.04 252.55,152.5 254.32,146.96 
		256.09,141.41 250.21,139.54 251.97,134 253.74,128.45 259.62,130.33 261.39,124.78 267.27,126.66 269.04,121.11 274.92,122.99 
		276.69,117.44 282.57,119.32 284.34,113.78 278.45,111.9 272.57,110.03 266.69,108.15 260.81,106.28 254.93,104.4 253.16,109.95 
		247.28,108.07 245.51,113.61 239.63,111.74 237.86,117.28 231.98,115.41 230.22,120.95 228.45,126.49 226.68,132.04 224.91,137.58 
		230.8,139.46 229.03,145 227.26,150.54 225.49,156.09 231.37,157.96 229.61,163.51 227.84,169.05 226.07,174.59 231.95,176.47 
		230.19,182.01 228.42,187.56 234.3,189.43 232.53,194.98 238.41,196.85 244.3,198.73 250.18,200.6 256.06,202.47 	"/>
</g>
<g>
	<g>
		<polygon class="st2" points="386.36,221.53 387.93,227.5 393.56,226.02 399.18,224.55 397.62,218.58 391.99,220.05 		"/>
		<polygon class="st2" points="401.69,211.14 396.06,212.61 397.62,218.58 403.25,217.11 408.88,215.64 414.51,214.16 
			412.95,208.19 407.32,209.66 		"/>
		
			<rect x="379.88" y="216.19" transform="matrix(0.9675 -0.253 0.253 0.9675 -43.0231 103.977)" class="st2" width="5.82" height="6.17"/>
		<polygon class="st2" points="417.01,200.75 411.38,202.22 412.95,208.19 418.58,206.72 424.2,205.25 429.83,203.78 428.27,197.8 
			422.64,199.27 		"/>
		
			<rect x="372.66" y="211.69" transform="matrix(0.9674 -0.2532 0.2532 0.9674 -42.1431 102.0932)" class="st2" width="5.82" height="6.17"/>
		<polygon class="st2" points="432.34,190.36 426.71,191.83 428.27,197.8 433.9,196.33 439.53,194.86 437.97,188.89 		"/>
		
			<rect x="365.5" y="207.19" transform="matrix(0.9675 -0.253 0.253 0.9675 -41.2139 100.0461)" class="st2" width="5.82" height="6.17"/>
	</g>
	<polygon class="st3" points="443.6,187.41 442.04,181.44 436.41,182.91 434.85,176.94 429.22,178.41 427.65,172.44 422.02,173.91 
		420.46,167.94 414.83,169.41 409.2,170.89 410.77,176.86 405.14,178.33 399.51,179.8 393.88,181.28 395.44,187.25 389.81,188.72 
		384.18,190.19 378.55,191.66 380.12,197.64 374.49,199.11 368.86,200.58 363.23,202.05 364.79,208.03 370.42,206.55 371.98,212.53 
		377.61,211.05 379.17,217.03 384.8,215.55 386.36,221.53 391.99,220.05 397.62,218.58 396.06,212.61 401.69,211.14 407.32,209.66 
		412.95,208.19 411.38,202.22 417.01,200.75 422.64,199.27 428.27,197.8 426.71,191.83 432.34,190.36 437.97,188.89 439.53,194.86 
		433.9,196.33 428.27,197.8 429.83,203.78 424.2,205.25 418.58,206.72 412.95,208.19 414.51,214.16 408.88,215.64 403.25,217.11 
		397.62,218.58 399.18,224.55 393.56,226.02 387.93,227.5 386.36,221.53 380.73,223 379.17,217.03 373.54,218.5 371.98,212.53 
		366.35,214 364.79,208.03 359.16,209.5 360.72,215.47 362.29,221.44 363.85,227.42 365.41,233.39 366.97,239.36 372.6,237.89 
		374.16,243.86 379.79,242.39 381.35,248.36 386.98,246.89 388.54,252.86 394.17,251.39 399.8,249.91 405.43,248.44 411.06,246.97 
		409.5,241 415.13,239.53 420.76,238.05 426.39,236.58 424.82,230.61 430.45,229.14 436.08,227.66 441.71,226.19 440.15,220.22 
		445.78,218.75 451.41,217.27 449.85,211.3 455.48,209.83 453.91,203.86 452.35,197.89 450.79,191.91 449.23,185.94 	"/>
</g>
<g>
	<g>
		<polygon class="st2" points="409.16,329.79 406.75,335.48 412.11,337.74 417.47,340.01 419.87,334.32 414.52,332.06 		"/>
		<polygon class="st2" points="427.64,330.91 422.28,328.64 419.87,334.32 425.23,336.59 430.59,338.86 435.95,341.13 
			438.35,335.44 433,333.17 		"/>
		
			<rect x="404.58" y="322.92" transform="matrix(0.3897 -0.9209 0.9209 0.3897 -51.2769 574.2883)" class="st2" width="6.17" height="5.82"/>
		<polygon class="st2" points="446.12,332.02 440.76,329.75 438.35,335.44 443.71,337.71 449.07,339.97 454.43,342.24 
			456.84,336.55 451.48,334.29 		"/>
		
			<rect x="401.65" y="314.95" transform="matrix(0.3896 -0.921 0.921 0.3896 -45.6914 566.7796)" class="st2" width="6.17" height="5.82"/>
		<polygon class="st2" points="464.6,333.14 459.24,330.87 456.84,336.55 462.2,338.82 467.55,341.09 469.96,335.4 		"/>
		
			<rect x="398.66" y="307" transform="matrix(0.3898 -0.9209 0.9209 0.3898 -40.2509 559.079)" class="st2" width="6.17" height="5.82"/>
	</g>
	<polygon class="st3" points="475.32,337.67 477.72,331.98 472.36,329.72 474.77,324.03 469.41,321.76 471.81,316.08 466.46,313.82 
		468.86,308.13 463.5,305.86 458.14,303.6 455.74,309.28 450.38,307.01 445.02,304.75 439.66,302.48 437.26,308.16 431.9,305.9 
		426.54,303.63 421.18,301.36 418.78,307.05 413.42,304.78 408.06,302.52 402.7,300.25 400.29,305.94 405.65,308.2 403.25,313.89 
		408.61,316.15 406.2,321.84 411.56,324.11 409.16,329.79 414.52,332.06 419.87,334.32 422.28,328.64 427.64,330.91 433,333.17 
		438.35,335.44 440.76,329.75 446.12,332.02 451.48,334.29 456.84,336.55 459.24,330.87 464.6,333.14 469.96,335.4 467.55,341.09 
		462.2,338.82 456.84,336.55 454.43,342.24 449.07,339.97 443.71,337.71 438.35,335.44 435.95,341.13 430.59,338.86 425.23,336.59 
		419.87,334.32 417.47,340.01 412.11,337.74 406.75,335.48 409.16,329.79 403.8,327.52 406.2,321.84 400.84,319.57 403.25,313.89 
		397.89,311.62 400.29,305.94 394.94,303.67 392.53,309.35 390.13,315.04 387.72,320.72 385.32,326.41 382.91,332.09 388.27,334.36 
		385.86,340.05 391.22,342.31 388.82,348 394.18,350.27 391.77,355.95 397.13,358.22 402.49,360.48 407.85,362.75 413.21,365.02 
		415.61,359.33 420.97,361.6 426.33,363.87 431.69,366.13 434.09,360.45 439.45,362.71 444.81,364.98 450.17,367.25 452.57,361.56 
		457.93,363.83 463.29,366.1 465.7,360.41 471.06,362.68 473.46,356.99 475.87,351.31 478.27,345.62 480.68,339.94 	"/>
</g>
<g>
	<polygon class="st3" points="282.54,383.69 282.54,373.8 282.54,363.9 282.54,353.99 273.63,353.99 273.63,344.1 264.72,344.1 
		255.81,344.1 246.9,344.1 237.99,344.1 237.99,353.99 229.08,353.99 229.08,363.9 229.08,373.8 229.08,383.69 220.17,383.69 
		220.17,393.59 229.08,393.59 237.99,393.59 237.99,383.69 246.9,383.69 255.81,383.69 264.72,383.69 273.63,383.69 273.63,393.59 
		282.54,393.59 291.45,393.59 291.45,383.69 	"/>
	<polygon class="st3" points="291.45,324.3 291.45,334.2 291.45,344.1 291.45,353.99 291.45,363.9 291.45,373.8 291.45,383.69 
		300.36,383.69 300.36,373.8 300.36,363.9 300.36,353.99 300.36,344.1 300.36,334.2 300.36,324.3 	"/>
	<polygon class="st3" points="211.26,324.3 211.26,334.2 211.26,344.1 211.26,353.99 211.26,363.9 211.26,373.8 211.26,383.69 
		220.17,383.69 220.17,373.8 220.17,363.9 220.17,353.99 220.17,344.1 220.17,334.2 220.17,324.3 	"/>
	<rect x="282.54" y="314.4" class="st3" width="8.91" height="9.9"/>
	<polygon class="st2" points="282.54,324.3 282.54,314.4 273.63,314.4 264.72,314.4 255.81,314.4 246.9,314.4 237.99,314.4 
		229.08,314.4 229.08,324.3 220.17,324.3 220.17,334.2 220.17,344.1 220.17,353.99 220.17,363.9 220.17,373.8 220.17,383.69 
		229.08,383.69 229.08,373.8 229.08,363.9 229.08,353.99 237.99,353.99 237.99,344.1 246.9,344.1 255.81,344.1 264.72,344.1 
		273.63,344.1 273.63,353.99 282.54,353.99 282.54,363.9 282.54,373.8 282.54,383.69 291.45,383.69 291.45,373.8 291.45,363.9 
		291.45,353.99 291.45,344.1 291.45,334.2 291.45,324.3 	"/>
	<rect x="220.17" y="314.4" class="st3" width="8.91" height="9.9"/>
	<polygon class="st3" points="273.63,304.5 264.72,304.5 255.81,304.5 246.9,304.5 237.99,304.5 229.08,304.5 229.08,314.4 
		237.99,314.4 246.9,314.4 255.81,314.4 264.72,314.4 273.63,314.4 282.54,314.4 282.54,304.5 	"/>
</g>
</svg>
