<?xml version="1.0" encoding="utf-8"?>
<!-- Generator: Adobe Illustrator 23.0.6, SVG Export Plug-In . SVG Version: 6.00 Build 0)  -->
<svg version="1.1" id="tunnel_bores" xmlns="http://www.w3.org/2000/svg" xmlns:xlink="http://www.w3.org/1999/xlink" x="0px"
	 y="0px" viewBox="0 0 512 512" style="enable-background:new 0 0 512 512;" xml:space="preserve">
<style type="text/css">
	.st0{fill:#FFFFFF;}
	.st1{fill:#A1CEE2;}
	.st2{fill:#7FBCD7;}
	.st3{fill:#3D83A3;}
	.st4{fill:#4AA0C7;}
	.st5{fill:none;}
</style>
<rect class="st0" width="511.74" height="512"/>
<g>
	<g id="Icon">
		<rect x="295.06" y="225.79" class="st1" width="116.75" height="84.03"/>
		<rect x="243.48" y="225.79" class="st2" width="116.75" height="84.03"/>
		<rect x="213.5" y="283.51" class="st1" width="232.93" height="124.29"/>
		<rect x="163.12" y="283.51" class="st2" width="232.93" height="124.29"/>
		<rect x="146.69" y="225.79" class="st2" width="135.32" height="84.03"/>
		<rect x="187.75" y="225.79" class="st3" width="116.75" height="84.03"/>
		<rect x="107.39" y="283.51" class="st4" width="232.93" height="124.29"/>
		<g id="Pickaxe">
			<g>
				<rect x="234.96" y="316.14" class="st3" width="8.73" height="6.4"/>
				<rect x="205.23" y="309.86" class="st3" width="32.04" height="19.23"/>
				<rect x="186.01" y="329.08" class="st3" width="19.22" height="32.05"/>
				<rect x="192.41" y="316.26" class="st3" width="25.64" height="25.65"/>
				<rect x="192.41" y="359.62" class="st3" width="6.41" height="7.93"/>
				<rect x="211.63" y="335.49" class="st3" width="12.81" height="12.83"/>
				<rect x="218.04" y="341.92" class="st3" width="12.81" height="12.83"/>
				<rect x="224.46" y="348.33" class="st3" width="12.82" height="12.83"/>
				<rect x="230.86" y="354.74" class="st3" width="12.82" height="12.83"/>
				<rect x="237.28" y="361.15" class="st3" width="12.81" height="12.83"/>
				<rect x="243.67" y="367.61" class="st3" width="12.82" height="12.83"/>
				<rect x="250.1" y="374.11" class="st3" width="12.81" height="12.82"/>
			</g>
		</g>
	</g>
	<polygon class="st3" points="180.62,407.8 178,407.8 175.37,407.8 172.76,407.8 170.13,407.8 167.5,407.8 164.89,407.8 
		162.27,407.8 159.65,407.8 157.02,407.8 154.4,407.8 151.77,407.8 149.15,407.8 149.15,410.42 149.15,413.05 151.77,413.05 
		154.4,413.05 154.4,415.67 154.4,418.3 157.02,418.3 159.65,418.3 159.65,418.3 162.27,418.3 164.89,418.3 167.5,418.3 
		170.13,418.3 172.76,418.3 172.76,418.3 175.37,418.3 178,418.3 178,415.67 178,413.05 180.62,413.05 183.25,413.05 183.25,410.42 
		183.25,407.8 	"/>
	<polygon class="st1" points="286.44,407.8 283.83,407.8 281.21,407.8 278.59,407.8 275.96,407.8 273.33,407.8 270.71,407.8 
		268.09,407.8 265.48,407.8 262.85,407.8 260.23,407.8 257.6,407.8 254.98,407.8 254.98,410.42 254.98,413.05 257.6,413.05 
		260.23,413.05 260.23,415.67 260.23,418.3 262.85,418.3 265.48,418.3 265.48,418.3 268.09,418.3 270.71,418.3 273.33,418.3 
		275.96,418.3 278.59,418.3 278.59,418.3 281.21,418.3 283.83,418.3 283.83,415.67 283.83,413.05 286.44,413.05 289.07,413.05 
		289.07,410.42 289.07,407.8 	"/>
	<polygon class="st3" points="302.04,407.8 299.41,407.8 296.79,407.8 294.17,407.8 291.55,407.8 288.92,407.8 286.3,407.8 
		283.68,407.8 281.06,407.8 278.44,407.8 275.82,407.8 273.18,407.8 270.56,407.8 270.56,410.42 270.56,413.05 273.18,413.05 
		275.82,413.05 275.82,415.67 275.82,418.3 278.44,418.3 281.06,418.3 281.06,418.3 283.68,418.3 286.3,418.3 288.92,418.3 
		291.55,418.3 294.17,418.3 294.17,418.3 296.79,418.3 299.41,418.3 299.41,415.67 299.41,413.05 302.04,413.05 304.67,413.05 
		304.67,410.42 304.67,407.8 	"/>
	<polygon class="st2" points="236.35,407.8 233.73,407.8 231.1,407.8 228.49,407.8 225.86,407.8 223.23,407.8 220.61,407.8 
		218,407.8 215.37,407.8 212.75,407.8 210.13,407.8 207.5,407.8 204.89,407.8 204.89,410.42 204.89,413.05 207.5,413.05 
		210.13,413.05 210.13,415.67 210.13,418.3 212.75,418.3 215.37,418.3 215.37,418.3 218,418.3 220.61,418.3 223.23,418.3 
		225.86,418.3 228.49,418.3 228.49,418.3 231.1,418.3 233.73,418.3 233.73,415.67 233.73,413.05 236.35,413.05 238.97,413.05 
		238.97,410.42 238.97,407.8 	"/>
	<polygon class="st2" points="357.76,407.8 355.14,407.8 352.52,407.8 349.9,407.8 347.28,407.8 344.64,407.8 342.03,407.8 
		339.41,407.8 336.79,407.8 334.17,407.8 331.55,407.8 328.91,407.8 326.29,407.8 326.29,410.42 326.29,413.05 328.91,413.05 
		331.55,413.05 331.55,415.67 331.55,418.3 334.17,418.3 336.79,418.3 336.79,418.3 339.41,418.3 342.03,418.3 344.64,418.3 
		347.28,418.3 349.9,418.3 349.9,418.3 352.52,418.3 355.14,418.3 355.14,415.67 355.14,413.05 357.76,413.05 360.39,413.05 
		360.39,410.42 360.39,407.8 	"/>
	<polygon class="st1" points="407.86,407.8 405.23,407.8 402.62,407.8 400,407.8 397.38,407.8 394.75,407.8 392.12,407.8 
		389.5,407.8 386.88,407.8 384.26,407.8 381.65,407.8 379.02,407.8 376.4,407.8 376.4,410.42 376.4,413.05 379.02,413.05 
		381.65,413.05 381.65,415.67 381.65,418.3 384.26,418.3 386.88,418.3 386.88,418.3 389.5,418.3 392.12,418.3 394.75,418.3 
		397.38,418.3 400,418.3 400,418.3 402.62,418.3 405.23,418.3 405.23,415.67 405.23,413.05 407.86,413.05 410.49,413.05 
		410.49,410.42 410.49,407.8 	"/>
	<g>
		<rect x="133.26" y="433.42" class="st4" width="34.78" height="19.34"/>
		<rect x="212.51" y="433.42" class="st4" width="34.77" height="19.34"/>
		<rect x="295.2" y="433.8" class="st4" width="34.8" height="19.33"/>
		<rect x="374.05" y="433.8" class="st4" width="34.79" height="19.33"/>
		<rect x="453.27" y="433.8" class="st4" width="34.8" height="19.33"/>
		<rect x="133.26" y="426.08" class="st3" width="34.78" height="19.32"/>
		<rect x="212.51" y="426.08" class="st3" width="34.77" height="19.32"/>
		<rect x="295.2" y="426.08" class="st3" width="34.8" height="19.32"/>
		<rect x="374.05" y="426.08" class="st3" width="34.79" height="19.32"/>
		<rect x="453.27" y="426.08" class="st3" width="34.8" height="19.32"/>
	</g>
	<rect x="284.82" y="195.87" class="st3" width="18.13" height="18.14"/>
	<rect x="107.39" y="180.24" class="st3" width="18.13" height="18.14"/>
	<rect x="103.66" y="258.74" class="st3" width="18.13" height="18.14"/>
	<rect x="140.09" y="300.76" class="st3" width="18.13" height="18.14"/>
	<rect x="137.62" y="240.61" class="st3" width="18.13" height="18.14"/>
	<rect x="196.17" y="203.4" class="st3" width="13.11" height="13.11"/>
	<rect x="115.23" y="218.68" class="st3" width="13.1" height="13.12"/>
	<rect x="148.09" y="189.32" class="st3" width="13.1" height="13.12"/>
	<rect x="190.15" y="149.76" class="st3" width="13.1" height="13.12"/>
	<rect x="205.08" y="176.2" class="st3" width="6.56" height="6.56"/>
	<rect x="267.9" y="303.27" class="st3" width="6.56" height="6.56"/>
	<rect x="205.23" y="290.01" class="st3" width="6.56" height="6.56"/>
	<rect x="133.53" y="334.35" class="st3" width="6.55" height="6.55"/>
	<rect x="168.04" y="264.52" class="st3" width="6.56" height="6.56"/>
	<rect x="246.79" y="176.2" class="st3" width="6.56" height="6.56"/>
	<rect x="136.81" y="149.76" class="st3" width="6.56" height="6.56"/>
	<rect x="235.08" y="214.29" class="st3" width="6.56" height="6.56"/>
	<rect x="83.4" y="310.27" class="st3" width="18.13" height="18.13"/>
</g>
<g>
	<path class="st5" d="M497.36,14.93c0.24,0.24,0.47,0.5,0.71,0.75C497.83,15.43,497.6,15.17,497.36,14.93z"/>
	<path class="st5" d="M499.02,16.67c0.1,0.11,0.19,0.23,0.3,0.34C499.21,16.9,499.12,16.78,499.02,16.67z"/>
	<path class="st5" d="M495.62,13.27c0.34,0.31,0.66,0.63,0.99,0.94C496.28,13.9,495.96,13.58,495.62,13.27z"/>
	<path class="st5" d="M462,0.27c12.78,0,24.44,4.8,33.28,12.7C486.43,5.08,474.78,0.27,462,0.27z"/>
	<path class="st5" d="M512,452.76V50.31c0-12.79-4.8-24.45-12.69-33.3c-0.1-0.11-0.2-0.23-0.3-0.34c-0.31-0.34-0.63-0.66-0.95-0.99
		c-0.24-0.25-0.47-0.5-0.71-0.75c-0.24-0.24-0.5-0.47-0.75-0.71c-0.33-0.32-0.65-0.64-0.99-0.94c-0.11-0.1-0.23-0.2-0.34-0.3
		c-8.85-7.9-20.5-12.7-33.28-12.7H92.46v452.48H512L512,452.76z"/>
	<path class="st4" d="M495.28,12.97c0.11,0.1,0.23,0.2,0.34,0.3C495.51,13.17,495.39,13.07,495.28,12.97z"/>
	<path class="st4" d="M497.36,14.93"/>
</g>
<polyline class="st2" points="215.37,407.8 183.25,407.8 183.25,413.05 178,413.05 178,418.3 214.18,418.4 "/>
<polyline class="st2" points="336.75,407.8 304.62,407.8 304.62,413.05 299.38,413.05 299.38,418.3 335.56,418.4 "/>
<polyline class="st1" points="257.6,407.8 238.97,407.8 238.97,413.05 233.73,413.05 233.73,418.3 266.86,418.4 "/>
<polyline class="st1" points="379.12,407.8 360.49,407.8 360.49,413.05 355.24,413.05 355.24,418.3 388.37,418.4 "/>
<g>
	<rect x="92.33" y="418.33" class="st4" width="419.41" height="19.33"/>
</g>
<path class="st1" d="M92.2,452.5V0H73.17H50H0v50.03v28.64v351.81v22.01v9.48V512h49.89c0.04,0,0.08,0,0.12,0h365.02h46.71h50
	v-50.02v-0.01v-9.1v-0.39L92.2,452.5L92.2,452.5z"/>
</svg>
