<?xml version="1.0" encoding="utf-8"?>
<!-- Generator: Adobe Illustrator 23.0.6, SVG Export Plug-In . SVG Version: 6.00 Build 0)  -->
<svg version="1.1" id="podzol_rooting_soil" xmlns="http://www.w3.org/2000/svg" xmlns:xlink="http://www.w3.org/1999/xlink"
	 x="0px" y="0px" viewBox="0 0 512 512" style="enable-background:new 0 0 512 512;" xml:space="preserve">
<style type="text/css">
	.st0{fill:#FFFFFF;}
	.st1{fill:#4AA0C7;}
	.st2{fill:#3D83A3;}
	.st3{fill:#387895;}
	.st4{fill:#7FBCD7;}
	.st5{fill:#A1CEE2;}
</style>
<rect x="0" y="0" class="st0" width="512" height="512"/>
<g id="Icon">
	<g id="Sapling">
		<rect x="172.44" y="261.35" class="st1" width="146.21" height="41.76"/>
		<rect x="172.44" y="261.35" class="st2" width="20.9" height="20.9"/>
		<rect x="193.34" y="156.92" class="st2" width="20.88" height="41.77"/>
		<rect x="193.83" y="303.11" class="st1" width="145.72" height="20.9"/>
		<rect x="214.22" y="177.8" class="st1" width="20.9" height="167.11"/>
		<rect x="256" y="303.11" class="st1" width="20.9" height="41.8"/>
		<rect x="297.75" y="177.8" class="st1" width="20.9" height="167.11"/>
		<rect x="276.89" y="136.03" class="st1" width="20.86" height="187.99"/>
		<rect x="339.55" y="282.26" class="st1" width="20.88" height="20.86"/>
		<rect x="276.89" y="240.46" class="st1" width="62.66" height="41.8"/>
		<rect x="214.22" y="240.46" class="st1" width="41.78" height="20.9"/>
		<rect x="211.23" y="116.13" class="st1" width="41.78" height="207.88"/>
		<rect x="151.56" y="282.26" class="st1" width="83.56" height="20.86"/>
		<rect x="172.44" y="198.7" class="st1" width="146.21" height="41.76"/>
		<rect x="235.12" y="156.92" class="st1" width="62.64" height="83.54"/>
		<rect x="276.89" y="136.03" class="st1" width="41.76" height="41.77"/>
		<rect x="256" y="115.14" class="st1" width="41.76" height="20.89"/>
		<rect x="276.89" y="115.14" class="st1" width="20.86" height="41.78"/>
		<rect x="193.34" y="115.14" class="st1" width="83.56" height="231.25"/>
		<rect x="235.12" y="52.48" class="st1" width="20.88" height="20.89"/>
		<rect x="214.22" y="73.36" class="st1" width="41.78" height="83.56"/>
		<rect x="193.34" y="115.14" class="st1" width="41.78" height="41.78"/>
		<rect x="172.44" y="136.03" class="st1" width="20.9" height="20.89"/>
		<rect x="193.34" y="177.8" class="st1" width="125.32" height="62.66"/>
		<rect x="276.89" y="177.8" class="st1" width="41.76" height="146.21"/>
		<rect x="256" y="219.58" class="st2" width="62.66" height="20.88"/>
		<rect x="256" y="177.8" class="st2" width="20.9" height="62.66"/>
		<rect x="256" y="219.58" class="st2" width="41.76" height="41.78"/>
		<rect x="235.12" y="198.7" class="st2" width="41.78" height="20.88"/>
		<rect x="235.12" y="156.92" class="st2" width="20.88" height="20.88"/>
		<rect x="214.22" y="136.03" class="st2" width="41.78" height="41.77"/>
		<rect x="193.34" y="282.26" class="st2" width="83.56" height="20.86"/>
		<rect x="235.12" y="303.11" class="st2" width="62.64" height="20.9"/>
		<rect x="256" y="303.11" class="st2" width="20.9" height="41.8"/>
		<rect x="151.56" y="282.26" class="st2" width="20.88" height="20.86"/>
		<rect x="297.75" y="324.01" class="st2" width="41.8" height="20.9"/>
		<rect x="172.44" y="136.03" class="st2" width="20.9" height="20.89"/>
		<rect x="276.89" y="136.03" class="st2" width="20.86" height="20.89"/>
		<rect x="318.65" y="177.8" class="st2" width="20.9" height="20.9"/>
		<rect x="235.12" y="73.36" class="st2" width="20.88" height="20.88"/>
		<rect x="235.12" y="292.68" class="st2" width="41.78" height="41.76"/>
		<rect x="235.12" y="324.01" class="st3" width="20.88" height="41.77"/>
		<rect x="235.12" y="261.35" class="st3" width="41.78" height="41.76"/>
		<rect x="256" y="240.46" class="st3" width="20.9" height="62.66"/>
		<rect x="235.12" y="136.03" class="st3" width="41.78" height="20.89"/>
		<rect x="235.12" y="344.91" class="st3" width="41.78" height="41.76"/>
		<rect x="235.12" y="73.36" class="st3" width="20.88" height="83.56"/>
		<rect x="193.34" y="156.92" class="st2" width="41.78" height="20.88"/>
		<rect x="297.75" y="156.92" class="st2" width="20.9" height="20.88"/>
		<rect x="193.34" y="240.46" class="st2" width="20.88" height="20.9"/>
	</g>
	<g id="Podzol">
		<rect x="88.9" y="365.78" class="st4" width="334.2" height="146.22"/>
		<rect x="88.9" y="365.78" class="st2" width="104.44" height="83.55"/>
		<rect x="297.75" y="365.78" class="st2" width="64.17" height="83.55"/>
		<rect x="88.9" y="365.78" class="st2" width="334.2" height="62.68"/>
		<rect x="151.56" y="365.78" class="st2" width="41.78" height="104.45"/>
		<rect x="361.93" y="365.78" class="st5" width="20.9" height="41.79"/>
		<rect x="382.82" y="407.57" class="st5" width="20.87" height="20.89"/>
		<rect x="297.75" y="365.78" class="st1" width="20.9" height="41.79"/>
		<rect x="276.89" y="365.78" class="st1" width="62.66" height="20.89"/>
		<rect x="256" y="407.57" class="st1" width="41.76" height="41.76"/>
		<rect x="130.67" y="407.57" class="st5" width="20.89" height="41.76"/>
		<rect x="151.56" y="386.67" class="st1" width="20.88" height="62.66"/>
		<rect x="172.44" y="365.78" class="st1" width="38.79" height="20.89"/>
		<rect x="318.65" y="365.78" class="st4" width="20.9" height="20.89"/>
		<rect x="193.34" y="407.57" class="st1" width="20.88" height="20.89"/>
		<rect x="256" y="407.57" class="st4" width="20.9" height="20.89"/>
		<rect x="256" y="428.45" class="st5" width="20.9" height="20.87"/>
		<rect x="88.9" y="386.67" class="st5" width="20.88" height="20.9"/>
		<rect x="109.78" y="407.57" class="st4" width="41.78" height="20.89"/>
	</g>
	<g id="Particles">
		<g id="Particle">
			<rect x="276.89" y="70.38" class="st5" width="41.76" height="5.96"/>
			<rect x="294.77" y="52.48" class="st5" width="5.97" height="41.77"/>
			<rect x="288.83" y="64.41" class="st5" width="17.88" height="17.91"/>
		</g>
		<g id="Particle_1_">
			<rect x="363.42" y="247.92" class="st5" width="41.77" height="5.97"/>
			<rect x="381.31" y="230.03" class="st5" width="5.97" height="41.76"/>
			<rect x="375.34" y="241.95" class="st5" width="17.91" height="17.89"/>
		</g>
		<g id="Particle_2_">
			<rect x="115.75" y="162.88" class="st5" width="41.78" height="5.97"/>
			<rect x="133.65" y="144.98" class="st5" width="5.96" height="41.78"/>
			<rect x="127.68" y="156.92" class="st5" width="17.91" height="17.89"/>
		</g>
		<g id="Particle_3_">
			<rect x="97.85" y="279.27" class="st5" width="41.77" height="5.97"/>
			<rect x="115.75" y="261.35" class="st5" width="5.97" height="41.76"/>
			<rect x="109.78" y="273.3" class="st5" width="17.9" height="17.87"/>
		</g>
	</g>
</g>
</svg>
