<?xml version="1.0" encoding="utf-8"?>
<!-- Generator: Adobe Illustrator 23.0.6, SVG Export Plug-In . SVG Version: 6.00 Build 0)  -->
<svg version="1.1"
	 id="holographic_tags" xmlns:cc="http://creativecommons.org/ns#" xmlns:dc="http://purl.org/dc/elements/1.1/" xmlns:inkscape="http://www.inkscape.org/namespaces/inkscape" xmlns:rdf="http://www.w3.org/1999/02/22-rdf-syntax-ns#" xmlns:sodipodi="http://sodipodi.sourceforge.net/DTD/sodipodi-0.dtd" xmlns:svg="http://www.w3.org/2000/svg"
	 xmlns="http://www.w3.org/2000/svg" xmlns:xlink="http://www.w3.org/1999/xlink" x="0px" y="0px" viewBox="0 0 512 512"
	 style="enable-background:new 0 0 512 512;" xml:space="preserve">
<style type="text/css">
	.st0{fill:#FFFFFF;}
	.st1{fill:#A1CEE2;}
	.st2{fill:#4AA0C7;}
	.st3{enable-background:new    ;}
	.st4{font-family:'ArialMT';}
	.st5{font-size:12.7948px;}
	.st6{fill:#3D83A3;}
	.st7{font-size:24.3506px;}
	.st8{fill:none;}
</style>
<rect class="st0" width="512" height="512"/>
<g>
	<g>
		<g>
			<rect class="st1" width="512" height="239.4"/>
		</g>
	</g>
</g>
<g>
	<polygon class="st1" points="270.88,235.79 244.46,235.79 108.89,512 403.16,512 	"/>
</g>
<g>
	<rect x="116.98" y="217.45" class="st2" width="287.32" height="52.86"/>
	<g class="st3">
		<path class="st0" d="M161.44,250.59v5.36h-5.36v5.36h-5.36v-37.54h5.36v26.81L161.44,250.59L161.44,250.59z M166.8,245.23v5.36
			h-5.36v-5.36H166.8z M177.53,223.78v37.54h-5.36v-5.36h-5.36v-5.36h5.36v-26.81L177.53,223.78L177.53,223.78z"/>
		<path class="st0" d="M209.7,239.86v10.73h-21.45v5.36h-5.36v-16.09h5.36v5.36h16.09v-5.36H209.7L209.7,239.86z M188.25,234.5
			h16.09v5.36h-16.09V234.5z M188.25,255.95h21.45v5.36h-21.45V255.95z"/>
		<path class="st0" d="M215.06,255.95v-32.18h5.36v32.18L215.06,255.95L215.06,255.95z M225.78,255.95v5.36h-5.36v-5.36H225.78
			L225.78,255.95z"/>
		<path class="st0" d="M236.51,239.86v16.09h-5.36v-16.09H236.51z M252.6,239.86h-16.09v-5.36h16.09V239.86z M236.51,255.95h16.09
			v5.36h-16.09V255.95z M252.6,245.23v-5.36h5.36v5.36H252.6z M257.96,255.95h-5.36v-5.36h5.36V255.95z"/>
		<path class="st0" d="M263.32,255.95v-16.09h5.36v16.09H263.32z M268.68,234.5h16.09v5.36h-16.09V234.5z M284.77,261.32h-16.09
			v-5.36h16.09V261.32z M290.13,239.86v16.09h-5.36v-16.09H290.13z"/>
		<path class="st0" d="M306.21,239.86h-5.36v21.45h-5.36V234.5h10.73L306.21,239.86L306.21,239.86z M311.58,239.86v10.73h-5.36
			v-10.73H311.58z M316.94,234.5v5.36h-5.36v-5.36H316.94z M322.3,239.86v21.45h-5.36v-21.45H322.3z"/>
		<path class="st0" d="M354.48,239.86v10.73h-21.45v5.36h-5.36v-16.09h5.36v5.36h16.09v-5.36H354.48L354.48,239.86z M333.03,234.5
			h16.09v5.36h-16.09V234.5z M333.03,255.95h21.45v5.36h-21.45V255.95z"/>
		<path class="st0" d="M365.2,223.78v26.81h-5.36v-26.81H365.2z M359.83,255.95h5.36v5.36h-5.36V255.95z"/>
	</g>
</g>
<g>
	<polygon class="st2" points="347.8,145.49 375.52,144.18 375.52,163.78 347.8,157.57 	"/>
	<g class="st3">
		<g>
			<path class="st0" d="M351.26,153.59v1.32l-0.41-0.06v1.31l-0.41-0.08V147h0.41v6.55L351.26,153.59z M351.68,152.31v1.34
				l-0.42-0.06v-1.32L351.68,152.31z M352.54,146.97v9.49l-0.43-0.08v-1.33l-0.43-0.07v-1.32l0.43,0.04v-6.71L352.54,146.97z"/>
			<path class="st0" d="M355.3,151.23v2.87l-1.88-0.23v1.37l-0.45-0.06v-4.1l0.45,0.02v1.38l1.37,0.13v-1.41L355.3,151.23z
				 M353.42,149.72l1.37,0.06v1.41l-1.37-0.1V149.72z M353.42,155.23l1.88,0.29v1.43l-1.88-0.34V155.23z"/>
			<path class="st0" d="M355.78,155.6v-8.66l0.49-0.01v8.74L355.78,155.6z M356.8,155.74v1.48l-0.53-0.1v-1.46L356.8,155.74z"/>
			<path class="st0" d="M358.37,152.96v1.52l-0.56-0.06v3.01l-0.51-0.1v-10.41l0.51-0.01v6L358.37,152.96z M358.92,153.02
				l-0.55-0.06v-1.52l0.55,0.05V153.02z M358.37,155.99v-1.51l0.56,0.07v1.53L358.37,155.99z M359.48,151.52l-0.54-0.03v-1.53
				l0.54,0.02V151.52z M358.92,157.6v-1.53l0.56,0.09v1.54L358.92,157.6z"/>
			<path class="st0" d="M360.07,156.25v-4.69l0.55,0.05v4.74L360.07,156.25z M360.62,150.02l1.85,0.08v1.63l-1.85-0.12V150.02z
				 M362.47,158.24l-1.85-0.33v-1.56l1.85,0.27V158.24z M363.11,151.77v4.94l-0.64-0.1v-4.88L363.11,151.77z"/>
			<path class="st0" d="M365.09,151.92l-0.67-0.06v6.74l-0.66-0.13v-8.32l1.34,0.06L365.09,151.92L365.09,151.92z M365.77,151.96
				v3.44l-0.68-0.09v-3.39L365.77,151.96z M366.49,150.28v1.75l-0.72-0.06v-1.72L366.49,150.28z M367.22,152.06v7.03l-0.73-0.13
				v-6.95L367.22,152.06z"/>
			<path class="st0" d="M368.72,146.77v9l-0.78-0.09v-8.9L368.72,146.77z M367.94,157.45l0.78,0.11v1.81l-0.78-0.15V157.45z"/>
		</g>
	</g>
</g>
<g>
	<rect x="172.9" y="147.03" class="st2" width="82.69" height="12.61"/>
	<text transform="matrix(1 0 0 1 181.6228 157.4983)" class="st0 st4 st5">Willkommen!</text>
</g>
<path class="st6" d="M297.71,305.71h-7.22v-6.72h-6.77h-13.94h-6.72v6.72h-6.74v12.94v1h-12.95v7.26h-7.24v7.22h-6.2v6.77h-7.76
	v6.72h-6.72v6.72h-7.26v7.23h-6.73v6.21h-6.2v20.71h6.2v6.72h6.73v6.22h20.7v-6.22h6.22v-6.72h7.25v-7.23h6.72v-6.74h6.72v-6.72
	h7.77v-7.23h6.22v-6.75h6.72h7.24v-7.24h6.75v-6.22v-1.04h7.22L297.71,305.71L297.71,305.71L297.71,305.71z M276.5,340.36v-6.22
	h-6.72v-7.22h-6.72v-7.26l0,0v-1h6.72v-6.22h13.94v27.93L276.5,340.36L276.5,340.36z"/>
<g>
	<polygon class="st2" points="362.68,116.57 461.14,84.39 461.14,132.4 362.68,137.9 	"/>
	<g>
		<g class="st3">
			<g>
				<path class="st0" d="M366.78,127.63v-9.11l0.72-0.21v9.19L366.78,127.63z M368.29,131.99l-0.78,0.09v-4.58l0.78-0.14V131.99z
					 M368.29,131.99l0.74-0.09v2.34l-0.74,0.08V131.99z M369.83,127.09v4.71l-0.8,0.1v-4.68L369.83,127.09z M370.64,117.41v9.53
					l-0.81,0.15v-9.45L370.64,117.41z"/>
				<path class="st0" d="M372.26,129.07v2.44l-0.84,0.1v-2.41L372.26,129.07z M374.85,123.69l-2.59,0.53v-2.42l2.59-0.61V123.69z
					 M375.74,123.51v10.08l-3.48,0.33v-2.42l2.59-0.32v-2.5l-2.59,0.38v-2.42l2.59-0.46v-2.5L375.74,123.51z"/>
				<path class="st0" d="M376.69,130.97v-15.3l0.92-0.26v15.44L376.69,130.97z M378.54,130.74v2.6l-0.93,0.08v-2.57L378.54,130.74z"
					/>
				<path class="st0" d="M381.52,125.02v2.67l-1.02,0.16v5.31l-0.97,0.1v-18.4l0.97-0.29v10.61L381.52,125.02z M382.57,124.83
					l-1.04,0.19v-2.68l1.04-0.21V124.83z M381.52,130.37v-2.68l1.04-0.15v2.71L381.52,130.37z M383.63,121.9l-1.06,0.22v-2.71
					l1.06-0.25V121.9z M382.57,132.95v-2.71l1.06-0.13v2.73L382.57,132.95z"/>
				<path class="st0" d="M384.71,129.99v-8.31l1.1-0.23v8.39L384.71,129.99z M385.8,118.66l3.46-0.81v2.89l-3.46,0.72V118.66z
					 M389.26,132.32l-3.45,0.33v-2.8l3.45-0.41V132.32z M390.46,120.5v8.78l-1.2,0.15v-8.68L390.46,120.5z"/>
				<path class="st0" d="M394.25,119.73l-1.29,0.25v11.98l-1.27,0.12v-14.81l2.56-0.58V119.73L394.25,119.73z M395.56,119.45v6.14
					l-1.32,0.2v-6.06L395.56,119.45z M396.91,116.07v3.11l-1.34,0.27v-3.06L396.91,116.07z M398.32,118.89v12.57l-1.41,0.14v-12.42
					L398.32,118.89z"/>
				<path class="st0" d="M402.68,118l-1.5,0.3v12.89l-1.47,0.13v-15.91l2.97-0.69V118L402.68,118z M404.21,117.69v6.61l-1.53,0.23
					v-6.52L404.21,117.69z M405.8,114.01v3.35l-1.58,0.32v-3.31L405.8,114.01z M407.41,117.04v13.57l-1.61,0.16v-13.4L407.41,117.04
					z"/>
				<path class="st0" d="M418.07,114.84v7.38l-7.29,1.09v3.48l-1.7,0.21v-10.31l1.7-0.36v3.49l5.41-0.96v-3.64L418.07,114.84z
					 M410.78,112.85l5.4-1.25v3.63l-5.4,1.11V112.85z M410.78,126.8l7.29-0.89v3.68l-7.29,0.69V126.8z"/>
				<path class="st0" d="M428.51,112.72l-6.43,1.31v15.19l-2.04,0.18v-18.71l8.48-1.96v3.99
					C428.52,112.72,428.51,112.72,428.51,112.72z M430.78,112.24v16.15l-2.27,0.22v-15.89L430.78,112.24z"/>
				<path class="st0" d="M435.55,98.77v20.84l-2.42,0.36V99.46L435.55,98.77z M433.14,124.07l2.42-0.3v4.18l-2.42,0.23V124.07z"/>
				<path class="st0" d="M440.68,97.3v21.54l-2.59,0.39V98.04L440.68,97.3z M438.08,123.46l2.59-0.32v4.31l-2.59,0.25V123.46z"/>
			</g>
		</g>
	</g>
	<polygon class="st0" points="373.1,119.21 372.24,119.43 372.24,116.95 373.1,116.71 	"/>
	<polygon class="st0" points="374.84,118.76 373.95,118.99 373.95,116.46 374.84,116.2 	"/>
</g>
<g>
	<rect x="197.03" y="166.65" class="st2" width="160.03" height="25.3"/>
	<g>
		<g>
			<text transform="matrix(1 0 0 1 207.6404 186.5266)" class="st0 st4 st7">Hosgeldiniz!</text>
		</g>
		<rect x="244.11" y="186.52" class="st0" width="2.49" height="2.49"/>
		<rect x="241.62" y="189.01" class="st0" width="2.49" height="2.49"/>
	</g>
</g>
<g>
	<polygon class="st2" points="64.8,71.96 153.68,111.65 153.68,129.02 64.8,114.2 	"/>
	<g>
		<g class="st3">
			<g>
				<path class="st0" d="M76.72,89.31v3.82l-2.19-0.72v-3.88L76.72,89.31z M76.72,104.61v3.81l-2.19-0.49v-3.88L76.72,104.61z
					 M76.72,85.49l8.15,3.15v3.6l-8.15-2.93V85.49z M76.72,93.13l6.2,2.06v3.65l-6.2-1.89V93.13z M82.92,113.46l-6.21-1.22v-3.82
					l6.21,1.38V113.46z M84.87,99.44v10.8l-1.94-0.43V98.84L84.87,99.44z"/>
				<path class="st0" d="M95.43,102.67v6.61l-6.85-1.71v3.5l-1.83-0.4v-10.66l1.83,0.56v3.5l5.2,1.44v-3.35L95.43,102.67z
					 M88.58,97.08l5.2,1.73v3.35l-5.2-1.59V97.08z M88.58,111.06l6.85,1.53v3.3l-6.85-1.33V111.06z"/>
				<path class="st0" d="M97.02,112.94V93.36l1.56,0.6v19.33L97.02,112.94z M100.1,113.62v3.19l-1.51-0.3v-3.23L100.1,113.62z"/>
				<path class="st0" d="M103.02,111.17v3.1l-1.45-0.32v-3.14L103.02,111.17z M107.12,106.23l-4.11-1.26v-3.1l4.11,1.37V106.23z
					 M108.43,106.62v11.81l-5.41-1.06v-3.1l4.11,0.92v-3l-4.11-1.03v-3.1l4.11,1.14v-2.98L108.43,106.62z"/>
				<path class="st0" d="M112.15,107.76l-1.21-0.37v11.53l-1.23-0.24V104.1l2.45,0.82L112.15,107.76L112.15,107.76z M113.34,108.13
					v5.63l-1.19-0.29v-5.7L113.34,108.13z M114.5,105.7v2.78l-1.16-0.36v-2.82L114.5,105.7z M115.64,108.83v11.01l-1.15-0.22v-11.14
					L115.64,108.83z"/>
				<path class="st0" d="M117.83,114.88v2.69l-1.08-0.25v-2.72L117.83,114.88z M120.95,110.45l-3.12-0.95v-2.69l3.12,1.04V110.45z
					 M121.94,110.75v10.31l-4.11-0.79v-2.69l3.12,0.68v-2.6l-3.12-0.77v-2.7l3.12,0.86v-2.6L121.94,110.75z"/>
				<path class="st0" d="M123.87,118.91v-7.58l-0.96-0.29v-2.55l0.96,0.32v-5.06l0.93,0.36v5l0.92,0.31v2.47l-0.92-0.27v7.5
					L123.87,118.91z M124.8,121.62v-2.5l0.92,0.21v2.48L124.8,121.62z"/>
				<path class="st0" d="M130.03,120.29v-7.08l0.81,0.26v7L130.03,120.29z M133.95,107.66v15.75l-3.11-0.61v-2.33l2.35,0.52v-4.54
					l-0.77-0.21v-2.29l0.77,0.24v-6.81L133.95,107.66z M130.84,113.47v-2.34l1.58,0.53v2.29L130.84,113.47z"/>
				<path class="st0" d="M135.42,119.28v2.21l-0.73-0.16v-2.23L135.42,119.28z M137.53,115.51l-2.1-0.64v-2.22l2.1,0.71V115.51z
					 M138.21,115.71v8.53l-2.79-0.54v-2.21l2.1,0.47v-2.15l-2.1-0.53v-2.21l2.1,0.59v-2.14L138.21,115.71z"/>
				<path class="st0" d="M139.53,122.4v-6.29l-0.65-0.2v-2.11l0.65,0.22v-4.2l0.64,0.25v4.16l0.64,0.21v2.06l-0.64-0.2v6.24
					L139.53,122.4z M140.18,124.62v-2.07l0.64,0.14v2.06L140.18,124.62z"/>
				<path class="st0" d="M142.04,120.93v2.03l-0.61-0.15v-2.05L142.04,120.93z M143.83,117.42l-1.79-0.54v-2.02l1.79,0.59V117.42z
					 M144.4,117.6v7.86l-2.36-0.47v-2.02l1.79,0.39v-1.98l-1.79-0.44v-2.03l1.79,0.5v-1.98L144.4,117.6z"/>
				<path class="st0" d="M147.13,118.44l-1.62-0.5v7.73l-0.55-0.11v-9.74l2.17,0.72V118.44L147.13,118.44z M147.65,118.59v7.49
					l-0.53-0.09v-7.55L147.65,118.59z"/>
				<path class="st0" d="M148.68,122.59l-0.51-0.13v-3.71l0.51,0.15V122.59z M150.15,128.38l-1.97-0.33v-1.87l1.97,0.39V128.38z
					 M150.64,126.66l-0.49-0.1v-1.8l-1.46-0.33v-1.84l1.46,0.38v-3.62l-1.46-0.45v-1.84l1.96,0.65L150.64,126.66L150.64,126.66z"/>
				<path class="st0" d="M151.56,114.48v8.83l-0.46-0.11v-8.89L151.56,114.48z M151.1,124.97l0.46,0.1v1.77l-0.46-0.09V124.97z"/>
			</g>
		</g>
	</g>
</g>
<g>
	<polygon class="st2" points="18.49,149.11 163.18,155.12 163.18,187.41 18.49,231.26 	"/>
	<g class="st3">
		<g>
			<path class="st0" d="M48.08,166.15v7.21l-3.89,0.28v-7.35L48.08,166.15z M48.08,180.57v28.85l-3.89,0.95v-29.39L48.08,180.57z"/>
			<path class="st0" d="M65.54,178.75l-10.1,1.06v20.86l10.1-2.1v6.6l-13.71,3.35v-49.57h13.71v6.6l-10.1,0.34v6.96l10.1-0.71
				V178.75z M65.54,172.15v-6.6l3.14-0.11v6.49L65.54,172.15z M68.68,178.42v19.48l-3.14,0.67v-19.82L68.68,178.42z"/>
			<path class="st0" d="M74.66,158.95v6.28l-2.94,0.1v-6.38H74.66z M74.66,171.51v31.42l-2.94,0.73v-31.94L74.66,171.51z"/>
			<path class="st0" d="M90.49,176.14v11.46l-10.23,1.79v6.08l-2.76,0.57V177.5l2.76-0.3v6.08l7.78-1.08v-5.81L90.49,176.14z
				 M80.26,171.13l7.78-0.54v5.8l-7.78,0.82V171.13z M80.26,195.47l10.23-2.15v5.73l-10.23,2.5
				C80.26,201.55,80.26,195.47,80.26,195.47z"/>
			<path class="st0" d="M101.7,174.97l-6.54,0.68v22.27l-2.3,0.56v-28.24l8.84-0.61V174.97L101.7,174.97z M103.76,174.75v21.06
				l-2.06,0.51v-21.36L103.76,174.75z"/>
			<path class="st0" d="M105.76,184.93v-15.59l1.95-0.13v15.37L105.76,184.93z M109.62,184.26v5.07l-1.9,0.4v-5.14L109.62,184.26z
				 M109.62,189.33l1.85-0.39v5.01l-1.85,0.45V189.33z M111.47,183.94l1.81-0.32v4.94l-1.81,0.37V183.94z M115.03,168.7v14.61
				l-1.75,0.3v-14.79L115.03,168.7z"/>
			<path class="st0" d="M124.74,172.57v9.06l-6.31,1.1v4.75l-1.68,0.35v-14.42l1.68-0.18v4.75l4.79-0.66v-4.59L124.74,172.57z
				 M118.42,168.47l4.8-0.33v4.58l-4.8,0.51V168.47z M118.42,187.48l6.32-1.32v4.53l-6.32,1.54V187.48z"/>
			<path class="st0" d="M131.85,171.82l-4.18,0.43v17.71l-1.44,0.35v-22.39l5.62-0.4V171.82z M133.18,171.69v16.95l-1.32,0.32
				v-17.14L133.18,171.69z"/>
			<path class="st0" d="M135.76,158.97v4.14l-1.28,0.05v-4.2L135.76,158.97z M135.76,167.27V188l-1.28,0.31v-20.95L135.76,167.27z"
				/>
			<path class="st0" d="M137,183.59v-12.31l1.23-0.13v12.18L137,183.59z M142.87,158.98v27.29l-4.64,1.12v-4.05l3.51-0.74v-7.88
				l-1.14,0.15v-3.96l1.14-0.13v-11.81L142.87,158.98L142.87,158.98z M138.23,171.16v-4.07l2.37-0.15v3.98L138.23,171.16z"/>
			<path class="st0" d="M143.97,182.13v-11.58l1.08-0.11v11.46L143.97,182.13z M145.05,166.63l3.12-0.22v3.7l-3.12,0.33V166.63z
				 M148.17,184.97l-3.12,0.76v-3.83l3.12-0.65V184.97z M149.16,170.01v11.03l-0.99,0.21v-11.13L149.16,170.01z"/>
			<path class="st0" d="M151.11,169.81v3.62l-0.97,0.13v-3.65L151.11,169.81z M153.9,183.57l-3.76,0.9v-3.64l3.76-0.79V183.57z
				 M151.11,166.2l3.68-0.25v3.48l-3.68,0.38V166.2z M151.11,173.42l2.79-0.4v3.52l-2.79,0.47V173.42z M153.9,180.05v-3.5l0.89-0.17
				v3.48L153.9,180.05z"/>
			<path class="st0" d="M156.53,158.98v17.1l-0.86,0.16v-17.25L156.53,158.98L156.53,158.98z M155.67,179.69l0.86-0.19v3.43
				l-0.86,0.21V179.69z"/>
		</g>
	</g>
</g>
<g>
	<polygon class="st2" points="386.72,162.43 494.18,164.68 494.18,226.61 386.72,187.34 	"/>
	<g class="st3">
		<g>
			<path class="st0" d="M393.89,174.19l-2.23-0.38v8.1l2.23,0.61v2.78l-2.92-0.92v-18.72l2.92,0.19v2.77l-2.23-0.22v2.7l2.23,0.29
				V174.19z M393.89,171.41v-2.77l0.79,0.07v2.81L393.89,171.41z M394.68,174.31v8.42l-0.79-0.21v-8.33L394.68,174.31z"/>
			<path class="st0" d="M399.66,175.15v5.95l-3.4-0.79v2.85l-0.78-0.22v-8.5l0.78,0.15v2.85l2.52,0.51v-2.96L399.66,175.15z
				 M396.26,171.72l2.53,0.33V175l-2.53-0.41V171.72z M396.26,183.16l3.4,0.93v2.97l-3.4-1.04V183.16z"/>
			<path class="st0" d="M402.4,175.6l-0.96-0.15v12.15l-0.9-0.27v-15.06l1.86,0.26V175.6L402.4,175.6z M403.33,175.76v6.22
				l-0.93-0.22v-6.15L403.33,175.76z M404.32,172.79v3.14l-0.99-0.17v-3.1L404.32,172.79z M405.29,176.1v12.69l-0.98-0.31v-12.56
				L405.29,176.1z"/>
			<path class="st0" d="M411.74,180.57l-5.42-1.09v-3.22l5.42,0.9V180.57z"/>
			<path class="st0" d="M412.88,184.24v-10.33l1.21,0.16v10.46L412.88,184.24z M415.31,184.81v3.53l-1.22-0.33v-3.48L415.31,184.81z
				 M415.31,188.34l1.23,0.34v3.57l-1.23-0.37V188.34z M416.55,185.11l1.28,0.31v3.6l-1.28-0.34V185.11z M419.14,174.74v10.99
				l-1.31-0.31v-10.85L419.14,174.74z"/>
			<path class="st0" d="M421.89,167.6v3.76l-1.38-0.15v-3.7L421.89,167.6z M421.89,175.1v18.78l-1.38-0.43v-18.53L421.89,175.1z"/>
			<path class="st0" d="M429.4,180.12l-4.65-0.77v15.41l-1.44-0.45v-19.03l6.09,0.81V180.12L429.4,180.12z M431,180.38v16.3
				l-1.6-0.49v-16.08L431,180.38z"/>
			<path class="st0" d="M432.69,193.07v-12.41l1.72,0.3v12.57L432.69,193.07z M441.82,168.83v31.18l-7.4-2.28v-4.2l5.47,1.5v-8.77
				l-1.86-0.39v-4.32l1.86,0.32v-13.16L441.82,168.83z M434.41,180.96v-4.2l3.6,0.47v4.32L434.41,180.96z"/>
			<path class="st0" d="M443.84,196.1v-13.58l2.06,0.34v13.8L443.84,196.1z M445.89,178.28l6.63,0.87v4.82l-6.63-1.11V178.28z
				 M452.52,203.28l-6.63-2.03v-4.59l6.63,1.8V203.28z M454.87,184.36v14.74l-2.34-0.64v-14.49L454.87,184.36z"/>
			<path class="st0" d="M459.82,185.2v5.08l-2.52-0.52v-4.99L459.82,185.2z M467.94,208.02l-10.64-3.26v-4.99l10.64,2.89V208.02z
				 M459.82,180.12l11.05,1.45v5.48l-11.05-1.84V180.12L459.82,180.12z M459.82,190.28l8.12,1.64v5.37l-8.12-1.93V190.28z
				 M467.94,202.65v-5.36l2.94,0.68v5.48L467.94,202.65z"/>
			<path class="st0" d="M477.03,171.02v28.43l-3.12-0.75v-27.87L477.03,171.02z M473.91,204.26l3.13,0.85v5.69l-3.13-0.97V204.26z"
				/>
		</g>
	</g>
</g>
<g>
	<g>
		<path class="st8" d="M51.98,509.01h407.25c27.3,0,49.45-22.17,49.45-49.46V52.3c0-27.31-22.16-49.46-49.45-49.46H51.98
			C24.66,2.84,2.52,24.99,2.52,52.3v407.24C2.52,486.84,24.66,509.01,51.98,509.01z"/>
	</g>
</g>
</svg>
