<?xml version="1.0" encoding="utf-8"?>
<!-- Generator: Adobe Illustrator 19.0.0, SVG Export Plug-In . SVG Version: 6.00 Build 0)  -->
<svg version="1.1" id="teleportation_anchors" xmlns="http://www.w3.org/2000/svg" xmlns:xlink="http://www.w3.org/1999/xlink" x="0px" y="0px"
	 viewBox="0 0 512 512" style="enable-background:new 0 0 512 512;" xml:space="preserve">
<style type="text/css">
	.st0{fill:#FFFFFF;}
	.st1{fill:#A1CDE1;}
	.st2{fill:#4AA0C7;}
	.st3{fill:#397895;}
</style>
<rect class="st0" width="512" height="512"/>
<g id="XMLID_1207_">
	<path id="XMLID_1377_" class="st1" d="M155.7,376c8.3-13.8,17.2-23.2,28.4-30.9c12.3-8.4,25.7-13.5,40.5-15.9
		c16.8-2.8,32.7-2.6,48.8,1.1c14.7,3.4,26.9,9.6,36,19.4c10.5,11.4,14.7,24.6,9.2,39.2c-6.1,16.3-22.3,26.7-46.9,27
		c-20.9,0.2-37.1-7.7-44.2-23.3c-3.3-7.4-2.6-14.7,3.3-21c3.5-3.8,8.1-6.5,14.3-6.8c1.4-0.1,3,0.1,4.3,0.5c2,0.5,2.5,1.9,1.6,3.3
		c-0.3,0.4-0.7,0.9-1.1,1.3c-6.7,6.9-4.2,14.9,6.8,19c10.5,3.9,24,2,31.1-4.9c9.8-9.4,9.9-19.4,2.8-29.1
		c-5.9-8.1-15.4-12.9-26.5-15.9c-6.6-1.9-13.4-2.5-20.6-2.3c-10.7,0.2-21,1.7-31.3,5.4c-12.9,4.7-23.5,11.6-32.1,21.2
		c-13.4,15.1-22.3,33.4-23.9,55.5c-0.6,8.6,0.5,17.2,0.9,26.9c0.1,1.8,0.2,3.5,0.1,5.4c0,0.6-0.6,1.4-0.9,2.2
		c-0.6,0-1.6,0.2-1.9-0.2c-1.8-2.2-3.8-4.1-5.1-6.6c-6.2-12.4-7.3-25.5-5.5-38.6C145.8,395.4,150.7,383.9,155.7,376z"/>
	<path id="XMLID_1375_" class="st1" d="M352.2,370c9.4,14.4,14.4,30.5,11.8,47.9c-4.1,27.3-24.7,46.1-59.2,53.8
		c-25.5,5.7-51.8,3.9-76.1-6.4c-30-12.8-46.2-33.5-47.4-59.1c-0.8-19.9,7.4-35.9,23.2-48.3c12.5-9.8,27-14.4,43.6-14.1
		c10.7,0.2,19.9,3.1,27.2,9c5,4,7.9,8.9,7.4,14.6c-0.3,4.7-3.2,8.6-8.8,11.3c-2.8,1.3-5.9,1.9-9.3,1.4c-4.1-0.6-5.3-2.7-3.2-5.3
		c1.1-1.6,2.4-3.1,3.1-4.8c1.1-2.8,0.3-5.5-2.2-7.8c-5.4-4.9-12.4-6.1-20.7-5.2c-9.9,1.1-17.3,5.5-22.8,12.1
		c-9.8,11.6-10.9,24.4-2.5,37.5c11.9,18.8,33.2,29.3,60.7,28.6c15.3-0.3,29.4-3.3,40.9-10.2c18.9-11.5,25.8-27.1,22.5-44.6
		c-3.2-17.2-12.3-30.7-26.4-41.7c-2.6-2-5.3-3.8-7.8-5.6c-0.5-0.3-0.9-0.7-1.3-1c-0.1-0.1-0.2-0.4-0.1-0.4c0.1-0.1,0.6-0.1,0.8,0
		c0.9,0.3,2,0.5,2.9,0.9c7.3,3,14,6.7,20.1,11.3c8.6,6.3,15.6,13.9,21.4,22.5C350.8,367.7,351.4,368.8,352.2,370z"/>
</g>
<g id="XMLID_2381_">
	<rect id="XMLID_2390_" x="212.2" y="302.2" class="st2" width="3.8" height="3.8"/>
	<rect id="XMLID_2389_" x="204.5" y="306.1" class="st2" width="3.8" height="3.8"/>
	<polygon id="XMLID_2388_" class="st2" points="220,313.8 223.8,313.8 223.8,309.9 227.6,309.9 227.6,306.1 223.8,306.1 220,306.1 
		216.1,306.1 216.1,309.9 220,309.9 	"/>
	<rect id="XMLID_2387_" x="200.6" y="313.8" class="st2" width="3.8" height="3.8"/>
	<polygon id="XMLID_2386_" class="st2" points="227.6,317.6 231.6,317.6 231.6,313.8 227.6,313.8 223.8,313.8 223.8,317.6 	"/>
	<polygon id="XMLID_2385_" class="st2" points="212.2,321.5 212.2,317.6 208.4,317.6 204.5,317.6 204.5,321.5 204.5,325.4 
		208.4,325.4 208.4,321.5 	"/>
	<polygon id="XMLID_2384_" class="st2" points="220,317.6 220,313.8 216.1,313.8 216.1,309.9 212.2,309.9 208.4,309.9 208.4,313.8 
		212.2,313.8 212.2,317.6 216.1,317.6 216.1,321.5 212.2,321.5 212.2,325.4 216.1,325.4 216.1,329.2 220,329.2 220,325.4 
		223.8,325.4 223.8,329.2 227.6,329.2 231.6,329.2 231.6,325.4 227.6,325.4 227.6,321.5 223.8,321.5 223.8,317.6 	"/>
	<polygon id="XMLID_2383_" class="st2" points="212.2,325.4 208.4,325.4 208.4,329.2 208.4,333 212.2,333 216.1,333 216.1,329.2 
		212.2,329.2 	"/>
	<rect id="XMLID_2382_" x="220" y="329.2" class="st2" width="3.8" height="3.8"/>
</g>
<g id="XMLID_2372_">
	<rect id="XMLID_2380_" x="265.3" y="369.7" class="st2" width="3.8" height="3.8"/>
	<rect id="XMLID_2379_" x="261.5" y="373.6" class="st2" width="3.8" height="3.8"/>
	<rect id="XMLID_2378_" x="261.5" y="369.7" class="st2" width="3.8" height="3.8"/>
	<rect id="XMLID_2377_" x="257.5" y="369.7" class="st2" width="3.8" height="3.8"/>
	<rect id="XMLID_2376_" x="261.5" y="365.8" class="st2" width="3.8" height="3.8"/>
	<rect id="XMLID_2375_" x="265.3" y="365.8" class="st2" width="3.8" height="3.8"/>
	<rect id="XMLID_2374_" x="257.5" y="362" class="st2" width="3.8" height="3.8"/>
	<rect id="XMLID_2373_" x="265.3" y="358.1" class="st2" width="3.8" height="3.8"/>
</g>
<g id="XMLID_2360_">
	<rect id="XMLID_2371_" x="218" y="277.9" class="st2" width="3.8" height="3.8"/>
	<rect id="XMLID_2370_" x="225.8" y="277.9" class="st2" width="3.8" height="3.8"/>
	<rect id="XMLID_2369_" x="218" y="281.7" class="st2" width="3.8" height="3.8"/>
	<rect id="XMLID_2368_" x="221.9" y="281.7" class="st2" width="3.8" height="3.8"/>
	<rect id="XMLID_2367_" x="221.9" y="285.7" class="st2" width="3.8" height="3.8"/>
	<rect id="XMLID_2366_" x="225.8" y="285.7" class="st2" width="3.8" height="3.8"/>
	<rect id="XMLID_2365_" x="218" y="289.5" class="st2" width="3.8" height="3.8"/>
	<rect id="XMLID_2364_" x="221.9" y="289.5" class="st2" width="3.8" height="3.8"/>
	<rect id="XMLID_2363_" x="225.8" y="289.5" class="st2" width="3.8" height="3.8"/>
	<rect id="XMLID_2362_" x="229.6" y="289.5" class="st2" width="3.8" height="3.8"/>
	<rect id="XMLID_2361_" x="221.9" y="293.3" class="st2" width="3.8" height="3.8"/>
</g>
<g id="XMLID_8_">
	<rect id="XMLID_19_" x="273" y="214.7" class="st2" width="3.8" height="3.8"/>
	<rect id="XMLID_18_" x="280.7" y="214.7" class="st2" width="3.8" height="3.8"/>
	<rect id="XMLID_17_" x="273" y="218.6" class="st2" width="3.8" height="3.8"/>
	<rect id="XMLID_16_" x="276.9" y="218.6" class="st2" width="3.8" height="3.8"/>
	<rect id="XMLID_15_" x="276.9" y="222.5" class="st2" width="3.8" height="3.8"/>
	<rect id="XMLID_14_" x="280.7" y="222.5" class="st2" width="3.8" height="3.8"/>
	<rect id="XMLID_13_" x="273" y="226.3" class="st2" width="3.8" height="3.8"/>
	<rect id="XMLID_12_" x="276.9" y="226.3" class="st2" width="3.8" height="3.8"/>
	<rect id="XMLID_11_" x="280.7" y="226.3" class="st2" width="3.8" height="3.8"/>
	<rect id="XMLID_10_" x="284.6" y="226.3" class="st2" width="3.8" height="3.8"/>
	<rect id="XMLID_9_" x="276.9" y="230.1" class="st2" width="3.8" height="3.8"/>
</g>
<g id="XMLID_2348_">
	<rect id="XMLID_2359_" x="237.4" y="201.3" class="st2" width="3.8" height="3.8"/>
	<rect id="XMLID_2358_" x="245" y="201.3" class="st2" width="3.8" height="3.8"/>
	<rect id="XMLID_2357_" x="237.4" y="205.1" class="st2" width="3.8" height="3.8"/>
	<rect id="XMLID_2356_" x="241.2" y="205.1" class="st2" width="3.8" height="3.8"/>
	<rect id="XMLID_2355_" x="241.2" y="208.9" class="st2" width="3.8" height="3.8"/>
	<rect id="XMLID_2354_" x="245" y="208.9" class="st2" width="3.8" height="3.8"/>
	<rect id="XMLID_2353_" x="237.4" y="212.9" class="st2" width="3.8" height="3.8"/>
	<rect id="XMLID_2352_" x="241.2" y="212.9" class="st2" width="3.8" height="3.8"/>
	<rect id="XMLID_2351_" x="245" y="212.9" class="st2" width="3.8" height="3.8"/>
	<rect id="XMLID_2350_" x="248.8" y="212.9" class="st2" width="3.8" height="3.8"/>
	<rect id="XMLID_2349_" x="241.2" y="216.7" class="st2" width="3.8" height="3.8"/>
</g>
<g id="XMLID_2343_">
	<rect id="XMLID_2347_" x="239.2" y="309.4" class="st2" width="3.8" height="3.8"/>
	<rect id="XMLID_2346_" x="243.1" y="313.2" class="st2" width="3.8" height="3.8"/>
	<rect id="XMLID_2345_" x="247" y="313.2" class="st2" width="3.8" height="3.8"/>
	<rect id="XMLID_2344_" x="243.1" y="320.9" class="st2" width="3.8" height="3.8"/>
</g>
<g id="XMLID_2338_">
	<rect id="XMLID_2342_" x="186.9" y="203.1" class="st2" width="3.8" height="3.8"/>
	<rect id="XMLID_2341_" x="190.7" y="207" class="st2" width="3.8" height="3.8"/>
	<rect id="XMLID_2340_" x="194.5" y="207" class="st2" width="3.8" height="3.8"/>
	<rect id="XMLID_2339_" x="190.7" y="214.7" class="st2" width="3.8" height="3.8"/>
</g>
<g id="XMLID_2333_">
	<rect id="XMLID_2337_" x="351.6" y="220.5" class="st2" width="3.8" height="3.8"/>
	<rect id="XMLID_2336_" x="355.4" y="224.3" class="st2" width="3.8" height="3.8"/>
	<rect id="XMLID_2335_" x="359.2" y="224.3" class="st2" width="3.8" height="3.8"/>
	<rect id="XMLID_2334_" x="355.4" y="232.1" class="st2" width="3.8" height="3.8"/>
</g>
<g id="XMLID_2328_">
	<rect id="XMLID_2332_" x="393.4" y="185.8" class="st2" width="3.8" height="3.8"/>
	<rect id="XMLID_2331_" x="397.3" y="189.7" class="st2" width="3.8" height="3.8"/>
	<rect id="XMLID_2330_" x="401.1" y="189.7" class="st2" width="3.8" height="3.8"/>
	<rect id="XMLID_2329_" x="397.3" y="197.4" class="st2" width="3.8" height="3.8"/>
</g>
<g id="XMLID_2323_">
	<rect id="XMLID_2327_" x="127.3" y="193.5" class="st2" width="3.8" height="3.8"/>
	<rect id="XMLID_2326_" x="131.1" y="197.4" class="st2" width="3.8" height="3.8"/>
	<rect id="XMLID_2325_" x="135" y="197.4" class="st2" width="3.8" height="3.8"/>
	<rect id="XMLID_2324_" x="131.1" y="205.1" class="st2" width="3.8" height="3.8"/>
</g>
<g id="XMLID_2317_">
	<rect id="XMLID_2322_" x="186.9" y="249.5" class="st2" width="3.8" height="3.8"/>
	<rect id="XMLID_2321_" x="190.7" y="253.3" class="st2" width="3.8" height="3.8"/>
	<rect id="XMLID_2320_" x="175.3" y="257.1" class="st2" width="3.8" height="3.8"/>
	<polygon id="XMLID_2319_" class="st2" points="186.9,257.1 186.9,253.3 183,253.3 183,249.5 179.1,249.5 179.1,253.3 179.1,257.1 
		183,257.1 183,261.1 179.1,261.1 179.1,264.9 183,264.9 183,268.7 186.9,268.7 186.9,264.9 190.7,264.9 194.5,264.9 194.5,261.1 
		190.7,261.1 190.7,257.1 	"/>
	<rect id="XMLID_2318_" x="175.3" y="264.9" class="st2" width="3.8" height="3.8"/>
</g>
<g id="XMLID_2309_">
	<rect id="XMLID_2316_" x="291.8" y="290.6" class="st2" width="3.8" height="3.8"/>
	<rect id="XMLID_2315_" x="295.7" y="294.5" class="st2" width="3.8" height="3.8"/>
	<polygon id="XMLID_2314_" class="st2" points="295.7,298.3 291.8,298.3 291.8,294.5 287.9,294.5 284.1,294.5 284.1,298.3 
		287.9,298.3 287.9,302.2 291.8,302.2 291.8,306.1 287.9,306.1 287.9,309.9 291.8,309.9 291.8,313.8 295.7,313.8 295.7,309.9 
		299.5,309.9 299.5,313.8 303.4,313.8 303.4,309.9 303.4,306.1 299.5,306.1 299.5,302.2 295.7,302.2 	"/>
	<polygon id="XMLID_2313_" class="st2" points="303.4,298.3 299.5,298.3 299.5,302.2 303.4,302.2 307.3,302.2 307.3,298.3 	"/>
	<polygon id="XMLID_2312_" class="st2" points="284.1,302.2 280.2,302.2 280.2,306.1 284.1,306.1 287.9,306.1 287.9,302.2 	"/>
	<rect id="XMLID_2311_" x="284.1" y="309.9" class="st2" width="3.8" height="3.8"/>
	<rect id="XMLID_2310_" x="287.9" y="313.8" class="st2" width="3.8" height="3.8"/>
</g>
<g id="XMLID_2301_">
	<rect id="XMLID_2308_" x="255.7" y="329.2" class="st2" width="3.8" height="3.8"/>
	<rect id="XMLID_2307_" x="259.5" y="333" class="st2" width="3.8" height="3.8"/>
	<polygon id="XMLID_2306_" class="st2" points="259.5,336.9 255.7,336.9 255.7,333 251.7,333 247.9,333 247.9,336.9 251.7,336.9 
		251.7,340.8 255.7,340.8 255.7,344.6 251.7,344.6 251.7,348.5 255.7,348.5 255.7,352.3 259.5,352.3 259.5,348.5 263.3,348.5 
		263.3,352.3 267.3,352.3 267.3,348.5 267.3,344.6 263.3,344.6 263.3,340.8 259.5,340.8 	"/>
	<polygon id="XMLID_2305_" class="st2" points="267.3,336.9 263.3,336.9 263.3,340.8 267.3,340.8 271.1,340.8 271.1,336.9 	"/>
	<polygon id="XMLID_2304_" class="st2" points="247.9,340.8 244.1,340.8 244.1,344.6 247.9,344.6 251.7,344.6 251.7,340.8 	"/>
	<rect id="XMLID_2303_" x="247.9" y="348.5" class="st2" width="3.8" height="3.8"/>
	<rect id="XMLID_2302_" x="251.7" y="352.3" class="st2" width="3.8" height="3.8"/>
</g>
<g id="XMLID_2293_">
	<rect id="XMLID_2300_" x="301.5" y="214.7" class="st2" width="3.8" height="3.8"/>
	<rect id="XMLID_2299_" x="305.3" y="218.6" class="st2" width="3.8" height="3.8"/>
	<polygon id="XMLID_2298_" class="st2" points="305.3,222.5 301.5,222.5 301.5,218.6 297.6,218.6 293.7,218.6 293.7,222.5 
		297.6,222.5 297.6,226.3 301.5,226.3 301.5,230.1 297.6,230.1 297.6,234.1 301.5,234.1 301.5,237.9 305.3,237.9 305.3,234.1 
		309.1,234.1 309.1,237.9 313.1,237.9 313.1,234.1 313.1,230.1 309.1,230.1 309.1,226.3 305.3,226.3 	"/>
	<polygon id="XMLID_2297_" class="st2" points="313.1,222.5 309.1,222.5 309.1,226.3 313.1,226.3 316.9,226.3 316.9,222.5 	"/>
	<polygon id="XMLID_2296_" class="st2" points="293.7,226.3 289.9,226.3 289.9,230.1 293.7,230.1 297.6,230.1 297.6,226.3 	"/>
	<rect id="XMLID_2295_" x="293.7" y="234.1" class="st2" width="3.8" height="3.8"/>
	<rect id="XMLID_2294_" x="297.6" y="237.9" class="st2" width="3.8" height="3.8"/>
</g>
<g id="XMLID_2290_">
	<rect id="XMLID_2292_" x="188.8" y="287.5" class="st2" width="3.8" height="3.8"/>
	<rect id="XMLID_2291_" x="192.7" y="291.5" class="st2" width="3.8" height="3.8"/>
</g>
<g id="XMLID_2287_">
	<rect id="XMLID_2289_" x="202.3" y="193.5" class="st2" width="3.8" height="3.8"/>
	<rect id="XMLID_2288_" x="206.1" y="197.4" class="st2" width="3.8" height="3.8"/>
</g>
<g id="XMLID_23_">
	<rect id="XMLID_25_" x="154.9" y="184.8" class="st2" width="3.8" height="3.8"/>
	<rect id="XMLID_24_" x="158.8" y="188.7" class="st2" width="3.8" height="3.8"/>
</g>
<g id="XMLID_5_">
	<rect id="XMLID_7_" x="382.5" y="203.1" class="st2" width="3.8" height="3.8"/>
	<rect id="XMLID_6_" x="386.3" y="207.1" class="st2" width="3.8" height="3.8"/>
</g>
<g id="XMLID_2284_">
	<rect id="XMLID_2286_" x="216.1" y="160.8" class="st2" width="3.8" height="3.8"/>
	<rect id="XMLID_2285_" x="220" y="164.8" class="st2" width="3.8" height="3.8"/>
</g>
<g id="XMLID_2281_">
	<rect id="XMLID_2283_" x="293.8" y="165.3" class="st2" width="3.8" height="3.8"/>
	<rect id="XMLID_2282_" x="297.7" y="169.1" class="st2" width="3.8" height="3.8"/>
</g>
<g id="XMLID_2278_">
	<rect id="XMLID_2280_" x="359.5" y="251.3" class="st2" width="3.8" height="3.8"/>
	<rect id="XMLID_2279_" x="363.4" y="255.3" class="st2" width="3.8" height="3.8"/>
</g>
<g id="XMLID_20_">
	<rect id="XMLID_22_" x="313.6" y="268.7" class="st2" width="3.8" height="3.8"/>
	<rect id="XMLID_21_" x="317.5" y="272.5" class="st2" width="3.8" height="3.8"/>
</g>
<g id="XMLID_2_">
	<rect id="XMLID_4_" x="269.1" y="319.6" class="st2" width="3.8" height="3.8"/>
	<rect id="XMLID_3_" x="273" y="323.4" class="st2" width="3.8" height="3.8"/>
</g>
<g id="XMLID_2268_">
	<rect id="XMLID_2277_" x="261.5" y="237.9" class="st2" width="3.8" height="3.8"/>
	<rect id="XMLID_2276_" x="253.7" y="241.7" class="st2" width="3.8" height="3.8"/>
	<polygon id="XMLID_2275_" class="st2" points="269.1,249.5 273,249.5 273,245.5 276.9,245.5 276.9,241.7 273,241.7 269.1,241.7 
		265.3,241.7 265.3,245.5 269.1,245.5 	"/>
	<rect id="XMLID_2274_" x="249.9" y="249.5" class="st2" width="3.8" height="3.8"/>
	<polygon id="XMLID_2273_" class="st2" points="276.9,253.3 280.7,253.3 280.7,249.5 276.9,249.5 273,249.5 273,253.3 	"/>
	<polygon id="XMLID_2272_" class="st2" points="261.5,257.1 261.5,253.3 257.5,253.3 253.7,253.3 253.7,257.1 253.7,261.1 
		257.5,261.1 257.5,257.1 	"/>
	<polygon id="XMLID_2271_" class="st2" points="269.1,253.3 269.1,249.5 265.3,249.5 265.3,245.5 261.5,245.5 257.5,245.5 
		257.5,249.5 261.5,249.5 261.5,253.3 265.3,253.3 265.3,257.1 261.5,257.1 261.5,261.1 265.3,261.1 265.3,264.9 269.1,264.9 
		269.1,261.1 273,261.1 273,264.9 276.9,264.9 280.7,264.9 280.7,261.1 276.9,261.1 276.9,257.1 273,257.1 273,253.3 	"/>
	<polygon id="XMLID_2270_" class="st2" points="261.5,261.1 257.5,261.1 257.5,264.9 257.5,268.7 261.5,268.7 265.3,268.7 
		265.3,264.9 261.5,264.9 	"/>
	<rect id="XMLID_2269_" x="269.1" y="264.9" class="st2" width="3.8" height="3.8"/>
</g>
<g id="XMLID_2259_">
	<rect id="XMLID_2267_" x="315.6" y="323.4" class="st2" width="3.8" height="3.8"/>
	<rect id="XMLID_2266_" x="311.7" y="327.3" class="st2" width="3.8" height="3.8"/>
	<rect id="XMLID_2265_" x="311.7" y="323.4" class="st2" width="3.8" height="3.8"/>
	<rect id="XMLID_2264_" x="307.8" y="323.4" class="st2" width="3.8" height="3.8"/>
	<rect id="XMLID_2263_" x="311.7" y="319.6" class="st2" width="3.8" height="3.8"/>
	<rect id="XMLID_2262_" x="315.6" y="319.6" class="st2" width="3.8" height="3.8"/>
	<rect id="XMLID_2261_" x="307.8" y="315.7" class="st2" width="3.8" height="3.8"/>
	<rect id="XMLID_2260_" x="315.6" y="311.8" class="st2" width="3.8" height="3.8"/>
</g>
<g id="XMLID_2247_">
	<rect id="XMLID_2258_" x="291.9" y="327.3" class="st2" width="3.8" height="3.8"/>
	<rect id="XMLID_2257_" x="299.6" y="327.3" class="st2" width="3.8" height="3.8"/>
	<rect id="XMLID_2256_" x="291.9" y="331.1" class="st2" width="3.8" height="3.8"/>
	<rect id="XMLID_2255_" x="295.7" y="331.1" class="st2" width="3.8" height="3.8"/>
	<rect id="XMLID_2254_" x="295.7" y="335" class="st2" width="3.8" height="3.8"/>
	<rect id="XMLID_2253_" x="299.6" y="335" class="st2" width="3.8" height="3.8"/>
	<rect id="XMLID_2252_" x="291.9" y="338.8" class="st2" width="3.8" height="3.8"/>
	<rect id="XMLID_2251_" x="295.7" y="338.8" class="st2" width="3.8" height="3.8"/>
	<rect id="XMLID_2250_" x="299.6" y="338.8" class="st2" width="3.8" height="3.8"/>
	<rect id="XMLID_2249_" x="303.5" y="338.8" class="st2" width="3.8" height="3.8"/>
	<rect id="XMLID_2248_" x="295.7" y="342.7" class="st2" width="3.8" height="3.8"/>
</g>
<g id="XMLID_2235_">
	<rect id="XMLID_2246_" x="153" y="228.3" class="st2" width="3.8" height="3.8"/>
	<rect id="XMLID_2245_" x="160.7" y="228.3" class="st2" width="3.8" height="3.8"/>
	<rect id="XMLID_2244_" x="153" y="232.1" class="st2" width="3.8" height="3.8"/>
	<rect id="XMLID_2243_" x="156.9" y="232.1" class="st2" width="3.8" height="3.8"/>
	<rect id="XMLID_2242_" x="156.9" y="235.9" class="st2" width="3.8" height="3.8"/>
	<rect id="XMLID_2241_" x="160.7" y="235.9" class="st2" width="3.8" height="3.8"/>
	<rect id="XMLID_2240_" x="153" y="239.8" class="st2" width="3.8" height="3.8"/>
	<rect id="XMLID_2239_" x="156.9" y="239.8" class="st2" width="3.8" height="3.8"/>
	<rect id="XMLID_2238_" x="160.7" y="239.8" class="st2" width="3.8" height="3.8"/>
	<rect id="XMLID_2237_" x="164.6" y="239.8" class="st2" width="3.8" height="3.8"/>
	<rect id="XMLID_2236_" x="156.9" y="243.7" class="st2" width="3.8" height="3.8"/>
</g>
<g id="XMLID_2230_">
	<rect id="XMLID_2234_" x="321" y="294.5" class="st2" width="3.8" height="3.8"/>
	<rect id="XMLID_2233_" x="325" y="298.3" class="st2" width="3.8" height="3.8"/>
	<rect id="XMLID_2232_" x="328.8" y="298.3" class="st2" width="3.8" height="3.8"/>
	<rect id="XMLID_2231_" x="325" y="306.1" class="st2" width="3.8" height="3.8"/>
</g>
<g id="XMLID_2225_">
	<rect id="XMLID_2229_" x="229.6" y="338.8" class="st2" width="3.8" height="3.8"/>
	<rect id="XMLID_2228_" x="233.4" y="342.7" class="st2" width="3.8" height="3.8"/>
	<rect id="XMLID_2227_" x="237.4" y="342.7" class="st2" width="3.8" height="3.8"/>
	<rect id="XMLID_2226_" x="233.4" y="350.4" class="st2" width="3.8" height="3.8"/>
</g>
<g id="XMLID_2214_">
	<rect id="XMLID_2224_" x="293.7" y="276" class="st2" width="3.8" height="3.8"/>
	<rect id="XMLID_2218_" x="297.6" y="279.8" class="st2" width="3.8" height="3.8"/>
	<rect id="XMLID_2217_" x="282.2" y="283.7" class="st2" width="3.8" height="3.8"/>
	<polygon id="XMLID_2216_" class="st2" points="293.7,283.7 293.7,279.8 289.9,279.8 289.9,276 286,276 286,279.8 286,283.7 
		289.9,283.7 289.9,287.5 286,287.5 286,291.4 289.9,291.4 289.9,295.3 293.7,295.3 293.7,291.4 297.6,291.4 301.5,291.4 
		301.5,287.5 297.6,287.5 297.6,283.7 	"/>
	<rect id="XMLID_2215_" x="282.2" y="291.4" class="st2" width="3.8" height="3.8"/>
</g>
<g id="XMLID_2207_">
	<rect id="XMLID_2212_" x="231.6" y="241.7" class="st2" width="3.8" height="3.8"/>
	<rect id="XMLID_2211_" x="235.4" y="245.5" class="st2" width="3.8" height="3.8"/>
	<rect id="XMLID_2210_" x="220" y="249.5" class="st2" width="3.8" height="3.8"/>
	<polygon id="XMLID_2209_" class="st2" points="231.6,249.5 231.6,245.5 227.6,245.5 227.6,241.7 223.8,241.7 223.8,245.5 
		223.8,249.5 227.6,249.5 227.6,253.3 223.8,253.3 223.8,257.1 227.6,257.1 227.6,261.1 231.6,261.1 231.6,257.1 235.4,257.1 
		239.2,257.1 239.2,253.3 235.4,253.3 235.4,249.5 	"/>
	<rect id="XMLID_2208_" x="220" y="257.1" class="st2" width="3.8" height="3.8"/>
</g>
<g id="XMLID_2198_">
	<rect id="XMLID_2206_" x="338.4" y="249.5" class="st2" width="3.8" height="3.8"/>
	<rect id="XMLID_2205_" x="342.2" y="253.3" class="st2" width="3.8" height="3.8"/>
	<polygon id="XMLID_2204_" class="st2" points="342.2,257.1 338.4,257.1 338.4,253.3 334.6,253.3 330.7,253.3 330.7,257.1 
		334.6,257.1 334.6,261.1 338.4,261.1 338.4,264.9 334.6,264.9 334.6,268.7 338.4,268.7 338.4,272.5 342.2,272.5 342.2,268.7 
		346.2,268.7 346.2,272.5 350,272.5 350,268.7 350,264.9 346.2,264.9 346.2,261.1 342.2,261.1 	"/>
	<polygon id="XMLID_2203_" class="st2" points="350,257.1 346.2,257.1 346.2,261.1 350,261.1 353.8,261.1 353.8,257.1 	"/>
	<polygon id="XMLID_2202_" class="st2" points="330.7,261.1 326.8,261.1 326.8,264.9 330.7,264.9 334.6,264.9 334.6,261.1 	"/>
	<rect id="XMLID_2201_" x="330.7" y="268.7" class="st2" width="3.8" height="3.8"/>
	<rect id="XMLID_2200_" x="334.6" y="272.5" class="st2" width="3.8" height="3.8"/>
</g>
<g id="XMLID_2194_">
	<rect id="XMLID_2197_" x="274.9" y="344.6" class="st2" width="3.8" height="3.8"/>
	<rect id="XMLID_2195_" x="278.8" y="348.5" class="st2" width="3.8" height="3.8"/>
</g>
<g id="XMLID_41_">
	<g id="XMLID_61_">
		<path id="XMLID_62_" class="st2" d="M356.5,164.5l4.7-9.1l9.1,4.7l-4.7,9.1L356.5,164.5z M361.9,109.9l4.7-9.1l9.1,4.7l-4.7,9.1
			L361.9,109.9z M365.9,146.4l4.7-9.1l9.1,4.7L375,151L365.9,146.4z M402.7,119.5l-9.1-4.7l-9.1-4.7l-9.1-4.7l4.7-9.1l9.1,4.7
			l9.1,4.7l9.1,4.7L402.7,119.5z M379.7,142l4.7-9.1l9.1,4.7l-4.7,9.1L379.7,142z M393.4,137.6l4.7-9.1l4.7-9.1l9.1,4.7l-4.7,9.1
			l-4.7,9.1L393.4,137.6z"/>
	</g>
</g>
<polygon id="XMLID_1976_" class="st3" points="342.7,256 351,246.1 428.1,241.6 437.5,224.6 422,214.1 374.2,220.1 381.9,212.8 
	362.3,191.1 322.3,157.2 288.6,195 200.9,37.5 187.7,44.6 186.5,46.3 285.5,222.1 247,275.1 97.1,146.6 91.5,153 87,158.6 
	239.1,289.3 86.5,250.2 81.5,266.6 90.4,271.2 268.5,313.5 270.2,309.6 281.4,317.1 332.8,247.5 "/>
</svg>
