<?xml version="1.0" encoding="utf-8"?>
<!-- Generator: Adobe Illustrator 19.0.0, SVG Export Plug-In . SVG Version: 6.00 Build 0)  -->
<svg version="1.1" id="dripleaf_filters" xmlns="http://www.w3.org/2000/svg" xmlns:xlink="http://www.w3.org/1999/xlink" x="0px"
	 y="0px" viewBox="0 0 512 512" style="enable-background:new 0 0 512 512;" xml:space="preserve">
<style type="text/css">
	.st0{fill:#FFFFFF;}
	.st1{fill:#A0CCE0;}
	.st2{fill:#397894;}
	.st3{fill:#3F82A2;}
	.st4{fill:#4A9FC6;}
</style>
<rect class="st0" width="512" height="512"/>
<path id="XMLID_1280_" class="st1" d="M433.1,178H46.5v85h74.4c59,0,107,48,107,107h85c0-39.6-12-76.4-32.7-107h152.9V178z"/>
<g id="XMLID_422_">
	<g id="XMLID_987_">
		<polygon id="XMLID_1281_" class="st2" points="241.2,261.7 234.8,261.7 228.3,261.7 221.9,261.7 221.9,252.1 215.4,252.1 
			215.4,242.6 215.4,233.1 215.4,233 215.4,223.6 209,223.6 202.5,223.6 196.1,223.6 196.1,233 196.1,233.1 196.1,242.6 
			196.1,252.1 202.5,252.1 202.5,261.7 196.1,261.7 196.1,271.2 189.7,271.2 183.2,271.2 176.8,271.2 176.8,280.7 183.2,280.7 
			183.2,290.3 189.7,290.3 189.7,299.8 189.7,309.4 196.1,309.4 196.1,318.9 196.1,328.5 202.5,328.5 209,328.5 209,318.9 
			209,309.4 209,299.8 202.5,299.8 202.5,290.3 202.5,280.7 209,280.7 215.4,280.7 215.4,290.3 221.9,290.3 221.9,299.8 
			221.9,309.4 221.9,318.9 221.9,328.5 228.3,328.5 234.8,328.5 234.8,318.9 234.8,309.4 234.8,299.8 234.8,290.3 234.8,280.7 
			241.2,280.7 241.2,271.2 247.6,271.2 247.6,261.7 		"/>
		<polygon id="XMLID_1289_" class="st3" points="246.8,256.3 221.7,243.9 221.7,254.6 235.9,261.6 247,267.2 247.4,267.4 
			263.4,259.6 263.4,269.1 281.3,260.3 281.3,270.6 297.1,262.8 297.1,273.8 331.6,256.9 331.6,245.8 348.3,237.6 348.3,227.4 
			365,219.2 365,209.6 382,201.3 382,189.8 		"/>
	</g>
	<polygon id="XMLID_1383_" class="st4" points="347.4,172.8 314.6,156.6 280.1,139.6 272.3,143.4 256.1,135.4 246.9,139.9 
		238,135.6 230.2,139.4 221.4,135 186.9,152 195.8,156.4 178.9,164.7 170.1,160.3 137,176.6 145.9,181 136.1,185.8 145,190.2 
		136.7,194.3 153,202.3 145.1,206.2 179.6,223.2 187.4,219.3 220.2,235.4 212.4,239.3 247,256.4 254.8,252.5 263.1,248.4 
		272.9,243.6 305.9,227.3 322.8,219 357.3,202 365,198.2 374.2,193.7 382,189.8 	"/>
</g>
<g id="XMLID_1286_">
	<polygon id="XMLID_1287_" class="st3" points="76.7,202.3 81.4,202.3 86,202.3 86,197.7 90.6,197.7 90.6,193.1 95.3,193.1 
		95.3,188.4 99.9,188.4 99.9,183.8 95.3,183.8 90.6,183.8 90.6,179.1 95.3,179.1 95.3,174.5 99.9,174.5 99.9,169.9 104.5,169.9 
		104.5,165.2 104.5,160.6 99.9,160.6 95.3,160.6 90.6,160.6 90.6,155.9 86,155.9 86,151.3 86,146.7 81.4,146.7 76.7,146.7 
		76.7,151.3 72.1,151.3 67.4,151.3 67.4,155.9 62.8,155.9 62.8,160.6 58.2,160.6 58.2,165.2 58.2,169.9 53.5,169.9 53.5,174.5 
		48.9,174.5 48.9,179.1 44.2,179.1 44.2,183.8 39.6,183.8 39.6,188.4 39.6,193.1 39.6,197.7 44.2,197.7 44.2,202.3 44.2,207 
		48.9,207 48.9,211.6 53.5,211.6 58.2,211.6 58.2,207 62.8,207 67.4,207 72.1,207 72.1,202.3 	"/>
</g>
<g id="XMLID_1295_">
	<polygon id="XMLID_1296_" class="st1" points="410.6,140.1 410.6,300.9 491,220.5 	"/>
</g>
<g id="XMLID_1297_">
	<polygon id="XMLID_1298_" class="st1" points="348.2,363.3 187.3,363.3 267.8,443.8 	"/>
</g>
<polygon id="XMLID_1284_" class="st3" points="104.3,213.3 99.7,213.3 95,213.3 95.1,218 90.4,218 90.4,222.6 85.8,222.7 
	85.8,227.3 81.2,227.3 81.2,232 76.6,232 76.6,236.6 72,236.7 72,241.3 67.4,241.3 67.4,246 62.8,246 62.8,250.7 58.1,250.7 
	58.1,246 53.5,246.1 53.4,241.4 48.8,241.5 44.2,241.5 44.2,246.1 44.2,250.8 48.9,250.7 48.9,255.4 48.9,260 53.6,260 53.6,264.6 
	49,264.7 49,269.3 44.3,269.3 44.4,274 39.8,274 39.7,274 35.1,274 35.1,278.7 35.2,283.3 35.2,288 39.8,287.9 39.8,287.9 
	44.5,287.9 49.1,287.9 49.1,283.2 49,278.6 53.7,278.6 53.7,273.9 58.3,273.9 58.3,269.2 62.9,269.2 62.9,273.9 67.6,273.8 
	72.2,273.8 72.2,278.4 76.9,278.4 81.5,278.4 81.5,273.7 81.5,269.1 76.8,269.1 76.8,264.5 72.2,264.5 72.1,259.9 76.8,259.8 
	76.7,255.2 81.4,255.2 81.3,250.5 86,250.5 86,245.9 90.6,245.8 90.6,241.2 95.2,241.2 95.2,236.5 99.8,236.5 99.8,231.8 
	104.4,231.8 104.4,227.2 109,227.1 109,222.5 109,217.9 108.9,213.2 "/>
<g id="XMLID_1291_">
	<polygon id="XMLID_1292_" class="st3" points="448.2,247 452.8,247 457.5,247 457.5,242.3 462.1,242.3 462.1,237.7 466.7,237.7 
		466.7,233.1 471.4,233.1 471.4,228.4 466.7,228.4 462.1,228.4 462.1,223.8 466.7,223.8 466.7,219.1 471.4,219.1 471.4,214.5 
		476,214.5 476,209.9 476,205.2 471.4,205.2 466.7,205.2 462.1,205.2 462.1,200.6 457.5,200.6 457.5,195.9 457.5,191.3 452.8,191.3 
		448.2,191.3 448.2,195.9 443.5,195.9 438.9,195.9 438.9,200.6 434.3,200.6 434.3,205.2 429.6,205.2 429.6,209.9 429.6,214.5 
		425,214.5 425,219.1 420.3,219.1 420.3,223.8 415.7,223.8 415.7,228.4 411.1,228.4 411.1,233.1 411.1,237.7 411.1,242.3 
		415.7,242.3 415.7,247 415.7,251.6 420.3,251.6 420.3,256.3 425,256.3 429.6,256.3 429.6,251.6 434.3,251.6 438.9,251.6 
		443.5,251.6 443.5,247 	"/>
</g>
<polygon id="XMLID_1290_" class="st3" points="304.8,347.1 300.1,347.1 295.5,347.1 295.5,351.7 290.9,351.7 290.9,356.4 
	286.2,356.4 286.2,361 281.6,361 281.6,365.7 276.9,365.7 276.9,370.3 272.3,370.3 272.3,374.9 267.7,374.9 267.7,379.6 263,379.6 
	263,384.2 258.4,384.2 258.4,379.6 253.7,379.6 253.7,374.9 249.1,374.9 244.5,374.9 244.5,379.6 244.5,384.2 249.1,384.2 
	249.1,388.9 249.1,393.5 253.7,393.5 253.7,398.1 249.1,398.1 249.1,402.8 244.5,402.8 244.5,407.4 239.8,407.4 239.8,407.4 
	235.2,407.4 235.2,412.1 235.2,416.7 235.2,421.4 239.8,421.4 239.8,421.4 244.5,421.4 249.1,421.4 249.1,416.7 249.1,412.1 
	253.7,412.1 253.7,407.4 258.4,407.4 258.4,402.8 263,402.8 263,407.4 267.7,407.4 272.3,407.4 272.3,412.1 276.9,412.1 
	281.6,412.1 281.6,407.4 281.6,402.8 276.9,402.8 276.9,398.1 272.3,398.1 272.3,393.5 276.9,393.5 276.9,388.9 281.6,388.9 
	281.6,384.2 286.2,384.2 286.2,379.6 290.9,379.6 290.9,374.9 295.5,374.9 295.5,370.3 300.1,370.3 300.1,365.7 304.8,365.7 
	304.8,361 309.4,361 309.4,356.4 309.4,351.7 309.4,347.1 "/>
</svg>
