<?xml version="1.0" encoding="utf-8"?>
<!-- Generator: Adobe Illustrator 23.0.6, SVG Export Plug-In . SVG Version: 6.00 Build 0)  -->
<svg version="1.1" id="soul_glass" xmlns="http://www.w3.org/2000/svg" xmlns:xlink="http://www.w3.org/1999/xlink" x="0px" y="0px"
	 viewBox="0 0 512 512" style="enable-background:new 0 0 512 512;" xml:space="preserve">
<style type="text/css">
	.st0{fill:#FFFFFF;}
	.st1{fill:#4AA0C7;}
	.st2{fill:#A1CEE2;}
	.st3{fill:#3D83A3;}
	.st4{fill:#387895;}
	.st5{fill:#7FBCD7;}
</style>
<rect x="0" y="0.08" class="st0" width="512" height="511.89"/>
<g>
	<g id="Icon_1_">
		<g id="Beacon_Beam">
			<rect id="Outside" x="204.63" y="0" class="st1" width="104.53" height="512"/>
			<rect id="Inside" x="216.64" y="0" class="st2" width="80.01" height="512"/>
			<g id="Inside_Details">
				<rect x="276.63" y="6" class="st0" width="6" height="33"/>
				<rect x="263.65" y="0" class="st0" width="6" height="39"/>
				<rect x="256.64" y="19.5" class="st0" width="13.01" height="19.5"/>
				<rect x="256.64" y="19.5" class="st0" width="6.51" height="40"/>
				<rect x="243.65" y="0" class="st0" width="13" height="19.5"/>
				<rect x="250.13" y="26.5" class="st0" width="19.52" height="6.5"/>
				<rect x="230.63" y="6" class="st0" width="6" height="20.5"/>
				<rect x="269.66" y="39" class="st0" width="6.98" height="7"/>
				<rect x="236.63" y="38.5" class="st0" width="7.01" height="7.5"/>
				<rect x="243.65" y="46" class="st0" width="6.49" height="13.5"/>
				<rect x="223.13" y="46" class="st0" width="7.5" height="26.5"/>
				<rect x="269.66" y="59" class="st0" width="6.98" height="13.5"/>
				<rect x="250.13" y="66" class="st0" width="6" height="6"/>
				<rect x="256.14" y="72" class="st0" width="7.01" height="26.5"/>
				<rect x="256.14" y="85" class="st0" width="13.52" height="7"/>
				<rect x="282.63" y="66" class="st0" width="6" height="13"/>
				<rect x="282.63" y="85" class="st0" width="6" height="7"/>
				<rect x="269.66" y="92" class="st0" width="6.98" height="6.5"/>
				<rect x="244.14" y="79" class="st0" width="6" height="6.5"/>
				<rect x="216.64" y="85" class="st0" width="7" height="7"/>
				<rect x="230.63" y="92" class="st0" width="6" height="6.5"/>
				<rect x="223.64" y="98.5" class="st0" width="6.99" height="7"/>
				<rect x="282.63" y="98" class="st0" width="6" height="7.5"/>
				<rect x="250.13" y="98.5" class="st0" width="6" height="26.5"/>
				<rect x="244.14" y="105" class="st0" width="12" height="20"/>
				<rect x="230.63" y="111.99" class="st0" width="6" height="19.01"/>
				<rect x="263.15" y="105.49" class="st0" width="6" height="38.5"/>
				<rect x="276.63" y="111.5" class="st0" width="6" height="33.01"/>
				<rect x="256.14" y="125" class="st0" width="7.01" height="39"/>
				<rect x="250.13" y="131" class="st0" width="19.01" height="7"/>
				<rect x="269.15" y="144" class="st0" width="7.48" height="6.51"/>
				<rect x="236.15" y="144" class="st0" width="7.5" height="6.51"/>
				<rect x="243.65" y="150.5" class="st0" width="6.49" height="13.5"/>
				<rect x="223.64" y="150.5" class="st0" width="6.99" height="27"/>
				<rect x="250.13" y="170.99" class="st0" width="6" height="6"/>
				<rect x="269.15" y="163.49" class="st0" width="7.48" height="14"/>
				<rect x="282.63" y="170.99" class="st0" width="6" height="12"/>
				<rect x="256.14" y="177.5" class="st0" width="7.01" height="26.49"/>
				<rect x="243.65" y="182.99" class="st0" width="6.49" height="7.5"/>
				<rect x="256.14" y="190.49" class="st0" width="13.01" height="6"/>
				<rect x="269.15" y="196.49" class="st0" width="7.48" height="7.5"/>
				<rect x="282.63" y="190.49" class="st0" width="6" height="6"/>
				<rect x="216.64" y="190.49" class="st0" width="7" height="6"/>
				<rect x="230.63" y="196.49" class="st0" width="6" height="7.5"/>
				<rect x="223.64" y="203.99" class="st0" width="6.99" height="6"/>
				<rect x="243.65" y="209.99" class="st0" width="12.49" height="19.44"/>
				<rect x="250.13" y="203.99" class="st0" width="6" height="25.51"/>
				<rect x="230.63" y="215.99" class="st0" width="6" height="21.02"/>
				<rect x="282.63" y="203.5" class="st0" width="6" height="6"/>
				<rect x="263.15" y="209.99" class="st0" width="6.51" height="39.02"/>
				<rect x="256.14" y="229.51" class="st0" width="7.01" height="40.01"/>
				<rect x="256.14" y="229.51" class="st0" width="13.52" height="19.5"/>
				<rect x="250.13" y="237.01" class="st0" width="19.01" height="5.49"/>
				<rect x="276.63" y="215.99" class="st0" width="6" height="33.01"/>
				<rect x="269.66" y="249.01" class="st0" width="6.98" height="6.99"/>
				<rect x="237.14" y="247.99" class="st0" width="7" height="7.5"/>
				<rect x="244.14" y="255.49" class="st0" width="6.51" height="13.52"/>
				<rect x="223.64" y="255.49" class="st0" width="7.5" height="26.49"/>
				<rect x="270.16" y="268.5" class="st0" width="6.98" height="13.48"/>
				<rect x="250.64" y="275.51" class="st0" width="6" height="6"/>
				<rect x="256.64" y="281.51" class="st0" width="7.01" height="26.49"/>
				<rect x="256.64" y="294.49" class="st0" width="13.52" height="7.01"/>
				<rect x="283.14" y="275.51" class="st0" width="6" height="12.97"/>
				<rect x="283.14" y="294.49" class="st0" width="6" height="7.01"/>
				<rect x="270.16" y="301.5" class="st0" width="6.98" height="6.5"/>
				<rect x="244.64" y="288.49" class="st0" width="6" height="6.51"/>
				<rect x="217.13" y="294.49" class="st0" width="7.01" height="7.01"/>
				<rect x="231.14" y="301.5" class="st0" width="6" height="6.5"/>
				<rect x="224.14" y="308.01" class="st0" width="7" height="7"/>
				<rect x="283.14" y="307.5" class="st0" width="6" height="7.49"/>
				<rect x="250.64" y="308.01" class="st0" width="6" height="26.49"/>
				<rect x="244.64" y="314.99" class="st0" width="12" height="20.02"/>
				<rect x="231.14" y="321.49" class="st0" width="6" height="19.01"/>
				<rect x="276.63" y="321" class="st0" width="6" height="33.01"/>
				<rect x="263.65" y="314.99" class="st0" width="6" height="39.03"/>
				<rect x="256.64" y="334.5" class="st0" width="6.51" height="40.01"/>
				<rect x="250.13" y="341.51" class="st0" width="19.52" height="6.5"/>
				<rect x="269.66" y="354.01" class="st0" width="6.98" height="6.97"/>
				<rect x="236.63" y="353.51" class="st0" width="7.01" height="7.48"/>
				<rect x="243.65" y="360.99" class="st0" width="6.49" height="13.52"/>
				<rect x="223.13" y="360.99" class="st0" width="7.5" height="26.52"/>
				<rect x="269.66" y="374" class="st0" width="6.98" height="13.51"/>
				<rect x="250.13" y="381.01" class="st0" width="6" height="6"/>
				<rect x="256.14" y="387.01" class="st0" width="7.01" height="26.49"/>
				<rect x="256.14" y="399.98" class="st0" width="13.52" height="7.01"/>
				<rect x="282.63" y="381.01" class="st0" width="6" height="12.97"/>
				<rect x="282.63" y="399.98" class="st0" width="6" height="7.01"/>
				<rect x="269.66" y="407" class="st0" width="6.98" height="6.51"/>
				<rect x="244.14" y="393.98" class="st0" width="6" height="6.51"/>
				<rect x="216.64" y="399.98" class="st0" width="7" height="7.01"/>
				<rect x="230.63" y="407" class="st0" width="6" height="6.51"/>
				<rect x="223.64" y="413.5" class="st0" width="6.99" height="7.01"/>
				<rect x="282.63" y="412.99" class="st0" width="6" height="7.51"/>
				<rect x="250.13" y="413.5" class="st0" width="6" height="26.49"/>
				<rect x="244.14" y="420.5" class="st0" width="12" height="20"/>
				<rect x="230.63" y="427.01" class="st0" width="6" height="18.99"/>
				<rect x="277.14" y="425.5" class="st0" width="6" height="33"/>
				<rect x="264.16" y="419.5" class="st0" width="6" height="38.99"/>
				<rect x="257.15" y="439" class="st0" width="6.51" height="39.98"/>
				<rect x="250.13" y="445.99" class="st0" width="19.52" height="6.51"/>
				<rect x="230.63" y="425.5" class="st0" width="6" height="20.49"/>
				<rect x="270.16" y="458.5" class="st0" width="6.98" height="7.01"/>
				<rect x="236.63" y="457.99" class="st0" width="7.01" height="7.52"/>
				<rect x="243.65" y="465.51" class="st0" width="6.49" height="13.48"/>
				<rect x="223.13" y="465.51" class="st0" width="7.5" height="26.49"/>
				<rect x="269.66" y="478.5" class="st0" width="6.98" height="13.5"/>
				<rect x="250.13" y="485.49" class="st0" width="6" height="6"/>
				<rect x="256.14" y="491.49" class="st0" width="7.01" height="20.5"/>
				<rect x="256.14" y="504.51" class="st0" width="13.52" height="7.49"/>
				<rect x="282.63" y="485.49" class="st0" width="6" height="13.01"/>
				<rect x="282.63" y="505" class="st0" width="6" height="7"/>
				<rect x="244.14" y="498.5" class="st0" width="6" height="6.5"/>
				<rect x="216.64" y="505" class="st0" width="7" height="7"/>
				<rect x="257.15" y="439" class="st0" width="13.01" height="19.49"/>
				<rect x="256.64" y="334.5" class="st0" width="13.01" height="19.52"/>
				<rect x="256.14" y="125" class="st0" width="13.01" height="19"/>
			</g>
			<g id="Outline_Details">
				<rect x="204.63" y="0" class="st3" width="6.01" height="19.5"/>
				<rect x="204.63" y="59.5" class="st3" width="6.01" height="19.5"/>
				<rect x="204.63" y="98.5" class="st3" width="6.01" height="26.5"/>
				<rect x="204.63" y="164" class="st3" width="6.01" height="18.99"/>
				<rect x="204.63" y="203.99" class="st3" width="6.01" height="25.51"/>
				<rect x="204.63" y="269.52" class="st3" width="6.01" height="19.48"/>
				<rect x="204.63" y="308.51" class="st3" width="6.01" height="26.49"/>
				<rect x="204.63" y="374" class="st3" width="6.01" height="19.5"/>
				<rect x="204.63" y="414.01" class="st3" width="6.01" height="25.48"/>
				<rect x="204.63" y="479.49" class="st3" width="6.01" height="19.51"/>
				<rect x="303.17" y="479.49" class="st3" width="6" height="25.5"/>
				<rect x="303.17" y="459" class="st3" width="6" height="7"/>
				<rect x="303.17" y="406.49" class="st3" width="6" height="19.52"/>
				<rect x="303.17" y="374" class="st3" width="6" height="26.5"/>
				<rect x="303.17" y="354.48" class="st3" width="6" height="6"/>
				<rect x="303.17" y="302.01" class="st3" width="6" height="19.48"/>
				<rect x="303.17" y="269.52" class="st3" width="6" height="25.48"/>
				<rect x="303.17" y="249.01" class="st3" width="6" height="6.99"/>
				<rect x="303.17" y="196.49" class="st3" width="6" height="19.5"/>
				<rect x="303.17" y="164" class="st3" width="6" height="26.49"/>
				<rect x="303.17" y="144.5" class="st3" width="6" height="6"/>
				<rect x="303.17" y="92" class="st3" width="6" height="19.5"/>
				<rect x="303.17" y="59.5" class="st3" width="6" height="25.5"/>
				<rect x="303.17" y="39" class="st3" width="6" height="7"/>
				<rect x="303.17" y="0" class="st3" width="6" height="6"/>
			</g>
		</g>
	</g>
	<g>
		<g>
			<polygon class="st4" points="402.9,195.81 402.9,201.11 397.6,201.11 397.6,206.41 392.31,206.41 392.31,201.11 392.31,195.81 
				397.6,195.81 			"/>
			<rect x="402.9" y="190.51" class="st4" width="5.29" height="5.3"/>
			<rect x="408.19" y="179.92" class="st4" width="5.3" height="5.3"/>
			<polygon class="st4" points="392.31,190.51 392.31,195.81 387.01,195.81 387.01,190.51 387.01,185.22 392.31,185.22 			"/>
			<polygon class="st4" points="402.9,185.22 397.6,185.22 397.6,179.92 397.6,174.62 402.9,174.62 402.9,169.33 408.19,169.33 
				408.19,174.62 408.19,179.92 402.9,179.92 			"/>
			<rect x="381.72" y="174.62" class="st4" width="5.3" height="5.3"/>
			<rect x="392.31" y="164.03" class="st4" width="5.3" height="5.3"/>
			<rect x="402.9" y="158.74" class="st4" width="5.29" height="5.29"/>
			<path class="st5" d="M381.72,158.74v5.29v5.3v5.3h5.3v5.3v5.3h5.3v5.3v5.3h5.3h5.3v-5.3h5.29v-5.3v-5.3h-5.29v5.3h-5.3v-5.3v-5.3
				h5.3v-5.3h5.29v5.3v5.3h5.3v-5.3v-5.3v-5.3v-5.29h-5.3v5.29h-5.29v-5.29h5.29v-5.3h-5.29h-5.3h-5.3h-5.3v5.3H381.72z
				 M397.6,169.33h-5.3v-5.3h5.3V169.33z"/>
			<polygon class="st4" points="111.77,345.16 106.48,345.16 106.48,350.46 106.48,355.76 111.77,355.76 111.77,361.05 
				117.07,361.05 117.07,355.76 117.07,350.46 111.77,350.46 			"/>
			<polygon class="st4" points="117.07,339.86 117.07,345.16 122.37,345.16 122.37,339.86 122.37,334.55 117.07,334.55 			"/>
			<polygon class="st4" points="106.48,334.55 101.18,334.55 101.18,339.86 101.18,345.16 106.48,345.16 106.48,339.86 			"/>
			<rect x="122.37" y="329.26" class="st4" width="5.3" height="5.3"/>
			<polygon class="st4" points="106.48,334.55 111.77,334.55 111.77,329.26 111.77,323.96 111.77,318.67 106.48,318.67 
				106.48,313.37 101.18,313.37 101.18,318.67 101.18,323.96 101.18,329.26 106.48,329.26 			"/>
			<rect x="95.88" y="329.26" class="st4" width="5.3" height="5.3"/>
			<rect x="127.66" y="323.96" class="st4" width="5.29" height="5.29"/>
			<rect x="117.07" y="313.37" class="st4" width="5.3" height="5.29"/>
			<rect x="106.48" y="302.78" class="st4" width="5.3" height="5.3"/>
			<rect x="101.18" y="329.26" class="st5" width="5.3" height="5.3"/>
			<path class="st5" d="M132.96,318.67v-5.29v-5.29h-5.29v-5.3h-5.3v-5.29h-5.3h-5.29h-5.3v5.29h5.3v5.3h-5.3v-5.3h-5.29v5.3h-5.31
				v5.29v5.29v5.3v5.29h5.31v-5.29v-5.3v-5.29h5.29v5.29h5.3v5.3v5.29v5.32h-5.3v5.29v5.29h5.3v5.3h5.29v-5.3v-5.29v-5.29h5.3v-5.32
				h5.3v-5.29h5.29V318.67z M117.07,313.37h5.3v5.29h-5.3V313.37z"/>
			<polygon class="st4" points="356.09,443.34 361.38,443.34 361.38,448.63 356.09,448.63 356.09,453.93 350.8,453.93 350.8,448.63 
				350.8,443.34 350.8,438.05 356.09,438.05 			"/>
			<rect x="361.38" y="432.75" class="st4" width="5.3" height="5.29"/>
			<rect x="345.5" y="427.46" class="st4" width="5.3" height="5.3"/>
			<polygon class="st4" points="356.09,427.46 356.09,422.16 361.38,422.16 366.68,422.16 366.68,427.46 361.38,427.46 
				361.38,432.75 356.09,432.75 			"/>
			<rect x="350.8" y="411.57" class="st4" width="5.29" height="5.3"/>
			<rect x="361.38" y="411.57" class="st4" width="5.3" height="5.3"/>
			<rect x="361.38" y="427.46" class="st5" width="5.3" height="5.3"/>
			<polygon class="st5" points="350.8,416.87 356.09,416.87 356.09,411.57 350.8,411.57 350.8,406.28 356.09,406.28 361.38,406.28 
				366.68,406.28 366.68,411.57 361.38,411.57 361.38,416.87 366.68,416.87 366.68,411.57 371.98,411.57 371.98,416.87 
				371.98,422.16 371.98,427.46 366.68,427.46 366.68,422.16 361.38,422.16 356.09,422.16 356.09,427.46 356.09,432.75 
				361.38,432.75 361.38,438.05 361.38,443.34 356.09,443.34 356.09,438.05 350.8,438.05 350.8,432.75 350.8,427.46 345.5,427.46 
				345.5,422.16 345.5,416.87 345.5,411.57 350.8,411.57 			"/>
			<polygon class="st4" points="156.6,100.34 151.31,100.34 151.31,105.63 156.6,105.63 156.6,110.92 161.9,110.92 161.9,105.63 
				161.9,100.34 161.9,95.04 156.6,95.04 			"/>
			<rect x="146.01" y="89.75" class="st4" width="5.3" height="5.29"/>
			<rect x="161.9" y="84.45" class="st4" width="5.3" height="5.29"/>
			<polygon class="st4" points="156.6,84.45 156.6,79.16 151.31,79.16 146.01,79.16 146.01,84.45 151.31,84.45 151.31,89.75 
				156.6,89.75 			"/>
			<rect x="156.6" y="68.56" class="st4" width="5.3" height="5.3"/>
			<rect x="146.01" y="68.56" class="st4" width="5.3" height="5.3"/>
			<rect x="146.01" y="84.45" class="st5" width="5.3" height="5.29"/>
			<polygon class="st5" points="161.9,73.86 156.6,73.86 156.6,68.56 161.9,68.56 161.9,63.27 156.6,63.27 151.31,63.27 
				146.01,63.27 146.01,68.56 151.31,68.56 151.31,73.86 146.01,73.86 146.01,68.56 140.72,68.56 140.72,73.86 140.72,79.16 
				140.72,84.45 146.01,84.45 146.01,79.16 151.31,79.16 156.6,79.16 156.6,84.45 156.6,89.75 151.31,89.75 151.31,95.04 
				151.31,100.34 156.6,100.34 156.6,95.04 161.9,95.04 161.9,89.75 161.9,84.45 167.19,84.45 167.19,79.16 167.19,73.86 
				167.19,68.56 161.9,68.56 			"/>
		</g>
	</g>
</g>
</svg>
