<?xml version="1.0" encoding="utf-8"?>
<!-- Generator: Adobe Illustrator 23.0.6, SVG Export Plug-In . SVG Version: 6.00 Build 0)  -->
<svg version="1.1" id="vigere_shamir" xmlns="http://www.w3.org/2000/svg" xmlns:xlink="http://www.w3.org/1999/xlink" x="0px"
	 y="0px" viewBox="0 0 512 512" style="enable-background:new 0 0 512 512;" xml:space="preserve">
<style type="text/css">
	.st0{fill:#FFFFFF;}
	.st1{fill:#4AA0C7;}
	.st2{fill:#7FBCD7;}
	.st3{fill:#3D83A3;}
	.st4{fill:#A1CEE2;}
</style>
<g id="Background">
	<rect class="st0" width="512" height="512"/>
</g>
<g id="Icon">
	<g id="Shield_1_">
		<polygon id="Shield_Handle" class="st1" points="330.5,344.5 322,349 321.5,279 330.5,284 		"/>
		<polygon id="Shield" class="st2" points="314.5,475.5 214.5,426 214.5,203 223.5,198.5 322.5,248.5 322.5,471 		"/>
		<polygon id="Shield_Panel" class="st3" points="305,462 223.5,419.5 223.5,216 305,257.5 		"/>
		<g id="Shield_Buttons">
			<polygon class="st4" points="239.5,256 231.5,251.5 231.5,241.5 239.5,245.5 			"/>
			<polygon class="st4" points="297,284.61 289,280.11 289,270.11 297,274.11 			"/>
			<polygon class="st4" points="239.5,306.93 231.5,302.43 231.5,292.43 239.5,296.43 			"/>
			<polygon class="st4" points="297,335.54 289,331.04 289,321.04 297,325.04 			"/>
			<polygon class="st4" points="239.5,357.33 231.5,352.83 231.5,342.83 239.5,346.83 			"/>
			<polygon class="st4" points="297,385.93 289,381.43 289,371.43 297,375.43 			"/>
			<polygon class="st4" points="239.5,408.39 231.5,403.89 231.5,393.89 239.5,397.89 			"/>
			<polygon class="st4" points="297,437 289,432.5 289,422.5 297,426.5 			"/>
		</g>
	</g>
	<g id="Heart_Particles">
		<g id="Heart">
			<rect x="147.45" y="257.64" class="st1" width="11.3" height="6.89"/>
			<rect x="158.74" y="289.95" class="st1" width="11.3" height="7.23"/>
			<rect x="141.79" y="263.29" class="st1" width="45.21" height="16.95"/>
			<rect x="147.45" y="278.8" class="st1" width="33.9" height="7.08"/>
			<rect x="153.1" y="284.95" class="st1" width="22.6" height="6.6"/>
			<rect x="170.04" y="257.64" class="st1" width="11.3" height="6.89"/>
		</g>
		<g id="Heart_1_">
			<rect x="291.77" y="183.56" class="st1" width="11.3" height="6.9"/>
			<rect x="303.08" y="215.88" class="st1" width="11.3" height="7.23"/>
			<rect x="286.12" y="189.21" class="st1" width="45.21" height="16.95"/>
			<rect x="291.77" y="204.73" class="st1" width="33.9" height="7.08"/>
			<rect x="297.43" y="210.87" class="st1" width="22.6" height="6.6"/>
			<rect x="314.38" y="183.56" class="st1" width="11.3" height="6.9"/>
		</g>
		<g id="Heart_2_">
			<rect x="339.27" y="351.56" class="st1" width="11.3" height="6.89"/>
			<rect x="350.58" y="383.88" class="st1" width="11.3" height="7.23"/>
			<rect x="333.62" y="357.21" class="st1" width="45.21" height="16.95"/>
			<rect x="339.27" y="372.73" class="st1" width="33.9" height="7.08"/>
			<rect x="344.93" y="378.87" class="st1" width="22.6" height="6.6"/>
			<rect x="361.88" y="351.56" class="st1" width="11.3" height="6.89"/>
		</g>
	</g>
	<g id="Shamir_1_">
		<rect id="Cast_1_" x="223.12" y="52.55" class="st3" width="66.45" height="66.45"/>
		<rect id="Band_1_" x="216.71" y="73.22" class="st2" width="78.59" height="21.76"/>
	</g>
	<g id="Shamir_Particles">
		<g>
			
				<rect x="309.02" y="131.62" transform="matrix(0.2252 -0.9743 0.9743 0.2252 110.5196 408.9231)" class="st2" width="6.7" height="6.7"/>
			
				<rect x="314.57" y="139.23" transform="matrix(0.2252 -0.9743 0.9743 0.2252 107.8114 416.7242)" class="st2" width="2.7" height="2.7"/>
			
				<rect x="316.67" y="130.09" transform="matrix(0.2252 -0.9743 0.9743 0.2252 118.3388 411.696)" class="st2" width="2.7" height="2.7"/>
			
				<rect x="307.54" y="127.99" transform="matrix(0.2252 -0.9743 0.9743 0.2252 113.3151 401.1661)" class="st2" width="2.7" height="2.7"/>
			
				<rect x="305.45" y="137.12" transform="matrix(0.2252 -0.9743 0.9743 0.2252 102.7863 406.2041)" class="st2" width="2.7" height="2.7"/>
		</g>
		<g>
			
				<rect x="193.49" y="120.23" transform="matrix(0.2587 -0.966 0.966 0.2587 26.085 285.2058)" class="st2" width="10.75" height="10.75"/>
			
				<rect x="202" y="132.69" transform="matrix(0.2587 -0.966 0.966 0.2587 21.0911 297.1568)" class="st2" width="4.3" height="4.3"/>
			
				<rect x="205.89" y="118.15" transform="matrix(0.2587 -0.966 0.966 0.2587 38.0218 290.1343)" class="st2" width="4.3" height="4.3"/>
			
				<rect x="191.36" y="114.25" transform="matrix(0.2587 -0.966 0.966 0.2587 31.0122 273.2079)" class="st2" width="4.3" height="4.3"/>
			
				<rect x="187.46" y="128.8" transform="matrix(0.2587 -0.966 0.966 0.2587 14.0625 280.2272)" class="st2" width="4.3" height="4.3"/>
		</g>
		<g>
			
				<rect x="181.61" y="50.51" transform="matrix(0.536 -0.8442 0.8442 0.536 40.3512 181.1357)" class="st2" width="6.7" height="6.7"/>
			
				<rect x="185.09" y="58.99" transform="matrix(0.536 -0.8442 0.8442 0.536 35.5658 185.39)" class="st2" width="2.7" height="2.7"/>
			
				<rect x="190.11" y="51.1" transform="matrix(0.536 -0.8442 0.8442 0.536 44.5557 185.9739)" class="st2" width="2.7" height="2.7"/>
			
				<rect x="182.18" y="46.04" transform="matrix(0.536 -0.8442 0.8442 0.536 45.1494 176.9295)" class="st2" width="2.7" height="2.7"/>
			
				<rect x="177.13" y="53.97" transform="matrix(0.536 -0.8442 0.8442 0.536 36.1064 176.3408)" class="st2" width="2.7" height="2.7"/>
		</g>
		<g>
			
				<rect x="260.1" y="27.73" transform="matrix(0.3107 -0.9505 0.9505 0.3107 152.5729 268.5977)" class="st2" width="2.75" height="2.75"/>
			
				<rect x="258.35" y="24.27" transform="matrix(0.3107 -0.9505 0.9505 0.3107 154.6558 264.5505)" class="st2" width="2.75" height="2.75"/>
			
				<rect x="263.58" y="25.94" transform="matrix(0.3107 -0.9505 0.9505 0.3107 156.6684 270.6649)" class="st2" width="2.75" height="2.75"/>
			
				<rect x="256.63" y="29.48" transform="matrix(0.3107 -0.9505 0.9505 0.3107 148.5149 266.4988)" class="st2" width="2.75" height="2.75"/>
			
				<rect x="261.84" y="31.2" transform="matrix(0.3107 -0.9505 0.9505 0.3107 150.4718 272.6417)" class="st2" width="2.75" height="2.75"/>
		</g>
		<g>
			
				<rect x="321.38" y="69.04" transform="matrix(0.9999 -0.0104 0.0104 0.9999 -0.7353 3.3812)" class="st2" width="6.7" height="6.7"/>
			
				<rect x="328.09" y="75.71" transform="matrix(0.9999 -0.0104 0.0104 0.9999 -0.7836 3.4306)" class="st2" width="2.7" height="2.7"/>
			
				<rect x="328.01" y="66.31" transform="matrix(0.9999 -0.0104 0.0104 0.9999 -0.6859 3.4292)" class="st2" width="2.7" height="2.7"/>
			
				<rect x="318.64" y="66.43" transform="matrix(0.9999 -0.0104 0.0104 0.9999 -0.6876 3.3317)" class="st2" width="2.7" height="2.7"/>
			
				<rect x="318.76" y="75.78" transform="matrix(0.9999 -0.0104 0.0104 0.9999 -0.7848 3.3334)" class="st2" width="2.7" height="2.7"/>
		</g>
	</g>
</g>
</svg>
