<?xml version="1.0" encoding="utf-8"?>
<!-- Generator: Adobe Illustrator 23.0.6, SVG Export Plug-In . SVG Version: 6.00 Build 0)  -->
<svg version="1.1"
	 id="dangerous_dungeons" xmlns:cc="http://creativecommons.org/ns#" xmlns:dc="http://purl.org/dc/elements/1.1/" xmlns:inkscape="http://www.inkscape.org/namespaces/inkscape" xmlns:rdf="http://www.w3.org/1999/02/22-rdf-syntax-ns#" xmlns:sodipodi="http://sodipodi.sourceforge.net/DTD/sodipodi-0.dtd" xmlns:svg="http://www.w3.org/2000/svg"
	 xmlns="http://www.w3.org/2000/svg" xmlns:xlink="http://www.w3.org/1999/xlink" x="0px" y="0px" viewBox="0 0 512 512"
	 style="enable-background:new 0 0 512 512;" xml:space="preserve">
<style type="text/css">
	.st0{fill:#FFFFFF;}
	.st1{fill:#A1CEE2;}
	.st2{fill:#7FBCD7;}
	.st3{fill:#4AA0C7;}
	.st4{fill:#3D83A3;}
</style>
<rect class="st0" width="512" height="512"/>
<g id="Icon">
	<g id="Tree">
		<rect x="235.9" y="46.8" class="st1" width="37.6" height="265.5"/>
		<rect x="194.9" y="83.3" class="st1" width="120.8" height="77.5"/>
		<rect x="156.1" y="125.4" class="st1" width="198.3" height="37.6"/>
	</g>
	<g id="Hill_Back">
		<polygon class="st1" points="194.5,203.6 194.5,339.1 0,339.1 0,127.1 87.6,127.1 87.6,164.1 116.4,164.1 116.4,203.6 		"/>
	</g>
	<g id="Hill_Middle_1_">
		<polygon class="st2" points="512,318.4 512,512 0,512 0,318.4 78.9,318.4 78.9,282.4 398,282.4 398,242.5 512,242.5 512,318.4 		
			"/>
		<rect x="512" y="282.4" class="st2" width="0" height="36"/>
	</g>
	<g id="Dungeon">
		<rect id="Background" x="155.5" y="320.3" class="st1" width="221.9" height="191.7"/>
		<polygon class="st3" points="296.7,396.3 269.5,396.3 269.5,396.3 252.7,396.3 252.7,396.4 190.3,396.4 190.3,453.6 256,453.6 
			256,435.7 274.1,435.7 274.1,415.8 296.7,415.8 		"/>
		<polygon class="st3" points="377.5,396 347.1,396 347.1,406.4 337.1,406.4 337.1,415.8 327.5,415.8 327.5,425 317.4,425 
			317.4,435.4 308.2,435.4 308.2,445.2 296.6,445.2 296.6,453.4 285.4,453.4 285.4,465.2 274.4,465.2 274.4,477.9 377.5,477.9 		"/>
		<g id="Spawner">
			<rect x="196.5" y="376.7" class="st4" width="19.2" height="1"/>
			<rect x="196.5" y="379.8" class="st4" width="19.2" height="1"/>
			<rect x="196.5" y="382.9" class="st4" width="19.2" height="1"/>
			<rect x="196.5" y="386" class="st4" width="19.2" height="1"/>
			<rect x="196.5" y="389" class="st4" width="19.2" height="1"/>
			<rect x="196.5" y="392.1" class="st4" width="19.2" height="1"/>
			<rect x="196.5" y="395.2" class="st4" width="19.2" height="1"/>
			<rect x="196.5" y="376.7" class="st4" width="1" height="19.5"/>
			<rect x="199.5" y="376.7" class="st4" width="1" height="19.5"/>
			<rect x="202.6" y="376.7" class="st4" width="1" height="19.5"/>
			<rect x="205.7" y="376.7" class="st4" width="1" height="19.5"/>
			<rect x="208.8" y="376.7" class="st4" width="1" height="19.5"/>
			<rect x="211.8" y="376.7" class="st4" width="1" height="19.5"/>
			<rect x="214.9" y="376.7" class="st4" width="0.9" height="19.5"/>
		</g>
		<g id="Zombie">
			<rect x="227.3" y="357.4" class="st4" width="9.2" height="10.2"/>
			<rect x="229.3" y="367.6" class="st4" width="14.4" height="5.2"/>
			<rect x="229.3" y="365.5" class="st4" width="5.1" height="30.8"/>
		</g>
		<g id="Zombie_1_">
			<rect x="356.1" y="357.4" class="st4" width="9.2" height="10.2"/>
			<rect x="348.9" y="367.6" class="st4" width="14.4" height="5.2"/>
			<rect x="358.2" y="365.5" class="st4" width="5" height="30.8"/>
		</g>
	</g>
	<g id="Hill_Front">
		<polygon class="st4" points="235.2,437.1 235.2,512 176.4,512 176.4,512 0,512 0,359.6 116.9,359.6 116.9,396.4 196.5,396.4 
			196.5,437.1 		"/>
	</g>
</g>
</svg>
