<?xml version="1.0" encoding="utf-8"?>
<!-- Generator: Adobe Illustrator 23.0.6, SVG Export Plug-In . SVG Version: 6.00 Build 0)  -->
<svg version="1.1" id="orb_of_ankou" xmlns="http://www.w3.org/2000/svg" xmlns:xlink="http://www.w3.org/1999/xlink" x="0px"
	 y="0px" viewBox="0 0 512 512" style="enable-background:new 0 0 512 512;" xml:space="preserve">
<style type="text/css">
	.st0{fill:#FFFFFF;}
	.st1{fill:#4AA0C7;}
	.st2{fill:#7FBCD7;}
	.st3{fill:#3D83A3;}
	.st4{fill:#A1CEE2;}
</style>
<rect x="0" y="0" class="st0" width="512" height="512"/>
<g id="Icon">
	<g id="Orb">
		<g id="Base">
			<rect x="195.8" y="208.38" class="st1" width="121.99" height="203.34"/>
			<rect x="175.45" y="228.71" class="st1" width="162.68" height="162.65"/>
			<rect x="155.12" y="249.05" class="st1" width="203.33" height="122.01"/>
			<rect x="236.45" y="188.04" class="st1" width="40.66" height="244.01"/>
			<rect x="134.79" y="289.73" class="st1" width="244.01" height="40.67"/>
		</g>
		<g id="Colored_Part">
			<rect x="236.45" y="208.38" class="st2" width="40.66" height="20.33"/>
			<rect x="277.12" y="228.71" class="st2" width="40.66" height="20.33"/>
			<rect x="195.8" y="249.05" class="st2" width="40.66" height="20.33"/>
			<rect x="155.12" y="289.73" class="st2" width="20.33" height="40.67"/>
			<rect x="216.12" y="289.73" class="st2" width="40.65" height="40.67"/>
			<rect x="277.12" y="289.73" class="st2" width="20.35" height="40.67"/>
			<rect x="338.13" y="310.04" class="st2" width="20.31" height="40.67"/>
			<rect x="277.12" y="371.05" class="st2" width="40.66" height="20.31"/>
			<rect x="297.47" y="350.7" class="st2" width="20.31" height="40.66"/>
			<rect x="195.8" y="350.7" class="st2" width="40.66" height="20.35"/>
			<rect x="216.12" y="350.7" class="st2" width="20.33" height="40.66"/>
			<rect x="195.8" y="249.05" class="st2" width="20.33" height="40.68"/>
			<rect x="297.47" y="228.71" class="st2" width="20.31" height="40.66"/>
		</g>
		<g id="Border_2_">
			<rect x="236.45" y="188.04" class="st3" width="40.66" height="20.34"/>
			<rect x="195.8" y="208.38" class="st3" width="40.66" height="20.33"/>
			<rect x="277.12" y="208.38" class="st3" width="40.66" height="20.33"/>
			<rect x="195.8" y="391.37" class="st3" width="40.66" height="20.35"/>
			<rect x="236.45" y="411.72" class="st3" width="40.66" height="20.31"/>
			<rect x="277.12" y="391.37" class="st3" width="40.66" height="20.35"/>
			<rect x="338.13" y="249.05" class="st3" width="20.31" height="40.68"/>
			<rect x="358.44" y="289.73" class="st3" width="20.35" height="40.67"/>
			<rect x="155.12" y="249.05" class="st3" width="20.33" height="40.68"/>
			<rect x="134.79" y="289.73" class="st3" width="20.33" height="40.67"/>
			<rect x="155.12" y="330.39" class="st3" width="20.33" height="40.66"/>
			<rect x="175.45" y="228.89" class="st3" width="20.34" height="20.15"/>
			<rect x="175.22" y="371.11" class="st3" width="20.33" height="20.17"/>
			<rect x="317.78" y="371.13" class="st3" width="20.35" height="20.17"/>
			<rect x="338.13" y="350.81" class="st3" width="20.31" height="20.14"/>
			<rect x="358.44" y="330.39" class="st3" width="20.35" height="20.32"/>
			<rect x="317.7" y="228.89" class="st3" width="20.31" height="20.15"/>
		</g>
	</g>
	<g id="Souls">
		<g id="Soul">
			<rect x="138.03" y="130.69" class="st1" width="50.84" height="42.36"/>
			<rect x="146.5" y="122.22" class="st1" width="33.9" height="67.78"/>
			<rect x="154.98" y="113.74" class="st1" width="16.94" height="93.19"/>
			<rect x="163.45" y="198.47" class="st1" width="8.47" height="16.95"/>
			<rect x="180.4" y="130.69" class="st1" width="16.93" height="33.89"/>
			<rect x="171.91" y="122.22" class="st1" width="16.95" height="16.95"/>
			<rect x="163.45" y="113.74" class="st1" width="16.95" height="16.94"/>
			<rect x="146.5" y="139.16" class="st3" width="8.48" height="25.42"/>
			<rect x="154.98" y="147.63" class="st3" width="8.46" height="25.42"/>
			<rect x="154.98" y="122.22" class="st3" width="8.46" height="8.47"/>
			<rect x="171.91" y="139.16" class="st3" width="8.48" height="8.47"/>
			<rect x="146.5" y="147.63" class="st3" width="16.95" height="16.95"/>
		</g>
		<g id="Soul_1_">
			<rect x="312" y="133.27" class="st1" width="34.66" height="28.88"/>
			<rect x="317.78" y="127.48" class="st1" width="23.12" height="46.23"/>
			<rect x="323.57" y="121.71" class="st1" width="11.57" height="63.56"/>
			<rect x="323.57" y="179.49" class="st1" width="5.78" height="11.57"/>
			<rect x="306.25" y="133.27" class="st1" width="11.54" height="23.1"/>
			<rect x="312" y="127.49" class="st1" width="11.57" height="11.55"/>
			<rect x="317.78" y="121.71" class="st1" width="11.57" height="11.56"/>
			<rect x="335.13" y="139.04" class="st3" width="5.77" height="17.33"/>
			<rect x="329.35" y="144.82" class="st3" width="5.78" height="17.33"/>
			<rect x="329.35" y="127.49" class="st3" width="5.78" height="5.78"/>
			<rect x="317.78" y="139.04" class="st3" width="5.78" height="5.78"/>
			<rect x="329.35" y="144.82" class="st3" width="11.55" height="11.56"/>
		</g>
		<g id="Soul_2_">
			<polygon class="st1" points="246.21,59.59 246.18,41.18 295.28,41.15 295.28,59.56 			"/>
			<rect x="276.9" y="53.43" class="st1" width="18.39" height="12.28"/>
			<polygon class="st1" points="276.9,71.86 276.88,35.03 289.13,35.02 289.19,71.85 			"/>
			<polygon class="st1" points="258.46,47.32 258.45,28.89 282.99,28.88 283.03,47.3 			"/>
			<rect x="252.32" y="35.03" class="st1" width="18.43" height="30.69"/>
			<rect x="276.9" y="65.71" class="st1" width="6.14" height="12.27"/>
			<rect x="252.33" y="59.59" class="st1" width="12.29" height="12.28"/>
			<polygon class="st1" points="246.21,65.73 246.2,53.45 258.47,53.44 258.48,65.72 			"/>
			<polygon class="st3" points="283.03,47.29 282.99,35.02 289.13,35.01 289.14,47.28 			"/>
			<polygon class="st3" points="270.74,41.17 270.73,28.89 282.98,28.88 283.03,41.16 			"/>
			<rect x="276.89" y="35.02" class="st3" width="12.25" height="6.14"/>
			<rect x="258.46" y="35.03" class="st3" width="6.14" height="6.14"/>
		</g>
	</g>
	<g id="Particles">
		<g id="Particle_11_">
			<polygon class="st4" points="397.85,390.13 400.47,382.52 408.08,385.14 405.48,392.75 			"/>
			<polygon class="st4" points="392.87,379.86 395.49,372.24 403.09,374.84 400.47,382.48 			"/>
			<polygon class="st4" points="387.63,395.13 390.25,387.5 397.85,390.12 395.23,397.75 			"/>
			<polygon class="st4" points="402.84,400.28 405.44,392.66 413.07,395.28 410.46,402.9 			"/>
			<polygon class="st4" points="408.04,385.15 410.66,377.55 418.26,380.15 415.64,387.77 			"/>
		</g>
		<g id="Particle_10_">
			<polygon class="st4" points="102.83,431.79 105.69,423.29 114.19,426.15 111.33,434.64 			"/>
			<polygon class="st4" points="97.2,420.44 100.05,411.93 108.55,414.78 105.69,423.3 			"/>
			<polygon class="st4" points="91.48,437.43 94.34,428.94 102.84,431.79 99.98,440.28 			"/>
			<polygon class="st4" points="108.46,443.15 111.32,434.64 119.82,437.52 116.97,446.02 			"/>
			<polygon class="st4" points="114.18,426.16 117.05,417.66 125.54,420.52 122.69,429.01 			"/>
		</g>
		<g id="Particle_9_">
			<polygon class="st4" points="82.33,280.4 91.4,275.33 96.47,284.39 87.39,289.45 			"/>
			<polygon class="st4" points="68.19,276.41 77.26,271.34 82.32,280.43 73.25,285.46 			"/>
			<polygon class="st4" points="78.3,294.53 87.38,289.46 92.44,298.55 83.36,303.58 			"/>
			<polygon class="st4" points="96.43,284.4 105.51,279.37 110.57,288.42 101.49,293.49 			"/>
			<polygon class="st4" points="86.37,266.25 95.44,261.22 100.49,270.27 91.42,275.34 			"/>
		</g>
		<g id="Particle_8_">
			<polygon class="st4" points="253.36,148 256.35,140.68 263.69,143.67 260.7,150.99 			"/>
			
				<rect x="250.25" y="131.57" transform="matrix(0.3785 -0.9256 0.9256 0.3785 32.5519 319.5208)" class="st4" width="7.91" height="7.91"/>
			
				<rect x="244.27" y="146.23" transform="matrix(0.378 -0.9258 0.9258 0.378 15.3674 323.2261)" class="st4" width="7.92" height="7.9"/>
			<polygon class="st4" points="257.73,158.34 260.72,151.02 268.02,154.02 265.02,161.34 			"/>
			<polygon class="st4" points="263.68,143.64 266.67,136.31 273.97,139.3 270.98,146.63 			"/>
		</g>
		<g id="Particle_7_">
			<polygon class="st4" points="325.52,443.83 335.48,441.63 337.66,451.55 327.74,453.77 			"/>
			
				<rect x="309.82" y="455.75" transform="matrix(0.9764 -0.2162 0.2162 0.9764 -93.1585 80.1968)" class="st4" width="20.34" height="20.33"/>
			<polygon class="st4" points="332.05,473.59 342,471.39 344.18,481.32 334.27,483.52 			"/>
			<polygon class="st4" points="295.78,450.39 305.73,448.18 307.91,458.12 298,460.31 			"/>
			<polygon class="st4" points="302.33,480.2 312.28,478.01 314.46,487.93 304.55,490.14 			"/>
		</g>
		<g id="Particle_5_">
			<polygon class="st4" points="439.87,252.12 442.1,244.32 449.89,246.56 447.64,254.34 			"/>
			<polygon class="st4" points="419.83,263.23 424.3,247.66 439.87,252.13 435.41,267.68 			"/>
			<polygon class="st4" points="433.17,275.51 435.4,267.69 443.19,269.93 440.95,277.71 			"/>
			<polygon class="st4" points="416.48,245.43 418.72,237.63 426.5,239.88 424.25,247.65 			"/>
			<polygon class="st4" points="409.8,268.81 412.04,261 419.82,263.24 417.58,271.02 			"/>
		</g>
	</g>
</g>
</svg>
