<?xml version="1.0" encoding="utf-8"?>
<!-- Generator: Adobe Illustrator 23.0.6, SVG Export Plug-In . SVG Version: 6.00 Build 0)  -->
<svg version="1.1" id="pig_tractors" xmlns="http://www.w3.org/2000/svg" xmlns:xlink="http://www.w3.org/1999/xlink" x="0px"
	 y="0px" viewBox="0 0 512 512" style="enable-background:new 0 0 512 512;" xml:space="preserve">
<style type="text/css">
	.st0{fill:#FFFFFF;}
	.st1{fill:#A1CEE2;}
	.st2{enable-background:new    ;}
	.st3{fill:#387895;}
	.st4{fill:#145572;}
	.st5{fill:#4AA0C7;}
</style>
<rect class="st0" width="512" height="512"/>
<polygon class="st1" points="0,360.58 0,434.59 0,461.96 0,511.99 50.03,511.99 97.29,511.99 382.53,511.99 382.53,512 512,512 
	512,461.96 512,404.24 512,360.58 "/>
<g>
	<g class="st2">
		<g id="Shape_5">
			<g>
				<polygon class="st3" points="347.9,240.14 303.19,240.14 303.19,255.31 182.72,255.31 179.43,259.25 179.43,317.59 
					302.39,317.59 303.19,301.62 346.31,301.62 349.5,242.53 				"/>
			</g>
		</g>
		<g id="Shape_8">
			<g>
				<polygon class="st3" points="215.36,314.39 186.61,313.59 195.4,361.5 220.02,357.11 220.95,354.31 				"/>
			</g>
		</g>
		<g id="Shape_10">
			<g>
				<polygon class="st3" points="254.49,317.18 244.9,353.91 246.5,356.3 268.85,361.89 280.83,317.98 				"/>
			</g>
		</g>
		<g id="Shape_7">
			<g>
				<path class="st3" d="M178.41,311.38l-4.57,3.81l-10.38,39.92c-0.14,0.51,29.14,8.6,29.14,8.6s2.45-1.98,2.4-2.05l10.32-46.41
					L178.41,311.38z"/>
			</g>
		</g>
		<g id="Shape_9">
			<g>
				<path class="st3" d="M294.29,312.72l-38.12,4.07l14.89,47.2l3.38,2.36l34.23-10.39C308.67,355.96,294.37,313.36,294.29,312.72z"
					/>
			</g>
		</g>
	</g>
	<g>
		<path class="st4" d="M262.47,258.67l0.8-8.78h-51.9v9.58h15.17l0.8,44.71h-7.98l-0.08,17.21l24.83,0.02l-0.02-17.03l-7.97-0.2
			v-44.72L262.47,258.67z M235.88,314.97h-8.11v-5.6h8.11V314.97z"/>
	</g>
	<g>
		
			<rect x="311.74" y="146.99" transform="matrix(0.9883 -0.1524 0.1524 0.9883 -19.1235 49.6235)" class="st3" width="4.8" height="5.14"/>
		
			<rect x="312.62" y="152.1" transform="matrix(0.9883 -0.1528 0.1528 0.9883 -19.9344 49.9497)" class="st3" width="4.8" height="5.14"/>
		
			<rect x="315.71" y="141.17" transform="matrix(0.9883 -0.1524 0.1524 0.9883 -18.1901 50.1606)" class="st3" width="4.8" height="5.14"/>
		
			<rect x="316.5" y="146.27" transform="matrix(0.9883 -0.1526 0.1526 0.9883 -18.9781 50.4073)" class="st3" width="4.8" height="5.14"/>
		
			<rect x="317.28" y="151.33" transform="matrix(0.9883 -0.1524 0.1524 0.9883 -19.7203 50.5178)" class="st3" width="4.79" height="5.14"/>
		
			<rect x="318.07" y="156.37" transform="matrix(0.9884 -0.1517 0.1517 0.9884 -20.4023 50.4556)" class="st3" width="4.79" height="5.14"/>
		
			<rect x="320.5" y="140.46" transform="matrix(0.9883 -0.1528 0.1528 0.9883 -18.0633 51.0171)" class="st3" width="4.8" height="5.14"/>
		
			<rect x="321.23" y="145.52" transform="matrix(0.9884 -0.152 0.152 0.9884 -18.7492 50.9109)" class="st3" width="4.8" height="5.14"/>
		
			<rect x="322.03" y="150.61" transform="matrix(0.9883 -0.1524 0.1524 0.9883 -19.555 51.234)" class="st3" width="4.8" height="5.14"/>
		
			<rect x="322.81" y="155.68" transform="matrix(0.9883 -0.1526 0.1526 0.9883 -20.3402 51.4804)" class="st3" width="4.8" height="5.14"/>
		
			<rect x="323.6" y="160.79" transform="matrix(0.9882 -0.153 0.153 0.9882 -21.1558 51.8029)" class="st3" width="4.8" height="5.14"/>
		
			<rect x="326.01" y="144.82" transform="matrix(0.9883 -0.1526 0.1526 0.9883 -18.6454 51.8416)" class="st3" width="4.8" height="5.14"/>
		
			<rect x="326.76" y="149.87" transform="matrix(0.9882 -0.153 0.153 0.9882 -19.4479 52.1571)" class="st3" width="4.79" height="5.14"/>
		
			<rect x="327.53" y="154.94" transform="matrix(0.9883 -0.1524 0.1524 0.9883 -20.1507 52.122)" class="st3" width="4.79" height="5.14"/>
		
			<rect x="328.33" y="160.06" transform="matrix(0.9882 -0.153 0.153 0.9882 -20.9885 52.518)" class="st3" width="4.8" height="5.14"/>
		
			<rect x="329.14" y="165.1" transform="matrix(0.9884 -0.1518 0.1518 0.9884 -21.6102 52.2701)" class="st3" width="4.79" height="5.14"/>
		
			<rect x="329.87" y="170.17" transform="matrix(0.9881 -0.1535 0.1535 0.9881 -22.5794 53.0529)" class="st3" width="4.79" height="5.14"/>
		
			<rect x="332.33" y="154.25" transform="matrix(0.9883 -0.1524 0.1524 0.9883 -19.9895 52.8455)" class="st3" width="4.79" height="5.14"/>
		
			<rect x="333.11" y="159.31" transform="matrix(0.9884 -0.1522 0.1522 0.9884 -20.7279 52.9466)" class="st3" width="4.79" height="5.14"/>
		
			<rect x="333.9" y="164.39" transform="matrix(0.9884 -0.1521 0.1521 0.9884 -21.4818 53.0922)" class="st3" width="4.8" height="5.14"/>
		
			<rect x="334.65" y="169.45" transform="matrix(0.9883 -0.1524 0.1524 0.9883 -22.2788 53.3774)" class="st3" width="4.8" height="5.14"/>
		
			<rect x="335.44" y="174.53" transform="matrix(0.9883 -0.1524 0.1524 0.9883 -23.0437 53.5571)" class="st3" width="4.8" height="5.14"/>
		
			<rect x="337.81" y="158.6" transform="matrix(0.9882 -0.153 0.153 0.9882 -20.6535 53.9513)" class="st3" width="4.8" height="5.14"/>
		
			<rect x="338.65" y="163.63" transform="matrix(0.9884 -0.1521 0.1521 0.9884 -21.311 53.8058)" class="st3" width="4.8" height="5.14"/>
		
			<rect x="339.36" y="168.71" transform="matrix(0.9883 -0.1524 0.1524 0.9883 -22.111 54.0865)" class="st3" width="4.8" height="5.14"/>
	</g>
	<g>
		<g>
			<g>
				
					<rect x="294.34" y="191.25" transform="matrix(0.9883 -0.1523 0.1523 0.9883 -26.0572 47.4552)" class="st5" width="4.79" height="5.14"/>
				<polygon class="st5" points="305.88,174.23 305.88,174.21 310.56,173.48 309.78,168.41 309.79,168.41 309,163.33 304.26,164.06 
					305.04,169.14 305.04,169.14 305.05,169.18 300.36,169.91 301.15,174.97 301.12,174.97 301.12,174.97 296.38,175.7 
					297.16,180.78 301.89,180.05 301.89,180.05 301.89,180.05 301.9,180.08 297.18,180.8 297.96,185.85 297.95,185.85 
					297.17,180.78 292.43,181.51 293.21,186.56 288.48,187.28 289.26,192.36 294,191.63 293.22,186.59 293.22,186.59 294.01,191.66 
					298.73,190.93 298.73,190.93 303.46,190.2 302.69,185.15 302.7,185.15 302.69,185.11 307.42,184.39 306.63,179.31 
					306.62,179.31 305.85,174.26 305.87,174.26 306.65,179.31 311.38,178.58 310.6,173.51 				"/>
				
					<rect x="310.12" y="168.04" transform="matrix(0.9883 -0.1524 0.1524 0.9883 -22.3505 49.6218)" class="st5" width="4.79" height="5.14"/>
				<polygon class="st5" points="313.79,162.64 313.79,162.61 318.51,161.89 317.73,156.81 312.99,157.54 313.77,162.6 
					313.77,162.6 312.99,157.54 308.25,158.27 309.03,163.35 309.05,163.35 309.83,168.4 314.54,167.67 314.55,167.72 
					319.28,166.99 318.5,161.92 				"/>
				
					<rect x="325.23" y="139.67" transform="matrix(0.9884 -0.1521 0.1521 0.9884 -17.8228 51.4859)" class="st5" width="4.8" height="5.14"/>
				<polygon class="st5" points="252.13,206.28 285.14,226.83 300.79,204.94 300.63,201.15 294.9,197.57 294.78,196.74 
					293.81,196.89 293.8,196.89 294.75,196.74 293.97,191.66 289.22,192.4 289.23,192.42 287.17,192.74 252.9,171.32 253.29,153.1 
					262.58,153.79 266.27,151.95 269.04,92.23 267.2,90.39 201.6,87.63 200.68,149.2 215.5,150.3 215.64,163.29 205.88,177.48 
					215.84,183.69 216.38,236.48 221.17,236.91 220.44,251.47 301.64,268.03 305.12,263.27 308.49,235.52 251.7,225.91 				"/>
				<polygon class="st5" points="493.03,355.44 493.03,350.11 488.2,350.11 487.69,350.11 481.1,350.11 481.1,355.44 481.1,360.78 
					487.69,360.78 488.2,360.78 493.03,360.78 498.36,360.78 498.36,355.44 				"/>
				<polygon class="st5" points="471.69,350.11 466.35,350.11 461.01,350.11 461.01,355.44 455.68,355.44 450.34,355.44 
					450.34,350.11 445.01,350.11 439.67,350.11 439.67,355.44 434.33,355.44 434.33,360.78 439.67,360.78 445.01,360.78 
					450.34,360.78 455.68,360.78 461.01,360.78 466.35,360.78 471.69,360.78 477.02,360.78 482.35,360.78 482.35,355.44 
					482.35,350.11 477.02,350.11 				"/>
				<polygon class="st5" points="407.66,350.11 402.32,350.11 396.98,350.11 391.65,350.11 386.32,350.11 380.98,350.11 
					375.64,350.11 375.64,355.44 370.31,355.44 364.97,355.44 364.97,350.11 359.64,350.11 354.3,350.11 354.3,355.44 
					348.96,355.44 348.96,360.78 354.3,360.78 359.64,360.78 364.97,360.78 370.31,360.78 375.64,360.78 380.98,360.78 
					386.32,360.78 391.65,360.78 396.98,360.78 402.32,360.78 407.66,360.78 412.99,360.78 412.99,355.44 407.66,355.44 				"/>
			</g>
			<g>
				<polygon class="st3" points="493.03,307.42 487.69,307.42 487.69,312.76 482.36,312.76 482.36,318.09 477.02,318.09 
					477.02,312.76 477.02,307.42 477.02,302.08 482.36,302.08 482.36,296.75 487.69,296.75 487.69,291.41 482.36,291.41 
					477.02,291.41 477.02,296.75 471.69,296.75 471.69,302.08 471.69,307.42 466.35,307.42 466.35,302.08 466.35,296.75 
					461.01,296.75 461.01,302.08 461.01,307.42 455.68,307.42 455.68,302.08 450.34,302.08 445.01,302.08 445.01,307.42 
					450.34,307.42 450.34,312.76 450.34,318.09 445.01,318.09 445.01,312.76 445.01,307.42 439.67,307.42 439.67,312.76 
					439.67,318.09 434.33,318.09 429,318.09 429,323.43 434.33,323.43 434.33,328.77 439.67,328.77 439.67,334.1 439.67,339.44 
					439.67,344.77 439.67,350.11 445.01,350.11 450.34,350.11 450.34,344.77 450.34,339.44 455.68,339.44 455.68,344.77 
					461.01,344.77 461.01,350.11 466.35,350.11 471.69,350.11 471.69,344.77 477.02,344.77 477.02,339.44 482.36,339.44 
					482.36,344.77 482.36,350.11 487.69,350.11 493.03,350.11 493.03,344.77 493.03,339.44 498.36,339.44 498.36,334.1 
					498.36,328.77 498.36,323.43 503.7,323.43 503.7,318.09 498.36,318.09 493.03,318.09 493.03,312.76 				"/>
				<polygon class="st3" points="402.32,312.76 396.98,312.76 396.98,318.09 391.65,318.09 391.65,312.76 391.65,307.42 
					391.65,302.08 396.98,302.08 396.98,296.75 402.32,296.75 402.32,291.41 396.98,291.41 391.65,291.41 391.65,296.75 
					386.32,296.75 386.32,302.08 386.32,307.42 380.98,307.42 380.98,302.08 380.98,296.75 375.64,296.75 375.64,302.08 
					375.64,307.42 370.31,307.42 370.31,302.08 364.97,302.08 359.64,302.08 359.64,307.42 364.97,307.42 364.97,312.76 
					364.97,318.09 359.64,318.09 359.64,312.76 359.64,307.42 354.3,307.42 354.3,312.76 354.3,318.09 348.96,318.09 343.63,318.09 
					343.63,323.43 348.96,323.43 348.96,328.77 354.3,328.77 354.3,334.1 354.3,339.44 354.3,344.77 354.3,350.11 359.64,350.11 
					364.97,350.11 364.97,344.77 364.97,339.44 370.31,339.44 370.31,344.77 375.64,344.77 375.64,350.11 380.98,350.11 
					386.32,350.11 386.32,344.77 391.65,344.77 391.65,339.44 396.98,339.44 396.98,344.77 396.98,350.11 402.32,350.11 
					407.66,350.11 407.66,344.77 407.66,339.44 412.99,339.44 412.99,334.1 412.99,328.77 412.99,323.43 418.33,323.43 
					418.33,318.09 412.99,318.09 407.66,318.09 407.66,312.76 407.66,307.42 402.32,307.42 				"/>
				<rect x="493.03" y="302.08" class="st3" width="5.33" height="5.34"/>
				<rect x="407.66" y="302.08" class="st3" width="5.34" height="5.34"/>
				<rect x="498.36" y="296.75" class="st3" width="5.34" height="5.33"/>
				<rect x="439.67" y="296.75" class="st3" width="5.34" height="5.33"/>
				<rect x="412.99" y="296.75" class="st3" width="5.33" height="5.33"/>
				<rect x="354.3" y="296.75" class="st3" width="5.34" height="5.33"/>
				<rect x="455.68" y="291.41" class="st3" width="5.33" height="5.34"/>
				<rect x="434.33" y="291.41" class="st3" width="5.33" height="5.34"/>
				<rect x="370.31" y="291.41" class="st3" width="5.34" height="5.34"/>
				<rect x="348.96" y="291.41" class="st3" width="5.33" height="5.34"/>
			</g>
		</g>
		<g>
			<rect x="317.14" y="355.37" class="st3" width="5.32" height="5.32"/>
			<rect x="295.86" y="355.37" class="st3" width="5.31" height="5.32"/>
			<rect x="274.58" y="355.37" class="st3" width="5.32" height="5.32"/>
			<polygon class="st3" points="327.77,350.05 322.45,350.05 322.45,355.37 327.77,355.37 333.09,355.37 333.09,350.05 			"/>
			<polygon class="st3" points="311.82,350.05 311.82,344.74 306.5,344.74 301.18,344.74 301.18,350.05 301.18,355.37 306.5,355.37 
				311.82,355.37 317.14,355.37 317.14,350.05 			"/>
			<polygon class="st3" points="269.26,350.05 263.94,350.05 263.94,355.37 269.26,355.37 274.58,355.37 274.58,350.05 			"/>
			<polygon class="st3" points="295.86,344.74 290.54,344.74 285.22,344.74 285.22,350.05 279.9,350.05 279.9,355.37 285.22,355.37 
				290.54,355.37 295.86,355.37 295.86,350.05 			"/>
			<polygon class="st3" points="237.35,350.01 237.35,350.05 237.35,355.32 232.03,355.32 232.03,350.05 232.03,350.01 
				226.71,350.01 226.71,344.74 226.71,344.69 221.39,344.69 216.07,344.69 216.07,344.74 216.07,350.01 216.07,350.05 
				216.07,355.32 210.75,355.32 210.75,350.05 210.75,350.01 210.75,344.74 210.75,344.69 205.43,344.69 200.11,344.69 
				200.11,344.74 200.11,350.01 194.79,350.01 194.79,350.05 194.79,350.05 194.79,355.32 189.47,355.32 189.47,350.05 
				189.47,350.01 184.15,350.01 178.84,350.01 178.84,350.05 178.83,350.05 178.83,355.37 178.84,355.37 184.15,355.37 
				189.47,355.37 189.47,360.65 189.47,360.69 194.79,360.69 194.79,360.69 194.79,360.65 194.79,355.37 200.11,355.37 
				205.43,355.37 210.75,355.37 210.75,360.69 210.75,360.69 216.07,360.69 216.07,360.65 216.07,355.37 221.39,355.37 
				226.71,355.37 226.71,355.37 232.03,355.37 232.03,360.65 232.03,360.69 237.35,360.69 237.35,360.65 237.35,355.37 
				242.67,355.37 242.67,355.37 247.99,355.37 247.99,355.32 247.99,350.05 247.99,350.01 242.67,350.01 			"/>
			<rect x="61.81" y="355.32" class="st3" width="5.32" height="5.32"/>
			<rect x="40.53" y="355.32" class="st3" width="5.32" height="5.32"/>
			<rect x="19.26" y="355.32" class="st3" width="5.32" height="5.32"/>
			<polygon class="st3" points="157.56,350.01 152.24,350.01 152.24,350.05 152.24,355.32 146.92,355.32 146.92,350.05 
				146.92,350.01 141.6,350.01 141.6,344.69 141.6,344.69 136.28,344.69 130.96,344.69 130.96,344.74 130.96,350.01 130.96,350.05 
				130.96,355.32 125.64,355.32 125.64,350.01 125.64,344.69 125.64,344.69 120.32,344.69 115.01,344.69 115.01,344.74 
				115.01,350.01 109.68,350.01 109.68,350.01 109.68,350.05 109.68,355.32 104.37,355.32 104.37,350.05 104.37,350.01 
				99.05,350.01 93.73,350.01 93.72,350.01 93.72,350.05 93.72,355.32 93.72,355.37 99.05,355.37 104.37,355.37 104.37,360.65 
				104.37,360.69 109.68,360.69 109.68,360.65 109.68,360.65 109.68,355.37 115.01,355.37 120.32,355.37 125.64,355.37 
				125.64,360.65 125.64,360.69 130.96,360.69 130.96,360.65 130.96,355.37 136.28,355.37 141.6,355.37 146.92,355.37 
				146.92,360.65 146.92,360.69 152.24,360.69 152.24,360.65 152.24,355.37 157.56,355.37 162.88,355.37 162.88,355.32 
				162.88,350.05 162.88,350.01 			"/>
			<polygon class="st3" points="67.13,350.01 67.13,355.32 72.45,355.32 77.77,355.32 77.77,350.01 72.45,350.01 			"/>
			<polygon class="st3" points="56.49,350.01 56.49,344.69 51.18,344.69 45.86,344.69 45.86,350.01 45.86,355.32 51.18,355.32 
				56.49,355.32 61.81,355.32 61.81,350.01 			"/>
			<polygon class="st3" points="13.94,350.01 8.62,350.01 8.62,355.32 13.94,355.32 19.26,355.32 19.26,350.01 			"/>
			<polygon class="st3" points="40.53,344.69 35.22,344.69 29.9,344.69 29.9,350.01 24.58,350.01 24.58,355.32 29.9,355.32 
				35.22,355.32 40.53,355.32 40.53,350.01 			"/>
		</g>
	</g>
</g>
</svg>
