<?xml version="1.0" encoding="utf-8"?>
<!-- Generator: Adobe Illustrator 19.0.0, SVG Export Plug-In . SVG Version: 6.00 Build 0)  -->
<svg version="1.1" xmlns="http://www.w3.org/2000/svg" xmlns:xlink="http://www.w3.org/1999/xlink" x="0px" y="0px"
	 viewBox="0 0 1000 1000" style="enable-background:new 0 0 1000 1000;" xml:space="preserve">
<style type="text/css">
	.st0{fill:#FFFFFF;}
	.st1{fill:#4AA0C7;}
	.st2{fill:#86CCEA;}
	.st3{fill:#65B6D9;}
	.st4{fill:#C3E2F1;}
</style>
<g id="Layer_2">
	<rect id="XMLID_391_" class="st0" width="1000" height="1000"/>
</g>
<g id="Layer_3">
	<polygon id="XMLID_559_" class="st1" points="784.3,395.4 659.2,395.7 670.1,188.7 670.1,188.7 670.1,188.7 670.1,188.7 
		670.1,188.7 647.1,86.9 500.2,86.9 499.8,86.9 352.9,86.9 329.9,188.7 329.9,188.7 329.9,188.7 329.9,188.7 329.9,188.7 
		340.8,395.7 215.7,395.4 150,647.2 150,647.3 169.8,780.5 249.3,780.5 284,753.8 462,542.2 500,519.2 538,542.2 716,753.8 
		750.8,780.5 830.2,780.5 850,647.3 850,647.2 	"/>
	<polygon id="XMLID_558_" class="st2" points="712.9,462.1 500,518.9 287.1,462.1 227,488.1 236.5,500.9 450.5,556.6 499.8,556.6 
		500.2,556.6 549.5,556.6 763.5,500.9 773,488.1 	"/>
	<polygon id="XMLID_557_" class="st3" points="630.8,528.2 551.3,550.7 500.2,550.7 499.8,550.7 448.8,550.7 369.3,528.2 227,488.1 
		227,488.1 245.3,729.1 249.3,780.6 253.3,833.5 455,918 499.8,918 500.2,918 545,918 746.7,833.5 750.8,780.6 754.7,729.1 
		773,488.1 773,488.1 	"/>
	<g id="XMLID_396_">
		<g id="XMLID_519_">
			<path id="XMLID_548_" class="st4" d="M395.3,613.8c-0.2-7.9-6.7-16.7-14.2-18.9l-82.4-23.9c-7-2-12.3,3.1-11.7,11.3l6,91.2
				c0.5,7.8,6.5,16.1,13.3,18.4l79.9,27c7.3,2.5,13.1-2.1,12.7-10.8L395.3,613.8z M385.3,708.9l-79.2-26.5c-2.5-0.8-4.7-3.9-4.9-6.7
				l-5.8-90.4c-0.2-3,1.7-4.9,4.3-4.1l81.3,23.9c2.7,0.8,5.1,4,5.2,7.1l3.7,92.9C390.1,708.1,388,709.8,385.3,708.9z"/>
			<path id="XMLID_545_" class="st4" d="M361.7,629.6l13.7,4.2c1.1,0.3,2-0.4,1.9-1.7l-0.7-15.6c-0.1-1.3-1-2.6-2.1-2.9l-13.7-4.1
				c-1.1-0.3-2,0.4-1.9,1.7l0.7,15.5C359.6,627.9,360.6,629.2,361.7,629.6z"/>
			<path id="XMLID_541_" class="st4" d="M376.8,665.5c1.1,0.4,2-0.4,1.9-1.6l-0.7-15.4c-0.1-1.3-1-2.6-2.1-2.9l-13.6-4.2
				c-1.1-0.3-1.9,0.4-1.9,1.6l0.7,15.3c0.1,1.2,0.9,1.9,2,2.2L376.8,665.5z"/>
			<path id="XMLID_538_" class="st4" d="M377.2,676.4l-13.5-4.4c-1.1-0.4-1.9,0.4-1.9,1.6l0.7,15c0.1,1.2,1,2.5,2.1,2.9l13.4,4.4
				c1.1,0.4,2-0.3,1.9-1.6l-0.6-15.1C379.2,678,378.3,676.7,377.2,676.4z"/>
			<path id="XMLID_535_" class="st4" d="M334.7,621.9l13.4,4.1c1.1,0.3,1.9-0.4,1.9-1.7l-0.9-16.1c-0.1-1.3-0.9-1.9-2-2.2l-13.4-4
				c-1.1-0.3-1.9,0.4-1.8,1.7l0.8,15.4C332.7,620.3,333.6,621.6,334.7,621.9z"/>
			<path id="XMLID_532_" class="st4" d="M336.3,652l13.3,4.2c1.1,0.3,1.9-0.4,1.9-1.6l-0.8-15.2c-0.1-1.2-1-2.5-2.1-2.9l-13.3-4.1
				c-1.1-0.3-1.9,0.4-1.8,1.6l0.8,15.1C334.3,650.3,335.2,651.6,336.3,652z"/>
			<path id="XMLID_529_" class="st4" d="M350.1,667.1l-13.2-4.3c-1.1-0.3-1.9,0.4-1.8,1.6l0.8,14.9c0.1,1.2,1,2.5,2,2.8l13.2,4.3
				c1.1,0.4,1.9-0.3,1.8-1.6l-0.7-15C352.1,668.7,351.2,667.5,350.1,667.1z"/>
			<path id="XMLID_526_" class="st4" d="M308.2,613.8l13.1,4c1.1,0.3,1.9-0.4,1.7-2.3l-0.9-15.4c0-0.6-0.9-1.9-2-2.2L307,594
				c-1.1-0.3-1.9,0.4-1.8,1.7l0.9,15.3C306.2,612.2,307.2,613.5,308.2,613.8z"/>
			<path id="XMLID_523_" class="st4" d="M310,643.6l13,4.1c1.1,0.3,1.9-0.4,1.8-1.6l-0.9-15.1c-0.1-1.2-1-2.5-2.1-2.8l-13.1-4.1
				c-1.1-0.3-1.9,0.4-1.8,1.6l0.9,15C308,642,308.9,643.3,310,643.6z"/>
			<path id="XMLID_520_" class="st4" d="M323.6,658.6l-13-4.2c-1-0.3-1.8,0.4-1.8,1.6l0.9,14.8c0.1,1.2,1,2.4,2,2.8l12.9,4.3
				c1.1,0.3,1.9-0.3,1.8-1.5l-0.8-14.9C325.6,660.2,324.7,658.9,323.6,658.6z"/>
		</g>
		<g id="XMLID_397_">
			<path id="XMLID_511_" class="st4" d="M601.2,708c-0.4,8.7,5.4,13.3,12.7,10.8l79.9-27c6.8-2.3,12.8-10.6,13.3-18.4l6-91.2
				c0.5-8.3-4.7-13.4-11.7-11.3l-82.4,23.9c-7.5,2.2-14,11-14.2,18.9L601.2,708z M610,705.1l3.7-92.9c0.1-3.1,2.5-6.3,5.2-7.1
				l81.3-23.9c2.6-0.8,4.5,1.1,4.3,4.1l-5.8,90.4c-0.2,2.9-2.4,5.9-4.9,6.7l-79.2,26.5C612,709.8,609.9,708.1,610,705.1z"/>
			<path id="XMLID_508_" class="st4" d="M638.3,629.6l-13.7,4.2c-1.1,0.3-2-0.4-1.9-1.7l0.7-15.6c0.1-1.3,1-2.6,2.1-2.9l13.7-4.1
				c1.1-0.3,2,0.4,1.9,1.7l-0.7,15.5C640.4,627.9,639.4,629.2,638.3,629.6z"/>
			<path id="XMLID_505_" class="st4" d="M623.3,665.5c-1.1,0.4-2-0.4-1.9-1.6l0.7-15.4c0.1-1.3,1-2.6,2.1-2.9l13.6-4.2
				c1.1-0.3,1.9,0.4,1.9,1.6l-0.7,15.3c-0.1,1.2-0.9,1.9-2,2.2L623.3,665.5z"/>
			<path id="XMLID_485_" class="st4" d="M622.9,676.4l13.5-4.4c1.1-0.4,1.9,0.4,1.9,1.6l-0.7,15c-0.1,1.2-1,2.5-2.1,2.9l-13.4,4.4
				c-1.1,0.4-2-0.3-1.9-1.6l0.6-15.1C620.8,678,621.8,676.7,622.9,676.4z"/>
			<path id="XMLID_480_" class="st4" d="M665.3,621.9l-13.4,4.1c-1.1,0.3-1.9-0.4-1.9-1.7l0.9-16.1c0.1-1.3,0.9-1.9,2-2.2l13.4-4
				c1.1-0.3,1.9,0.4,1.8,1.7l-0.8,15.4C667.3,620.3,666.4,621.6,665.3,621.9z"/>
			<path id="XMLID_468_" class="st4" d="M663.7,652l-13.3,4.2c-1.1,0.3-1.9-0.4-1.9-1.6l0.8-15.2c0.1-1.2,1-2.5,2.1-2.9l13.3-4.1
				c1.1-0.3,1.9,0.4,1.8,1.6l-0.8,15.1C665.7,650.3,664.8,651.6,663.7,652z"/>
			<path id="XMLID_465_" class="st4" d="M649.9,667.1l13.2-4.3c1.1-0.3,1.9,0.4,1.8,1.6l-0.8,14.9c-0.1,1.2-1,2.5-2,2.8l-13.2,4.3
				c-1.1,0.4-1.9-0.3-1.8-1.6l0.7-15C647.9,668.7,648.8,667.5,649.9,667.1z"/>
			<path id="XMLID_462_" class="st4" d="M691.8,613.8l-13.1,4c-1.1,0.3-1.9-0.4-1.7-2.3l0.9-15.4c0-0.6,0.9-1.9,2-2.2L693,594
				c1.1-0.3,1.9,0.4,1.8,1.7l-0.9,15.3C693.8,612.2,692.9,613.5,691.8,613.8z"/>
			<path id="XMLID_453_" class="st4" d="M690,643.6l-13,4.1c-1.1,0.3-1.9-0.4-1.8-1.6l0.9-15.1c0.1-1.2,1-2.5,2.1-2.8l13.1-4.1
				c1.1-0.3,1.9,0.4,1.8,1.6l-0.9,15C692,642,691.1,643.3,690,643.6z"/>
			<path id="XMLID_398_" class="st4" d="M676.4,658.6l13-4.2c1-0.3,1.8,0.4,1.8,1.6l-0.9,14.8c-0.1,1.2-1,2.4-2,2.8l-12.9,4.3
				c-1.1,0.3-1.9-0.3-1.8-1.5l0.8-14.9C674.4,660.2,675.4,658.9,676.4,658.6z"/>
		</g>
	</g>
	<g id="XMLID_393_">
		<polygon id="XMLID_395_" class="st1" points="222,629.7 261.7,648.5 238.9,749.5 192.3,710.1 		"/>
		<polygon id="XMLID_394_" class="st1" points="778,629.7 738.3,648.5 761.1,749.5 807.7,710.1 		"/>
	</g>
</g>
</svg>
