<?xml version="1.0" encoding="utf-8"?>
<!-- Generator: Adobe Illustrator 23.0.6, SVG Export Plug-In . SVG Version: 6.00 Build 0)  -->
<svg version="1.1"
	 id="sweethearts" xmlns:cc="http://creativecommons.org/ns#" xmlns:dc="http://purl.org/dc/elements/1.1/" xmlns:inkscape="http://www.inkscape.org/namespaces/inkscape" xmlns:rdf="http://www.w3.org/1999/02/22-rdf-syntax-ns#" xmlns:sodipodi="http://sodipodi.sourceforge.net/DTD/sodipodi-0.dtd" xmlns:svg="http://www.w3.org/2000/svg"
	 xmlns="http://www.w3.org/2000/svg" xmlns:xlink="http://www.w3.org/1999/xlink" x="0px" y="0px" viewBox="0 0 512 512"
	 style="enable-background:new 0 0 512 512;" xml:space="preserve">
<style type="text/css">
	.st0{fill:#FFFFFF;}
	.st1{fill:#4B97BF;}
</style>
<rect class="st0" width="512" height="512"/>
<g>
	<polygon class="st1" points="347.22,73.92 321.16,73.92 321.16,47.95 295.09,47.95 269.03,47.95 269.03,73.92 242.98,73.92 
		242.98,47.95 216.9,47.95 190.85,47.95 190.85,73.92 164.79,73.92 164.79,99.89 138.73,99.89 138.73,125.85 138.73,151.82 
		138.73,177.77 164.79,177.77 164.79,203.74 190.85,203.74 190.85,229.71 216.9,229.71 216.9,255.66 242.98,255.66 242.98,281.64 
		242.98,307.59 242.98,333.55 216.9,333.55 190.85,333.55 190.85,359.53 216.9,359.53 216.9,385.48 242.98,385.48 242.98,411.46 
		242.98,437.41 242.98,463.39 269.03,463.39 269.03,437.41 295.09,437.41 295.09,411.46 295.09,385.48 269.03,385.48 269.03,359.53 
		269.03,333.55 269.03,307.59 295.09,307.59 295.09,281.64 269.03,281.64 269.03,255.66 295.09,255.66 295.09,229.71 321.16,229.71 
		321.16,203.74 347.22,203.74 347.22,177.77 373.28,177.77 373.28,151.82 373.28,125.85 373.28,99.89 347.22,99.89 	"/>
</g>
</svg>
