<?xml version="1.0" encoding="utf-8"?>
<!-- Generator: Adobe Illustrator 23.0.6, SVG Export Plug-In . SVG Version: 6.00 Build 0)  -->
<svg version="1.1" id="vecto_shamir" xmlns="http://www.w3.org/2000/svg" xmlns:xlink="http://www.w3.org/1999/xlink" x="0px"
	 y="0px" viewBox="0 0 512 512" style="enable-background:new 0 0 512 512;" xml:space="preserve">
<style type="text/css">
	.st0{fill:#FFFFFF;}
	.st1{fill:#DBECF4;}
	.st2{fill:#3D83A3;}
	.st3{fill:#4AA0C7;}
	.st4{fill:#7FBCD7;}
</style>
<g id="Background">
	<rect class="st0" width="512" height="512"/>
</g>
<g id="Icon">
	<polygon id="Ray" class="st1" points="303.6,453.2 171.2,459 89.7,456.7 109.7,412.2 131.1,397.2 181.3,387.2 331.1,349.4 	"/>
	<g id="Minecart">
		<g id="Wheels">
			<path class="st2" d="M325.5,441.9h13.3c3.3,0,5.9,2.6,5.9,5.9v5.2c0,3.3,0.4,5.9-2.9,5.9h-16.3c-3.3,0-5.9-2.6-5.9-5.9v-5.2
				C319.6,444.6,322.2,441.9,325.5,441.9z"/>
			<path class="st2" d="M400.9,441.9h13.3c3.3,0,5.9,2.6,5.9,5.9v5.2c0,3.3-2.6,5.9-5.9,5.9h-13.3c-3.3,0-5.9-2.6-5.9-5.9v-5.2
				C395,444.6,397.6,441.9,400.9,441.9z"/>
		</g>
		<polygon id="Outside" class="st3" points="458.1,416.9 435.4,453.2 303.6,453.2 298.7,389.2 331.1,349.4 461.5,349.4 		"/>
		<g id="Inside">
			<polygon class="st2" points="336.2,384.2 313.8,384.2 336.1,355.4 			"/>
			<polygon class="st2" points="436.2,384 338.2,384.2 338.2,355.4 451.8,355.4 			"/>
		</g>
	</g>
	<g id="Player">
		<path class="st2" d="M181.7,249.9l-20.8-4.4l-33.1,2.2c0,0-19.7,6.9-20.1,7.7c-0.4,0.7-6,5.8-6,5.8l-0.9,5.7l-5.3-5l1.2-11.5
			l-3.4-3l1.4-9.9l17.7-12.3c0,0,31.3,0.6,31.7,0.7c0.4,0.1,30.2,1.6,30.2,1.6s4.7,2.4,4.6,2.6c-0.1,0.2,3.8,10.8,3.8,10.8"/>
		<path class="st4" d="M161.9,281.7l-56.5-14l-4.6-5.9l6.5-39.7l71.7,11.8l-8.8,48.2"/>
		<polyline class="st2" points="181.1,249 182.4,242 181,239.9 179.8,249.5 177.4,249 179.4,237.5 177.5,234.5 176,243.3 
			174.7,241.8 135.7,235.3 134.1,244.8 94.7,238.3 102.8,190 181.5,203.2 186.7,221.5 181.7,249.9 181.7,249.9 		"/>
		<polygon class="st4" points="162.1,303.2 185.3,353.8 159.7,365.9 160.1,363 		"/>
		<path class="st2" d="M113,243.6l43.6,20l6.3,10.3l-2.3,5.4l1.4,2.9l1.1,0v3.1l8.6,20.3l-6.4,4.7l-3.6-7.5l0.4,46.9l-0.5-0.9v7
			l-1.4-2l-0.1,12.5l15.3,19.7l5.8,1.4l31.1,40.8l-1.8,2.5L171.2,459l-32.6-44.1l3.4-2.9l-7.7-10.3l-7.6,10.4l3,2.1l-31.8,40.9
			l-8.1,1.6L53.3,429l33-42.5l5.9-0.2l17.3-23l-1.2-36.4l-1.6-28.7l-9.4-9.4l-1,2.2L92,286l20.8-43"/>
		<polyline class="st4" points="75.9,344.3 106,360 111.5,360 135.3,306.4 101.3,290.8 		"/>
	</g>
	<g id="Vecto_Particles">
		<g>
			
				<rect x="229.1" y="449" transform="matrix(0.5307 -0.8476 0.8476 0.5307 -274.6032 410.4265)" class="st3" width="8.4" height="8.4"/>
			
				<rect x="233.5" y="459.6" transform="matrix(0.5307 -0.8476 0.8476 0.5307 -280.5835 415.767)" class="st3" width="3.3" height="3.3"/>
			
				<rect x="239.7" y="449.7" transform="matrix(0.5307 -0.8476 0.8476 0.5307 -269.2595 416.376)" class="st3" width="3.3" height="3.3"/>
			
				<rect x="229.7" y="443.4" transform="matrix(0.5307 -0.8476 0.8476 0.5307 -268.6501 405.0444)" class="st3" width="3.3" height="3.3"/>
			
				<rect x="223.5" y="453.4" transform="matrix(0.5307 -0.8476 0.8476 0.5307 -279.9782 404.4455)" class="st3" width="3.3" height="3.3"/>
		</g>
		<g>
			
				<rect x="270.2" y="463.8" transform="matrix(0.9528 -0.3037 0.3037 0.9528 -128.7712 104.9059)" class="st3" width="5.3" height="5.3"/>
			
				<rect x="276.5" y="467.8" transform="matrix(0.9528 -0.3037 0.3037 0.9528 -129.2885 106.4396)" class="st3" width="2.1" height="2.1"/>
			
				<rect x="274.3" y="460.7" transform="matrix(0.9528 -0.3037 0.3037 0.9528 -127.24 105.4175)" class="st3" width="2.1" height="2.1"/>
			
				<rect x="267.1" y="463" transform="matrix(0.9528 -0.3037 0.3037 0.9528 -128.2628 103.3677)" class="st3" width="2.1" height="2.1"/>
			
				<rect x="269.4" y="470.1" transform="matrix(0.9528 -0.3037 0.3037 0.9528 -130.311 104.3919)" class="st3" width="2.1" height="2.1"/>
		</g>
		<g>
			
				<rect x="234.2" y="365.3" transform="matrix(0.9911 -0.1331 0.1331 0.9911 -47.0796 35.0285)" class="st3" width="8.5" height="8.5"/>
			
				<rect x="231.6" y="374.6" transform="matrix(0.9911 -0.1331 0.1331 0.9911 -48.0156 34.4047)" class="st3" width="3.4" height="3.4"/>
			
				<rect x="243.4" y="373" transform="matrix(0.9911 -0.1331 0.1331 0.9911 -47.6991 35.9639)" class="st3" width="3.4" height="3.4"/>
			
				<rect x="241.8" y="361.2" transform="matrix(0.9911 -0.1331 0.1331 0.9911 -46.1389 35.6472)" class="st3" width="3.4" height="3.4"/>
			
				<rect x="230" y="362.8" transform="matrix(0.9911 -0.1331 0.1331 0.9911 -46.4569 34.0879)" class="st3" width="3.4" height="3.4"/>
		</g>
		<g>
			<rect x="291.9" y="355.9" class="st3" width="9.7" height="9.7"/>
			<rect x="301.6" y="365.6" class="st3" width="3.9" height="3.9"/>
			<rect x="301.6" y="352" class="st3" width="3.9" height="3.9"/>
			<rect x="288" y="352" class="st3" width="3.9" height="3.9"/>
			<rect x="288" y="365.6" class="st3" width="3.9" height="3.9"/>
		</g>
		<g>
			
				<rect x="209" y="396.1" transform="matrix(0.9739 -0.2269 0.2269 0.9739 -84.8134 58.2506)" class="st3" width="3.9" height="3.9"/>
			
				<rect x="204.4" y="393.2" transform="matrix(0.9739 -0.2269 0.2269 0.9739 -84.2782 57.126)" class="st3" width="3.9" height="3.9"/>
			
				<rect x="211.9" y="391.4" transform="matrix(0.9739 -0.2269 0.2269 0.9739 -83.6724 58.7821)" class="st3" width="3.9" height="3.9"/>
			
				<rect x="206.1" y="400.8" transform="matrix(0.9739 -0.2269 0.2269 0.9739 -85.9409 57.7124)" class="st3" width="3.9" height="3.9"/>
			
				<rect x="213.7" y="399" transform="matrix(0.9739 -0.2269 0.2269 0.9739 -85.3526 59.3739)" class="st3" width="3.9" height="3.9"/>
		</g>
		<g>
			
				<rect x="196.4" y="456.5" transform="matrix(0.8034 -0.5954 0.5954 0.8034 -233.7877 207.8238)" class="st3" width="2.9" height="2.9"/>
			
				<rect x="192.3" y="455.9" transform="matrix(0.8034 -0.5954 0.5954 0.8034 -234.2192 205.2989)" class="st3" width="2.9" height="2.9"/>
			
				<rect x="197" y="452.4" transform="matrix(0.8034 -0.5954 0.5954 0.8034 -231.2397 207.3668)" class="st3" width="2.9" height="2.9"/>
			
				<rect x="195.8" y="460.6" transform="matrix(0.8034 -0.5954 0.5954 0.8034 -236.3211 208.2535)" class="st3" width="2.9" height="2.9"/>
			
				<rect x="200.4" y="457.1" transform="matrix(0.8034 -0.5954 0.5954 0.8034 -233.3649 210.3512)" class="st3" width="2.9" height="2.9"/>
		</g>
		<g>
			
				<rect x="264" y="339.9" transform="matrix(7.055626e-02 -0.9975 0.9975 7.055626e-02 -93.7119 582.0433)" class="st3" width="2.9" height="2.9"/>
			
				<rect x="261.4" y="336.8" transform="matrix(7.055626e-02 -0.9975 0.9975 7.055626e-02 -93.1123 576.5112)" class="st3" width="2.9" height="2.9"/>
			
				<rect x="267.1" y="337.1" transform="matrix(7.055626e-02 -0.9975 0.9975 7.055626e-02 -88.1163 582.6034)" class="st3" width="2.9" height="2.9"/>
			
				<rect x="260.9" y="342.5" transform="matrix(7.055626e-02 -0.9975 0.9975 7.055626e-02 -99.2608 581.4349)" class="st3" width="2.9" height="2.9"/>
			
				<rect x="266.7" y="343" transform="matrix(7.055626e-02 -0.9975 0.9975 7.055626e-02 -94.3311 587.5756)" class="st3" width="2.9" height="2.9"/>
		</g>
		<g>
			
				<rect x="267.5" y="407.4" transform="matrix(0.6868 -0.7268 0.7268 0.6868 -213.2425 324.287)" class="st3" width="4.3" height="4.3"/>
			
				<rect x="261.4" y="407.6" transform="matrix(0.6868 -0.7268 0.7268 0.6868 -215.2663 319.9099)" class="st3" width="4.3" height="4.3"/>
			
				<rect x="267.3" y="401.3" transform="matrix(0.6868 -0.7268 0.7268 0.6868 -208.8359 322.2055)" class="st3" width="4.3" height="4.3"/>
			
				<rect x="267.7" y="413.5" transform="matrix(0.6868 -0.7268 0.7268 0.6868 -217.6359 326.3116)" class="st3" width="4.3" height="4.3"/>
			
				<rect x="273.6" y="407.3" transform="matrix(0.6868 -0.7268 0.7268 0.6868 -211.2331 328.6729)" class="st3" width="4.3" height="4.3"/>
		</g>
	</g>
	<g id="Shamir">
		<rect id="Cast" x="223.1" y="52.5" class="st2" width="66.5" height="66.4"/>
		<rect id="Band" x="216.7" y="73.2" class="st4" width="78.6" height="21.8"/>
	</g>
	<g id="Shamir_Particles">
		<g>
			
				<rect x="309" y="131.6" transform="matrix(0.2252 -0.9743 0.9743 0.2252 110.5295 408.9354)" class="st4" width="6.7" height="6.7"/>
			
				<rect x="314.6" y="139.2" transform="matrix(0.2252 -0.9743 0.9743 0.2252 107.8342 416.7218)" class="st4" width="2.7" height="2.7"/>
			
				<rect x="316.7" y="130.1" transform="matrix(0.2252 -0.9743 0.9743 0.2252 118.3606 411.6972)" class="st4" width="2.7" height="2.7"/>
			
				<rect x="307.6" y="128" transform="matrix(0.2252 -0.9743 0.9743 0.2252 113.3365 401.174)" class="st4" width="2.7" height="2.7"/>
			
				<rect x="305.5" y="137.1" transform="matrix(0.2252 -0.9743 0.9743 0.2252 102.8019 406.2002)" class="st4" width="2.7" height="2.7"/>
		</g>
		<g>
			
				<rect x="193.5" y="120.2" transform="matrix(0.2587 -0.966 0.966 0.2587 26.0566 285.1953)" class="st4" width="10.8" height="10.8"/>
			<rect x="202" y="132.7" transform="matrix(0.2587 -0.966 0.966 0.2587 21.0674 297.154)" class="st4" width="4.3" height="4.3"/>
			
				<rect x="205.9" y="118.2" transform="matrix(0.2587 -0.966 0.966 0.2587 37.9984 290.1375)" class="st4" width="4.3" height="4.3"/>
			
				<rect x="191.3" y="114.3" transform="matrix(0.2587 -0.966 0.966 0.2587 30.9773 273.1953)" class="st4" width="4.3" height="4.3"/>
			
				<rect x="187.4" y="128.8" transform="matrix(0.2587 -0.966 0.966 0.2587 14.0473 280.2293)" class="st4" width="4.3" height="4.3"/>
		</g>
		<g>
			
				<rect x="181.6" y="50.5" transform="matrix(0.536 -0.8442 0.8442 0.536 40.3646 181.1367)" class="st4" width="6.7" height="6.7"/>
			<rect x="185.1" y="59" transform="matrix(0.536 -0.8442 0.8442 0.536 35.5667 185.3944)" class="st4" width="2.7" height="2.7"/>
			<rect x="190.1" y="51.1" transform="matrix(0.536 -0.8442 0.8442 0.536 44.5581 185.98)" class="st4" width="2.7" height="2.7"/>
			<rect x="182.2" y="46" transform="matrix(0.536 -0.8442 0.8442 0.536 45.1475 176.9376)" class="st4" width="2.7" height="2.7"/>
			<rect x="177.1" y="54" transform="matrix(0.536 -0.8442 0.8442 0.536 36.1182 176.3495)" class="st4" width="2.7" height="2.7"/>
		</g>
		<g>
			
				<rect x="260.1" y="27.7" transform="matrix(0.3107 -0.9505 0.9505 0.3107 152.5719 268.5955)" class="st4" width="2.7" height="2.7"/>
			
				<rect x="258.4" y="24.3" transform="matrix(0.3107 -0.9505 0.9505 0.3107 154.6545 264.5552)" class="st4" width="2.7" height="2.7"/>
			
				<rect x="263.6" y="25.9" transform="matrix(0.3107 -0.9505 0.9505 0.3107 156.6722 270.6667)" class="st4" width="2.7" height="2.7"/>
			
				<rect x="256.6" y="29.5" transform="matrix(0.3107 -0.9505 0.9505 0.3107 148.5214 266.5013)" class="st4" width="2.7" height="2.7"/>
			
				<rect x="261.8" y="31.2" transform="matrix(0.3107 -0.9505 0.9505 0.3107 150.4743 272.6302)" class="st4" width="2.7" height="2.7"/>
		</g>
		<g>
			
				<rect x="321.4" y="69" transform="matrix(0.9999 -1.040048e-02 1.040048e-02 0.9999 -0.7353 3.3815)" class="st4" width="6.7" height="6.7"/>
			
				<rect x="328.1" y="75.7" transform="matrix(0.9999 -1.040048e-02 1.040048e-02 0.9999 -0.7836 3.431)" class="st4" width="2.7" height="2.7"/>
			
				<rect x="328.1" y="66.3" transform="matrix(0.9999 -1.040048e-02 1.040048e-02 0.9999 -0.6858 3.4296)" class="st4" width="2.7" height="2.7"/>
			
				<rect x="318.7" y="66.4" transform="matrix(0.9999 -1.040048e-02 1.040048e-02 0.9999 -0.6876 3.332)" class="st4" width="2.7" height="2.7"/>
			
				<rect x="318.8" y="75.8" transform="matrix(0.9999 -1.040048e-02 1.040048e-02 0.9999 -0.7848 3.3337)" class="st4" width="2.7" height="2.7"/>
		</g>
	</g>
</g>
</svg>
