<?xml version="1.0" encoding="UTF-8" standalone="no"?>
<!-- Created with Inkscape (http://www.inkscape.org/) -->

<svg
   width="512mm"
   height="512mm"
   viewBox="0 0 512 512"
   version="1.1"
   id="svg1"
   xml:space="preserve"
   sodipodi:docname="LavishLivestock.svg"
   inkscape:version="1.4.2 (f4327f4, 2025-05-13)"
   inkscape:export-filename="LavishLivestock.png"
   inkscape:export-xdpi="25.4"
   inkscape:export-ydpi="25.4"
   xmlns:inkscape="http://www.inkscape.org/namespaces/inkscape"
   xmlns:sodipodi="http://sodipodi.sourceforge.net/DTD/sodipodi-0.dtd"
   xmlns="http://www.w3.org/2000/svg"
   xmlns:svg="http://www.w3.org/2000/svg"><sodipodi:namedview
     id="namedview1"
     pagecolor="#ffffff"
     bordercolor="#000000"
     borderopacity="0.25"
     inkscape:showpageshadow="2"
     inkscape:pageopacity="0.0"
     inkscape:pagecheckerboard="0"
     inkscape:deskcolor="#d1d1d1"
     inkscape:document-units="mm"
     inkscape:zoom="0.37104026"
     inkscape:cx="755.98264"
     inkscape:cy="987.76342"
     inkscape:window-width="1920"
     inkscape:window-height="1051"
     inkscape:window-x="-9"
     inkscape:window-y="-9"
     inkscape:window-maximized="1"
     inkscape:current-layer="svg1"
     showguides="false" /><defs
     id="defs1" /><g
     inkscape:groupmode="layer"
     id="layer2"
     inkscape:label="icon"
     transform="matrix(1.0833333,0,0,1.0833333,-21.333331,-21.333581)"><rect
       style="fill:#ffffff;fill-opacity:1;stroke-width:2.97647"
       id="rect4"
       width="472.61539"
       height="472.61539"
       x="19.692307"
       y="19.692537"
       inkscape:label="white" /><path
       style="fill:#85cceb;fill-opacity:1;stroke-width:0.540148"
       d="m 65.71201,201.7051 16.79186,17.94991 14.99041,-1.22239 3.21684,3.73152 53.20635,-4.43924 0.64337,21.55277 13.382,11.51623 3.15251,135.81456 13.382,16.92052 14.31794,-1.67858 0.22746,19.88037 15.83151,19.28901 54.54738,-6.67353 -0.77203,-162.19259 50.94918,-4.73457 -1.09181,102.63185 17.83316,15.83151 19.92589,-2.27462 -0.90988,18.83397 21.0632,18.65208 51.07731,-6.56335 3.28117,-156.98127 13.382,-0.77204 L 448,119.35426 381.86204,95.93573 186.6487,105.46457 V 98.73164 L 158.03502,83.96912 101.71357,86.3121 100.75824,72.43678 98.93851,70.981 83.47094,71.072 84.3808,87.08549 72.86944,88.02236 75.73715,160.05599 64,159.96499 Z"
       id="path1"
       inkscape:label="cow" /><path
       style="fill:#4aa0c7;fill-opacity:1;stroke-width:0.450124"
       d="m 97.42668,210.74675 13.99321,14.95826 12.49201,-1.01866 2.6807,3.1096 44.33863,-3.69936 0.53613,17.96064 11.15168,9.59686 2.62709,113.1788 11.15166,14.10042 11.93162,-1.39881 0.18955,16.56698 13.19293,16.07417 45.45615,-5.56127 -0.64336,-135.16049 42.45765,-3.94548 -0.90984,85.52654 14.86096,13.19292 16.60491,-1.89551 -0.75823,15.69498 17.55266,15.5434 42.56442,-5.46947 2.73432,-130.81772 11.15166,-0.64336 L 416,142.12105 l -55.11496,-19.51544 -162.67779,7.9407 v -5.61077 l -23.84474,-12.3021 -46.93454,1.95247 -0.79611,-11.56276 -1.51643,-1.21315 -12.88964,0.0759 0.75821,13.34457 -9.5928,0.78073 2.38976,60.02802 L 96,175.96333 Z"
       id="path4"
       inkscape:label="cow" /><path
       style="fill:#207598;fill-opacity:1;stroke-width:0.360099"
       d="m 129.14134,219.8029 11.19457,11.96661 9.99361,-0.81493 2.14456,2.48768 35.4709,-2.95949 0.42891,14.36851 8.92134,7.67749 2.10167,90.54304 8.92133,11.28034 9.5453,-1.11905 0.15164,13.25358 10.55434,12.85934 36.36492,-4.44902 -0.51469,-108.12839 33.96612,-3.15638 -0.72787,68.42123 11.88877,10.55434 13.28393,-1.51641 -0.60659,12.55598 14.04213,12.43472 34.05154,-4.37557 2.18745,-104.65418 8.92133,-0.51469 L 384,164.90234 339.90803,149.28999 209.7658,155.64255 v -4.48862 l -19.07579,-9.84168 -37.54763,1.56198 -0.63689,-9.25021 -1.21315,-0.97052 -10.31171,0.0607 0.60657,10.67566 -7.67424,0.62458 1.91181,48.02242 L 128,191.97616 Z"
       id="path3"
       inkscape:label="cow" /></g></svg>
