<?xml version="1.0" encoding="utf-8"?>
<!-- Generator: Adobe Illustrator 23.0.6, SVG Export Plug-In . SVG Version: 6.00 Build 0)  -->
<svg version="1.1" id="fulcio_shamir" xmlns="http://www.w3.org/2000/svg" xmlns:xlink="http://www.w3.org/1999/xlink" x="0px"
	 y="0px" viewBox="0 0 512 512" style="enable-background:new 0 0 512 512;" xml:space="preserve">
<style type="text/css">
	.st0{fill:#FFFFFF;}
	.st1{fill:#DBECF4;}
	.st2{fill:#3D83A3;}
	.st3{fill:#A1CEE2;}
	.st4{fill:#7FBCD7;}
	.st5{fill:#4AA0C7;}
</style>
<rect x="0" y="0" class="st0" width="512" height="512"/>
<g id="Icon">
	<polygon id="Ray" class="st1" points="415.59,399.98 167.49,443.09 167.49,263.31 415.59,283.31 364.6,312.73 364.6,372.13 	"/>
	<g id="block">
		<g id="dotted_block">
			<g>
				<polygon class="st2" points="366.24,316.81 362.98,316.81 362.98,311 368.08,308.17 369.65,311 366.24,312.9 				"/>
			</g>
			<g>
				<path class="st2" d="M378.11,306.32l-1.58-2.84l8.46-4.69l1.56,2.82L378.11,306.32z M395.03,296.92l-1.58-2.84l8.45-4.69
					l1.58,2.81L395.03,296.92z"/>
			</g>
			<g>
				<polygon class="st2" points="418.86,287.51 415.4,285.57 411.94,287.51 410.37,284.67 415.4,281.88 420.44,284.67 				"/>
			</g>
			<g>
				<path class="st2" d="M452.69,306.32l-8.46-4.71l1.58-2.82l8.44,4.69L452.69,306.32z M435.78,296.92l-8.46-4.72l1.58-2.81
					l8.45,4.69L435.78,296.92z"/>
			</g>
			<g>
				<polygon class="st2" points="467.81,316.81 464.57,316.81 464.57,312.9 461.15,311 462.72,308.17 467.81,311 				"/>
			</g>
			<g>
				<path class="st2" d="M467.81,357.08h-3.24v-10.07h3.24V357.08z M467.81,336.94h-3.24v-10.05h3.24V336.94z"/>
			</g>
			<g>
				<polygon class="st2" points="462.72,375.79 461.15,372.94 464.57,371.04 464.57,367.14 467.81,367.14 467.81,372.94 				"/>
			</g>
			<g>
				<path class="st2" d="M428.89,394.59l-1.58-2.85l8.46-4.69l1.56,2.82L428.89,394.59z M445.81,385.19l-1.58-2.85l8.46-4.69
					l1.57,2.82L445.81,385.19z"/>
			</g>
			<g>
				<polygon class="st2" points="415.4,402.09 410.37,399.28 411.94,396.46 415.4,398.38 418.86,396.46 420.44,399.28 				"/>
			</g>
			<g>
				<path class="st2" d="M401.9,394.59l-8.45-4.72l1.57-2.82l8.44,4.69L401.9,394.59z M385,385.19l-8.46-4.72l1.58-2.82l8.44,4.69
					L385,385.19z"/>
			</g>
			<g>
				<polygon class="st2" points="368.08,375.79 362.98,372.94 362.98,367.14 366.24,367.14 366.24,371.04 369.65,372.94 				"/>
			</g>
			<g>
				<path class="st2" d="M366.24,357.08h-3.26v-10.07h3.26V357.08z M366.24,336.94h-3.26v-10.05h3.26V336.94z"/>
			</g>
			<g>
				<polygon class="st2" points="417.18,345.54 413.94,345.54 413.94,339.72 419.03,336.9 420.59,339.74 417.18,341.64 				"/>
			</g>
			<g>
				<path class="st2" d="M429.05,335.02l-1.58-2.85l8.46-4.69l1.58,2.83L429.05,335.02z M445.97,325.62l-1.58-2.85l8.46-4.68
					l1.57,2.84L445.97,325.62z M459.42,318.13l-1.58-2.82l8.47-4.72l1.56,2.85L459.42,318.13z"/>
			</g>
			<g>
				<path class="st2" d="M417.18,385.79h-3.24v-10.08h3.24V385.79z M417.18,365.67h-3.24v-10.08h3.24V365.67z"/>
			</g>
		</g>
		<g>
			<path class="st2" d="M417.06,385.79h-3.23v-10.08h3.23V385.79z M417.06,365.67h-3.23v-10.08h3.23V365.67z M417.36,400.99h-3.23
				v-10.06h3.23V400.99z"/>
		</g>
		<g>
			<polygon class="st2" points="417.06,345.54 413.82,345.54 413.82,341.64 410.4,339.74 411.98,336.9 417.06,339.72 			"/>
		</g>
		<g>
			<path class="st2" d="M401.96,335.02l-8.47-4.7l1.58-2.84l8.46,4.7L401.96,335.02z M385.04,325.62l-8.47-4.69l1.58-2.84l8.47,4.68
				L385.04,325.62z M371.34,318.31l-8.45-4.7l1.57-2.85l8.45,4.72L371.34,318.31z"/>
		</g>
	</g>
	<g id="Compass">
		<g>
			<rect x="107.83" y="398.14" class="st3" width="89.88" height="29.97"/>
			<rect x="62.89" y="383.17" class="st3" width="179.76" height="29.96"/>
			<g>
				<rect x="62.89" y="293.3" class="st4" width="179.76" height="89.87"/>
				<rect x="107.83" y="278.3" class="st4" width="89.88" height="19.2"/>
			</g>
			<rect x="227.67" y="368.18" class="st3" width="15.46" height="17.62"/>
			<rect x="62.89" y="368.18" class="st3" width="14.98" height="17.62"/>
		</g>
		<g>
			<rect x="107.83" y="263.31" class="st2" width="89.88" height="14.99"/>
			<rect x="77.87" y="278.3" class="st2" width="29.96" height="14.99"/>
			<rect x="62.89" y="293.3" class="st2" width="14.98" height="14.96"/>
			<rect x="47.92" y="308.26" class="st2" width="14.98" height="89.88"/>
			<rect x="62.89" y="398.14" class="st2" width="14.98" height="14.99"/>
			<rect x="77.87" y="413.13" class="st2" width="29.96" height="14.98"/>
			<rect x="107.83" y="428.11" class="st2" width="89.88" height="14.98"/>
			<rect x="242.65" y="308.26" class="st2" width="14.98" height="89.88"/>
			<rect x="197.71" y="413.13" class="st2" width="29.96" height="14.98"/>
			<rect x="227.67" y="398.14" class="st2" width="14.98" height="14.99"/>
			<rect x="197.71" y="278.3" class="st2" width="29.96" height="14.99"/>
			<rect x="227.67" y="293.3" class="st2" width="14.98" height="14.96"/>
			<rect x="62.89" y="353.21" class="st2" width="14.98" height="14.96"/>
			<rect x="77.87" y="368.18" class="st2" width="29.96" height="14.99"/>
			<rect x="107.83" y="383.17" class="st2" width="89.88" height="14.97"/>
			<rect x="197.71" y="368.18" class="st2" width="29.96" height="14.99"/>
			<rect x="227.67" y="353.21" class="st2" width="14.98" height="14.96"/>
		</g>
		<g>
			<rect x="137.8" y="338.22" class="st3" width="29.69" height="14.99"/>
			<rect x="152.78" y="337.95" class="st5" width="14.98" height="15.13"/>
			<rect x="167.62" y="323.12" class="st5" width="44.94" height="14.96"/>
		</g>
	</g>
</g>
<g id="Shamir_1_">
	<rect id="Cast_1_" x="222.23" y="88.56" class="st2" width="67.78" height="67.79"/>
	<rect id="Band_1_" x="215.69" y="109.62" class="st4" width="80.18" height="22.19"/>
</g>
<g id="Shamir_Particles_1_">
	<g>
		<polygon class="st4" points="310.04,175.15 311.58,168.48 318.25,170.03 316.72,176.69 		"/>
		<polygon class="st4" points="316.1,179.36 316.73,176.68 319.42,177.29 318.79,179.98 		"/>
		<polygon class="st4" points="318.35,170.08 318.94,167.4 321.63,168.02 321.03,170.71 		"/>
		<polygon class="st4" points="308.99,167.95 309.63,165.27 312.31,165.89 311.68,168.57 		"/>
		<polygon class="st4" points="306.81,177.21 307.45,174.53 310.13,175.15 309.5,177.83 		"/>
	</g>
	<g>
		<polygon class="st4" points="191.62,167 194.46,156.4 205.06,159.24 202.22,169.83 		"/>
		<polygon class="st4" points="201.05,174.04 202.18,169.8 206.42,170.94 205.28,175.18 		"/>
		<polygon class="st4" points="204.99,159.26 206.12,155.02 210.37,156.16 209.22,160.39 		"/>
		<polygon class="st4" points="190.15,155.22 191.29,150.98 195.52,152.12 194.39,156.35 		"/>
		<polygon class="st4" points="186.19,170.09 187.33,165.85 191.56,166.99 190.44,171.22 		"/>
	</g>
	<g>
		<polygon class="st4" points="179.45,90.95 183.12,85.18 188.88,88.84 185.23,94.61 		"/>
		<polygon class="st4" points="183.8,96.93 185.28,94.6 187.6,96.08 186.12,98.41 		"/>
		<polygon class="st4" points="188.92,88.86 190.38,86.54 192.71,88.01 191.23,90.34 		"/>
		<polygon class="st4" points="180.82,83.72 182.3,81.39 184.63,82.87 183.15,85.19 		"/>
		<polygon class="st4" points="175.65,91.78 177.13,89.45 179.45,90.93 177.98,93.25 		"/>
	</g>
	<g>
		<polygon class="st4" points="260.46,65.55 261.36,62.88 264.03,63.76 263.13,66.42 		"/>
		
			<rect x="259.05" y="59.71" transform="matrix(0.3086 -0.9512 0.9512 0.3086 121.9507 289.9942)" class="st4" width="2.8" height="2.81"/>
		<polygon class="st4" points="264.04,63.67 264.9,61.01 267.57,61.88 266.67,64.55 		"/>
		<polygon class="st4" points="256.92,67.29 257.77,64.63 260.44,65.49 259.58,68.16 		"/>
		
			<rect x="262.61" y="66.77" transform="matrix(0.3083 -0.9513 0.9513 0.3083 117.763 298.3026)" class="st4" width="2.8" height="2.81"/>
	</g>
	<g>
		<polygon class="st4" points="323.31,105.42 330.16,105.34 330.21,112.18 323.4,112.25 		"/>
		<polygon class="st4" points="330.21,112.19 332.99,112.15 333.01,114.91 330.23,114.94 		"/>
		<polygon class="st4" points="330.13,102.6 332.87,102.57 332.89,105.32 330.15,105.35 		"/>
		
			<rect x="320.59" y="102.74" transform="matrix(1 -8.599365e-03 8.599365e-03 1 -0.8835 2.7725)" class="st4" width="2.74" height="2.75"/>
		<polygon class="st4" points="320.7,112.29 323.44,112.26 323.46,115.01 320.72,115.05 		"/>
	</g>
</g>
</svg>
