<?xml version="1.0" encoding="utf-8"?>
<!-- Generator: Adobe Illustrator 23.0.6, SVG Export Plug-In . SVG Version: 6.00 Build 0)  -->
<svg version="1.1" id="tinkering_compressors" xmlns="http://www.w3.org/2000/svg" xmlns:xlink="http://www.w3.org/1999/xlink"
	 x="0px" y="0px" viewBox="0 0 512 512" style="enable-background:new 0 0 512 512;" xml:space="preserve">
<style type="text/css">
	.st0{fill:#FFFFFF;}
	.st1{fill:none;}
	.st2{fill:#DBECF4;}
	.st3{fill:#A1CEE2;}
	.st4{fill:#7FBCD7;}
	.st5{fill:#4AA0C7;}
	.st6{fill:#2E627A;}
</style>
<rect class="st0" width="512" height="512"/>
<g>
	<g>
		<path class="st1" d="M50.52,511.74h410.96c27.55,0,49.9-22.35,49.9-49.9V50.89c0-27.56-22.35-49.91-49.9-49.91H50.52
			c-27.56,0-49.9,22.35-49.9,49.91v410.95C0.62,489.39,22.96,511.74,50.52,511.74z"/>
	</g>
</g>
<g id="Icon">
	<g id="block_3_">
		<path id="rect4153-4-4" class="st2" d="M102.95,165.12l152.76-85.19l152.75,85.19v181.11l-152.75,85.18l-152.76-85.18V165.12
			L102.95,165.12z"/>
	</g>
	<g id="block_2_">
		<path id="rect4153-4" class="st3" d="M126.96,179.58l128.7-71.54l128.76,71.54v152.16L255.66,403.3l-128.7-71.56L126.96,179.58
			L126.96,179.58z"/>
	</g>
	<g id="block_1_">
		<path id="rect4153-4-2" class="st4" d="M151.64,194.17l104.07-57.87l104.07,57.87v123.01l-104.07,57.91l-104.07-57.91
			L151.64,194.17L151.64,194.17z"/>
	</g>
</g>
<g>
	<polygon class="st2" points="78.3,231.41 54.29,207.41 54.29,241.5 78.3,241.5 	"/>
	<polygon class="st2" points="54.29,269.84 54.29,303.91 78.3,280.3 78.3,269.84 	"/>
	<polygon class="st3" points="78.3,269.84 78.3,280.3 78.3,303.91 102.96,279.65 102.96,269.84 	"/>
	<polygon class="st3" points="102.96,241.5 102.96,232.07 78.3,207.41 78.3,231.41 78.3,241.5 	"/>
	<line class="st1" x1="26.1" y1="269.84" x2="26.1" y2="241.5"/>
	<polygon class="st5" points="151.61,256.07 102.96,207.41 102.96,232.07 102.96,241.5 78.3,241.5 54.29,241.5 26.1,241.5 
		26.1,269.84 54.29,269.84 78.3,269.84 102.96,269.84 102.96,279.65 102.96,303.91 	"/>
</g>
<g>
	<polygon class="st2" points="433.09,279.92 457.1,303.91 457.1,269.84 433.09,269.84 	"/>
	<polygon class="st2" points="457.1,241.5 457.1,207.41 433.09,231.02 433.09,241.5 	"/>
	<polygon class="st3" points="408.42,269.84 408.42,279.26 433.09,303.91 433.09,279.92 422.99,269.84 	"/>
	<polygon class="st3" points="422.44,241.5 433.09,231.02 433.09,207.41 408.42,231.66 408.42,241.5 	"/>
	<polygon class="st3" points="433.09,241.5 433.09,231.02 422.44,241.5 	"/>
	<line class="st1" x1="485.29" y1="241.5" x2="485.29" y2="269.84"/>
	<polygon class="st3" points="422.99,269.84 433.09,279.92 433.09,269.84 	"/>
	<polygon class="st5" points="408.42,231.66 408.42,207.41 359.78,255.28 408.42,303.91 408.42,279.26 384.43,255.28 	"/>
	<polygon class="st5" points="422.99,269.84 408.43,255.28 422.44,241.5 408.42,241.5 408.42,231.66 384.43,255.28 408.42,279.26 
		408.42,269.84 	"/>
	<polygon class="st5" points="457.1,241.5 433.09,241.5 422.44,241.5 408.43,255.28 422.99,269.84 433.09,269.84 457.1,269.84 
		485.29,269.84 485.29,241.5 	"/>
</g>
<g id="block_8_">
	<path id="rect4153_2_" class="st5" d="M179.63,210.49l76.09-42.31l76.07,42.31v89.96l-76.07,42.3l-76.09-42.3V210.49L179.63,210.49
		z"/>
</g>
<polygon id="Band" class="st6" points="255.73,333.61 175.69,291.34 175.69,223.54 179.84,223.54 179.79,225.54 255.73,263.38 
	331.8,224.33 334.98,224.33 334.98,292.11 "/>
</svg>
