<?xml version="1.0" encoding="utf-8"?>
<!-- Generator: Adobe Illustrator 19.0.0, SVG Export Plug-In . SVG Version: 6.00 Build 0)  -->
<svg version="1.1" xmlns="http://www.w3.org/2000/svg" xmlns:xlink="http://www.w3.org/1999/xlink" x="0px" y="0px"
	 viewBox="0 0 1000 1000" style="enable-background:new 0 0 1000 1000;" xml:space="preserve">
<style type="text/css">
	.st0{fill:#FFFFFF;}
	.st1{fill:#86CCEA;}
	.st2{fill:#65B6D9;}
	.st3{fill:#328BB0;}
	.st4{fill:#67B7DA;}
	.st5{fill:#C3E2F1;}
	.st6{fill:#4AA0C7;}
	.st7{fill:#207598;}
</style>
<g id="Layer_2">
	<rect id="XMLID_46_" x="0" class="st0" width="1000" height="1000"/>
</g>
<g id="Layer_1">
	<polygon id="XMLID_16_" class="st1" points="611.5,73.6 429.7,83.6 438.7,410.8 717.8,467.5 853,383.4 880.3,83.9 	"/>
	<polygon id="XMLID_47_" class="st2" points="617.6,70.8 429.7,83.6 735.9,97.4 880.3,83.9 	"/>
	<path id="XMLID_57_" class="st1" d="M429.7,83.6l9,327.2l279.1,56.6l18.1-370L429.7,83.6z M699.1,442.5L453.7,395L451,276.7
		l253.8,34.9L699.1,442.5z M706.8,265.8L450,235.5l-3-128.9l266.1,14.9L706.8,265.8z"/>
	<polygon id="XMLID_36_" class="st2" points="735.9,97.4 717.8,467.5 856.9,389.3 880.3,83.9 	"/>
	<g id="XMLID_6_">
		<polygon id="XMLID_32_" class="st3" points="451.9,316.9 452.3,333.8 453.7,395 699.1,442.5 700.9,399.9 700.9,399.9 700.9,399.9 
			700.9,399.9 702.8,356.2 704.8,311.6 451,276.7 		"/>
		<polyline id="XMLID_19_" class="st3" points="713.1,121.6 630.3,116.9 610.6,115.8 562,113.1 447,106.7 447.5,128.7 448.5,172.2 
			448.9,188.4 450,235.5 522.4,244.1 535,245.6 608.1,254.2 627.2,256.4 706.8,265.8 		"/>
	</g>
	<g id="XMLID_1_">
		<polygon id="XMLID_10_" class="st4" points="534.8,111.6 610.6,115.8 608.1,254.2 535,245.6 		"/>
		<polygon id="XMLID_18_" class="st4" points="517.7,285.8 451,276.7 453.7,395 518.4,407.5 		"/>
		<polygon id="XMLID_3_" class="st4" points="516.8,133.4 447.5,128.7 450,235.5 517.4,243.5 		"/>
		<polygon id="XMLID_20_" class="st4" points="605.1,424.3 535.2,410.8 535.1,309.2 607,319.8 		"/>
		<polygon id="XMLID_21_" class="st4" points="704.8,311.6 626.2,300.8 623.3,427.8 699.1,442.5 		"/>
		<polygon id="XMLID_2_" class="st4" points="630.3,116.9 713.1,121.6 706.8,265.8 627.2,256.4 		"/>
	</g>
	<g id="XMLID_4_">
		<polygon id="XMLID_24_" class="st5" points="535.1,350.5 535.1,370.8 605.8,383.2 606.2,362.3 		"/>
		<polygon id="XMLID_31_" class="st5" points="534.9,179.7 534.9,201.9 608.9,209.1 609.3,186.2 		"/>
		<polygon id="XMLID_5_" class="st5" points="628.2,211.1 627.7,233.8 627.7,233.9 707.8,242.6 707.8,242.5 708.8,219 		"/>
		<polygon id="XMLID_7_" class="st5" points="629.8,140.9 629.3,164.5 629.3,164.7 710.9,170.7 712,146.3 		"/>
		<polygon id="XMLID_35_" class="st5" points="517,178.2 448.5,172.2 449.5,214.7 517.3,222 		"/>
		<polygon id="XMLID_25_" class="st5" points="517.9,327.3 451.9,316.9 452.4,336.8 518,347.7 		"/>
		<polygon id="XMLID_8_" class="st5" points="625.2,344.1 624.2,386.4 700.9,399.9 702.8,356.2 		"/>
	</g>
	<g id="XMLID_17_">
		<path id="XMLID_49_" class="st6" d="M736.1,310.4l-6.7,130.4l121.7-65.3l8.4-111.8L736.1,310.4z M769.4,401.8L740.5,417l4.7-88.4
			l29.2-11.8L769.4,401.8z M813.3,378.8L778.6,397l5.1-84l35-14.2L813.3,378.8z M844.9,362.1l-23.5,12.4l5.5-78.9l23.7-9.6
			L844.9,362.1z"/>
		<path id="XMLID_23_" class="st6" d="M745.7,121.2l-7.3,143.6l124.1-40.1l9.1-121.6L745.7,121.2z M779.5,229.8l-29.6,8.7l5.1-95.7
			l29.9-5L779.5,229.8z M824.2,216.6L788.9,227l5.5-90.8l35.6-5.9L824.2,216.6z M856.4,207.1l-23.8,7l5.9-85.2l24-4L856.4,207.1z"/>
	</g>
	<polygon id="XMLID_9_" class="st3" points="710.6,565.7 709,475 622.3,456.7 522.2,529.7 478.1,358.9 319.9,313.5 150.8,428.9 
		197.9,541.1 137.1,751.8 195.9,801.7 264.4,774 272.8,746.9 276.7,847.2 433.9,916.9 498.1,864.7 496.8,702 544,717.9 	"/>
	<path id="XMLID_11_" class="st7" d="M713.1,311.4l0.1-26.4l-23.8-3.4v-26.7l-69.2-7.4h0l-29.3,10.4v0l0.2,14.4l-22.3,8.7l0.2,13.9
		l-21.5,8.8l-0.1,0.1l0.1,0l1.7,75.4l21.3,4l0.4,24.8l21.9,4.4l0.3,24.8l28.8,6.1V483l22.7,5l12.6-9.8v-27.6l4.2,0.9l25.7-16l0-6
		l22.8-15l0.1-5.3l25.6-15.6l2.1-78.5L713.1,311.4z M685.4,387.3l-24.1,12.8l-0.1,0l0,6.1l-41.7-7.8l0.1-24.5l-22-3.9l0.2-62.6
		l22.1-9.1l0-10.1l41.5,5.8l-0.1,27l24.4,3.7L685.4,387.3z"/>
</g>
</svg>
