<?xml version="1.0" encoding="utf-8"?>
<!-- Generator: Adobe Illustrator 23.0.6, SVG Export Plug-In . SVG Version: 6.00 Build 0)  -->
<svg version="1.1" id="potion_liquids" xmlns="http://www.w3.org/2000/svg" xmlns:xlink="http://www.w3.org/1999/xlink" x="0px"
	 y="0px" viewBox="0 0 512 512" style="enable-background:new 0 0 512 512;" xml:space="preserve">
<style type="text/css">
	.st0{fill:#FFFFFF;}
	.st1{fill:#4AA0C7;}
	.st2{fill:#428FB3;}
	.st3{fill:#7FBCD7;}
	.st4{fill:none;}
</style>
<rect x="0" y="0" class="st0" width="512" height="512"/>
<g id="Icon">
	<g id="liquid_tank">
		<path id="rect4147" class="st1" d="M281.69,319.39l-52.26-0.1l-1.15-29.38l-31.84,0.01l-3.62-45.62l-85.46-0.75L95.15,138.52
			l51.25-73.65h218.78l51.25,74.08l-12.21,104.6l-85.45,0.75l-3.4,45.87l-32.24-0.16L281.69,319.39z"/>
		<path id="rect4150" class="st2" d="M169.74,74.68l4.13,52.29h-32.59L169.74,74.68z"/>
		<path id="rect4153" class="st2" d="M171.4,71.13h168.94l-3.68,55.31H175.08L171.4,71.13z"/>
		<path id="rect4150-0" class="st2" d="M342.24,73.79l-4.15,52.29h32.61L342.24,73.79z"/>
		<path id="rect4185" class="st0" d="M203.77,78.67h99.78l13.39,25.11v21.42H194.01v-19.73L203.77,78.67z"/>
		<path id="rect4171" class="st1" d="M191.85,77.81l9.17-27.58h3.35l104.61,0.17l0.04,0.88l9.64,26.94l-3.18,1.93l-7.66-21.37
			l-0.52-1.07l-1.22,25.58l-2.72-4.13l1.08-25.47l-99.89-0.19l0.8,26.82l-2.88,2.53l-0.33-26.45l-6.13,21.38L319,77.8v2.4v48.35
			l-125.31,0.02l0.04-4.36l121.35-0.32l-0.62-42.91l-118.77,0.61l0.02,18.65l7.33-22.09l99.82,0.08l3.69,0.83l9.64,22.97l0.19,11.06
			l-12.66-31.73l-98.21,0.2l-9.76,28.72l0.03,17.85h-3.92L191.85,77.81L191.85,77.81L191.85,77.81L191.85,77.81z"/>
	</g>
	<g id="particles">
		<g id="g4809-5-5-5" transform="matrix(0.8271092,-0.27484904,0.27484904,0.8271092,218.34555,369.73633)">
			<polygon id="rect4651-24-7-2" class="st1" points="-11.13,-14.98 -14.62,-13.06 -16.49,-16.44 -13,-18.37 			"/>
			<polygon id="rect4651-9-1-3-0" class="st1" points="-9.52,-20.29 -13.02,-18.34 -14.88,-21.73 -11.39,-23.67 			"/>
			<polygon id="rect4651-9-5-90-2-1" class="st1" points="-14.87,-21.72 -21.83,-17.88 -23.69,-21.26 -16.76,-25.11 			"/>
			<polygon id="rect4651-9-5-8-2-9-5" class="st1" points="-16.39,-8.07 -19.78,-6.21 -25.19,-16.07 -21.8,-17.95 			"/>
			<polygon id="rect4651-9-5-8-3-5-1-0" class="st1" points="-5.84,-13.95 -3.97,-10.57 -14.57,-4.67 -16.43,-8.05 			"/>
			<polygon id="rect4651-9-4-7-1-1" class="st1" points="-2.39,-15.86 -5.88,-13.95 -7.74,-17.33 -4.25,-19.24 			"/>
			<polygon id="rect4651-9-5-8-7-1-3-5" class="st1" points="-0.84,-21.05 -4.24,-19.21 -9.65,-29.06 -6.26,-30.93 			"/>
			<polygon id="rect4651-9-6-1-3-5" class="st1" points="-9.66,-29.07 -13.15,-27.16 -15.02,-30.54 -11.52,-32.45 			"/>
			<polygon id="rect4651-9-5-8-3-0-6-2-7" class="st1" points="-16.85,-33.91 -14.99,-30.53 -25.57,-24.64 -27.44,-28.03 			"/>
		</g>
		<g id="g4809-5-5-5_1_" transform="matrix(0.8271092,-0.27484904,0.27484904,0.8271092,218.34555,369.73633)">
			<polygon id="rect4651-24-7-2_1_" class="st1" points="-29.7,-68.04 -31.34,-65.35 -34.16,-67.03 -32.5,-69.77 			"/>
			<polygon id="rect4651-9-1-3-0_1_" class="st1" points="-25.26,-69.05 -26.91,-66.32 -29.71,-68.04 -28.07,-70.73 			"/>
			<polygon id="rect4651-9-5-90-2-1_1_" class="st1" points="-26.4,-73.47 -28.06,-70.73 -33.61,-74.15 -31.97,-76.84 			"/>
			<polygon id="rect4651-9-5-8-2-9-5_1_" class="st1" points="-38.42,-66.26 -41.1,-67.94 -36.29,-75.79 -33.58,-74.15 			"/>
			<polygon id="rect4651-9-5-8-3-5-1-0_1_" class="st1" points="-29.92,-61.13 -31.58,-58.44 -40.08,-63.6 -38.43,-66.29 			"/>
			<polygon id="rect4651-9-4-7-1-1_1_" class="st1" points="-25.5,-62.16 -27.16,-59.42 -29.95,-61.14 -28.31,-63.84 			"/>
			<polygon id="rect4651-9-5-8-7-1-3-5_1_" class="st1" points="-22.81,-60.46 -25.51,-62.14 -20.67,-70.02 -17.98,-68.34 			"/>
			<polygon id="rect4651-9-6-1-3-5_1_" class="st1" points="-19.03,-72.73 -20.68,-70.02 -23.49,-71.71 -21.83,-74.45 			"/>
			<polygon id="rect4651-9-5-8-3-0-6-2-7_1_" class="st1" points="-20.16,-77.12 -21.83,-74.42 -30.32,-79.59 -28.66,-82.28 			"/>
		</g>
		<g id="g4809-5-5-5_2_" transform="matrix(0.8271092,-0.27484904,0.27484904,0.8271092,218.34555,369.73633)">
			<polygon id="rect4651-24-7-2_2_" class="st1" points="20.25,-56.74 18.69,-56.36 18.31,-57.85 19.88,-58.27 			"/>
			<polygon id="rect4651-9-1-3-0_2_" class="st1" points="21.43,-58.65 19.86,-58.28 19.49,-59.76 21.05,-60.13 			"/>
			<polygon id="rect4651-9-5-90-2-1_2_" class="st1" points="19.47,-59.75 16.38,-59 16.01,-60.49 19.11,-61.27 			"/>
			<polygon id="rect4651-9-5-8-2-9-5_2_" class="st1" points="17.48,-54.63 15.97,-54.27 14.89,-58.66 16.4,-59.02 			"/>
			<polygon id="rect4651-9-5-8-3-5-1-0_2_" class="st1" points="22.18,-55.81 22.54,-54.28 17.82,-53.11 17.46,-54.63 			"/>
			<polygon id="rect4651-9-4-7-1-1_2_" class="st1" points="23.72,-56.18 22.18,-55.8 21.8,-57.28 23.35,-57.66 			"/>
			<polygon id="rect4651-9-5-8-7-1-3-5_2_" class="st1" points="24.85,-58.02 23.35,-57.66 22.27,-62.05 23.78,-62.42 			"/>
			<polygon id="rect4651-9-6-1-3-5_2_" class="st1" points="22.28,-62.08 20.73,-61.68 20.37,-63.2 21.91,-63.58 			"/>
			<polygon id="rect4651-9-5-8-3-0-6-2-7_2_" class="st1" points="19.98,-64.68 20.37,-63.19 15.65,-62.02 15.26,-63.51 			"/>
		</g>
		<g id="g4809-5-5-5_3_" transform="matrix(0.8271092,-0.27484904,0.27484904,0.8271092,218.34555,369.73633)">
			<polygon id="rect4651-24-7-2_3_" class="st1" points="-39.98,-116.9 -41.77,-115.41 -43.3,-117.24 -41.52,-118.73 			"/>
			<polygon id="rect4651-9-1-3-0_3_" class="st1" points="-39.7,-120.19 -41.49,-118.7 -43.03,-120.53 -41.24,-122.02 			"/>
			<polygon id="rect4651-9-5-90-2-1_3_" class="st1" points="-34.89,-118.01 -36.68,-116.51 -39.71,-120.2 -37.92,-121.68 			"/>
			<polygon id="rect4651-9-5-8-2-9-5_3_" class="st1" points="-36.7,-116.54 -35.21,-114.77 -40.38,-110.46 -41.88,-112.24 			"/>
			<polygon id="rect4651-9-5-8-3-5-1-0_3_" class="st1" points="-41.85,-112.23 -43.64,-110.74 -48.27,-116.32 -46.49,-117.82 			
				"/>
			<polygon id="rect4651-9-4-7-1-1_3_" class="st1" points="-44.68,-119.31 -46.47,-117.82 -48,-119.65 -46.22,-121.14 			"/>
			<polygon id="rect4651-9-5-8-7-1-3-5_3_" class="st1" points="-42.53,-127.24 -41.05,-125.46 -46.23,-121.12 -47.72,-122.89 			
				"/>
			<polygon id="rect4651-9-6-1-3-5_3_" class="st1" points="-37.72,-125.07 -39.51,-123.58 -41.05,-125.41 -39.25,-126.9 			"/>
			<polygon id="rect4651-9-5-8-3-0-6-2-7_3_" class="st1" points="-31.33,-120.99 -33.12,-119.49 -37.74,-125.08 -35.96,-126.57 			
				"/>
		</g>
		<g id="g4809-5-5-5_4_" transform="matrix(0.8271092,-0.27484904,0.27484904,0.8271092,218.34555,369.73633)">
			<polygon id="rect4651-24-7-2_4_" class="st1" points="99.43,15.25 97.26,18.01 94.39,15.78 96.56,13.01 			"/>
			<polygon id="rect4651-9-1-3-0_4_" class="st1" points="98.69,10.19 96.56,13 93.64,10.76 95.82,7.96 			"/>
			<polygon id="rect4651-9-5-90-2-1_4_" class="st1" points="106.56,11.88 104.4,14.65 98.68,10.21 100.84,7.44 			"/>
			<polygon id="rect4651-9-5-8-2-9-5_4_" class="st1" points="104.43,14.62 107.24,16.78 100.96,24.9 98.19,22.75 			"/>
			<polygon id="rect4651-9-5-8-3-5-1-0_4_" class="st1" points="98.22,22.76 96.05,25.57 87.32,18.77 89.49,15.99 			"/>
			
				<rect id="rect4651-9-4-7-1-1_4_" x="87.36" y="11.66" transform="matrix(-0.6133 0.7898 -0.7898 -0.6133 154.4455 -48.6554)" class="st1" width="3.54" height="3.64"/>
			<polygon id="rect4651-9-5-8-7-1-3-5_4_" class="st1" points="92.25,0.69 95.07,2.86 88.78,11 85.96,8.86 			"/>
			<polygon id="rect4651-9-6-1-3-5_4_" class="st1" points="100.05,2.32 97.93,5.09 95.04,2.86 97.17,0.09 			"/>
			<polygon id="rect4651-9-5-8-3-0-6-2-7_4_" class="st1" points="110.95,6.28 108.78,9.08 100.05,2.32 102.22,-0.49 			"/>
		</g>
		<g id="g4809-5-5-5_5_" transform="matrix(0.8271092,-0.27484904,0.27484904,0.8271092,218.34555,369.73633)">
			
				<rect id="rect4651-24-7-2_5_" x="61.63" y="-17.8" transform="matrix(-1 -9.950266e-04 9.950266e-04 -1 125.0968 -33.6686)" class="st1" width="1.82" height="1.86"/>
			<polygon id="rect4651-9-1-3-0_5_" class="st1" points="65.23,-17.8 63.46,-17.79 63.45,-19.65 65.22,-19.63 			"/>
			<polygon id="rect4651-9-5-90-2-1_5_" class="st1" points="67,-14.11 65.22,-14.1 65.22,-17.81 67.03,-17.78 			"/>
			<polygon id="rect4651-9-5-8-2-9-5_5_" class="st1" points="65.24,-14.11 65.26,-12.33 60.02,-12.3 60,-14.11 			"/>
			<polygon id="rect4651-9-5-8-3-5-1-0_5_" class="st1" points="60.01,-14.09 58.23,-14.08 58.24,-19.72 60.04,-19.69 			"/>
			<polygon id="rect4651-9-4-7-1-1_5_" class="st1" points="61.81,-19.69 60.04,-19.69 60.04,-21.54 61.81,-21.55 			"/>
			<polygon id="rect4651-9-5-8-7-1-3-5_5_" class="st1" points="67.03,-23.37 67.04,-21.55 61.81,-21.55 61.79,-23.35 			"/>
			<polygon id="rect4651-9-6-1-3-5_5_" class="st1" points="68.82,-19.7 67.06,-19.72 67.04,-21.55 68.82,-21.57 			"/>
			<polygon id="rect4651-9-5-8-3-0-6-2-7_5_" class="st1" points="70.6,-14.12 68.83,-14.1 68.82,-19.7 70.64,-19.7 			"/>
		</g>
		<g id="g4809-5-5-5_6_" transform="matrix(0.8271092,-0.27484904,0.27484904,0.8271092,218.34555,369.73633)">
			
				<rect id="rect4651-24-7-2_6_" x="43.74" y="24.53" transform="matrix(-1 2.160604e-04 -2.160604e-04 -1 89.954 51.561)" class="st1" width="2.46" height="2.52"/>
			<polygon id="rect4651-9-1-3-0_6_" class="st1" points="48.61,24.57 46.2,24.55 46.2,22.04 48.61,22.04 			"/>
			<polygon id="rect4651-9-5-90-2-1_6_" class="st1" points="51.07,29.55 48.61,29.54 48.6,24.56 51.06,24.56 			"/>
			<polygon id="rect4651-9-5-8-2-9-5_6_" class="st1" points="48.63,29.53 48.64,31.99 41.53,32 41.56,29.55 			"/>
			<polygon id="rect4651-9-5-8-3-5-1-0_6_" class="st1" points="41.56,29.59 39.1,29.57 39.11,21.94 41.57,21.94 			"/>
			<polygon id="rect4651-9-4-7-1-1_6_" class="st1" points="43.98,21.95 41.57,21.94 41.56,19.44 43.97,19.44 			"/>
			<polygon id="rect4651-9-5-8-7-1-3-5_6_" class="st1" points="51.07,16.98 51.09,19.43 43.96,19.45 43.95,16.99 			"/>
			<polygon id="rect4651-9-6-1-3-5_6_" class="st1" points="53.5,21.95 51.1,21.93 51.09,19.43 53.5,19.43 			"/>
			<polygon id="rect4651-9-5-8-3-0-6-2-7_6_" class="st1" points="55.95,29.58 53.49,29.58 53.5,21.93 55.96,21.94 			"/>
		</g>
		<g id="g4809-5-5-5_7_" transform="matrix(0.8271092,-0.27484904,0.27484904,0.8271092,218.34555,369.73633)">
			<polygon id="rect4651-24-7-2_7_" class="st1" points="107.54,-25.35 105.04,-23.26 102.86,-25.89 105.4,-27.97 			"/>
			<polygon id="rect4651-9-1-3-0_7_" class="st1" points="112.21,-24.81 109.71,-22.73 107.54,-25.35 110.08,-27.42 			"/>
			<polygon id="rect4651-9-5-90-2-1_7_" class="st1" points="112.6,-29.48 110.07,-27.44 105.81,-32.6 108.32,-34.69 			"/>
			<polygon id="rect4651-9-5-8-2-9-5_7_" class="st1" points="98.43,-26.57 96.39,-29.11 103.77,-35.14 105.83,-32.58 			"/>
			<polygon id="rect4651-9-5-8-3-5-1-0_7_" class="st1" points="104.96,-18.68 102.42,-16.62 95.92,-24.55 98.42,-26.59 			"/>
			<polygon id="rect4651-9-4-7-1-1_7_" class="st1" points="109.61,-18.16 107.1,-16.07 104.97,-18.69 107.47,-20.78 			"/>
			<polygon id="rect4651-9-5-8-7-1-3-5_7_" class="st1" points="111.64,-15.6 109.58,-18.16 116.99,-24.17 119.03,-21.62 			"/>
			<polygon id="rect4651-9-6-1-3-5_7_" class="st1" points="119.53,-26.25 116.99,-24.17 114.86,-26.78 117.36,-28.87 			"/>
			<polygon id="rect4651-9-5-8-3-0-6-2-7_7_" class="st1" points="119.91,-30.94 117.36,-28.86 110.85,-36.77 113.4,-38.85 			"/>
		</g>
		<g id="g4809-5-5-5_8_" transform="matrix(0.8271092,-0.27484904,0.27484904,0.8271092,218.34555,369.73633)">
			<polygon id="rect4651-24-7-2_8_" class="st1" points="169.92,-14.48 168.62,-12.71 166.9,-13.98 168.22,-15.78 			"/>
			<polygon id="rect4651-9-1-3-0_8_" class="st1" points="169.56,-17.52 168.22,-15.77 166.5,-17.04 167.85,-18.83 			"/>
			<polygon id="rect4651-9-5-90-2-1_8_" class="st1" points="166.51,-17.05 163.87,-13.51 162.16,-14.82 164.8,-18.36 			"/>
			<polygon id="rect4651-9-5-8-2-9-5_8_" class="st1" points="168.85,-9.78 167.54,-8.05 162.57,-11.81 163.84,-13.52 			"/>
			<polygon id="rect4651-9-5-8-3-5-1-0_8_" class="st1" points="172.84,-15.15 174.56,-13.88 170.56,-8.48 168.83,-9.75 			"/>
			<polygon id="rect4651-9-4-7-1-1_8_" class="st1" points="174.16,-16.93 172.83,-15.13 171.11,-16.4 172.43,-18.2 			"/>
			<polygon id="rect4651-9-5-8-7-1-3-5_8_" class="st1" points="173.76,-19.91 172.44,-18.21 167.46,-21.96 168.74,-23.67 			"/>
			<polygon id="rect4651-9-6-1-3-5_8_" class="st1" points="167.45,-21.96 166.1,-20.17 164.4,-21.48 165.74,-23.23 			"/>
			<polygon id="rect4651-9-5-8-3-0-6-2-7_8_" class="st1" points="162.69,-22.75 164.41,-21.48 160.41,-16.07 158.7,-17.35 			"/>
		</g>
		<g id="g4809-5-5-5_9_" transform="matrix(0.8271092,-0.27484904,0.27484904,0.8271092,218.34555,369.73633)">
			<polygon id="rect4651-24-7-2_9_" class="st1" points="195.58,-43.72 193.84,-43.23 193.33,-44.98 195.05,-45.51 			"/>
			<polygon id="rect4651-9-1-3-0_9_" class="st1" points="193.34,-45.03 191.6,-44.51 191.08,-46.31 192.83,-46.79 			"/>
			<polygon id="rect4651-9-5-90-2-1_9_" class="st1" points="192.63,-40.98 190.92,-40.48 189.9,-44.06 191.65,-44.54 			"/>
			<polygon id="rect4651-9-5-8-2-9-5_9_" class="st1" points="197.6,-42.42 198.09,-40.71 193.08,-39.27 192.59,-40.98 			"/>
			<polygon id="rect4651-9-5-8-3-5-1-0_9_" class="st1" points="196.07,-47.79 197.79,-48.28 199.34,-42.88 197.6,-42.41 			"/>
			<polygon id="rect4651-9-4-7-1-1_9_" class="st1" points="196.11,-47.77 194.36,-47.29 193.85,-49.05 195.6,-49.57 			"/>
			<polygon id="rect4651-9-5-8-7-1-3-5_9_" class="st1" points="193.37,-50.8 193.86,-49.09 188.83,-47.65 188.35,-49.37 			"/>
			<polygon id="rect4651-9-6-1-3-5_9_" class="st1" points="189.34,-45.87 187.6,-45.38 187.1,-47.17 188.83,-47.66 			"/>
			<polygon id="rect4651-9-5-8-3-0-6-2-7_9_" class="st1" points="185.89,-44.89 187.6,-45.39 189.15,-39.99 187.44,-39.5 			"/>
		</g>
	</g>
	<g id="potion">
		<rect x="236.68" y="432.21" class="st1" width="3.28" height="22.84"/>
		<rect x="236.68" y="451.79" class="st1" width="6.54" height="3.26"/>
		<rect x="239.96" y="455.05" class="st1" width="6.51" height="3.25"/>
		<rect x="239.96" y="451.79" class="st1" width="3.25" height="6.52"/>
		<rect x="246.47" y="458.3" class="st1" width="26.12" height="3.28"/>
		<rect x="272.58" y="455.05" class="st1" width="6.52" height="3.25"/>
		<rect x="275.83" y="451.79" class="st1" width="3.27" height="6.52"/>
		<rect x="275.83" y="451.79" class="st1" width="6.55" height="3.26"/>
		<rect x="279.1" y="432.21" class="st1" width="3.27" height="22.84"/>
		<rect x="272.58" y="428.93" class="st1" width="6.52" height="3.28"/>
		<rect x="272.58" y="425.68" class="st1" width="3.24" height="6.53"/>
		<rect x="266.04" y="422.42" class="st1" width="6.55" height="3.26"/>
		<rect x="262.79" y="406.57" class="st1" width="3.24" height="15.85"/>
		<rect x="246.47" y="402.83" class="st1" width="26.12" height="6.54"/>
		<rect x="253" y="396.32" class="st1" width="13.03" height="7.91"/>
		<rect x="253" y="406.57" class="st1" width="3.25" height="15.85"/>
		<rect x="246.47" y="422.42" class="st1" width="6.53" height="3.26"/>
		<rect x="243.21" y="425.68" class="st1" width="3.26" height="6.53"/>
		<rect x="239.96" y="428.93" class="st1" width="6.51" height="3.28"/>
		<rect x="253" y="425.68" class="st3" width="3.25" height="6.53"/>
		<rect x="249.73" y="432.21" class="st3" width="3.27" height="9.79"/>
		<rect x="262.79" y="451.79" class="st3" width="3.24" height="6.52"/>
		<rect x="266.04" y="441.99" class="st3" width="3.27" height="9.79"/>
	</g>
	<g id="potion_1_">
		<polygon class="st1" points="69.69,351.6 79.34,330.92 82.29,332.3 72.65,352.99 		"/>
		
			<rect x="71.7" y="348.2" transform="matrix(0.4234 -0.906 0.906 0.4234 -276.123 269.0965)" class="st1" width="3.27" height="6.53"/>
		<polygon class="st1" points="71.24,355.95 72.62,352.99 78.54,355.75 77.16,358.71 		"/>
		<polygon class="st1" points="71.25,355.9 74.01,349.98 76.97,351.36 74.21,357.29 		"/>
		<polygon class="st1" points="75.8,361.66 77.17,358.7 100.82,369.74 99.44,372.7 		"/>
		<polygon class="st1" points="100.83,369.71 102.21,366.75 108.13,369.52 106.75,372.47 		"/>
		<polygon class="st1" points="103.79,371.1 106.56,365.18 109.51,366.56 106.75,372.47 		"/>
		<polygon class="st1" points="105.16,368.16 106.53,365.2 112.45,367.96 111.07,370.92 		"/>
		<polygon class="st1" points="108.13,369.54 117.77,348.84 120.73,350.2 111.08,370.93 		"/>
		<polygon class="st1" points="111.86,346.1 113.24,343.14 119.16,345.91 117.78,348.86 		"/>
		<polygon class="st1" points="111.91,346.09 114.66,340.16 117.62,341.55 114.87,347.47 		"/>
		<polygon class="st1" points="108.69,337.38 110.07,334.42 115.98,337.19 114.61,340.15 		"/>
		
			<rect x="104.04" y="324.87" transform="matrix(0.4228 -0.9062 0.9062 0.4228 -231.2618 289.9166)" class="st1" width="15.84" height="3.27"/>
		<polygon class="st1" points="97.84,314.29 100.6,308.37 124.25,319.4 121.5,325.32 		"/>
		<polygon class="st1" points="105.96,312.46 109.31,305.28 121.13,310.78 117.79,317.96 		"/>
		<polygon class="st1" points="98.28,328.95 104.98,314.59 107.93,315.97 101.23,330.33 		"/>
		<polygon class="st1" points="90.99,329.14 92.36,326.18 98.28,328.94 96.9,331.9 		"/>
		<polygon class="st1" points="85.24,333.65 87.99,327.73 90.95,329.12 88.19,335.03 		"/>
		<polygon class="st1" points="82.32,332.29 83.69,329.33 89.6,332.1 88.23,335.06 		"/>
		<polygon class="st3" points="94.11,337.75 96.86,331.83 99.82,333.21 97.06,339.13 		"/>
		<polygon class="st3" points="87.05,345.27 91.19,336.41 94.14,337.77 90.01,346.66 		"/>
		<polygon class="st3" points="91.97,365.57 94.72,359.64 97.68,361.03 94.93,366.95 		"/>
		<polygon class="st3" points="97.64,361.05 101.78,352.21 104.74,353.59 100.6,362.44 		"/>
	</g>
	<g id="potion_2_">
		<polygon class="st1" points="434.83,332.49 437.79,331.11 447.44,351.82 444.48,353.18 		"/>
		<polygon class="st1" points="440.09,351.64 446.01,348.89 447.39,351.85 441.47,354.58 		"/>
		
			<rect x="438.93" y="354.43" transform="matrix(0.9061 -0.4231 0.4231 0.9061 -109.1196 220.5315)" class="st1" width="6.54" height="3.27"/>
		<polygon class="st1" points="440.22,351.6 443.18,350.24 445.93,356.14 442.98,357.52 		"/>
		
			<rect x="415.73" y="364.26" transform="matrix(0.9063 -0.4227 0.4227 0.9063 -114.4742 215.53)" class="st1" width="26.09" height="3.27"/>
		<polygon class="st1" points="408.92,369.76 414.84,366.99 416.21,369.95 410.3,372.72 		"/>
		<polygon class="st1" points="407.49,366.77 410.45,365.39 413.19,371.31 410.25,372.7 		"/>
		
			<rect x="404.99" y="366.63" transform="matrix(0.9061 -0.423 0.423 0.9061 -117.4569 207.2688)" class="st1" width="6.54" height="3.27"/>
		<polygon class="st1" points="396.39,350.42 399.35,349.05 409.02,369.73 406.06,371.12 		"/>
		
			<rect x="398.28" y="344.59" transform="matrix(0.906 -0.4232 0.4232 0.906 -108.7917 202.4775)" class="st1" width="6.54" height="3.27"/>
		<polygon class="st1" points="399.48,341.71 402.44,340.33 405.19,346.25 402.24,347.63 		"/>
		<polygon class="st1" points="401.05,337.4 406.97,334.63 408.34,337.59 402.43,340.36 		"/>
		<polygon class="st1" points="400.32,320.34 403.28,318.96 409.97,333.31 407.01,334.7 		"/>
		<polygon class="st1" points="392.8,319.67 416.45,308.65 419.22,314.57 395.56,325.6 		"/>
		<polygon class="st1" points="395.96,310.99 407.76,305.49 411.13,312.67 399.3,318.17 		"/>
		<polygon class="st1" points="409.25,316.16 412.21,314.78 418.9,329.14 415.94,330.52 		"/>
		<polygon class="st1" points="418.82,329.14 424.72,326.37 426.1,329.33 420.19,332.1 		"/>
		
			<rect x="427.31" y="328.28" transform="matrix(0.9058 -0.4237 0.4237 0.9058 -100.0725 212.9745)" class="st1" width="3.27" height="6.54"/>
		<polygon class="st1" points="427.46,332.29 433.39,329.52 434.76,332.48 428.85,335.25 		"/>
		
			<rect x="418.43" y="332.52" transform="matrix(0.9062 -0.4228 0.4228 0.9062 -102.5826 209.0985)" class="st3" width="3.27" height="6.54"/>
		<polygon class="st3" points="422.91,338.01 425.87,336.64 429.98,345.48 427.04,346.86 		"/>
		<polygon class="st3" points="419.38,361.23 422.33,359.87 425.07,365.77 422.13,367.15 		"/>
		<polygon class="st3" points="412.29,353.79 415.25,352.4 419.41,361.27 416.45,362.64 		"/>
	</g>
	<g id="splash_potion">
		<rect x="328.97" y="374.86" class="st1" width="6.52" height="19.58"/>
		<rect x="325.7" y="371.62" class="st1" width="9.79" height="6.52"/>
		<rect x="332.25" y="374.86" class="st1" width="9.79" height="6.55"/>
		<rect x="338.76" y="378.14" class="st1" width="6.51" height="3.27"/>
		<rect x="332.25" y="387.93" class="st1" width="9.79" height="6.52"/>
		<rect x="338.76" y="394.44" class="st1" width="3.27" height="3.27"/>
		<rect x="335.49" y="397.72" class="st1" width="6.55" height="3.26"/>
		<rect x="332.25" y="400.98" class="st1" width="6.52" height="3.26"/>
		<rect x="335.49" y="397.72" class="st1" width="3.27" height="6.52"/>
		<rect x="332.25" y="404.23" class="st1" width="3.24" height="22.84"/>
		<rect x="335.49" y="427.09" class="st1" width="6.55" height="3.24"/>
		<rect x="342.04" y="430.33" class="st1" width="19.57" height="3.27"/>
		<rect x="361.6" y="427.09" class="st1" width="6.53" height="3.24"/>
		<rect x="368.13" y="423.81" class="st1" width="6.52" height="3.26"/>
		<rect x="371.38" y="410.75" class="st1" width="3.27" height="16.34"/>
		<rect x="368.13" y="410.75" class="st1" width="6.52" height="3.27"/>
		<rect x="368.13" y="400.98" class="st1" width="3.24" height="13.05"/>
		<rect x="361.6" y="397.72" class="st1" width="6.53" height="3.26"/>
		<rect x="361.6" y="394.44" class="st1" width="3.25" height="6.53"/>
		<rect x="355.07" y="387.93" class="st1" width="3.27" height="6.52"/>
		<rect x="355.07" y="391.19" class="st1" width="6.54" height="3.25"/>
		<rect x="351.82" y="387.93" class="st1" width="3.24" height="3.26"/>
		<rect x="345.28" y="381.4" class="st1" width="3.28" height="3.25"/>
		<rect x="348.55" y="384.65" class="st1" width="3.27" height="3.27"/>
		<rect x="348.55" y="423.81" class="st3" width="3.27" height="6.52"/>
		<rect x="342.04" y="420.54" class="st3" width="6.52" height="3.27"/>
		<rect x="342.04" y="414.02" class="st3" width="3.23" height="9.79"/>
		<rect x="358.34" y="400.98" class="st3" width="3.26" height="9.77"/>
		<rect x="355.07" y="397.72" class="st3" width="3.27" height="3.26"/>
	</g>
	<g id="splash_potion_1_">
		<rect x="183.55" y="374.86" class="st1" width="6.52" height="19.58"/>
		<rect x="183.55" y="371.62" class="st1" width="9.79" height="6.52"/>
		<rect x="177.01" y="374.86" class="st1" width="9.79" height="6.55"/>
		<rect x="173.76" y="378.14" class="st1" width="6.53" height="3.27"/>
		<rect x="177.01" y="387.93" class="st1" width="9.79" height="6.52"/>
		<rect x="177.01" y="394.44" class="st1" width="3.27" height="3.27"/>
		<rect x="177.01" y="397.72" class="st1" width="6.53" height="3.26"/>
		<rect x="180.29" y="400.98" class="st1" width="6.52" height="3.26"/>
		<rect x="180.29" y="397.72" class="st1" width="3.26" height="6.52"/>
		<rect x="183.55" y="404.23" class="st1" width="3.26" height="22.84"/>
		<rect x="177.01" y="427.09" class="st1" width="6.53" height="3.24"/>
		<rect x="157.44" y="430.33" class="st1" width="19.58" height="3.27"/>
		<rect x="150.92" y="427.09" class="st1" width="6.53" height="3.24"/>
		<rect x="144.39" y="423.81" class="st1" width="6.53" height="3.26"/>
		<rect x="144.39" y="410.75" class="st1" width="3.26" height="16.34"/>
		<rect x="144.39" y="410.75" class="st1" width="6.53" height="3.27"/>
		<rect x="147.67" y="400.98" class="st1" width="3.25" height="13.05"/>
		<rect x="150.92" y="397.72" class="st1" width="6.53" height="3.26"/>
		<rect x="154.18" y="394.44" class="st1" width="3.26" height="6.53"/>
		<rect x="157.44" y="391.19" class="st1" width="6.53" height="3.25"/>
		<rect x="163.97" y="387.93" class="st1" width="3.26" height="3.26"/>
		<rect x="170.5" y="381.4" class="st1" width="3.25" height="3.25"/>
		<rect x="167.23" y="384.65" class="st1" width="3.27" height="3.27"/>
		<rect x="167.23" y="423.81" class="st3" width="3.27" height="6.52"/>
		<rect x="170.5" y="420.54" class="st3" width="6.52" height="3.27"/>
		<rect x="173.76" y="414.02" class="st3" width="3.25" height="9.79"/>
		<rect x="157.44" y="400.98" class="st3" width="3.27" height="9.77"/>
		<rect x="160.71" y="397.72" class="st3" width="3.26" height="3.26"/>
		<rect x="160.71" y="387.93" class="st1" width="3.26" height="6.52"/>
	</g>
</g>
<g>
	<g>
		<path class="st4" d="M51.66,510.32h408.68c27.41,0,49.63-22.22,49.63-49.62V52.03c0-27.41-22.22-49.63-49.63-49.63H51.66
			C24.25,2.4,2.03,24.62,2.03,52.03V460.7C2.03,488.11,24.26,510.32,51.66,510.32z"/>
	</g>
</g>
<polyline class="st0" points="195.78,117.59 195.79,126.43 315.15,126.43 314.89,109.28 293.55,111.67 "/>
</svg>
