<?xml version="1.0" encoding="utf-8"?>
<!-- Generator: Adobe Illustrator 23.0.6, SVG Export Plug-In . SVG Version: 6.00 Build 0)  -->
<svg version="1.1"
	 id="crossbow_cartridges" xmlns:cc="http://creativecommons.org/ns#" xmlns:dc="http://purl.org/dc/elements/1.1/" xmlns:inkscape="http://www.inkscape.org/namespaces/inkscape" xmlns:rdf="http://www.w3.org/1999/02/22-rdf-syntax-ns#" xmlns:sodipodi="http://sodipodi.sourceforge.net/DTD/sodipodi-0.dtd" xmlns:svg="http://www.w3.org/2000/svg"
	 xmlns="http://www.w3.org/2000/svg" xmlns:xlink="http://www.w3.org/1999/xlink" x="0px" y="0px" viewBox="0 0 512 512"
	 style="enable-background:new 0 0 512 512;" xml:space="preserve">
<style type="text/css">
	.st0{fill:#FFFFFF;}
	.st1{fill:#A1CEE2;}
	.st2{fill:#4AA0C7;}
	.st3{fill:#3D83A3;}
</style>
<rect class="st0" width="512" height="512"/>
<g id="Icon">
	<g id="Crossbow">
		<rect x="135.26" y="136.44" class="st1" width="25.79" height="24.72"/>
		<rect x="110.62" y="158.89" class="st2" width="52.93" height="26"/>
		<rect x="135.44" y="163.35" class="st2" width="28.58" height="46.37"/>
		<rect x="160.03" y="136.88" class="st2" width="51.28" height="27.17"/>
		<rect x="159.8" y="112.29" class="st2" width="23.42" height="56.21"/>
		<rect x="352.11" y="354.18" class="st3" width="73.16" height="71.4"/>
		<rect x="327.8" y="330.08" class="st3" width="73.17" height="71.4"/>
		<rect x="304.29" y="305.37" class="st3" width="73.15" height="71.4"/>
		<rect x="256.42" y="256.39" class="st3" width="96.14" height="96.91"/>
		<rect x="232.66" y="232.8" class="st3" width="96.14" height="96.89"/>
		<rect x="207.25" y="209.14" class="st3" width="96.14" height="96.91"/>
		<rect x="184.47" y="184.62" class="st3" width="96.15" height="96.91"/>
		<rect x="159.94" y="158.77" class="st3" width="96.14" height="96.9"/>
		<rect x="129.66" y="352.92" class="st2" width="247.46" height="23.85"/>
		<rect x="352.19" y="128.54" class="st2" width="25.44" height="248.29"/>
		<rect x="207.69" y="111.9" class="st3" width="47.53" height="58.29"/>
		<rect x="249.52" y="112.1" class="st3" width="79.98" height="46.71"/>
		<rect x="256.07" y="87.5" class="st3" width="145.04" height="49.18"/>
		<rect x="352.22" y="63.61" class="st3" width="24.87" height="30.98"/>
		<rect x="110.52" y="208.41" class="st3" width="58.29" height="47.53"/>
		<rect x="110.3" y="208.64" class="st3" width="49.64" height="96.83"/>
		<rect x="87.15" y="257.11" class="st3" width="49.08" height="144.65"/>
		<rect x="63.82" y="354.26" class="st3" width="29.13" height="22"/>
		<rect x="140.87" y="208.51" class="st3" width="41.35" height="47.89"/>
		<rect x="377.4" y="407.28" class="st3" width="48.43" height="44.22"/>
		<rect x="407.28" y="377.42" class="st3" width="44.22" height="49.37"/>
	</g>
	<g id="Fish">
		<rect x="345.42" y="347.66" class="st2" width="9.8" height="8.64"/>
		<rect x="225.52" y="239.3" class="st1" width="65.52" height="54.04"/>
		<rect x="236.59" y="227.92" class="st1" width="33.17" height="15.01"/>
		<rect x="246.27" y="250" class="st1" width="76.8" height="55.23"/>
		<rect x="247.66" y="293.33" class="st1" width="86.48" height="22.47"/>
		<rect x="318.21" y="261.26" class="st1" width="15.68" height="21.36"/>
		<rect x="279.3" y="312.51" class="st1" width="54.76" height="13.18"/>
		<rect x="279.64" y="315.34" class="st1" width="65.61" height="21.53"/>
		<rect x="313.03" y="325.18" class="st1" width="54.59" height="22.71"/>
		<rect x="323.05" y="343.04" class="st1" width="22.7" height="27.23"/>
		<rect x="225.45" y="228.03" class="st2" width="11.14" height="11.21"/>
		<rect x="215.65" y="239.16" class="st2" width="9.82" height="33.33"/>
		<rect x="225.47" y="272.44" class="st2" width="11.22" height="21.04"/>
		<rect x="236.63" y="293.28" class="st2" width="11.02" height="12.03"/>
		<rect x="247.63" y="304.62" class="st2" width="11.2" height="11.19"/>
		<rect x="258.82" y="315.81" class="st2" width="21.01" height="9.83"/>
		<rect x="279.25" y="325.64" class="st2" width="33.77" height="11.26"/>
		<rect x="247.69" y="239.14" class="st3" width="11.07" height="10.9"/>
		<rect x="313.03" y="347.54" class="st2" width="10.35" height="24.57"/>
	</g>
</g>
</svg>
