<?xml version="1.0" encoding="UTF-8" standalone="no"?>
<!-- Created with Inkscape (http://www.inkscape.org/) -->

<svg
   width="1024"
   height="1024"
   viewBox="0 0 270.93333 270.93333"
   version="1.1"
   id="svg5"
   xml:space="preserve"
   inkscape:version="1.2.1 (9c6d41e410, 2022-07-14)"
   sodipodi:docname="pack.svg"
   inkscape:export-filename="pack.png"
   inkscape:export-xdpi="48"
   inkscape:export-ydpi="48"
   xmlns:inkscape="http://www.inkscape.org/namespaces/inkscape"
   xmlns:sodipodi="http://sodipodi.sourceforge.net/DTD/sodipodi-0.dtd"
   xmlns="http://www.w3.org/2000/svg"
   xmlns:svg="http://www.w3.org/2000/svg"><sodipodi:namedview
     id="namedview7"
     pagecolor="#ffffff"
     bordercolor="#666666"
     borderopacity="1.0"
     inkscape:showpageshadow="2"
     inkscape:pageopacity="0.0"
     inkscape:pagecheckerboard="0"
     inkscape:deskcolor="#d1d1d1"
     inkscape:document-units="mm"
     showgrid="true"
     inkscape:zoom="0.79492188"
     inkscape:cx="514.51597"
     inkscape:cy="432.74693"
     inkscape:window-width="1920"
     inkscape:window-height="1017"
     inkscape:window-x="-8"
     inkscape:window-y="-8"
     inkscape:window-maximized="1"
     inkscape:current-layer="layer1"><inkscape:grid
       type="xygrid"
       id="grid1310" /></sodipodi:namedview><defs
     id="defs2"><filter
       style="color-interpolation-filters:sRGB;"
       inkscape:label="Colorize"
       id="filter729437"
       x="0"
       y="0"
       width="1"
       height="1"><feComposite
         in2="SourceGraphic"
         operator="arithmetic"
         k1="0"
         k2="1"
         result="composite1"
         id="feComposite729423" /><feColorMatrix
         in="composite1"
         values="1"
         type="saturate"
         result="colormatrix1"
         id="feColorMatrix729425" /><feFlood
         flood-opacity="1"
         flood-color="rgb(74,160,199)"
         result="flood1"
         id="feFlood729427" /><feBlend
         in="flood1"
         in2="colormatrix1"
         mode="multiply"
         result="blend1"
         id="feBlend729429" /><feBlend
         in2="blend1"
         mode="screen"
         result="blend2"
         id="feBlend729431" /><feColorMatrix
         in="blend2"
         values="1"
         type="saturate"
         result="colormatrix2"
         id="feColorMatrix729433" /><feComposite
         in="colormatrix2"
         in2="SourceGraphic"
         operator="in"
         k2="1"
         result="composite2"
         id="feComposite729435" /></filter></defs><g
     inkscape:label="Layer 1"
     inkscape:groupmode="layer"
     id="layer1"><rect
       style="fill:#ffffff;stroke-width:1.49"
       id="rect728871"
       width="271.19791"
       height="271.19791"
       x="0"
       y="0" /><path
       style="fill:#4aa0c7;stroke-width:1.1181;fill-opacity:1"
       d="m 21.241673,205.79824 c 0.07088,-20.58454 -0.129028,-41.75657 -0.129028,-41.75657 0,0 2.398431,0 6.7939,0 h 6.308625 l 0.252579,32.15018 0.232698,32.16175 4.860345,0.25782 c 12.030037,0.63817 28.969298,2.097 37.479356,3.51448 11.644685,1.93961 42.945082,9.54847 42.945082,10.43959 0,0.36164 -22.122683,0.65752 -49.161509,0.65752 l -49.711076,0.0374 z m 128.414737,36.77848 c 0,-0.94916 31.60558,-8.51396 43.7259,-10.4658 9.95274,-1.60277 25.07493,-3.07118 35.91772,-3.48775 l 5.82053,-0.26957 0.0534,-32.20731 -0.0534,-32.10462 h 7.27916 6.30861 l 0.11202,39.5551 -0.11202,39.23766 -49.46999,0.19969 c -27.27014,0.11622 -49.58207,-0.0897 -49.58207,-0.4574 z m -28.89034,-3.85606 C 94.429845,230.8588 64.310098,225.61134 45.520551,225.61134 h -5.178929 v -39.74176 -39.74179 l 11.454779,0.44411 c 18.613777,0.72163 46.329133,6.11088 71.702539,13.9425 l 9.2278,2.67546 v 39.18341 c 2e-5,21.54241 0,39.60935 0,39.60935 0,0 -6.80725,-1.72359 -11.96067,-3.26196 z m 17.78402,-36.34739 c 0.38495,-35.92087 0,-39.18341 0,-39.18341 0,0 38.53164,-11.24658 52.7853,-13.64962 8.15958,-1.37565 19.93044,-2.70622 26.15748,-2.9568 l 11.80716,-0.45565 v 39.74179 39.74176 h -5.17893 c -18.56515,0 -47.27911,4.91856 -73.05651,12.51421 -6.52616,1.92302 -12.5145,3.85707 -12.5145,3.85707 0,0 -0.23055,-18.09585 0,-39.60935 z"
       id="path1259"
       sodipodi:nodetypes="scscccsssscssssccccccccssscccsscsscsscscccssscs" /><g
       id="g729387"
       transform="matrix(1.92365,0,0,1.92365,-134.57712,-99.120773)"
       style="filter:url(#filter729437)"><path
         style="fill:#e6e6e6;fill-opacity:1;stroke-width:0.264583"
         d="m 125.19781,117.42574 -13.82448,-6.92929 V 93.163071 75.829687 l 14.02292,-7.007465 14.02292,-7.007465 14.02291,7.007465 14.02292,7.007465 v 17.333379 17.333374 l -13.89129,6.94414 c -7.64021,3.81928 -14.03982,6.93746 -14.22135,6.92929 -0.18154,-0.008 -6.55108,-3.13302 -14.15455,-6.94413 z"
         id="path729421" /><path
         style="fill:#dbdbdb;fill-opacity:1;stroke-width:0.264583"
         d="m 125.19781,117.42574 -13.82448,-6.92929 V 93.163071 75.829687 l 14.02292,-7.007465 14.02292,-7.007465 14.02291,7.007465 14.02292,7.007465 v 17.333379 17.333374 l -13.89129,6.94414 c -7.64021,3.81928 -14.03982,6.93746 -14.22135,6.92929 -0.18154,-0.008 -6.55108,-3.13302 -14.15455,-6.94413 z"
         id="path729419" /><path
         style="fill:#cfcfcf;fill-opacity:1;stroke-width:0.264583"
         d="m 125.19781,117.42574 -13.82448,-6.92929 V 93.163071 75.829687 l 14.02292,-7.007465 14.02292,-7.007465 14.02291,7.007465 14.02292,7.007465 v 17.333379 17.333374 l -13.89129,6.94414 c -7.64021,3.81928 -14.03982,6.93746 -14.22135,6.92929 -0.18154,-0.008 -6.55108,-3.13302 -14.15455,-6.94413 z"
         id="path729417" /><path
         style="fill:#c4c4c4;fill-opacity:1;stroke-width:0.264583"
         d="m 125.19781,117.42574 -13.82448,-6.92929 V 93.163071 75.829687 l 14.02292,-7.007465 14.02292,-7.007465 14.02291,7.007465 14.02292,7.007465 v 17.333379 17.333374 l -13.89129,6.94414 c -7.64021,3.81928 -14.03982,6.93746 -14.22135,6.92929 -0.18154,-0.008 -6.55108,-3.13302 -14.15455,-6.94413 z m 10.78177,-9.78527 v -2.19217 l -1.7248,-0.85054 c -0.94864,-0.4678 -1.78208,-0.85054 -1.85208,-0.85054 -0.07,0 -0.12728,0.95086 -0.12728,2.11302 v 2.11302 l 1.78593,0.91668 c 0.98227,0.50417 1.81571,0.92253 1.85209,0.92969 0.0364,0.007 0.0661,-0.97347 0.0661,-2.17916 z M 118.2525,98.723949 V 96.61109 l -1.57995,-0.797558 c -0.86898,-0.438658 -1.64289,-0.79756 -1.7198,-0.79756 -0.0769,0 -0.13983,0.950593 -0.13983,2.112426 v 2.112425 l 1.52135,0.785267 c 0.83675,0.43189 1.61065,0.79099 1.71979,0.79799 l 0.19844,0.0127 z"
         id="path729415" /><path
         style="fill:#b9b9b9;fill-opacity:1;stroke-width:0.264583"
         d="m 125.19781,117.42574 -13.82448,-6.92929 V 93.163071 75.829687 l 14.02292,-7.007465 14.02292,-7.007465 14.02291,7.007465 14.02292,7.007465 v 17.333379 17.333374 l -13.89129,6.94414 c -7.64021,3.81928 -14.03982,6.93746 -14.22135,6.92929 -0.18154,-0.008 -6.55108,-3.13302 -14.15455,-6.94413 z m 10.78177,-9.78527 v -2.19217 l -1.7248,-0.85054 c -0.94864,-0.4678 -1.78208,-0.85054 -1.85208,-0.85054 -0.07,0 -0.12728,0.95086 -0.12728,2.11302 v 2.11302 l 1.78593,0.91668 c 0.98227,0.50417 1.81571,0.92253 1.85209,0.92969 0.0364,0.007 0.0661,-0.97347 0.0661,-2.17916 z M 118.2525,98.723949 V 96.61109 l -1.57995,-0.797558 c -0.86898,-0.438658 -1.64289,-0.79756 -1.7198,-0.79756 -0.0769,0 -0.13983,0.950593 -0.13983,2.112426 v 2.112425 l 1.52135,0.785267 c 0.83675,0.43189 1.61065,0.79099 1.71979,0.79799 l 0.19844,0.0127 z"
         id="path729413" /><path
         style="fill:#aeaeae;fill-opacity:1;stroke-width:0.264583"
         d="m 125.19781,117.42574 -13.82448,-6.92929 V 93.163071 75.829687 l 14.02292,-7.007465 14.02292,-7.007465 14.02291,7.007465 14.02292,7.007465 v 17.333379 17.333374 l -13.89129,6.94414 c -7.64021,3.81928 -14.03982,6.93746 -14.22135,6.92929 -0.18154,-0.008 -6.55108,-3.13302 -14.15455,-6.94413 z m 10.78177,-9.78527 v -2.19217 l -1.7248,-0.85054 c -0.94864,-0.4678 -1.78208,-0.85054 -1.85208,-0.85054 -0.07,0 -0.12728,0.95086 -0.12728,2.11302 v 2.11302 l 1.78593,0.91668 c 0.98227,0.50417 1.81571,0.92253 1.85209,0.92969 0.0364,0.007 0.0661,-0.97347 0.0661,-2.17916 z M 118.2525,98.723949 V 96.61109 l -1.57995,-0.797558 c -0.86898,-0.438658 -1.64289,-0.79756 -1.7198,-0.79756 -0.0769,0 -0.13983,0.950593 -0.13983,2.112426 v 2.112425 l 1.52135,0.785267 c 0.83675,0.43189 1.61065,0.79099 1.71979,0.79799 l 0.19844,0.0127 z"
         id="path729411" /><path
         style="fill:#a3a3a3;fill-opacity:1;stroke-width:0.264583"
         d="m 125.19781,117.42574 -13.82448,-6.92929 V 93.163071 75.829687 l 14.02292,-7.007465 14.02292,-7.007465 14.02291,7.007465 14.02292,7.007465 v 17.333379 17.333374 l -13.89129,6.94414 c -7.64021,3.81928 -14.03982,6.93746 -14.22135,6.92929 -0.18154,-0.008 -6.55108,-3.13302 -14.15455,-6.94413 z m 10.78177,-9.78527 v -2.19217 l -1.7248,-0.85054 c -0.94864,-0.4678 -1.78208,-0.85054 -1.85208,-0.85054 -0.07,0 -0.12728,0.95086 -0.12728,2.11302 v 2.11302 l 1.78593,0.91668 c 0.98227,0.50417 1.81571,0.92253 1.85209,0.92969 0.0364,0.007 0.0661,-0.97347 0.0661,-2.17916 z M 118.2525,98.723949 V 96.61109 l -1.57995,-0.797558 c -0.86898,-0.438658 -1.64289,-0.79756 -1.7198,-0.79756 -0.0769,0 -0.13983,0.950593 -0.13983,2.112426 v 2.112425 l 1.52135,0.785267 c 0.83675,0.43189 1.61065,0.79099 1.71979,0.79799 l 0.19844,0.0127 z"
         id="path729409" /><path
         style="fill:#989898;fill-opacity:1;stroke-width:0.264583"
         d="m 125.19781,117.42574 -13.82448,-6.92929 V 93.163071 75.829687 l 14.02292,-7.007465 14.02292,-7.007465 14.02291,7.007465 14.02292,7.007465 v 17.333379 17.333374 l -13.89129,6.94414 c -7.64021,3.81928 -14.03982,6.93746 -14.22135,6.92929 -0.18154,-0.008 -6.55108,-3.13302 -14.15455,-6.94413 z m 10.78177,-9.78527 v -2.19217 l -1.7248,-0.85054 c -0.94864,-0.4678 -1.78208,-0.85054 -1.85208,-0.85054 -0.07,0 -0.12728,0.95086 -0.12728,2.11302 v 2.11302 l 1.78593,0.91668 c 0.98227,0.50417 1.81571,0.92253 1.85209,0.92969 0.0364,0.007 0.0661,-0.97347 0.0661,-2.17916 z M 118.2525,98.723949 V 96.61109 l -1.57995,-0.797558 c -0.86898,-0.438658 -1.64289,-0.79756 -1.7198,-0.79756 -0.0769,0 -0.13983,0.950593 -0.13983,2.112426 v 2.112425 l 1.52135,0.785267 c 0.83675,0.43189 1.61065,0.79099 1.71979,0.79799 l 0.19844,0.0127 z"
         id="path729407" /><path
         style="fill:#8c8c8c;fill-opacity:1;stroke-width:0.264583"
         d="m 125.19781,117.42574 -13.82448,-6.92929 V 93.163071 75.829687 l 14.02292,-7.007465 14.02292,-7.007465 14.02291,7.007465 14.02292,7.007465 v 17.333379 17.333374 l -13.89129,6.94414 c -7.64021,3.81928 -14.03982,6.93746 -14.22135,6.92929 -0.18154,-0.008 -6.55108,-3.13302 -14.15455,-6.94413 z m 10.78177,-9.78527 v -2.19217 l -1.7248,-0.85054 c -0.94864,-0.4678 -1.78208,-0.85054 -1.85208,-0.85054 -0.07,0 -0.12728,0.95086 -0.12728,2.11302 v 2.11302 l 1.78593,0.91668 c 0.98227,0.50417 1.81571,0.92253 1.85209,0.92969 0.0364,0.007 0.0661,-0.97347 0.0661,-2.17916 z M 118.2525,98.723949 V 96.61109 l -1.57995,-0.797558 c -0.86898,-0.438658 -1.64289,-0.79756 -1.7198,-0.79756 -0.0769,0 -0.13983,0.950593 -0.13983,2.112426 v 2.112425 l 1.52135,0.785267 c 0.83675,0.43189 1.61065,0.79099 1.71979,0.79799 l 0.19844,0.0127 z"
         id="path729405" /><path
         style="fill:#818181;fill-opacity:1;stroke-width:0.264583"
         d="m 125.19781,117.42574 -13.82448,-6.92929 V 93.163071 75.829687 l 14.02292,-7.007465 14.02292,-7.007465 14.02291,7.007465 14.02292,7.007465 v 17.333379 17.333374 l -13.89129,6.94414 c -7.64021,3.81928 -14.03982,6.93746 -14.22135,6.92929 -0.18154,-0.008 -6.55108,-3.13302 -14.15455,-6.94413 z m 10.78177,-9.78527 v -2.19217 l -1.7248,-0.85054 c -0.94864,-0.4678 -1.78208,-0.85054 -1.85208,-0.85054 -0.07,0 -0.12728,0.95086 -0.12728,2.11302 v 2.11302 l 1.78593,0.91668 c 0.98227,0.50417 1.81571,0.92253 1.85209,0.92969 0.0364,0.007 0.0661,-0.97347 0.0661,-2.17916 z M 118.2525,98.723949 V 96.61109 l -1.57995,-0.797558 c -0.86898,-0.438658 -1.64289,-0.79756 -1.7198,-0.79756 -0.0769,0 -0.13983,0.950593 -0.13983,2.112426 v 2.112425 l 1.52135,0.785267 c 0.83675,0.43189 1.61065,0.79099 1.71979,0.79799 l 0.19844,0.0127 z"
         id="path729403" /><path
         style="fill:#767676;fill-opacity:1;stroke-width:0.264583"
         d="m 125.19781,117.42574 -13.82448,-6.92929 V 93.163071 75.829687 l 14.02292,-7.007465 14.02292,-7.007465 14.02291,7.007465 14.02292,7.007465 v 17.333379 17.333374 l -13.89129,6.94414 c -7.64021,3.81928 -14.03982,6.93746 -14.22135,6.92929 -0.18154,-0.008 -6.55108,-3.13302 -14.15455,-6.94413 z m 10.78177,-9.78527 v -2.19217 l -1.7248,-0.85054 c -0.94864,-0.4678 -1.78208,-0.85054 -1.85208,-0.85054 -0.07,0 -0.12728,0.95086 -0.12728,2.11302 v 2.11302 l 1.78593,0.91668 c 0.98227,0.50417 1.81571,0.92253 1.85209,0.92969 0.0364,0.007 0.0661,-0.97347 0.0661,-2.17916 z M 118.2525,98.723949 V 96.61109 l -1.57995,-0.797558 c -0.86898,-0.438658 -1.64289,-0.79756 -1.7198,-0.79756 -0.0769,0 -0.13983,0.950593 -0.13983,2.112426 v 2.112425 l 1.52135,0.785267 c 0.83675,0.43189 1.61065,0.79099 1.71979,0.79799 l 0.19844,0.0127 z m 14.02292,-1.5875 V 95.02359 l -1.57996,-0.797558 c -0.86897,-0.438658 -1.64288,-0.79756 -1.71979,-0.79756 -0.0769,0 -0.13984,0.950593 -0.13984,2.112426 v 2.112425 l 1.52136,0.785265 c 0.83674,0.431895 1.61065,0.790993 1.71979,0.797991 l 0.19844,0.01273 z m -6.87917,-3.439583 v -2.11286 l -1.57995,-0.797557 c -0.86898,-0.438658 -1.64289,-0.79756 -1.7198,-0.79756 -0.0769,0 -0.13983,0.950592 -0.13983,2.112425 v 2.112426 l 1.52135,0.785265 c 0.83675,0.431895 1.61065,0.790993 1.71979,0.797991 l 0.19844,0.01273 z"
         id="path729401" /><path
         style="fill:#6b6b6b;fill-opacity:1;stroke-width:0.264583"
         d="m 125.19781,117.42574 -13.82448,-6.92929 v -6.41732 c 0,-3.52953 0.0614,-6.417324 0.13636,-6.417324 0.075,0 1.56145,0.714375 3.30323,1.5875 1.74177,0.873124 3.22822,1.587504 3.30322,1.587504 0.075,0 0.13636,-1.906502 0.13636,-4.236663 v -4.23666 l 1.85208,0.932694 1.85209,0.932693 v 4.230007 c 0,2.326509 -0.0629,4.230009 -0.13984,4.230009 -0.0769,0 -0.84742,-0.35719 -1.71225,-0.79375 -0.86482,-0.43656 -1.63533,-0.79375 -1.71224,-0.79375 -0.0769,0 -0.13984,0.951 -0.13984,2.11334 v 2.11334 l 1.85208,0.93269 1.85209,0.9327 v -2.12 c 0,-1.16599 0.0614,-2.11999 0.13636,-2.11999 0.075,0 1.56145,0.71438 3.30322,1.5875 1.74178,0.87313 3.22823,1.5875 3.30322,1.5875 0.075,0 0.13636,-0.95361 0.13636,-2.11914 v -2.11913 l -1.71979,-0.84807 -1.71979,-0.84807 v -2.059875 c 0,-1.132933 0.0629,-2.059879 0.13984,-2.059879 0.0769,0 0.85081,0.358902 1.71979,0.79756 l 1.57995,0.797557 v 2.109049 2.109048 l 1.57996,0.79756 c 0.86897,0.43866 1.64288,0.79756 1.71979,0.79756 0.0769,0 0.13984,-1.90465 0.13984,-4.232556 v -4.232556 l -8.73125,-4.367181 -8.73125,-4.36718 v 4.234111 c 0,2.328762 -0.0629,4.234111 -0.13984,4.234111 -0.0769,0 -0.85082,-0.358902 -1.71979,-0.79756 l -1.57996,-0.797557 V 84.49298 75.829687 l 14.02292,-7.007465 14.02292,-7.007465 14.02291,7.007465 14.02292,7.007465 v 17.333379 17.333374 l -13.89129,6.94414 c -7.64021,3.81928 -14.03982,6.93746 -14.22135,6.92929 -0.18154,-0.008 -6.55108,-3.13302 -14.15455,-6.94413 z m 7.07761,-7.32471 v -2.11286 l -1.57996,-0.79755 c -0.86897,-0.43866 -1.64288,-0.79756 -1.71979,-0.79756 -0.0769,0 -0.13984,0.95059 -0.13984,2.11242 v 2.11243 l 1.52136,0.78526 c 0.83674,0.4319 1.61065,0.79099 1.71979,0.79799 l 0.19844,0.0127 z m 3.70416,-2.46056 v -2.19217 l -1.7248,-0.85054 c -0.94864,-0.4678 -1.78208,-0.85054 -1.85208,-0.85054 -0.07,0 -0.12728,0.95086 -0.12728,2.11302 v 2.11302 l 1.78593,0.91668 c 0.98227,0.50417 1.81571,0.92253 1.85209,0.92969 0.0364,0.007 0.0661,-0.97347 0.0661,-2.17916 z"
         id="path729399" /><path
         style="fill:#606060;fill-opacity:1;stroke-width:0.264583"
         d="m 125.19781,117.42574 -13.82448,-6.92929 v -6.41732 c 0,-3.52953 0.0629,-6.417324 0.13984,-6.417324 0.0769,0 0.85082,0.358902 1.71979,0.79756 l 1.57996,0.797557 v 2.183547 2.18354 l 3.57187,1.78015 3.57188,1.78015 v -2.11542 c 0,-1.16348 0.0614,-2.11542 0.13636,-2.11542 0.075,0 1.56145,0.71438 3.30322,1.5875 1.74178,0.87313 3.22823,1.5875 3.30322,1.5875 0.075,0 0.13636,-0.95361 0.13636,-2.11914 v -2.11913 l -1.71979,-0.84807 -1.71979,-0.84807 v -2.059875 c 0,-1.132933 0.0629,-2.059879 0.13984,-2.059879 0.0769,0 0.85081,0.358902 1.71979,0.79756 l 1.57995,0.797557 v 2.109049 2.109048 l 1.57996,0.79756 c 0.86897,0.43866 1.64288,0.79756 1.71979,0.79756 0.0769,0 0.13984,-0.89297 0.13984,-1.98438 0,-1.0914 0.0629,-1.984371 0.13983,-1.984371 0.0769,0 0.84743,0.357187 1.71225,0.793751 0.86483,0.43656 1.63534,0.79375 1.71225,0.79375 0.0769,0 0.13983,-0.95221 0.13983,-2.116022 v -2.116021 l -10.58333,-5.292958 -10.58333,-5.292958 v 2.117312 c 0,1.164522 -0.0629,2.117313 -0.13984,2.117313 -0.0769,0 -0.85082,-0.358902 -1.71979,-0.79756 l -1.57996,-0.797558 v -6.546625 -6.546626 l 14.02292,-7.007465 14.02292,-7.007465 14.02291,7.007465 14.02292,7.007465 v 17.333379 17.333374 l -13.89129,6.94414 c -7.64021,3.81928 -14.03982,6.93746 -14.22135,6.92929 -0.18154,-0.008 -6.55108,-3.13302 -14.15455,-6.94413 z m 7.07761,-7.32471 v -2.11286 l -1.57996,-0.79755 c -0.86897,-0.43866 -1.64288,-0.79756 -1.71979,-0.79756 -0.0769,0 -0.13984,0.95059 -0.13984,2.11242 v 2.11243 l 1.52136,0.78526 c 0.83674,0.4319 1.61065,0.79099 1.71979,0.79799 l 0.19844,0.0127 z m 7.14375,-0.79566 v -2.11478 l -3.43581,-1.72168 c -1.88969,-0.94693 -3.49704,-1.72169 -3.57187,-1.72169 -0.0748,0 -0.13607,0.95161 -0.13607,2.11468 v 2.11467 l 3.37343,1.70799 c 1.8554,0.93939 3.46274,1.7142 3.57188,1.72178 l 0.19844,0.0138 z m -19.51302,-7.48262 -1.65365,-0.83437 v -2.195782 -2.195777 l 1.85208,0.932693 1.85209,0.932693 v 2.113343 2.11334 l -0.19844,-0.0159 c -0.10914,-0.009 -0.94258,-0.39135 -1.85208,-0.85025 z"
         id="path729397" /><path
         style="fill:#545454;fill-opacity:1;stroke-width:0.264583"
         d="m 125.19781,117.42574 -13.82448,-6.92929 v -4.30191 -4.30192 l 5.29167,2.64835 5.29167,2.64836 v -2.11793 c 0,-1.16486 0.0614,-2.11793 0.13636,-2.11793 0.075,0 1.56145,0.71438 3.30322,1.5875 1.74178,0.87313 3.22823,1.5875 3.30322,1.5875 0.075,0 0.13636,-0.95139 0.13636,-2.11419 v -2.1142 l 1.7198,0.84807 1.71979,0.84806 v 2.19598 2.19598 l -1.57996,-0.79755 c -0.86897,-0.43866 -1.64288,-0.79756 -1.71979,-0.79756 -0.0769,0 -0.13984,0.95164 -0.13984,2.11477 v 2.11477 l 3.43581,1.72169 c 1.88969,0.94692 3.49704,1.72168 3.57187,1.72168 0.0748,0 0.13607,-0.95421 0.13607,-2.12047 v -2.12048 l 1.57996,0.79756 c 0.86897,0.43866 1.64288,0.79756 1.71979,0.79756 0.0769,0 0.13984,-1.90611 0.13984,-4.23581 v -4.2358 l -1.71979,-0.84807 -1.7198,-0.84806 v -2.191528 -2.191525 l -10.58333,-5.292958 -10.58333,-5.292958 v 2.117312 c 0,1.164522 -0.0629,2.117313 -0.13984,2.117313 -0.0769,0 -0.85082,-0.358902 -1.71979,-0.79756 l -1.57996,-0.797558 v -6.546625 -6.546626 l 14.02292,-7.007465 14.02292,-7.007465 14.02291,7.007465 14.02292,7.007465 v 17.333379 17.333374 l -13.89129,6.94414 c -7.64021,3.81928 -14.03982,6.93746 -14.22135,6.92929 -0.18154,-0.008 -6.55108,-3.13302 -14.15455,-6.94413 z m -5.29166,-15.60299 -1.65365,-0.83437 v -2.195782 -2.195777 l 1.85208,0.932693 1.85209,0.932693 v 2.113343 2.11334 l -0.19844,-0.0159 c -0.10914,-0.009 -0.94258,-0.39135 -1.85208,-0.85025 z"
         id="path729395" /><path
         style="fill:#494949;fill-opacity:1;stroke-width:0.264583"
         d="m 125.19781,117.42574 -13.82448,-6.92929 v -2.18588 -2.18588 l 3.43959,1.72357 3.43958,1.72358 v -2.12189 -2.12188 l 1.85208,0.93269 1.85209,0.9327 v -2.12 c 0,-1.16599 0.0583,-2.11999 0.1296,-2.11999 0.0713,0 1.61909,0.74194 3.43958,1.64875 l 3.30998,1.64874 v 2.19018 2.19019 l 1.7198,0.84807 1.71979,0.84806 v 2.13539 2.13538 l 1.7248,0.85054 c 0.94864,0.46779 1.78208,0.85054 1.85208,0.85054 0.07,0 0.12728,-1.90672 0.12728,-4.23715 v -4.23714 l 1.57996,0.79756 c 0.86897,0.43866 1.64288,0.79756 1.71979,0.79756 0.0769,0 0.13984,-1.90611 0.13984,-4.23581 v -4.2358 l -1.71979,-0.84807 -1.7198,-0.84806 v -2.191528 -2.191525 l -10.58333,-5.292958 -10.58333,-5.292958 v 2.117312 c 0,1.164522 -0.0629,2.117313 -0.13984,2.117313 -0.0769,0 -0.85082,-0.358902 -1.71979,-0.79756 l -1.57996,-0.797558 v -6.546625 -6.546626 l 14.02292,-7.007465 14.02292,-7.007465 14.02291,7.007465 14.02292,7.007465 v 17.333379 17.333374 l -13.89129,6.94414 c -7.64021,3.81928 -14.03982,6.93746 -14.22135,6.92929 -0.18154,-0.008 -6.55108,-3.13302 -14.15455,-6.94413 z"
         id="path729393" /><path
         style="fill:#3e3e3e;fill-opacity:1;stroke-width:0.264583"
         d="m 139.41917,113.66663 v -10.7181 l -1.71979,-0.84807 -1.7198,-0.84806 v -2.191528 -2.191525 l -10.58333,-5.292958 -10.58333,-5.292958 v 2.117312 c 0,1.164522 -0.0629,2.117313 -0.13984,2.117313 -0.0769,0 -0.85082,-0.358902 -1.71979,-0.79756 l -1.57996,-0.797558 v -6.546625 -6.546626 l 14.02292,-7.007465 14.02292,-7.007465 14.02291,7.007465 14.02292,7.007465 v 17.341563 17.34156 l -1.71979,0.84807 -1.71979,0.84807 v -2.1142 c 0,-1.16281 -0.0607,-2.11419 -0.13494,-2.11419 -0.0742,0 -2.39474,1.13109 -5.15673,2.51354 -2.76199,1.38245 -5.08251,2.51354 -5.15673,2.51354 -0.0742,0 -0.13494,-0.89297 -0.13494,-1.98438 0,-1.0914 -0.0583,-1.98437 -0.12959,-1.98437 -0.0713,0 -1.6191,0.74193 -3.43959,1.64874 l -3.30998,1.64875 v 4.30249 4.30248 l -3.43581,1.72169 c -1.88969,0.94692 -3.49704,1.72168 -3.57187,1.72168 -0.0748,0 -0.13607,-4.82314 -0.13607,-10.71809 z m 7.14375,-7.80607 c 0,-1.16234 -0.0573,-2.11334 -0.12729,-2.11334 -0.07,0 -0.90344,0.38274 -1.85208,0.85054 l -1.7248,0.85054 v 2.19549 2.1955 l 1.85208,-0.93269 1.85209,-0.9327 z m -31.94844,6.27684 -3.24115,-1.63335 v -2.18968 -2.18968 l 3.43959,1.72357 3.43958,1.72358 v 2.11478 2.11477 l -0.19844,-0.0153 c -0.10914,-0.008 -1.65695,-0.75032 -3.43958,-1.64867 z m 10.71562,-3.24659 -3.37343,-1.70799 v -2.11467 c 0,-1.16307 0.0583,-2.11468 0.1296,-2.11468 0.0713,0 1.61909,0.74194 3.43958,1.64875 l 3.30998,1.64874 v 2.18772 c 0,1.20324 -0.0298,2.1815 -0.0661,2.17391 -0.0364,-0.008 -1.58419,-0.78239 -3.43959,-1.72178 z"
         id="path729391" /><path
         style="fill:#333333;fill-opacity:1;stroke-width:0.264583"
         d="m 139.41917,120.1552 v -4.22953 l 1.57995,-0.79755 c 0.86898,-0.43866 1.64288,-0.79756 1.71979,-0.79756 0.0769,0 0.13984,1.90328 0.13984,4.22952 v 4.22952 l -1.57995,0.79756 c -0.86898,0.43866 -1.64289,0.79756 -1.7198,0.79756 -0.0769,0 -0.13983,-1.90328 -0.13983,-4.22952 z m 14.02291,-9.13194 c 0,-1.0914 -0.0629,-1.98437 -0.13983,-1.98437 -0.0769,0 -0.85082,0.3589 -1.7198,0.79756 l -1.57995,0.79756 v -4.36819 -4.36819 l -3.57187,1.78015 -3.57188,1.78015 v 2.18355 2.18354 l -1.57995,0.79756 c -0.86898,0.43866 -1.64289,0.79756 -1.7198,0.79756 -0.0769,0 -0.13983,-1.90611 -0.13983,-4.23581 v -4.2358 l -1.71979,-0.84807 -1.7198,-0.84806 v -2.191528 -2.191525 l -10.58333,-5.292958 -10.58333,-5.292958 v 2.117312 c 0,1.164522 -0.0629,2.117313 -0.13984,2.117313 -0.0769,0 -0.85082,-0.358902 -1.71979,-0.79756 l -1.57996,-0.797558 v -6.546625 -6.546626 l 14.02292,-7.007465 14.02292,-7.007465 14.02291,7.007465 14.02292,7.007465 V 90.9781 106.12651 l -6.87721,3.44056 c -3.78246,1.89231 -6.93762,3.44057 -7.01145,3.44057 -0.0738,0 -0.13426,-0.89297 -0.13426,-1.98438 z"
         id="path729389" /></g></g></svg>
