<?xml version="1.0" encoding="utf-8"?>
<!-- Generator: Adobe Illustrator 23.0.6, SVG Export Plug-In . SVG Version: 6.00 Build 0)  -->
<svg version="1.1" id="display_frames" xmlns="http://www.w3.org/2000/svg" xmlns:xlink="http://www.w3.org/1999/xlink" x="0px"
	 y="0px" viewBox="0 0 512 512" style="enable-background:new 0 0 512 512;" xml:space="preserve">
<style type="text/css">
	.st0{fill:#FFFFFF;}
	.st1{fill:#3D83A3;}
	.st2{fill:#A1CEE2;}
	.st3{fill:#7FBCD7;}
	.st4{fill:#4AA0C7;}
</style>
<rect class="st0" width="512" height="512"/>
<g id="Icon">
	<g id="Sword">
		<g>
			<rect x="212.82" y="231.17" class="st1" width="64.35" height="64.37"/>
			<rect x="191.53" y="273.23" class="st1" width="42.57" height="44.58"/>
		</g>
		<g>
			<rect x="276.65" y="187.07" class="st2" width="44.1" height="42.07"/>
			<rect x="255.9" y="208.35" class="st2" width="44.08" height="42.06"/>
			<rect x="233.59" y="230.66" class="st2" width="44.08" height="42.06"/>
		</g>
	</g>
	<g>
		<rect x="365.34" y="244.64" class="st3" width="24.34" height="39.88"/>
		<rect x="122.11" y="142.99" class="st3" width="39.83" height="24.33"/>
		<rect x="196.41" y="142.99" class="st3" width="56.5" height="24.33"/>
		<rect x="341.02" y="142.99" class="st3" width="48.67" height="24.33"/>
		<rect x="365.34" y="323.39" class="st3" width="24.34" height="38.52"/>
		<rect x="365.34" y="143.5" class="st3" width="24.34" height="60.56"/>
		<rect x="122.11" y="337.59" class="st3" width="62.79" height="24.32"/>
		<rect x="213.33" y="337.59" class="st3" width="24.31" height="24.32"/>
		<rect x="272.32" y="337.59" class="st3" width="32.46" height="24.32"/>
		<rect x="325.78" y="337.59" class="st3" width="63.39" height="24.32"/>
		<rect x="122.11" y="295.53" class="st3" width="24.33" height="65.86"/>
		<rect x="122.11" y="142.99" class="st3" width="24.33" height="48.64"/>
		<rect x="122.11" y="214.49" class="st3" width="24.33" height="34.05"/>
		<rect x="288.57" y="142.99" class="st3" width="27.93" height="24.33"/>
	</g>
	<g id="Particles">
		<g id="g4809-5-5-5" transform="matrix(0.8271092,-0.27484904,0.27484904,0.8271092,218.34555,369.73633)">
			
				<rect id="rect4651-24-7-2" x="84.99" y="-306.7" transform="matrix(-0.9116 0.411 -0.411 -0.9116 43.4507 -616.511)" class="st4" width="6.03" height="6.24"/>
			<polygon id="rect4651-9-1-3-0" class="st4" points="83.97,-305.1 78.48,-302.62 75.93,-308.3 81.43,-310.78 			"/>
			
				<rect id="rect4651-9-5-90-2-1" x="75.23" y="-301.97" transform="matrix(-0.9117 0.4109 -0.4109 -0.9117 28.0498 -597.5615)" class="st4" width="6.03" height="12.41"/>
			<polygon id="rect4651-9-5-8-2-9-5" class="st4" points="99.59,-298.53 102.02,-293.01 85.95,-285.82 83.52,-291.33 			"/>
			<polygon id="rect4651-9-5-8-3-5-1-0" class="st4" points="91.79,-315.71 97.31,-318.19 105.11,-300.92 99.59,-298.48 			"/>
			<polygon id="rect4651-9-4-7-1-1" class="st4" points="91.74,-315.71 86.25,-313.24 83.69,-318.92 89.19,-321.4 			"/>
			<polygon id="rect4651-9-5-8-7-1-3-5" class="st4" points="81.29,-324.42 83.77,-318.9 67.71,-311.7 65.23,-317.24 			"/>
			<polygon id="rect4651-9-6-1-3-5" class="st4" points="70.2,-306.06 64.7,-303.58 62.14,-309.27 67.64,-311.74 			"/>
			<polygon id="rect4651-9-5-8-3-0-6-2-7" class="st4" points="59.24,-301.11 64.78,-303.55 72.52,-286.32 67.06,-283.83 			"/>
		</g>
		<g id="g4809-5-5-5_1_" transform="matrix(0.8271092,-0.27484904,0.27484904,0.8271092,218.34555,369.73633)">
			<polygon id="rect4651-24-7-2_1_" class="st4" points="15.56,54.24 13.63,57.86 10.13,56.02 12.06,52.39 			"/>
			<polygon id="rect4651-9-1-3-0_1_" class="st4" points="20.94,52.49 19.01,56.13 15.53,54.27 17.44,50.64 			"/>
			<polygon id="rect4651-9-5-90-2-1_1_" class="st4" points="22.5,57.99 18.7,65.13 15.21,63.3 19,56.14 			"/>
			<polygon id="rect4651-9-5-8-2-9-5_1_" class="st4" points="15.22,63.32 13.4,66.83 3.2,61.44 5.02,57.96 			"/>
			<polygon id="rect4651-9-5-8-3-5-1-0_1_" class="st4" points="5.02,57.96 1.53,56.14 7.36,45.17 10.86,46.99 			"/>
			<polygon id="rect4651-9-4-7-1-1_1_" class="st4" points="16.27,45.27 14.36,48.9 10.86,47.04 12.8,43.39 			"/>
			<polygon id="rect4651-9-5-8-7-1-3-5_1_" class="st4" points="28.28,47.11 26.46,50.65 16.22,45.29 18.05,41.73 			"/>
			<polygon id="rect4651-9-6-1-3-5_1_" class="st4" points="29.97,52.47 28.03,56.09 24.54,54.25 26.47,50.63 			"/>
			<polygon id="rect4651-9-5-8-3-0-6-2-7_1_" class="st4" points="25.68,68.89 22.2,67.03 28.02,56.07 31.54,57.96 			"/>
		</g>
		<g id="g4809-5-5-5_2_" transform="matrix(0.8271092,-0.27484904,0.27484904,0.8271092,218.34555,369.73633)">
			<polygon id="rect4651-24-7-2_2_" class="st4" points="-116.96,-195.08 -119.85,-193.6 -121.37,-196.57 -118.49,-198.05 			"/>
			
				<rect id="rect4651-9-1-3-0_2_" x="-125.12" y="-198.93" transform="matrix(-0.8894 0.4572 -0.4572 -0.8894 -323.5291 -316.2332)" class="st4" width="3.24" height="3.34"/>
			
				<rect id="rect4651-9-5-90-2-1_2_" x="-125.73" y="-194.69" transform="matrix(-0.8901 0.4558 -0.4558 -0.8901 -321.8004 -305.1307)" class="st4" width="3.25" height="6.64"/>
			<polygon id="rect4651-9-5-8-2-9-5_2_" class="st4" points="-112.79,-193.45 -111.31,-190.55 -119.73,-186.3 -121.21,-189.18 			
				"/>
			<polygon id="rect4651-9-5-8-3-5-1-0_2_" class="st4" points="-117.46,-202.4 -114.56,-203.87 -109.9,-194.86 -112.79,-193.39 			
				"/>
			<polygon id="rect4651-9-4-7-1-1_2_" class="st4" points="-117.37,-202.38 -120.26,-200.9 -121.78,-203.89 -118.89,-205.37 			"/>
			<polygon id="rect4651-9-5-8-7-1-3-5_2_" class="st4" points="-123.28,-206.76 -121.81,-203.87 -130.17,-199.61 -131.63,-202.51 
							"/>
			<polygon id="rect4651-9-6-1-3-5_2_" class="st4" points="-128.64,-196.65 -131.53,-195.17 -133.05,-198.16 -130.17,-199.62 			
				"/>
			<polygon id="rect4651-9-5-8-3-0-6-2-7_2_" class="st4" points="-134.42,-193.74 -131.53,-195.22 -126.93,-186.18 
				-129.76,-184.73 			"/>
		</g>
		<g id="g4809-5-5-5_3_" transform="matrix(0.8271092,-0.27484904,0.27484904,0.8271092,218.34555,369.73633)">
			<polygon id="rect4651-24-7-2_3_" class="st4" points="296.7,-220.54 292.47,-218.69 290.7,-222.77 294.93,-224.62 			"/>
			<polygon id="rect4651-9-1-3-0_3_" class="st4" points="302.65,-218.2 298.42,-216.36 296.63,-220.45 300.85,-222.29 			"/>
			<polygon id="rect4651-9-5-90-2-1_3_" class="st4" points="300.28,-212.33 291.86,-208.65 290.07,-212.74 298.48,-216.4 			"/>
			<polygon id="rect4651-9-5-8-2-9-5_3_" class="st4" points="290.05,-212.69 286.01,-210.92 280.75,-222.77 284.84,-224.6 			"/>
			<polygon id="rect4651-9-5-8-3-5-1-0_3_" class="st4" points="284.79,-224.55 283.01,-228.65 295.85,-234.23 297.62,-230.12 			
				"/>
			<polygon id="rect4651-9-4-7-1-1_3_" class="st4" points="303.6,-227.9 299.37,-226.05 297.58,-230.14 301.81,-231.99 			"/>
			<polygon id="rect4651-9-5-8-7-1-3-5_3_" class="st4" points="312.92,-217.86 308.81,-216.04 303.59,-227.89 307.63,-229.72 			
				"/>
			<polygon id="rect4651-9-6-1-3-5_3_" class="st4" points="310.59,-211.89 306.36,-210.04 304.57,-214.14 308.79,-215.98 			"/>
			<polygon id="rect4651-9-5-8-3-0-6-2-7_3_" class="st4" points="295.37,-200.43 293.63,-204.53 306.38,-210.11 308.21,-206.01 			
				"/>
		</g>
		<g id="g4809-5-5-5_4_" transform="matrix(0.8271092,-0.27484904,0.27484904,0.8271092,218.34555,369.73633)">
			<polygon id="rect4651-24-7-2_4_" class="st4" points="263.3,54.41 259.02,58.93 254.65,54.77 258.93,50.25 			"/>
			<polygon id="rect4651-9-1-3-0_4_" class="st4" points="263.13,45.66 258.84,50.19 254.47,46.03 258.76,41.51 			"/>
			<polygon id="rect4651-9-5-90-2-1_4_" class="st4" points="254.48,46.05 245.94,55.08 241.57,50.92 250.09,41.93 			"/>
			<polygon id="rect4651-9-5-8-2-9-5_4_" class="st4" points="258.74,67.18 254.53,71.53 241.76,59.38 245.97,55.02 			"/>
			<polygon id="rect4651-9-5-8-3-5-1-0_4_" class="st4" points="271.68,53.44 276.03,57.61 263.05,71.34 258.66,67.18 			"/>
			<polygon id="rect4651-9-4-7-1-1_4_" class="st4" points="275.94,48.91 271.64,53.43 267.25,49.31 271.53,44.78 			"/>
			<polygon id="rect4651-9-5-8-7-1-3-5_4_" class="st4" points="275.77,40.44 271.57,44.8 258.8,32.69 263.01,28.24 			"/>
			<polygon id="rect4651-9-6-1-3-5_4_" class="st4" points="258.84,32.66 254.55,37.17 250.17,33.04 254.45,28.51 			"/>
			<polygon id="rect4651-9-5-8-3-0-6-2-7_4_" class="st4" points="245.76,28.86 250.18,33.03 237.16,46.81 232.81,42.65 			"/>
		</g>
	</g>
</g>
</svg>
