<?xml version="1.0" encoding="utf-8"?>
<!-- Generator: Adobe Illustrator 23.0.6, SVG Export Plug-In . SVG Version: 6.00 Build 0)  -->
<svg version="1.1"
	 id="better_fire" xmlns:cc="http://creativecommons.org/ns#" xmlns:dc="http://purl.org/dc/elements/1.1/" xmlns:inkscape="http://www.inkscape.org/namespaces/inkscape" xmlns:rdf="http://www.w3.org/1999/02/22-rdf-syntax-ns#" xmlns:sodipodi="http://sodipodi.sourceforge.net/DTD/sodipodi-0.dtd" xmlns:svg="http://www.w3.org/2000/svg"
	 xmlns="http://www.w3.org/2000/svg" xmlns:xlink="http://www.w3.org/1999/xlink" x="0px" y="0px" viewBox="0 0 512 512"
	 style="enable-background:new 0 0 512 512;" xml:space="preserve">
<style type="text/css">
	.st0{fill:#FFFFFF;}
	.st1{fill:#4AA0C7;}
	.st2{fill:#96CCEB;}
	.st3{display:none;}
	.st4{display:inline;fill:#4AA0C7;}
</style>
<rect class="st0" width="512" height="512"/>
<g>
	<polygon class="st1" points="372.43,299.61 372.43,279.29 362.32,279.29 362.32,260.17 352.09,260.17 352.09,229.72 342.19,229.72 
		342.19,219.54 331.62,219.54 331.62,229.72 331.62,230.57 331.62,239.73 322.85,239.73 322.85,250.09 312.84,250.09 312.84,239.94 
		302.63,239.94 302.63,219.54 292.43,219.54 292.43,200.34 282.1,200.34 282.1,190.27 282.09,190.27 282.09,180.19 272.03,180.19 
		272.03,170.05 272.01,170.05 272.01,130.53 242.63,130.53 242.63,140.77 232.66,140.77 232.66,149.78 222.44,149.78 222.44,159.84 
		212.21,159.84 212.21,170.05 202.24,170.05 202.24,180.19 192.06,180.19 192.06,190.27 187.28,190.27 182.96,190.27 172.79,190.27 
		167.35,190.27 162.61,190.27 162.61,200.17 152.54,200.17 152.54,210.32 142.24,210.32 142.24,219.4 132.38,219.4 132.38,239.86 
		122.12,239.86 122.12,250.09 113.11,250.09 113.11,279.45 102.79,279.45 102.79,369.56 113.11,369.56 113.11,389.7 122.12,389.7 
		122.12,409.08 132.38,409.08 132.38,418.93 142.24,418.93 142.24,429.49 152.54,429.49 152.54,439.68 172.75,439.68 172.75,450.14 
		192.3,450.14 192.3,418.82 183.31,418.82 183.31,349.16 191.93,349.16 191.93,320.03 202.17,320.03 202.17,299.78 212.21,299.78 
		212.21,289.6 222.52,289.6 222.52,279.56 232.42,279.56 232.42,310.09 242.82,310.09 242.82,339.28 252.68,339.28 252.68,349.72 
		261.87,349.72 261.87,359.39 272.22,359.39 272.22,349.72 272.23,349.72 272.23,339.28 282.24,339.28 282.24,359.62 292.19,359.62 
		292.19,369.7 302.62,369.7 302.62,400.29 312.49,400.29 312.49,409.02 302.4,409.02 302.54,438.98 292.11,438.98 292.11,450.1 
		323.19,450.1 323.19,439.33 341.57,439.35 341.66,429.33 352.27,429.46 352.34,419.28 362.28,419.17 362.3,409.1 372.43,409.02 
		372.43,400.29 372.43,390.11 382.83,390.11 382.83,299.61 	"/>
	<rect x="172.79" y="180.08" class="st1" width="10.17" height="10.2"/>
</g>
<g>
	<polygon class="st2" points="376.56,51.97 376.56,52.01 376.56,51.97 324.99,117.91 357.85,117.91 357.85,203.86 368.08,203.86 
		385.05,203.86 395.3,203.86 395.3,117.91 428.13,117.91 	"/>
	<polygon class="st2" points="455.75,173.2 436.17,173.2 436.17,153.59 425.09,153.59 425.09,173.2 405.5,173.2 405.5,184.26 
		425.09,184.26 425.09,203.86 436.17,203.86 436.17,184.26 455.75,184.26 	"/>
</g>
<rect x="252.24" y="120.33" class="st1" width="10.15" height="10.19"/>
<g class="st3">
	<path class="st4" d="M-11.1-522.48v532.9h532.9v-532.9H-11.1z M255.35-30.09c-124.78,0-225.94-101.15-225.94-225.93
		s101.16-225.95,225.94-225.95s225.94,101.15,225.94,225.94C481.29-131.25,380.14-30.09,255.35-30.09z"/>
</g>
</svg>
