<?xml version="1.0" encoding="utf-8"?>
<!-- Generator: Adobe Illustrator 23.0.6, SVG Export Plug-In . SVG Version: 6.00 Build 0)  -->
<svg version="1.1" id="record_crafting" xmlns="http://www.w3.org/2000/svg" xmlns:xlink="http://www.w3.org/1999/xlink" x="0px"
	 y="0px" viewBox="0 0 512 512" style="enable-background:new 0 0 512 512;" xml:space="preserve">
<style type="text/css">
	.st0{fill:#BEE9FD;}
	.st1{fill:#4AA0C7;}
	.st2{fill:#2E627A;}
	.st3{fill:#387895;}
	.st4{fill:#7FBCD7;}
</style>
<g id="Icon">
	<g id="grid" transform="matrix(1.1876553,0,0,1.1876553,579.25835,-183.2473)">
		<g id="g4206" transform="translate(-547.85714,2.6913062e-7)">
			<g id="rect4204">
				<rect x="60.12" y="154.29" class="st0" width="431.1" height="431.1"/>
			</g>
			<g id="g4197">
				<g id="rect4150">
					<rect x="202.19" y="154.29" class="st1" width="5.05" height="431.1"/>
				</g>
				<g id="rect4150-5">
					<rect x="344.25" y="154.29" class="st1" width="5.05" height="431.1"/>
				</g>
				<g id="rect4150-5-7">
					<rect x="60.12" y="439.53" class="st1" width="431.1" height="5.05"/>
				</g>
				<g id="rect4150-5-7-7">
					<rect x="60.12" y="295.89" class="st1" width="431.1" height="5.05"/>
				</g>
			</g>
		</g>
	</g>
	<g id="Music_Disc">
		<rect x="183.49" y="234.45" class="st2" width="143.72" height="38.42"/>
		<rect x="193.1" y="224.86" class="st2" width="124.52" height="57.63"/>
		<rect x="202.67" y="215.26" class="st2" width="105.4" height="76.87"/>
		<rect x="231.4" y="205.63" class="st2" width="47.94" height="96.04"/>
		<rect x="193.04" y="234.45" class="st1" width="124.54" height="38.42"/>
		<rect x="202.67" y="224.86" class="st1" width="105.4" height="48.05"/>
		<rect x="202.67" y="272.91" class="st3" width="105.4" height="9.58"/>
		<rect x="231.4" y="282.48" class="st3" width="47.94" height="9.61"/>
		<rect x="231.4" y="215.26" class="st1" width="47.94" height="67.22"/>
		<rect x="193.04" y="263.26" class="st3" width="9.57" height="9.61"/>
		<rect x="308.02" y="263.29" class="st3" width="9.55" height="9.61"/>
		<rect x="240.97" y="234.45" class="st4" width="28.75" height="28.8"/>
		<rect x="231.4" y="244.08" class="st4" width="47.94" height="9.59"/>
		<rect x="250.58" y="244.08" class="st2" width="9.59" height="9.59"/>
	</g>
</g>
</svg>
