<?xml version="1.0" encoding="utf-8"?>
<!-- Generator: Adobe Illustrator 23.0.6, SVG Export Plug-In . SVG Version: 6.00 Build 0)  -->
<svg version="1.1" id="shroomites" xmlns="http://www.w3.org/2000/svg" xmlns:xlink="http://www.w3.org/1999/xlink" x="0px" y="0px"
	 viewBox="0 0 512 512" style="enable-background:new 0 0 512 512;" xml:space="preserve">
<style type="text/css">
	.st0{fill:#FFFFFF;}
	.st1{fill:#4AA0C7;}
	.st2{fill:#3D83A3;}
</style>
<rect x="0" y="0" class="st0" width="512" height="512"/>
<g id="Icon">
	<polygon id="floor" class="st1" points="445.61,321.53 377.74,321.53 391.03,367.55 319.37,367.55 311.31,322 242.02,321.53 
		242.97,367.55 170.36,367.55 174.15,321.53 37.48,320.57 52.19,283.08 114.83,283.56 122.9,250.34 181.27,249.86 183.17,219.96 
		130.02,219.96 135.71,196.24 287.57,196.71 283.3,174.88 329.34,174.88 336.45,196.71 387.24,196.71 399.58,221.87 453.21,221.87 
		469.81,249.39 411.92,249.39 	"/>
	<g id="mushroom">
		<rect x="251.04" y="250.34" class="st2" width="37.96" height="9.49"/>
		<rect x="255.31" y="245.59" class="st2" width="28.47" height="18.98"/>
		<rect x="260.52" y="240.85" class="st2" width="18.99" height="9.49"/>
		<rect x="264.79" y="259.83" class="st2" width="9.5" height="9.49"/>
	</g>
	<g id="Particles">
		<rect x="227.3" y="260.78" class="st2" width="3.33" height="3.33"/>
		<rect x="206.43" y="278.81" class="st2" width="5.22" height="5.23"/>
		<rect x="178.42" y="305.08" class="st2" width="6.49" height="6.49"/>
		<rect x="190.29" y="332.92" class="st2" width="4.74" height="4.74"/>
		<rect x="139.68" y="294" class="st2" width="5.39" height="5.4"/>
		<rect x="159.81" y="340.56" class="st2" width="5.4" height="5.39"/>
		<rect x="191.48" y="378.95" class="st2" width="2.13" height="2.12"/>
		<rect x="239.18" y="399.71" class="st2" width="3.84" height="3.84"/>
		<rect x="248.24" y="331.04" class="st2" width="2.79" height="2.8"/>
		<rect x="293.2" y="356.26" class="st2" width="5.4" height="5.39"/>
		<rect x="316.92" y="373.34" class="st2" width="5.39" height="5.4"/>
		<rect x="152.78" y="259.84" class="st2" width="2.84" height="2.84"/>
		<rect x="288.58" y="304.7" class="st2" width="3.26" height="3.26"/>
		<rect x="323.28" y="283.05" class="st2" width="4.17" height="4.17"/>
		<rect x="382.81" y="308.66" class="st2" width="5.4" height="5.39"/>
		<rect x="368.05" y="348.64" class="st2" width="3.06" height="3.06"/>
		<rect x="426.61" y="358.05" class="st2" width="5.39" height="5.39"/>
		<rect x="434.52" y="307.17" class="st2" width="1.54" height="1.55"/>
		<rect x="419.99" y="259.36" class="st2" width="0.79" height="0.8"/>
		<rect x="368.73" y="229.04" class="st2" width="3.41" height="3.41"/>
		<rect x="339.85" y="236.66" class="st2" width="1.83" height="1.83"/>
		<rect x="477.41" y="233.63" class="st2" width="0.81" height="0.81"/>
		<rect x="82.47" y="229.29" class="st2" width="1.99" height="1.99"/>
		<rect x="185.2" y="229.05" class="st2" width="5.4" height="5.39"/>
		<rect x="244.64" y="213.08" class="st2" width="5.4" height="5.4"/>
		<rect x="397.46" y="211.93" class="st2" width="4.02" height="4.01"/>
		<rect x="429.95" y="200.71" class="st2" width="3.96" height="3.96"/>
		<rect x="340.13" y="193.38" class="st2" width="5.4" height="5.4"/>
		<rect x="280.93" y="187.42" class="st2" width="1.62" height="1.62"/>
		<rect x="235.85" y="188.64" class="st2" width="4.26" height="4.26"/>
		<rect x="209.27" y="184.7" class="st2" width="1.71" height="1.72"/>
		<rect x="141.55" y="185.8" class="st2" width="3.21" height="3.21"/>
		<rect x="191.37" y="164.92" class="st2" width="1.87" height="1.87"/>
		<rect x="141.88" y="135.55" class="st2" width="3.82" height="3.83"/>
		<rect x="200.73" y="108.44" class="st2" width="2.12" height="2.11"/>
		<rect x="253.53" y="125.3" class="st2" width="5.4" height="5.39"/>
		<rect x="302.41" y="119.79" class="st2" width="3.84" height="3.84"/>
		<rect x="308.46" y="140.42" class="st2" width="1.9" height="1.9"/>
		<rect x="327.37" y="148.8" class="st2" width="3.39" height="3.4"/>
		<rect x="381.07" y="127.65" class="st2" width="4.05" height="4.04"/>
		<rect x="406.22" y="154.27" class="st2" width="2.87" height="2.87"/>
	</g>
</g>
</svg>
