<?xml version="1.0" encoding="utf-8"?>
<!-- Generator: Adobe Illustrator 23.0.6, SVG Export Plug-In . SVG Version: 6.00 Build 0)  -->
<svg version="1.1" id="liquid_minecarts" xmlns="http://www.w3.org/2000/svg" xmlns:xlink="http://www.w3.org/1999/xlink" x="0px"
	 y="0px" viewBox="0 0 512 512" style="enable-background:new 0 0 512 512;" xml:space="preserve">
<style type="text/css">
	.st0{fill:#FFFFFF;}
	.st1{fill:#4AA0C7;}
	.st2{fill:#7FBCD7;}
	.st3{fill:#3D83A3;}
	.st4{fill:#428FB3;}
</style>
<rect class="st0" width="512" height="512"/>
<g id="Minecart">
	<g id="Wheels">
		<path class="st1" d="M169.31,347.09h26.22c6.4,0,11.6,5.19,11.6,11.6v10.29c0,6.4-5.19,11.6-11.6,11.6h-26.22
			c-6.4,0-11.6-5.19-11.6-11.6v-10.29C157.72,352.28,162.91,347.09,169.31,347.09z"/>
		<path class="st1" d="M321.05,347.09h26.22c6.4,0,11.6,5.19,11.6,11.6v10.29c0,6.4-5.19,11.6-11.6,11.6h-26.22
			c-6.4,0-11.6-5.19-11.6-11.6v-10.29C309.45,352.28,314.64,347.09,321.05,347.09z"/>
	</g>
	<polygon id="Outside" class="st2" points="449.57,244.46 423.15,369.14 93.96,369.14 67.54,244.46 144.42,165.23 372.69,165.23 	
		"/>
	<g id="Inside">
		<polygon class="st3" points="163.87,237.13 126.81,260 107.97,229.16 154.3,173.11 		"/>
		<polygon class="st3" points="353.23,237.12 390.29,259.99 409.13,229.15 362.8,173.1 		"/>
		<polygon class="st3" points="351.85,236.8 165.16,237.13 155.24,172.6 361.89,172.6 		"/>
	</g>
</g>
<g id="Liquid_Tank">
	<path id="rect4147" class="st1" d="M277.02,339.62l-37.22-0.09l-0.82-20.92l-22.68,0.01l-2.58-32.47l-60.87-0.55l-8.69-74.8
		l36.5-52.45h155.79l36.51,52.76l-8.7,74.48l-60.86,0.55l-2.39,32.67l-22.98-0.11L277.02,339.62z"/>
	<path id="rect4150" class="st4" d="M200.3,164.99l2.8,35.41h-22.07L200.3,164.99z"/>
	<path id="rect4153" class="st4" d="M201.43,162.58h114.4l-2.49,37.45H203.93L201.43,162.58z"/>
	<path id="rect4150-0" class="st4" d="M317.1,164.38l-2.8,35.4h22.07L317.1,164.38z"/>
	<path id="rect4185" class="st0" d="M223.35,167.69h67.56l9.08,17v14.51h-83.25v-13.35L223.35,167.69z"/>
	<path id="rect4171" class="st1" d="M215.28,166.32l6.21-18.68h2.28l70.82,0.11l0.05,0.6l6.53,18.25l-2.18,1.31l-5.17-14.47
		l-0.36-0.72l-0.81,17.32l-1.85-2.79l0.72-17.25l-67.62-0.13l0.54,18.16l-1.94,1.71l-0.23-17.91l-4.15,14.47l83.28,0.02v1.63v32.74
		l-84.85,0.01l0.03-2.95l82.17-0.22l-0.41-29.06l-80.42,0.41l0.01,12.63l4.96-14.96l67.58,0.05l2.51,0.56l6.53,15.55l0.12,7.49
		l-8.59-21.48l-66.49,0.14l-6.61,19.44l0.01,12.08h-2.66V166.32L215.28,166.32L215.28,166.32z"/>
	<polyline class="st0" points="217.93,195.16 217.93,199.97 298.76,199.97 298.57,190.63 284.11,191.93 	"/>
</g>
<polygon id="Front_Panel" class="st2" points="423.15,369.14 93.96,369.14 67.54,244.46 81.84,229.73 435.28,229.73 449.57,244.46 
	"/>
</svg>
