<?xml version="1.0" encoding="utf-8"?>
<!-- Generator: Adobe Illustrator 23.0.6, SVG Export Plug-In . SVG Version: 6.00 Build 0)  -->
<svg version="1.1"
	 id="weighted_armour" xmlns:cc="http://creativecommons.org/ns#" xmlns:dc="http://purl.org/dc/elements/1.1/" xmlns:inkscape="http://www.inkscape.org/namespaces/inkscape" xmlns:rdf="http://www.w3.org/1999/02/22-rdf-syntax-ns#" xmlns:sodipodi="http://sodipodi.sourceforge.net/DTD/sodipodi-0.dtd" xmlns:svg="http://www.w3.org/2000/svg"
	 xmlns="http://www.w3.org/2000/svg" xmlns:xlink="http://www.w3.org/1999/xlink" x="0px" y="0px" viewBox="0 0 512 512"
	 style="enable-background:new 0 0 512 512;" xml:space="preserve">
<style type="text/css">
	.st0{fill:#FFFFFF;}
	.st1{fill:#A1CEE2;}
	.st2{fill:#387895;}
	.st3{fill:#4AA0C7;}
</style>
<rect class="st0" width="512" height="512"/>
<g>
	<path class="st1" d="M396.26,152.82l-5.15-2.77c-7.05,1.28-76.02-9.24-139.86,43.66c-21.7,17.98-33.63,37.23-38.05,47.31
		c-10.19-7.57-27.1-24.21-78.49-27.1c-42.48-2.38-83.01,7.32-121.58,27.05c-4.76,2.43-9.11,5.13-13.13,8.05v61.86
		c24.07-7.76,57.2-14.91,97.6-14.91c64.08-0.01,106.02,27.51,117.98,36.02c0,0,36.33-48.62,129.15-48.77
		c41.42-0.07,38.13-7.03,44.74-6.93C390.63,267.39,411.8,157.82,396.26,152.82z"/>
</g>
<path class="st1" d="M413.15,289.91c-0.04,0.33-0.07,0.52-0.07,0.52S421.28,290.04,413.15,289.91z"/>
<g>
	<path class="st2" d="M183.51,180.26l-15.07-3.2l-24.05,1.6c0,0-14.31,5.04-14.58,5.56c-0.27,0.53-4.39,4.22-4.39,4.22l-0.62,4.13
		l-3.86-3.6l0.88-8.34l-2.46-2.19l1.05-7.2l12.82-8.96c0,0,22.74,0.44,23.01,0.53c0.26,0.09,21.95,1.14,21.95,1.14
		s3.43,1.77,3.37,1.87c-0.07,0.11,2.76,7.84,2.76,7.84"/>
	<path class="st3" d="M169.12,203.32l-41.02-10.15l-3.31-4.3l4.74-28.8l52.02,8.55l-6.4,35"/>
	<polyline class="st2" points="183.07,179.57 183.99,174.51 182.96,173.01 182.12,179.96 180.35,179.59 181.8,171.29 180.43,169.05 
		179.34,175.43 178.41,174.4 150.15,169.68 148.94,176.52 120.4,171.82 126.26,136.77 183.35,146.37 187.15,159.63 183.51,180.26 
		183.51,180.26 	"/>
	<path class="st1" d="M172.4,179.96"/>
	<path class="st2" d="M167.1,251.26"/>
	<path class="st2" d="M168.8,251.87"/>
	<polygon class="st3" points="169.3,218.96 186.09,255.65 167.51,264.41 167.85,262.29 	"/>
	<path class="st2" d="M133.68,175.65l31.61,14.49l4.57,7.46l-1.67,3.95l1.05,2.11l0.81-0.03v2.22l6.26,14.72l-4.61,3.42l-2.59-5.42
		l0.26,34.01l-0.38-0.65v5.08l-1.01-1.43l-0.08,9.04l11.07,14.26l4.21,1.02l22.59,29.58l-1.32,1.78l-28.58,20.75l-23.64-32.01
		l2.44-2.09l-5.62-7.46l-5.53,7.55l2.19,1.49l-23.1,29.68l-5.88,1.14L90.31,310.2l23.97-30.83l4.3-0.18l12.56-16.69l-0.88-26.43
		l-1.14-20.81l-6.85-6.85l-0.7,1.58l-3.16-3.51l15.1-31.18"/>
	<polyline class="st3" points="106.71,248.79 128.59,260.12 132.54,260.12 149.79,221.26 125.17,209.93 	"/>
	<rect x="180.57" y="319.72" class="st1" width="7.23" height="7.23"/>
	<rect x="116.01" y="308.78" class="st1" width="8.78" height="8.78"/>
	<rect x="141.01" y="320.76" class="st1" width="8.78" height="8.78"/>
	<rect x="159.88" y="306.59" class="st1" width="8.78" height="8.78"/>
	<rect x="79.03" y="309.2" class="st1" width="7.94" height="7.94"/>
	<rect x="94.26" y="275.46" class="st1" width="3.97" height="3.97"/>
	<rect x="77.49" y="290.84" class="st1" width="5.06" height="5.06"/>
	<rect x="93.93" y="299.78" class="st1" width="6.55" height="6.54"/>
	<rect x="137.29" y="304.57" class="st1" width="7.46" height="7.46"/>
	<rect x="149.79" y="308.78" class="st1" width="4.39" height="4.39"/>
	<rect x="64.07" y="302.67" class="st1" width="7.3" height="7.29"/>
	<rect x="110.81" y="126.24" class="st1" width="5.65" height="5.65"/>
	<rect x="97.32" y="120.43" class="st1" width="4.01" height="4.01"/>
	<rect x="84.42" y="137.65" class="st1" width="3.93" height="3.93"/>
	<rect x="194.57" y="128.82" class="st1" width="5.38" height="5.38"/>
	<rect x="216.34" y="137.09" class="st1" width="3.78" height="3.78"/>
	<rect x="220.12" y="151.76" class="st1" width="1.84" height="1.84"/>
	<rect x="194.57" y="166.51" class="st1" width="7.55" height="7.55"/>
	<rect x="206.15" y="177.4" class="st1" width="5.26" height="5.26"/>
	<rect x="213.54" y="191.93" class="st1" width="4.07" height="4.07"/>
	<rect x="98.89" y="163.24" class="st1" width="5.8" height="5.8"/>
	<rect x="89.62" y="169.48" class="st1" width="3.05" height="3.05"/>
	<rect x="83.58" y="180.55" class="st1" width="3.05" height="3.05"/>
	<polyline class="st3" points="403.49,137.35 353.77,142.48 356.84,191.44 360.95,195.54 319.41,236.32 337.88,255.29 
		345.82,258.61 369.15,235.04 370.47,264.01 317.29,291.11 328.39,313.6 336.59,313.28 391.9,285.91 448.82,313.92 461.51,290.59 
		407.22,264.12 407.41,239.26 429.72,262.78 434.46,262.91 450.48,247.98 407.34,202.99 407.09,197.73 418.7,196.84 416.32,157.48 	
		"/>
</g>
<polygon class="st1" points="0.07,331.98 0.07,421.99 0,421.99 0,512 50.09,512 77.48,512 397.64,512 461.97,512 512,512 
	512,461.97 512,451.7 512,331.98 "/>
</svg>
