<?xml version="1.0" encoding="utf-8"?>
<!-- Generator: Adobe Illustrator 23.0.6, SVG Export Plug-In . SVG Version: 6.00 Build 0)  -->
<svg version="1.1"
	 id="xp_storage" xmlns:cc="http://creativecommons.org/ns#" xmlns:dc="http://purl.org/dc/elements/1.1/" xmlns:inkscape="http://www.inkscape.org/namespaces/inkscape" xmlns:rdf="http://www.w3.org/1999/02/22-rdf-syntax-ns#" xmlns:sodipodi="http://sodipodi.sourceforge.net/DTD/sodipodi-0.dtd" xmlns:svg="http://www.w3.org/2000/svg"
	 xmlns="http://www.w3.org/2000/svg" xmlns:xlink="http://www.w3.org/1999/xlink" x="0px" y="0px" viewBox="0 0 512 512"
	 style="enable-background:new 0 0 512 512;" xml:space="preserve">
<style type="text/css">
	.st0{fill:#FFFFFF;}
	.st1{fill:#A1CEE2;}
	.st2{fill:#7FBCD7;}
	.st3{fill:#387895;}
	.st4{fill:#4AA0C7;}
	.st5{fill:none;}
	.st6{fill:#46A0C7;}
</style>
<rect x="0" y="0" class="st0" width="512" height="512"/>
<g>
	<g>
		<polygon class="st1" points="325.42,478.17 325.42,475.46 322.7,475.46 319.99,475.46 319.99,478.17 317.28,478.17 317.28,480.88 
			317.28,483.6 319.99,483.6 319.99,486.31 322.7,486.31 325.42,486.31 325.42,483.6 328.13,483.6 328.13,480.88 328.13,478.17 		
			"/>
		<path class="st2" d="M330.84,472.75v-2.71h-2.71h-2.71h-2.71H320h-2.71h-2.71v2.71h-2.71v2.71v2.71v2.71v2.72v2.71v2.71h2.71v2.71
			h2.71H320h2.71h2.71h2.71h2.71v-2.71h2.71v-2.71v-2.71v-2.72v-2.71v-2.71v-2.71H330.84z M325.42,486.31h-2.71H320v-2.71h-2.71
			v-2.72v-2.71H320v-2.71h2.71h2.71v2.71h2.71v2.71v2.72h-2.71V486.31L325.42,486.31z"/>
		<g>
			<polygon class="st3" points="325.42,491.73 322.7,491.73 319.99,491.73 317.28,491.73 314.57,491.73 314.57,494.44 
				317.28,494.44 319.99,494.44 322.7,494.44 325.42,494.44 328.13,494.44 330.84,494.44 330.84,491.73 328.13,491.73 			"/>
			<rect x="330.84" y="489.02" class="st3" width="2.71" height="2.71"/>
			<rect x="311.86" y="489.02" class="st3" width="2.71" height="2.71"/>
			<polygon class="st3" points="311.86,483.6 311.86,480.88 311.86,478.17 311.86,475.46 311.86,472.75 309.14,472.75 
				309.14,475.46 309.14,478.17 309.14,480.88 309.14,483.6 309.14,486.31 309.14,489.02 311.86,489.02 311.86,486.31 			"/>
			<polygon class="st3" points="333.55,472.75 333.55,475.46 333.55,478.17 333.55,480.88 333.55,483.6 333.55,486.31 
				333.55,489.02 336.26,489.02 336.26,486.31 336.26,483.6 336.26,480.88 336.26,478.17 336.26,475.46 336.26,472.75 			"/>
			<rect x="330.84" y="470.04" class="st3" width="2.71" height="2.71"/>
			<rect x="311.86" y="470.04" class="st3" width="2.71" height="2.71"/>
			<polygon class="st3" points="319.99,470.04 322.7,470.04 325.42,470.04 328.13,470.04 330.84,470.04 330.84,467.33 
				328.13,467.33 325.42,467.33 322.7,467.33 319.99,467.33 317.28,467.33 314.57,467.33 314.57,470.04 317.28,470.04 			"/>
		</g>
	</g>
	<g>
		<g>
			<polygon class="st1" points="298.89,405.52 298.89,402.84 296.2,402.84 293.51,402.84 293.51,405.52 290.82,405.52 
				290.82,408.21 290.82,410.91 293.51,410.91 293.51,413.59 296.2,413.59 298.89,413.59 298.89,410.91 301.57,410.91 
				301.57,408.21 301.57,405.52 			"/>
			<path class="st2" d="M304.26,400.15v-2.69h-2.69h-2.68h-2.69h-2.69h-2.69h-2.69v2.69h-2.69v2.69v2.69v2.69v2.69v2.68v2.69h2.69
				v2.69h2.69h2.69h2.69h2.69h2.68h2.69v-2.69h2.69v-2.69v-2.68v-2.69v-2.69v-2.69v-2.69H304.26z M298.89,413.59h-2.69h-2.69v-2.68
				h-2.69v-2.69v-2.69h2.69v-2.69h2.69h2.69v2.69h2.68v2.69v2.69h-2.68V413.59z"/>
			<g>
				<polygon class="st3" points="298.89,418.97 296.2,418.97 293.51,418.97 290.82,418.97 288.13,418.97 288.13,421.66 
					290.82,421.66 293.51,421.66 296.2,421.66 298.89,421.66 301.57,421.66 304.26,421.66 304.26,418.97 301.57,418.97 				"/>
				<rect x="304.26" y="416.28" class="st3" width="2.69" height="2.69"/>
				<rect x="285.44" y="416.28" class="st3" width="2.69" height="2.69"/>
				<polygon class="st3" points="285.44,410.91 285.44,408.21 285.44,405.52 285.44,402.84 285.44,400.15 282.75,400.15 
					282.75,402.84 282.75,405.52 282.75,408.21 282.75,410.91 282.75,413.59 282.75,416.28 285.44,416.28 285.44,413.59 				"/>
				<polygon class="st3" points="306.95,400.15 306.95,402.84 306.95,405.52 306.95,408.21 306.95,410.91 306.95,413.59 
					306.95,416.28 309.64,416.28 309.64,413.59 309.64,410.91 309.64,408.21 309.64,405.52 309.64,402.84 309.64,400.15 				"/>
				<rect x="304.26" y="397.46" class="st3" width="2.69" height="2.69"/>
				<rect x="285.44" y="397.46" class="st3" width="2.69" height="2.69"/>
				<polygon class="st3" points="293.51,397.46 296.2,397.46 298.89,397.46 301.57,397.46 304.26,397.46 304.26,394.77 
					301.57,394.77 298.89,394.77 296.2,394.77 293.51,394.77 290.82,394.77 288.13,394.77 288.13,397.46 290.82,397.46 				"/>
			</g>
		</g>
		<g>
			<polygon class="st1" points="212.66,480.44 212.66,477.76 209.96,477.76 207.28,477.76 207.28,480.44 204.59,480.44 
				204.59,483.13 204.59,485.82 207.28,485.82 207.28,488.51 209.96,488.51 212.66,488.51 212.66,485.82 215.34,485.82 
				215.34,483.13 215.34,480.44 			"/>
			<path class="st2" d="M218.03,475.07v-2.69h-2.69h-2.69h-2.69h-2.69h-2.69h-2.69v2.69h-2.69v2.69v2.69v2.69v2.69v2.69v2.69h2.69
				v2.69h2.69h2.69h2.69h2.69h2.69h2.69v-2.69h2.69v-2.69v-2.69v-2.69v-2.69v-2.69v-2.69H218.03L218.03,475.07z M212.66,488.51
				h-2.69h-2.69v-2.69h-2.69v-2.69v-2.69h2.69v-2.69h2.69h2.69v2.69h2.69v2.69v2.69h-2.69V488.51z"/>
			<g>
				<polygon class="st3" points="212.66,493.88 209.96,493.88 207.28,493.88 204.59,493.88 201.9,493.88 201.9,496.57 
					204.59,496.57 207.28,496.57 209.96,496.57 212.66,496.57 215.34,496.57 218.03,496.57 218.03,493.88 215.34,493.88 				"/>
				<rect x="218.03" y="491.2" class="st3" width="2.69" height="2.69"/>
				<rect x="199.21" y="491.2" class="st3" width="2.69" height="2.69"/>
				<polygon class="st3" points="199.21,485.82 199.21,483.13 199.21,480.44 199.21,477.76 199.21,475.07 196.52,475.07 
					196.52,477.76 196.52,480.44 196.52,483.13 196.52,485.82 196.52,488.51 196.52,491.2 199.21,491.2 199.21,488.51 				"/>
				<polygon class="st3" points="220.72,475.07 220.72,477.76 220.72,480.44 220.72,483.13 220.72,485.82 220.72,488.51 
					220.72,491.2 223.41,491.2 223.41,488.51 223.41,485.82 223.41,483.13 223.41,480.44 223.41,477.76 223.41,475.07 				"/>
				<rect x="218.03" y="472.38" class="st3" width="2.69" height="2.69"/>
				<rect x="199.21" y="472.38" class="st3" width="2.69" height="2.69"/>
				<polygon class="st3" points="207.28,472.38 209.96,472.38 212.66,472.38 215.34,472.38 218.03,472.38 218.03,469.69 
					215.34,469.69 212.66,469.69 209.96,469.69 207.28,469.69 204.59,469.69 201.9,469.69 201.9,472.38 204.59,472.38 				"/>
			</g>
		</g>
		<g>
			<polygon class="st1" points="273.26,477.02 273.26,474.34 270.57,474.34 267.88,474.34 267.88,477.02 265.2,477.02 265.2,479.72 
				265.2,482.41 267.88,482.41 267.88,485.09 270.57,485.09 273.26,485.09 273.26,482.41 275.95,482.41 275.95,479.72 
				275.95,477.02 			"/>
			<path class="st2" d="M278.64,471.65v-2.69h-2.69h-2.69h-2.69h-2.69h-2.69h-2.69v2.69h-2.69v2.69v2.69v2.69v2.69v2.68v2.69h2.69
				v2.69h2.69h2.69h2.69h2.69h2.69h2.69v-2.69h2.69v-2.69v-2.68v-2.69v-2.69v-2.69v-2.69H278.64z M273.26,485.09h-2.69h-2.69v-2.68
				h-2.69v-2.69v-2.69h2.69v-2.69h2.69h2.69v2.69h2.69v2.69v2.69h-2.69V485.09z"/>
			<g>
				<polygon class="st3" points="273.26,490.47 270.57,490.47 267.88,490.47 265.2,490.47 262.51,490.47 262.51,493.16 
					265.2,493.16 267.88,493.16 270.57,493.16 273.26,493.16 275.95,493.16 278.64,493.16 278.64,490.47 275.95,490.47 				"/>
				<rect x="278.64" y="487.78" class="st3" width="2.69" height="2.69"/>
				<rect x="259.82" y="487.78" class="st3" width="2.69" height="2.69"/>
				<polygon class="st3" points="259.82,482.41 259.82,479.72 259.82,477.02 259.82,474.34 259.82,471.65 257.13,471.65 
					257.13,474.34 257.13,477.02 257.13,479.72 257.13,482.41 257.13,485.09 257.13,487.78 259.82,487.78 259.82,485.09 				"/>
				<polygon class="st3" points="281.33,471.65 281.33,474.34 281.33,477.02 281.33,479.72 281.33,482.41 281.33,485.09 
					281.33,487.78 284.02,487.78 284.02,485.09 284.02,482.41 284.02,479.72 284.02,477.02 284.02,474.34 284.02,471.65 				"/>
				<rect x="278.64" y="468.96" class="st3" width="2.69" height="2.69"/>
				<rect x="259.82" y="468.96" class="st3" width="2.69" height="2.69"/>
				<polygon class="st3" points="267.88,468.96 270.57,468.96 273.26,468.96 275.95,468.96 278.64,468.96 278.64,466.27 
					275.95,466.27 273.26,466.27 270.57,466.27 267.88,466.27 265.2,466.27 262.51,466.27 262.51,468.96 265.2,468.96 				"/>
			</g>
		</g>
		<g>
			<polygon class="st1" points="242.55,116 242.55,113.32 239.86,113.32 237.17,113.32 237.17,116 234.48,116 234.48,118.69 
				234.48,121.38 237.17,121.38 237.17,124.07 239.86,124.07 242.55,124.07 242.55,121.38 245.23,121.38 245.23,118.69 245.23,116 
							"/>
			<path class="st2" d="M247.92,110.63v-2.69h-2.69h-2.69h-2.69h-2.69h-2.69h-2.69v2.69h-2.69v2.69v2.69v2.69v2.69v2.69v2.69h2.69
				v2.69h2.69h2.69h2.69h2.69h2.69h2.69v-2.69h2.69v-2.69v-2.69v-2.69v-2.69v-2.69v-2.69C250.61,110.63,247.92,110.63,247.92,110.63
				z M242.55,124.07h-2.69h-2.69v-2.69h-2.69v-2.69V116h2.69v-2.69h2.69h2.69V116h2.69v2.69v2.69h-2.69V124.07z"/>
			<g>
				<polygon class="st3" points="242.55,129.45 239.86,129.45 237.17,129.45 234.48,129.45 231.79,129.45 231.79,132.14 
					234.48,132.14 237.17,132.14 239.86,132.14 242.55,132.14 245.23,132.14 247.92,132.14 247.92,129.45 245.23,129.45 				"/>
				<rect x="249.52" y="126.76" class="st3" width="2.69" height="2.69"/>
				<rect x="229.11" y="126.76" class="st3" width="2.69" height="2.69"/>
				<polygon class="st3" points="229.11,121.38 229.11,118.69 229.11,116 229.11,113.32 229.11,110.63 226.42,110.63 226.42,113.32 
					226.42,116 226.42,118.69 226.42,121.38 226.42,124.07 226.42,126.76 229.11,126.76 229.11,124.07 				"/>
				<polygon class="st3" points="250.61,110.63 250.61,113.32 250.61,116 250.61,118.69 250.61,121.38 250.61,124.07 250.61,126.76 
					253.3,126.76 253.3,124.07 253.3,121.38 253.3,118.69 253.3,116 253.3,113.32 253.3,110.63 				"/>
				<rect x="247.92" y="107.94" class="st3" width="2.69" height="2.69"/>
				<rect x="229.11" y="107.94" class="st3" width="2.69" height="2.69"/>
				<polygon class="st3" points="237.17,107.94 239.86,107.94 242.55,107.94 245.23,107.94 247.92,107.94 247.92,105.25 
					245.23,105.25 242.55,105.25 239.86,105.25 237.17,105.25 234.48,105.25 231.79,105.25 231.79,107.94 234.48,107.94 				"/>
			</g>
		</g>
		<g>
			<polygon class="st1" points="233.99,428.66 233.99,424.41 229.73,424.41 225.48,424.41 225.48,428.66 221.23,428.66 
				221.23,432.91 221.23,437.17 225.48,437.17 225.48,441.42 229.73,441.42 233.99,441.42 233.99,437.17 238.23,437.17 
				238.23,432.91 238.23,428.66 			"/>
			<path class="st2" d="M242.49,420.16v-4.25h-4.25h-4.25h-4.26h-4.25h-4.25h-4.25v4.25h-4.25v4.25v4.25v4.25v4.26v4.25v4.25h4.25
				v4.26h4.25h4.25h4.25h4.26h4.25h4.25v-4.26h4.25v-4.25v-4.25v-4.26v-4.25v-4.25v-4.25H242.49z M233.99,441.42h-4.25h-4.25v-4.25
				h-4.26v-4.26v-4.26h4.25v-4.25h4.25h4.25v4.25h4.25v4.26v4.26h-4.25L233.99,441.42L233.99,441.42z"/>
			<g>
				<polygon class="st3" points="233.99,449.93 229.73,449.93 225.48,449.93 221.23,449.93 216.98,449.93 216.98,454.18 
					221.23,454.18 225.48,454.18 229.73,454.18 233.99,454.18 238.23,454.18 242.49,454.18 242.49,449.93 238.23,449.93 				"/>
				<rect x="242.49" y="445.67" class="st3" width="4.25" height="4.26"/>
				<rect x="212.73" y="445.67" class="st3" width="4.25" height="4.26"/>
				<polygon class="st3" points="212.73,437.17 212.73,432.91 212.73,428.66 212.73,424.41 212.73,420.16 208.47,420.16 
					208.47,424.41 208.47,428.66 208.47,432.91 208.47,437.17 208.47,441.42 208.47,445.67 212.73,445.67 212.73,441.42 				"/>
				<polygon class="st3" points="246.74,420.16 246.74,424.41 246.74,428.66 246.74,432.91 246.74,437.17 246.74,441.42 
					246.74,445.67 250.99,445.67 250.99,441.42 250.99,437.17 250.99,432.91 250.99,428.66 250.99,424.41 250.99,420.16 				"/>
				<rect x="242.49" y="415.9" class="st3" width="4.25" height="4.25"/>
				<rect x="212.73" y="415.9" class="st3" width="4.25" height="4.25"/>
				<polygon class="st3" points="225.48,415.9 229.73,415.9 233.99,415.9 238.23,415.9 242.49,415.9 242.49,411.66 238.23,411.66 
					233.99,411.66 229.73,411.66 225.48,411.66 221.23,411.66 216.98,411.66 216.98,415.9 221.23,415.9 				"/>
			</g>
		</g>
		<g>
			<polygon class="st1" points="242.34,388.25 242.34,386.13 240.22,386.13 238.11,386.13 238.11,388.25 235.99,388.25 
				235.99,390.37 235.99,392.49 238.11,392.49 238.11,394.6 240.22,394.6 242.34,394.6 242.34,392.49 244.46,392.49 244.46,390.37 
				244.46,388.25 			"/>
			<path class="st2" d="M246.57,384.02v-2.11h-2.12h-2.11h-2.12h-2.12h-2.12h-2.12v2.11h-2.12v2.11v2.12v2.12v2.12v2.11v2.12h2.12
				v2.12h2.12h2.12h2.12h2.12h2.11h2.12v-2.12h2.12v-2.12v-2.11v-2.12v-2.12v-2.12v-2.11H246.57z M242.34,394.6h-2.12h-2.12v-2.11
				h-2.12v-2.12v-2.12h2.12v-2.12h2.12h2.12v2.12h2.11v2.12v2.12h-2.11V394.6z"/>
			<g>
				<polygon class="st3" points="242.34,398.83 240.22,398.83 238.11,398.83 235.99,398.83 233.87,398.83 233.87,400.95 
					235.99,400.95 238.11,400.95 240.22,400.95 242.34,400.95 244.46,400.95 246.57,400.95 246.57,398.83 244.46,398.83 				"/>
				<rect x="246.57" y="396.71" class="st3" width="2.12" height="2.12"/>
				<rect x="231.76" y="396.71" class="st3" width="2.12" height="2.12"/>
				<polygon class="st3" points="231.76,392.49 231.76,390.37 231.76,388.25 231.76,386.13 231.76,384.02 229.64,384.02 
					229.64,386.13 229.64,388.25 229.64,390.37 229.64,392.49 229.64,394.6 229.64,396.71 231.76,396.71 231.76,394.6 				"/>
				<polygon class="st3" points="248.69,384.02 248.69,386.13 248.69,388.25 248.69,390.37 248.69,392.49 248.69,394.6 
					248.69,396.71 250.8,396.71 250.8,394.6 250.8,392.49 250.8,390.37 250.8,388.25 250.8,386.13 250.8,384.02 				"/>
				<rect x="246.57" y="381.9" class="st3" width="2.12" height="2.12"/>
				<rect x="231.76" y="381.9" class="st3" width="2.12" height="2.12"/>
				<polygon class="st3" points="238.11,381.9 240.22,381.9 242.34,381.9 244.46,381.9 246.57,381.9 246.57,379.78 244.46,379.78 
					242.34,379.78 240.22,379.78 238.11,379.78 235.99,379.78 233.87,379.78 233.87,381.9 235.99,381.9 				"/>
			</g>
		</g>
		<g>
			<polygon class="st1" points="304.22,97.51 304.22,99.63 306.33,99.63 308.45,99.63 308.45,97.51 310.57,97.51 310.57,95.4 
				310.57,93.28 308.45,93.28 308.45,91.17 306.33,91.17 304.22,91.17 304.22,93.28 302.11,93.28 302.11,95.4 302.11,97.51 			"/>
			<path class="st2" d="M299.99,101.74v2.12h2.11h2.11h2.12h2.11h2.12h2.11v-2.12h2.12v-2.12v-2.11v-2.12v-2.12v-2.11v-2.12h-2.12
				v-2.12h-2.11h-2.12h-2.11h-2.12h-2.11h-2.11v2.12h-2.12v2.12v2.11v2.12v2.12v2.11v2.12H299.99z M304.22,91.17h2.12h2.12v2.11
				h2.12v2.12v2.12h-2.12v2.11h-2.12h-2.12v-2.11h-2.12V95.4v-2.12h2.12V91.17z"/>
			<g>
				<polygon class="st3" points="304.22,86.93 306.33,86.93 308.45,86.93 310.57,86.93 312.69,86.93 312.69,84.81 310.57,84.81 
					308.45,84.81 306.33,84.81 304.22,84.81 302.11,84.81 299.99,84.81 299.99,86.93 302.11,86.93 				"/>
				<rect x="297.87" y="86.93" class="st3" width="2.12" height="2.12"/>
				<rect x="312.69" y="86.93" class="st3" width="2.12" height="2.12"/>
				<polygon class="st3" points="314.8,93.28 314.8,95.4 314.8,97.51 314.8,99.63 314.8,101.74 316.92,101.74 316.92,99.63 
					316.92,97.51 316.92,95.4 316.92,93.28 316.92,91.17 316.92,89.05 314.8,89.05 314.8,91.17 				"/>
				<polygon class="st3" points="297.87,101.74 297.87,99.63 297.87,97.51 297.87,95.4 297.87,93.28 297.87,91.17 297.87,89.05 
					295.75,89.05 295.75,91.17 295.75,93.28 295.75,95.4 295.75,97.51 295.75,99.63 295.75,101.74 				"/>
				<rect x="297.87" y="101.74" class="st3" width="2.12" height="2.12"/>
				<rect x="312.69" y="101.74" class="st3" width="2.12" height="2.12"/>
				<polygon class="st3" points="308.45,103.86 306.33,103.86 304.22,103.86 302.11,103.86 299.99,103.86 299.99,105.98 
					302.11,105.98 304.22,105.98 306.33,105.98 308.45,105.98 310.57,105.98 312.69,105.98 312.69,103.86 310.57,103.86 				"/>
			</g>
		</g>
		<g>
			<rect x="343.16" y="491.71" class="st3" width="4.25" height="4.26"/>
			<rect x="313.4" y="491.71" class="st3" width="4.25" height="4.26"/>
			<polygon class="st3" points="326.15,491.71 330.41,491.71 334.66,491.71 338.91,491.71 343.16,491.71 343.16,487.46 
				338.91,487.46 334.66,487.46 330.41,487.46 326.15,487.46 321.9,487.46 317.65,487.46 317.65,491.71 321.9,491.71 			"/>
		</g>
		<g>
			<polygon class="st1" points="283.59,382.79 283.59,379.31 280.1,379.31 276.61,379.31 276.61,382.79 273.13,382.79 
				273.13,386.28 273.13,389.77 276.61,389.77 276.61,393.25 280.1,393.25 283.59,393.25 283.59,389.77 287.07,389.77 
				287.07,386.28 287.07,382.79 			"/>
			<path class="st2" d="M290.56,375.83v-3.49h-3.48h-3.48h-3.49h-3.49h-3.49h-3.49v3.49h-3.48v3.48v3.48v3.49v3.49v3.48v3.49h3.48
				v3.49h3.49h3.49h3.48h3.49h3.48h3.49v-3.49h3.49v-3.49v-3.48v-3.49v-3.49v-3.48v-3.48H290.56z M283.59,393.25h-3.49h-3.48v-3.48
				h-3.49v-3.49v-3.48h3.49v-3.49h3.48h3.49v3.49h3.48v3.48v3.49h-3.48V393.25z"/>
			<g>
				<polygon class="st3" points="283.59,400.23 280.1,400.23 276.61,400.23 273.13,400.23 269.64,400.23 269.64,403.71 
					273.13,403.71 276.61,403.71 280.1,403.71 283.59,403.71 287.07,403.71 290.56,403.71 290.56,400.23 287.07,400.23 				"/>
				<rect x="290.56" y="396.74" class="st3" width="3.49" height="3.49"/>
				<rect x="266.15" y="396.74" class="st3" width="3.48" height="3.49"/>
				<polygon class="st3" points="266.15,389.77 266.15,386.28 266.15,382.79 266.15,379.31 266.15,375.83 262.67,375.83 
					262.67,379.31 262.67,382.79 262.67,386.28 262.67,389.77 262.67,393.25 262.67,396.74 266.15,396.74 266.15,393.25 				"/>
				<polygon class="st3" points="294.05,375.83 294.05,379.31 294.05,382.79 294.05,386.28 294.05,389.77 294.05,393.25 
					294.05,396.74 297.53,396.74 297.53,393.25 297.53,389.77 297.53,386.28 297.53,382.79 297.53,379.31 297.53,375.83 				"/>
				<rect x="290.56" y="372.34" class="st3" width="3.49" height="3.49"/>
				<rect x="266.15" y="372.34" class="st3" width="3.48" height="3.49"/>
				<polygon class="st3" points="276.61,372.34 280.1,372.34 283.59,372.34 287.07,372.34 290.56,372.34 290.56,368.85 
					287.07,368.85 283.59,368.85 280.1,368.85 276.61,368.85 273.13,368.85 269.64,368.85 269.64,372.34 273.13,372.34 				"/>
			</g>
		</g>
		<g>
			<polygon class="st1" points="289.77,33.1 289.77,30.41 287.08,30.41 284.39,30.41 284.39,33.1 281.7,33.1 281.7,35.79 
				281.7,38.48 284.39,38.48 284.39,41.16 287.08,41.16 289.77,41.16 289.77,38.48 292.45,38.48 292.45,35.79 292.45,33.1 			"/>
			<path class="st2" d="M295.14,27.72v-2.69h-2.69h-2.69h-2.69h-2.69h-2.69H279v2.69h-2.69v2.69v2.69v2.69v2.69v2.69v2.69H279v2.69
				h2.69h2.69h2.69h2.69h2.69h2.69v-2.69h2.69v-2.7v-2.69v-2.69v-2.69V30.4v-2.69C297.83,27.72,295.14,27.72,295.14,27.72z
				 M289.77,41.16h-2.69h-2.69v-2.69h-2.69v-2.69v-2.69h2.69V30.4h2.69h2.69v2.69h2.69v2.69v2.69h-2.69V41.16z"/>
			<g>
				<polygon class="st3" points="289.77,46.54 287.08,46.54 284.39,46.54 281.7,46.54 279.01,46.54 279.01,49.23 281.7,49.23 
					284.39,49.23 287.08,49.23 289.77,49.23 292.45,49.23 295.14,49.23 295.14,46.54 292.45,46.54 				"/>
				<rect x="295.14" y="43.85" class="st3" width="2.69" height="2.69"/>
				<rect x="276.32" y="43.85" class="st3" width="2.69" height="2.69"/>
				<polygon class="st3" points="276.32,38.48 276.32,35.79 276.32,33.1 276.32,30.41 276.32,27.72 273.64,27.72 273.64,30.41 
					273.64,33.1 273.64,35.79 273.64,38.48 273.64,41.16 273.64,43.85 276.32,43.85 276.32,41.16 				"/>
				<polygon class="st3" points="297.83,27.72 297.83,30.41 297.83,33.1 297.83,35.79 297.83,38.48 297.83,41.16 297.83,43.85 
					300.52,43.85 300.52,41.16 300.52,38.48 300.52,35.79 300.52,33.1 300.52,30.41 300.52,27.72 				"/>
				<rect x="295.14" y="25.03" class="st3" width="2.69" height="2.69"/>
				<rect x="276.32" y="25.03" class="st3" width="2.69" height="2.69"/>
				<polygon class="st3" points="284.39,25.03 287.08,25.03 289.77,25.03 292.45,25.03 295.14,25.03 295.14,22.34 292.45,22.34 
					289.77,22.34 287.08,22.34 284.39,22.34 281.7,22.34 279.01,22.34 279.01,25.03 281.7,25.03 				"/>
			</g>
		</g>
		<g>
			<polygon class="st1" points="247.06,19.65 247.06,16.96 244.37,16.96 241.68,16.96 241.68,19.65 238.99,19.65 238.99,22.34 
				238.99,25.03 241.68,25.03 241.68,27.72 244.37,27.72 247.06,27.72 247.06,25.03 249.75,25.03 249.75,22.34 249.75,19.65 			"/>
			<path class="st2" d="M252.44,14.28v-2.69h-2.69h-2.69h-2.69h-2.69h-2.69h-2.69v2.69h-2.69v2.69v2.69v2.69v2.69v2.69v2.69h2.69
				v2.69h2.69h2.69h2.69h2.69h2.69h2.69v-2.69h2.69v-2.69v-2.69v-2.69v-2.69v-2.7v-2.69C255.13,14.28,252.44,14.28,252.44,14.28z
				 M247.06,27.72h-2.69h-2.69v-2.69h-2.69v-2.69v-2.69h2.69v-2.69h2.69h2.69v2.69h2.69v2.69v2.69h-2.69V27.72z"/>
			<g>
				<polygon class="st3" points="247.06,33.09 244.37,33.09 241.68,33.09 238.99,33.09 236.31,33.09 236.31,35.78 238.99,35.78 
					241.68,35.78 244.37,35.78 247.06,35.78 249.75,35.78 252.44,35.78 252.44,33.09 249.75,33.09 				"/>
				<rect x="252.44" y="30.4" class="st3" width="2.69" height="2.69"/>
				<rect x="233.62" y="30.4" class="st3" width="2.69" height="2.69"/>
				<polygon class="st3" points="233.62,25.03 233.62,22.34 233.62,19.65 233.62,16.96 233.62,14.28 230.93,14.28 230.93,16.96 
					230.93,19.65 230.93,22.34 230.93,25.03 230.93,27.72 230.93,30.4 233.62,30.4 233.62,27.72 				"/>
				<polygon class="st3" points="255.13,14.28 255.13,16.96 255.13,19.65 255.13,22.34 255.13,25.03 255.13,27.72 255.13,30.4 
					257.81,30.4 257.81,27.72 257.81,25.03 257.81,22.34 257.81,19.65 257.81,16.96 257.81,14.28 				"/>
				<rect x="252.44" y="11.59" class="st3" width="2.69" height="2.69"/>
				<rect x="233.62" y="11.59" class="st3" width="2.69" height="2.69"/>
				<polygon class="st3" points="241.68,11.59 244.37,11.59 247.06,11.59 249.75,11.59 252.44,11.59 252.44,8.9 249.75,8.9 
					247.06,8.9 244.37,8.9 241.68,8.9 238.99,8.9 236.31,8.9 236.31,11.59 238.99,11.59 				"/>
			</g>
		</g>
		<g>
			<rect x="259.32" y="502.14" class="st3" width="2.69" height="2.69"/>
			<rect x="240.51" y="502.14" class="st3" width="2.69" height="2.69"/>
			<polygon class="st3" points="248.57,502.14 251.26,502.14 253.95,502.14 256.64,502.14 259.32,502.14 259.32,499.45 
				256.64,499.45 253.95,499.45 251.26,499.45 248.57,499.45 245.88,499.45 243.2,499.45 243.2,502.14 245.88,502.14 			"/>
		</g>
		<g>
			<polygon class="st1" points="281.33,94.43 281.33,98.28 285.18,98.28 289.02,98.28 289.02,94.43 292.88,94.43 292.88,90.58 
				292.88,86.73 289.02,86.73 289.02,82.89 285.18,82.89 281.33,82.89 281.33,86.73 277.48,86.73 277.48,90.58 277.48,94.43 			"/>
			<path class="st2" d="M273.64,102.13v3.85h3.85h3.85h3.85h3.85h3.86h3.85v-3.85h3.85v-3.85v-3.85v-3.85v-3.85v-3.84v-3.85h-3.85
				v-3.85h-3.85h-3.86h-3.85h-3.85h-3.85h-3.85v3.85h-3.86v3.85v3.84v3.85v3.85v3.85v3.85H273.64z M281.33,82.89h3.85h3.85v3.84
				h3.86v3.85v3.85h-3.86v3.84h-3.85h-3.85v-3.84h-3.85v-3.85v-3.85h3.85V82.89z"/>
			<g>
				<polygon class="st3" points="281.33,75.19 285.18,75.19 289.02,75.19 292.88,75.19 296.72,75.19 296.72,71.34 292.88,71.34 
					289.02,71.34 285.18,71.34 281.33,71.34 277.48,71.34 273.64,71.34 273.64,75.19 277.48,75.19 				"/>
				<rect x="269.78" y="75.19" class="st3" width="3.85" height="3.85"/>
				<rect x="296.72" y="75.19" class="st3" width="3.85" height="3.85"/>
				<polygon class="st3" points="300.57,86.73 300.57,90.58 300.57,94.43 300.57,98.28 300.57,102.13 304.42,102.13 304.42,98.28 
					304.42,94.43 304.42,90.58 304.42,86.73 304.42,82.89 304.42,79.04 300.57,79.04 300.57,82.89 				"/>
				<polygon class="st3" points="269.78,102.13 269.78,98.28 269.78,94.43 269.78,90.58 269.78,86.73 269.78,82.89 269.78,79.04 
					265.94,79.04 265.94,82.89 265.94,86.73 265.94,90.58 265.94,94.43 265.94,98.28 265.94,102.13 				"/>
				<rect x="269.78" y="102.13" class="st3" width="3.85" height="3.85"/>
				<rect x="296.72" y="102.13" class="st3" width="3.85" height="3.85"/>
				<polygon class="st3" points="289.02,105.98 285.18,105.98 281.33,105.98 277.48,105.98 273.64,105.98 273.64,109.83 
					277.48,109.83 281.33,109.83 285.18,109.83 289.02,109.83 292.88,109.83 296.72,109.83 296.72,105.98 292.88,105.98 				"/>
			</g>
		</g>
		<g>
			<g>
				<rect x="224" y="371.33" class="st3" width="3.47" height="3.47"/>
			</g>
		</g>
		<g>
			<g>
				<polygon class="st1" points="192.1,495.03 187,495.03 181.9,495.03 181.9,500.14 181.9,505.24 181.9,510.34 187,510.34 
					192.1,510.34 197.21,510.34 197.21,505.24 197.21,500.14 197.21,495.03 				"/>
				<rect x="202.31" y="484.82" class="st3" width="5.1" height="5.11"/>
			</g>
			<g>
				<rect x="202.31" y="484.82" class="st3" width="5.1" height="5.11"/>
				<polygon class="st3" points="181.89,484.82 187,484.82 192.1,484.82 197.2,484.82 202.31,484.82 202.31,479.72 197.2,479.72 
					192.1,479.72 187,479.72 181.89,479.72 176.79,479.72 176.79,484.82 				"/>
				<polygon class="st4" points="176.79,510.34 176.79,505.23 176.79,500.13 176.79,495.03 176.79,489.92 171.69,489.92 
					171.69,495.03 171.69,500.13 171.69,505.23 171.69,510.34 				"/>
				<rect x="171.69" y="484.82" class="st3" width="5.11" height="5.11"/>
				<rect x="171.69" y="484.82" class="st3" width="5.1" height="5.1"/>
			</g>
		</g>
		<g>
			<g>
				<polygon class="st4" points="276.19,147.27 271.42,147.27 266.66,147.27 261.9,147.27 257.13,147.27 257.13,152.04 
					261.9,152.04 266.66,152.04 271.42,152.04 276.19,152.04 280.95,152.04 280.95,147.27 				"/>
				<rect x="252.37" y="147.27" class="st3" width="4.76" height="4.76"/>
				<polygon class="st3" points="276.19,152.04 271.42,152.04 266.66,152.04 261.9,152.04 257.13,152.04 257.13,156.8 261.9,156.8 
					266.66,156.8 271.42,156.8 276.19,156.8 280.95,156.8 280.95,152.04 				"/>
				<rect x="280.95" y="147.27" class="st3" width="4.76" height="4.76"/>
				<polygon class="st4" points="252.37,128.22 252.37,132.98 252.37,137.75 252.37,142.51 252.37,147.27 257.13,147.27 
					257.13,142.51 257.13,137.75 257.13,132.98 257.13,128.22 				"/>
				<polygon class="st1" points="267.55,128.22 262.75,128.22 257.95,128.22 257.95,133.06 257.95,137.9 257.95,142.74 
					262.75,142.74 267.55,142.74 272.35,142.74 272.35,137.9 272.35,133.06 272.35,128.22 				"/>
				<rect x="280.94" y="147.28" class="st3" width="4.76" height="4.76"/>
				<polygon class="st3" points="281.78,123.46 281.78,128.22 281.78,132.98 281.78,137.75 281.78,142.51 281.78,147.27 
					286.54,147.27 286.54,142.51 286.54,137.75 286.54,132.98 286.54,128.22 286.54,123.46 				"/>
			</g>
			<g>
				<rect x="277.01" y="118.69" class="st3" width="4.76" height="4.76"/>
				<polygon class="st3" points="258.06,118.69 262.82,118.69 267.59,118.69 272.35,118.69 277.11,118.69 277.11,113.93 
					272.35,113.93 267.59,113.93 262.82,113.93 258.06,113.93 253.3,113.93 253.3,118.69 				"/>
				<polygon class="st4" points="257.13,142.51 257.13,137.74 257.13,132.98 257.13,128.22 257.13,123.45 252.37,123.45 
					252.37,128.22 252.37,132.98 252.37,137.74 252.37,142.51 				"/>
				<rect x="252.37" y="118.69" class="st3" width="4.76" height="4.76"/>
				<rect x="248.54" y="118.69" class="st3" width="4.76" height="4.76"/>
				<polygon class="st3" points="248.53,142.51 248.53,137.74 248.53,132.98 248.53,128.22 248.53,123.46 243.77,123.46 
					243.77,128.22 243.77,132.98 243.77,137.74 243.77,142.51 243.77,147.27 248.53,147.27 				"/>
				<rect x="252.37" y="147.27" class="st3" width="4.76" height="4.76"/>
				<path class="st2" d="M281.78,123.46L281.78,123.46h-4.76l0,0l0,0l0,0l0,0v-4.76h-4.76h-4.76h-4.76h-4.76h-4.76l0,0v4.76l0,0l0,0
					l0,0h-4.77v4.76v4.76v4.76v4.76v4.76h4.77l0,0h4.76l0,0l0,0l0,0h-4.76v4.76h4.76l0,0l0,0h4.76h4.76h4.76h4.77v-4.76h-4.77l0,0
					l0,0l0,0h4.77v-4.76l0,0l0,0l0,0v4.76h4.76v-4.76v-4.76v-4.76v-4.76L281.78,123.46L281.78,123.46L281.78,123.46L281.78,123.46
					L281.78,123.46z M272.25,142.51L272.25,142.51L272.25,142.51h-4.77h-4.76h-4.76l0,0v-4.76l0,0v-4.76l0,0v-4.76l0,0l0,0h4.76
					h4.76h4.76v4.76v4.76L272.25,142.51L272.25,142.51L272.25,142.51L272.25,142.51z"/>
			</g>
		</g>
		<g>
			<g>
				<polygon class="st4" points="227.17,82 222.41,82 217.65,82 212.88,82 208.12,82 208.12,86.76 212.88,86.76 217.65,86.76 
					222.41,86.76 227.17,86.76 231.93,86.76 231.93,82 				"/>
				<rect x="203.35" y="82" class="st3" width="4.76" height="4.76"/>
				<polygon class="st3" points="227.17,86.76 222.41,86.76 217.65,86.76 212.88,86.76 208.12,86.76 208.12,91.53 212.88,91.53 
					217.65,91.53 222.41,91.53 227.17,91.53 231.93,91.53 231.93,86.76 				"/>
				<rect x="231.93" y="82" class="st3" width="4.76" height="4.76"/>
				<polygon class="st4" points="203.36,62.95 203.36,67.71 203.36,72.47 203.36,77.24 203.36,82 208.12,82 208.12,77.24 
					208.12,72.47 208.12,67.71 208.12,62.95 				"/>
				<polygon class="st1" points="222.41,62.95 217.65,62.95 212.88,62.95 212.88,67.71 212.88,72.47 212.88,77.24 217.65,77.24 
					222.41,77.24 227.17,77.24 227.17,72.47 227.17,67.71 227.17,62.95 				"/>
				<rect x="231.93" y="82" class="st3" width="4.76" height="4.76"/>
				<polygon class="st3" points="236.7,58.19 236.7,62.95 236.7,67.71 236.7,72.47 236.7,77.24 236.7,82 241.46,82 241.46,77.24 
					241.46,72.47 241.46,67.71 241.46,62.95 241.46,58.19 				"/>
				<rect x="231.93" y="53.42" class="st3" width="4.76" height="4.76"/>
			</g>
			<g>
				<rect x="231.93" y="53.42" class="st3" width="4.76" height="4.76"/>
				<polygon class="st3" points="212.88,53.42 217.64,53.42 222.41,53.42 227.17,53.42 231.93,53.42 231.93,48.65 227.17,48.65 
					222.41,48.65 217.64,48.65 212.88,48.65 208.12,48.65 208.12,53.42 				"/>
				<polygon class="st4" points="208.12,77.23 208.12,72.47 208.12,67.71 208.12,62.94 208.12,58.18 203.35,58.18 203.35,62.94 
					203.35,67.71 203.35,72.47 203.35,77.23 				"/>
				<rect x="203.35" y="53.42" class="st3" width="4.76" height="4.76"/>
				<rect x="203.36" y="53.42" class="st3" width="4.76" height="4.76"/>
				<polygon class="st3" points="203.35,77.23 203.35,72.47 203.35,67.71 203.35,62.94 203.35,58.18 198.59,58.18 198.59,62.94 
					198.59,67.71 198.59,72.47 198.59,77.23 198.59,82 203.35,82 				"/>
				<rect x="203.36" y="82" class="st3" width="4.76" height="4.76"/>
				<path class="st2" d="M236.7,58.19L236.7,58.19h-4.76l0,0l0,0l0,0l0,0v-4.76h-4.76h-4.76h-4.76h-4.76h-4.76l0,0v4.76l0,0l0,0l0,0
					h-4.76v4.76v4.76v4.76v4.76v4.76h4.76l0,0h4.76h0.01l0,0l0,0h-4.76v4.76h4.76l0,0l0,0h4.76h4.76h4.76h4.76v-4.76h-4.76l0,0l0,0
					l0,0h4.76v-4.76l0,0l0,0l0,0v4.76h4.76v-4.76v-4.76v-4.76v-4.76L236.7,58.19L236.7,58.19L236.7,58.19z M227.17,77.24
					L227.17,77.24L227.17,77.24h-4.77h-4.76h-4.76l0,0v-4.76l0,0v-4.76l0,0v-4.76l0,0l0,0h4.76h4.76h4.76v4.76v4.76L227.17,77.24
					L227.17,77.24L227.17,77.24z"/>
			</g>
		</g>
		<g>
			<g>
				<polygon class="st4" points="321.82,59.6 317.05,59.6 312.29,59.6 307.53,59.6 302.77,59.6 302.77,64.37 307.53,64.37 
					312.29,64.37 317.05,64.37 321.82,64.37 326.58,64.37 326.58,59.6 				"/>
				<rect x="298" y="59.6" class="st3" width="4.76" height="4.76"/>
				<polygon class="st3" points="321.82,64.37 317.05,64.37 312.29,64.37 307.53,64.37 302.77,64.37 302.77,69.13 307.53,69.13 
					312.29,69.13 317.05,69.13 321.82,69.13 326.58,69.13 326.58,64.37 				"/>
				<rect x="326.58" y="59.6" class="st3" width="4.76" height="4.76"/>
				<polygon class="st4" points="298,40.55 298,45.31 298,50.08 298,54.84 298,59.6 302.77,59.6 302.77,54.84 302.77,50.08 
					302.77,45.31 302.77,40.55 				"/>
				<polygon class="st1" points="317.05,40.55 312.29,40.55 307.53,40.55 307.53,45.31 307.53,50.08 307.53,54.84 312.29,54.84 
					317.05,54.84 321.82,54.84 321.82,50.08 321.82,45.31 321.82,40.55 				"/>
				<rect x="326.58" y="59.61" class="st3" width="4.76" height="4.76"/>
				<polygon class="st3" points="331.34,35.79 331.34,40.55 331.34,45.31 331.34,50.08 331.34,54.84 331.34,59.6 336.1,59.6 
					336.1,54.84 336.1,50.08 336.1,45.31 336.1,40.55 336.1,35.79 				"/>
				<rect x="326.58" y="31.02" class="st3" width="4.76" height="4.76"/>
			</g>
			<g>
				<rect x="326.58" y="31.02" class="st3" width="4.76" height="4.76"/>
				<polygon class="st3" points="307.52,31.02 312.29,31.02 317.05,31.02 321.81,31.02 326.58,31.02 326.58,26.26 321.81,26.26 
					317.05,26.26 312.29,26.26 307.52,26.26 302.76,26.26 302.76,31.02 				"/>
				<polygon class="st4" points="302.76,54.84 302.76,50.07 302.76,45.31 302.76,40.55 302.76,35.78 298,35.78 298,40.55 298,45.31 
					298,50.07 298,54.84 				"/>
				<rect x="298" y="31.02" class="st3" width="4.76" height="4.76"/>
				<rect x="298" y="31.02" class="st3" width="4.77" height="4.76"/>
				<polygon class="st3" points="298,54.84 298,50.08 298,45.31 298,40.55 298,35.79 293.24,35.79 293.24,40.55 293.24,45.31 
					293.24,50.08 293.24,54.84 293.24,59.6 298,59.6 				"/>
				<rect x="298" y="59.6" class="st3" width="4.77" height="4.76"/>
				<path class="st2" d="M331.34,35.79L331.34,35.79h-4.76l0,0l0,0l0,0l0,0v-4.76h-4.76h-4.76h-4.76h-4.76h-4.77l0,0v4.76l0,0l0,0
					l0,0h-4.76v4.76v4.76v4.76v4.76v4.76h4.76l0,0h4.77h0.01l0,0l0,0h-4.76v4.76h4.76l0,0l0,0h4.76h4.77h4.76h4.76v-4.76h-4.76l0,0
					l0,0l0,0h4.76v-4.76l0,0l0,0l0,0v4.76h4.76v-4.76v-4.76v-4.76v-4.76L331.34,35.79L331.34,35.79L331.34,35.79z M321.82,54.84
					L321.82,54.84L321.82,54.84h-4.77h-4.76h-4.76l0,0v-4.76l0,0v-4.76l0,0v-4.76l0,0l0,0h4.76h4.76h4.76v4.76v4.76L321.82,54.84
					L321.82,54.84L321.82,54.84L321.82,54.84L321.82,54.84z"/>
			</g>
		</g>
		<g>
			<g>
				<polygon class="st4" points="291.16,473.74 286.4,473.74 281.64,473.74 276.87,473.74 272.11,473.74 272.11,478.5 276.87,478.5 
					281.64,478.5 286.4,478.5 291.16,478.5 295.93,478.5 295.93,473.74 				"/>
				<rect x="267.34" y="473.74" class="st3" width="4.76" height="4.76"/>
				<polygon class="st3" points="291.16,478.5 286.4,478.5 281.64,478.5 276.87,478.5 272.11,478.5 272.11,483.27 276.87,483.27 
					281.64,483.27 286.4,483.27 291.16,483.27 295.93,483.27 295.93,478.5 				"/>
				<rect x="295.93" y="473.74" class="st3" width="4.76" height="4.76"/>
				<polygon class="st4" points="267.35,454.69 267.35,459.45 267.35,464.21 267.35,468.98 267.35,473.74 272.11,473.74 
					272.11,468.98 272.11,464.21 272.11,459.45 272.11,454.69 				"/>
				<polygon class="st1" points="286.4,454.69 281.64,454.69 276.87,454.69 276.87,459.45 276.87,464.21 276.87,468.98 
					281.64,468.98 286.4,468.98 291.16,468.98 291.16,464.21 291.16,459.45 291.16,454.69 				"/>
				<rect x="295.92" y="473.74" class="st3" width="4.76" height="4.76"/>
				<polygon class="st3" points="300.69,449.93 300.69,454.69 300.69,459.45 300.69,464.21 300.69,468.97 300.69,473.74 
					305.45,473.74 305.45,468.97 305.45,464.21 305.45,459.45 305.45,454.69 305.45,449.93 				"/>
				<rect x="295.92" y="445.16" class="st3" width="4.76" height="4.77"/>
			</g>
			<g>
				<rect x="295.93" y="445.16" class="st3" width="4.76" height="4.77"/>
				<polygon class="st3" points="276.87,445.16 281.63,445.16 286.4,445.16 291.16,445.16 295.92,445.16 295.92,440.39 
					291.16,440.39 286.4,440.39 281.63,440.39 276.87,440.39 272.11,440.39 272.11,445.16 				"/>
				<polygon class="st4" points="272.11,468.97 272.11,464.21 272.11,459.45 272.11,454.68 272.11,449.92 267.34,449.92 
					267.34,454.68 267.34,459.45 267.34,464.21 267.34,468.97 				"/>
				<rect x="267.34" y="445.16" class="st3" width="4.76" height="4.77"/>
				<rect x="267.35" y="445.15" class="st3" width="4.76" height="4.76"/>
				<polygon class="st3" points="267.34,468.97 267.34,464.21 267.34,459.45 267.34,454.69 267.34,449.92 262.58,449.92 
					262.58,454.69 262.58,459.45 262.58,464.21 262.58,468.97 262.58,473.74 267.34,473.74 				"/>
				<rect x="267.35" y="473.74" class="st3" width="4.76" height="4.76"/>
				<path class="st2" d="M300.69,449.93L300.69,449.93h-4.76l0,0l0,0l0,0l0,0v-4.76h-4.76h-4.77h-4.76h-4.77h-4.76l0,0v4.76l0,0
					v0.01l0,0h-4.76v4.76v4.76v4.76v4.77v4.76h4.76l0,0h4.76l0,0l0,0l0,0h-4.76v4.76h4.76h0.01l0,0h4.76h4.76h4.76h4.76v-4.76h-4.76
					l0,0l0,0l0,0h4.76v-4.76v-0.01l0,0v0.01v4.76h4.76v-4.76v-4.77v-4.76v-4.77L300.69,449.93L300.69,449.93L300.69,449.93z
					 M291.16,468.98L291.16,468.98L291.16,468.98h-4.77h-4.76h-4.77l0,0v-4.76l0,0v-4.76v-0.01v-4.76h0.01l0,0h4.76h4.76h4.76v4.76
					v4.76L291.16,468.98L291.16,468.98L291.16,468.98L291.16,468.98z"/>
			</g>
		</g>
		<g>
			<polygon class="st5" points="195.3,17.58 195.3,17.58 195.31,17.58 195.31,17.58 			"/>
			<polygon class="st5" points="181.01,12.82 181.01,8.06 181.01,3.29 181.02,3.29 181.02,3.29 181.01,3.29 181.01,8.05 
				181.01,8.06 181.01,12.82 181.01,12.82 181.01,17.58 181.01,17.58 181.01,17.58 			"/>
			<polygon class="st5" points="171.49,17.58 171.49,17.58 171.48,17.58 171.48,17.58 171.48,22.34 171.49,22.34 			"/>
			<polygon class="st5" points="181.01,22.35 181.02,22.35 181.02,22.35 181.01,22.35 176.25,22.35 176.25,22.35 			"/>
			<polygon class="st4" points="195.31,22.35 195.3,22.35 195.3,22.35 195.31,22.35 200.07,22.35 200.07,22.35 			"/>
			<polygon class="st4" points="181.02,27.11 181.02,27.11 181.01,27.11 176.25,27.11 176.25,27.11 181.01,27.11 			"/>
			<polygon class="st3" points="171.49,22.35 171.49,22.35 171.49,22.34 171.48,22.34 171.48,27.11 171.49,27.11 			"/>
			<polygon class="st3" points="200.06,27.11 195.31,27.11 190.54,27.11 185.78,27.11 181.02,27.11 181.02,27.11 181.01,27.11 
				176.25,27.11 176.25,31.87 181.01,31.87 185.78,31.87 190.54,31.87 195.3,31.87 200.07,31.87 200.07,27.11 			"/>
			<polygon class="st3" points="200.07,22.35 204.83,22.35 204.83,27.11 204.83,27.11 204.83,22.35 			"/>
			<path class="st3" d="M200.07,22.35L200.07,22.35L200.07,22.35z"/>
			<polygon class="st1" points="181.01,8.06 181.01,12.82 181.01,17.58 185.78,17.58 190.54,17.58 195.3,17.58 195.3,17.58 
				195.3,17.58 195.3,17.58 195.3,17.58 195.3,12.82 195.3,8.05 195.3,3.3 190.54,3.3 185.78,3.3 181.02,3.3 181.02,3.29 
				181.01,3.29 			"/>
			<polygon class="st3" points="200.07,27.11 200.07,27.11 200.07,27.11 204.83,27.11 204.83,27.11 			"/>
			<polygon class="st3" points="200.06,27.11 200.06,27.11 200.06,27.11 			"/>
			<rect x="200.07" y="22.35" class="st3" width="4.76" height="4.76"/>
			<rect x="176.25" y="22.35" class="st3" width="0" height="4.76"/>
			<rect x="171.49" y="22.35" class="st3" width="4.76" height="4.76"/>
			<polygon class="st3" points="176.25,22.35 176.25,22.35 176.25,22.35 			"/>
			<path class="st3" d="M176.25,22.35L176.25,22.35L176.25,22.35z"/>
			<rect x="173.87" y="19.97" class="st3" width="0" height="4.76"/>
			<polygon class="st2" points="171.49,17.58 171.49,17.58 171.49,17.58 171.49,17.58 171.49,22.34 171.49,22.34 			"/>
			<polygon class="st2" points="204.83,22.34 204.83,22.34 204.83,22.34 			"/>
			<path class="st2" d="M176.25,27.11L176.25,27.11L176.25,27.11z"/>
			<polygon class="st2" points="181.02,27.11 181.02,27.11 185.78,27.11 190.54,27.11 195.3,27.11 200.06,27.11 200.06,22.35 
				200.07,22.35 200.07,22.35 195.31,22.35 195.3,22.35 195.3,22.35 195.31,22.35 200.07,22.35 200.07,22.35 195.3,22.35 
				190.54,22.35 185.78,22.35 181.01,22.35 176.25,22.35 176.25,27.11 176.25,27.11 181.01,27.11 			"/>
			<polygon class="st2" points="171.49,22.34 171.49,22.34 171.49,22.34 			"/>
			<polygon class="st2" points="195.3,27.11 190.54,27.11 185.78,27.11 181.02,27.11 181.02,27.11 185.78,27.11 190.54,27.11 
				195.31,27.11 200.06,27.11 200.06,27.11 			"/>
			<path class="st2" d="M200.07,22.35L200.07,22.35L200.07,22.35z"/>
			<polygon class="st2" points="200.07,22.35 200.07,22.35 200.07,22.35 200.07,22.34 200.07,22.34 			"/>
			<polygon class="st2" points="204.83,22.34 200.07,22.34 200.07,22.35 200.07,22.35 204.83,22.35 			"/>
			<polygon class="st2" points="171.49,22.34 176.25,22.34 176.25,22.34 176.25,17.58 176.25,12.82 176.25,8.06 176.25,3.29 
				176.25,3.29 176.25,8.05 176.25,12.81 176.25,17.58 171.49,17.58 171.49,17.58 			"/>
			<polygon class="st2" points="185.78,3.3 190.54,3.3 195.3,3.3 195.3,8.05 195.3,12.82 195.3,17.58 195.3,17.58 195.3,12.82 
				195.3,8.06 195.3,3.29 190.54,3.29 185.78,3.29 181.02,3.29 181.02,3.3 			"/>
			<polygon class="st2" points="190.54,17.58 185.78,17.58 181.01,17.58 181.01,17.58 185.78,17.58 190.54,17.58 195.3,17.58 
				195.3,17.58 			"/>
			<polygon class="st2" points="200.07,27.11 200.07,27.11 200.07,27.11 200.07,27.11 			"/>
			<polygon class="st2" points="200.07,27.11 200.07,22.35 200.06,22.35 200.06,27.11 			"/>
			<polygon class="st2" points="200.06,27.11 200.06,27.11 200.06,27.11 			"/>
			<rect x="200.07" y="22.35" class="st2" width="0" height="4.76"/>
			<g>
				<polygon class="st5" points="195.3,12.82 195.3,8.06 195.3,3.29 190.54,3.29 185.78,3.29 181.02,3.29 181.02,3.29 181.01,3.29 
					181.01,8.05 181.01,8.06 181.01,12.82 181.01,12.82 181.01,17.58 181.01,17.58 181.01,17.58 181.01,17.58 185.78,17.58 
					190.54,17.58 195.3,17.58 195.3,17.58 195.31,17.58 195.31,17.58 195.3,17.58 				"/>
			</g>
			<polygon class="st2" points="176.25,12.81 176.25,8.05 176.25,3.29 171.49,3.29 171.49,8.06 171.49,12.82 171.49,17.58 
				176.25,17.58 			"/>
			<rect x="176.25" y="22.35" class="st2" width="0" height="4.76"/>
			<path class="st2" d="M176.25,22.35L176.25,22.35L176.25,22.35z"/>
			<polygon class="st2" points="176.25,22.35 176.25,22.35 176.25,22.35 176.25,22.35 176.25,22.34 176.25,22.34 			"/>
			<polygon class="st2" points="171.49,22.34 176.25,22.34 176.25,22.34 			"/>
		</g>
		<g id="Icon">
			<g id="layer1" inkscape:groupmode="layer" inkscape:label="Layer 1">
				<path id="path4147" inkscape:connector-curvature="0" sodipodi:nodetypes="cccccccccccccccccccccccccccccccccc" class="st6" d="
					M135.74,299.48v-86.8h54.05h54.05v20.34v20.35h14.94h14.94v-20.35v-20.34h52.78h52.78v86.8v86.8H257.51H135.74V299.48
					L135.74,299.48z M135.74,175.81v-33.07h121.77h121.77v33.07v33.06H326.5h-52.78v-3.49v-3.5h-14.94h-14.94v3.5v3.49h-54.06
					h-54.05L135.74,175.81L135.74,175.81z"/>
			</g>
		</g>
		<g>
			<polygon class="st3" points="204.83,3.3 204.83,8.06 204.83,12.82 204.83,17.58 204.83,22.34 209.59,22.34 209.59,17.58 
				209.59,12.82 209.59,8.05 209.59,3.29 209.59,0.35 204.83,0.35 			"/>
			<g>
				<polygon class="st3" points="166.72,3.29 166.72,8.05 166.72,12.82 166.72,17.58 166.72,22.34 171.48,22.34 171.48,17.58 
					171.48,17.58 171.48,12.82 171.48,12.81 171.48,8.05 171.48,8.05 171.48,3.29 171.48,3.29 171.48,0.35 166.72,0.35 				"/>
				<g>
					<polygon class="st5" points="181.01,17.58 185.78,17.58 190.54,17.58 195.3,17.58 195.3,17.58 195.31,17.58 195.31,17.58 
						195.3,17.58 195.3,12.82 195.3,8.06 195.3,3.29 190.54,3.29 185.78,3.29 181.02,3.29 181.02,3.29 181.01,3.29 181.01,8.05 
						181.01,8.06 181.01,12.82 181.01,12.82 181.01,17.58 181.01,17.58 					"/>
					<path class="st2" d="M176.25,3.29L176.25,3.29L176.25,3.29v4.77v4.76v4.76v4.76l0,0h4.76l0,0l0,0l0,0h-4.76l0,0h4.76h4.76h4.76
						h4.76h4.76l0,0l0,0v-4.76l0,0l0,0l0,0l0,0v4.76h4.76v-4.76v-4.76V8.06V3.29V0.35h-28.58L176.25,3.29L176.25,3.29z
						 M181.01,17.58v-4.76l0,0V8.05l0,0V3.29l0,0l0,0h4.76h4.76h4.76v4.76v4.76v4.76l0,0l0,0l0,0l0,0h-4.76h-4.76L181.01,17.58
						L181.01,17.58L181.01,17.58L181.01,17.58z"/>
					<g>
						<polygon class="st2" points="171.49,3.29 171.49,8.06 171.49,12.82 171.49,17.58 171.49,17.58 171.49,12.82 171.49,8.06 
							171.49,3.29 176.25,3.29 176.25,3.29 176.25,0.35 171.49,0.35 						"/>
					</g>
				</g>
			</g>
		</g>
		<g>
			<polygon class="st3" points="171.69,510.34 171.69,505.23 171.69,500.13 171.69,495.03 171.69,489.92 166.58,489.92 
				166.58,495.03 166.58,500.13 166.58,505.23 166.58,510.34 166.58,511.99 171.69,511.99 			"/>
			<g>
				<polygon class="st3" points="212.52,510.34 212.52,505.24 212.52,500.13 212.52,495.03 212.52,489.93 207.41,489.93 
					207.41,495.03 207.41,500.13 207.41,505.24 207.41,510.34 207.41,511.99 212.52,511.99 				"/>
				<g>
					<polygon class="st5" points="202.31,489.93 202.31,489.93 202.31,489.93 					"/>
					<polygon class="st5" points="197.21,505.24 197.21,500.13 197.21,495.03 192.11,495.03 187,495.03 181.9,495.03 181.9,495.03 
						181.9,495.03 181.9,500.13 181.9,500.14 181.9,505.24 181.9,505.24 181.9,510.34 181.9,510.34 187,510.34 192.1,510.34 
						197.21,510.34 197.21,510.34 197.21,510.34 197.21,510.34 197.21,510.34 					"/>
					<polygon class="st5" points="202.31,510.34 202.31,510.34 202.31,510.34 202.31,510.34 202.31,511.99 202.31,511.99 					"/>
					<g>
						<polygon class="st1" points="256.64,510.2 253.95,510.2 253.95,507.52 251.26,507.52 248.57,507.52 248.57,510.2 
							245.88,510.2 245.88,511.99 256.64,511.99 						"/>
						<g>
							<polygon class="st2" points="245.88,510.2 248.57,510.2 248.57,507.52 251.26,507.52 253.95,507.52 253.95,510.2 
								256.64,510.2 256.64,511.99 262.02,511.99 262.02,510.2 262.02,507.52 262.02,504.83 259.32,504.83 259.32,502.14 
								256.64,502.14 253.95,502.14 251.26,502.14 248.57,502.14 245.88,502.14 243.2,502.14 243.2,504.83 240.51,504.83 
								240.51,507.52 240.51,510.2 240.51,511.99 245.88,511.99 							"/>
							<g>
								<polygon class="st3" points="264.7,510.2 264.7,507.52 264.7,504.83 262.02,504.83 262.02,507.52 262.02,510.2 
									262.02,511.99 264.7,511.99 								"/>
								<g>
									<polygon class="st3" points="240.51,510.2 240.51,507.52 240.51,504.83 237.82,504.83 237.82,507.52 237.82,510.2 
										237.82,511.99 240.51,511.99 									"/>
									<g>
										<polygon class="st1" points="338.91,508.72 338.91,504.47 334.66,504.47 334.66,500.22 330.41,500.22 326.15,500.22 
											326.15,504.47 321.9,504.47 321.9,508.72 321.9,511.99 338.91,511.99 										"/>
										<g>
											<polygon class="st2" points="321.9,508.72 321.9,504.47 326.15,504.47 326.15,500.22 330.41,500.22 334.66,500.22 
												334.66,504.47 338.91,504.47 338.91,508.72 338.91,511.99 347.42,511.99 347.42,508.72 347.42,504.47 347.42,500.22 
												347.42,495.97 343.16,495.97 343.16,491.71 338.91,491.71 334.66,491.71 330.41,491.71 326.15,491.71 321.9,491.71 
												317.65,491.71 317.65,495.97 313.4,495.97 313.4,500.22 313.4,504.47 313.4,508.72 313.4,511.99 321.9,511.99 
																							"/>
											<g>
												<polygon class="st3" points="351.66,508.72 351.66,504.47 351.66,500.22 351.66,495.97 347.42,495.97 347.42,500.22 
													347.42,504.47 347.42,508.72 347.42,511.99 351.66,511.99 												"/>
												<g>
													<polygon class="st3" points="313.4,508.72 313.4,504.47 313.4,500.22 313.4,495.97 309.14,495.97 309.14,500.22 
														309.14,504.47 309.14,508.72 309.14,511.99 313.4,511.99 													"/>
												</g>
											</g>
										</g>
									</g>
								</g>
							</g>
						</g>
					</g>
					<line class="st5" x1="202.31" y1="511.99" x2="202.31" y2="511.99"/>
					<g>
						<polygon class="st5" points="197.21,505.24 197.21,500.13 197.21,495.03 192.11,495.03 187,495.03 181.9,495.03 181.9,495.03 
							181.9,495.03 181.9,500.13 181.9,500.14 181.9,505.24 181.9,505.24 181.9,510.34 181.9,510.34 187,510.34 192.1,510.34 
							197.21,510.34 197.21,510.34 197.21,510.34 197.21,510.34 197.21,510.34 						"/>
						<polygon class="st5" points="202.31,489.93 202.31,489.93 202.31,489.93 						"/>
						<g>
							<polygon class="st5" points="202.31,489.93 202.31,489.93 202.31,489.93 							"/>
							<polygon class="st5" points="197.21,505.24 197.21,500.13 197.21,495.03 192.11,495.03 187,495.03 181.9,495.03 
								181.9,495.03 181.9,495.03 181.9,500.13 181.9,500.14 181.9,505.24 181.9,505.24 181.9,510.34 181.9,510.34 187,510.34 
								192.1,510.34 197.21,510.34 197.21,510.34 197.21,510.34 197.21,510.34 197.21,510.34 							"/>
							<path class="st2" d="M207.41,489.93L207.41,489.93h-5.1l0,0l0,0l0,0l0,0v-5.1h-5.1h-5.1h-5.1h-5.1h-5.1l0,0v5.1l0,0l0,0l0,0
								h-5.1v5.1v5.11v5.1v5.1v1.65l0,0v-1.65v-5.1v-5.11v-5.1h5.1v5.1v5.11v5.1v1.65h25.52v-1.64v-0.01l0,0v0.01v1.64h5.1v-1.64
								v-5.1v-5.1v-5.1L207.41,489.93L207.41,489.93L207.41,489.93L207.41,489.93z M197.21,510.34L197.21,510.34L197.21,510.34
								h-5.11H187h-5.1l0,0v-5.09l0,0v-5.11l0,0v-5.1l0,0l0,0h5.1h5.1h5.1v5.1v5.1L197.21,510.34L197.21,510.34L197.21,510.34
								L197.21,510.34z"/>
							<polygon class="st2" points="176.79,505.24 176.79,500.14 176.79,495.03 171.69,495.03 171.69,500.14 171.69,505.24 
								171.69,510.34 171.69,511.99 176.79,511.99 176.79,510.34 							"/>
						</g>
					</g>
				</g>
			</g>
		</g>
	</g>
	<g>
		<polygon class="st5" points="340.88,1.32 340.88,1.31 338.19,1.31 335.51,1.31 335.51,1.32 338.19,1.32 		"/>
		<polygon class="st5" points="343.57,8.51 343.57,8.51 343.57,6.69 343.57,4 343.57,4 343.57,6.69 		"/>
		<polygon class="st5" points="348.94,4 348.94,6.69 348.94,8.51 348.95,8.51 348.95,6.69 348.95,4 348.95,1.32 348.95,0 348.94,0 
			348.94,1.32 		"/>
		<polygon class="st1" points="343.57,6.69 343.57,4 340.88,4 340.88,1.32 338.19,1.32 335.51,1.32 335.51,4 332.82,4 332.82,6.69 
			332.82,8.51 343.57,8.51 		"/>
		<polygon class="st2" points="327.44,1.32 327.44,4 327.44,4 327.44,6.69 327.44,6.69 327.44,8.51 327.44,8.51 332.82,8.51 
			332.82,6.69 332.82,4 335.51,4 335.51,1.32 335.51,1.31 338.19,1.31 340.88,1.31 340.88,1.32 340.88,4 343.57,4 343.57,4 
			343.57,6.69 343.57,8.51 348.94,8.51 348.94,6.69 348.94,4 348.94,1.32 348.94,0 327.44,0 		"/>
		<rect x="330.13" y="17.45" class="st3" width="0" height="2.69"/>
		<polygon class="st3" points="330.13,17.45 330.13,17.45 330.13,17.45 		"/>
		<rect x="327.44" y="14.76" class="st3" width="0" height="2.69"/>
		<polygon class="st3" points="327.44,14.75 327.44,14.75 327.44,14.75 		"/>
		<polygon class="st3" points="324.75,4 324.75,6.69 324.75,8.51 327.44,8.51 327.44,6.69 327.44,6.69 327.44,4 327.44,4 
			327.44,1.32 327.44,0 324.75,0 324.75,1.32 		"/>
		<polygon class="st3" points="348.95,4 348.95,6.69 348.95,8.51 348.95,8.51 351.64,8.51 351.64,6.69 351.64,4 351.64,1.32 
			351.64,0 348.95,0 348.95,1.32 		"/>
		<rect x="343.57" y="8.51" class="st1" width="0" height="0.87"/>
		<polygon class="st1" points="335.51,9.38 335.51,9.38 335.51,12.07 338.19,12.07 338.19,12.07 340.88,12.07 340.88,9.38 
			343.57,9.38 343.57,8.51 332.82,8.51 332.82,9.38 		"/>
		<polygon class="st2" points="348.95,9.38 348.95,8.51 348.94,8.51 348.94,9.38 348.94,12.07 348.94,14.75 348.95,14.75 
			348.95,12.07 		"/>
		<rect x="335.51" y="9.38" class="st2" width="0" height="2.68"/>
		<polygon class="st2" points="348.94,9.38 348.94,8.51 343.57,8.51 343.57,9.38 343.57,9.38 340.88,9.38 340.88,12.07 
			338.19,12.07 338.19,12.07 335.51,12.07 335.51,12.07 335.51,9.38 332.82,9.38 332.82,8.51 327.44,8.51 327.44,9.38 327.44,12.07 
			327.44,14.75 330.13,14.75 330.13,14.75 330.13,17.45 332.82,17.45 335.51,17.45 335.51,17.45 338.19,17.45 338.19,17.45 
			340.88,17.45 343.57,17.45 343.57,17.45 346.26,17.45 346.26,14.76 346.26,14.75 348.94,14.75 348.94,12.07 		"/>
		<polygon class="st2" points="348.95,9.38 348.95,8.51 348.95,8.51 348.95,9.38 348.95,12.07 348.95,14.75 348.95,14.75 
			348.95,12.07 		"/>
		<polygon class="st3" points="340.88,17.45 338.19,17.45 335.51,17.45 332.82,17.45 330.13,17.45 330.13,20.13 332.82,20.13 
			335.51,20.13 335.51,20.13 338.19,20.13 338.19,20.13 340.88,20.13 343.57,20.13 343.57,20.13 346.26,20.13 346.26,17.45 
			343.57,17.45 		"/>
		<polygon class="st3" points="343.57,17.45 340.88,17.45 338.19,17.45 338.19,17.45 335.51,17.45 335.51,17.45 332.82,17.45 
			330.13,17.45 330.13,17.45 332.82,17.45 335.51,17.45 338.19,17.45 340.88,17.45 343.57,17.45 346.26,17.45 346.26,17.45 		"/>
		<rect x="346.26" y="14.76" class="st3" width="2.69" height="2.69"/>
		<polygon class="st3" points="346.26,14.75 348.95,14.75 348.95,14.75 		"/>
		<polygon class="st3" points="330.13,14.75 330.13,14.75 330.13,14.76 330.13,17.45 330.13,17.45 		"/>
		<rect x="327.44" y="14.76" class="st3" width="2.69" height="2.69"/>
		<rect x="328.78" y="13.41" class="st3" width="0" height="2.69"/>
		<polygon class="st3" points="327.44,12.07 327.44,9.38 327.44,8.51 327.44,8.51 327.44,9.38 327.44,9.38 327.44,12.07 
			327.44,12.07 327.44,14.75 327.44,14.75 		"/>
		<polygon class="st3" points="327.44,12.07 327.44,9.38 327.44,9.38 327.44,8.51 324.75,8.51 324.75,9.38 324.75,12.07 
			324.75,14.75 327.44,14.75 		"/>
		<polygon class="st3" points="348.95,9.38 348.95,12.07 348.95,14.75 351.64,14.75 351.64,12.07 351.64,9.38 351.64,8.51 
			348.95,8.51 		"/>
	</g>
</g>
</svg>
