<?xml version="1.0" encoding="utf-8"?>
<!-- Generator: Adobe Illustrator 26.5.0, SVG Export Plug-In . SVG Version: 6.00 Build 0)  -->
<svg version="1.1" id="live_catch" xmlns="http://www.w3.org/2000/svg" xmlns:xlink="http://www.w3.org/1999/xlink" x="0px" y="0px"
	 viewBox="0 0 512 512" style="enable-background:new 0 0 512 512;" xml:space="preserve">
<style type="text/css">
	.st0{fill:#FFFFFF;}
	.st1{fill:#7FBCD7;}
	.st2{fill:#DBECF4;}
	.st3{fill:#A1CEE2;}
	.st4{fill:#4AA0C7;}
	.st5{fill:#3D83A3;}
	.st6{fill:#7FBBD6;}
	.st7{fill:#3D82A2;}
	.st8{fill:#4A9FC6;}
</style>
<g id="Background">
	<rect class="st0" width="512" height="512"/>
</g>
<g id="Icon">
	<g id="Pufferfish">
		
			<rect x="315.94" y="62.18" transform="matrix(0.9007 0.4343 -0.4343 0.9007 62.1846 -133.9316)" class="st1" width="16.41" height="13.84"/>
		
			<rect x="304.31" y="86.31" transform="matrix(0.9007 0.4343 -0.4343 0.9007 71.5092 -126.4837)" class="st1" width="16.41" height="13.84"/>
		
			<rect x="292.99" y="109.77" transform="matrix(0.9007 0.4343 -0.4343 0.9007 80.5782 -119.2401)" class="st1" width="16.41" height="13.84"/>
		
			<rect x="438.51" y="176.14" transform="matrix(0.9007 0.4343 -0.4343 0.9007 123.8496 -175.8599)" class="st1" width="16.41" height="13.84"/>
		
			<rect x="425.72" y="198.14" transform="matrix(0.9007 0.4343 -0.4343 0.9007 132.1327 -168.1194)" class="st1" width="16.41" height="13.84"/>
		
			<rect x="459.98" y="131.64" transform="matrix(0.9007 0.4343 -0.4343 0.9007 106.6479 -189.5993)" class="st1" width="16.41" height="13.84"/>
		
			<rect x="449.33" y="153.71" transform="matrix(0.9007 0.4343 -0.4343 0.9007 115.1787 -182.7855)" class="st1" width="16.41" height="13.84"/>
		
			<rect x="282.02" y="132.52" transform="matrix(0.9007 0.4343 -0.4343 0.9007 89.3708 -112.2172)" class="st1" width="16.41" height="13.84"/>
		<polygon class="st1" points="413.26,95.16 404.5,89.06 417.27,83.7 424.62,89.57 		"/>
		<polygon class="st1" points="428.72,106.99 420.18,101.36 433.93,93.97 441.28,99.83 		"/>
		<polygon class="st1" points="447.53,118.42 437.55,111.87 451.38,104.5 458.73,110.36 		"/>
		<polygon class="st1" points="464.94,130.65 455.29,124.55 468.09,115.55 476.55,122.31 		"/>
		<polygon class="st1" points="304.37,171.95 297.47,165.94 284.91,173.1 291.54,179.83 		"/>
		<polygon class="st1" points="317.91,187.67 311.01,179.77 298.45,186.93 305.57,194.6 		"/>
		<polygon class="st1" points="337.66,199.57 328.85,192.93 313.81,201.2 322.31,209.85 		"/>
		<polygon class="st1" points="358.27,216.58 347.25,206.7 330.46,218.9 339.07,228.83 		"/>
		<polygon class="st2" points="352.78,220.1 286.89,160.5 332.62,65.66 401.29,84.85 465.85,129.9 422.3,220.23 		"/>
		<polygon class="st3" points="320.2,157.85 312.44,150.85 318.97,137.3 326.73,144.3 		"/>
		<polygon class="st3" points="309.18,180.7 301.42,173.7 307.95,160.15 315.71,167.15 		"/>
		<polygon class="st1" points="358.51,153.88 349.54,146.55 355.48,134.22 364.69,141.69 		"/>
		<polygon class="st1" points="394.98,169.68 412.4,172.38 418.56,160.35 400.55,158.11 		"/>
		<polygon class="st1" points="413.64,184.68 431.52,186.42 437.68,174.39 419.68,172.15 		"/>
		<polygon class="st4" points="371.68,147.74 365.82,159.89 358.51,153.88 364.69,141.69 355.48,134.22 361.74,121.52 343.99,108.5 
			338.47,119.94 330.42,113.56 324.76,125.3 309.62,113.35 332.65,65.6 401.29,84.85 465.85,129.9 438.45,186.73 431.52,186.42 
			437.05,175.34 412.4,172.38 418.56,160.35 392.11,157.06 383.95,155.81 		"/>
		<polygon class="st5" points="335.91,102.18 327.82,95.86 333.44,84.21 341.76,90.05 		"/>
		<polygon class="st5" points="378.33,133.27 370.04,127.38 375.8,115.44 384.15,121.2 		"/>
		<polygon class="st5" points="349.66,146.29 332.71,131.89 338.47,119.94 355.48,134.22 		"/>
		<polygon class="st1" points="343.68,158.7 326.73,144.3 332.71,131.89 349.68,146.25 		"/>
		<polygon class="st0" points="370.04,127.38 361.74,121.52 367.46,109.65 375.8,115.44 		"/>
		<polygon class="st0" points="343.99,108.5 335.91,102.18 341.76,90.05 350.11,95.82 		"/>
		<polygon class="st3" points="352.99,186.52 345.23,179.52 351.76,165.97 359.52,172.97 		"/>
		<polygon class="st3" points="364.37,193.33 373.66,193.97 380.19,180.42 370.91,179.78 		"/>
		<polygon class="st3" points="383.08,196.02 392.4,196.58 398.93,183.03 389.61,182.47 		"/>
		<polygon class="st3" points="389.05,220.17 398.62,220.21 405.15,206.66 395.58,206.62 		"/>
		<polygon class="st3" points="412.72,220.19 422.3,220.23 427.42,209.6 417.85,209.56 		"/>
		<polygon class="st3" points="325.02,194.96 317.26,187.96 323.8,174.41 331.56,181.41 		"/>
		<polygon class="st3" points="294.65,167.5 286.89,160.5 293.42,146.95 301.18,153.95 		"/>
		<polygon class="st3" points="416.38,146.08 398.26,143.64 404.37,130.98 419.42,132.54 440.29,142.61 435.84,143.07 
			426.67,141.67 419.99,138.71 		"/>
		<polygon class="st5" points="373.61,95.05 363.81,88.53 363.17,79.39 374.01,85.69 		"/>
		<polygon class="st5" points="391.45,107.67 381.66,101.16 381.01,92.01 391.86,98.31 		"/>
		<polygon class="st5" points="349.24,77.98 339.44,71.47 338.8,62.32 349.64,68.63 		"/>
		<polygon class="st5" points="383.78,85.8 376.65,80.58 382,69.49 389.37,74.21 		"/>
		<polygon class="st5" points="404.14,103.73 397.49,97.96 402.83,86.88 409.49,92.64 		"/>
		<polygon class="st5" points="422.39,117.9 415.45,112.28 420.8,101.19 427.73,106.82 		"/>
	</g>
	<path class="st1" d="M338.89,134.52c-112.78-38.21-172.07,92.63-179.77,107.82l-6.5-17.74c17.67-31.47,79.5-131.25,186.53-92.71
		L338.89,134.52z"/>
	<g id="Fishing_Rod_1_">
		
			<rect x="56.78" y="355.35" transform="matrix(0.9471 -0.3211 0.3211 0.9471 -113.2814 40.1109)" class="st3" width="16.41" height="16.41"/>
		
			<rect x="65.79" y="338.39" transform="matrix(0.9471 -0.3211 0.3211 0.9471 -107.1658 41.9556)" class="st6" width="15.69" height="15.09"/>
		
			<rect x="75.21" y="320.24" transform="matrix(0.9471 -0.3211 0.3211 0.9471 -101.3222 44.1864)" class="st3" width="16.23" height="18.18"/>
		
			<rect x="82.97" y="302.69" transform="matrix(0.9471 -0.3211 0.3211 0.9471 -94.9784 45.5387)" class="st3" width="15.25" height="16.17"/>
		
			<rect x="91.59" y="284.85" transform="matrix(0.9471 -0.3211 0.3211 0.9471 -88.582 47.3262)" class="st3" width="15.24" height="14.83"/>
		
			<rect x="100.91" y="267.7" transform="matrix(0.9471 -0.3211 0.3211 0.9471 -82.696 49.3935)" class="st3" width="15.03" height="15.5"/>
		
			<rect x="109.94" y="249.65" transform="matrix(0.9471 -0.3211 0.3211 0.9471 -76.5192 51.339)" class="st3" width="14.94" height="16.1"/>
		
			<rect x="118.74" y="231.76" transform="matrix(0.9471 -0.3211 0.3211 0.9471 -70.2228 53.2169)" class="st3" width="15.03" height="15.56"/>
		
			<rect x="127.22" y="211.6" transform="matrix(0.9471 -0.3211 0.3211 0.9471 -62.8943 56.9973)" class="st3" width="28.33" height="15.22"/>
		
			<rect x="39.32" y="433.04" transform="matrix(0.9471 -0.3211 0.3211 0.9471 -138.7385 40.3638)" class="st7" width="27.4" height="15.67"/>
		
			<rect x="60.55" y="413.5" transform="matrix(0.9471 -0.3211 0.3211 0.9471 -131.4236 44.0701)" class="st7" width="14.75" height="14.09"/>
		
			<rect x="68.9" y="395.91" transform="matrix(0.9471 -0.3211 0.3211 0.9471 -125.4064 46.0395)" class="st7" width="16" height="14.75"/>
		
			<rect x="87.45" y="401.63" transform="matrix(0.9471 -0.3211 0.3211 0.9471 -125.9474 54.1499)" class="st7" width="27.54" height="14.71"/>
		
			<rect x="104.66" y="369.38" transform="matrix(0.9471 -0.3211 0.3211 0.9471 -117.1803 56.6399)" class="st7" width="17" height="28.52"/>
		
			<rect x="87.31" y="359.01" transform="matrix(0.9471 -0.3211 0.3211 0.9471 -112.8718 49.8634)" class="st7" width="14.91" height="16.37"/>
		
			<rect x="94.4" y="342.01" transform="matrix(0.9471 -0.3211 0.3211 0.9471 -106.7918 51.3325)" class="st7" width="15.71" height="14.96"/>
		
			<rect x="103.18" y="324.53" transform="matrix(0.9471 -0.3211 0.3211 0.9471 -100.6261 53.2468)" class="st7" width="15.93" height="14.44"/>
		
			<rect x="111.76" y="307" transform="matrix(0.9471 -0.3211 0.3211 0.9471 -94.6151 55.1732)" class="st7" width="16.46" height="14.97"/>
		
			<rect x="121" y="288.41" transform="matrix(0.9471 -0.3211 0.3211 0.9471 -88.239 57.079)" class="st7" width="15.93" height="15.39"/>
		
			<rect x="129.27" y="270.27" transform="matrix(0.9471 -0.3211 0.3211 0.9471 -82.0272 58.8817)" class="st7" width="16.53" height="15.81"/>
		
			<rect x="136.59" y="254.8" transform="matrix(0.9471 -0.3211 0.3211 0.9471 -76.2657 60.5317)" class="st7" width="17.65" height="13.45"/>
		
			<rect x="145.01" y="222.68" transform="matrix(0.9471 -0.3211 0.3211 0.9471 -67.9758 61.8534)" class="st7" width="17.12" height="28.74"/>
		
			<rect x="52.16" y="385.24" transform="matrix(0.9471 -0.3211 0.3211 0.9471 -122.387 42.0728)" class="st8" width="28.45" height="13.81"/>
		
			<rect x="44.06" y="402.73" transform="matrix(0.9471 -0.3211 0.3211 0.9471 -128.4712 40.1446)" class="st8" width="26.87" height="13.81"/>
		
			<rect x="34.92" y="420.44" transform="matrix(0.9471 -0.3211 0.3211 0.9471 -134.6319 38.198)" class="st8" width="27.18" height="13.81"/>
		
			<rect x="61.24" y="366.78" transform="matrix(0.9471 -0.3211 0.3211 0.9471 -116.6004 44.1134)" class="st8" width="28.45" height="17.67"/>
		
			<rect x="46.39" y="412.15" transform="matrix(0.9471 -0.3211 0.3211 0.9471 -131.4215 39.0954)" class="st8" width="12.9" height="11.82"/>
		
			<rect x="54.72" y="398.96" transform="matrix(0.9471 -0.3211 0.3211 0.9471 -125.4518 40.9828)" class="st8" width="13.65" height="3.88"/>
		
			<rect x="69.56" y="348.98" transform="matrix(0.9471 -0.3211 0.3211 0.9471 -109.8273 45.7388)" class="st8" width="28.45" height="13.83"/>
		
			<rect x="72.31" y="362.63" transform="matrix(0.9471 -0.3211 0.3211 0.9471 -113.0416 44.8305)" class="st8" width="14.22" height="5.11"/>
		
			<rect x="78.73" y="332.11" transform="matrix(0.9471 -0.3211 0.3211 0.9471 -103.8603 47.5794)" class="st8" width="27.22" height="13.22"/>
		
			<rect x="81.15" y="345.13" transform="matrix(0.9471 -0.3211 0.3211 0.9471 -106.7138 46.7083)" class="st8" width="14.26" height="3.63"/>
		
			<rect x="87.77" y="313.98" transform="matrix(0.9471 -0.3211 0.3211 0.9471 -97.7156 49.5828)" class="st8" width="27.45" height="14.22"/>
		
			<rect x="90.46" y="328.29" transform="matrix(0.9471 -0.3211 0.3211 0.9471 -100.7965 48.5773)" class="st8" width="12.88" height="3.28"/>
		
			<rect x="95.68" y="296.17" transform="matrix(0.9471 -0.3211 0.3211 0.9471 -91.5465 51.3229)" class="st8" width="28.34" height="14.18"/>
		
			<rect x="98.33" y="310.9" transform="matrix(0.9471 -0.3211 0.3211 0.9471 -94.6954 50.3982)" class="st8" width="14.29" height="2.87"/>
		
			<rect x="104.6" y="278.12" transform="matrix(0.9471 -0.3211 0.3211 0.9471 -85.2958 53.2715)" class="st8" width="28.58" height="14.32"/>
		
			<rect x="107.17" y="292.32" transform="matrix(0.9471 -0.3211 0.3211 0.9471 -88.3583 52.2414)" class="st8" width="14.13" height="3.45"/>
		
			<rect x="113.64" y="261.18" transform="matrix(0.9471 -0.3211 0.3211 0.9471 -79.2107 55.2048)" class="st8" width="28.29" height="13.22"/>
		
			<rect x="116.12" y="273.81" transform="matrix(0.9471 -0.3211 0.3211 0.9471 -82.1608 54.2222)" class="st8" width="14.43" height="4.87"/>
		
			<rect x="122.79" y="243.21" transform="matrix(0.9471 -0.3211 0.3211 0.9471 -73.1306 57.0907)" class="st8" width="27.52" height="14.17"/>
		
			<rect x="125.34" y="257.82" transform="matrix(0.9471 -0.3211 0.3211 0.9471 -76.1907 56.0686)" class="st8" width="13.16" height="2.48"/>
		
			<rect x="132.7" y="227.34" transform="matrix(0.9471 -0.3211 0.3211 0.9471 -68.6413 57.2944)" class="st8" width="13.42" height="18.89"/>
		
			<rect x="81.24" y="375.62" transform="matrix(0.9471 -0.3211 0.3211 0.9471 -120.1513 51.1082)" class="st8" width="27.32" height="28.54"/>
	</g>
</g>
</svg>
