<?xml version="1.0" encoding="utf-8"?>
<!-- Generator: Adobe Illustrator 23.0.6, SVG Export Plug-In . SVG Version: 6.00 Build 0)  -->
<svg version="1.1" id="mending_tanks" xmlns="http://www.w3.org/2000/svg" xmlns:xlink="http://www.w3.org/1999/xlink" x="0px"
	 y="0px" viewBox="0 0 512 512" style="enable-background:new 0 0 512 512;" xml:space="preserve">
<style type="text/css">
	.st0{fill:#FFFFFF;}
	.st1{fill:#4AA0C7;}
	.st2{fill:#428FB3;}
	.st3{fill:#3D83A3;}
</style>
<rect x="0" y="0" class="st0" width="512" height="512"/>
<g id="Icon">
	<path id="rect4147" class="st1" d="M288.71,433.33l-66.58-0.16l-1.47-37.45l-40.58,0.02l-4.63-58.12l-108.94-0.99L50.95,202.75
		l65.33-93.89h278.86l65.34,94.44l-15.57,133.31l-108.93,0.99l-4.29,58.47l-41.12-0.2L288.71,433.33z"/>
	<path id="rect4150" class="st2" d="M146.01,121.36l5.28,66.66h-41.55L146.01,121.36z"/>
	<path id="rect4153" class="st2" d="M148.14,116.82h215.35l-4.68,70.51H152.83L148.14,116.82z"/>
	<path id="rect4150-0" class="st2" d="M365.91,120.22l-5.27,66.65h41.55L365.91,120.22z"/>
	<path id="rect4185" class="st0" d="M189.41,126.45H316.6l17.1,32.01v27.31H176.96v-25.14L189.41,126.45z"/>
	<path id="rect4171" class="st1" d="M174.21,123.86L185.9,88.7h4.28l133.34,0.21l0.05,1.13l12.3,34.35l-4.07,2.47l-9.73-27.24
		l-0.67-1.36l-1.55,32.6l-3.5-5.25l1.39-32.47L190.42,92.9l1.03,34.18l-3.68,3.22l-0.43-33.71l-7.81,27.24l156.79,0.04v3.06v61.63
		l-159.74,0.02l0.07-5.55l154.65-0.41l-0.74-54.7l-151.41,0.78l0.03,23.77l9.33-28.16l127.23,0.09l4.72,1.06l12.25,29.28l0.27,14.1
		L316.8,128.4l-125.18,0.27l-12.45,36.6l0.03,22.75h-5.01L174.21,123.86L174.21,123.86L174.21,123.86z"/>
	<rect x="148.41" y="246.52" class="st3" width="210.91" height="19.47"/>
	<rect x="148.41" y="246.52" class="st0" width="90.1" height="19.47"/>
</g>
<polyline class="st0" points="179.18,176.03 179.2,187.28 331.45,187.28 331.08,165.46 303.61,168.49 "/>
</svg>
