<?xml version="1.0" encoding="utf-8"?>
<!-- Generator: Adobe Illustrator 23.0.6, SVG Export Plug-In . SVG Version: 6.00 Build 0)  -->
<svg version="1.1"
	 id="enchantment_extractors" xmlns:cc="http://creativecommons.org/ns#" xmlns:dc="http://purl.org/dc/elements/1.1/" xmlns:inkscape="http://www.inkscape.org/namespaces/inkscape" xmlns:rdf="http://www.w3.org/1999/02/22-rdf-syntax-ns#" xmlns:sodipodi="http://sodipodi.sourceforge.net/DTD/sodipodi-0.dtd" xmlns:svg="http://www.w3.org/2000/svg"
	 xmlns="http://www.w3.org/2000/svg" xmlns:xlink="http://www.w3.org/1999/xlink" x="0px" y="0px" viewBox="0 0 512 512"
	 style="enable-background:new 0 0 512 512;" xml:space="preserve">
<style type="text/css">
	.st0{fill:#FFFFFF;}
	.st1{fill:#4AA0C7;}
	.st2{fill:#3991BA;}
	.st3{fill:#3381A5;}
	.st4{fill:#84BFD9;}
</style>
<rect x="0" y="0" class="st0" width="512" height="512"/>
<g id="Icon">
	<g id="layer1" inkscape:groupmode="layer" inkscape:label="Layer 1">
		<g id="g4326" transform="matrix(1.3256076,0,0,1.3256076,-125.82858,-249.16776)">
			<rect id="rect4275" x="197.37" y="430.47" class="st1" width="180.74" height="112.7"/>
			<rect id="rect4305" x="191.45" y="426.5" class="st2" width="38.78" height="36.84"/>
			<rect id="rect4307" x="345.86" y="426.36" class="st2" width="38.79" height="36.83"/>
		</g>
		<g id="g4322" transform="matrix(1.3256076,0,0,1.3256076,-125.82858,-249.16776)">
			
				<path id="rect4286" inkscape:connector-curvature="0" inkscape:transform-center-x="91.746555" inkscape:transform-center-y="-32.314978" sodipodi:nodetypes="cccccccc" class="st1" d="
				M206.23,398.74l87.53,19.92l-3.99,12.72l-87.5-19.92l-2.26-0.54l0.43-1.7l2.27,0.55L206.23,398.74z"/>
			
				<path id="path4320" inkscape:connector-curvature="0" inkscape:transform-center-x="-91.746555" inkscape:transform-center-y="-32.314978" sodipodi:nodetypes="cccccccc" class="st1" d="
				M370.11,398.74l-87.55,19.92l3.99,12.72l87.52-19.92l2.26-0.54l-0.43-1.7l-2.29,0.55L370.11,398.74z"/>
		</g>
		<g id="layer1-0" transform="matrix(0.77016892,0,0,0.77016892,104.28632,-174.7619)" inkscape:label="Layer 1">
			<g id="g4331">
				<g id="g4706">
				</g>
			</g>
			<g id="g4177" transform="matrix(0.81179945,0.58393634,-0.58393634,0.81179945,-841.48546,-920.78022)">
			</g>
			<a id="a4378" transform="matrix(0.81179945,0.58393634,-0.58393634,0.81179945,267.7046,-60.585579)">
				<g id="g4323">
					<g id="g4384">
					</g>
				</g>
			</a>
			<a id="a4357" transform="matrix(0.81179945,0.58393634,-0.58393634,0.81179945,717.4415,262.91515)">
			</a>
		</g>
		<path id="path4148" inkscape:connector-curvature="0" class="st3" d="M139.28,295.55l0.57-2.25l115.96,26.17l116.68-26.17
			l0.56,2.25l-113.86,25.9h-6.25L139.28,295.55z"/>
	</g>
	<g id="layer1_2_" inkscape:groupmode="layer" inkscape:label="Layer 1">
		<g id="g4273" transform="matrix(0.77016892,0,0,0.77016892,98.28632,-176.7619)">
			<rect id="rect4150" x="95.12" y="283.86" class="st1" width="38.88" height="39.43"/>
			<rect id="rect4152" x="111.37" y="298.47" class="st1" width="38.52" height="37.97"/>
			<rect id="rect4154" x="124.69" y="314.17" class="st1" width="38.16" height="38.89"/>
			<rect id="rect4156" x="137.47" y="326.59" class="st1" width="39.61" height="39.26"/>
			<rect id="rect4158" x="154.64" y="340.65" class="st1" width="38.14" height="38.35"/>
			<rect id="rect4160" x="167.66" y="356.71" class="st1" width="38.71" height="37.99"/>
			<rect id="rect4160-9" x="181.11" y="370.22" class="st1" width="40.9" height="37.99"/>
			<rect id="rect4160-4" x="196.51" y="384.17" class="st1" width="38.71" height="39.98"/>
			<rect id="rect4160-5" x="210.88" y="399.26" class="st1" width="53.86" height="52.78"/>
			<rect id="rect4160-4-9" x="180.37" y="454.85" class="st1" width="26.28" height="26.47"/>
			<rect id="rect4160-4-9-7" x="196.07" y="441.72" class="st1" width="39.63" height="26.47"/>
			<rect id="rect4160-4-9-2" x="267.54" y="368.68" class="st1" width="26.31" height="26.47"/>
			<rect id="rect4160-4-9-7-3" x="252.76" y="383.82" class="st1" width="26.5" height="41.45"/>
			<rect id="rect4160-4-9-25" x="252.11" y="440.42" class="st1" width="26.31" height="26.48"/>
			<rect id="rect4160-4-9-25-6" x="266.75" y="454.48" class="st1" width="26.26" height="26.47"/>
			<rect id="rect4160-4-9-25-2" x="282.1" y="470.73" class="st1" width="39.39" height="39.62"/>
		</g>
		<g id="g4177_2_" transform="matrix(0.62522271,0.44972962,-0.44972962,0.62522271,-543.79963,-883.91821)">
		</g>
		<a id="a4378_2_" transform="matrix(0.62522271,0.44972962,-0.44972962,0.62522271,310.46408,-221.42303)">
			<g id="g4323_2_">
				<g id="g4384_2_">
				</g>
			</g>
		</a>
		<a id="a4357_2_" transform="matrix(0.62522271,0.44972962,-0.44972962,0.62522271,656.83747,27.727177)">
		</a>
	</g>
	<g id="layer1_1_" inkscape:groupmode="layer" inkscape:label="Layer 1">
		<g id="g4517" transform="matrix(0.77016892,0,0,0.77016892,104.28632,-174.7619)">
			
				<path id="path4407" inkscape:connector-curvature="0" sodipodi:nodetypes="ssscssssssssssssssssssssssssssssssssssssssssssssssssscssscsssssssssss" class="st3" d="
				M253.09,506.67c-0.84-2.41,0.42-10.83,1.59-10.83c0.75,0,1.16,2.11,1.15,6.04c-0.01,3.86-0.44,6.06-1.16,6.06
				C254.03,507.94,253.33,507.37,253.09,506.67z M257.35,501.87c0-4.69,0.31-6.04,1.48-6.04s1.53,1.35,1.53,6.04
				c0,4.72-0.36,6.06-1.53,6.06c-0.78,0-1.2-0.64-1.39-2.54C257.38,504.53,257.35,503.37,257.35,501.87L257.35,501.87z M84.99,365
				c0-1.16,1.29-1.51,5.55-1.51c4.24,0,5.54,0.35,5.54,1.51c0,1.17-1.3,1.52-5.54,1.52C86.28,366.52,84.99,366.17,84.99,365z
				 M235.54,556.5c0-0.83,0.9-1.5,1.98-1.5c1.12,0,2.02,0.67,2.02,1.5c0,0.85-0.9,1.5-2.02,1.5
				C236.44,558,235.54,557.32,235.54,556.5z M241.56,556.5c0-0.83,0.9-1.5,2.02-1.5c1.13,0,2.03,0.67,2.03,1.5
				c0,0.85-0.9,1.5-2.03,1.5C242.46,558,241.56,557.32,241.56,556.5z M86,359.97c0-0.84,0.9-1.5,2.02-1.5c1.12,0,2.01,0.67,2.01,1.5
				c0,0.84-0.89,1.51-2.01,1.51S86,360.81,86,359.97z M92.04,359.97c0-0.82,0.68-1.5,1.51-1.5c0.84,0,1.52,0.68,1.52,1.5
				c0,0.83-0.68,1.51-1.52,1.51C92.72,361.48,92.04,360.8,92.04,359.97z M238.55,551.46c0-0.86,0.9-1.53,2.02-1.53
				c1.12,0,2.02,0.67,2.02,1.53c0,0.83-0.9,1.5-2.02,1.5C239.45,552.97,238.55,552.3,238.55,551.46z M261.77,585.95
				c0-1.12-0.67-2.02-1.5-2.02s-1.51-0.59-1.51-1.39c0-1.58,3.48-2.72,6.56-2.14c1.12,0.22,2.56,0.42,3.26,0.46
				c2.11,0.1,1.39,3.07-0.74,3.07c-1.35,0-2.02,0.68-2.02,2.02c0,1.35-0.67,2.03-2.02,2.03
				C262.44,587.97,261.77,587.3,261.77,585.95L261.77,585.95z M139.86,599.74c0-1.1,3.19-4.3,4.04-1.53h4.02v-5.03
				c0-3.82,0.36-5.03,1.5-5.03c1.2,0,1.53,1.39,1.53,6.56v6.56h-5.55C141.15,601.27,139.86,600.9,139.86,599.74z M139.86,591.17
				c0-1.12,0.67-2.02,1.5-2.02c0.86,0,1.53,0.9,1.53,2.02c0,1.13-0.67,2.02-1.53,2.02C140.53,593.19,139.86,592.29,139.86,591.17z
				 M258.76,576.81c0-1.88,0.49-2.06,5.26-1.77c4.06,0.25,5.38,0.78,5.63,2.09c0.28,1.52-0.47,1.77-5.27,1.77
				C259.33,578.9,258.76,578.68,258.76,576.81L258.76,576.81z"/>
			<g id="g4505" transform="translate(-7.7904987,-12.984165)">
				<g id="g4508">
					
						<path id="path4407-2" inkscape:connector-curvature="0" sodipodi:nodetypes="ssssssssssssscccsssssssssssssssssssssssssssssscssssscccssssssssssssss" class="st3" d="
						M290.04,450.22c3.51-3.94,3.53-5.61,0.12-5.61c-1.47,0-2.64-0.4-2.64-0.87s1.55-0.87,3.42-0.87c2.68,0,3.56,0.39,4,1.76
						c0.64,1.98-2.28,7.33-4.46,8.17C287.56,453.9,287.47,453.17,290.04,450.22z M304.22,565.72c0-0.94,0.95-1.29,3.46-1.29
						c1.89,0,3.47-0.4,3.47-0.87s-1.57-0.88-3.47-0.88c-2.51,0-3.46-0.36-3.46-1.29c0-1.01,1.07-1.32,4.78-1.32h4.78v3.49v3.49H309
						C305.32,567.01,304.22,566.73,304.22,565.72L304.22,565.72z M210.98,533.6c0-1.54,4.95-10.02,5.86-10.02
						c1.16,0,0.84,1.16-2.37,8.05C213.49,533.6,210.98,535.06,210.98,533.6L210.98,533.6z M307.68,557.89
						c0-0.71,0.59-1.29,1.32-1.29c0.71,0,1.27,0.59,1.27,1.29c0,0.71-0.56,1.32-1.27,1.32C308.28,559.21,307.68,558.6,307.68,557.89
						z M208.39,524.9c0-0.73,0.56-1.32,1.32-1.32c0.71,0,1.27,0.59,1.27,1.32c0,0.71-0.56,1.29-1.27,1.29
						C208.94,526.19,208.39,525.61,208.39,524.9z M141.1,482.95c0-1.73-0.42-2.18-2.18-2.18c-1.35,0-2.18-0.48-2.18-1.29
						c0-1.26,0.98-1.68,3.27-1.37c0.61,0.07,1.07-0.8,1.07-2.08c0-1.39,0.51-2.21,1.32-2.21c1.02,0,1.29,1.22,1.29,5.66
						s-0.27,5.64-1.29,5.64C141.6,485.14,141.1,484.3,141.1,482.95z M117.21,459.16c0-0.73,0.78-1.31,1.74-1.31
						c0.97,0,1.75,0.58,1.75,1.31c0,0.72-0.78,1.3-1.75,1.3C117.99,460.45,117.21,459.87,117.21,459.16z M129.09,403.32
						c0-1.3,0.69-1.48,4.78-1.22c3.4,0.21,4.78,0.66,4.78,1.52c0,1.52-2.31,1.63-2.91,0.14c-0.35-0.86-0.45-0.86-0.5,0
						c-0.05,0.6-0.63,1.1-1.32,1.1c-0.68,0-1.42-0.5-1.66-1.1c-0.36-0.86-0.45-0.86-0.52,0
						C131.64,405.45,129.09,405.03,129.09,403.32L129.09,403.32z M117.21,455.24c0-1.16,0.58-1.74,1.74-1.74
						c1.17,0,1.75,0.58,1.75,1.74c0,1.17-0.58,1.75-1.75,1.75C117.79,456.98,117.21,456.41,117.21,455.24z M129.09,398.62
						c0-1.36,0.71-1.6,4.78-1.6c3.99,0,4.78,0.25,4.78,1.54s-0.8,1.55-4.78,1.61C129.78,400.21,129.09,399.98,129.09,398.62
						L129.09,398.62z M117.43,450.67c0.55-1.64,3.27-1.87,3.27-0.27c0,0.8-0.76,1.37-1.82,1.37
						C117.81,451.76,117.21,451.31,117.43,450.67z"/>
					
						<path id="path4551-9" inkscape:connector-curvature="0" sodipodi:nodetypes="sssssssssssssssssssssssssssssssssssssssssssssss" class="st4" d="
						M134.81,394.46c0-0.4,1.15-2.62,1.36-2.62c0.27,0,0.19,0.31-0.56,2.11C135.39,394.46,134.81,394.84,134.81,394.46z
						 M136.07,380.08c0-0.27,0.26-0.35,1.12-0.35c0.85,0,1.12,0.07,1.12,0.35c0,0.26-0.27,0.34-1.12,0.34
						C136.33,380.42,136.07,380.34,136.07,380.08z M136.28,378.94c0-0.2,0.19-0.34,0.42-0.34c0.22,0,0.39,0.15,0.39,0.34
						c0,0.18-0.17,0.34-0.39,0.34C136.46,379.29,136.28,379.13,136.28,378.94z M137.5,378.94c0-0.2,0.13-0.34,0.29-0.34
						c0.18,0,0.31,0.15,0.31,0.34c0,0.18-0.14,0.34-0.31,0.34C137.63,379.29,137.5,379.12,137.5,378.94z M134.21,392.18
						c0-0.19,0.13-0.35,0.29-0.35c0.18,0,0.31,0.16,0.31,0.35s-0.13,0.34-0.31,0.34C134.34,392.52,134.21,392.36,134.21,392.18z
						 M132.55,373.63c0-0.46-0.1-0.57-0.49-0.57c-0.32,0-0.52-0.13-0.52-0.34c0-0.33,0.22-0.44,0.77-0.36
						c0.14,0.02,0.25-0.21,0.25-0.55c0-0.36,0.11-0.58,0.31-0.58c0.24,0,0.31,0.32,0.31,1.48c0,1.17-0.08,1.48-0.31,1.48
						C132.66,374.2,132.55,373.98,132.55,373.63L132.55,373.63z M132.51,385.29c0-0.26-0.13-0.46-0.31-0.46
						c-0.16,0-0.31-0.15-0.31-0.32c0-0.35,0.72-0.62,1.33-0.5c0.22,0.05,0.52,0.1,0.66,0.1c0.43,0.04,0.27,0.71-0.16,0.71
						c-0.27,0-0.4,0.15-0.4,0.46c0,0.3-0.13,0.46-0.42,0.46C132.63,385.75,132.51,385.59,132.51,385.29L132.51,385.29z
						 M131.88,383.22c0-0.42,0.1-0.46,1.08-0.39c0.81,0.06,1.07,0.16,1.13,0.47c0.05,0.34-0.1,0.4-1.08,0.4
						C132.01,383.71,131.88,383.65,131.88,383.22L131.88,383.22z"/>
					
						<path id="path4551-7" inkscape:connector-curvature="0" sodipodi:nodetypes="sssssssssssssssssssssssssssssssssssssssssssssssssscssssssssssssssssssssssssscssssssssssscssssssssssssssssssssssssscssssssscsscssscsscssssscccsssssssssssssssssssssssssssssssss" class="st4" d="
						M137.99,419.79c0,0.25,0.19,0.46,0.42,0.46c0.22,0,0.4-0.21,0.4-0.46s-0.17-0.46-0.4-0.46
						C138.19,419.32,137.99,419.53,137.99,419.79z M139.65,419.79c0,0.25,0.17,0.46,0.4,0.46s0.42-0.21,0.42-0.46
						s-0.19-0.46-0.42-0.46C139.82,419.32,139.65,419.53,139.65,419.79z M141.09,460.42c0,0.25,0.2,0.46,0.42,0.46
						s0.42-0.21,0.42-0.46s-0.19-0.46-0.42-0.46S141.09,460.17,141.09,460.42z M142.78,380.8c0,0.56,1.56,3.54,1.84,3.54
						c0.38,0,0.27-0.41-0.75-2.84C143.58,380.8,142.78,380.29,142.78,380.8z M142.24,455.13c0,0.76,0.14,1.39,0.28,1.39
						s0.27,0.2,0.27,0.46c0,0.25,0.24,0.46,0.55,0.46s0.55-0.21,0.55-0.46c0-0.26,0.18-0.46,0.42-0.46c0.29,0,0.4-0.37,0.4-1.39
						c0-1.03-0.11-1.39-0.4-1.39c-0.31,0-0.42,0.36-0.42,1.39c0,1.02-0.11,1.39-0.42,1.39c-0.29,0-0.4-0.37-0.4-1.39
						c0-1.03-0.11-1.39-0.42-1.39C142.33,453.74,142.24,454.11,142.24,455.13z M144.48,400.21c0,0.35,0.35,0.46,1.51,0.46
						c1.16,0,1.51-0.11,1.51-0.46s-0.35-0.46-1.51-0.46S144.48,399.86,144.48,400.21z M142.04,436.91c0,0.26,0.24,0.46,0.54,0.46
						c0.31,0,0.54-0.2,0.54-0.46c0-0.25-0.24-0.46-0.54-0.46C142.28,436.45,142.04,436.66,142.04,436.91z M143.68,436.91
						c0,0.26,0.24,0.46,0.55,0.46s0.55-0.2,0.55-0.46c0-0.25-0.24-0.46-0.55-0.46C143.91,436.45,143.68,436.66,143.68,436.91z
						 M141.09,461.94c0,0.64-0.14,0.76-0.98,0.85c-1.7,0.15-1.46,0.85,0.29,0.85h1.54v-1.22c0-0.89-0.11-1.23-0.42-1.23
						C141.26,461.2,141.09,461.47,141.09,461.94z M144.77,401.74c0,0.27,0.24,0.47,0.53,0.47c0.31,0,0.54-0.2,0.54-0.47
						c0-0.25-0.24-0.46-0.54-0.46C145.01,401.28,144.77,401.49,144.77,401.74z M146.4,401.74c0,0.26,0.19,0.47,0.42,0.47
						s0.4-0.21,0.4-0.47c0-0.25-0.17-0.46-0.4-0.46S146.4,401.5,146.4,401.74z M142.86,438.45c0,0.26,0.24,0.47,0.55,0.47
						c0.29,0,0.55-0.21,0.55-0.47c0-0.27-0.26-0.47-0.55-0.47C143.1,437.98,142.86,438.19,142.86,438.45z M138.12,422.4
						c-0.18,0.37,0.07,0.92,0.43,0.92c0.14,0,0.25-0.28,0.25-0.61C138.81,422.06,138.42,421.88,138.12,422.4L138.12,422.4z
						 M139.82,422.52c0.47,0,0.07,0.86,0.41,0.62c0.3-0.22,0.29-1.06-0.01-1.06C140.07,422.1,139.91,422.29,139.82,422.52z
						 M141.97,383.88c0,0.25,0.19,0.46,0.42,0.46c0.22,0,0.4-0.21,0.4-0.46s-0.17-0.47-0.4-0.47
						C142.16,383.42,141.97,383.63,141.97,383.88z M141.5,428.65c-0.22,1.7-0.1,2.49,0.43,2.49c0.28,0,0.41-0.41,0.48-1.46
						c0.09-1.44,0.1-1.45,1.02-1.45c0.66,0,0.94-0.15,0.94-0.47c0-0.35-0.33-0.46-1.35-0.46h-1.35L141.5,428.65z M139.73,408.91
						c0,0.62-0.13,0.77-0.69,0.77c-0.4,0-0.69,0.17-0.69,0.46c0,0.45,0.31,0.59,1.02,0.49c0.2-0.03,0.34,0.27,0.34,0.72
						c0,0.49,0.17,0.78,0.42,0.78c0.32,0,0.42-0.43,0.42-2s-0.09-1.99-0.42-1.99C139.9,408.14,139.73,408.43,139.73,408.91z
						 M139.67,393.17c0,0.34-0.19,0.62-0.42,0.62s-0.4,0.19-0.4,0.43c0,0.48,0.94,0.83,1.77,0.66c0.31-0.07,0.7-0.13,0.89-0.13
						c0.57-0.05,0.37-0.95-0.21-0.95c-0.36,0-0.55-0.19-0.55-0.62c0-0.41-0.17-0.61-0.53-0.61
						C139.84,392.55,139.67,392.76,139.67,393.17z M143.92,411.3c0,0.26,0.24,0.47,0.55,0.47s0.55-0.21,0.55-0.47
						s-0.24-0.47-0.55-0.47C144.16,410.84,143.92,411.04,143.92,411.3z M145.24,390.18c0,0.48-0.16,0.76-0.42,0.76
						c-0.23,0-0.4,0.21-0.4,0.46c0,0.26,0.16,0.46,0.38,0.46s0.44,0.31,0.47,0.69c0.06,0.38,0.31,0.73,0.56,0.78
						c0.43,0.09,0.47-0.16,0.47-1.91c0-1.82-0.04-2.02-0.53-2.02C145.38,389.41,145.24,389.62,145.24,390.18z M140.46,444.84
						c0,0.33,0.3,0.46,1.08,0.46h1.1v1.53c0,1.17,0.1,1.54,0.42,1.54c0.33,0,0.4-0.43,0.4-2v-1.99h-1.5
						C140.81,444.38,140.46,444.49,140.46,444.84z M142.84,470.74c0,0.46,0.22,0.51,1.5,0.44c1.06-0.08,1.5-0.23,1.5-0.54
						c0-0.54-0.71-0.57-0.91-0.05c-0.11,0.31-0.14,0.31-0.15,0c-0.01-0.2-0.21-0.38-0.42-0.38c-0.22,0-0.45,0.19-0.51,0.38
						c-0.11,0.31-0.16,0.31-0.18,0C143.65,469.97,142.84,470.12,142.84,470.74L142.84,470.74z M143.92,412.69
						c0,0.4,0.19,0.6,0.55,0.6s0.55-0.2,0.55-0.6c0-0.42-0.19-0.62-0.55-0.62C144.11,412.06,143.92,412.27,143.92,412.69z
						 M146.61,391.4c0,0.26,0.12,0.46,0.27,0.46c0.17,0,0.29-0.2,0.29-0.46c0-0.25-0.12-0.46-0.29-0.46
						C146.73,390.94,146.61,391.15,146.61,391.4z M140.46,447.45c0,0.34,0.17,0.61,0.4,0.61c0.24,0,0.42-0.26,0.42-0.61
						c0-0.34-0.19-0.62-0.42-0.62S140.46,447.11,140.46,447.45z M143.69,430.37c-0.18,0.37,0.07,0.93,0.43,0.93
						c0.13,0,0.25-0.29,0.25-0.63C144.38,430.04,143.99,429.86,143.69,430.37z M142.84,472.39c0,0.49,0.23,0.56,1.5,0.56
						c1.26,0,1.5-0.08,1.5-0.54c0-0.46-0.25-0.55-1.5-0.56C143.06,471.83,142.84,471.9,142.84,472.39L142.84,472.39z M138.86,395.96
						c0,0.59,0.13,0.63,1.42,0.54c1.11-0.08,1.46-0.22,1.54-0.63c0.06-0.47-0.14-0.54-1.44-0.54
						C139.01,395.32,138.86,395.39,138.86,395.96z M143.99,414.3c0.16,0.58,1.02,0.67,1.02,0.11c0-0.29-0.23-0.48-0.57-0.48
						C144.12,413.91,143.92,414.07,143.99,414.3z"/>
					
						<path id="path4551-4" inkscape:connector-curvature="0" sodipodi:nodetypes="sssssssssssssssssssssssssssssssssssssssssssssssssscssssssssssssssssssssssssscssssssssssscssssssssssssssssssssssssscssssssscsscssscsscssssscccsssssssssssssssssssssssssssssssss" class="st4" d="
						M252.39,528.7c0-0.21-0.18-0.37-0.41-0.37c-0.23,0-0.43,0.16-0.43,0.37s0.19,0.37,0.43,0.37
						C252.21,529.08,252.39,528.91,252.39,528.7z M250.72,528.7c0-0.21-0.19-0.37-0.42-0.37s-0.37,0.16-0.37,0.37
						s0.14,0.37,0.37,0.37C250.53,529.08,250.72,528.91,250.72,528.7z M249.28,495.66c0-0.2-0.19-0.37-0.42-0.37
						c-0.22,0-0.42,0.17-0.42,0.37c0,0.21,0.19,0.39,0.42,0.39C249.09,496.05,249.28,495.87,249.28,495.66z M247.57,560.4
						c0-0.45-1.51-2.87-1.83-2.87c-0.34,0-0.25,0.33,0.79,2.3C246.79,560.4,247.57,560.83,247.57,560.4L247.57,560.4z
						 M248.14,499.96c0-0.61-0.15-1.13-0.26-1.13c-0.17,0-0.31-0.15-0.31-0.37s-0.24-0.37-0.53-0.37s-0.53,0.16-0.53,0.37
						s-0.19,0.37-0.42,0.37c-0.34,0-0.42,0.3-0.42,1.13c0,0.85,0.08,1.13,0.42,1.13c0.29,0,0.42-0.28,0.42-1.13
						c0-0.83,0.09-1.13,0.38-1.13c0.34,0,0.42,0.3,0.42,1.13c0,0.85,0.13,1.13,0.42,1.13C248.01,501.09,248.14,500.8,248.14,499.96z
						 M245.89,544.62c0-0.28-0.37-0.37-1.52-0.37c-1.15,0-1.47,0.09-1.47,0.37c0,0.3,0.32,0.39,1.47,0.39
						C245.51,545.01,245.89,544.91,245.89,544.62z M248.35,514.79c0-0.21-0.24-0.39-0.57-0.39c-0.29,0-0.53,0.18-0.53,0.39
						c0,0.2,0.24,0.37,0.53,0.37C248.11,515.16,248.35,514.99,248.35,514.79z M246.67,514.79c0-0.21-0.24-0.39-0.53-0.39
						s-0.53,0.18-0.53,0.39c0,0.2,0.24,0.37,0.53,0.37S246.67,514.99,246.67,514.79z M249.28,494.42c0-0.51,0.12-0.61,0.98-0.69
						c1.73-0.13,1.49-0.7-0.28-0.7h-1.54v1.01c0,0.71,0.14,1,0.42,1C249.11,495.04,249.28,494.81,249.28,494.42L249.28,494.42z
						 M245.63,543.37c0-0.21-0.24-0.37-0.58-0.37c-0.29,0-0.53,0.16-0.53,0.37s0.24,0.39,0.53,0.39
						C245.38,543.76,245.63,543.58,245.63,543.37z M243.98,543.37c0-0.21-0.18-0.37-0.41-0.37c-0.23,0-0.42,0.16-0.42,0.37
						s0.19,0.39,0.42,0.39C243.8,543.76,243.98,543.58,243.98,543.37z M247.51,513.54c0-0.21-0.24-0.39-0.53-0.39
						c-0.33,0-0.57,0.18-0.57,0.39c0,0.19,0.24,0.37,0.57,0.37C247.27,513.91,247.51,513.74,247.51,513.54z M252.25,526.58
						c0.2-0.29-0.05-0.74-0.43-0.74c-0.16,0-0.25,0.23-0.25,0.49C251.56,526.86,251.97,527,252.25,526.58L252.25,526.58z
						 M250.53,526.49c-0.47,0-0.05-0.72-0.36-0.52c-0.34,0.19-0.34,0.86,0.01,0.86C250.28,526.84,250.46,526.67,250.53,526.49z
						 M248.4,557.9c0-0.21-0.19-0.37-0.42-0.37s-0.42,0.16-0.42,0.37s0.19,0.39,0.42,0.39S248.4,558.11,248.4,557.9z M248.87,521.51
						c0.23-1.4,0.08-2.03-0.43-2.03c-0.28,0-0.44,0.34-0.48,1.18c-0.06,1.19-0.08,1.2-1,1.2c-0.66,0-0.99,0.11-0.99,0.37
						c0,0.3,0.36,0.37,1.36,0.37h1.35L248.87,521.51z M250.64,537.55c0-0.49,0.11-0.62,0.69-0.62c0.43,0,0.69-0.15,0.69-0.39
						c0-0.36-0.29-0.47-1.05-0.38c-0.15,0.02-0.32-0.23-0.32-0.59c0-0.4-0.17-0.64-0.42-0.64c-0.3,0-0.42,0.35-0.42,1.62
						s0.11,1.63,0.42,1.63C250.47,538.19,250.64,537.94,250.64,537.55L250.64,537.55z M250.7,550.36c0-0.29,0.19-0.51,0.42-0.51
						c0.22,0,0.42-0.15,0.42-0.35c0-0.38-0.94-0.68-1.79-0.54c-0.28,0.06-0.7,0.1-0.89,0.11c-0.56,0.05-0.4,0.77,0.21,0.77
						c0.39,0,0.53,0.18,0.53,0.51s0.19,0.49,0.58,0.49C250.51,550.85,250.7,550.7,250.7,550.36L250.7,550.36z M246.43,535.61
						c0-0.21-0.24-0.37-0.53-0.37s-0.53,0.16-0.53,0.37s0.24,0.37,0.53,0.37C246.19,535.98,246.43,535.82,246.43,535.61z
						 M245.16,552.78c0-0.38,0.12-0.61,0.38-0.61c0.22,0,0.42-0.18,0.42-0.39s-0.19-0.37-0.36-0.37c-0.22,0-0.43-0.25-0.48-0.56
						c-0.08-0.31-0.33-0.59-0.59-0.65c-0.43-0.06-0.47,0.15-0.47,1.57c0,1.48,0.04,1.65,0.53,1.65
						C244.99,553.42,245.16,553.24,245.16,552.78L245.16,552.78z M249.93,508.34c0-0.28-0.34-0.37-1.1-0.37h-1.11v-1.25
						c0-0.96-0.08-1.25-0.42-1.25c-0.3,0-0.42,0.35-0.42,1.62v1.62h1.53C249.56,508.71,249.93,508.62,249.93,508.34L249.93,508.34z
						 M247.53,487.28c0-0.38-0.22-0.42-1.48-0.36c-1.08,0.07-1.52,0.19-1.52,0.44c0,0.44,0.71,0.46,0.91,0.05
						c0.09-0.27,0.16-0.27,0.18,0c0.01,0.16,0.2,0.3,0.37,0.3c0.22,0,0.45-0.14,0.56-0.3c0.09-0.27,0.11-0.27,0.13,0
						C246.74,487.9,247.53,487.78,247.53,487.28L247.53,487.28z M246.43,534.49c0-0.33-0.14-0.49-0.53-0.49
						c-0.38,0-0.53,0.15-0.53,0.49c0,0.33,0.14,0.49,0.53,0.49S246.43,534.82,246.43,534.49z M243.79,551.78
						c0-0.18-0.15-0.37-0.31-0.37c-0.12,0-0.27,0.16-0.27,0.37s0.15,0.39,0.27,0.39C243.64,552.17,243.79,551.99,243.79,551.78z
						 M249.93,506.21c0-0.27-0.19-0.49-0.42-0.49s-0.42,0.22-0.42,0.49c0,0.29,0.19,0.51,0.42,0.51
						C249.74,506.73,249.93,506.5,249.93,506.21z M246.66,520.09c0.2-0.28-0.05-0.74-0.4-0.74c-0.14,0-0.29,0.23-0.29,0.49
						C245.97,520.38,246.38,520.52,246.66,520.09z M247.53,485.94c0-0.41-0.23-0.46-1.48-0.46c-1.28,0-1.52,0.06-1.52,0.43
						c0,0.38,0.25,0.44,1.52,0.47C247.3,486.4,247.53,486.33,247.53,485.94z M251.54,548.09c0-0.47-0.15-0.52-1.46-0.44
						c-1.06,0.05-1.43,0.17-1.49,0.5c-0.11,0.39,0.1,0.44,1.42,0.44C251.36,548.59,251.54,548.55,251.54,548.09z M246.37,533.17
						c-0.18-0.47-1-0.53-1-0.07c0,0.23,0.23,0.38,0.54,0.38C246.28,533.48,246.42,533.35,246.37,533.17L246.37,533.17z"/>
				</g>
			</g>
			
				<path id="path4407-4" inkscape:connector-curvature="0" sodipodi:nodetypes="ssssssssssssssssssssssssssssssssssssssssssssssssssssssssss" class="st3" d="
				M96.91,570.95c0-1.15,1.28-1.48,5.55-1.48c4.24,0,5.54,0.32,5.54,1.48s-1.3,1.53-5.54,1.53
				C98.2,572.48,96.91,572.11,96.91,570.95z M191.68,571.3c0-0.86,0.9-1.53,2.02-1.53c1.13,0,2.02,0.67,2.02,1.53
				c0,0.81-0.9,1.48-2.02,1.48C192.58,572.78,191.68,572.11,191.68,571.3z M197.73,571.3c0-0.86,0.89-1.53,2.01-1.53
				s2.02,0.67,2.02,1.53c0,0.81-0.9,1.48-2.02,1.48C198.62,572.78,197.73,572.11,197.73,571.3z M97.92,565.92
				c0-0.86,0.9-1.53,2.02-1.53c1.11,0,2.01,0.67,2.01,1.53c0,0.86-0.9,1.53-2.01,1.53C98.82,567.45,97.92,566.78,97.92,565.92z
				 M103.97,565.92c0-0.85,0.68-1.53,1.51-1.53c0.84,0,1.52,0.68,1.52,1.53c0,0.85-0.68,1.53-1.52,1.53
				C104.65,567.45,103.97,566.77,103.97,565.92z M194.71,566.22c0-0.81,0.9-1.48,2.03-1.48c1.12,0,2.02,0.67,2.02,1.48
				c0,0.86-0.9,1.53-2.02,1.53C195.61,567.75,194.71,567.08,194.71,566.22z M172.8,438.78c0-1.12-0.67-2.02-1.5-2.02
				c-0.82,0-1.5-0.63-1.5-1.39c0-1.58,3.48-2.73,6.53-2.16c1.12,0.21,2.59,0.41,3.28,0.46c2.13,0.13,1.39,3.09-0.77,3.09
				c-1.33,0-2,0.67-2,2.02c0,1.35-0.68,2.01-2.03,2.01C173.47,440.79,172.8,440.13,172.8,438.78L172.8,438.78z M158.96,499.34
				c0-1.57-0.57-2.52-1.5-2.52c-0.82,0-1.5-0.68-1.5-1.52c0-0.83,0.63-1.51,1.43-1.51c0.79,0,1.59-1.02,1.77-2.26
				c0.16-1.24,1.12-2.4,2.08-2.59c1.55-0.29,1.77,0.53,1.77,6.3c0,5.94-0.21,6.62-2.02,6.62
				C159.5,501.86,158.96,501.19,158.96,499.34z M164.01,495.31c0-0.83,0.46-1.51,0.99-1.51c0.56,0,1.01,0.68,1.01,1.51
				c0,0.84-0.45,1.52-1.01,1.52C164.46,496.83,164.01,496.15,164.01,495.31z M169.78,429.63c0-1.88,0.5-2.06,5.28-1.75
				c4.06,0.25,5.35,0.74,5.6,2.09c0.3,1.51-0.47,1.77-5.26,1.77C170.39,431.73,169.78,431.51,169.78,429.63L169.78,429.63z"/>
		</g>
		<g id="g4524" transform="matrix(0.3737203,0,0,0.35380078,747.44877,102.16302)">
			<g id="g4528" transform="translate(247.6396,-202.85131)">
				<g id="g4530">
				</g>
			</g>
			<g id="g4547" transform="matrix(0.64787483,0,0,0.76902222,-1510.1324,5.2304765)">
				<g id="g4549">
					
						<path id="path4551" inkscape:connector-curvature="0" sodipodi:nodetypes="sssssssssssssssssssssssssssssssssssssssssssssssssscssssssssssssssssssssssssscssssssssssscssssssssssssssssssssssssscssssssscsscssscsscssssscccsssssssssssssssssssssssssssssssss" class="st4" d="
						M-60.91,190.83c0-0.7,0.62-1.3,1.34-1.3c0.71,0,1.25,0.6,1.25,1.3c0,0.73-0.56,1.3-1.25,1.3
						C-60.29,192.13-60.91,191.55-60.91,190.83z M-55.7,190.83c0-0.7,0.6-1.3,1.32-1.3c0.71,0,1.32,0.6,1.32,1.3
						c0,0.73-0.62,1.3-1.32,1.3C-55.1,192.13-55.7,191.55-55.7,190.83z M-51.08,75.81c0-0.71,0.62-1.3,1.35-1.3
						c0.71,0,1.27,0.58,1.27,1.3c0,0.73-0.57,1.3-1.27,1.3C-50.46,77.11-51.08,76.56-51.08,75.81z M-45.7,301.17
						c0-1.55,4.96-10.01,5.83-10.01c1.22,0,0.86,1.2-2.35,8.05C-43.16,301.18-45.7,302.66-45.7,301.17z M-47.41,90.79
						c0-2.16,0.39-3.9,0.89-3.9c0.45,0,0.84-0.6,0.84-1.3c0-0.76,0.76-1.3,1.75-1.3c0.99,0,1.75,0.55,1.75,1.3
						c0,0.7,0.57,1.3,1.28,1.3c0.96,0,1.31,1,1.31,3.9s-0.34,3.9-1.31,3.9c-0.94,0-1.28-1-1.28-3.9s-0.34-3.9-1.33-3.9
						c-0.94,0-1.26,1-1.26,3.9s-0.35,3.9-1.33,3.9C-47.1,94.69-47.41,93.69-47.41,90.79z M-40.28,246.24c0-1.01,1.11-1.3,4.78-1.3
						c3.7,0,4.82,0.3,4.82,1.3c0,1.01-1.12,1.31-4.82,1.31C-39.17,247.55-40.28,247.28-40.28,246.24z M-48.03,142.37
						c0-0.73,0.77-1.29,1.71-1.29c0.95,0,1.72,0.57,1.72,1.29c0,0.76-0.76,1.31-1.72,1.31C-47.26,143.66-48.03,143.12-48.03,142.37z
						 M-42.85,142.37c0-0.73,0.76-1.29,1.75-1.29c0.94,0,1.75,0.57,1.75,1.29c0,0.76-0.81,1.31-1.75,1.31
						C-42.08,143.66-42.85,143.12-42.85,142.37z M-51.08,71.51c0-1.82-0.44-2.16-3.18-2.38c-5.41-0.47-4.62-2.45,0.95-2.45h4.85
						v3.49c0,2.52-0.34,3.49-1.28,3.49C-50.53,73.66-51.08,72.82-51.08,71.51z M-39.37,241.91c0-0.71,0.77-1.3,1.7-1.3
						c0.98,0,1.73,0.59,1.73,1.3s-0.76,1.3-1.73,1.3C-38.6,243.2-39.37,242.62-39.37,241.91z M-34.17,241.91
						c0-0.7,0.62-1.3,1.32-1.3c0.72,0,1.27,0.6,1.27,1.3s-0.54,1.3-1.27,1.3C-33.55,243.21-34.17,242.61-34.17,241.91z
						 M-45.43,138.03c0-0.71,0.76-1.3,1.75-1.3c0.9,0,1.69,0.59,1.69,1.3c0,0.7-0.78,1.3-1.69,1.3
						C-44.67,139.33-45.43,138.74-45.43,138.03z M-60.49,183.44c-0.62-1.02,0.22-2.61,1.39-2.61c0.43,0,0.79,0.77,0.79,1.74
						C-58.32,184.4-59.53,184.93-60.49,183.44z M-55.1,183.09c1.5,0,0.21-2.43,1.29-1.73c0.93,0.59,0.92,2.97-0.06,2.97
						C-54.31,184.33-54.82,183.75-55.1,183.09L-55.1,183.09z M-48.29,292.46c0-0.7,0.6-1.3,1.3-1.3s1.29,0.61,1.29,1.3
						c0,0.73-0.59,1.3-1.29,1.3C-47.69,293.77-48.29,293.19-48.29,292.46z M-49.74,165.73c-0.73-4.82-0.31-7.06,1.36-7.06
						c0.88,0,1.33,1.19,1.54,4.14c0.28,4.1,0.32,4.14,3.26,4.14c2.1,0,2.97,0.38,2.97,1.29c0,0.98-1.05,1.3-4.3,1.3h-4.28
						L-49.74,165.73z M-55.4,221.65c0-1.75-0.42-2.2-2.18-2.2c-1.32,0-2.17-0.46-2.17-1.3c0-1.27,0.99-1.65,3.25-1.35
						c0.65,0.06,1.09-0.83,1.09-2.09c0-1.39,0.54-2.22,1.35-2.22c1.03,0,1.27,1.2,1.27,5.65c0,4.46-0.25,5.69-1.27,5.69
						C-54.86,223.84-55.4,222.99-55.4,221.65z M-55.57,266.18c0-0.97-0.61-1.74-1.33-1.74s-1.3-0.56-1.3-1.23
						c0-1.35,3.04-2.33,5.65-1.84c0.98,0.18,2.23,0.39,2.84,0.41c1.82,0.09,1.19,2.66-0.67,2.66c-1.15,0-1.74,0.59-1.74,1.73
						c0,1.17-0.55,1.75-1.7,1.75C-55.04,267.93-55.57,267.35-55.57,266.18L-55.57,266.18z M-42.06,214.88c0-0.71,0.77-1.3,1.74-1.3
						c0.99,0,1.75,0.59,1.75,1.3s-0.76,1.3-1.75,1.3C-41.28,216.18-42.06,215.59-42.06,214.88z M-37.86,274.68
						c0-1.34-0.52-2.2-1.34-2.2c-0.72,0-1.29-0.6-1.29-1.3c0-0.7,0.54-1.3,1.24-1.3c0.69,0,1.38-0.9,1.51-1.94
						c0.2-1.09,0.98-2.1,1.8-2.24c1.36-0.27,1.53,0.42,1.53,5.43c0,5.14-0.16,5.72-1.7,5.72
						C-37.41,276.86-37.86,276.28-37.86,274.68z M-53.06,119.96c0-0.94,0.94-1.33,3.46-1.33h3.49v-4.34c0-3.27,0.33-4.36,1.31-4.36
						c1.01,0,1.28,1.22,1.28,5.66v5.68h-4.77C-51.96,121.26-53.06,120.96-53.06,119.96z M-45.5,46.67c0-1.3,0.7-1.51,4.77-1.24
						c3.37,0.19,4.77,0.65,4.77,1.53c0,1.5-2.27,1.63-2.89,0.12c-0.35-0.87-0.43-0.87-0.48,0c-0.03,0.6-0.64,1.08-1.32,1.08
						c-0.69,0-1.43-0.48-1.67-1.08c-0.35-0.87-0.46-0.87-0.51,0C-42.91,48.78-45.5,48.35-45.5,46.67z M-42.06,210.98
						c0-1.19,0.61-1.78,1.74-1.78c1.15,0,1.75,0.59,1.75,1.78c0,1.12-0.61,1.71-1.75,1.71C-41.46,212.69-42.06,212.1-42.06,210.98z
						 M-33.52,271.19c0-0.7,0.39-1.3,0.84-1.3c0.48,0,0.9,0.6,0.9,1.3c0,0.7-0.42,1.3-0.9,1.3
						C-33.13,272.48-33.52,271.88-33.52,271.19z M-53.06,112.57c0-0.97,0.54-1.76,1.26-1.76c0.72,0,1.34,0.79,1.34,1.76
						s-0.62,1.72-1.34,1.72C-52.52,114.28-53.06,113.53-53.06,112.57z M-42.79,160.86c-0.62-1.01,0.22-2.6,1.39-2.6
						c0.43,0,0.79,0.75,0.79,1.71C-40.62,161.83-41.83,162.32-42.79,160.86z M-45.5,41.94c0-1.35,0.74-1.61,4.78-1.61
						c4,0,4.76,0.26,4.76,1.56c0,1.29-0.79,1.56-4.76,1.61C-44.78,43.53-45.5,43.3-45.5,41.94z M-58.22,258.3
						c0-1.64,0.47-1.79,4.56-1.54c3.53,0.24,4.64,0.64,4.86,1.83c0.23,1.29-0.42,1.5-4.56,1.5
						C-57.69,260.09-58.22,259.91-58.22,258.3L-58.22,258.3z M-41.82,206.39c0.53-1.65,3.26-1.86,3.26-0.25
						c0,0.77-0.74,1.35-1.81,1.35C-41.44,207.49-42.06,207.03-41.82,206.39z"/>
				</g>
			</g>
		</g>
		
			<path id="path4551-5" inkscape:connector-curvature="0" sodipodi:nodetypes="sssssssssssssssssssssssssssssssssssssssssscssssssscssssssssss" class="st4" d="
			M176.18,97.9c0-0.43-1.2-2.73-1.42-2.73c-0.29,0-0.2,0.32,0.58,2.19C175.57,97.9,176.18,98.29,176.18,97.9L176.18,97.9z
			 M174.87,82.95c0-0.27-0.27-0.35-1.16-0.35s-1.16,0.08-1.16,0.35s0.27,0.35,1.16,0.35C174.6,83.31,174.87,83.22,174.87,82.95z
			 M174.65,81.77c0-0.2-0.18-0.35-0.42-0.35c-0.23,0-0.41,0.16-0.41,0.35c0,0.2,0.19,0.35,0.41,0.35
			C174.47,82.12,174.65,81.97,174.65,81.77z M173.39,81.77c0-0.19-0.15-0.35-0.32-0.35c-0.17,0-0.31,0.17-0.31,0.35
			c0,0.19,0.13,0.35,0.31,0.35C173.24,82.12,173.39,81.96,173.39,81.77z M176.81,95.53c0-0.2-0.15-0.35-0.32-0.35
			c-0.17,0-0.31,0.16-0.31,0.35c0,0.19,0.13,0.35,0.31,0.35C176.66,95.88,176.81,95.72,176.81,95.53z M178.52,76.25
			c0-0.47,0.12-0.59,0.53-0.59c0.33,0,0.52-0.13,0.52-0.35c0-0.34-0.23-0.46-0.79-0.37c-0.14,0.02-0.26-0.22-0.26-0.56
			c0-0.38-0.12-0.6-0.31-0.6c-0.25,0-0.32,0.33-0.32,1.54s0.07,1.54,0.32,1.54C178.4,76.85,178.52,76.62,178.52,76.25L178.52,76.25z
			 M178.58,88.38c0-0.26,0.14-0.48,0.32-0.48c0.17,0,0.31-0.14,0.31-0.32c0-0.38-0.72-0.65-1.35-0.51
			c-0.24,0.04-0.55,0.09-0.69,0.11c-0.45,0.03-0.3,0.73,0.16,0.73c0.28,0,0.41,0.16,0.41,0.48c0,0.31,0.14,0.47,0.42,0.47
			C178.44,88.85,178.58,88.69,178.58,88.38z M174.29,90.68c0-0.37,0.12-0.59,0.32-0.59c0.17,0,0.31-0.15,0.31-0.35
			c0-0.19-0.13-0.35-0.3-0.35s-0.34-0.23-0.37-0.53c-0.05-0.29-0.24-0.56-0.44-0.61c-0.33-0.07-0.38,0.13-0.38,1.48
			c0,1.4,0.05,1.55,0.42,1.55C174.18,91.27,174.29,91.12,174.29,90.68L174.29,90.68z M173.23,89.73c0-0.19-0.1-0.35-0.2-0.35
			c-0.12,0-0.22,0.17-0.22,0.35c0,0.19,0.1,0.35,0.22,0.35C173.14,90.08,173.23,89.94,173.23,89.73z M179.2,86.22
			c0-0.44-0.1-0.48-1.09-0.41c-0.85,0.06-1.12,0.18-1.19,0.5c-0.05,0.35,0.1,0.41,1.11,0.41C179.09,86.72,179.2,86.66,179.2,86.22
			L179.2,86.22z"/>
		
			<path id="path4551-0" inkscape:connector-curvature="0" sodipodi:nodetypes="sssssssssssssssssssssssssssssssssssssssssssssssssscssssssssssssssssssssssssscssssssssssscssssssssssssssssssssssssscssssssscsscssscsscssssscccsssssssssssssssssssssssssssssssss" class="st4" d="
			M313.37,225.97c0,0.19-0.15,0.35-0.32,0.35s-0.32-0.17-0.32-0.35c0-0.21,0.15-0.35,0.32-0.35S313.37,225.76,313.37,225.97z
			 M312.11,225.97c0,0.19-0.15,0.35-0.32,0.35c-0.18,0-0.32-0.17-0.32-0.35c0-0.21,0.15-0.35,0.32-0.35
			C311.97,225.62,312.11,225.76,312.11,225.97z M310.97,257.26c0,0.19-0.15,0.35-0.32,0.35s-0.29-0.16-0.29-0.35
			s0.11-0.35,0.29-0.35C310.82,256.9,310.97,257.06,310.97,257.26z M309.68,195.93c0,0.43-1.2,2.74-1.41,2.74
			c-0.3,0-0.2-0.32,0.57-2.19C309.05,195.93,309.68,195.55,309.68,195.93L309.68,195.93z M310.09,253.19c0,0.57-0.08,1.06-0.2,1.06
			c-0.13,0-0.2,0.17-0.2,0.35c0,0.19-0.18,0.35-0.45,0.35c-0.22,0-0.41-0.16-0.41-0.35s-0.15-0.35-0.32-0.35
			c-0.22,0-0.32-0.27-0.32-1.06s0.1-1.06,0.32-1.06c0.23,0,0.32,0.27,0.32,1.06s0.06,1.06,0.32,1.06c0.22,0,0.31-0.27,0.31-1.06
			s0.07-1.06,0.3-1.06C310.02,252.13,310.09,252.4,310.09,253.19L310.09,253.19z M308.35,210.88c0,0.27-0.25,0.35-1.14,0.35
			s-1.17-0.08-1.17-0.35s0.28-0.35,1.17-0.35C308.1,210.53,308.35,210.61,308.35,210.88z M310.25,239.15c0,0.21-0.18,0.35-0.41,0.35
			c-0.26,0-0.44-0.14-0.44-0.35c0-0.19,0.18-0.35,0.44-0.35C310.07,238.79,310.25,238.95,310.25,239.15z M308.99,239.15
			c0,0.21-0.18,0.35-0.44,0.35c-0.22,0-0.41-0.14-0.41-0.35c0-0.19,0.19-0.35,0.41-0.35C308.81,238.79,308.99,238.95,308.99,239.15z
			 M310.97,258.44c0,0.5,0.13,0.58,0.79,0.66c1.29,0.1,1.11,0.63-0.26,0.63h-1.15v-0.93c0-0.69,0.06-0.97,0.29-0.97
			C310.85,257.87,310.97,258.08,310.97,258.44L310.97,258.44z M308.15,212.08c0,0.19-0.19,0.35-0.41,0.35
			c-0.26,0-0.44-0.16-0.44-0.35c0-0.2,0.18-0.35,0.44-0.35C307.96,211.72,308.15,211.87,308.15,212.08z M306.89,212.08
			c0,0.19-0.15,0.35-0.32,0.35s-0.32-0.16-0.32-0.35s0.15-0.35,0.32-0.35C306.75,211.72,306.89,211.89,306.89,212.08z M309.6,240.34
			c0,0.19-0.18,0.35-0.41,0.35c-0.22,0-0.41-0.16-0.41-0.35s0.19-0.35,0.41-0.35C309.42,239.98,309.6,240.15,309.6,240.34z
			 M313.25,227.99c0.16,0.28-0.04,0.71-0.33,0.71c-0.08,0-0.19-0.23-0.19-0.48C312.72,227.72,313.04,227.57,313.25,227.99z
			 M311.96,228.08c-0.37,0-0.05,0.65-0.31,0.47c-0.23-0.17-0.22-0.81,0-0.81C311.77,227.74,311.88,227.9,311.96,228.08
			L311.96,228.08z M310.29,198.31c0,0.2-0.11,0.35-0.29,0.35c-0.17,0-0.32-0.15-0.32-0.35c0-0.19,0.15-0.35,0.32-0.35
			C310.18,197.96,310.29,198.11,310.29,198.31z M310.64,232.8c0.18,1.31,0.1,1.92-0.31,1.92c-0.24,0-0.32-0.33-0.39-1.13
			c-0.05-1.12-0.06-1.13-0.77-1.13c-0.51,0-0.71-0.1-0.71-0.35c0-0.27,0.23-0.35,1.04-0.35h1.04L310.64,232.8z M312.02,217.59
			c0,0.46,0.12,0.59,0.53,0.59c0.33,0,0.52,0.13,0.52,0.35c0,0.33-0.22,0.45-0.77,0.37c-0.16-0.02-0.28,0.21-0.28,0.55
			c0,0.39-0.12,0.6-0.32,0.6c-0.23,0-0.29-0.33-0.29-1.53c0-1.21,0.06-1.55,0.29-1.55C311.9,216.99,312.02,217.22,312.02,217.59
			L312.02,217.59z M312.06,205.46c0,0.26,0.14,0.48,0.32,0.48c0.17,0,0.32,0.14,0.32,0.31c0,0.38-0.72,0.65-1.37,0.51
			c-0.22-0.04-0.54-0.09-0.69-0.1c-0.43-0.03-0.27-0.72,0.16-0.72c0.29,0,0.45-0.16,0.45-0.48c0-0.31,0.11-0.47,0.41-0.47
			C311.95,204.99,312.06,205.16,312.06,205.46L312.06,205.46z M308.8,219.43c0,0.19-0.18,0.35-0.44,0.35
			c-0.23,0-0.41-0.16-0.41-0.35s0.18-0.35,0.41-0.35C308.62,219.07,308.8,219.24,308.8,219.43z M307.79,203.16
			c0,0.37,0.13,0.6,0.32,0.6c0.17,0,0.32,0.15,0.32,0.35c0,0.19-0.14,0.35-0.31,0.35c-0.17,0-0.34,0.23-0.37,0.53
			c-0.02,0.29-0.26,0.55-0.45,0.61c-0.33,0.08-0.37-0.14-0.37-1.48c0-1.4,0.03-1.56,0.45-1.56
			C307.66,202.56,307.79,202.73,307.79,203.16L307.79,203.16z M311.47,245.26c0,0.26-0.23,0.35-0.85,0.35h-0.85v1.19
			c0,0.89-0.06,1.18-0.29,1.18c-0.27,0-0.32-0.33-0.32-1.53v-1.55h1.14C311.18,244.9,311.47,244.98,311.47,245.26L311.47,245.26z
			 M309.64,265.18c0,0.39-0.16,0.43-1.16,0.34c-0.83-0.05-1.17-0.18-1.17-0.4c0-0.4,0.55-0.42,0.71-0.03c0.1,0.23,0.12,0.23,0.14,0
			c0.02-0.16,0.16-0.3,0.33-0.3c0.17,0,0.35,0.14,0.39,0.3c0.1,0.23,0.12,0.23,0.14,0C309.01,264.61,309.64,264.74,309.64,265.18
			L309.64,265.18z M308.8,220.49c0,0.32-0.14,0.46-0.44,0.46c-0.26,0-0.41-0.14-0.41-0.46s0.15-0.46,0.41-0.46
			C308.66,220.03,308.8,220.17,308.8,220.49z M306.74,204.11c0,0.19-0.11,0.35-0.2,0.35c-0.13,0-0.2-0.16-0.2-0.35
			s0.08-0.35,0.2-0.35C306.62,203.76,306.74,203.91,306.74,204.11z M311.47,247.27c0,0.26-0.15,0.46-0.32,0.46
			c-0.18,0-0.33-0.2-0.33-0.46c0-0.26,0.15-0.46,0.33-0.46C311.32,246.8,311.47,247,311.47,247.27z M308.98,234.13
			c0.16,0.28-0.07,0.71-0.33,0.71c-0.12,0-0.19-0.22-0.19-0.47C308.45,233.86,308.74,233.72,308.98,234.13z M309.64,266.49
			c0,0.37-0.16,0.42-1.16,0.42c-0.99,0-1.17-0.06-1.17-0.4s0.19-0.41,1.17-0.45C309.48,266.03,309.64,266.12,309.64,266.49z
			 M312.71,207.62c0,0.44-0.1,0.47-1.09,0.42c-0.85-0.07-1.15-0.18-1.19-0.5c-0.05-0.35,0.12-0.42,1.09-0.42
			C312.57,207.12,312.71,207.18,312.71,207.62L312.71,207.62z M308.73,221.73c-0.1,0.45-0.77,0.51-0.77,0.08
			c0-0.21,0.18-0.37,0.43-0.37C308.65,221.44,308.8,221.55,308.73,221.73z"/>
		
			<path id="path4551-2" inkscape:connector-curvature="0" sodipodi:nodetypes="sssssssssssssssssssssssssssssssssssssssssssssssssscssssssssssssssssssssssssscssssssssssscssssssssssssssssssssssssscssssssscsscssscssssssssssssssssssssssssssssss" class="st4" d="
			M251.6,228.29c0-0.19,0.13-0.35,0.31-0.35c0.17,0,0.32,0.16,0.32,0.35s-0.15,0.35-0.32,0.35
			C251.74,228.64,251.6,228.48,251.6,228.29z M252.86,228.29c0-0.19,0.15-0.35,0.32-0.35c0.18,0,0.31,0.16,0.31,0.35
			s-0.13,0.35-0.31,0.35C253.01,228.64,252.86,228.48,252.86,228.29z M253.98,199.04c0-0.19,0.15-0.35,0.32-0.35
			c0.17,0,0.3,0.17,0.3,0.35c0,0.19-0.13,0.35-0.3,0.35C254.14,199.4,253.98,199.24,253.98,199.04z M255.29,258.31
			c0-0.41,1.2-2.73,1.41-2.73c0.3,0,0.19,0.32-0.59,2.19C255.9,258.31,255.29,258.7,255.29,258.31L255.29,258.31z M254.87,201.07
			c0-0.59,0.09-1.06,0.2-1.06c0.13,0,0.22-0.16,0.22-0.35c0-0.21,0.18-0.35,0.43-0.35c0.22,0,0.43,0.15,0.43,0.35
			c0,0.19,0.13,0.35,0.3,0.35c0.24,0,0.31,0.27,0.31,1.06s-0.06,1.06-0.31,1.06c-0.24,0-0.3-0.27-0.3-1.06s-0.08-1.06-0.32-1.06
			s-0.32,0.27-0.32,1.06s-0.08,1.06-0.3,1.06C254.95,202.13,254.87,201.86,254.87,201.07L254.87,201.07z M256.59,243.36
			c0-0.27,0.28-0.35,1.17-0.35s1.17,0.08,1.17,0.35c0,0.29-0.29,0.37-1.17,0.37C256.87,243.73,256.59,243.65,256.59,243.36z
			 M254.7,215.1c0-0.2,0.18-0.36,0.43-0.36c0.24,0,0.43,0.16,0.43,0.36c0,0.21-0.18,0.36-0.43,0.36
			C254.89,215.46,254.7,215.31,254.7,215.1z M255.98,215.1c0-0.2,0.18-0.36,0.43-0.36c0.24,0,0.43,0.16,0.43,0.36
			c0,0.21-0.18,0.36-0.43,0.36S255.98,215.31,255.98,215.1z M253.98,197.87c0-0.49-0.11-0.58-0.77-0.65
			c-1.31-0.12-0.79,0.23,0.24-0.67h1.17v0.95c0,0.69-0.09,0.95-0.31,0.95C254.1,198.45,253.98,198.24,253.98,197.87z M256.82,242.19
			c0-0.19,0.19-0.35,0.41-0.35c0.23,0,0.41,0.16,0.41,0.35s-0.19,0.35-0.41,0.35S256.82,242.38,256.82,242.19z M258.08,242.19
			c0-0.19,0.15-0.35,0.32-0.35s0.29,0.16,0.29,0.35s-0.11,0.35-0.29,0.35C258.23,242.54,258.08,242.38,258.08,242.19z
			 M255.33,213.92c0-0.19,0.2-0.35,0.43-0.35c0.24,0,0.42,0.16,0.42,0.35s-0.18,0.35-0.42,0.35
			C255.54,214.28,255.33,214.12,255.33,213.92z M251.71,226.28c-0.16-0.28,0.04-0.71,0.33-0.71c0.1,0,0.19,0.22,0.19,0.47
			C252.23,226.54,251.92,226.68,251.71,226.28z M253.01,226.18c0.37,0,0.03-0.65,0.29-0.47c0.25,0.17,0.24,0.8,0,0.8
			C253.2,226.52,253.08,226.36,253.01,226.18z M254.66,255.94c0-0.19,0.13-0.35,0.3-0.35s0.32,0.17,0.32,0.35
			c0,0.2-0.15,0.35-0.32,0.35C254.79,256.3,254.66,256.15,254.66,255.94z M254.31,221.46c-0.18-1.31-0.07-1.92,0.32-1.92
			c0.23,0,0.34,0.33,0.39,1.13c0.05,1.12,0.08,1.13,0.79,1.13c0.49,0,0.72,0.1,0.72,0.35c0,0.27-0.26,0.35-1.04,0.35h-1.04
			L254.31,221.46z M252.94,236.68c0-0.46-0.1-0.59-0.52-0.59c-0.33,0-0.53-0.12-0.53-0.35c0-0.35,0.24-0.45,0.79-0.37
			c0.15,0.02,0.26-0.23,0.26-0.55c0-0.39,0.11-0.6,0.32-0.6c0.23,0,0.3,0.31,0.3,1.53c0,1.21-0.08,1.55-0.3,1.55
			C253.05,237.27,252.94,237.04,252.94,236.68L252.94,236.68z M252.88,248.8c0-0.27-0.13-0.48-0.31-0.48
			c-0.17,0-0.32-0.16-0.32-0.33c0-0.37,0.74-0.63,1.38-0.49c0.22,0.04,0.54,0.1,0.69,0.1c0.44,0.03,0.29,0.72-0.16,0.72
			c-0.28,0-0.43,0.16-0.43,0.48c0,0.3-0.15,0.46-0.43,0.46C253.02,249.27,252.88,249.11,252.88,248.8L252.88,248.8z M256.17,234.83
			c0-0.19,0.18-0.35,0.41-0.35c0.25,0,0.44,0.16,0.44,0.35s-0.19,0.35-0.44,0.35C256.35,235.19,256.17,235.03,256.17,234.83z
			 M257.18,251.1c0-0.37-0.13-0.59-0.32-0.59c-0.17,0-0.32-0.17-0.32-0.35c0-0.19,0.14-0.35,0.31-0.35c0.17,0,0.34-0.24,0.37-0.53
			c0.02-0.29,0.22-0.56,0.42-0.61c0.33-0.07,0.4,0.12,0.4,1.48c0,1.4-0.07,1.56-0.44,1.56C257.27,251.7,257.18,251.54,257.18,251.1
			L257.18,251.1z M253.49,209.01c0-0.26,0.24-0.35,0.85-0.35h0.85v-1.2c0-0.89,0.08-1.19,0.3-1.19c0.25,0,0.32,0.33,0.32,1.54v1.54
			h-1.15C253.76,209.36,253.49,209.28,253.49,209.01z M256.17,233.77c0-0.32,0.13-0.48,0.41-0.48c0.29,0,0.44,0.16,0.44,0.48
			c0,0.3-0.15,0.46-0.44,0.46C256.31,234.24,256.17,234.07,256.17,233.77z M258.24,250.15c0-0.19,0.07-0.35,0.2-0.35
			s0.2,0.16,0.2,0.35s-0.08,0.35-0.2,0.35C258.31,250.5,258.24,250.34,258.24,250.15z M253.49,206.99c0-0.26,0.15-0.48,0.32-0.48
			c0.18,0,0.33,0.22,0.33,0.48s-0.15,0.46-0.33,0.46C253.64,207.46,253.49,207.26,253.49,206.99z M255.99,220.13
			c-0.16-0.28,0.04-0.71,0.33-0.71c0.1,0,0.19,0.21,0.19,0.46C256.52,220.4,256.2,220.53,255.99,220.13z M252.25,246.65
			c0-0.45,0.1-0.49,1.11-0.42c0.84,0.07,1.12,0.18,1.17,0.5c0.07,0.35-0.1,0.42-1.09,0.42
			C252.39,247.14,252.25,247.09,252.25,246.65L252.25,246.65z M256.23,232.53c0.12-0.47,0.79-0.51,0.79-0.08
			c0,0.21-0.18,0.37-0.45,0.37C256.32,232.82,256.17,232.7,256.23,232.53L256.23,232.53z"/>
		
			<path id="path4551-74" inkscape:connector-curvature="0" sodipodi:nodetypes="sssssssssssssssssssssssssssssssssssssssssssssssssscssssssssssssssssssssssssscssssssssssscssssssssssssssssssssssssscssssssscsscssscsscssssscccsssssssssssssssssssssssssssssssss" class="st4" d="
			M213.01,231.86c0,0.2,0.13,0.37,0.3,0.37s0.32-0.17,0.32-0.37s-0.15-0.37-0.32-0.37C213.14,231.49,213.01,231.66,213.01,231.86z
			 M214.27,231.86c0,0.2,0.15,0.37,0.32,0.37c0.17,0,0.31-0.17,0.31-0.37s-0.13-0.37-0.31-0.37
			C214.41,231.49,214.27,231.66,214.27,231.86z M215.39,265.29c0,0.2,0.14,0.38,0.31,0.38s0.32-0.17,0.32-0.38
			c0-0.2-0.15-0.37-0.32-0.37C215.53,264.92,215.39,265.09,215.39,265.29z M216.69,199.78c0,0.46,1.18,2.93,1.41,2.93
			c0.28,0,0.19-0.34-0.59-2.34C217.31,199.78,216.69,199.36,216.69,199.78L216.69,199.78z M216.27,260.93c0,0.64,0.09,1.16,0.2,1.16
			c0.13,0,0.22,0.17,0.22,0.37s0.18,0.37,0.42,0.37c0.23,0,0.41-0.17,0.41-0.37c0-0.2,0.15-0.37,0.33-0.37
			c0.24,0,0.32-0.31,0.32-1.16s-0.08-1.12-0.32-1.12s-0.33,0.27-0.33,1.12s-0.08,1.16-0.3,1.16c-0.24,0-0.32-0.31-0.32-1.16
			s-0.08-1.12-0.31-1.12C216.35,259.81,216.27,260.09,216.27,260.93L216.27,260.93z M218.01,215.76c0,0.29,0.27,0.38,1.16,0.38
			c0.88,0,1.15-0.08,1.15-0.38c0-0.28-0.27-0.38-1.15-0.38C218.27,215.38,218.01,215.46,218.01,215.76z M216.11,245.95
			c0,0.2,0.18,0.37,0.42,0.37s0.43-0.17,0.43-0.37s-0.18-0.37-0.43-0.37C216.29,245.57,216.11,245.75,216.11,245.95z M217.38,245.95
			c0,0.2,0.19,0.37,0.41,0.37c0.24,0,0.43-0.17,0.43-0.37s-0.18-0.37-0.43-0.37C217.57,245.57,217.38,245.75,217.38,245.95z
			 M215.39,266.53c0,0.52-0.11,0.64-0.77,0.7c-1.31,0.14-1.13,0.71,0.24,0.71h1.17v-1.02c0-0.72-0.08-0.98-0.32-0.98
			C215.5,265.94,215.39,266.16,215.39,266.53L215.39,266.53z M218.21,217.01c0,0.22,0.18,0.39,0.43,0.39c0.24,0,0.43-0.17,0.43-0.39
			c0-0.21-0.18-0.38-0.43-0.38C218.39,216.64,218.21,216.81,218.21,217.01z M219.48,217.01c0,0.22,0.14,0.39,0.31,0.39
			s0.32-0.17,0.32-0.39c0-0.2-0.15-0.38-0.32-0.38C219.62,216.64,219.48,216.81,219.48,217.01z M216.74,247.2
			c0,0.22,0.18,0.39,0.43,0.39c0.24,0,0.43-0.17,0.43-0.39c0-0.2-0.18-0.38-0.43-0.38C216.92,246.83,216.74,247,216.74,247.2z
			 M213.11,234.02c-0.16,0.29,0.04,0.75,0.32,0.75c0.12,0,0.2-0.22,0.2-0.51C213.64,233.72,213.32,233.59,213.11,234.02z
			 M214.41,234.12c0.37,0,0.04,0.7,0.3,0.51c0.25-0.19,0.24-0.86,0-0.86C214.61,233.77,214.46,233.91,214.41,234.12L214.41,234.12z
			 M216.04,202.31c0,0.22,0.15,0.39,0.32,0.39c0.17,0,0.32-0.17,0.32-0.39c0-0.2-0.15-0.37-0.32-0.37
			C216.2,201.94,216.04,202.11,216.04,202.31z M215.69,239.15c-0.18,1.4-0.06,2.06,0.33,2.06c0.24,0,0.34-0.35,0.37-1.21
			c0.07-1.19,0.08-1.2,0.79-1.2c0.5,0,0.73-0.11,0.73-0.38c0-0.28-0.26-0.37-1.04-0.37h-1.04L215.69,239.15z M214.34,222.91
			c0,0.49-0.1,0.63-0.53,0.63c-0.33,0-0.53,0.14-0.53,0.37c0,0.36,0.24,0.49,0.79,0.41c0.15-0.04,0.26,0.22,0.26,0.6
			c0,0.39,0.11,0.64,0.31,0.64c0.24,0,0.32-0.35,0.32-1.64c0-1.3-0.08-1.64-0.32-1.64C214.46,222.27,214.34,222.51,214.34,222.91
			L214.34,222.91z M214.28,209.97c0,0.28-0.13,0.49-0.3,0.49s-0.33,0.16-0.33,0.35c0,0.41,0.72,0.69,1.37,0.56
			c0.22-0.06,0.54-0.11,0.67-0.13c0.46-0.03,0.3-0.77-0.15-0.77c-0.29,0-0.43-0.16-0.43-0.5s-0.15-0.51-0.43-0.51
			C214.43,209.46,214.28,209.62,214.28,209.97L214.28,209.97z M217.57,224.87c0,0.2,0.18,0.37,0.43,0.37c0.23,0,0.41-0.15,0.41-0.37
			c0-0.21-0.18-0.37-0.41-0.37C217.76,224.5,217.57,224.67,217.57,224.87z M218.57,207.49c0,0.4-0.11,0.64-0.31,0.64
			c-0.17,0-0.32,0.17-0.32,0.37c0,0.21,0.14,0.38,0.29,0.38c0.17,0,0.34,0.25,0.38,0.57c0.03,0.31,0.22,0.61,0.44,0.64
			c0.31,0.08,0.37-0.12,0.37-1.58c0-1.49-0.05-1.66-0.43-1.66C218.7,206.86,218.57,207.03,218.57,207.49z M214.89,252.47
			c0,0.27,0.24,0.38,0.85,0.38h0.83v1.26c0,0.96,0.08,1.28,0.32,1.28c0.25,0,0.32-0.35,0.32-1.65v-1.65h-1.17
			C215.16,252.08,214.89,252.17,214.89,252.47L214.89,252.47z M216.73,273.76c0,0.4,0.17,0.44,1.16,0.38
			c0.83-0.09,1.17-0.22,1.17-0.47c0-0.46-0.57-0.48-0.7-0.03c-0.08,0.23-0.12,0.23-0.14,0c-0.01-0.18-0.15-0.32-0.3-0.32
			c-0.17,0-0.35,0.15-0.41,0.32c-0.08,0.23-0.1,0.23-0.12,0C217.35,273.15,216.73,273.29,216.73,273.76L216.73,273.76z
			 M217.57,226.01c0,0.34,0.13,0.51,0.43,0.51c0.28,0,0.41-0.17,0.41-0.51s-0.13-0.51-0.41-0.51
			C217.7,225.5,217.57,225.67,217.57,226.01z M219.62,208.51c0,0.2,0.09,0.37,0.22,0.37c0.11,0,0.2-0.17,0.2-0.37
			s-0.09-0.37-0.2-0.37C219.72,208.14,219.62,208.3,219.62,208.51z M214.89,254.62c0,0.28,0.15,0.51,0.32,0.51s0.31-0.23,0.31-0.51
			s-0.13-0.51-0.31-0.51C215.04,254.11,214.89,254.34,214.89,254.62z M217.4,240.58c-0.16,0.29,0.04,0.75,0.32,0.75
			c0.11,0,0.2-0.22,0.2-0.51C217.93,240.29,217.61,240.16,217.4,240.58L217.4,240.58z M216.73,275.13c0,0.42,0.17,0.47,1.16,0.47
			c0.98,0,1.17-0.09,1.17-0.47c0-0.37-0.21-0.43-1.17-0.44C216.89,274.69,216.73,274.74,216.73,275.13z M213.65,212.26
			c0,0.47,0.1,0.52,1.11,0.44c0.83-0.07,1.11-0.18,1.17-0.53c0.07-0.37-0.1-0.44-1.11-0.44
			C213.78,211.73,213.65,211.79,213.65,212.26z M217.61,227.33c0.14,0.49,0.79,0.56,0.79,0.08c0-0.24-0.18-0.39-0.44-0.39
			C217.71,227.03,217.57,227.15,217.61,227.33L217.61,227.33z"/>
		
			<path id="path4551-53" inkscape:connector-curvature="0" sodipodi:nodetypes="sssssssssssssssssssssssssssssssssssssssssssssssssscssssssssssssssssssssssssscssssssssssscssssssssssssssssssssssssscssssssscsscssscsscssssscccsssssssssssssssssssssssssssssssss" class="st4" d="
			M221.35,165.46c0,0.17-0.15,0.3-0.32,0.3c-0.17,0-0.3-0.13-0.3-0.3s0.13-0.29,0.3-0.29C221.19,165.18,221.35,165.3,221.35,165.46z
			 M220.07,165.46c0,0.17-0.13,0.3-0.3,0.3s-0.32-0.13-0.32-0.3s0.15-0.29,0.32-0.29C219.94,165.18,220.07,165.3,220.07,165.46z
			 M218.96,191.81c0,0.17-0.15,0.31-0.32,0.31c-0.17,0-0.32-0.14-0.32-0.31s0.15-0.29,0.32-0.29S218.96,191.64,218.96,191.81z
			 M217.66,140.19c0,0.36-1.2,2.3-1.41,2.3c-0.3,0-0.21-0.27,0.57-1.85C217.05,140.19,217.66,139.85,217.66,140.19L217.66,140.19z
			 M218.07,188.39c0,0.5-0.1,0.89-0.21,0.89s-0.2,0.14-0.2,0.31s-0.18,0.29-0.43,0.29c-0.24,0-0.43-0.12-0.43-0.29
			s-0.15-0.31-0.32-0.31c-0.23,0-0.3-0.22-0.3-0.89c0-0.66,0.08-0.89,0.3-0.89c0.24,0,0.32,0.23,0.32,0.89
			c0,0.67,0.08,0.89,0.32,0.89c0.22,0,0.3-0.22,0.3-0.89c0-0.66,0.08-0.89,0.32-0.89C218,187.49,218.07,187.72,218.07,188.39
			L218.07,188.39z M216.35,152.77c0,0.24-0.27,0.3-1.17,0.3c-0.89,0-1.16-0.06-1.16-0.3c0-0.23,0.27-0.3,1.16-0.3
			C216.08,152.47,216.35,152.55,216.35,152.77z M218.23,176.57c0,0.17-0.18,0.3-0.42,0.3c-0.23,0-0.41-0.13-0.41-0.3
			s0.18-0.29,0.41-0.29C218.04,176.28,218.23,176.4,218.23,176.57z M216.97,176.57c0,0.17-0.18,0.3-0.43,0.3
			c-0.24,0-0.43-0.13-0.43-0.3s0.18-0.29,0.43-0.29C216.79,176.28,216.97,176.4,216.97,176.57z M218.96,192.8
			c0,0.42,0.11,0.49,0.76,0.56c1.31,0.1,1.13,0.55-0.22,0.55h-1.19v-0.8c0-0.58,0.09-0.8,0.32-0.8
			C218.83,192.31,218.96,192.5,218.96,192.8L218.96,192.8z M216.12,153.77c0,0.16-0.18,0.31-0.42,0.31c-0.23,0-0.41-0.14-0.41-0.31
			s0.18-0.3,0.41-0.3C215.94,153.47,216.12,153.6,216.12,153.77z M214.87,153.77c0,0.16-0.15,0.31-0.32,0.31
			c-0.17,0-0.31-0.14-0.31-0.31s0.13-0.3,0.31-0.3C214.72,153.47,214.87,153.61,214.87,153.77z M217.6,177.56
			c0,0.17-0.18,0.31-0.43,0.31c-0.22,0-0.43-0.14-0.43-0.31c0-0.16,0.2-0.29,0.43-0.29C217.41,177.27,217.6,177.4,217.6,177.56z
			 M221.24,167.16c0.14,0.24-0.06,0.59-0.33,0.59c-0.11,0-0.19-0.18-0.19-0.39C220.72,166.94,221.01,166.82,221.24,167.16z
			 M219.94,167.24c-0.37,0-0.05,0.56-0.31,0.41c-0.23-0.14-0.22-0.69,0-0.69C219.74,166.96,219.87,167.1,219.94,167.24z
			 M218.29,142.19c0,0.17-0.15,0.3-0.32,0.3c-0.17,0-0.3-0.13-0.3-0.3s0.13-0.3,0.3-0.3C218.14,141.89,218.29,142.02,218.29,142.19z
			 M218.64,171.22c0.18,1.1,0.08,1.61-0.33,1.61c-0.22,0-0.34-0.27-0.37-0.94c-0.07-0.93-0.08-0.94-0.79-0.94
			c-0.51,0-0.72-0.1-0.72-0.31c0-0.22,0.26-0.29,1.04-0.29h1.03L218.64,171.22z M220.01,158.41c0,0.4,0.1,0.5,0.53,0.5
			c0.31,0,0.52,0.12,0.52,0.31c0,0.29-0.24,0.38-0.79,0.31c-0.16-0.01-0.26,0.18-0.26,0.49c0,0.3-0.13,0.5-0.32,0.5
			c-0.25,0-0.32-0.28-0.32-1.29c0-1.02,0.07-1.3,0.32-1.3C219.88,157.92,220.01,158.1,220.01,158.41z M220.05,148.21
			c0,0.22,0.15,0.4,0.32,0.4c0.17,0,0.31,0.13,0.31,0.28c0,0.31-0.72,0.55-1.36,0.42c-0.24-0.04-0.54-0.08-0.69-0.09
			c-0.44-0.03-0.29-0.61,0.16-0.61c0.27,0,0.43-0.13,0.43-0.39c0-0.27,0.13-0.4,0.41-0.4C219.93,147.81,220.05,147.95,220.05,148.21
			L220.05,148.21z M216.78,159.96c0,0.17-0.18,0.31-0.43,0.31c-0.24,0-0.43-0.14-0.43-0.31s0.18-0.29,0.43-0.29
			C216.6,159.67,216.78,159.79,216.78,159.96z M215.76,146.27c0,0.3,0.12,0.49,0.32,0.49c0.17,0,0.3,0.14,0.3,0.31
			s-0.12,0.29-0.29,0.29s-0.34,0.2-0.37,0.45c-0.05,0.25-0.24,0.48-0.44,0.51c-0.33,0.07-0.38-0.1-0.38-1.24
			c0-1.18,0.04-1.31,0.42-1.31C215.66,145.77,215.76,145.9,215.76,146.27L215.76,146.27z M219.44,181.71c0,0.21-0.24,0.29-0.83,0.29
			h-0.85v1.01c0,0.74-0.08,0.99-0.32,0.99c-0.23,0-0.31-0.28-0.31-1.3v-1.3h1.16C219.17,181.4,219.44,181.48,219.44,181.71
			L219.44,181.71z M217.61,198.51c0,0.29-0.17,0.33-1.15,0.28c-0.81-0.06-1.16-0.15-1.16-0.35c0-0.35,0.55-0.37,0.7-0.03
			c0.09,0.2,0.1,0.2,0.12,0c0.01-0.14,0.15-0.24,0.32-0.24c0.17,0,0.35,0.11,0.39,0.24c0.09,0.2,0.12,0.2,0.14,0
			C216.99,198.01,217.61,198.11,217.61,198.51L217.61,198.51z M216.78,160.86c0,0.27-0.15,0.4-0.43,0.4s-0.43-0.14-0.43-0.4
			s0.15-0.39,0.43-0.39C216.63,160.46,216.78,160.59,216.78,160.86z M214.71,147.07c0,0.17-0.1,0.29-0.2,0.29
			c-0.13,0-0.22-0.13-0.22-0.29c0-0.17,0.1-0.31,0.22-0.31C214.62,146.76,214.71,146.9,214.71,147.07z M219.44,183.4
			c0,0.23-0.13,0.41-0.3,0.41c-0.19,0-0.32-0.18-0.32-0.41c0-0.21,0.14-0.39,0.32-0.39C219.31,183.01,219.44,183.18,219.44,183.4z
			 M216.96,172.34c0.15,0.23-0.06,0.59-0.33,0.59c-0.1,0-0.19-0.18-0.19-0.39C216.43,172.11,216.73,172,216.96,172.34z
			 M217.61,199.58c0,0.31-0.17,0.36-1.15,0.36c-0.97,0-1.16-0.06-1.16-0.35c0-0.29,0.19-0.35,1.16-0.36
			C217.44,199.22,217.61,199.26,217.61,199.58z M220.68,150.02c0,0.38-0.1,0.41-1.09,0.35c-0.85-0.05-1.13-0.14-1.19-0.4
			c-0.05-0.3,0.1-0.35,1.11-0.35C220.56,149.61,220.68,149.64,220.68,150.02z M216.72,161.9c-0.12,0.39-0.79,0.43-0.79,0.06
			c0-0.18,0.18-0.31,0.44-0.31C216.63,161.66,216.78,161.77,216.72,161.9z"/>
		
			<path id="path4551-03" inkscape:connector-curvature="0" sodipodi:nodetypes="sssssssssssssssssssssssssssssssssssssssssssssssssscssssssssssssssssssssssssscssssssssssscssssssssssssssssssssssssscssssssscsscssscsscssssscccsssssssssssssssssssssssssssssssss" class="st4" d="
			M224.76,172.56c0-0.19,0.15-0.35,0.32-0.35c0.16,0,0.3,0.16,0.3,0.35c0,0.2-0.14,0.35-0.3,0.35
			C224.91,172.92,224.76,172.76,224.76,172.56z M226.02,172.56c0-0.19,0.15-0.35,0.32-0.35c0.17,0,0.32,0.16,0.32,0.35
			c0,0.2-0.15,0.35-0.32,0.35C226.16,172.92,226.02,172.76,226.02,172.56z M227.14,141.28c0-0.19,0.15-0.36,0.32-0.36
			c0.18,0,0.31,0.16,0.31,0.36s-0.13,0.35-0.31,0.35C227.29,141.63,227.14,141.47,227.14,141.28z M228.45,202.59
			c0-0.42,1.2-2.73,1.41-2.73c0.29,0,0.21,0.32-0.57,2.19C229.06,202.59,228.45,202.99,228.45,202.59L228.45,202.59z M228.02,145.35
			c0-0.59,0.09-1.06,0.22-1.06c0.11,0,0.2-0.16,0.2-0.35c0-0.2,0.18-0.35,0.43-0.35c0.24,0,0.43,0.15,0.43,0.35
			c0,0.19,0.13,0.35,0.31,0.35c0.24,0,0.32,0.27,0.32,1.06s-0.08,1.07-0.32,1.07c-0.23,0-0.31-0.27-0.31-1.07
			c0-0.79-0.08-1.06-0.32-1.06s-0.31,0.27-0.31,1.06s-0.08,1.07-0.32,1.07S228.02,146.13,228.02,145.35L228.02,145.35z
			 M229.76,187.65c0-0.28,0.27-0.36,1.15-0.36c0.89,0,1.17,0.08,1.17,0.36c0,0.27-0.28,0.35-1.17,0.35
			C230.03,188.01,229.76,187.92,229.76,187.65z M227.87,159.38c0-0.2,0.2-0.35,0.42-0.35c0.24,0,0.43,0.15,0.43,0.35
			c0,0.21-0.18,0.36-0.43,0.36C228.06,159.73,227.87,159.58,227.87,159.38z M229.13,159.38c0-0.2,0.19-0.35,0.43-0.35
			c0.23,0,0.43,0.15,0.43,0.35c0,0.21-0.2,0.36-0.43,0.36C229.32,159.73,229.13,159.58,229.13,159.38z M227.14,140.1
			c0-0.49-0.11-0.59-0.77-0.64c-1.31-0.13-1.12-0.67,0.24-0.67h1.17v0.95c0,0.69-0.08,0.95-0.31,0.95
			C227.28,140.69,227.14,140.46,227.14,140.1z M229.98,186.46c0-0.19,0.19-0.35,0.41-0.35c0.24,0,0.43,0.16,0.43,0.35
			s-0.18,0.35-0.43,0.35C230.16,186.81,229.98,186.65,229.98,186.46z M231.24,186.46c0-0.19,0.15-0.35,0.32-0.35
			c0.17,0,0.3,0.17,0.3,0.35c0,0.19-0.13,0.35-0.3,0.35C231.38,186.81,231.24,186.65,231.24,186.46z M228.51,158.2
			c0-0.19,0.19-0.35,0.43-0.35c0.23,0,0.41,0.16,0.41,0.35s-0.18,0.35-0.41,0.35C228.69,158.55,228.51,158.39,228.51,158.2z
			 M224.86,170.55c-0.16-0.28,0.06-0.71,0.33-0.71c0.1,0,0.19,0.22,0.19,0.47C225.39,170.81,225.09,170.96,224.86,170.55z
			 M226.17,170.46c0.37,0,0.05-0.65,0.31-0.47c0.23,0.17,0.23,0.8-0.02,0.8C226.36,170.79,226.23,170.64,226.17,170.46z
			 M227.82,200.21c0-0.19,0.14-0.35,0.3-0.35c0.18,0,0.32,0.16,0.32,0.35c0,0.2-0.15,0.35-0.32,0.35
			C227.96,200.57,227.82,200.43,227.82,200.21z M227.46,165.74c-0.18-1.32-0.08-1.92,0.33-1.92c0.21,0,0.32,0.33,0.37,1.13
			c0.07,1.12,0.08,1.13,0.79,1.13c0.51,0,0.72,0.1,0.72,0.35c0,0.27-0.26,0.35-1.04,0.35h-1.04L227.46,165.74z M226.09,180.95
			c0-0.46-0.1-0.6-0.52-0.6c-0.32,0-0.53-0.12-0.53-0.35c0-0.35,0.24-0.45,0.79-0.37c0.15,0.02,0.26-0.22,0.26-0.57
			c0-0.38,0.13-0.59,0.32-0.59c0.25,0,0.31,0.32,0.31,1.53c0,1.21-0.06,1.54-0.31,1.54C226.22,181.55,226.09,181.31,226.09,180.95
			L226.09,180.95z M226.05,193.07c0-0.27-0.15-0.48-0.33-0.48c-0.17,0-0.32-0.15-0.32-0.33c0-0.37,0.74-0.64,1.37-0.5
			c0.24,0.04,0.54,0.1,0.69,0.1c0.44,0.03,0.29,0.72-0.16,0.72c-0.28,0-0.43,0.16-0.43,0.49c0,0.3-0.13,0.46-0.43,0.46
			C226.17,193.54,226.05,193.38,226.05,193.07L226.05,193.07z M229.33,179.11c0-0.19,0.18-0.35,0.43-0.35s0.43,0.16,0.43,0.35
			s-0.18,0.35-0.43,0.35C229.51,179.46,229.33,179.3,229.33,179.11z M230.34,195.38c0-0.37-0.13-0.6-0.32-0.6
			c-0.17,0-0.32-0.16-0.32-0.35s0.14-0.35,0.31-0.35s0.34-0.24,0.37-0.53c0.04-0.29,0.24-0.55,0.44-0.61
			c0.33-0.07,0.37,0.13,0.37,1.48c0,1.4-0.03,1.56-0.43,1.56C230.45,195.97,230.34,195.81,230.34,195.38L230.34,195.38z
			 M226.66,153.28c0-0.26,0.23-0.35,0.83-0.35h0.85v-1.19c0-0.89,0.08-1.18,0.3-1.18c0.25,0,0.32,0.33,0.32,1.53v1.55h-1.15
			C226.93,153.63,226.66,153.55,226.66,153.28L226.66,153.28z M228.5,133.34c0-0.35,0.15-0.41,1.15-0.34
			c0.81,0.06,1.15,0.18,1.15,0.42c0,0.41-0.55,0.44-0.7,0.03c-0.09-0.24-0.1-0.24-0.12,0c-0.03,0.16-0.15,0.29-0.32,0.29
			c-0.17,0-0.35-0.13-0.41-0.29c-0.08-0.24-0.1-0.24-0.12,0C229.12,133.91,228.5,133.8,228.5,133.34L228.5,133.34z M229.33,178.04
			c0-0.32,0.15-0.48,0.43-0.48s0.43,0.15,0.43,0.48c0,0.31-0.15,0.46-0.43,0.46C229.47,178.51,229.33,178.36,229.33,178.04z
			 M231.39,194.43c0-0.19,0.09-0.35,0.2-0.35s0.2,0.16,0.2,0.35s-0.1,0.35-0.2,0.35C231.49,194.78,231.39,194.62,231.39,194.43z
			 M226.66,151.27c0-0.26,0.13-0.48,0.31-0.48s0.32,0.21,0.32,0.48c0,0.26-0.14,0.46-0.32,0.46
			C226.79,151.73,226.66,151.53,226.66,151.27z M229.15,164.41c-0.16-0.27,0.06-0.71,0.33-0.71c0.1,0,0.19,0.21,0.19,0.46
			C229.67,164.67,229.38,164.82,229.15,164.41z M228.5,132.05c0-0.37,0.17-0.44,1.15-0.44c0.97,0,1.15,0.07,1.15,0.42
			c0,0.35-0.19,0.43-1.15,0.44C228.65,132.48,228.5,132.43,228.5,132.05L228.5,132.05z M225.41,190.92c0-0.44,0.12-0.48,1.11-0.42
			c0.85,0.07,1.12,0.18,1.17,0.5c0.07,0.35-0.1,0.42-1.09,0.42C225.54,191.42,225.41,191.36,225.41,190.92L225.41,190.92z
			 M229.39,176.8c0.12-0.46,0.79-0.51,0.79-0.08c0,0.21-0.18,0.37-0.44,0.37C229.47,177.1,229.33,176.98,229.39,176.8L229.39,176.8z
			"/>
		
			<path id="path4551-6" inkscape:connector-curvature="0" sodipodi:nodetypes="sssssssssssssssssssssssssssssssssssssssssssssssssscssssssssssssssssssssssssscssssssssssscssssssssssssssssssssssssscssssssscsscssscsscssssscccsssssssssssssssssssssssssssssssss" class="st4" d="
			M180.54,220.38c0-0.24,0.14-0.44,0.32-0.44c0.17,0,0.32,0.19,0.32,0.44c0,0.23-0.15,0.44-0.32,0.44
			C180.68,220.81,180.54,220.6,180.54,220.38z M181.81,220.38c0-0.24,0.15-0.44,0.32-0.44c0.18,0,0.31,0.19,0.31,0.44
			c0,0.23-0.14,0.44-0.31,0.44C181.95,220.81,181.81,220.6,181.81,220.38z M182.93,181.65c0-0.24,0.14-0.44,0.31-0.44
			s0.32,0.19,0.32,0.44s-0.15,0.44-0.32,0.44C183.07,182.09,182.93,181.89,182.93,181.65z M184.23,257.53
			c0-0.53,1.18-3.38,1.41-3.38c0.28,0,0.19,0.38-0.59,2.71C184.84,257.53,184.23,257.99,184.23,257.53L184.23,257.53z M183.81,186.7
			c0-0.73,0.1-1.32,0.2-1.32c0.13,0,0.22-0.21,0.22-0.44c0-0.25,0.18-0.45,0.41-0.45c0.24,0,0.42,0.2,0.42,0.45
			c0,0.23,0.15,0.44,0.32,0.44c0.24,0,0.32,0.34,0.32,1.32c0,0.97-0.07,1.32-0.32,1.32c-0.24,0-0.32-0.35-0.32-1.32
			c0-0.98-0.08-1.32-0.31-1.32c-0.24,0-0.32,0.34-0.32,1.32c0,0.97-0.08,1.32-0.32,1.32C183.89,188.02,183.81,187.67,183.81,186.7
			L183.81,186.7z M185.54,239.02c0-0.34,0.27-0.44,1.16-0.44s1.15,0.1,1.15,0.44s-0.27,0.44-1.15,0.44
			C185.81,239.46,185.54,239.36,185.54,239.02z M183.65,204.05c0-0.25,0.18-0.44,0.43-0.44c0.24,0,0.43,0.19,0.43,0.44
			s-0.18,0.44-0.43,0.44C183.83,204.49,183.65,204.3,183.65,204.05z M184.91,204.05c0-0.25,0.19-0.44,0.42-0.44
			c0.24,0,0.43,0.19,0.43,0.44s-0.19,0.44-0.43,0.44C185.1,204.49,184.91,204.3,184.91,204.05z M182.93,180.2
			c0-0.61-0.12-0.73-0.77-0.81c-1.31-0.15-1.13-0.81,0.24-0.81h1.17v1.16c0,0.85-0.09,1.18-0.32,1.18
			C183.05,180.92,182.93,180.64,182.93,180.2L182.93,180.2z M185.75,237.55c0-0.25,0.18-0.44,0.43-0.44c0.24,0,0.43,0.19,0.43,0.44
			s-0.19,0.44-0.43,0.44C185.93,237.99,185.75,237.8,185.75,237.55z M187.01,237.55c0-0.25,0.14-0.44,0.32-0.44
			c0.17,0,0.32,0.19,0.32,0.44s-0.15,0.44-0.32,0.44C187.15,237.99,187.01,237.8,187.01,237.55z M184.28,202.59
			c0-0.24,0.19-0.44,0.43-0.44c0.24,0,0.43,0.21,0.43,0.44c0,0.25-0.18,0.44-0.43,0.44C184.47,203.03,184.28,202.83,184.28,202.59z
			 M180.65,217.88c-0.16-0.34,0.04-0.88,0.32-0.88c0.12,0,0.2,0.26,0.2,0.59C181.18,218.2,180.86,218.38,180.65,217.88z
			 M181.95,217.77c0.37,0,0.04-0.82,0.3-0.6c0.24,0.2,0.24,0.99,0,0.99C182.15,218.16,182,217.98,181.95,217.77L181.95,217.77z
			 M183.59,254.59c0-0.25,0.15-0.44,0.32-0.44c0.17,0,0.32,0.19,0.32,0.44c0,0.23-0.15,0.44-0.32,0.44S183.59,254.81,183.59,254.59z
			 M183.23,211.92c-0.18-1.63-0.06-2.37,0.33-2.37c0.23,0,0.34,0.39,0.37,1.39c0.07,1.36,0.08,1.39,0.79,1.39
			c0.5,0,0.73,0.12,0.73,0.44s-0.26,0.44-1.04,0.44h-1.04L183.23,211.92z M181.88,230.73c0-0.59-0.1-0.73-0.52-0.73
			c-0.33,0-0.53-0.17-0.53-0.44c0-0.43,0.24-0.57,0.79-0.47c0.15,0.04,0.26-0.27,0.26-0.7c0-0.46,0.11-0.73,0.31-0.73
			c0.24,0,0.32,0.41,0.32,1.91c0,1.49-0.08,1.89-0.32,1.89C181.99,231.46,181.88,231.18,181.88,230.73L181.88,230.73z
			 M181.82,245.72c0-0.31-0.13-0.57-0.31-0.57c-0.17,0-0.32-0.18-0.32-0.41c0-0.45,0.72-0.79,1.37-0.62
			c0.22,0.07,0.54,0.12,0.68,0.12c0.45,0.05,0.3,0.91-0.15,0.91c-0.29,0-0.43,0.19-0.43,0.57c0,0.4-0.15,0.59-0.43,0.59
			C181.97,246.31,181.82,246.12,181.82,245.72L181.82,245.72z M185.11,228.45c0-0.25,0.18-0.44,0.42-0.44
			c0.23,0,0.42,0.19,0.42,0.44s-0.18,0.44-0.42,0.44S185.11,228.7,185.11,228.45z M186.11,248.58c0-0.45-0.11-0.73-0.31-0.73
			c-0.17,0-0.32-0.21-0.32-0.44c0-0.25,0.13-0.44,0.29-0.44c0.17,0,0.34-0.3,0.38-0.66c0.03-0.36,0.22-0.7,0.44-0.76
			c0.31-0.07,0.37,0.15,0.37,1.83c0,1.73-0.05,1.92-0.43,1.92C186.22,249.31,186.11,249.12,186.11,248.58L186.11,248.58z
			 M182.43,196.5c0-0.32,0.24-0.44,0.85-0.44h0.83v-1.47c0-1.11,0.08-1.47,0.32-1.47c0.25,0,0.32,0.41,0.32,1.91v1.91h-1.17
			C182.7,196.94,182.43,196.84,182.43,196.5L182.43,196.5z M184.26,171.83c0-0.44,0.17-0.5,1.15-0.42c0.83,0.07,1.17,0.22,1.17,0.52
			c0,0.51-0.57,0.54-0.71,0.04c-0.08-0.29-0.12-0.29-0.13,0c-0.01,0.21-0.15,0.37-0.32,0.37c-0.16,0-0.35-0.17-0.4-0.37
			c-0.08-0.29-0.1-0.29-0.13,0C184.88,172.55,184.26,172.4,184.26,171.83L184.26,171.83z M185.11,227.14c0-0.38,0.13-0.59,0.42-0.59
			s0.42,0.21,0.42,0.59c0,0.38-0.13,0.59-0.42,0.59C185.24,227.73,185.11,227.52,185.11,227.14z M187.16,247.42
			c0-0.25,0.09-0.44,0.22-0.44c0.11,0,0.2,0.19,0.2,0.44c0,0.23-0.1,0.44-0.2,0.44C187.25,247.86,187.16,247.64,187.16,247.42z
			 M182.43,194c0-0.31,0.15-0.57,0.32-0.57s0.3,0.26,0.3,0.57c0,0.33-0.13,0.59-0.3,0.59S182.43,194.34,182.43,194z M184.94,210.27
			c-0.16-0.35,0.04-0.88,0.32-0.88c0.12,0,0.2,0.26,0.2,0.59C185.46,210.6,185.15,210.77,184.94,210.27L184.94,210.27z
			 M184.26,170.25c0-0.46,0.17-0.54,1.15-0.54s1.17,0.08,1.17,0.51s-0.2,0.52-1.17,0.54C184.43,170.78,184.26,170.71,184.26,170.25
			L184.26,170.25z M181.19,243.07c0-0.55,0.1-0.61,1.11-0.51c0.83,0.08,1.11,0.23,1.17,0.61c0.07,0.44-0.1,0.51-1.11,0.51
			C181.31,243.68,181.19,243.61,181.19,243.07z M185.15,225.59c0.14-0.55,0.79-0.63,0.79-0.1c0,0.27-0.18,0.47-0.44,0.47
			C185.25,225.97,185.11,225.82,185.15,225.59L185.15,225.59z"/>
		
			<path id="path4551-43" inkscape:connector-curvature="0" sodipodi:nodetypes="sssssssssssssssssssssssssssssssssssssssssssssssssscssssssssssssssssssssssssscssssssssssscssssssssssssssssssssssssscssssssscsscssscsscssssscccsssssssssssssssssssssssssssssssss" class="st4" d="
			M186.17,136.5c0,0.18,0.14,0.32,0.31,0.32s0.32-0.14,0.32-0.32c0-0.18-0.15-0.33-0.32-0.33
			C186.3,136.17,186.17,136.32,186.17,136.5z M187.42,136.5c0,0.18,0.15,0.32,0.32,0.32c0.17,0,0.31-0.14,0.31-0.32
			c0-0.18-0.14-0.33-0.31-0.33C187.57,136.17,187.42,136.32,187.42,136.5z M188.55,164.86c0,0.18,0.15,0.33,0.32,0.33
			s0.3-0.15,0.3-0.33c0-0.18-0.13-0.32-0.3-0.32C188.7,164.53,188.55,164.68,188.55,164.86z M189.85,109.28
			c0,0.38,1.2,2.47,1.41,2.47c0.28,0,0.19-0.28-0.58-1.98C190.46,109.27,189.85,108.92,189.85,109.28L189.85,109.28z M189.43,161.17
			c0,0.53,0.09,0.96,0.21,0.96c0.13,0,0.21,0.15,0.21,0.33c0,0.18,0.18,0.31,0.43,0.31c0.23,0,0.42-0.14,0.42-0.31
			s0.13-0.33,0.31-0.33c0.24,0,0.32-0.25,0.32-0.96s-0.08-0.96-0.32-0.96s-0.31,0.25-0.31,0.96s-0.08,0.96-0.32,0.96
			s-0.32-0.25-0.32-0.96s-0.08-0.96-0.31-0.96C189.51,160.21,189.43,160.46,189.43,161.17L189.43,161.17z M191.16,122.83
			c0,0.24,0.27,0.32,1.15,0.32c0.89,0,1.15-0.08,1.15-0.32c0-0.25-0.27-0.33-1.15-0.33S191.16,122.58,191.16,122.83z M189.26,148.44
			c0,0.18,0.19,0.32,0.43,0.32c0.24,0,0.43-0.15,0.43-0.32c0-0.18-0.18-0.32-0.43-0.32C189.46,148.13,189.26,148.27,189.26,148.44
			L189.26,148.44z M190.54,148.44c0,0.18,0.18,0.32,0.42,0.32c0.23,0,0.42-0.15,0.42-0.32c0-0.18-0.19-0.32-0.42-0.32
			C190.72,148.13,190.54,148.27,190.54,148.44z M188.55,165.92c0,0.45-0.11,0.53-0.77,0.59c-1.31,0.11-1.13,0.6,0.24,0.6h1.17v-0.86
			c0-0.62-0.08-0.86-0.3-0.86C188.67,165.39,188.55,165.6,188.55,165.92L188.55,165.92z M191.37,123.9c0,0.18,0.19,0.32,0.43,0.32
			c0.24,0,0.43-0.14,0.43-0.32s-0.18-0.33-0.43-0.33C191.56,123.57,191.37,123.72,191.37,123.9z M192.64,123.9
			c0,0.18,0.14,0.32,0.31,0.32s0.32-0.14,0.32-0.32s-0.15-0.33-0.32-0.33C192.77,123.57,192.64,123.72,192.64,123.9z M189.9,149.52
			c0,0.18,0.2,0.32,0.42,0.32c0.24,0,0.43-0.14,0.43-0.32c0-0.18-0.18-0.33-0.43-0.33C190.1,149.19,189.9,149.34,189.9,149.52z
			 M186.27,138.32c-0.16,0.25,0.05,0.64,0.33,0.64c0.1,0,0.19-0.19,0.19-0.43C186.79,138.08,186.48,137.95,186.27,138.32z
			 M187.57,138.41c0.37,0,0.03,0.59,0.3,0.43c0.24-0.15,0.24-0.74-0.01-0.74C187.76,138.1,187.63,138.24,187.57,138.41
			L187.57,138.41z M189.22,111.42c0,0.18,0.13,0.32,0.31,0.32s0.32-0.14,0.32-0.32s-0.15-0.32-0.32-0.32
			C189.35,111.1,189.22,111.25,189.22,111.42L189.22,111.42z M188.87,142.69c-0.18,1.18-0.08,1.73,0.31,1.73
			c0.23,0,0.34-0.29,0.39-1.01c0.06-1.01,0.07-1.03,0.79-1.03c0.49,0,0.72-0.1,0.72-0.32c0-0.24-0.26-0.32-1.04-0.32H189
			L188.87,142.69z M187.5,128.89c0,0.43-0.1,0.53-0.52,0.53c-0.33,0-0.52,0.13-0.52,0.33c0,0.31,0.24,0.41,0.79,0.34
			c0.15-0.03,0.26,0.19,0.26,0.5c0,0.34,0.12,0.56,0.32,0.56c0.24,0,0.3-0.31,0.3-1.4c0-1.1-0.07-1.4-0.3-1.4
			C187.62,128.36,187.5,128.56,187.5,128.89L187.5,128.89z M187.44,117.9c0,0.24-0.13,0.43-0.31,0.43c-0.17,0-0.32,0.14-0.32,0.3
			c0,0.33,0.74,0.57,1.37,0.46c0.23-0.04,0.54-0.09,0.69-0.1c0.44-0.03,0.29-0.66-0.16-0.66c-0.27,0-0.43-0.14-0.43-0.43
			s-0.14-0.43-0.43-0.43C187.58,117.48,187.44,117.62,187.44,117.9z M190.73,130.56c0,0.18,0.19,0.33,0.43,0.33
			c0.24,0,0.43-0.15,0.43-0.33c0-0.18-0.19-0.32-0.43-0.32C190.91,130.24,190.73,130.38,190.73,130.56z M191.73,115.81
			c0,0.34-0.12,0.55-0.31,0.55c-0.17,0-0.32,0.14-0.32,0.32s0.14,0.32,0.31,0.32s0.32,0.21,0.37,0.48c0.03,0.26,0.24,0.51,0.43,0.56
			c0.33,0.07,0.37-0.12,0.37-1.34c0-1.27-0.03-1.41-0.43-1.41C191.85,115.28,191.73,115.42,191.73,115.81z M188.06,153.99
			c0,0.22,0.24,0.31,0.84,0.31h0.85v1.08c0,0.81,0.08,1.07,0.3,1.07c0.25,0,0.32-0.3,0.32-1.4v-1.4h-1.16
			C188.32,153.66,188.06,153.73,188.06,153.99L188.06,153.99z M189.88,172.05c0,0.32,0.17,0.37,1.17,0.3
			c0.81-0.06,1.16-0.16,1.16-0.38c0-0.38-0.56-0.4-0.7-0.03c-0.09,0.22-0.1,0.22-0.14,0c-0.01-0.15-0.14-0.27-0.31-0.27
			s-0.35,0.13-0.41,0.27c-0.09,0.22-0.1,0.22-0.12,0C190.51,171.53,189.88,171.65,189.88,172.05L189.88,172.05z M190.73,131.52
			c0,0.29,0.14,0.43,0.43,0.43c0.28,0,0.43-0.14,0.43-0.43c0-0.28-0.15-0.43-0.43-0.43C190.87,131.1,190.73,131.24,190.73,131.52z
			 M192.79,116.67c0,0.18,0.11,0.32,0.21,0.32c0.11,0,0.2-0.15,0.2-0.32c0-0.18-0.1-0.32-0.2-0.32
			C192.89,116.36,192.79,116.49,192.79,116.67z M188.06,155.81c0,0.23,0.14,0.42,0.32,0.42s0.32-0.19,0.32-0.42
			c0-0.24-0.15-0.43-0.32-0.43S188.06,155.57,188.06,155.81z M190.56,143.88c-0.16,0.25,0.05,0.65,0.33,0.65
			c0.1,0,0.19-0.19,0.19-0.43C191.08,143.66,190.78,143.52,190.56,143.88L190.56,143.88z M189.88,173.23c0,0.34,0.17,0.39,1.17,0.39
			c0.97,0,1.16-0.06,1.16-0.38s-0.19-0.38-1.16-0.41C190.05,172.82,189.88,172.89,189.88,173.23z M186.81,119.86
			c0,0.39,0.1,0.44,1.11,0.37c0.84-0.06,1.13-0.16,1.17-0.44c0.07-0.33-0.1-0.38-1.09-0.38
			C186.95,119.41,186.81,119.45,186.81,119.86z M190.79,132.65c0.13,0.41,0.79,0.46,0.79,0.07c0-0.2-0.19-0.34-0.44-0.34
			C190.88,132.38,190.73,132.49,190.79,132.65L190.79,132.65z"/>
		
			<path id="path4551-5-8" inkscape:connector-curvature="0" sodipodi:nodetypes="sssssssssssssssssssssssssssssssssssssssssscssssssscssssssssss" class="st4" d="
			M263.54,215.17c0-0.54-1.2-3.47-1.41-3.47c-0.3,0-0.19,0.4,0.57,2.78C262.95,215.17,263.54,215.67,263.54,215.17L263.54,215.17z
			 M262.25,196.13c0-0.34-0.29-0.46-1.17-0.46s-1.17,0.12-1.17,0.46c0,0.35,0.29,0.46,1.17,0.46
			C261.96,196.59,262.25,196.47,262.25,196.13z M262.01,194.62c0-0.25-0.18-0.45-0.41-0.45c-0.22,0-0.41,0.2-0.41,0.45
			c0,0.26,0.18,0.45,0.41,0.45S262.01,194.87,262.01,194.62z M260.75,194.62c0-0.24-0.15-0.45-0.32-0.45s-0.29,0.21-0.29,0.45
			c0,0.25,0.11,0.45,0.29,0.45S260.75,194.87,260.75,194.62z M264.19,212.15c0-0.25-0.15-0.46-0.32-0.46s-0.32,0.21-0.32,0.46
			c0,0.23,0.15,0.45,0.32,0.45S264.19,212.4,264.19,212.15z M265.92,187.6c0-0.6,0.08-0.76,0.52-0.76c0.3,0,0.53-0.17,0.53-0.45
			c0-0.44-0.26-0.57-0.81-0.47c-0.15,0.02-0.24-0.27-0.24-0.71c0-0.49-0.13-0.77-0.32-0.77c-0.26,0-0.32,0.42-0.32,1.95
			c0,1.55,0.06,1.97,0.32,1.97C265.79,188.36,265.92,188.07,265.92,187.6L265.92,187.6z M265.96,203.03c0-0.33,0.15-0.59,0.32-0.59
			c0.18,0,0.29-0.2,0.29-0.42c0-0.48-0.72-0.82-1.33-0.65c-0.26,0.06-0.55,0.13-0.69,0.14c-0.47,0.03-0.3,0.94,0.16,0.94
			c0.26,0,0.4,0.19,0.4,0.59c0,0.41,0.15,0.6,0.45,0.6C265.81,203.63,265.96,203.44,265.96,203.03L265.96,203.03z M261.65,205.97
			c0-0.46,0.14-0.76,0.32-0.76s0.32-0.2,0.32-0.45c0-0.24-0.14-0.45-0.31-0.45c-0.16,0-0.34-0.3-0.37-0.68
			c-0.03-0.37-0.23-0.71-0.42-0.76c-0.33-0.08-0.37,0.14-0.37,1.87c0,1.77,0.03,1.99,0.41,1.99
			C261.56,206.74,261.65,206.52,261.65,205.97L261.65,205.97z M260.6,204.76c0-0.24-0.08-0.45-0.2-0.45c-0.13,0-0.2,0.2-0.2,0.45
			s0.11,0.45,0.2,0.45C260.52,205.22,260.6,205.02,260.6,204.76z M266.57,200.3c0-0.56-0.08-0.61-1.09-0.53
			c-0.85,0.08-1.11,0.23-1.19,0.63c-0.05,0.47,0.12,0.53,1.13,0.53C266.47,200.92,266.57,200.87,266.57,200.3L266.57,200.3z"/>
		
			<path id="path4551-5-84" inkscape:connector-curvature="0" sodipodi:nodetypes="sssssssssssssssssssssssssssssssssssssssssscssssssscssssssssss" class="st4" d="
			M336.89,240.78c0-0.43-1.16-2.72-1.41-2.72c-0.26,0-0.19,0.3,0.6,2.19C336.31,240.78,336.89,241.16,336.89,240.78z M335.6,225.83
			c0-0.27-0.29-0.35-1.17-0.35s-1.14,0.08-1.14,0.35s0.26,0.35,1.14,0.35C335.32,226.18,335.6,226.1,335.6,225.83z M335.4,224.63
			c0-0.19-0.18-0.35-0.45-0.35c-0.22,0-0.41,0.16-0.41,0.35c0,0.21,0.18,0.36,0.41,0.36C335.22,224.99,335.4,224.84,335.4,224.63z
			 M334.13,224.63c0-0.19-0.13-0.35-0.31-0.35c-0.17,0-0.32,0.16-0.32,0.35c0,0.21,0.15,0.36,0.32,0.36S334.13,224.84,334.13,224.63
			z M337.54,238.41c0-0.19-0.15-0.35-0.32-0.35s-0.32,0.16-0.32,0.35s0.15,0.35,0.32,0.35S337.54,238.6,337.54,238.41z
			 M339.26,219.12c0-0.46,0.09-0.57,0.53-0.57c0.33,0,0.52-0.14,0.52-0.35c0-0.35-0.24-0.47-0.81-0.39
			c-0.15,0.04-0.24-0.21-0.24-0.55c0-0.37-0.13-0.6-0.32-0.6c-0.23,0-0.32,0.33-0.32,1.54c0,1.2,0.1,1.53,0.32,1.53
			C339.14,219.72,339.26,219.5,339.26,219.12L339.26,219.12z M339.31,231.25c0-0.26,0.15-0.46,0.32-0.46s0.32-0.16,0.32-0.33
			c0-0.37-0.72-0.63-1.37-0.51c-0.22,0.06-0.54,0.09-0.69,0.1c-0.45,0.04-0.3,0.74,0.16,0.74c0.29,0,0.41,0.14,0.41,0.46
			s0.15,0.46,0.44,0.46C339.16,231.72,339.31,231.57,339.31,231.25z M335.04,233.55c0-0.37,0.1-0.57,0.29-0.57
			c0.18,0,0.32-0.17,0.32-0.35c0-0.21-0.12-0.35-0.27-0.35c-0.17,0-0.34-0.24-0.39-0.55c-0.04-0.29-0.24-0.56-0.43-0.61
			c-0.33-0.06-0.37,0.13-0.37,1.47c0,1.4,0.03,1.56,0.41,1.56C334.91,234.15,335.04,233.98,335.04,233.55L335.04,233.55z
			 M333.98,232.62c0-0.21-0.11-0.37-0.24-0.37c-0.09,0-0.2,0.16-0.2,0.37c0,0.19,0.11,0.35,0.2,0.35
			C333.88,232.97,333.98,232.81,333.98,232.62z M339.96,229.1c0-0.44-0.12-0.47-1.13-0.4c-0.82,0.05-1.11,0.18-1.15,0.48
			c-0.08,0.35,0.08,0.42,1.09,0.42C339.82,229.59,339.96,229.53,339.96,229.1z"/>
		
			<path id="path4551-5-3" inkscape:connector-curvature="0" sodipodi:nodetypes="sssssssssssssssssssssssssssssssssssssssssscssssssscssssssssss" class="st4" d="
			M322.61,153.36c0-0.43-1.2-2.74-1.43-2.74c-0.28,0-0.22,0.32,0.58,2.19C321.98,153.36,322.61,153.75,322.61,153.36z
			 M321.28,138.41c0-0.27-0.25-0.35-1.17-0.35c-0.89,0-1.14,0.08-1.14,0.35s0.25,0.35,1.14,0.35
			C321.03,138.76,321.28,138.68,321.28,138.41z M321.08,137.22c0-0.19-0.18-0.35-0.43-0.35c-0.24,0-0.42,0.16-0.42,0.35
			c0,0.2,0.18,0.35,0.42,0.35C320.89,137.57,321.08,137.42,321.08,137.22z M319.83,137.22c0-0.19-0.15-0.35-0.32-0.35
			s-0.32,0.16-0.32,0.35s0.15,0.35,0.32,0.35S319.83,137.41,319.83,137.22z M323.22,150.98c0-0.19-0.15-0.35-0.32-0.35
			s-0.29,0.16-0.29,0.35c0,0.2,0.12,0.36,0.29,0.36C323.07,151.33,323.22,151.18,323.22,150.98z M324.95,131.71
			c0-0.46,0.12-0.59,0.52-0.59c0.33,0,0.52-0.13,0.52-0.35c0-0.34-0.22-0.45-0.78-0.38c-0.15,0.02-0.27-0.21-0.27-0.55
			c0-0.38-0.13-0.6-0.32-0.6c-0.23,0-0.32,0.32-0.32,1.53c0,1.21,0.09,1.54,0.32,1.54C324.82,132.3,324.95,132.08,324.95,131.71
			L324.95,131.71z M324.99,143.83c0-0.26,0.15-0.48,0.32-0.48s0.32-0.14,0.32-0.32c0-0.37-0.72-0.64-1.38-0.5
			c-0.22,0.05-0.54,0.1-0.69,0.1c-0.42,0.03-0.27,0.73,0.16,0.73c0.3,0,0.43,0.15,0.43,0.48c0,0.31,0.12,0.46,0.42,0.46
			C324.87,144.3,324.99,144.14,324.99,143.83L324.99,143.83z M320.72,146.13c0-0.37,0.12-0.59,0.32-0.59c0.17,0,0.29-0.16,0.29-0.35
			s-0.11-0.36-0.27-0.36c-0.17,0-0.34-0.23-0.37-0.53c-0.06-0.28-0.25-0.55-0.45-0.61c-0.33-0.07-0.37,0.14-0.37,1.48
			c0,1.4,0.04,1.56,0.41,1.56C320.59,146.73,320.72,146.57,320.72,146.13L320.72,146.13z M319.67,145.19c0-0.19-0.11-0.36-0.2-0.36
			c-0.13,0-0.24,0.16-0.24,0.36c0,0.19,0.11,0.35,0.24,0.35C319.55,145.54,319.67,145.38,319.67,145.19z M325.63,141.68
			c0-0.45-0.12-0.48-1.09-0.41c-0.85,0.06-1.14,0.18-1.19,0.49c-0.05,0.35,0.1,0.42,1.09,0.42
			C325.5,142.18,325.63,142.11,325.63,141.68L325.63,141.68z"/>
		<path id="path4407-4-0" inkscape:connector-curvature="0" sodipodi:nodetypes="ssssssssssssss" class="st3" d="M170.47,198.68
			c0-0.87-0.51-1.56-1.17-1.56c-0.63,0-1.16-0.5-1.16-1.07c0-1.21,2.69-2.1,5.04-1.66c0.85,0.15,1.99,0.31,2.52,0.35
			c1.64,0.1,1.09,2.38-0.57,2.38c-1.04,0-1.56,0.52-1.56,1.56c0,1.03-0.52,1.54-1.56,1.54
			C170.98,200.22,170.47,199.71,170.47,198.68L170.47,198.68z M168.15,191.63c0-1.47,0.38-1.59,4.06-1.35
			c3.13,0.19,4.13,0.56,4.33,1.61c0.21,1.15-0.37,1.36-4.07,1.36C168.61,193.25,168.15,193.08,168.15,191.63z"/>
		
			<path id="path4551-5-3-6" inkscape:connector-curvature="0" sodipodi:nodetypes="sssssssssssssssssscssssssscssssssssss" class="st4" d="
			M239.29,152.7c0-0.43-1.2-2.73-1.41-2.73c-0.28,0-0.19,0.32,0.59,2.19C238.68,152.7,239.29,153.1,239.29,152.7L239.29,152.7z
			 M239.92,150.33c0-0.19-0.13-0.35-0.31-0.35s-0.32,0.16-0.32,0.35s0.15,0.35,0.32,0.35C239.79,150.68,239.92,150.52,239.92,150.33
			z M241.71,143.17c0-0.26,0.13-0.47,0.3-0.47s0.32-0.15,0.32-0.33c0-0.37-0.74-0.63-1.38-0.5c-0.22,0.05-0.54,0.09-0.69,0.11
			c-0.45,0.03-0.29,0.72,0.16,0.72c0.28,0,0.43,0.16,0.43,0.47c0,0.32,0.14,0.48,0.43,0.48
			C241.56,143.65,241.71,143.49,241.71,143.17L241.71,143.17z M237.41,145.48c0-0.38,0.12-0.59,0.31-0.59
			c0.17,0,0.32-0.16,0.32-0.35s-0.14-0.35-0.31-0.35s-0.32-0.24-0.37-0.53c-0.03-0.3-0.24-0.57-0.44-0.61
			c-0.33-0.08-0.37,0.12-0.37,1.48c0,1.4,0.04,1.55,0.43,1.55C237.29,146.07,237.41,145.92,237.41,145.48L237.41,145.48z
			 M236.36,144.54c0-0.2-0.11-0.35-0.22-0.35s-0.2,0.16-0.2,0.35s0.1,0.35,0.2,0.35C236.25,144.89,236.36,144.73,236.36,144.54z
			 M242.34,141.03c0-0.45-0.1-0.49-1.11-0.42c-0.85,0.07-1.12,0.18-1.17,0.5c-0.07,0.35,0.1,0.41,1.09,0.41
			C242.2,141.52,242.34,141.47,242.34,141.03L242.34,141.03z"/>
		<g id="g4177_1_" transform="matrix(0.62522271,0.44972962,-0.44972962,0.62522271,-543.79963,-883.91821)">
		</g>
		<a id="a4378_1_" transform="matrix(0.62522271,0.44972962,-0.44972962,0.62522271,310.46408,-221.42303)">
			<g id="g4323_1_">
				<g id="g4384_1_">
				</g>
			</g>
		</a>
		<a id="a4357_1_" transform="matrix(0.62522271,0.44972962,-0.44972962,0.62522271,656.83747,27.727177)">
		</a>
	</g>
</g>
</svg>
