<?xml version="1.0" encoding="UTF-8" standalone="no"?>
<!-- Created with Inkscape (http://www.inkscape.org/) -->

<svg
   width="200mm"
   height="200mm"
   viewBox="0 0 200 200"
   version="1.1"
   id="svg1"
   xml:space="preserve"
   inkscape:version="1.4 (86a8ad7, 2024-10-11)"
   sodipodi:docname="lively_lily_pads.svg"
   inkscape:export-filename="lively_lily_pads.png"
   inkscape:export-xdpi="96"
   inkscape:export-ydpi="96"
   xmlns:inkscape="http://www.inkscape.org/namespaces/inkscape"
   xmlns:sodipodi="http://sodipodi.sourceforge.net/DTD/sodipodi-0.dtd"
   xmlns="http://www.w3.org/2000/svg"
   xmlns:svg="http://www.w3.org/2000/svg"><sodipodi:namedview
     id="namedview1"
     pagecolor="#505050"
     bordercolor="#eeeeee"
     borderopacity="1"
     inkscape:showpageshadow="0"
     inkscape:pageopacity="0"
     inkscape:pagecheckerboard="0"
     inkscape:deskcolor="#505050"
     inkscape:document-units="mm"
     inkscape:zoom="0.70710678"
     inkscape:cx="562.857"
     inkscape:cy="194.45436"
     inkscape:window-width="1920"
     inkscape:window-height="1057"
     inkscape:window-x="1912"
     inkscape:window-y="-8"
     inkscape:window-maximized="1"
     inkscape:current-layer="svg1" /><defs
     id="defs1" /><rect
     style="display:inline;fill:#ffffff;fill-opacity:1;fill-rule:nonzero;stroke:#64b6d9;stroke-width:1.31423;stroke-linejoin:round;stroke-opacity:0"
     id="rect2"
     width="198.68578"
     height="198.68578"
     x="0.65711498"
     y="0.65711498"
     inkscape:label="white" /><g
     id="layer2"
     inkscape:label="Icon"
     transform="matrix(1.1494969,0,0,1.1494969,-11.211766,-12.68896)"><path
       style="display:inline;fill:#207598;fill-opacity:1;fill-rule:nonzero;stroke:#64b6d9;stroke-width:1.32292;stroke-linejoin:round;stroke-opacity:0"
       d="m 56.034867,149.95461 22.426976,11.48486 8.781642,-3.71651 7.95216,4.08354 16.932885,-7.76794 8.27454,3.88397 52.49956,-24.35937 -7.77237,-3.19145 13.35197,-5.9704 -7.79407,-3.01776 6.44802,-2.82237 -15.19737,-5.62302 5.90527,-2.75724 -27.31185,-9.85658 -70.211836,0.10855 -41.966446,14.50264 5.775,2.86578 -16.239474,5.73158 6.078947,2.99605 -8.380263,3.0829 19.539473,9.9 16.803946,-6.38289 6.817106,3.38684 16.196053,-6.51316 6.947369,3.03947 -16.282895,6.55658 7.207895,3.47369 z"
       id="path1"
       sodipodi:nodetypes="cccccccccccccccccccccccccccc"
       inkscape:label="lily pad" /><path
       style="display:inline;fill:#4aa0c7;fill-opacity:1;fill-rule:nonzero;stroke:#64b6d9;stroke-width:1.32292;stroke-linejoin:round;stroke-opacity:0"
       d="m 70.233552,123.12039 34.341958,15.38229 35.73867,-15.07533 0.9518,-54.621209 -11.88219,-3.561585 V 52.441271 L 105.51316,45.505264 80.676315,52.192105 V 65.261841 L 69.082893,68.51842 Z"
       id="path2"
       inkscape:label="lantern main" /><path
       id="path4"
       style="display:inline;fill:#64b6d9;fill-opacity:1;fill-rule:nonzero;stroke:#64b6d9;stroke-width:1.32292;stroke-linejoin:round;stroke-opacity:0"
       inkscape:label="lantern top"
       d="m 105.51191,45.505233 -24.837764,6.688997 24.067784,7.585067 24.64035,-7.338054 z m 23.87451,19.739363 v 3.464388 L 104.67578,76.745703 80.67983,68.256299 80.676213,65.26165 69.082088,68.517782 104.53574,80.904106 141.2658,68.80717 Z" /><path
       style="display:inline;fill:#4aa0c7;fill-opacity:1;fill-rule:nonzero;stroke:#64b6d9;stroke-width:1.32292;stroke-linejoin:round;stroke-opacity:0"
       d="m 92.313158,52.344079 h 8.293422 v -8.423685 h 8.74934 v 8.532238 h 8.77105 V 35.493039 h -25.9249 z"
       id="path3"
       inkscape:label="handle" /><path
       id="path6"
       style="display:inline;fill:#64b6d9;fill-opacity:1;fill-rule:nonzero;stroke:#64b6d9;stroke-width:1.32292;stroke-linejoin:round;stroke-opacity:0"
       inkscape:label="outer light"
       d="m 74.800602,78.541976 0.605648,39.462194 23.049239,9.96425 V 87.183309 Z m 60.276428,0.33538 -24.2161,8.196916 -0.14056,40.995948 23.82077,-9.7777 z" /><path
       id="path8"
       style="display:inline;fill:#85cceb;fill-opacity:1;fill-rule:nonzero;stroke:#64b6d9;stroke-width:1.32292;stroke-linejoin:round;stroke-opacity:0"
       inkscape:label="inner light"
       d="m 80.764062,88.729985 0.179834,23.616645 11.852507,4.99608 -0.186035,-24.253818 z m 48.500918,0.276985 -12.74961,4.379578 -0.13436,24.137542 12.65142,-5.1232 z" /></g></svg>
