<?xml version="1.0" encoding="utf-8"?>
<!-- Generator: Adobe Illustrator 23.0.6, SVG Export Plug-In . SVG Version: 6.00 Build 0)  -->
<svg version="1.1" id="midnight_menaces" xmlns="http://www.w3.org/2000/svg" xmlns:xlink="http://www.w3.org/1999/xlink" x="0px"
	 y="0px" viewBox="0 0 512 512" style="enable-background:new 0 0 512 512;" xml:space="preserve">
<style type="text/css">
	.st0{fill:#FFFFFF;}
	.st1{fill:#4AA0C7;}
	.st2{fill:#3D83A3;}
	.st3{fill:#A1CEE2;}
	.st4{fill:#7FBCD7;}
	.st5{font-family:'Minecraftia-Regular';}
	.st6{font-size:23.6625px;}
	.st7{font-size:29.5577px;}
	.st8{font-size:22.016px;}
	.st9{font-size:14.078px;}
	.st10{font-size:12.7284px;}
</style>
<g id="Background">
	<rect class="st0" width="512" height="512"/>
</g>
<g id="Icon_1_">
	<g id="Goblin_1_">
		<polygon id="Goblin" class="st1" points="217.3,370.63 217.3,413.43 229.19,418.78 226.81,430.08 236.92,436.62 237.2,452.07 
			228.99,480.36 236.29,485.84 244.5,484.01 251.81,464.85 262.76,482.19 270.06,480.36 276.45,473.97 262.76,451.16 262.76,445.68 
			264.86,445.54 265.46,445.54 267.84,434.24 266.05,433.05 265.46,422.95 285.08,435.43 294.59,428.89 294.59,427.11 
			295.18,427.11 295.18,428.3 298.75,428.3 300.54,427.7 298.75,422.35 296.97,422.35 296.38,420.57 295.18,419.38 294.59,419.38 
			294.59,418.19 295.78,418.19 295.18,416.41 296.97,415.81 296.38,414.03 298.16,413.43 296.97,412.25 298.75,411.05 
			298.16,409.87 299.94,408.68 299.35,407.49 301.13,406.3 300.54,405.11 302.32,404.52 301.13,403.33 302.91,402.14 300.54,395 
			295.18,394.41 293.4,395.6 294,396.79 292.21,397.98 292.81,399.16 291.62,399.76 291.62,401.54 290.43,402.14 290.43,403.92 
			289.24,404.52 289.24,406.3 288.65,406.89 288.65,408.68 287.46,409.27 287.46,410.46 286.86,411.05 285.67,409.87 285.67,370.63 
			251.19,353.39 		"/>
		<g id="Carved_Pumpkin_Face">
			<polygon class="st2" points="273.13,397.87 273.13,395.55 270.81,395.93 270.75,385.76 273.13,384.72 273.13,382.01 
				275.07,381.23 275.07,383.56 277.39,382.78 277.39,385.49 279.32,384.33 279.32,389.36 281.64,388.58 281.64,393.61 			"/>
			<polygon class="st2" points="266.56,398.64 264.62,399.41 264.62,402.12 259.98,404.44 259.98,402.12 257.88,402.68 
				257.88,394.96 259.98,394 259.98,388.58 264.62,386.26 264.62,388.97 266.56,388.2 			"/>
			<polygon class="st2" points="268.88,413.34 266.56,414.11 266.56,417.2 264.62,417.98 264.62,412.57 262.3,413.73 262.3,416.43 
				259.98,417.59 259.98,420.3 258.05,421.46 258.05,416.82 255.89,416.89 255.89,411.54 258.05,410.63 258.05,408.31 
				259.98,407.15 259.98,409.86 262.3,408.7 262.3,405.6 264.62,404.83 264.62,407.15 268.88,405.21 268.88,402.9 270.81,401.74 
				270.81,404.05 275.45,402.12 275.45,399.41 277.39,398.64 277.39,400.96 279.71,399.8 279.71,397.09 281.64,396.32 
				281.64,401.35 283.57,400.57 283.57,405.99 279.71,407.93 279.32,405.21 277.39,406.38 277.39,411.4 275.07,412.95 
				275.07,409.83 270.81,412.18 270.81,409.47 268.88,410.63 			"/>
		</g>
		<g id="Ingot">
			<g>
				<polygon class="st3" points="263.44,432.16 264.34,432.99 265.11,432.15 265.89,431.31 265,430.48 264.22,431.32 				"/>
				<polygon class="st3" points="264.89,428.82 264.11,429.66 265,430.48 265.78,429.64 266.56,428.8 267.33,427.96 266.44,427.14 
					265.66,427.98 				"/>
				
					<rect x="262.04" y="431.56" transform="matrix(0.6795 -0.7337 0.7337 0.6795 -232.9088 331.2111)" class="st3" width="1.14" height="1.21"/>
				<polygon class="st3" points="266.33,425.48 265.55,426.31 266.44,427.14 267.22,426.3 268,425.46 268.77,424.62 267.88,423.79 
					267.11,424.63 				"/>
				
					<rect x="260.37" y="431.58" transform="matrix(0.6793 -0.7339 0.7339 0.6793 -233.4812 330.0958)" class="st3" width="1.14" height="1.21"/>
				<polygon class="st3" points="267.77,422.13 266.99,422.97 267.88,423.79 268.66,422.96 269.44,422.12 268.55,421.29 				"/>
				
					<rect x="258.71" y="431.59" transform="matrix(0.6795 -0.7337 0.7337 0.6795 -233.9999 328.7721)" class="st3" width="1.14" height="1.21"/>
			</g>
			<polygon class="st4" points="269.33,420.45 268.44,419.62 267.66,420.46 266.77,419.64 265.99,420.48 265.1,419.66 
				264.32,420.49 263.43,419.67 262.65,420.51 261.87,421.35 262.77,422.17 261.99,423.01 261.21,423.85 260.43,424.69 
				261.32,425.52 260.54,426.36 259.77,427.2 258.99,428.04 259.88,428.86 259.1,429.7 258.33,430.54 257.55,431.38 258.44,432.21 
				259.22,431.37 260.11,432.19 260.88,431.35 261.78,432.18 262.55,431.34 263.44,432.16 264.22,431.32 265,430.48 264.11,429.66 
				264.89,428.82 265.66,427.98 266.44,427.14 265.55,426.31 266.33,425.48 267.11,424.63 267.88,423.79 266.99,422.97 
				267.77,422.13 268.55,421.29 269.44,422.12 268.66,422.96 267.88,423.79 268.77,424.62 268,425.46 267.22,426.3 266.44,427.14 
				267.33,427.96 266.56,428.8 265.78,429.64 265,430.48 265.89,431.31 265.11,432.15 264.34,432.99 263.44,432.16 262.67,433 
				261.78,432.18 261,433.02 260.11,432.19 259.33,433.03 258.44,432.21 257.66,433.05 258.55,433.87 259.44,434.7 260.34,435.52 
				261.23,436.35 262.12,437.17 262.89,436.33 263.78,437.16 264.56,436.32 265.45,437.14 266.23,436.3 267.12,437.13 267.9,436.29 
				268.68,435.45 269.45,434.61 270.23,433.77 269.34,432.94 270.12,432.1 270.9,431.26 271.68,430.42 270.78,429.6 271.56,428.76 
				272.34,427.92 273.12,427.08 272.23,426.26 273,425.42 273.78,424.57 272.89,423.75 273.67,422.91 272.78,422.09 271.89,421.26 
				270.99,420.43 270.1,419.61 			"/>
		</g>
	</g>
	<g id="Illusioner">
		<polygon id="Bow" class="st4" points="325.39,246.13 321.25,243.65 324.56,225.46 329.52,226.29 332,214.71 336.96,214.71 
			337.79,207.27 342.75,208.1 343.57,204.79 348.53,205.62 348.53,201.49 353.49,203.14 354.32,198.18 362.59,201.49 364.24,197.35 
			376.64,201.49 377.47,197.35 389.87,201.49 345.23,224.63 343.57,232.9 339.44,232.08 337.79,239.52 341.09,239.52 341.92,236.21 
			346.05,237.04 346.88,233.73 351.01,233.73 351.01,231.25 356.8,237.04 351.84,237.04 351.01,240.34 346.88,239.52 346.05,243.65 
			341.92,242.82 340.27,246.13 336.13,244.48 334.48,248.61 331.17,246.96 330.35,251.09 325.39,251.09 		"/>
		<polygon id="Body" class="st1" points="454.36,261.01 447.74,266.8 427.9,275.89 427.9,342.86 420.46,346.99 419.63,370.14 
			405.58,377.58 376.64,362.7 376.64,342.86 369.2,339.55 369.2,261.01 341.92,220.5 349.36,210.58 365.07,203.14 370.86,208.93 
			398.96,194.05 430.38,211.41 430.38,250.26 445.26,243.65 		"/>
		<polygon id="Coat" class="st2" points="349.99,225.74 346.88,221.33 351.84,217.19 354.43,221.53 358.96,217.42 365.7,214.47 
			365.71,211.65 398.96,194.05 430.38,211.41 430.38,250.26 424.59,252.74 427.07,257.7 430.38,256.05 435.34,265.97 432.03,267.62 
			434.51,272.58 427.9,275.89 427.9,342.86 403.1,357.74 369.2,339.55 368.38,259.36 370.03,257.7 372.51,260.18 372.51,272.58 
			380.78,275.89 385.74,273.41 385.74,262.66 399.79,265.97 411.37,264.32 411.37,250.26 400.62,251.09 400.62,242 368.38,232.08 
			368.38,259.79 347.24,228.41 		"/>
		<g id="Particles">
			<g id="particle_5_" transform="matrix(-0.3597918,0.79578233,-0.79578233,-0.3597918,563.12199,205.68914)">
				<polygon id="rect4651" class="st2" points="99.04,246.33 101.06,246.33 101.06,248.41 99.04,248.41 				"/>
				<polygon id="rect4651-9" class="st2" points="101.05,244.25 103.07,244.25 103.07,246.34 101.05,246.34 				"/>
				<polygon id="rect4651-9-5" class="st2" points="103.06,246.33 105.07,246.33 105.08,250.47 103.06,250.47 				"/>
				<polygon id="rect4651-9-5-8" class="st2" points="103.08,250.46 103.09,252.47 97.22,252.49 97.21,250.47 				"/>
				<polygon id="rect4651-9-5-8-3" class="st2" points="97.22,250.49 95.21,250.49 95.21,244.18 97.23,244.18 				"/>
				<polygon id="rect4651-9-4" class="st2" points="97.22,242.1 99.24,242.1 99.24,244.19 97.22,244.19 				"/>
				<polygon id="rect4651-9-5-8-7" class="st2" points="105.09,240.08 105.1,242.1 99.23,242.11 99.22,240.09 				"/>
				<polygon id="rect4651-9-6" class="st2" points="105.1,242.09 107.11,242.09 107.11,244.17 105.1,244.18 				"/>
				<polygon id="rect4651-9-5-8-3-0" class="st2" points="109.12,250.48 107.1,250.48 107.11,244.17 109.12,244.17 				"/>
			</g>
			<g id="particle_4_" transform="matrix(-0.3597918,0.79578233,-0.79578233,-0.3597918,563.12199,205.68914)">
				<polygon id="rect4651_1_" class="st2" points="100.73,225.38 100.86,226.85 99.34,226.98 99.22,225.51 				"/>
				<polygon id="rect4651-9_1_" class="st2" points="102.37,226.71 102.5,228.18 100.98,228.32 100.85,226.85 				"/>
				<polygon id="rect4651-9-5_1_" class="st2" points="100.98,228.31 101.11,229.78 98.1,230.04 97.97,228.57 				"/>
				<polygon id="rect4651-9-5-8_1_" class="st2" points="97.98,228.59 96.51,228.72 96.13,224.45 97.59,224.31 				"/>
				<polygon id="rect4651-9-5-8-3_1_" class="st2" points="97.58,224.32 97.45,222.85 102.05,222.45 102.18,223.92 				"/>
				<polygon id="rect4651-9-4_1_" class="st2" points="103.69,223.79 103.82,225.25 102.3,225.39 102.18,223.92 				"/>
				<polygon id="rect4651-9-5-8-7_1_" class="st2" points="105.67,229.39 104.2,229.53 103.81,225.25 105.29,225.11 				"/>
				<polygon id="rect4651-9-6_1_" class="st2" points="104.2,229.52 104.34,230.99 102.82,231.12 102.68,229.66 				"/>
				<polygon id="rect4651-9-5-8-3-0_1_" class="st2" points="98.35,232.99 98.22,231.52 102.82,231.12 102.95,232.59 				"/>
			</g>
			<g id="particle_3_" transform="matrix(-0.3597918,0.79578233,-0.79578233,-0.3597918,563.12199,205.68914)">
				<polygon id="rect4651_2_" class="st2" points="85.73,228.48 85.4,227.61 86.3,227.27 86.63,228.14 				"/>
				<polygon id="rect4651-9_2_" class="st2" points="86.3,227.28 85.98,226.4 86.88,226.07 87.2,226.94 				"/>
				<polygon id="rect4651-9-5_2_" class="st2" points="84.19,227.08 83.87,226.2 85.65,225.54 85.98,226.41 				"/>
				<polygon id="rect4651-9-5-8_2_" class="st2" points="85.13,229.6 84.26,229.92 83.32,227.38 84.2,227.06 				"/>
				<polygon id="rect4651-9-5-8-3_2_" class="st2" points="87.85,228.58 88.17,229.45 85.45,230.47 85.12,229.6 				"/>
				<polygon id="rect4651-9-4_2_" class="st2" points="87.84,228.58 87.52,227.71 88.42,227.38 88.74,228.25 				"/>
				<polygon id="rect4651-9-5-8-7_2_" class="st2" points="89.29,227.06 88.42,227.38 87.48,224.85 88.35,224.53 				"/>
				<polygon id="rect4651-9-6_2_" class="st2" points="86.58,225.18 86.26,224.31 87.16,223.98 87.48,224.85 				"/>
				<polygon id="rect4651-9-5-8-3-0_2_" class="st2" points="85.94,223.44 86.26,224.31 83.54,225.33 83.22,224.46 				"/>
			</g>
			<g id="particle_2_" transform="matrix(-0.3597918,0.79578233,-0.79578233,-0.3597918,563.12199,205.68914)">
				<polygon id="rect4651_3_" class="st2" points="92.15,88.71 93.51,90.21 91.97,91.61 90.61,90.11 				"/>
				<polygon id="rect4651-9_3_" class="st2" points="95.04,88.81 96.4,90.29 94.86,91.7 93.5,90.21 				"/>
				<polygon id="rect4651-9-5_3_" class="st2" points="94.85,91.68 96.21,93.18 93.15,95.97 91.79,94.47 				"/>
				<polygon id="rect4651-9-5-8_3_" class="st2" points="91.82,94.48 90.33,95.84 86.37,91.52 87.85,90.15 				"/>
				<polygon id="rect4651-9-5-8-3_3_" class="st2" points="87.85,90.17 86.49,88.68 91.16,84.44 92.52,85.93 				"/>
				<polygon id="rect4651-9-4_3_" class="st2" points="94.05,84.53 95.41,86.01 93.87,87.42 92.51,85.93 				"/>
				<polygon id="rect4651-9-5-8-7_3_" class="st2" points="100.85,88.97 99.36,90.35 95.4,86.02 96.88,84.65 				"/>
				<polygon id="rect4651-9-6_3_" class="st2" points="99.36,90.34 100.72,91.83 99.18,93.23 97.82,91.74 				"/>
				<polygon id="rect4651-9-5-8-3-0_3_" class="st2" points="95.87,98.96 94.5,97.47 99.18,93.22 100.54,94.71 				"/>
			</g>
			<g id="particle_1_" transform="matrix(-0.3597918,0.79578233,-0.79578233,-0.3597918,563.12199,205.68914)">
				<polygon id="rect4651_4_" class="st2" points="86.66,109.16 86.94,107.93 88.21,108.22 87.93,109.45 				"/>
				<polygon id="rect4651-9_4_" class="st2" points="88.21,108.22 88.49,106.98 89.76,107.28 89.48,108.51 				"/>
				<polygon id="rect4651-9-5_4_" class="st2" points="85.96,106.41 86.24,105.18 88.77,105.76 88.49,106.99 				"/>
				<polygon id="rect4651-9-5-8_4_" class="st2" points="85.14,109.99 83.91,109.7 84.74,106.11 85.97,106.4 				"/>
				<polygon id="rect4651-9-5-8-3_4_" class="st2" points="88.99,110.86 88.71,112.09 84.85,111.21 85.13,109.98 				"/>
				<polygon id="rect4651-9-4_4_" class="st2" points="88.99,110.86 89.27,109.63 90.54,109.92 90.26,111.15 				"/>
				<polygon id="rect4651-9-5-8-7_4_" class="st2" points="91.76,110.21 90.53,109.92 91.36,106.34 92.6,106.63 				"/>
				<polygon id="rect4651-9-6_4_" class="st2" points="90.09,106.05 90.38,104.82 91.65,105.11 91.36,106.34 				"/>
				<polygon id="rect4651-9-5-8-3-0_4_" class="st2" points="90.66,103.59 90.38,104.82 86.52,103.94 86.8,102.71 				"/>
			</g>
			<g id="particle" transform="matrix(-0.3597918,0.79578233,-0.79578233,-0.3597918,563.12199,205.68914)">
				<polygon id="rect4651_5_" class="st2" points="71.35,96.57 72.18,97.53 71.19,98.38 70.36,97.42 				"/>
				<polygon id="rect4651-9_5_" class="st2" points="71.19,98.37 72.01,99.33 71.02,100.18 70.2,99.22 				"/>
				<polygon id="rect4651-9-5_5_" class="st2" points="73.97,97.63 74.8,98.59 72.83,100.28 72.01,99.33 				"/>
				<polygon id="rect4651-9-5-8_5_" class="st2" points="71.58,94.85 72.55,94.04 74.94,96.83 73.97,97.65 				"/>
				<polygon id="rect4651-9-5-8-3_5_" class="st2" points="68.6,97.44 67.78,96.48 70.77,93.89 71.59,94.85 				"/>
				<polygon id="rect4651-9-4_5_" class="st2" points="68.6,97.43 69.43,98.39 68.43,99.24 67.61,98.28 				"/>
				<polygon id="rect4651-9-5-8-7_5_" class="st2" points="67.47,100.05 68.44,99.23 70.83,102.03 69.86,102.85 				"/>
				<polygon id="rect4651-9-6_5_" class="st2" points="71.82,101.18 72.64,102.13 71.65,102.99 70.83,102.03 				"/>
				<polygon id="rect4651-9-5-8-3-0_5_" class="st2" points="73.46,103.09 72.63,102.14 75.63,99.55 76.45,100.51 				"/>
			</g>
		</g>
	</g>
	<g id="Phantoms">
		<polygon id="Phantom_4_" class="st4" points="185.57,241.09 166.03,233.01 166.3,234.81 160.53,232.93 154.1,251.31 149.36,250.2 
			142.43,271.42 138.73,271.05 138.19,267.45 145.5,248.95 142.65,248.46 142.91,243.82 148.05,229.3 146.26,229.57 145.86,226.88 
			123.36,223.83 122.56,218.46 123.94,215.51 120.22,215.14 121.48,211.29 116.89,211.06 117.22,207.34 112.63,207.11 
			111.37,210.96 106.75,210.75 109.11,202.14 105.4,201.78 104.77,203.7 102.95,203.97 101.22,210.65 95.59,209.67 99.55,193.48 
			94.83,192.37 95.43,190.44 93.63,190.71 90.28,204.97 83.89,205.01 84.86,199.36 78.45,199.4 77.33,204.15 69.9,203.44 
			68.91,209.09 60.57,208.51 61.54,202.86 53.19,202.29 52.15,213.44 42.89,212.99 42.53,216.71 40.64,222.51 46.53,163.86 
			48.18,162.69 155.98,190.52 163.42,172.89 191.71,184.23 196.1,189.08 188.9,202.08 259.02,235.55 262.11,237.84 237.57,269.95 
			237.17,267.27 238.56,264.3 234.44,261.25 239.03,255.07 234.01,252.15 232.63,255.11 227.7,253.1 229.88,249.11 225.88,246.96 
			228.16,243.86 224.17,241.71 220.99,244.93 217.01,242.78 222.96,233.64 218.97,231.49 215.42,238.45 213.62,238.72 
			210.71,243.73 206.72,241.58 210.28,234.62 208.22,233.1 205.64,234.4 202.61,238.53 199.65,237.14 200.9,233.28 196.91,231.14 
			195.67,234.99 191.66,232.85 190.26,235.8 188.33,235.17 		"/>
		<polygon id="Phantom_2_" class="st2" points="183.04,280.41 169.84,274.19 169.97,275.44 166.05,273.95 161,286.41 157.77,285.48 
			152.29,299.88 149.74,299.51 149.49,297 155.15,284.49 153.2,284.06 153.53,280.87 157.56,271.03 156.32,271.15 156.13,269.29 
			140.72,266.43 140.35,262.7 141.4,260.71 138.84,260.34 139.84,257.72 136.69,257.41 137.04,254.86 133.88,254.54 132.88,257.16 
			129.7,256.86 131.61,251 129.07,250.63 128.57,251.93 127.31,252.06 125.9,256.6 122.04,255.74 125.31,244.71 122.1,243.79 
			122.57,242.48 121.32,242.6 118.54,252.33 114.13,252.14 114.99,248.27 110.57,248.09 109.63,251.33 104.54,250.59 103.67,254.45 
			97.93,253.78 98.79,249.91 93.05,249.24 91.96,256.9 85.59,256.28 85.22,258.83 83.72,262.76 89.74,222.52 90.92,221.77 
			164.33,244.55 170.04,232.64 189.17,241.4 192.04,244.89 186.64,253.62 233.88,279.04 235.93,280.71 217.94,302.04 217.75,300.18 
			218.81,298.17 216.07,295.94 219.44,291.83 216.07,289.65 215.02,291.64 211.7,290.09 213.33,287.41 210.64,285.8 212.32,283.73 
			209.64,282.12 207.34,284.24 204.67,282.62 209.07,276.51 206.39,274.9 203.72,279.58 202.47,279.71 200.29,283.07 197.61,281.45 
			200.3,276.77 198.93,275.66 197.1,276.46 194.88,279.21 192.89,278.15 193.87,275.53 191.19,273.92 190.21,276.54 187.52,274.93 
			186.45,276.92 185.14,276.42 		"/>
		<polygon id="Phantom_3_" class="st1" points="107.74,299.98 100.45,297.13 100.57,297.8 98.42,297.14 96.17,303.99 94.41,303.61 
			92.01,311.51 90.63,311.4 90.41,310.07 92.98,303.18 91.92,303.02 91.98,301.3 93.77,295.89 93.12,296 92.95,295.01 84.61,294.05 
			84.27,292.07 84.76,290.97 83.38,290.86 83.82,289.42 82.12,289.37 82.21,287.99 80.51,287.94 80.08,289.38 78.37,289.33 
			79.17,286.13 77.8,286.02 77.58,286.74 76.91,286.85 76.32,289.33 74.23,289.01 75.58,283 73.82,282.62 74.03,281.9 73.37,282.02 
			72.23,287.32 69.87,287.38 70.19,285.28 67.82,285.34 67.44,287.11 64.68,286.9 64.36,288.99 61.27,288.84 61.59,286.74 
			58.49,286.59 58.19,290.73 54.76,290.63 54.66,292.01 54,294.16 55.75,272.43 56.35,271.99 96.43,281.49 99.05,274.92 
			109.59,278.9 111.25,280.66 108.68,285.53 134.86,297.39 136.02,298.21 127.18,310.27 127.01,309.28 127.51,308.17 125.96,307.07 
			127.61,304.75 125.73,303.71 125.24,304.82 123.41,304.11 124.19,302.62 122.69,301.85 123.51,300.69 122.02,299.92 
			120.86,301.14 119.38,300.37 121.51,296.95 120.02,296.18 118.76,298.78 118.1,298.9 117.05,300.77 115.56,300 116.83,297.4 
			116.06,296.86 115.11,297.35 114.02,298.91 112.92,298.41 113.35,296.98 111.86,296.21 111.43,297.65 109.93,296.88 
			109.43,297.99 108.71,297.77 		"/>
	</g>
	<g id="Clock">
		<g id="Back">
			<rect x="215.32" y="68.17" class="st1" width="80.91" height="40.46"/>
			<rect x="226.88" y="56.6" class="st1" width="57.79" height="57.79"/>
			<rect x="232.66" y="45.04" class="st1" width="46.24" height="80.91"/>
		</g>
		<g id="Outline">
			<rect x="215.32" y="68.17" class="st2" width="5.78" height="40.46"/>
			<rect x="221.1" y="108.62" class="st2" width="5.78" height="5.78"/>
			<rect x="226.88" y="114.4" class="st2" width="5.78" height="5.78"/>
			<rect x="232.66" y="120.18" class="st2" width="11.56" height="5.78"/>
			<rect x="244.22" y="125.96" class="st2" width="23.12" height="5.78"/>
			<rect x="267.34" y="120.18" class="st2" width="11.56" height="5.78"/>
			<rect x="278.9" y="114.4" class="st2" width="5.78" height="5.78"/>
			<rect x="284.67" y="108.62" class="st2" width="5.78" height="5.78"/>
			<rect x="290.45" y="68.17" class="st2" width="5.78" height="40.46"/>
			<rect x="284.67" y="56.6" class="st2" width="5.78" height="11.56"/>
			<rect x="278.9" y="50.83" class="st2" width="5.78" height="5.78"/>
			<rect x="267.34" y="45.04" class="st2" width="11.56" height="5.78"/>
			<rect x="244.22" y="39.27" class="st2" width="23.12" height="5.78"/>
			<rect x="232.66" y="45.04" class="st2" width="11.56" height="5.78"/>
			<rect x="226.88" y="50.83" class="st2" width="5.78" height="5.78"/>
			<rect x="221.1" y="56.6" class="st2" width="5.78" height="11.56"/>
			<rect x="215.32" y="97.06" class="st2" width="11.56" height="5.78"/>
			<rect x="226.88" y="102.84" class="st2" width="5.78" height="5.78"/>
			<rect x="232.66" y="108.62" class="st2" width="11.56" height="5.78"/>
			<rect x="244.22" y="114.4" class="st2" width="23.12" height="5.78"/>
			<rect x="267.34" y="108.47" class="st2" width="11.56" height="5.78"/>
			<rect x="278.9" y="102.69" class="st2" width="5.78" height="5.78"/>
			<rect x="284.67" y="96.92" class="st2" width="11.56" height="5.78"/>
		</g>
		<g id="Display">
			<rect x="226.88" y="68.17" class="st2" width="23.12" height="17.34"/>
			<rect x="232.66" y="56.6" class="st2" width="17.34" height="34.67"/>
			<rect x="232.66" y="56.6" class="st2" width="46.24" height="22.98"/>
			<rect x="244.22" y="50.83" class="st2" width="23.12" height="28.76"/>
			<rect x="261.56" y="56.6" class="st2" width="17.34" height="34.67"/>
			<rect x="261.56" y="68.02" class="st2" width="23.12" height="17.34"/>
		</g>
		<g id="Moon">
			<rect x="250" y="53.57" class="st4" width="11.56" height="5.78"/>
			<rect x="255.78" y="59.35" class="st4" width="11.56" height="11.56"/>
			<rect x="250" y="70.91" class="st4" width="11.56" height="5.78"/>
			<rect x="255.78" y="53.57" class="st4" width="5.78" height="23.12"/>
		</g>
		<text transform="matrix(0.9368 0.3499 -0.3499 0.9368 296.5218 116.4857)" class="st1 st5 st6">?</text>
		<text transform="matrix(0.9368 0.3499 -0.3499 0.9368 291.3282 74.1073)" class="st1 st5 st6">?</text>
		<text transform="matrix(0.8859 -0.4638 0.4638 0.8859 206.9982 128.9045)" class="st1 st5 st7">?</text>
		<text transform="matrix(0.8859 -0.4638 0.4638 0.8859 209.0583 80.1338)" class="st1 st5 st8">?</text>
		<text transform="matrix(0.8765 -0.4814 0.4814 0.8765 234.9968 49.1358)" class="st1 st5 st9">?</text>
		<text transform="matrix(0.929 0.3701 -0.3701 0.929 274.2487 43.9931)" class="st1 st5 st10">?</text>
	</g>
</g>
</svg>
