<?xml version="1.0" encoding="utf-8"?>
<!-- Generator: Adobe Illustrator 23.0.6, SVG Export Plug-In . SVG Version: 6.00 Build 0)  -->
<svg version="1.1" id="smelteries" xmlns="http://www.w3.org/2000/svg" xmlns:xlink="http://www.w3.org/1999/xlink" x="0px" y="0px"
	 viewBox="0 0 512 512" style="enable-background:new 0 0 512 512;" xml:space="preserve">
<style type="text/css">
	.st0{fill:#FFFFFF;}
	.st1{fill:#A1CEE2;}
	.st2{fill:#4AA0C7;}
</style>
<rect x="0" y="0" class="st0" width="512" height="512"/>
<g>
	<g id="Icon">
		<polygon class="st1" points="375.29,91.49 375.29,80.49 364.3,80.49 364.3,69.5 353.31,69.5 353.31,58.51 342.32,58.51 
			342.32,47.52 320.37,47.52 320.33,58.51 320.33,58.51 320.33,58.51 287.36,58.51 287.36,69.5 287.36,69.5 287.36,69.5 
			254.38,69.5 254.38,80.49 254.38,80.49 254.38,80.49 232.39,80.49 232.39,91.48 232.39,91.48 232.39,91.49 210.41,91.49 
			210.41,146.45 221.4,146.45 221.4,157.45 232.39,157.45 232.39,168.44 243.39,168.44 243.39,179.43 276.36,179.43 276.36,168.44 
			309.34,168.44 309.34,157.45 342.32,157.45 342.32,146.45 375.29,146.45 375.29,135.46 386.29,135.46 386.29,91.49 		"/>
		<polygon class="st2" points="413.28,285.91 413.28,263.93 391.29,263.93 391.29,241.94 369.31,241.94 369.31,241.94 
			369.31,241.94 369.31,219.95 347.32,219.95 347.32,197.96 303.45,197.96 303.35,219.95 303.35,219.95 303.35,219.95 237.4,219.95 
			237.4,241.94 237.4,241.94 237.4,241.94 171.43,241.94 171.43,263.92 171.43,263.92 171.43,263.93 127.46,263.93 127.46,285.91 
			127.46,285.91 83.49,285.91 83.49,395.84 105.48,395.84 105.48,417.82 127.46,417.82 127.46,439.8 149.45,439.8 149.45,461.8 
			215.41,461.8 215.41,439.8 281.37,439.8 281.37,417.82 347.32,417.82 347.32,395.84 413.28,395.84 413.28,373.85 435.27,373.85 
			435.27,285.91 		"/>
	</g>
	<polygon class="st1" points="155.62,113.3 155.62,91.49 133.81,91.49 133.81,113.3 112,113.3 112,135.12 133.81,135.12 
		133.81,156.93 155.62,156.93 155.62,135.12 177.44,135.12 177.44,113.3 	"/>
</g>
</svg>
