<?xml version="1.0" encoding="utf-8"?>
<!-- Generator: Adobe Illustrator 23.0.6, SVG Export Plug-In . SVG Version: 6.00 Build 0)  -->
<svg version="1.1" id="everstone" xmlns="http://www.w3.org/2000/svg" xmlns:xlink="http://www.w3.org/1999/xlink" x="0px" y="0px"
	 viewBox="0 0 512 512" style="enable-background:new 0 0 512 512;" xml:space="preserve">
<style type="text/css">
	.st0{fill:#FFFFFF;}
	.st1{fill:#7FBCD7;}
	.st2{display:none;fill:#4AA0C7;}
	.st3{fill:#4AA0C7;}
</style>
<g id="Background">
	<rect class="st0" width="512" height="512"/>
</g>
<g id="Icon">
	<g id="Particles">
		<g>
			
				<rect x="263.59" y="175.77" transform="matrix(0.2252 -0.9743 0.9743 0.2252 32.2066 399.6864)" class="st1" width="7.64" height="7.64"/>
			
				<rect x="269.93" y="184.44" transform="matrix(0.2252 -0.9743 0.9743 0.2252 29.1328 408.586)" class="st1" width="3.08" height="3.08"/>
			
				<rect x="272.33" y="174.01" transform="matrix(0.2252 -0.9743 0.9743 0.2252 41.1504 402.8505)" class="st1" width="3.08" height="3.08"/>
			
				<rect x="261.89" y="171.61" transform="matrix(0.2252 -0.9743 0.9743 0.2252 35.411 390.82)" class="st1" width="3.08" height="3.08"/>
			
				<rect x="259.51" y="182.03" transform="matrix(0.2252 -0.9743 0.9743 0.2252 23.4064 396.5725)" class="st1" width="3.08" height="3.08"/>
		</g>
		<g>
			
				<rect x="64.94" y="214.15" transform="matrix(0.2587 -0.966 0.966 0.2587 -160.0977 231.9586)" class="st1" width="12.27" height="12.27"/>
			
				<rect x="74.65" y="228.36" transform="matrix(0.2587 -0.966 0.966 0.2587 -165.7945 245.5876)" class="st1" width="4.91" height="4.91"/>
			
				<rect x="79.09" y="211.76" transform="matrix(0.2587 -0.966 0.966 0.2587 -146.4705 237.5719)" class="st1" width="4.91" height="4.91"/>
			
				<rect x="62.5" y="207.32" transform="matrix(0.2587 -0.966 0.966 0.2587 -154.4823 218.2565)" class="st1" width="4.91" height="4.91"/>
			
				<rect x="58.07" y="223.92" transform="matrix(0.2587 -0.966 0.966 0.2587 -173.8015 226.2768)" class="st1" width="4.91" height="4.91"/>
		</g>
		<g>
			
				<rect x="168.94" y="107.14" transform="matrix(0.536 -0.8442 0.8442 0.536 -13.5151 197.334)" class="st1" width="7.64" height="7.64"/>
			
				<rect x="172.92" y="116.83" transform="matrix(0.536 -0.8442 0.8442 0.536 -18.9824 202.201)" class="st1" width="3.08" height="3.08"/>
			
				<rect x="178.65" y="107.83" transform="matrix(0.536 -0.8442 0.8442 0.536 -8.7239 202.8611)" class="st1" width="3.08" height="3.08"/>
			
				<rect x="169.61" y="102.06" transform="matrix(0.536 -0.8442 0.8442 0.536 -8.0451 192.5547)" class="st1" width="3.08" height="3.08"/>
			
				<rect x="163.84" y="111.1" transform="matrix(0.536 -0.8442 0.8442 0.536 -18.3575 191.8769)" class="st1" width="3.08" height="3.08"/>
		</g>
		<g>
			
				<rect x="337.03" y="97.48" transform="matrix(0.9999 -0.0104 0.0104 0.9999 -1.0351 3.5505)" class="st1" width="7.64" height="7.64"/>
			
				<rect x="344.71" y="105.09" transform="matrix(0.9999 -0.0104 0.0104 0.9999 -1.0902 3.607)" class="st1" width="3.08" height="3.08"/>
			
				<rect x="344.62" y="94.36" transform="matrix(0.9999 -0.0104 0.0104 0.9999 -0.9786 3.6055)" class="st1" width="3.08" height="3.08"/>
			
				<rect x="333.9" y="94.5" transform="matrix(0.9999 -0.0104 0.0104 0.9999 -0.9807 3.494)" class="st1" width="3.08" height="3.08"/>
			
				<rect x="334.04" y="105.17" transform="matrix(0.9999 -0.0104 0.0104 0.9999 -1.0916 3.496)" class="st1" width="3.08" height="3.08"/>
		</g>
		<g>
			
				<rect x="337.2" y="380.65" transform="matrix(0.2252 -0.9743 0.9743 0.2252 -110.3778 630.1483)" class="st1" width="7.64" height="7.64"/>
			
				<rect x="343.54" y="389.32" transform="matrix(0.2252 -0.9743 0.9743 0.2252 -113.4517 639.0478)" class="st1" width="3.08" height="3.08"/>
			
				<rect x="345.94" y="378.89" transform="matrix(0.2252 -0.9743 0.9743 0.2252 -101.4341 633.3124)" class="st1" width="3.08" height="3.08"/>
			
				<rect x="335.51" y="376.5" transform="matrix(0.2252 -0.9743 0.9743 0.2252 -107.1778 621.2949)" class="st1" width="3.08" height="3.08"/>
			
				<rect x="333.11" y="386.92" transform="matrix(0.2252 -0.9743 0.9743 0.2252 -119.1918 627.0278)" class="st1" width="3.08" height="3.08"/>
		</g>
		<g>
			
				<rect x="427.91" y="169.02" transform="matrix(0.2587 -0.966 0.966 0.2587 152.5717 549.1179)" class="st1" width="12.27" height="12.27"/>
			
				<rect x="437.64" y="183.23" transform="matrix(0.2587 -0.966 0.966 0.2587 146.8826 562.7634)" class="st1" width="4.91" height="4.91"/>
			
				<rect x="442.07" y="166.63" transform="matrix(0.2587 -0.966 0.966 0.2587 166.2026 554.7397)" class="st1" width="4.91" height="4.91"/>
			
				<rect x="425.47" y="162.2" transform="matrix(0.2587 -0.966 0.966 0.2587 158.1783 535.417)" class="st1" width="4.91" height="4.91"/>
			
				<rect x="421.04" y="178.79" transform="matrix(0.2587 -0.966 0.966 0.2587 138.867 543.4334)" class="st1" width="4.91" height="4.91"/>
		</g>
		<g>
			
				<rect x="238.97" y="275.5" transform="matrix(0.536 -0.8442 0.8442 0.536 -123.1546 334.5677)" class="st1" width="7.64" height="7.64"/>
			
				<rect x="242.93" y="285.18" transform="matrix(0.536 -0.8442 0.8442 0.536 -128.6212 339.425)" class="st1" width="3.08" height="3.08"/>
			
				<rect x="248.69" y="276.18" transform="matrix(0.536 -0.8442 0.8442 0.536 -118.3523 340.1055)" class="st1" width="3.08" height="3.08"/>
			
				<rect x="239.63" y="270.41" transform="matrix(0.536 -0.8442 0.8442 0.536 -117.6828 329.7831)" class="st1" width="3.08" height="3.08"/>
			
				<rect x="233.85" y="279.45" transform="matrix(0.536 -0.8442 0.8442 0.536 -127.9964 329.1009)" class="st1" width="3.08" height="3.08"/>
		</g>
		<g>
			
				<rect x="174.41" y="395.9" transform="matrix(0.9999 -0.0104 0.0104 0.9999 -4.1477 1.8753)" class="st1" width="7.64" height="7.64"/>
			
				<rect x="182.09" y="403.51" transform="matrix(0.9999 -0.0104 0.0104 0.9999 -4.2028 1.9318)" class="st1" width="3.08" height="3.08"/>
			
				<rect x="182" y="392.78" transform="matrix(0.9999 -0.0104 0.0104 0.9999 -4.0912 1.9302)" class="st1" width="3.08" height="3.08"/>
			
				<rect x="171.28" y="392.92" transform="matrix(0.9999 -0.0104 0.0104 0.9999 -4.0932 1.8188)" class="st1" width="3.08" height="3.08"/>
			
				<rect x="171.42" y="403.6" transform="matrix(0.9999 -0.0104 0.0104 0.9999 -4.2043 1.8208)" class="st1" width="3.08" height="3.08"/>
		</g>
	</g>
	<g id="Baby_Animals">
		<polygon id="Baby_Sheep" class="st2" points="139.48,160.24 139.48,171.95 124.75,163.63 111.15,171.57 111.15,200.65 
			112.32,200.94 112.28,215.39 114.55,216.15 114.93,232.01 124.37,236.93 134.57,232.01 134.57,227.1 139.1,229.37 142.12,228.24 
			142.12,230.5 144.77,231.63 144.77,247.12 154.6,252.04 164.79,247.12 164.79,242.21 169.71,244.48 179.9,239.57 179.9,224.08 
			182.17,222.57 182.17,219.16 184.82,220.3 214.66,205.19 215.04,168.54 210.51,166.65 210.51,160.24 179.15,144.74 		"/>
		<polygon id="_Baby_Horse" class="st3" points="227.04,357.61 226.48,382.15 220.76,386.72 220.43,392.2 212.78,398.7 
			201.93,396.42 197.37,350.2 192.8,353.62 194.51,350.2 192.8,350.77 190.52,349.05 189.38,350.77 188.24,349.62 188.24,348.48 
			185.38,350.77 183.1,347.92 185.96,345.06 185.96,343.92 183.1,343.35 196.23,323.95 195.65,314.81 216.77,305.11 254.44,313.1 
			263,261.73 265.28,261.73 266.99,254.32 273.27,253.18 276.7,254.32 276.7,252.6 280.69,252.04 286.97,253.18 285.26,262.88 
			309.8,270.87 309.23,272.58 329.2,279.43 321.78,303.97 310.94,308.54 298.39,303.4 288.11,345.63 285.83,345.63 285.83,353.05 
			284.68,353.62 283.55,399.27 279.55,405.55 270.99,403.84 270.42,408.98 264.71,416.39 251.01,411.83 256.72,365.61 		"/>
		<polygon id="Baby_Wolf" class="st3" points="324.5,209 317,212.5 313.5,210.5 313.5,214.5 306.5,218 299.5,214.5 299.5,185.5 
			294,182.5 294,158.5 276,150 276,141 283,138 307.42,149.08 315.5,145.5 343.5,159.5 348,157 348,155 362.5,148 369,151.5 
			369,154.5 376.5,151 376.5,140.5 391,133.5 398,137 398,154.5 412.5,162 412.5,199 423,204.5 423,231 401.5,241.5 380,231 
			369,236 359,231 356.5,232 353,230.5 353,234.5 346,237.5 339,234 339,208.5 324.5,201.5 		"/>
		<polygon id="Baby_Pig_1_" class="st3" points="177.82,246.77 222.46,224.42 222.46,167.79 177.54,145.5 133.25,167.51 
			133.25,169.16 107.24,181.45 107.18,206.55 104.21,207.93 103.79,228.63 115.18,234.43 126.21,229.04 126.35,222.15 
			132.22,225.94 133.67,224.28 138.35,226.76 138.22,245.6 149.54,251.6 160.77,245.88 160.77,240.15 166.5,242.64 168.99,241.26 		
			"/>
	</g>
</g>
</svg>
