<?xml version="1.0" encoding="utf-8"?>
<!-- Generator: Adobe Illustrator 23.0.6, SVG Export Plug-In . SVG Version: 6.00 Build 0)  -->
<svg version="1.1" id="lightning_in_a_bottle" xmlns="http://www.w3.org/2000/svg" xmlns:xlink="http://www.w3.org/1999/xlink"
	 x="0px" y="0px" viewBox="0 0 512 512" style="enable-background:new 0 0 512 512;" xml:space="preserve">
<style type="text/css">
	.st0{fill:#FFFFFF;}
	.st1{fill:#4AA0C7;}
	.st2{fill:#7FBCD7;}
	.st3{fill:#7DBBD7;}
</style>
<g id="Background">
	<rect class="st0" width="512" height="512"/>
</g>
<g id="Icon">
	<g id="potion">
		<rect x="155.5" y="338.5" class="st1" width="14.6" height="101.5"/>
		<rect x="155.5" y="425.5" class="st1" width="29.1" height="14.5"/>
		<rect x="170" y="440" class="st1" width="28.9" height="14.4"/>
		<rect x="170" y="425.5" class="st1" width="14.4" height="29"/>
		<rect x="199" y="454.4" class="st1" width="116.1" height="14.6"/>
		<rect x="315" y="440" class="st1" width="29" height="14.4"/>
		<rect x="329.4" y="425.5" class="st1" width="14.5" height="29"/>
		<rect x="329.4" y="425.5" class="st1" width="29.1" height="14.5"/>
		<rect x="344" y="338.5" class="st1" width="14.5" height="101.5"/>
		<rect x="315" y="323.9" class="st1" width="29" height="14.6"/>
		<rect x="315" y="309.5" class="st1" width="14.4" height="29"/>
		<rect x="285.9" y="295" class="st1" width="29.1" height="14.5"/>
		<rect x="271.5" y="224.5" class="st1" width="14.4" height="70.4"/>
		<rect x="199" y="207.9" class="st1" width="116.1" height="29.1"/>
		<rect x="228" y="179" class="st1" width="57.9" height="35.2"/>
		<rect x="228" y="224.5" class="st1" width="14.4" height="70.4"/>
		<rect x="199" y="295" class="st1" width="29" height="14.5"/>
		<rect x="184.5" y="309.5" class="st1" width="14.5" height="29"/>
		<rect x="170" y="323.9" class="st1" width="28.9" height="14.6"/>
		<rect x="228" y="309.5" class="st2" width="14.4" height="29"/>
		<rect x="213.5" y="338.5" class="st2" width="14.5" height="43.5"/>
		<rect x="271.5" y="425.5" class="st2" width="14.4" height="29"/>
		<rect x="285.9" y="381.9" class="st2" width="14.5" height="43.5"/>
	</g>
	<g id="layer1_1_">
		<g id="g4380">
			<path id="path4273-4-2" class="st3" d="M129.5,154.9l28-36l19.7,174.6l-31.2-125.3l-29.5,34.4l-6-198.3L129.5,154.9z"/>
		</g>
	</g>
	<g id="layer1_2_">
		<g id="g4380_1_">
			<path id="path4273-4-2-4" class="st3" d="M109.7,379.5l14-18.8l12,89.8l-17.5-64.3l-14.8,18.1l-5.2-102.1L109.7,379.5z"/>
		</g>
	</g>
	<g id="layer1_3_">
		<g id="g4380_2_">
			<path id="path4273-4-2-4-3" class="st3" d="M371.1,175.1L348,142.9l-22.8,150.8L356.4,186l24.5,30.7L392.7,45L371.1,175.1z"/>
		</g>
	</g>
	<g id="layer1_4_">
		<g id="g4380_3_">
			<path id="path4273-4-2_1_" class="st3" d="M390.5,344.2l15.4-5.3L377.7,395l15.1-43.6l-15.6,4.5l37-60.6L390.5,344.2z"/>
		</g>
	</g>
	<g id="layer1_5_">
		<g id="g4380_4_">
			<path id="path4273-4-2_2_" class="st3" d="M255.8,125.9l10.3-5.8l-12.6,43.8l5-33.1l-10.5,5.3l18.3-48.1L255.8,125.9z"/>
		</g>
	</g>
</g>
</svg>
