<?xml version="1.0" encoding="utf-8"?>
<!-- Generator: Adobe Illustrator 23.0.6, SVG Export Plug-In . SVG Version: 6.00 Build 0)  -->
<svg version="1.1" id="particles_pack" xmlns="http://www.w3.org/2000/svg" xmlns:xlink="http://www.w3.org/1999/xlink" x="0px"
	 y="0px" viewBox="0 0 512 512" style="enable-background:new 0 0 512 512;" xml:space="preserve">
<style type="text/css">
	.st0{fill:#FFFFFF;}
	.st1{fill:#4AA0C7;}
	.st2{fill:#96CCEB;}
	.st3{fill:#4AA0C7;fill-opacity:0;}
</style>
<rect x="0" y="0" class="st0" width="512" height="512"/>
<g id="Icon">
	<g id="Particles">
		<g id="Particle_2_">
			<polygon class="st1" points="278,276.01 275.26,277.49 273.82,274.75 276.52,273.3 			"/>
			<polygon class="st1" points="282.13,277.23 279.43,278.72 277.98,275.97 280.69,274.53 			"/>
			<polygon class="st1" points="276.75,280.12 274.01,281.56 272.56,278.82 275.27,277.37 			"/>
			<polygon class="st1" points="273.84,274.74 271.1,276.18 269.65,273.47 272.39,271.99 			"/>
			<polygon class="st1" points="279.27,271.83 276.53,273.31 275.08,270.56 277.83,269.12 			"/>
		</g>
		<g id="Particle_4_">
			
				<rect x="327.88" y="360.05" transform="matrix(0.701 -0.7132 0.7132 0.701 -159.354 343.0046)" class="st1" width="2.97" height="2.97"/>
			<polygon class="st1" points="331.49,365.63 329.44,367.76 327.31,365.69 329.36,363.57 			"/>
			<polygon class="st1" points="327.33,361.53 325.25,363.65 323.13,361.57 325.18,359.45 			"/>
			
				<rect x="327.85" y="355.88" transform="matrix(0.701 -0.7132 0.7132 0.701 -156.3868 341.7364)" class="st1" width="2.97" height="2.97"/>
			<polygon class="st1" points="335.61,361.45 333.54,363.58 331.42,361.5 333.5,359.38 			"/>
		</g>
		<g id="Particle_5_">
			<rect x="308.89" y="287.03" class="st1" width="2.41" height="2.41"/>
			<rect x="311.27" y="289.41" class="st1" width="2.4" height="2.41"/>
			<rect x="306.53" y="289.4" class="st1" width="2.37" height="2.37"/>
			<rect x="306.55" y="284.69" class="st1" width="2.4" height="2.41"/>
			<rect x="311.29" y="284.67" class="st1" width="2.41" height="2.37"/>
		</g>
		<g id="Particle_6_">
			<polygon class="st1" points="357.2,249.87 356.47,251.09 355.25,250.34 356.01,249.12 			"/>
			
				<rect x="355.99" y="251.25" transform="matrix(0.5167 -0.8562 0.8562 0.5167 -43.3264 427.1728)" class="st1" width="1.42" height="1.42"/>
			<polygon class="st1" points="355.31,250.32 354.55,251.54 353.34,250.78 354.11,249.59 			"/>
			<polygon class="st1" points="356.75,247.93 356.01,249.12 354.81,248.39 355.54,247.18 			"/>
			<polygon class="st1" points="359.16,249.39 358.4,250.6 357.19,249.87 357.96,248.66 			"/>
		</g>
		<g id="Particle_9_">
			<polygon class="st1" points="421.49,337.57 420.75,338.99 419.33,338.26 420.07,336.85 			"/>
			<polygon class="st1" points="422.16,339.7 421.41,341.11 420,340.38 420.74,338.97 			"/>
			<polygon class="st1" points="419.38,338.27 418.65,339.68 417.22,338.95 417.96,337.54 			"/>
			<polygon class="st1" points="420.81,335.46 420.08,336.87 418.66,336.14 419.4,334.73 			"/>
			
				<rect x="421.72" y="336.43" transform="matrix(0.4563 -0.8898 0.8898 0.4563 -70.355 559.3145)" class="st1" width="1.59" height="1.59"/>
		</g>
		<g id="Particle_10_">
			<polygon class="st1" points="403.29,300.27 402.64,301.34 401.56,300.68 402.2,299.61 			"/>
			
				<rect x="402.18" y="301.61" transform="matrix(0.5201 -0.8541 0.8541 0.5201 -64.84 489.0845)" class="st1" width="1.26" height="1.26"/>
			<polygon class="st1" points="401.57,300.68 400.92,301.79 399.85,301.14 400.5,300.07 			"/>
			<polygon class="st1" points="402.81,298.57 402.16,299.65 401.08,299.03 401.74,297.96 			"/>
			<polygon class="st1" points="404.92,299.78 404.29,300.85 403.2,300.24 403.85,299.16 			"/>
		</g>
		<g id="Particle_12_">
			<polygon class="st1" points="270.74,423.31 268.38,425.07 266.61,422.69 268.98,420.93 			"/>
			<polygon class="st1" points="270.13,427.41 267.74,429.17 265.98,426.79 268.37,425.03 			"/>
			<polygon class="st1" points="266.64,422.63 264.25,424.39 262.48,422.03 264.88,420.26 			"/>
			<polygon class="st1" points="271.36,419.21 268.96,420.98 267.2,418.58 269.6,416.82 			"/>
			
				<rect x="271.31" y="422.13" transform="matrix(0.8058 -0.5922 0.5922 0.8058 -197.8865 243.8209)" class="st1" width="2.98" height="2.98"/>
		</g>
		<g id="Particle_13_">
			<polygon class="st1" points="347.13,464.54 345.61,464.68 345.46,463.17 346.98,463.02 			"/>
			<polygon class="st1" points="348.75,465.86 347.24,466.01 347.11,464.51 348.6,464.38 			"/>
			<polygon class="st1" points="345.76,466.14 344.25,466.29 344.13,464.77 345.61,464.62 			"/>
			<polygon class="st1" points="345.5,463.18 344,463.33 343.85,461.81 345.37,461.67 			"/>
			<polygon class="st1" points="348.48,462.88 346.97,463.03 346.82,461.54 348.34,461.4 			"/>
		</g>
		<g id="Particle_14_">
			<polygon class="st1" points="358.98,440.01 357.54,440.62 356.95,439.2 358.37,438.59 			"/>
			<polygon class="st1" points="358.19,442.01 356.77,442.62 356.14,441.18 357.58,440.59 			"/>
			<polygon class="st1" points="356.97,439.23 355.56,439.85 354.94,438.43 356.38,437.82 			"/>
			<polygon class="st1" points="359.78,438 358.36,438.61 357.75,437.19 359.18,436.58 			"/>
			<polygon class="st1" points="360.99,440.8 359.57,441.42 358.94,440 360.38,439.39 			"/>
		</g>
		<g id="Particle_15_">
			<polygon class="st1" points="371.15,447.42 370.27,448.74 368.95,447.84 369.83,446.54 			"/>
			<polygon class="st1" points="371.56,449.5 370.67,450.8 369.36,449.92 370.24,448.61 			"/>
			
				<rect x="367.15" y="447.25" transform="matrix(0.5508 -0.8347 0.8347 0.5508 -208.6763 508.3876)" class="st1" width="1.6" height="1.6"/>
			<polygon class="st1" points="370.67,445.17 369.78,446.5 368.48,445.62 369.36,444.29 			"/>
			<polygon class="st1" points="373.36,446.9 372.48,448.23 371.14,447.34 372.02,446.02 			"/>
		</g>
		<g id="Particle_16_">
			
				<rect x="362.55" y="377.77" transform="matrix(0.5332 -0.846 0.846 0.5332 -150.5491 483.7518)" class="st1" width="1.06" height="1.06"/>
			<polygon class="st1" points="364.14,379.66 363.57,380.56 362.66,379.97 363.24,379.07 			"/>
			<polygon class="st1" points="362.37,378.48 361.79,379.38 360.87,378.81 361.47,377.91 			"/>
			<polygon class="st1" points="363.45,376.71 362.89,377.61 361.99,377.03 362.56,376.11 			"/>
			
				<rect x="363.95" y="377.47" transform="matrix(0.533 -0.8461 0.8461 0.533 -149.6217 484.9116)" class="st1" width="1.06" height="1.06"/>
		</g>
		<g id="Particle_17_">
			<rect x="471.09" y="303.55" class="st1" width="16.73" height="10.24"/>
			<rect x="474.47" y="300.17" class="st1" width="9.99" height="16.8"/>
		</g>
		<g id="Particle_18_">
			<polygon class="st1" points="391.25,350.27 374.61,351.84 373.63,341.61 390.27,340.03 			"/>
			<polygon class="st1" points="388.21,353.73 378.27,354.68 376.69,337.94 386.63,337.01 			"/>
		</g>
		<g id="Particle_19_">
			<rect x="375.49" y="293.12" class="st1" width="8.26" height="5.08"/>
			<rect x="377.14" y="291.48" class="st1" width="4.98" height="8.3"/>
		</g>
		<g id="Particle_20_">
			<polygon class="st1" points="474.19,277.32 466.15,282.2 463.16,277.23 471.21,272.39 			"/>
			<polygon class="st1" points="473.51,279.77 468.7,282.66 463.8,274.59 468.6,271.69 			"/>
		</g>
		<g id="Particle_21_">
			<polygon class="st1" points="394.78,418.25 391.78,421.02 387.27,416.12 390.29,413.36 			"/>
			<polygon class="st1" points="394.88,416.39 389.95,420.9 387.25,418 392.17,413.47 			"/>
		</g>
		<g id="Particle_22_">
			<polygon class="st1" points="322.4,429.95 313.57,433.93 311.13,428.51 319.98,424.53 			"/>
			<polygon class="st1" points="321.42,432.42 316.14,434.81 312.14,425.92 317.42,423.55 			"/>
		</g>
		<g id="Particle_23_">
			<polygon class="st1" points="241.62,478.25 234.03,485.21 229.76,480.54 237.35,473.6 			"/>
			<polygon class="st1" points="241.4,481.11 236.86,485.26 229.89,477.63 234.41,473.48 			"/>
		</g>
		<g id="Particle_24_">
			<polygon class="st1" points="412.18,429.91 404.89,435.21 401.61,430.73 408.92,425.41 			"/>
			<polygon class="st1" points="411.68,432.38 407.31,435.55 401.95,428.21 406.32,425.03 			"/>
		</g>
		<g id="Particle_3_">
			<polygon class="st1" points="461.93,360.85 455.75,361.97 454.63,355.77 460.82,354.67 			"/>
			<polygon class="st1" points="464.33,362.46 462.28,362.84 461.92,360.79 463.97,360.43 			"/>
			<polygon class="st1" points="462.85,354.3 460.82,354.66 460.43,352.6 462.49,352.24 			"/>
			<polygon class="st1" points="454.72,355.76 452.67,356.13 452.3,354.09 454.35,353.7 			"/>
			<polygon class="st1" points="456.13,363.95 454.07,364.32 453.71,362.26 455.76,361.89 			"/>
		</g>
		<g id="Particle_7_">
			<polygon class="st1" points="429.22,298.57 420.85,299.57 419.88,291.2 428.23,290.24 			"/>
			<polygon class="st1" points="432.3,300.98 429.53,301.31 429.2,298.53 431.98,298.2 			"/>
			<polygon class="st1" points="431,289.92 428.22,290.26 427.91,287.48 430.67,287.15 			"/>
			<polygon class="st1" points="419.89,291.21 417.12,291.54 416.79,288.76 419.57,288.43 			"/>
			<polygon class="st1" points="421.23,302.23 418.47,302.56 418.15,299.79 420.92,299.45 			"/>
		</g>
		<g id="Particle_8_">
			<polygon class="st1" points="347.65,317.44 343.01,322.31 338.19,317.7 342.79,312.85 			"/>
			<polygon class="st1" points="344.64,323.77 343.11,325.39 341.51,323.87 343.01,322.26 			"/>
			<polygon class="st1" points="350.71,317.4 349.21,319 347.57,317.47 349.11,315.86 			"/>
			<polygon class="st1" points="344.32,311.27 342.78,312.87 341.18,311.34 342.71,309.73 			"/>
			<polygon class="st1" points="338.22,317.67 336.68,319.31 335.08,317.77 336.61,316.16 			"/>
		</g>
		<g id="Particle_25_">
			<polygon class="st1" points="390.36,253.8 384.59,254.79 383.59,249.02 389.35,248.04 			"/>
			<polygon class="st1" points="392.58,255.38 390.68,255.72 390.35,253.8 392.26,253.47 			"/>
			<polygon class="st1" points="391.24,247.75 389.33,248.07 389,246.16 390.91,245.84 			"/>
			<polygon class="st1" points="383.59,249.07 381.68,249.39 381.36,247.49 383.25,247.16 			"/>
			<polygon class="st1" points="384.94,256.67 383.02,257.01 382.69,255.08 384.6,254.76 			"/>
		</g>
		<g id="Particle_26_">
			<polygon class="st1" points="324.81,275.29 320.07,275.95 319.41,271.21 324.19,270.54 			"/>
			<polygon class="st1" points="326.61,276.65 325.04,276.86 324.8,275.28 326.38,275.08 			"/>
			<polygon class="st1" points="325.75,270.36 324.18,270.56 323.94,268.99 325.51,268.78 			"/>
			<polygon class="st1" points="319.46,271.19 317.89,271.4 317.64,269.83 319.22,269.62 			"/>
			
				<rect x="318.55" y="276.03" transform="matrix(0.9914 -0.1307 0.1307 0.9914 -33.4417 44.1144)" class="st1" width="1.59" height="1.59"/>
		</g>
		<g id="Particle_27_">
			<polygon class="st1" points="316.94,399.52 306.73,404.55 301.7,394.31 311.95,389.31 			"/>
			<polygon class="st1" points="321.91,401.24 318.5,402.91 316.85,399.51 320.22,397.86 			"/>
			<polygon class="st1" points="315.27,387.71 311.86,389.36 310.21,385.99 313.59,384.31 			"/>
			<polygon class="st1" points="301.71,394.35 298.34,396.01 296.66,392.63 300.07,390.95 			"/>
			<polygon class="st1" points="308.35,407.85 304.97,409.5 303.29,406.13 306.7,404.44 			"/>
		</g>
		<g id="Particle_28_">
			<polygon class="st1" points="283.1,480.09 277.46,483.81 273.72,478.16 279.39,474.43 			"/>
			<polygon class="st1" points="286.22,480.7 284.34,481.93 283.11,480.06 284.99,478.82 			"/>
			<polygon class="st1" points="281.24,473.22 279.39,474.47 278.16,472.6 280,471.36 			"/>
			<polygon class="st1" points="273.82,478.16 271.94,479.39 270.71,477.52 272.59,476.29 			"/>
			<polygon class="st1" points="278.74,485.61 276.86,486.84 275.62,484.98 277.51,483.74 			"/>
		</g>
		<g id="Particle_29_">
			<polygon class="st1" points="440.78,393.6 437.93,402.2 429.34,399.34 432.2,390.75 			"/>
			<polygon class="st1" points="440.74,403.13 439.77,405.97 436.93,405.02 437.88,402.16 			"/>
			<polygon class="st1" points="444.54,391.8 443.59,394.64 440.75,393.71 441.68,390.86 			"/>
			<polygon class="st1" points="433.13,388 432.2,390.88 429.36,389.91 430.3,387.07 			"/>
			<polygon class="st1" points="429.41,399.3 428.48,402.14 425.61,401.21 426.58,398.35 			"/>
		</g>
		<g id="Particle_56_">
			<polygon class="st1" points="177.88,478.08 175.26,479.74 173.6,477.14 176.21,475.46 			"/>
			<polygon class="st1" points="173.71,477.12 171.11,478.77 169.45,476.16 172.05,474.51 			"/>
			<polygon class="st1" points="178.89,473.84 176.28,475.49 174.62,472.9 177.23,471.23 			"/>
			<polygon class="st1" points="182.11,478.98 179.51,480.66 177.85,478.04 180.45,476.38 			"/>
			<polygon class="st1" points="176.93,482.3 174.33,483.98 172.68,481.37 175.28,479.69 			"/>
		</g>
		<g id="Particle_55_">
			<polygon class="st1" points="196.13,310.79 194.47,313.25 192.01,311.61 193.66,309.15 			"/>
			<polygon class="st1" points="200.2,309.96 198.54,312.43 196.08,310.78 197.74,308.32 			"/>
			<polygon class="st1" points="196.87,314.83 195.21,317.29 192.75,315.64 194.41,313.19 			"/>
			<polygon class="st1" points="192.05,311.56 190.39,314.04 187.93,312.36 189.59,309.91 			"/>
			<polygon class="st1" points="195.32,306.67 193.67,309.14 191.21,307.47 192.86,305.01 			"/>
		</g>
		<g id="Particle_54_">
			<polygon class="st1" points="139.32,329.59 136.97,330.02 136.53,327.67 138.89,327.23 			"/>
			<polygon class="st1" points="141.24,326.84 138.88,327.26 138.45,324.92 140.81,324.47 			"/>
			<polygon class="st1" points="142.07,331.55 139.72,331.97 139.28,329.63 141.64,329.18 			"/>
			<polygon class="st1" points="137.42,332.33 135.07,332.78 134.64,330.41 136.99,329.99 			"/>
			<polygon class="st1" points="136.58,327.66 134.23,328.1 133.79,325.75 136.15,325.31 			"/>
		</g>
		<g id="Particle_53_">
			<polygon class="st1" points="243.81,358.19 243.06,359.4 241.84,358.67 242.59,357.46 			"/>
			<polygon class="st1" points="241.89,358.65 241.15,359.84 239.93,359.11 240.68,357.89 			"/>
			<polygon class="st1" points="243.35,356.26 242.61,357.47 241.4,356.74 242.15,355.53 			"/>
			<polygon class="st1" points="245.74,357.7 245,358.92 243.78,358.19 244.53,356.97 			"/>
			<polygon class="st1" points="244.26,360.1 243.51,361.31 242.32,360.56 243.05,359.35 			"/>
		</g>
		<g id="Particle_52_">
			
				<rect x="152.94" y="449.83" transform="matrix(0.4556 -0.8902 0.8902 0.4556 -317.4442 382.1706)" class="st1" width="1.59" height="1.59"/>
			<polygon class="st1" points="152.66,450.96 151.92,452.37 150.5,451.65 151.24,450.23 			"/>
			<polygon class="st1" points="154.08,448.18 153.35,449.61 151.93,448.87 152.66,447.46 			"/>
			<polygon class="st1" points="156.88,449.64 156.16,451.06 154.73,450.33 155.47,448.91 			"/>
			<polygon class="st1" points="155.45,452.46 154.71,453.88 153.29,453.15 154.03,451.73 			"/>
		</g>
		<g id="Particle_51_">
			<polygon class="st1" points="193.31,404.27 192.67,405.37 191.6,404.73 192.23,403.65 			"/>
			<polygon class="st1" points="191.61,404.76 190.98,405.83 189.89,405.2 190.54,404.11 			"/>
			<polygon class="st1" points="192.89,402.61 192.24,403.68 191.17,403.03 191.8,401.96 			"/>
			<polygon class="st1" points="195.02,403.92 194.39,405.02 193.3,404.38 193.95,403.31 			"/>
			<polygon class="st1" points="193.71,406.02 193.08,407.11 191.99,406.47 192.64,405.4 			"/>
		</g>
		<g id="Particle_50_">
			<polygon class="st1" points="36.83,245.31 34.44,247.08 32.67,244.7 35.06,242.92 			"/>
			<polygon class="st1" points="32.75,244.75 30.38,246.53 28.61,244.14 30.99,242.37 			"/>
			
				<rect x="33.97" y="239.47" transform="matrix(0.804 -0.5947 0.5947 0.804 -136.3365 68.3147)" class="st1" width="2.96" height="2.96"/>
			<polygon class="st1" points="40.92,245.93 38.54,247.69 36.77,245.31 39.15,243.55 			"/>
			<polygon class="st1" points="36.25,249.47 33.87,251.23 32.1,248.85 34.49,247.08 			"/>
		</g>
		<g id="Particle_49_">
			<polygon class="st1" points="75.38,360.58 74.61,361.87 73.31,361.1 74.09,359.79 			"/>
			<polygon class="st1" points="75.91,362.6 75.14,363.92 73.84,363.13 74.62,361.85 			"/>
			<polygon class="st1" points="73.34,361.05 72.56,362.37 71.26,361.57 72.04,360.29 			"/>
			<polygon class="st1" points="74.86,358.53 74.09,359.81 72.79,359.05 73.57,357.73 			"/>
			<polygon class="st1" points="77.44,360.01 76.67,361.32 75.37,360.53 76.15,359.25 			"/>
		</g>
		<g id="Particle_48_">
			<polygon class="st1" points="223.89,265.49 223.82,267.04 222.28,266.99 222.34,265.43 			"/>
			<polygon class="st1" points="225.47,264.03 225.4,265.58 223.87,265.49 223.92,263.94 			"/>
			<polygon class="st1" points="225.32,267.09 225.27,268.64 223.71,268.59 223.78,267.04 			"/>
			<polygon class="st1" points="222.29,266.98 222.22,268.49 220.67,268.44 220.74,266.88 			"/>
			<polygon class="st1" points="222.41,263.89 222.34,265.44 220.8,265.39 220.86,263.84 			"/>
		</g>
		<g id="Particle_47_">
			<polygon class="st1" points="46.43,371.94 45.54,373.26 44.22,372.38 45.1,371.05 			"/>
			<polygon class="st1" points="44.27,372.4 43.39,373.74 42.06,372.86 42.95,371.52 			"/>
			<polygon class="st1" points="46.03,369.78 45.14,371.12 43.82,370.24 44.7,368.9 			"/>
			<polygon class="st1" points="48.68,371.56 47.8,372.9 46.48,372.02 47.36,370.68 			"/>
			<polygon class="st1" points="46.9,374.16 46.02,375.5 44.69,374.62 45.58,373.28 			"/>
		</g>
		<g id="Particle_46_">
			<polygon class="st1" points="197.62,323.02 196.69,323.57 196.14,322.67 197.05,322.12 			"/>
			
				<rect x="196.67" y="320.91" transform="matrix(0.8538 -0.5206 0.5206 0.8538 -138.5108 149.6551)" class="st1" width="1.06" height="1.06"/>
			<polygon class="st1" points="199.05,323.39 198.15,323.94 197.58,323.04 198.5,322.49 			"/>
			<polygon class="st1" points="197.28,324.46 196.35,325.02 195.8,324.11 196.71,323.56 			"/>
			<polygon class="st1" points="196.15,322.69 195.25,323.24 194.68,322.34 195.6,321.78 			"/>
		</g>
		<g id="Particle_45_">
			<polygon class="st1" points="127.34,457.7 110.68,458.98 109.9,448.75 126.56,447.46 			"/>
			<polygon class="st1" points="124.22,461.31 114.26,462.09 112.97,445.33 122.94,444.57 			"/>
		</g>
		<g id="Particle_44_">
			<polygon class="st1" points="136.03,405.05 125.81,406 124.24,389.36 134.45,388.4 			"/>
			<polygon class="st1" points="139.02,401.39 122.3,402.98 121.35,393.02 138.07,391.44 			"/>
		</g>
		<g id="Particle_43_">
			<rect x="194.73" y="377.64" class="st1" width="5.08" height="8.26"/>
			<rect x="193.15" y="379.32" class="st1" width="8.32" height="4.94"/>
		</g>
		<g id="Particle_42_">
			<polygon class="st1" points="204.82,466.04 197.18,471.54 193.81,466.84 201.47,461.36 			"/>
			<polygon class="st1" points="204.36,468.76 199.77,472.04 194.27,464.34 198.85,461.07 			"/>
		</g>
		<g id="Particle_41_">
			
				<rect x="88.92" y="365.35" transform="matrix(0.7349 -0.6782 0.6782 0.7349 -224.7059 159.9613)" class="st1" width="6.65" height="4.08"/>
			<polygon class="st1" points="95.97,368.55 93.04,371.25 88.52,366.31 91.44,363.63 			"/>
		</g>
		<g id="Particle_40_">
			<polygon class="st1" points="282.46,332.17 282.29,338.11 272.63,337.85 272.8,331.91 			"/>
			<polygon class="st1" points="280.54,330.23 280.29,339.97 274.51,339.81 274.76,330.07 			"/>
		</g>
		<g id="Particle_39_">
			<polygon class="st1" points="36.95,345.52 26.72,346.63 26.04,340.35 36.27,339.25 			"/>
			<polygon class="st1" points="35.1,347.69 28.99,348.37 27.87,338.07 33.98,337.4 			"/>
		</g>
		<g id="Particle_38_">
			<polygon class="st1" points="91.9,311.76 91.87,317.28 82.85,317.25 82.87,311.7 			"/>
			<polygon class="st1" points="90.1,309.94 90.06,319.02 84.66,319 84.7,309.92 			"/>
		</g>
		<g id="Particle_37_">
			<polygon class="st1" points="165.7,406.93 159.61,408.51 158.03,402.43 164.12,400.85 			"/>
			<polygon class="st1" points="158.13,402.43 156.11,402.96 155.59,400.92 157.61,400.4 			"/>
			<polygon class="st1" points="160.19,410.48 158.17,411 157.65,408.96 159.66,408.44 			"/>
			
				<rect x="165.94" y="406.6" transform="matrix(0.9678 -0.2519 0.2519 0.9678 -97.2977 55.205)" class="st1" width="2.08" height="2.1"/>
			<polygon class="st1" points="166.14,400.36 164.13,400.88 163.6,398.85 165.62,398.34 			"/>
		</g>
		<g id="Particle_36_">
			<polygon class="st1" points="229.56,428.55 221.28,430.16 219.67,421.9 227.93,420.29 			"/>
			<polygon class="st1" points="219.73,421.92 216.99,422.46 216.45,419.73 219.19,419.19 			"/>
			<polygon class="st1" points="221.86,432.85 219.11,433.39 218.57,430.64 221.33,430.11 			"/>
			<polygon class="st1" points="232.8,430.75 230.05,431.29 229.51,428.54 232.27,428.01 			"/>
			<polygon class="st1" points="230.7,419.8 227.95,420.34 227.41,417.61 230.16,417.05 			"/>
		</g>
		<g id="Particle_35_">
			
				<rect x="157.5" y="287.71" transform="matrix(0.546 -0.8378 0.8378 0.546 -170.8217 266.9021)" class="st1" width="6.69" height="6.7"/>
			<polygon class="st1" points="168.52,289.38 167.31,291.22 165.45,290 166.66,288.17 			"/>
			<polygon class="st1" points="161.08,284.56 159.87,286.44 158.01,285.22 159.23,283.35 			"/>
			<polygon class="st1" points="156.27,292.01 155.06,293.85 153.2,292.64 154.42,290.8 			"/>
			<polygon class="st1" points="163.68,296.8 162.47,298.67 160.61,297.46 161.81,295.59 			"/>
		</g>
		<g id="Particle_34_">
			<polygon class="st1" points="244.87,391.5 239.1,392.51 238.11,386.74 243.86,385.76 			"/>
			<polygon class="st1" points="239.48,394.4 237.57,394.73 237.25,392.82 239.15,392.48 			"/>
			<polygon class="st1" points="247.08,393.05 245.17,393.38 244.86,391.47 246.75,391.14 			"/>
			<polygon class="st1" points="245.78,385.46 243.87,385.78 243.55,383.88 245.44,383.54 			"/>
			<polygon class="st1" points="238.19,386.74 236.29,387.08 235.96,385.16 237.87,384.83 			"/>
		</g>
		<g id="Particle_33_">
			<polygon class="st1" points="124.11,321.08 119.55,322.55 118.06,318 122.61,316.52 			"/>
			<polygon class="st1" points="124.1,316.02 122.59,316.52 122.09,315 123.61,314.5 			"/>
			<polygon class="st1" points="118.03,318 116.53,318.5 116.04,317 117.54,316.51 			"/>
			<polygon class="st1" points="120.06,324.05 118.55,324.55 118.06,323.03 119.56,322.53 			"/>
			<polygon class="st1" points="126.05,322.1 124.54,322.56 124.05,321.08 125.55,320.57 			"/>
		</g>
		<g id="Particle_32_">
			<polygon class="st1" points="251.87,322.56 240.49,322.64 240.42,311.25 251.81,311.17 			"/>
			<polygon class="st1" points="240.48,311.3 236.69,311.31 236.67,307.52 240.45,307.5 			"/>
			<polygon class="st1" points="240.53,326.36 236.76,326.38 236.75,322.63 240.52,322.6 			"/>
			
				<rect x="251.86" y="322.51" transform="matrix(1 -3.899941e-03 3.899941e-03 1 -1.2632 0.9921)" class="st1" width="3.77" height="3.79"/>
			
				<rect x="251.77" y="307.47" transform="matrix(1 -4.399916e-03 4.399916e-03 1 -1.3587 1.1191)" class="st1" width="3.77" height="3.79"/>
		</g>
		<g id="Particle_31_">
			<polygon class="st1" points="36.61,291.99 30.98,295.7 27.25,290.06 32.9,286.32 			"/>
			<polygon class="st1" points="32.23,297.52 30.36,298.75 29.13,296.91 31,295.67 			"/>
			
				<rect x="36.96" y="291.12" transform="matrix(0.8362 -0.5484 0.5484 0.8362 -154.0308 68.75)" class="st1" width="2.25" height="2.25"/>
			<polygon class="st1" points="34.76,285.12 32.89,286.35 31.66,284.5 33.53,283.27 			"/>
			<polygon class="st1" points="27.29,290.02 25.41,291.28 24.18,289.41 26.05,288.17 			"/>
		</g>
		<g id="Particle_30_">
			<polygon class="st1" points="73.68,405.61 70.82,414.19 62.24,411.34 65.09,402.75 			"/>
			<polygon class="st1" points="62.3,411.26 61.36,414.12 58.51,413.16 59.45,410.33 			"/>
			<polygon class="st1" points="73.65,415.06 72.7,417.9 69.85,416.97 70.8,414.12 			"/>
			<polygon class="st1" points="77.49,403.75 76.55,406.63 73.7,405.66 74.64,402.82 			"/>
			<polygon class="st1" points="66.1,399.95 65.16,402.8 62.32,401.83 63.26,398.99 			"/>
		</g>
		<g id="Particle_83_">
			<polygon class="st1" points="84.89,284.47 81.88,285.17 81.17,282.13 84.18,281.43 			"/>
			<polygon class="st1" points="81.26,282.2 78.25,282.91 77.54,279.87 80.55,279.16 			"/>
			<polygon class="st1" points="87.21,280.84 84.19,281.54 83.49,278.54 86.5,277.83 			"/>
			<polygon class="st1" points="88.54,286.77 85.53,287.47 84.83,284.47 87.84,283.76 			"/>
			<polygon class="st1" points="82.59,288.17 79.58,288.87 78.87,285.86 81.89,285.12 			"/>
		</g>
		<g id="Particle_82_">
			
				<rect x="246.96" y="225.92" transform="matrix(0.4712 -0.882 0.882 0.4712 -69.1989 339.3768)" class="st1" width="2.97" height="2.97"/>
			
				<rect x="250.94" y="224.71" transform="matrix(0.4712 -0.882 0.882 0.4712 -66.0278 342.2536)" class="st1" width="2.97" height="2.97"/>
			
				<rect x="248.11" y="229.85" transform="matrix(0.471 -0.8821 0.8821 0.471 -72.0323 342.5461)" class="st1" width="2.97" height="2.97"/>
			<polygon class="st1" points="246.49,227.98 245.09,230.59 242.49,229.2 243.89,226.59 			"/>
			
				<rect x="245.75" y="221.9" transform="matrix(0.4712 -0.882 0.882 0.4712 -66.2918 336.1903)" class="st1" width="2.97" height="2.97"/>
		</g>
		<g id="Particle_81_">
			<polygon class="st1" points="221.53,214.39 219.49,215.64 218.25,213.59 220.3,212.35 			"/>
			<polygon class="st1" points="222.38,211.11 220.32,212.35 219.08,210.29 221.12,209.05 			"/>
			<polygon class="st1" points="224.82,215.19 222.77,216.44 221.53,214.38 223.57,213.14 			"/>
			<polygon class="st1" points="220.77,217.66 218.73,218.89 217.49,216.84 219.53,215.6 			"/>
			<polygon class="st1" points="218.24,213.64 216.19,214.88 214.96,212.83 217,211.59 			"/>
		</g>
		<g id="Particle_80_">
			<polygon class="st1" points="186.43,364.76 185.59,365.91 184.44,365.06 185.29,363.94 			"/>
			<polygon class="st1" points="186.77,366.7 185.93,367.84 184.78,367 185.61,365.87 			"/>
			<polygon class="st1" points="184.5,365.03 183.65,366.2 182.51,365.35 183.34,364.19 			"/>
			<polygon class="st1" points="186.17,362.77 185.32,363.94 184.18,363.09 185.02,361.93 			"/>
			<polygon class="st1" points="188.43,364.44 187.59,365.57 186.44,364.73 187.27,363.6 			"/>
		</g>
		<g id="Particle_79_">
			<polygon class="st1" points="129.97,152.75 128.9,153.92 127.72,152.86 128.79,151.68 			"/>
			<polygon class="st1" points="129.87,150.49 128.79,151.67 127.62,150.59 128.69,149.42 			"/>
			<polygon class="st1" points="132.21,152.6 131.14,153.79 129.96,152.72 131.03,151.54 			"/>
			<polygon class="st1" points="130.09,154.94 129.01,156.11 127.83,155.04 128.91,153.86 			"/>
			<polygon class="st1" points="127.76,152.84 126.69,154.01 125.51,152.94 126.59,151.76 			"/>
		</g>
		<g id="Particle_78_">
			<polygon class="st1" points="133.89,207.39 132.99,208.26 132.12,207.37 133.01,206.49 			"/>
			
				<rect x="132.39" y="204.97" transform="matrix(0.7152 -0.6989 0.6989 0.7152 -105.8136 151.5172)" class="st1" width="1.25" height="1.25"/>
			
				<rect x="134.13" y="206.79" transform="matrix(0.7166 -0.6975 0.6975 0.7166 -106.4812 152.7775)" class="st1" width="1.26" height="1.26"/>
			
				<rect x="132.34" y="208.5" transform="matrix(0.7135 -0.7006 0.7006 0.7135 -108.4249 153.0664)" class="st1" width="1.25" height="1.25"/>
			
				<rect x="130.59" y="206.74" transform="matrix(0.7131 -0.701 0.701 0.7131 -107.7311 151.4733)" class="st1" width="1.25" height="1.25"/>
		</g>
		<g id="Particle_77_">
			
				<rect x="215.53" y="128.25" transform="matrix(0.9889 -0.1484 0.1484 0.9889 -16.8498 33.6429)" class="st1" width="2.97" height="2.97"/>
			
				<rect x="218.03" y="124.93" transform="matrix(0.9888 -0.1493 0.1493 0.9888 -16.4134 34.1897)" class="st1" width="2.96" height="2.97"/>
			
				<rect x="218.85" y="130.74" transform="matrix(0.9887 -0.1498 0.1498 0.9887 -17.3211 34.4989)" class="st1" width="2.98" height="2.97"/>
			
				<rect x="213.06" y="131.59" transform="matrix(0.9886 -0.1503 0.1503 0.9886 -17.5633 33.7598)" class="st1" width="2.98" height="2.96"/>
			<polygon class="st1" points="215.35,128.53 212.42,128.97 211.98,126.03 214.91,125.59 			"/>
		</g>
		<g id="Particle_76_">
			<polygon class="st1" points="183.38,45.8 181.88,45.94 181.73,44.43 183.23,44.3 			"/>
			<polygon class="st1" points="181.75,44.47 180.25,44.61 180.12,43.1 181.62,42.96 			"/>
			<polygon class="st1" points="184.73,44.22 183.22,44.36 183.09,42.85 184.59,42.71 			"/>
			<polygon class="st1" points="185.01,47.16 183.5,47.3 183.36,45.8 184.86,45.65 			"/>
			<polygon class="st1" points="182.01,47.44 180.51,47.58 180.37,46.07 181.88,45.94 			"/>
		</g>
		<g id="Particle_75_">
			<polygon class="st1" points="161.51,88.45 161.4,89.99 159.85,89.86 159.97,88.32 			"/>
			<polygon class="st1" points="163.16,87.04 163.03,88.58 161.49,88.46 161.61,86.91 			"/>
			<polygon class="st1" points="162.91,90.13 162.79,91.68 161.24,91.55 161.36,90 			"/>
			<polygon class="st1" points="159.86,89.85 159.74,91.39 158.19,91.27 158.31,89.73 			"/>
			<polygon class="st1" points="160.11,86.79 159.98,88.33 158.44,88.21 158.56,86.66 			"/>
		</g>
		<g id="Particle_74_">
			<polygon class="st1" points="154.84,76.77 153.44,77.53 152.68,76.13 154.08,75.37 			"/>
			<polygon class="st1" points="155.42,74.65 154.02,75.41 153.27,74.01 154.67,73.25 			"/>
			<polygon class="st1" points="156.95,77.44 155.55,78.19 154.79,76.79 156.19,76.04 			"/>
			
				<rect x="152.29" y="77.79" transform="matrix(0.8803 -0.4744 0.4744 0.8803 -18.9593 82.0297)" class="st1" width="1.59" height="1.59"/>
			<polygon class="st1" points="152.66,76.13 151.26,76.89 150.49,75.48 151.89,74.73 			"/>
		</g>
		<g id="Particle_73_">
			
				<rect x="196.29" y="144.45" transform="matrix(0.7385 -0.6743 0.6743 0.7385 -46.2856 170.631)" class="st1" width="1.07" height="1.07"/>
			<polygon class="st1" points="197.63,143.59 196.84,144.32 196.13,143.53 196.92,142.81 			"/>
			<polygon class="st1" points="199.05,145.09 198.26,145.81 197.54,145.02 198.33,144.3 			"/>
			
				<rect x="196.22" y="145.92" transform="matrix(0.7384 -0.6744 0.6744 0.7384 -47.2908 171.0068)" class="st1" width="1.07" height="1.07"/>
			<polygon class="st1" points="196.07,144.95 195.28,145.67 194.57,144.88 195.36,144.16 			"/>
		</g>
		<g id="Particle_72_">
			<polygon class="st1" points="56.66,194.69 54.01,204.6 37.87,200.28 40.52,190.38 			"/>
			<polygon class="st1" points="54.22,190.76 49.88,207 40.23,204.41 44.57,188.19 			"/>
		</g>
		<g id="Particle_71_">
			<polygon class="st1" points="97.46,92.13 95.76,102.24 79.28,99.47 80.98,89.35 			"/>
			
				<rect x="79.95" y="90.87" transform="matrix(0.1662 -0.9861 0.9861 0.1662 -20.869 167.0509)" class="st1" width="16.8" height="9.99"/>
		</g>
		<g id="Particle_70_">
			<polygon class="st1" points="158.35,216.53 157.04,221.43 149.04,219.29 150.35,214.38 			"/>
			<polygon class="st1" points="157.15,214.57 155.01,222.6 150.22,221.34 152.38,213.3 			"/>
		</g>
		<g id="Particle_69_">
			
				<rect x="77.75" y="232.14" transform="matrix(0.9601 -0.2798 0.2798 0.9601 -62.4661 32.4582)" class="st1" width="9.41" height="5.79"/>
			<polygon class="st1" points="86.51,238.8 81.11,240.37 78.46,231.31 83.86,229.73 			"/>
		</g>
		<g id="Particle_68_">
			<polygon class="st1" points="134.34,76.87 131.34,79.64 126.85,74.75 129.84,71.98 			"/>
			
				<rect x="127.23" y="73.85" transform="matrix(0.7352 -0.6778 0.6778 0.7352 -16.8324 108.5838)" class="st1" width="6.69" height="3.98"/>
		</g>
		<g id="Particle_67_">
			
				<rect x="236.38" y="90.88" transform="matrix(0.9119 -0.4103 0.4103 0.9119 -17.2676 107.2395)" class="st1" width="9.68" height="5.94"/>
			<polygon class="st1" points="245.88,97.15 240.61,99.52 236.61,90.65 241.9,88.28 			"/>
		</g>
		<g id="Particle_66_">
			<polygon class="st1" points="224.15,63.39 214.18,65.97 212.6,59.86 222.56,57.27 			"/>
			<polygon class="st1" points="222.7,65.89 216.74,67.43 214.16,57.42 220.11,55.87 			"/>
		</g>
		<g id="Particle_65_">
			<polygon class="st1" points="247.18,35.31 239.89,40.63 236.64,36.14 243.93,30.83 			"/>
			<polygon class="st1" points="246.79,37.84 242.43,41.01 237.09,33.67 241.46,30.49 			"/>
		</g>
		<g id="Particle_64_">
			
				<rect x="64.62" y="144.67" transform="matrix(0.0837 -0.9965 0.9965 0.0837 -85.2056 202.9664)" class="st1" width="6.28" height="6.29"/>
			
				<rect x="62.94" y="142.29" transform="matrix(0.0829 -0.9966 0.9966 0.0829 -84.1597 195.2131)" class="st1" width="2.09" height="2.08"/>
			
				<rect x="62.22" y="150.59" transform="matrix(0.0833 -0.9965 0.9965 0.0833 -93.1104 202.0478)" class="st1" width="2.09" height="2.08"/>
			
				<rect x="70.52" y="151.28" transform="matrix(0.0831 -0.9965 0.9965 0.0831 -86.1801 210.9782)" class="st1" width="2.09" height="2.09"/>
			
				<rect x="71.22" y="143.01" transform="matrix(0.0834 -0.9965 0.9965 0.0834 -77.326 204.0461)" class="st1" width="2.08" height="2.09"/>
		</g>
		<g id="Particle_63_">
			<polygon class="st1" points="112.26,180.5 111.05,188.84 102.71,187.63 103.92,179.29 			"/>
			<polygon class="st1" points="104.37,176.57 103.97,179.35 101.21,178.94 101.61,176.17 			"/>
			<polygon class="st1" points="102.76,187.65 102.36,190.41 99.6,190.01 100,187.24 			"/>
			<polygon class="st1" points="113.8,189.25 113.39,192.01 110.63,191.61 111.03,188.84 			"/>
			<polygon class="st1" points="115.39,178.21 114.99,180.97 112.23,180.58 112.63,177.8 			"/>
		</g>
		<g id="Particle_62_">
			
				<rect x="188.47" y="196.9" transform="matrix(0.4579 -0.889 0.889 0.4579 -74.0328 279.0864)" class="st1" width="6.7" height="6.7"/>
			<polygon class="st1" points="199.25,197.85 198.24,199.83 196.26,198.8 197.28,196.84 			"/>
			<polygon class="st1" points="191.4,193.79 190.38,195.75 188.4,194.74 189.42,192.76 			"/>
			<polygon class="st1" points="187.34,201.65 186.34,203.62 184.35,202.61 185.38,200.63 			"/>
			<polygon class="st1" points="195.2,205.7 194.18,207.69 192.21,206.66 193.22,204.68 			"/>
		</g>
		<g id="Particle_61_">
			
				<rect x="132.26" y="255.82" transform="matrix(0.0904 -0.9959 0.9959 0.0904 -134.7123 369.9761)" class="st1" width="5.85" height="5.84"/>
			
				<rect x="130.73" y="253.57" transform="matrix(0.0904 -0.9959 0.9959 0.0904 -133.7043 362.6885)" class="st1" width="1.93" height="1.93"/>
			
				<rect x="130.05" y="261.26" transform="matrix(0.0909 -0.9959 0.9959 0.0909 -142.0334 368.8677)" class="st1" width="1.94" height="1.94"/>
			
				<rect x="137.77" y="261.98" transform="matrix(0.0899 -0.996 0.996 0.0899 -135.6191 377.4935)" class="st1" width="1.94" height="1.94"/>
			
				<rect x="138.49" y="254.26" transform="matrix(0.0909 -0.9959 0.9959 0.0909 -127.3939 370.9129)" class="st1" width="1.94" height="1.94"/>
		</g>
		<g id="Particle_60_">
			
				<rect x="201.11" y="252" transform="matrix(0.1254 -0.9921 0.9921 0.1254 -74.4071 424.3985)" class="st1" width="4.79" height="4.8"/>
			<polygon class="st1" points="201.66,250.21 201.47,251.78 199.89,251.57 200.08,250 			"/>
			<polygon class="st1" points="200.85,256.48 200.64,258.07 199.07,257.88 199.28,256.28 			"/>
			<polygon class="st1" points="207.16,257.25 206.95,258.83 205.38,258.63 205.59,257.06 			"/>
			<polygon class="st1" points="207.94,250.96 207.73,252.54 206.16,252.34 206.37,250.77 			"/>
		</g>
		<g id="Particle_59_">
			<polygon class="st1" points="176.22,172.48 165.99,177.51 160.98,167.28 171.2,162.25 			"/>
			
				<rect x="156.62" y="164.52" transform="matrix(0.8978 -0.4403 0.4403 0.8978 -57.0825 86.7955)" class="st1" width="3.78" height="3.78"/>
			
				<rect x="163.27" y="178.04" transform="matrix(0.8971 -0.4418 0.4418 0.8971 -62.4976 91.4763)" class="st1" width="3.77" height="3.76"/>
			
				<rect x="176.82" y="171.42" transform="matrix(0.8976 -0.4409 0.4409 0.8976 -58.1019 96.5413)" class="st1" width="3.77" height="3.77"/>
			
				<rect x="170.18" y="157.95" transform="matrix(0.8971 -0.4419 0.4419 0.8971 -52.9173 92.4807)" class="st1" width="3.76" height="3.77"/>
		</g>
		<g id="Particle_58_">
			<polygon class="st1" points="291.72,42.14 285.01,42.79 284.35,36.06 291.08,35.42 			"/>
			<polygon class="st1" points="284.38,36.1 282.18,36.32 281.94,34.09 284.18,33.88 			"/>
			<polygon class="st1" points="285.24,45.01 283,45.22 282.79,42.99 285.03,42.78 			"/>
			<polygon class="st1" points="294.14,44.13 291.9,44.34 291.69,42.11 293.93,41.9 			"/>
			<polygon class="st1" points="293.29,35.25 291.05,35.47 290.85,33.23 293.09,33.02 			"/>
		</g>
		<g id="Particle_57_">
			<polygon class="st1" points="168.74,117.06 163.76,124.61 156.2,119.64 161.18,112.08 			"/>
			<polygon class="st1" points="162.82,109.64 161.17,112.14 158.66,110.5 160.31,107.98 			"/>
			<polygon class="st1" points="156.26,119.63 154.61,122.14 152.11,120.49 153.76,117.98 			"/>
			<polygon class="st1" points="166.24,126.24 164.59,128.74 162.1,127.09 163.74,124.59 			"/>
			<polygon class="st1" points="172.83,116.26 171.19,118.76 168.68,117.11 170.33,114.61 			"/>
		</g>
		<g id="Particle_110_">
			<polygon class="st1" points="268.46,107.71 265.76,109.16 264.27,106.43 267.02,104.98 			"/>
			<polygon class="st1" points="269.71,103.63 267,105.08 265.56,102.36 268.26,100.9 			"/>
			<polygon class="st1" points="272.58,109.02 269.83,110.48 268.39,107.75 271.09,106.3 			"/>
			<polygon class="st1" points="267.2,111.81 264.46,113.26 263.02,110.53 265.76,109.07 			"/>
			<polygon class="st1" points="264.34,106.48 261.6,107.93 260.15,105.21 262.86,103.75 			"/>
		</g>
		<g id="Particle_109_">
			<polygon class="st1" points="359.02,217.32 356.94,219.43 354.83,217.35 356.9,215.24 			"/>
			<polygon class="st1" points="363.13,217.26 361.07,219.38 358.93,217.31 361.01,215.18 			"/>
			<polygon class="st1" points="359.03,221.45 356.95,223.57 354.83,221.5 356.91,219.37 			"/>
			<polygon class="st1" points="354.86,217.35 352.78,219.46 350.66,217.4 352.74,215.27 			"/>
			<polygon class="st1" points="358.94,213.14 356.88,215.26 354.74,213.2 356.82,211.06 			"/>
		</g>
		<g id="Particle_108_">
			<rect x="297.43" y="223.13" class="st1" width="2.37" height="2.4"/>
			<rect x="299.77" y="220.77" class="st1" width="2.41" height="2.41"/>
			<rect x="299.75" y="225.51" class="st1" width="2.41" height="2.4"/>
			<rect x="295.04" y="225.49" class="st1" width="2.41" height="2.41"/>
			<rect x="295.03" y="220.75" class="st1" width="2.41" height="2.39"/>
		</g>
		<g id="Particle_107_">
			<polygon class="st1" points="261.42,177.94 260.68,179.14 259.47,178.41 260.2,177.19 			"/>
			<polygon class="st1" points="263.36,177.49 262.62,178.69 261.41,177.96 262.14,176.75 			"/>
			<polygon class="st1" points="261.89,179.87 261.12,181.09 259.91,180.34 260.68,179.13 			"/>
			<polygon class="st1" points="259.5,178.42 258.77,179.63 257.56,178.89 258.29,177.69 			"/>
			<polygon class="st1" points="260.94,176.02 260.21,177.22 259,176.48 259.73,175.27 			"/>
		</g>
		<g id="Particle_106_">
			<polygon class="st1" points="348.85,131.96 348.1,133.38 346.68,132.65 347.43,131.24 			"/>
			<polygon class="st1" points="350.99,131.31 350.27,132.72 348.86,131.99 349.58,130.58 			"/>
			<polygon class="st1" points="349.58,134.09 348.84,135.51 347.43,134.78 348.17,133.36 			"/>
			<polygon class="st1" points="346.77,132.65 346.03,134.06 344.6,133.34 345.36,131.91 			"/>
			
				<rect x="346.34" y="129.39" transform="matrix(0.4556 -0.8902 0.8902 0.4556 73.0916 379.8946)" class="st1" width="1.59" height="1.59"/>
		</g>
		<g id="Particle_105_">
			<polygon class="st1" points="311.76,131.82 311.1,132.9 310.03,132.26 310.65,131.18 			"/>
			
				<rect x="311.9" y="130.97" transform="matrix(0.5148 -0.8573 0.8573 0.5148 38.8263 331.7839)" class="st1" width="1.26" height="1.25"/>
			<polygon class="st1" points="312.14,133.52 311.49,134.6 310.42,133.96 311.07,132.88 			"/>
			<polygon class="st1" points="310.02,132.28 309.37,133.35 308.3,132.72 308.94,131.63 			"/>
			<polygon class="st1" points="311.28,130.1 310.63,131.17 309.56,130.53 310.21,129.45 			"/>
		</g>
		<g id="Particle_104_">
			<polygon class="st1" points="442.52,245.57 440.13,247.34 438.36,244.96 440.76,243.18 			"/>
			<polygon class="st1" points="446.57,246.2 444.2,247.96 442.42,245.58 444.81,243.82 			"/>
			
				<rect x="438.32" y="247.82" transform="matrix(0.803 -0.596 0.596 0.803 -61.9351 311.2342)" class="st1" width="2.96" height="2.96"/>
			<polygon class="st1" points="438.43,244.93 436.05,246.71 434.29,244.31 436.67,242.55 			"/>
			<polygon class="st1" points="443.09,241.43 440.72,243.21 438.95,240.81 441.33,239.05 			"/>
		</g>
		<g id="Particle_103_">
			<polygon class="st1" points="473.8,204.1 472.29,204.23 472.14,202.73 473.66,202.58 			"/>
			<polygon class="st1" points="475.1,202.5 473.6,202.65 473.46,201.15 474.96,201 			"/>
			<polygon class="st1" points="475.41,205.43 473.89,205.56 473.76,204.06 475.26,203.93 			"/>
			<polygon class="st1" points="472.42,205.7 470.9,205.83 470.76,204.32 472.27,204.19 			"/>
			<polygon class="st1" points="472.13,202.72 470.64,202.85 470.5,201.35 472.01,201.22 			"/>
		</g>
		<g id="Particle_102_">
			<polygon class="st1" points="451.02,176.87 449.58,177.48 448.98,176.06 450.4,175.44 			"/>
			<polygon class="st1" points="453,177.65 451.58,178.27 450.95,176.84 452.37,176.23 			"/>
			<polygon class="st1" points="450.2,178.85 448.79,179.47 448.16,178.05 449.58,177.44 			"/>
			<polygon class="st1" points="448.98,176.06 447.57,176.67 446.94,175.25 448.36,174.64 			"/>
			<polygon class="st1" points="451.82,174.87 450.41,175.48 449.8,174.05 451.22,173.44 			"/>
		</g>
		<g id="Particle_101_">
			
				<rect x="457.2" y="163.54" transform="matrix(0.5547 -0.8321 0.8321 0.5547 67.2186 454.2593)" class="st1" width="1.59" height="1.59"/>
			<polygon class="st1" points="461.27,163.77 460.39,165.09 459.07,164.21 459.95,162.88 			"/>
			<polygon class="st1" points="459.5,166.37 458.62,167.69 457.28,166.8 458.18,165.48 			"/>
			<polygon class="st1" points="456.89,164.6 456,165.93 454.68,165.04 455.57,163.72 			"/>
			<polygon class="st1" points="458.62,161.97 457.74,163.29 456.4,162.41 457.28,161.09 			"/>
		</g>
		<g id="Particle_100_">
			<polygon class="st1" points="388.32,177.43 387.76,178.33 386.86,177.75 387.43,176.85 			"/>
			<polygon class="st1" points="389.77,177.16 389.18,178.06 388.29,177.48 388.85,176.58 			"/>
			<polygon class="st1" points="388.63,178.93 388.07,179.82 387.16,179.26 387.74,178.34 			"/>
			<polygon class="st1" points="386.9,177.77 386.33,178.67 385.44,178.09 386,177.19 			"/>
			<polygon class="st1" points="388.03,175.96 387.44,176.85 386.55,176.29 387.11,175.38 			"/>
		</g>
		<g id="Particle_99_">
			<rect x="318.68" y="49.49" class="st1" width="10.27" height="16.71"/>
			<rect x="315.32" y="52.85" class="st1" width="16.8" height="9.99"/>
		</g>
		<g id="Particle_98_">
			
				<rect x="380.35" y="138.43" transform="matrix(0.9956 -0.0939 0.0939 0.9956 -12.0799 36.8446)" class="st1" width="10.27" height="16.71"/>
			<polygon class="st1" points="394.2,151.01 377.46,152.59 376.53,142.63 393.24,141.05 			"/>
		</g>
		<g id="Particle_97_">
			<rect x="327.01" y="157.41" class="st1" width="5.08" height="8.28"/>
			<rect x="325.32" y="159.07" class="st1" width="8.33" height="4.95"/>
		</g>
		<g id="Particle_96_">
			<polygon class="st1" points="322.68,97.39 317.75,100.39 312.87,92.35 317.8,89.35 			"/>
			<polygon class="st1" points="323.22,94.84 315.14,99.74 312.21,94.93 320.31,90.03 			"/>
		</g>
		<g id="Particle_95_">
			<polygon class="st1" points="428.97,153.22 424.08,157.73 421.32,154.72 426.22,150.23 			"/>
			<polygon class="st1" points="428.87,155.01 425.93,157.7 421.4,152.78 424.34,150.09 			"/>
		</g>
		<g id="Particle_94_">
			<polygon class="st1" points="450.1,117.41 444.7,119.85 440.73,111.02 446.14,108.58 			"/>
			<polygon class="st1" points="451,114.89 442.14,118.9 439.75,113.61 448.63,109.62 			"/>
		</g>
		<g id="Particle_93_">
			<polygon class="st1" points="459.83,213.15 455.15,217.42 448.22,209.82 452.87,205.55 			"/>
			<polygon class="st1" points="459.9,210.27 452.29,217.26 448.13,212.72 455.76,205.74 			"/>
		</g>
		<g id="Particle_92_">
			<polygon class="st1" points="483.11,225.82 478.62,229.08 473.32,221.78 477.8,218.52 			"/>
			<polygon class="st1" points="483.43,223.35 476.09,228.68 472.91,224.31 480.25,218.98 			"/>
		</g>
		<g id="Particle_91_">
			<polygon class="st1" points="370.8,84.38 364.62,85.49 363.49,79.31 369.7,78.19 			"/>
			<polygon class="st1" points="371.71,77.88 369.69,78.25 369.31,76.2 371.35,75.82 			"/>
			
				<rect x="361.33" y="77.45" transform="matrix(0.9846 -0.1749 0.1749 0.9846 -8.1425 64.5875)" class="st1" width="2.09" height="2.08"/>
			
				<rect x="362.74" y="85.64" transform="matrix(0.9844 -0.1759 0.1759 0.9844 -9.5751 65.3414)" class="st1" width="2.09" height="2.08"/>
			<polygon class="st1" points="373.2,86.06 371.14,86.43 370.78,84.38 372.84,84.01 			"/>
		</g>
		<g id="Particle_90_">
			<polygon class="st1" points="296.2,132.64 287.82,133.62 286.83,125.25 295.2,124.26 			"/>
			
				<rect x="295.03" y="121.38" transform="matrix(0.9932 -0.1166 0.1166 0.9932 -12.2936 35.4001)" class="st1" width="2.8" height="2.79"/>
			<polygon class="st1" points="286.9,125.28 284.12,125.6 283.79,122.83 286.57,122.5 			"/>
			<polygon class="st1" points="288.18,136.34 285.4,136.67 285.07,133.89 287.85,133.57 			"/>
			<polygon class="st1" points="299.23,135.04 296.45,135.37 296.12,132.59 298.9,132.27 			"/>
		</g>
		<g id="Particle_89_">
			<polygon class="st1" points="308.71,185.93 304.12,190.78 299.25,186.18 303.89,181.31 			"/>
			<polygon class="st1" points="311.82,185.85 310.29,187.45 308.69,185.93 310.22,184.32 			"/>
			<polygon class="st1" points="305.38,179.74 303.88,181.36 302.25,179.82 303.78,178.22 			"/>
			<polygon class="st1" points="299.28,186.18 297.78,187.78 296.16,186.26 297.68,184.64 			"/>
			<polygon class="st1" points="305.7,192.26 304.16,193.88 302.56,192.34 304.1,190.74 			"/>
		</g>
		<g id="Particle_88_">
			<polygon class="st1" points="265.14,149.84 259.38,150.84 258.41,145.07 264.17,144.08 			"/>
			<polygon class="st1" points="266.08,143.77 264.16,144.11 263.83,142.19 265.74,141.87 			"/>
			<polygon class="st1" points="258.44,145.1 256.53,145.43 256.2,143.53 258.11,143.19 			"/>
			<polygon class="st1" points="259.79,152.75 257.88,153.07 257.54,151.17 259.45,150.84 			"/>
			<polygon class="st1" points="267.37,151.43 265.46,151.76 265.12,149.86 267.03,149.52 			"/>
		</g>
		<g id="Particle_87_">
			<polygon class="st1" points="286.3,214.38 281.56,215.04 280.9,210.28 285.68,209.63 			"/>
			<polygon class="st1" points="287.26,209.45 285.69,209.65 285.45,208.08 287.02,207.87 			"/>
			
				<rect x="279.23" y="208.86" transform="matrix(0.9913 -0.1319 0.1319 0.9913 -25.2056 38.7658)" class="st1" width="1.59" height="1.59"/>
			<polygon class="st1" points="281.84,216.57 280.26,216.79 280.02,215.22 281.59,215 			"/>
			<polygon class="st1" points="288.06,215.7 286.49,215.93 286.28,214.36 287.85,214.13 			"/>
		</g>
		<g id="Particle_86_">
			<polygon class="st1" points="413.46,207.69 403.22,212.71 398.22,202.48 408.43,197.46 			"/>
			<polygon class="st1" points="411.81,195.89 408.42,197.55 406.76,194.16 410.15,192.5 			"/>
			<polygon class="st1" points="398.26,202.46 394.88,204.12 393.2,200.73 396.6,199.07 			"/>
			<polygon class="st1" points="404.92,216.06 401.54,217.72 399.86,214.34 403.26,212.68 			"/>
			<polygon class="st1" points="418.41,209.44 415.03,211.1 413.35,207.71 416.77,206.04 			"/>
		</g>
		<g id="Particle_85_">
			<polygon class="st1" points="491.63,259.88 485.98,263.59 482.27,257.95 487.92,254.25 			"/>
			<polygon class="st1" points="489.78,253.05 487.9,254.28 486.66,252.42 488.55,251.19 			"/>
			<polygon class="st1" points="482.35,257.96 480.48,259.19 479.25,257.35 481.12,256.1 			"/>
			<polygon class="st1" points="487.25,265.41 485.38,266.64 484.15,264.76 486.02,263.53 			"/>
			<polygon class="st1" points="494.69,260.5 492.83,261.73 491.6,259.85 493.46,258.62 			"/>
		</g>
		<g id="Particle_84_">
			<polygon class="st1" points="405.79,92.01 402.95,100.6 394.36,97.74 397.21,89.16 			"/>
			<polygon class="st1" points="409.55,90.15 408.59,93 405.76,92.05 406.69,89.2 			"/>
			<polygon class="st1" points="398.22,86.36 397.26,89.2 394.42,88.25 395.37,85.41 			"/>
			<polygon class="st1" points="394.41,97.73 393.48,100.57 390.61,99.62 391.58,96.78 			"/>
			<polygon class="st1" points="405.76,101.48 404.81,104.33 401.96,103.38 402.91,100.53 			"/>
		</g>
	</g>
	<g id="g4163" transform="matrix(1.185274,0,0,1.185274,-72.009407,-188.13069)">
		<g id="g4255">
			<g id="g4159" transform="matrix(1.1260453,0,0,1.1260453,-48.017414,-76.478829)">
				<path id="rect4156" class="st1" d="M237.03,477.62h89.5l19.31,53.21v12.31H217.72v-13.02L237.03,477.62z"/>
				<path id="rect4153" class="st2" d="M244.11,480.78h75.84l12.87,45.35h-101.6L244.11,480.78z"/>
			</g>
			<path id="rect4147" class="st1" d="M278.1,380.52l-17.39,0.04l-0.73,111.93l-19.81-0.08l-0.39-111.83l-11.4,0.01V357.6l2.52-1.01
				l7.3,0.07v-65.25h-26.04l-5.55-2.08v-32.56h52.91v-62.15h20.7v62.15h51.84v32.56l-5.65,2.08h-25.8v66.31h-22.89v-66.31h-18.58
				v65.01l48.72,0.07l2.46,1.09l-0.07,22.92l-11.36,0.01l0.98,112.06l-20.77-0.14L278.1,380.52z"/>
			<path id="rect4150" class="st3" d="M218.28,461.75h101.27l21.74,58.83v14.05H197.56v-15.01L218.28,461.75z"/>
		</g>
	</g>
</g>
<g id="Particle_1_">
	<polygon class="st1" points="359.29,409.51 357.23,411.64 355.09,409.57 357.17,407.44 	"/>
	<polygon class="st1" points="359.37,413.64 357.29,415.76 355.17,413.68 357.24,411.56 	"/>
	<polygon class="st1" points="355.18,409.51 353.1,411.64 350.98,409.57 353.06,407.45 	"/>
	<polygon class="st1" points="359.26,405.37 357.18,407.5 355.06,405.42 357.14,403.3 	"/>
	
		<rect x="359.92" y="408.01" transform="matrix(0.7007 -0.7135 0.7135 0.7007 -183.9915 380.4227)" class="st1" width="2.97" height="2.97"/>
</g>
</svg>
