<?xml version="1.0" encoding="utf-8"?>
<!-- Generator: Adobe Illustrator 23.0.6, SVG Export Plug-In . SVG Version: 6.00 Build 0)  -->
<svg version="1.1"
	 id="tower_structures" xmlns:cc="http://creativecommons.org/ns#" xmlns:dc="http://purl.org/dc/elements/1.1/" xmlns:inkscape="http://www.inkscape.org/namespaces/inkscape" xmlns:rdf="http://www.w3.org/1999/02/22-rdf-syntax-ns#" xmlns:sodipodi="http://sodipodi.sourceforge.net/DTD/sodipodi-0.dtd" xmlns:svg="http://www.w3.org/2000/svg"
	 xmlns="http://www.w3.org/2000/svg" xmlns:xlink="http://www.w3.org/1999/xlink" x="0px" y="0px" viewBox="0 0 512 512"
	 style="enable-background:new 0 0 512 512;" xml:space="preserve">
<style type="text/css">
	.st0{fill:#FFFFFF;}
	.st1{fill:#4AA0C7;}
	.st2{fill:#A1CEE2;}
	.st3{fill:#7FBCD7;}
	.st4{fill:#3D83A3;}
</style>
<rect class="st0" width="511.98" height="512"/>
<g id="Icon_1_">
	<g id="Tree_1_">
		<rect x="217.5" y="126.98" class="st1" width="78" height="185.37"/>
		<rect x="195.36" y="126.98" class="st1" width="122.25" height="46.5"/>
		<rect x="205.5" y="129.98" class="st1" width="101" height="54.5"/>
		<rect x="195.34" y="106.74" class="st1" width="20.51" height="46.5"/>
		<rect x="297.09" y="105.88" class="st1" width="20.52" height="46.5"/>
		<rect x="235.48" y="105.88" class="st1" width="39.31" height="46.5"/>
	</g>
	<g id="Hill_Back_1_">
		<rect y="127.09" class="st2" width="87.63" height="213.23"/>
		<rect x="63.71" y="164.13" class="st2" width="52.67" height="129.97"/>
		<rect x="99.34" y="203.56" class="st2" width="95.19" height="117.23"/>
	</g>
	<g id="Hill_Middle">
		<rect y="318.4" class="st3" width="512" height="193.58"/>
		<rect x="78.93" y="282.43" class="st3" width="433.07" height="64.96"/>
		<rect x="398.03" y="242.54" class="st3" width="113.96" height="94.59"/>
	</g>
	<g id="Hill_Front_1_">
		<rect y="359.58" class="st4" width="116.88" height="152.4"/>
		<rect x="108.63" y="396.36" class="st4" width="87.83" height="115.62"/>
		<rect x="176.42" y="437.13" class="st4" width="58.78" height="74.86"/>
	</g>
</g>
</svg>
