<?xml version="1.0" encoding="utf-8"?>
<!-- Generator: Adobe Illustrator 19.0.0, SVG Export Plug-In . SVG Version: 6.00 Build 0)  -->
<svg version="1.1" id="animi_shamir" xmlns="http://www.w3.org/2000/svg" xmlns:xlink="http://www.w3.org/1999/xlink" x="0px"
	 y="0px" viewBox="0 0 512 512" style="enable-background:new 0 0 512 512;" xml:space="preserve">
<style type="text/css">
	.st0{fill:#FFFFFF;}
	.st1{fill:#3D83A3;}
	.st2{fill:#7FBCD7;}
	.st3{fill:#80BAD5;}
	.st4{fill:#499EC5;}
</style>
<rect class="st0" width="512" height="512"/>
<g id="Shamir_1_">
	<rect id="Cast_1_" x="222.2" y="78.6" class="st1" width="67.8" height="67.8"/>
	<rect id="Band_1_" x="215.7" y="99.6" class="st2" width="80.2" height="22.2"/>
</g>
<g id="Shamir_Particles_1_">
	<g>
		<polygon class="st2" points="310,165.1 311.6,158.5 318.3,160 316.7,166.7 		"/>
		<polygon class="st2" points="316.1,169.4 316.7,166.7 319.4,167.3 318.8,170 		"/>
		<polygon class="st2" points="318.4,160.1 318.9,157.4 321.6,158 321,160.7 		"/>
		<polygon class="st2" points="309,157.9 309.6,155.3 312.3,155.9 311.7,158.6 		"/>
		<polygon class="st2" points="306.8,167.2 307.5,164.5 310.1,165.1 309.5,167.8 		"/>
	</g>
	<g>
		<polygon class="st2" points="191.6,157 194.5,146.4 205.1,149.2 202.2,159.8 		"/>
		<polygon class="st2" points="201.1,164 202.2,159.8 206.4,160.9 205.3,165.2 		"/>
		<polygon class="st2" points="205,149.3 206.1,145 210.4,146.2 209.2,150.4 		"/>
		<polygon class="st2" points="190.1,145.2 191.3,141 195.5,142.1 194.4,146.4 		"/>
		<polygon class="st2" points="186.2,160.1 187.3,155.9 191.6,157 190.4,161.2 		"/>
	</g>
	<g>
		<polygon class="st2" points="179.4,80.9 183.1,75.2 188.9,78.8 185.2,84.6 		"/>
		<polygon class="st2" points="183.8,86.9 185.3,84.6 187.6,86.1 186.1,88.4 		"/>
		<polygon class="st2" points="188.9,78.9 190.4,76.5 192.7,78 191.2,80.3 		"/>
		<polygon class="st2" points="180.8,73.7 182.3,71.4 184.6,72.9 183.1,75.2 		"/>
		<polygon class="st2" points="175.6,81.8 177.1,79.4 179.4,80.9 178,83.3 		"/>
	</g>
	<g>
		<polygon class="st2" points="260.5,55.6 261.4,52.9 264,53.8 263.1,56.4 		"/>
		
			<rect x="259.1" y="49.7" transform="matrix(-0.3086 0.9512 -0.9512 -0.3086 389.4536 -180.8645)" class="st2" width="2.8" height="2.8"/>
		<polygon class="st2" points="264,53.7 264.9,51 267.6,51.9 266.7,54.6 		"/>
		<polygon class="st2" points="256.9,57.3 257.8,54.6 260.4,55.5 259.6,58.2 		"/>
		
			<rect x="262.6" y="56.8" transform="matrix(-0.3083 0.9513 -0.9513 -0.3083 400.7361 -175.0509)" class="st2" width="2.8" height="2.8"/>
	</g>
	<g>
		<polygon class="st2" points="323.3,95.4 330.2,95.3 330.2,102.2 323.4,102.3 		"/>
		<polygon class="st2" points="330.2,102.2 333,102.2 333,104.9 330.2,104.9 		"/>
		<polygon class="st2" points="330.1,92.6 332.9,92.6 332.9,95.3 330.1,95.3 		"/>
		
			<rect x="320.6" y="92.7" transform="matrix(-1 8.598730e-003 -8.598730e-003 -1 644.7612 185.4656)" class="st2" width="2.7" height="2.8"/>
		<polygon class="st2" points="320.7,102.3 323.4,102.3 323.5,105 320.7,105.1 		"/>
	</g>
</g>
<g>
	<polyline id="XMLID_135_" class="st3" points="307.9,512 308.1,396.4 317.2,492 363.9,488.6 347.4,327.7 312.5,331 312.5,228.4 
		276.7,228.4 261.4,228.4 250.6,228.4 235.3,228.4 199.5,228.4 199.5,331 164.6,327.7 148.1,488.6 194.8,492 203.9,396.4 204.1,512 
			"/>
	<path id="XMLID_465_" class="st4" d="M301.4,397.2"/>
	<g id="XMLID_442_">
		<path id="XMLID_461_" class="st4" d="M87.2,356.7l0.9-0.9c4.1-4.1,10.8-4.2,15,0l11.9,11.8c4.1,4.1,4.2,10.8,0,15l-0.9,0.9
			c-4.1,4.1-10.8,4.2-15,0l-11.9-11.8C83.2,367.6,83.1,360.9,87.2,356.7z M99.1,359.8c-1.9-1.9-4.9-1.9-6.8,0l-0.9,0.9
			c-1.9,1.9-1.9,4.9,0,6.8l11.9,11.8c1.9,1.9,4.9,1.9,6.8,0l0.9-0.9c1.9-1.9,1.9-4.9,0-6.8L99.1,359.8z"/>
		<path id="XMLID_458_" class="st4" d="M164.3,410.5l-0.1-1.3c-0.6-5.8,3.7-11,9.5-11.5l16.7-1.6c5.8-0.6,11,3.7,11.5,9.5l0.1,1.3
			c0.6,5.8-3.7,11-9.5,11.5l-16.7,1.6C170.1,420.6,164.9,416.3,164.3,410.5z M174.2,403.4c-2.6,0.3-4.6,2.6-4.3,5.2l0.1,1.3
			c0.3,2.6,2.6,4.6,5.2,4.3l16.7-1.6c2.6-0.3,4.6-2.6,4.3-5.2l-0.1-1.3c-0.3-2.6-2.6-4.6-5.2-4.3L174.2,403.4z"/>
		<path id="XMLID_455_" class="st4" d="M119.9,391.4l0.5-1.2c2.2-5.4,8.3-8.1,13.7-5.9l15.6,6.2c5.4,2.2,8.1,8.3,5.9,13.7l-0.5,1.2
			c-2.2,5.4-8.3,8.1-13.7,5.9l-15.6-6.2C120.4,403,117.8,396.8,119.9,391.4z M132,389.6c-2.5-1-5.3,0.2-6.2,2.7l-0.5,1.2
			c-1,2.5,0.2,5.3,2.7,6.2l15.6,6.2c2.5,1,5.3-0.2,6.2-2.7l0.5-1.2c1-2.5-0.2-5.3-2.7-6.2L132,389.6z"/>
		<path id="XMLID_452_" class="st4" d="M210.9,402.3l-0.7-1.2c-2.9-5.1-1.1-11.5,3.9-14.4l14.6-8.3c5.1-2.9,11.5-1.1,14.4,3.9
			l0.7,1.2c2.9,5.1,1.1,11.5-3.9,14.4l-14.6,8.3C220.3,409.1,213.8,407.3,210.9,402.3z M217,391.7c-2.3,1.3-3.1,4.3-1.8,6.6l0.7,1.2
			c1.3,2.3,4.3,3.1,6.6,1.8l14.6-8.3c2.3-1.3,3.1-4.3,1.8-6.6l-0.7-1.2c-1.3-2.3-4.3-3.1-6.6-1.8L217,391.7z"/>
		<path id="XMLID_449_" class="st4" d="M103.3,374.1l0.4-0.5c2.2-2.9,7.2-2.3,12.2,1.5l13.3,10.2c4.9,3.8,6.8,8.5,4.6,11.4l-0.4,0.5
			c-2.2,2.9-7.2,2.3-12.2-1.5l-13.3-10.2C102.9,381.7,101,377,103.3,374.1z M125.6,390l-13.3-10.2c-1.6-1.2-3-1.8-3.8-2
			c0.4,0.8,1.3,2,2.9,3.2l13.3,10.2c1.6,1.2,3,1.8,3.8,2C128.1,392.4,127.2,391.2,125.6,390z"/>
		<path id="XMLID_446_" class="st4" d="M188.1,408.9l-0.2-0.5c-1.3-3.4,1.9-7.3,7.7-9.5l15.7-5.9c5.8-2.2,10.8-1.3,12.1,2.1l0.2,0.5
			c1.3,3.4-1.9,7.3-7.7,9.5l-15.7,5.9C194.4,413.2,189.4,412.4,188.1,408.9z M213.4,398.4l-15.7,5.9c-1.9,0.7-3.1,1.6-3.7,2.2
			c0.9,0,2.4-0.1,4.2-0.8l15.7-5.9c1.9-0.7,3.1-1.6,3.7-2.2C216.7,397.5,215.2,397.6,213.4,398.4z"/>
		<path id="XMLID_443_" class="st4" d="M141.6,401.4l0.1-0.6c0.7-3.6,5.5-5.2,11.6-3.9l16.5,3.4c6.1,1.3,9.8,4.7,9.1,8.2l-0.1,0.6
			c-0.7,3.6-5.5,5.2-11.6,3.9l-16.5-3.4C144.6,408.3,140.9,404.9,141.6,401.4z M168.6,405.9l-16.5-3.4c-2-0.4-3.4-0.3-4.3-0.2
			c0.7,0.5,2.1,1.2,4,1.6l16.5,3.4c2,0.4,3.4,0.3,4.3,0.2C171.9,407,170.6,406.4,168.6,405.9z"/>
	</g>
	<g id="XMLID_420_">
		<path id="XMLID_439_" class="st4" d="M424.8,371.7l-11.9,11.8c-4.1,4.1-10.8,4.1-15,0l-0.9-0.9c-4.1-4.1-4.1-10.8,0-15l11.9-11.8
			c4.1-4.1,10.8-4.1,15,0l0.9,0.9C429,360.9,428.9,367.6,424.8,371.7z M401.1,371.7c-1.9,1.9-1.9,4.9,0,6.8l0.9,0.9
			c1.9,1.9,4.9,1.9,6.8,0l11.9-11.8c1.9-1.9,1.9-4.9,0-6.8l-0.9-0.9c-1.9-1.9-4.9-1.9-6.8,0L401.1,371.7z"/>
		<path id="XMLID_436_" class="st4" d="M336.2,420l-16.7-1.6c-5.8-0.6-10.1-5.7-9.5-11.5l0.1-1.3c0.6-5.8,5.7-10.1,11.5-9.5
			l16.7,1.6c5.8,0.6,10.1,5.7,9.5,11.5l-0.1,1.3C347.2,416.3,342,420.6,336.2,420z M321.1,401.7c-2.6-0.3-5,1.7-5.2,4.3l-0.1,1.3
			c-0.3,2.6,1.7,5,4.3,5.2l16.7,1.6c2.6,0.3,5-1.7,5.2-4.3l0.1-1.3c0.3-2.6-1.7-5-4.3-5.2L321.1,401.7z"/>
		<path id="XMLID_433_" class="st4" d="M386.3,405.2l-15.6,6.2c-5.4,2.2-11.6-0.5-13.7-5.9l-0.5-1.2c-2.2-5.4,0.5-11.6,5.9-13.7
			l15.6-6.2c5.4-2.2,11.6,0.5,13.7,5.9l0.5,1.2C394.3,396.8,391.7,403,386.3,405.2z M364.5,395.9c-2.5,1-3.7,3.8-2.7,6.2l0.5,1.2
			c1,2.5,3.8,3.7,6.2,2.7l15.6-6.2c2.5-1,3.7-3.8,2.7-6.2l-0.5-1.2c-1-2.5-3.8-3.7-6.2-2.7L364.5,395.9z"/>
		<path id="XMLID_430_" class="st4" d="M286.8,406.2l-14.6-8.3c-5.1-2.9-6.8-9.4-3.9-14.4l0.7-1.2c2.9-5.1,9.4-6.8,14.4-3.9
			l14.6,8.3c5.1,2.9,6.8,9.4,3.9,14.4l-0.7,1.2C298.3,407.3,291.8,409.1,286.8,406.2z M280.5,383.3c-2.3-1.3-5.2-0.5-6.6,1.8
			l-0.7,1.2c-1.3,2.3-0.5,5.2,1.8,6.6l14.6,8.3c2.3,1.3,5.2,0.5,6.6-1.8l0.7-1.2c1.3-2.3,0.5-5.2-1.8-6.6L280.5,383.3z"/>
		<path id="XMLID_427_" class="st4" d="M404.2,385.5l-13.3,10.2c-4.9,3.8-9.9,4.4-12.2,1.5l-0.4-0.5c-2.2-2.9-0.3-7.6,4.6-11.4
			l13.3-10.2c4.9-3.8,9.9-4.4,12.2-1.5l0.4,0.5C411.1,377,409.2,381.7,404.2,385.5z M383.6,393.2c0.9-0.2,2.2-0.8,3.8-2l13.3-10.2
			c1.6-1.2,2.5-2.4,2.9-3.2c-0.9,0.2-2.2,0.8-3.8,2L386.5,390C384.9,391.2,384,392.4,383.6,393.2z"/>
		<path id="XMLID_424_" class="st4" d="M311.9,411l-15.7-5.9c-5.8-2.2-9-6.1-7.7-9.5l0.2-0.5c1.3-3.4,6.3-4.3,12.1-2.1l15.7,5.9
			c5.8,2.2,9,6.1,7.7,9.5l-0.2,0.5C322.7,412.4,317.7,413.2,311.9,411z M294.5,397.5c0.6,0.6,1.9,1.5,3.7,2.2l15.7,5.9
			c1.9,0.7,3.4,0.9,4.2,0.8c-0.6-0.6-1.9-1.5-3.7-2.2l-15.7-5.9C296.9,397.6,295.4,397.5,294.5,397.5z"/>
		<path id="XMLID_421_" class="st4" d="M361.4,409.6L345,413c-6.1,1.3-10.9-0.3-11.6-3.9l-0.1-0.6c-0.7-3.6,3-7,9.1-8.2l16.5-3.4
			c6.1-1.3,10.9,0.3,11.6,3.9l0.1,0.6C371.2,404.9,367.5,408.3,361.4,409.6z M339.5,407.5c0.9,0.2,2.4,0.3,4.3-0.2l16.5-3.4
			c2-0.4,3.3-1.1,4-1.6c-0.9-0.2-2.4-0.3-4.3,0.2l-16.5,3.4C341.5,406.4,340.2,407,339.5,407.5z"/>
	</g>
	<g id="XMLID_409_">
		<g id="XMLID_413_">
			<g>
				<polygon class="st4" points="473.9,267.9 481.9,274.5 475.3,282.6 483.3,289.2 476.7,297.2 468.7,290.6 462,298.6 454,292 
					446,285.4 438,278.8 429.9,272.2 423.3,280.2 431.3,286.8 424.7,294.8 432.8,301.5 426.1,309.5 434.2,316.1 427.6,324.1 
					435.6,330.7 429,338.8 437,345.4 430.4,353.4 438.4,360 431.8,368.1 439.8,374.7 433.2,382.7 441.2,389.3 434.6,397.4 
					428,405.4 420,398.8 411.9,392.1 418.6,384.1 410.5,377.5 417.1,369.5 409.1,362.9 415.7,354.8 407.7,348.2 414.3,340.2 
					406.3,333.6 412.9,325.5 404.9,318.9 411.5,310.9 403.5,304.3 410.1,296.3 402.1,289.6 408.7,281.6 400.6,275 394,283 
					387.4,291.1 380.8,299.1 374.2,307.1 366.2,300.5 359.5,308.5 351.5,301.9 358.1,293.9 350.1,287.3 356.7,279.2 363.3,271.2 
					369.9,263.2 376.6,255.2 383.2,247.1 391.2,253.7 397.8,245.7 404.4,237.7 411,229.7 419.1,236.3 427.1,242.9 435.1,249.5 
					441.7,241.5 449.8,248.1 457.8,254.7 465.8,261.3 				"/>
			</g>
			<g>
			</g>
		</g>
		
			<rect id="XMLID_412_" x="405.9" y="278.6" transform="matrix(0.7717 0.636 -0.636 0.7717 279.2213 -198.9641)" class="st4" width="21.6" height="21.6"/>
		
			<rect id="XMLID_411_" x="404.5" y="264" transform="matrix(0.7717 0.636 -0.636 0.7717 269.5838 -201.4101)" class="st4" width="21.6" height="21.6"/>
		<polyline id="XMLID_410_" class="st3" points="400.1,275.2 401.5,289.9 431.9,287 430.5,272.3 		"/>
	</g>
	<g id="XMLID_404_">
		<polygon id="XMLID_408_" class="st4" points="101.4,192.4 93.3,198.8 85.1,205.2 91.5,213.4 83.3,219.9 89.8,228 81.6,234.5 
			88,242.6 79.8,249.1 86.3,257.2 78.1,263.7 84.5,271.9 76.3,278.3 82.8,286.5 74.6,292.9 81,301.1 72.8,307.5 79.3,315.7 
			71.1,322.1 71.1,322.1 64.7,313.9 56.5,320.4 50,312.2 41.9,318.6 33.7,325 40.1,333.2 46.6,341.4 54.7,335 54.7,335 61.2,343.1 
			67.6,351.3 75.8,344.9 82.2,353.1 74,359.5 80.4,367.7 80.4,367.7 72.3,374.1 78.7,382.3 70.5,388.7 62.3,395.1 68.8,403.3 
			75.2,411.5 81.6,419.7 89.8,413.2 98,406.8 106.2,400.4 99.7,392.2 93.3,384 101.5,377.6 95.1,369.4 103.2,363 96.8,354.8 
			105,348.4 111.4,356.6 119.6,350.1 127.8,343.7 134.2,351.9 142.4,345.5 150.6,339 144.1,330.8 137.7,322.7 129.5,329.1 
			129.5,329.1 123.1,320.9 114.9,327.3 108.5,319.2 116.7,312.7 110.2,304.6 118.4,298.1 112,290 112,290 120.2,283.5 113.7,275.3 
			121.9,268.9 115.5,260.7 123.6,254.3 117.2,246.1 125.4,239.7 119,231.5 127.1,225.1 120.7,216.9 128.9,210.5 122.5,202.3 
			116,194.1 109.6,186 		"/>
		
			<rect id="XMLID_407_" x="77.8" y="350.4" transform="matrix(0.6181 0.7861 -0.7861 0.6181 317.77 68.2558)" class="st4" width="21.6" height="21.6"/>
		
			<rect id="XMLID_406_" x="79.6" y="335.8" transform="matrix(0.6181 0.7861 -0.7861 0.6181 306.9525 61.3022)" class="st4" width="21.6" height="21.6"/>
		<polyline id="XMLID_405_" class="st3" points="75.2,344.8 73.5,359.4 103.8,363 105.6,348.4 		"/>
	</g>
	<g id="XMLID_400_">
		<g id="XMLID_402_">
			<polygon id="XMLID_403_" class="st0" points="287.6,371.7 287.6,363.9 279.7,363.9 279.7,356 271.9,356 264.1,356 264.1,363.9 
				256.3,363.9 248.4,363.9 248.4,356 240.6,356 232.8,356 232.8,363.9 225,363.9 225,371.7 225,379.5 225,387.3 232.8,387.3 
				232.8,395.2 240.6,395.2 240.6,403 248.4,403 248.4,410.8 256.3,410.8 264.1,410.8 264.1,403 271.9,403 271.9,395.2 279.7,395.2 
				279.7,387.3 287.6,387.3 287.6,379.5 			"/>
		</g>
		<polygon id="XMLID_401_" class="st0" points="279.7,363.9 279.7,356 264.1,356 264.1,363.9 248.4,363.9 248.4,356 232.8,356 
			232.8,363.9 225,363.9 225,387.3 232.8,387.3 232.8,395.2 240.6,395.2 240.6,403 248.4,403 248.4,410.8 264.1,410.8 264.1,403 
			271.9,403 271.9,395.2 279.7,395.2 279.7,387.3 287.6,387.3 287.6,363.9 		"/>
	</g>
</g>
</svg>
