<?xml version="1.0" encoding="utf-8"?>
<!-- Generator: Adobe Illustrator 23.0.6, SVG Export Plug-In . SVG Version: 6.00 Build 0)  -->
<svg version="1.1" id="cement_mixers" xmlns="http://www.w3.org/2000/svg" xmlns:xlink="http://www.w3.org/1999/xlink" x="0px"
	 y="0px" viewBox="0 0 512 512" style="enable-background:new 0 0 512 512;" xml:space="preserve">
<style type="text/css">
	.st0{fill:#FFFFFF;}
	.st1{fill:#4AA0C7;}
	.st2{fill:#428FB3;}
	.st3{fill:#A1CEE2;}
</style>
<rect class="st0" width="512" height="512"/>
<g id="Icon">
	<g id="Liquid_Tank">
		<path id="rect4147" class="st1" d="M289.01,433.33l-66.62-0.16l-1.46-37.45l-40.59,0.02l-4.61-58.12l-108.95-1L51.23,202.76
			l65.33-93.9h278.86l65.36,94.44L445.2,336.61l-108.94,0.99l-4.27,58.46l-41.13-0.2L289.01,433.33z"/>
		<path id="rect4150" class="st2" d="M146.29,121.36l5.28,66.66h-41.55L146.29,121.36z"/>
		<path id="rect4153" class="st2" d="M148.41,116.83h215.37l-4.69,70.5H153.12L148.41,116.83z"/>
		<path id="rect4150-0" class="st2" d="M366.17,120.23l-5.27,66.65h41.55L366.17,120.23z"/>
		<path id="rect4185" class="st0" d="M189.68,126.45h127.19l17.1,32.01v27.31H177.24v-25.14L189.68,126.45z"/>
		<path id="rect4171" class="st1" d="M174.48,123.86l11.68-35.16h4.29l133.33,0.22l0.09,1.13l12.3,34.35l-4.1,2.47l-9.73-27.24
			l-0.67-1.37l-1.55,32.6l-3.47-5.25L318,93.14l-127.3-0.25l1.02,34.18l-3.66,3.22l-0.43-33.71l-7.82,27.24l156.78,0.04v3.06v61.62
			l-159.74,0.04l0.06-5.56l154.69-0.41l-0.78-54.7l-151.39,0.78l0.02,23.77l9.33-28.16L316,124.39l4.72,1.06l12.29,29.28l0.23,14.1
			l-16.18-40.44l-125.17,0.27l-12.44,36.61l0.02,22.74h-5L174.48,123.86L174.48,123.86L174.48,123.86L174.48,123.86z"/>
	</g>
	<g id="Decoration">
		<g id="Circular_Arrows">
			<path id="Arrow_1_" class="st3" d="M338.76,265.12L320,283.61v-0.01v-0.02c-0.01,0.01-0.01,0.02-0.03,0.02l-0.04,0.01l-0.27-0.31
				l-18.48-18.18h9.71c0.15-0.98,0.22-1.94,0.22-2.95c0-10.5-8.5-19.03-19.03-19.03c-3.58,0-6.99,1-9.85,2.74l-11.59-11.59
				c5.94-4.57,13.37-7.29,21.44-7.29c19.4,0,35.17,15.74,35.17,35.16c0,1-0.03,1.97-0.14,2.95L338.76,265.12L338.76,265.12
				L338.76,265.12L338.76,265.12z"/>
			<path id="Arrow" class="st3" d="M245.32,259.13l18.78-18.5l0,0v0.04c0-0.03,0.01-0.03,0.02-0.04h0.01l0.31,0.31l18.48,18.2h-9.71
				c-0.15,0.94-0.26,1.94-0.26,2.91c0,10.52,8.54,19.07,19.07,19.07c3.58,0,6.95-1.01,9.85-2.76l11.56,11.59
				c-5.91,4.57-13.36,7.27-21.41,7.27c-19.44,0-35.17-15.72-35.17-35.16c0-0.96,0.03-1.97,0.1-2.91h-11.62L245.32,259.13
				L245.32,259.13L245.32,259.13z"/>
		</g>
		<g id="block_2_">
			<path id="rect4153_1_" class="st3" d="M175.2,243.05l32.25-17.94l32.27,17.94v38.13l-32.27,17.94l-32.25-17.94V243.05z"/>
		</g>
		<g id="Bucket">
			<rect x="106.34" y="234.45" class="st3" width="46.1" height="50.72"/>
			<rect x="101.73" y="239.06" class="st3" width="55.31" height="36.87"/>
			<rect x="115.56" y="229.85" class="st3" width="27.65" height="64.52"/>
			<rect x="110.95" y="285.17" class="st3" width="36.88" height="4.6"/>
			<g>
				<rect x="106.34" y="239.06" class="st3" width="46.1" height="9.22"/>
				<rect x="115.56" y="234.45" class="st3" width="27.65" height="18.45"/>
			</g>
			<g>
				<rect x="106.34" y="252.9" class="st3" width="46.1" height="23.03"/>
				<rect x="110.95" y="274.19" class="st3" width="36.88" height="10.98"/>
				<rect x="115.56" y="283.45" class="st3" width="27.65" height="6.32"/>
			</g>
			<rect x="115.56" y="252.9" class="st3" width="27.65" height="4.58"/>
		</g>
		<g id="block_1_">
			<path id="rect4153_2_" class="st3" d="M351.07,243.05l32.28-17.94l32.25,17.94v38.13l-32.25,17.94l-32.28-17.94V243.05z"/>
		</g>
	</g>
</g>
<polyline class="st0" points="179.47,178.21 179.44,187.33 331.6,187.33 331.43,169.73 304.03,172.18 "/>
</svg>
