<?xml version="1.0" encoding="utf-8"?>
<!-- Generator: Adobe Illustrator 23.0.6, SVG Export Plug-In . SVG Version: 6.00 Build 0)  -->
<svg version="1.1" id="beehive_inspector" xmlns="http://www.w3.org/2000/svg" xmlns:xlink="http://www.w3.org/1999/xlink" x="0px"
	 y="0px" viewBox="0 0 512 512" style="enable-background:new 0 0 512 512;" xml:space="preserve">
<style type="text/css">
	.st0{fill:#FFFFFF;}
	.st1{fill:#4AA0C7;}
	.st2{fill:#3D83A3;}
</style>
<rect class="st0" width="512" height="512"/>
<g id="Icon">
	<g id="Bee">
		<polygon class="st1" points="163.96,449.13 73.52,399.49 73.52,291.36 121.45,291.36 112.35,285.45 103.5,283 90.73,274.17 
			81.38,272.18 40.1,245.66 48.46,246.64 34.7,237.29 53.86,240.25 69.1,251.05 79.91,252.05 95.14,263.35 105.96,265.31 
			133.98,284.99 144.79,286.94 150.47,291.36 158.05,291.36 190.67,299.37 194.92,295.77 184.1,293.82 195.17,286.87 185.09,284.49 
			195.41,278.58 186.08,276.12 215.56,257.94 225.89,259.4 235.21,253.03 256.35,256.46 247.01,262.85 258.31,264.35 248.49,271.22 
			259.8,273.17 240.62,286.94 251.44,289.4 230.3,304.63 218.02,301.18 212.93,304.83 266.18,317.91 247.51,428.98 		"/>
		<polygon class="st2" points="83.85,404.9 73.52,399.49 73.52,291.36 158.05,291.36 175.76,295.77 89.25,294.31 		"/>
		<polygon class="st2" points="102.03,414.72 92.69,410.31 100.06,297.76 186.08,298.23 190.49,299.23 108.92,301.18 		"/>
		<polygon class="st2" points="120.7,424.54 111.37,420.13 119.72,304.14 208.19,303.64 218.51,306.1 130.04,307.09 		"/>
		<polygon class="st1" points="167.89,309.55 146.75,304.14 135.95,296.27 126.11,293.82 121.69,291.36 150.69,291.36 
			167.89,303.64 		"/>
		<polygon class="st1" points="213.11,304.63 206.72,309.05 184.1,303.64 190.49,299.23 		"/>
	</g>
</g>
<g>
	<path class="st1" d="M469.51,363.62l-3.68-6.91l-3.68-6.92l-3.68-6.91l-3.68-6.92l-3.68-6.93l-3.68-6.9l-3.68-6.94l-3.68-6.89
		l-3.68-6.93l-3.68-6.9l-3.68-6.93l-3.68-6.9l-3.68-6.93l-3.68-6.9l-3.68-6.93l-3.68-6.92l-6.93,3.7l-3.68-6.92l-3.68-6.93
		l-3.68-6.91l-6.91,3.68l-3.7-6.92l-3.68-6.91l6.93-3.68l-3.68-6.91l6.9-3.68l6.93-3.68l-3.68-6.92l6.9-3.68l6.93-3.68l-3.68-6.92
		l6.9-3.68l-3.69-6.92l6.93-3.68l-3.68-6.91l6.9-3.68l-3.68-6.93l-3.68-6.92l6.93-3.68l-3.68-6.92l-3.68-6.91l6.9-3.68l-3.68-6.92
		l-3.68-6.91l-3.68-6.92l-3.68-6.92l-6.91,3.68l-3.68-6.91l-3.68-6.92l-6.92,3.68l-3.68-6.91l-3.68-6.92l-6.93,3.68l-3.61-6.93
		l-6.93,3.68l-3.68-6.92l-6.91,3.68l-3.7-6.91l-6.9,3.68l-6.93,3.68l-3.68-6.91l-6.9,3.68l-6.93,3.68l-3.68-6.92l-6.9,3.68
		l-6.93,3.68l-6.9,3.68l-6.93,3.68l3.68,6.91l-6.89,3.68l-6.93,3.68l3.68,6.92l-6.9,3.68l-6.92,3.68l3.67,6.92l-6.9,3.68l3.68,6.92
		l-6.92,3.68l3.68,6.92l-6.91,3.68l3.68,6.92l3.68,6.91l-6.92,3.68l3.68,6.92l3.68,6.91l-6.91,3.68l3.68,6.92l3.68,6.92l3.68,6.91
		l3.68,6.92l6.93-3.68l3.68,6.91l3.68,6.93l6.9-3.69l3.68,6.92l3.68,6.92l6.93-3.68l3.68,6.91l6.9-3.68l3.68,6.92l6.93-3.68
		l3.68,6.91l6.9-3.7l6.93-3.68l3.68,6.94l6.9-3.7l6.93-3.68l3.68,6.91l6.92-3.68l3.68,6.91l3.68,6.92l-6.92,3.7l3.68,6.91l3.68,6.9
		l3.68,6.93l-6.89,3.68l3.68,6.9l3.68,6.93l3.68,6.9l3.68,6.93l3.68,6.9l3.68,6.93l3.68,6.91l3.68,6.92l3.68,6.92l3.68,6.91
		l3.68,6.92l3.68,6.91l3.68,6.92l3.68,6.91l3.68,6.93l3.68,6.9l6.93-3.68l3.68,6.93l6.9-3.69l6.93-3.68l6.9-3.68l6.93-3.69
		l-3.68-6.91L469.51,363.62z M342.96,209.12l-6.92,3.68l-6.91,3.68l-3.68-6.91l-6.93,3.68l-3.68-6.92l-6.9,3.68l-3.68-6.91
		l-6.93,3.68l-3.68-6.92l-3.68-6.92l-6.9,3.68l-3.68-6.92l-3.68-6.91l-3.68-6.92l-3.68-6.91l6.89-3.68l-3.68-6.91l-3.68-6.91
		l6.93-3.68l-3.72-6.91l6.93-3.68l-3.66-6.93l6.9-3.68l-3.68-6.91l6.93-3.68l6.9-3.68l-3.68-6.92l6.93-3.68l6.9-3.68l6.93-3.68
		l6.91-3.69l3.69,6.92L326,93.9l6.93-3.68l3.68,6.91l6.9-3.68l3.68,6.92l6.94-3.68l3.68,6.91l6.9-3.68l3.68,6.91l3.68,6.92
		l6.93-3.68l3.68,6.92l3.68,6.91l3.68,6.92l3.68,6.92l-6.92,3.68l3.69,6.91l3.68,6.92l-6.92,3.68l3.68,6.91l-6.91,3.68l3.68,6.92
		l-6.92,3.68l3.68,6.91l-6.91,3.68l-6.92,3.68l3.68,6.92l-6.9,3.68l-6.93,3.68l-6.9,3.68l-6.93,3.68L342.96,209.12z"/>
	<polygon class="st1" points="372.94,148.79 379.87,145.11 383.55,152.03 376.62,155.71 	"/>
	<polygon class="st1" points="368.86,124.36 372.53,131.27 376.21,138.18 379.89,145.11 386.81,141.43 383.13,134.51 379.45,127.59 
		375.77,120.68 372.09,113.76 365.18,117.44 	"/>
	<polygon class="st1" points="354.56,114.2 358.24,121.12 365.18,117.44 361.5,110.52 357.82,103.61 350.89,107.29 	"/>
</g>
</svg>
