<?xml version="1.0" encoding="utf-8"?>
<!-- Generator: Adobe Illustrator 23.0.6, SVG Export Plug-In . SVG Version: 6.00 Build 0)  -->
<svg version="1.1" id="chest_boats" xmlns="http://www.w3.org/2000/svg" xmlns:xlink="http://www.w3.org/1999/xlink" x="0px"
	 y="0px" viewBox="0 0 512 512" style="enable-background:new 0 0 512 512;" xml:space="preserve">
<style type="text/css">
	.st0{fill:#FFFFFF;}
	.st1{fill:#46A0C7;}
	.st2{fill:#3D83A3;}
	.st3{fill:#4AA0C7;}
</style>
<g id="Background">
	<rect class="st0" width="512" height="512"/>
</g>
<g id="Icon">
	<g id="chest">
		<g id="layer1">
			<path id="path4147" class="st1" d="M285.5,247.4v-50h31.2h31.2v11.7v11.7h8.6h8.6v-11.7v-11.7h30.4h30.4v50v50h-70.2h-70.2V247.4
				L285.5,247.4z M285.5,176.1V157h70.2h70.2v19.1v19.1h-30.4H365v-2v-2h-8.6h-8.6v2v2h-31.2h-31.2L285.5,176.1L285.5,176.1z"/>
		</g>
	</g>
	<g id="boat">
		<rect x="72" y="249.1" class="st2" width="363.1" height="116.7"/>
		<rect x="59" y="249.1" class="st2" width="389" height="103.7"/>
	</g>
	<g id="oar">
		
			<rect x="200.1" y="169.1" transform="matrix(0.9159 0.4014 -0.4014 0.9159 137.8659 -60.3846)" class="st3" width="25.9" height="259.3"/>
		
			<rect x="128.4" y="325.4" transform="matrix(0.9159 0.4014 -0.4014 0.9159 162.9201 -35.979)" class="st3" width="77.8" height="90.8"/>
	</g>
</g>
</svg>
