<?xml version="1.0" encoding="utf-8"?>
<!-- Generator: Adobe Illustrator 23.0.6, SVG Export Plug-In . SVG Version: 6.00 Build 0)  -->
<svg version="1.1" id="cozy_campfires" xmlns="http://www.w3.org/2000/svg" xmlns:xlink="http://www.w3.org/1999/xlink" x="0px"
	 y="0px" viewBox="0 0 512 512" style="enable-background:new 0 0 512 512;" xml:space="preserve">
<style type="text/css">
	.st0{fill:#FFFFFF;}
	.st1{fill:#387895;}
	.st2{fill:#3D83A3;}
	.st3{fill:#7FBCD7;}
	.st4{fill:#DBECF4;}
	.st5{fill:#4AA0C7;}
	.st6{fill:#A1CEE2;}
</style>
<rect class="st0" width="512" height="512"/>
<g id="Icon">
	<g id="Campfire">
		<rect x="104.04" y="362.03" class="st1" width="297.25" height="106.16"/>
		<rect x="125.27" y="340.79" class="st1" width="254.8" height="127.4"/>
		<rect x="146.52" y="319.54" class="st1" width="212.3" height="148.66"/>
		<rect x="125.27" y="383.26" class="st2" width="254.8" height="63.68"/>
		<rect x="146.52" y="340.79" class="st3" width="63.67" height="63.69"/>
		<rect x="295.18" y="340.79" class="st3" width="63.64" height="63.69"/>
		<rect x="231.44" y="340.79" class="st0" width="21.23" height="42.47"/>
		<rect x="252.67" y="319.54" class="st0" width="21.25" height="42.49"/>
		<rect x="231.44" y="340.79" class="st0" width="42.48" height="21.24"/>
		<rect x="252.67" y="362.03" class="st4" width="21.25" height="21.23"/>
		<rect x="231.44" y="298.36" class="st4" width="21.23" height="42.47"/>
		<rect x="252.67" y="277.11" class="st4" width="21.25" height="42.47"/>
		<rect x="231.44" y="298.36" class="st4" width="42.48" height="21.21"/>
		<rect x="210.19" y="340.79" class="st5" width="21.25" height="42.47"/>
		<rect x="273.92" y="340.79" class="st5" width="21.25" height="42.47"/>
		<rect x="167.76" y="319.54" class="st5" width="42.49" height="21.25"/>
		<rect x="295.18" y="319.54" class="st5" width="42.47" height="21.25"/>
		<rect x="316.35" y="255.86" class="st5" width="21.25" height="84.93"/>
		<rect x="295.18" y="213.39" class="st5" width="21.21" height="63.69"/>
		<rect x="273.92" y="170.94" class="st5" width="21.25" height="42.48"/>
		<rect x="252.67" y="149.71" class="st5" width="21.25" height="42.48"/>
		<rect x="231.44" y="170.94" class="st5" width="63.66" height="21.25"/>
		<rect x="167.76" y="255.86" class="st5" width="21.24" height="84.93"/>
		<rect x="189" y="213.39" class="st5" width="21.24" height="63.69"/>
		<rect x="167.76" y="255.86" class="st5" width="42.49" height="21.25"/>
		<rect x="252.67" y="192.14" class="st3" width="21.25" height="42.48"/>
		<rect x="231.44" y="192.14" class="st3" width="42.48" height="21.25"/>
		<rect x="273.92" y="213.39" class="st3" width="21.25" height="42.47"/>
		<rect x="252.67" y="213.39" class="st3" width="42.51" height="21.24"/>
		<rect x="295.18" y="277.11" class="st3" width="21.21" height="42.99"/>
		<rect x="189" y="277.11" class="st3" width="21.24" height="42.47"/>
		<rect x="210.19" y="255.33" class="st3" width="21.25" height="42.5"/>
		<rect x="189" y="277.11" class="st3" width="42.48" height="21.25"/>
		<rect x="210.19" y="234.1" class="st3" width="21.25" height="21.23"/>
		<rect x="231.44" y="213.39" class="st6" width="21.23" height="84.9"/>
		<rect x="210.19" y="298.36" class="st6" width="21.25" height="21.21"/>
		<rect x="252.67" y="234.63" class="st6" width="21.25" height="42.48"/>
		<rect x="273.92" y="255.86" class="st6" width="21.25" height="84.93"/>
		<rect x="316.35" y="298.36" class="st3" width="21.25" height="21.21"/>
		<rect x="210.19" y="319.54" class="st3" width="21.25" height="21.25"/>
		<rect x="146.52" y="404.51" class="st1" width="84.92" height="21.24"/>
		<rect x="295.18" y="404.51" class="st1" width="63.64" height="21.24"/>
		<rect x="251.09" y="425.69" class="st1" width="44.09" height="21.25"/>
		<rect x="231.44" y="383.26" class="st1" width="44.07" height="21.25"/>
		<rect x="167.76" y="298.36" class="st3" width="42.49" height="21.21"/>
	</g>
	<g>
		<rect x="103.47" y="180.5" class="st5" width="10.95" height="6.68"/>
		<rect x="114.42" y="211.85" class="st5" width="10.94" height="7.04"/>
		<rect x="97.97" y="185.95" class="st5" width="43.84" height="16.45"/>
		<rect x="103.47" y="201.03" class="st5" width="32.89" height="6.86"/>
		<rect x="108.96" y="206.97" class="st5" width="21.94" height="6.37"/>
		<rect x="125.42" y="180.5" class="st5" width="10.94" height="6.68"/>
	</g>
	<g>
		<rect x="389.18" y="256.56" class="st5" width="12.21" height="7.42"/>
		<rect x="401.39" y="291.5" class="st5" width="12.25" height="7.81"/>
		<rect x="383.06" y="262.68" class="st5" width="48.87" height="18.33"/>
		<rect x="389.18" y="279.43" class="st5" width="36.63" height="7.67"/>
		<rect x="395.31" y="286.08" class="st5" width="24.44" height="7.11"/>
		<rect x="413.64" y="256.56" class="st5" width="12.21" height="7.42"/>
	</g>
	<g>
		<rect x="289.02" y="118.49" class="st5" width="8.83" height="5.41"/>
		<rect x="297.85" y="143.77" class="st5" width="8.83" height="5.68"/>
		<rect x="284.55" y="122.88" class="st5" width="35.42" height="13.28"/>
		<rect x="289.02" y="135.06" class="st5" width="26.49" height="5.54"/>
		<rect x="293.45" y="139.86" class="st5" width="17.66" height="5.14"/>
		<rect x="306.68" y="118.49" class="st5" width="8.83" height="5.41"/>
	</g>
	<g>
		<rect x="218.95" y="50.76" class="st5" width="9.41" height="5.76"/>
		<rect x="228.36" y="77.72" class="st5" width="9.41" height="6.03"/>
		<rect x="214.24" y="55.46" class="st5" width="37.7" height="14.16"/>
		<rect x="218.95" y="68.39" class="st5" width="28.27" height="5.89"/>
		<rect x="223.64" y="73.54" class="st5" width="18.88" height="5.5"/>
		<rect x="237.77" y="50.76" class="st5" width="9.41" height="5.76"/>
	</g>
</g>
</svg>
