<?xml version="1.0" encoding="utf-8"?>
<!-- Generator: Adobe Illustrator 19.0.0, SVG Export Plug-In . SVG Version: 6.00 Build 0)  -->
<svg version="1.1" id="combat_expanded" xmlns="http://www.w3.org/2000/svg" xmlns:xlink="http://www.w3.org/1999/xlink" x="0px"
	 y="0px" viewBox="0 0 512 512" style="enable-background:new 0 0 512 512;" xml:space="preserve">
<style type="text/css">
	.st0{fill:#FFFFFF;}
	.st1{fill:#80BBD6;}
	.st2{fill:#4A9FC6;}
	.st3{fill:#A0CCE0;}
	.st4{fill:#397894;}
</style>
<rect class="st0" width="512" height="512"/>
<g>
	<g id="XMLID_42_">
		<g id="XMLID_117_">
			<polygon id="XMLID_126_" class="st1" points="101.9,163.6 102.4,162.9 106.9,159.8 115,161.2 118.6,162.9 118.6,205.7 
				102.7,205.7 			"/>
			<polygon id="XMLID_125_" class="st1" points="94.6,52.2 97.8,52.2 98.1,62.1 97.6,63.1 97.7,66.9 97.4,67.3 97.3,70.8 96.8,71.6 
				96.8,75.6 96.5,75.7 96.5,79.4 96.1,80.2 96.1,84.4 95.7,85.1 95.8,88.5 95.2,89.3 95.2,93.8 94.6,94.3 95,95.8 95.4,95.8 
				95.5,97.6 96,97.6 96.1,103.5 89.6,103.5 89.6,101.6 88.6,101.6 88.7,96.5 87.9,96.5 87.7,89.7 89.2,86.7 90,86.7 90.2,86.3 
				90.5,86 90.5,82.2 91.2,81.6 91,77.6 91.7,76.8 91.5,73.1 92,72.7 91.8,68.5 92.4,68 92.2,63.8 93,63.1 92.7,59.4 93.3,58.9 
				93.2,55.1 			"/>
			<polyline id="XMLID_124_" class="st1" points="137,107.6 137,101.7 137.4,77.9 101.1,77.9 101.1,107.2 99.8,103.1 80.8,103.1 
				80.5,122.2 86.2,129.6 101.6,129.6 102,162.9 102.4,162.9 118.6,162.9 118.6,212.1 135.7,212 135.1,162 135.9,130.2 151.2,130.2 
				152.3,128.7 			"/>
			<polyline id="XMLID_121_" class="st1" points="137.5,123.8 137.4,105.6 138.6,101.1 158.1,101.2 158.3,120.3 155.7,124 			"/>
		</g>
		<polyline id="XMLID_122_" class="st1" points="138.6,101.1 136.9,107.4 151.2,130.2 158.3,120.3 		"/>
	</g>
	<g id="XMLID_140_">
		<g id="XMLID_142_">
			<polygon id="XMLID_146_" class="st1" points="375,163.6 375.5,162.9 380,159.8 388.1,161.2 391.7,162.9 391.7,205.7 375.8,205.7 
							"/>
			<polygon id="XMLID_145_" class="st1" points="367.7,52.2 370.9,52.2 371.2,62.1 370.7,63.1 370.8,66.9 370.5,67.3 370.4,70.8 
				370,71.6 369.9,75.6 369.6,75.7 369.6,79.4 369.2,80.2 369.2,84.4 368.9,85.1 368.9,88.5 368.3,89.3 368.3,93.8 367.7,94.3 
				368.1,95.8 368.5,95.8 368.6,97.6 369.1,97.6 369.2,103.5 362.7,103.5 362.7,101.6 361.7,101.6 361.8,96.5 361,96.5 360.8,89.7 
				362.3,86.7 363.1,86.7 363.3,86.3 363.6,86 363.6,82.2 364.3,81.6 364.1,77.6 364.8,76.8 364.6,73.1 365.1,72.7 364.9,68.5 
				365.5,68 365.3,63.8 366.1,63.1 365.8,59.4 366.4,58.9 366.3,55.1 			"/>
			<polyline id="XMLID_144_" class="st1" points="410.1,107.6 410.1,101.7 410.5,77.9 374.2,77.9 374.2,107.2 372.9,103.1 
				353.9,103.1 353.7,122.2 359.3,129.6 374.7,129.6 375.1,162.9 375.5,162.9 391.7,162.9 391.7,212.1 408.8,212 408.2,162 
				409,130.2 424.4,130.2 425.4,128.7 			"/>
			<polyline id="XMLID_143_" class="st1" points="410.6,123.8 410.5,105.6 411.7,101.1 431.3,101.2 431.5,120.3 428.8,124 			"/>
		</g>
		<polyline id="XMLID_141_" class="st1" points="411.7,101.1 410,107.4 424.4,130.2 431.5,120.3 		"/>
	</g>
	<g id="XMLID_123_">
		<g id="XMLID_128_">
			<polygon id="XMLID_132_" class="st1" points="166,174 166.6,173.2 171.7,169.7 180.9,171.2 185,173.1 185,221.9 166.9,221.9 			
				"/>
			<polygon id="XMLID_131_" class="st2" points="157.7,47.3 161.4,47.3 161.7,58.5 161.1,59.7 161.3,64 160.9,64.5 160.8,68.5 
				160.2,69.3 160.2,73.9 159.9,74 159.9,78.3 159.4,79.2 159.4,83.9 159,84.7 159,88.6 158.4,89.5 158.4,94.6 157.7,95.2 
				158.2,96.9 158.6,96.9 158.8,99 159.3,99 159.4,105.7 152,105.7 152,103.5 150.9,103.4 151,97.7 150.1,97.6 149.8,90 151.6,86.6 
				152.4,86.5 152.7,86.1 153,85.7 153,81.4 153.8,80.7 153.6,76.2 154.4,75.3 154.1,71.1 154.7,70.6 154.6,65.9 155.2,65.2 
				155,60.5 155.9,59.7 155.5,55.4 156.2,55 156.1,50.6 			"/>
			<polyline id="XMLID_130_" class="st3" points="205.9,110.3 205.9,103.5 206.4,76.5 165,76.5 165,109.8 163.6,105.1 142,105.1 
				141.7,126.9 148.1,135.3 165.7,135.4 166.1,173.2 166.6,173.2 185,173.1 185,229.2 204.5,229 203.8,172.1 204.7,136 222.1,136 
				223.3,134.3 			"/>
			<polyline id="XMLID_129_" class="st1" points="206.5,128.7 206.4,108 207.8,102.9 230,103 230.2,124.7 227.2,128.9 			"/>
		</g>
		<polyline id="XMLID_127_" class="st1" points="207.8,102.9 205.8,110.1 222.1,136 230.2,124.7 		"/>
	</g>
	<g id="XMLID_133_">
		<g id="XMLID_135_">
			<polygon id="XMLID_139_" class="st1" points="310.8,174 311.4,173.2 316.5,169.7 325.7,171.2 329.8,173.1 329.8,221.9 
				311.7,221.9 			"/>
			<polygon id="XMLID_138_" class="st2" points="302.5,47.3 306.2,47.3 306.5,58.5 305.9,59.7 306.1,64 305.7,64.5 305.6,68.5 
				305.1,69.3 305,73.9 304.7,74 304.7,78.3 304.2,79.2 304.2,83.9 303.8,84.7 303.9,88.6 303.2,89.5 303.2,94.6 302.5,95.2 
				303,96.9 303.4,96.9 303.6,99 304.1,99 304.3,105.7 296.8,105.7 296.8,103.5 295.7,103.4 295.8,97.7 294.9,97.6 294.6,90 
				296.4,86.6 297.2,86.5 297.5,86.1 297.8,85.7 297.8,81.4 298.7,80.7 298.5,76.2 299.2,75.3 298.9,71.1 299.5,70.6 299.4,65.9 
				300,65.2 299.8,60.5 300.7,59.7 300.3,55.4 301,55 300.9,50.6 			"/>
			<polyline id="XMLID_137_" class="st3" points="350.7,110.3 350.8,103.5 351.2,76.5 309.9,76.5 309.9,109.8 308.4,105.1 
				286.8,105.1 286.5,126.9 292.9,135.3 310.5,135.4 310.9,173.2 311.4,173.2 329.8,173.1 329.8,229.2 349.3,229 348.6,172.1 
				349.5,136 366.9,136 368.1,134.3 			"/>
			<polyline id="XMLID_136_" class="st3" points="351.3,128.7 351.2,108 352.6,102.9 374.8,103 375,124.7 372,128.9 			"/>
		</g>
		<polyline id="XMLID_134_" class="st3" points="352.6,102.9 350.6,110.1 366.9,136 375,124.7 		"/>
	</g>
	<g id="XMLID_112_">
		<polygon id="XMLID_118_" class="st1" points="229.5,189.1 230.3,188.1 236.7,183.7 248.2,185.6 253.3,188 253.3,249.2 
			230.6,249.2 		"/>
		<polygon id="XMLID_119_" class="st2" points="219.1,30.2 223.7,30.2 224.1,44.2 223.3,45.8 223.5,51 223.1,51.7 223,56.7 
			222.3,57.8 222.2,63.5 221.8,63.7 221.8,69 221.2,70.1 221.2,76 220.7,77.1 220.8,82 219.9,83.1 220,89.4 219.1,90.3 219.7,92.4 
			220.2,92.4 220.4,95 221,95 221.3,103.4 211.9,103.4 211.9,100.6 210.5,100.6 210.7,93.3 209.6,93.3 209.2,83.7 211.4,79.4 
			212.5,79.4 212.8,78.8 213.2,78.3 213.2,73 214.2,72 214,66.4 214.9,65.3 214.6,60 215.3,59.4 215.1,53.4 216,52.6 215.7,46.7 
			216.8,45.7 216.3,40.3 217.2,39.7 217,34.3 		"/>
		<polyline id="XMLID_111_" class="st3" points="281.7,100.7 279.6,100.7 280.1,66.8 228.3,66.8 228.3,108.6 226.5,102.7 
			199.3,102.7 199,130 207,140.5 229.1,140.6 229.6,188.1 230.3,188.1 253.3,188 253.3,258.3 277.7,258.1 276.9,186.7 278,141.4 
			299.9,141.4 301.1,139.8 		"/>
		<polygon id="XMLID_116_" class="st2" points="324.4,39.7 317.5,39.7 306,67.3 308.4,196.7 314.8,196.7 328.5,193.4 		"/>
		<polygon id="XMLID_114_" class="st1" points="312.4,100.7 273.3,100.8 273.3,140 312.2,139.7 313.1,138.8 		"/>
		<polyline id="XMLID_115_" class="st3" points="280.3,132.3 280.2,106.3 281.9,99.9 309.7,100 310,127.3 306.5,132.3 		"/>
		<polygon id="XMLID_150_" class="st2" points="275.3,62.4 268.1,62.4 260.9,62.4 253.7,62.4 246.5,62.4 239.3,62.4 232.2,62.4 
			225,62.4 225,69.6 225,76.8 225,84 225,91.2 232.2,91.2 232.2,84 239.3,84 246.5,84 246.5,91.2 246.5,98.4 253.7,98.4 260.9,98.4 
			260.9,91.2 260.9,84 268.1,84 275.3,84 275.3,91.2 282.5,91.2 282.5,84 282.5,76.8 282.5,69.6 282.5,62.4 		"/>
	</g>
	<g id="XMLID_7_">
		<polygon id="XMLID_26_" class="st4" points="206.5,298 219,301.9 215,329.8 203.9,351.5 160.6,334.7 158.7,331.7 176.6,295.3 		
			"/>
		<polygon id="XMLID_16_" class="st4" points="189.5,210.1 196.4,211.9 225.3,257.7 150,406 146.3,406 103.1,376.8 		"/>
		<polygon id="XMLID_38_" class="st4" points="327.9,291.7 329.6,289.8 334.7,289.9 335.1,294.5 337.8,294.8 337.8,292.3 342,290.8 
			342,285 346,283.6 345.9,277.1 349.2,275.8 349.2,269.3 353.1,268.4 353.1,262.1 356.4,261.3 356.4,254.8 360.3,253.5 
			360.3,246.8 363.9,246 363.9,239.5 374,236.5 379.7,236.7 379.7,255 376.7,256 376.7,262.2 373.1,263.6 373.1,269.4 369.5,270.9 
			369.6,277.3 366.2,278.2 366,284.4 362.3,285.9 362.2,291.8 358.7,293.4 358.8,299.7 355.1,301.2 355,307.2 351.6,308.5 
			351.6,312.8 355.4,313.4 355.5,317 359.2,317.9 359.4,329.4 352.6,332.5 333.3,314.8 319.1,302.6 		"/>
		<polygon id="XMLID_21_" class="st2" points="219.1,195 214.1,202 214.1,277.3 288.2,278.7 290.7,203.2 287.7,195.7 		"/>
		<polygon id="XMLID_23_" class="st2" points="192.2,251.7 189,256 160.1,318.2 168.9,327 197.5,338.8 212.8,308.6 206.6,300.8 
			222,272.6 222,266.6 		"/>
		<polygon id="XMLID_34_" class="st2" points="215.1,275.5 214.7,276.3 211.5,375.7 284.2,377.8 288.2,278.7 249.2,269.8 		"/>
		<polygon id="XMLID_36_" class="st2" points="286.9,271.6 322.2,263.3 333.4,310.1 358.4,334.2 342.5,363.9 317,356.6 288.2,330 
			280.7,288 278.3,272.1 		"/>
		<polygon id="XMLID_37_" class="st2" points="211.6,374.3 182.7,467.3 182.7,471.1 215.1,481.1 216.9,479 231.7,431.2 245.1,389.4 
			247.9,377.8 249.2,369.9 		"/>
		<polygon id="XMLID_39_" class="st2" points="247.3,374.5 243.1,386.1 261.8,419.8 267.1,463.8 299.7,463.2 310.4,456.1 
			304.8,399.6 284.9,361.2 		"/>
		<polygon id="XMLID_40_" class="st4" points="327.9,356.6 321.4,350 315.7,347.7 315.7,358.1 319.1,359.5 		"/>
	</g>
</g>
</svg>
