<?xml version="1.0" encoding="UTF-8" standalone="no"?>
<!-- Created with Inkscape (http://www.inkscape.org/) -->

<svg
   width="512"
   height="512"
   viewBox="0 0 512 512"
   version="1.1"
   id="svg1"
   xml:space="preserve"
   inkscape:version="1.3 (0e150ed6c4, 2023-07-21)"
   sodipodi:docname="combat_expanded_icon_2.svg"
   xmlns:inkscape="http://www.inkscape.org/namespaces/inkscape"
   xmlns:sodipodi="http://sodipodi.sourceforge.net/DTD/sodipodi-0.dtd"
   xmlns="http://www.w3.org/2000/svg"
   xmlns:svg="http://www.w3.org/2000/svg"><sodipodi:namedview
     id="namedview1"
     pagecolor="#ffffff"
     bordercolor="#000000"
     borderopacity="0.25"
     inkscape:showpageshadow="2"
     inkscape:pageopacity="0.0"
     inkscape:pagecheckerboard="0"
     inkscape:deskcolor="#d1d1d1"
     inkscape:document-units="px"
     showgrid="true"
     inkscape:zoom="0.5"
     inkscape:cx="118"
     inkscape:cy="-37"
     inkscape:window-width="1920"
     inkscape:window-height="1009"
     inkscape:window-x="-8"
     inkscape:window-y="-8"
     inkscape:window-maximized="1"
     inkscape:current-layer="layer1"><inkscape:grid
       id="grid1"
       units="px"
       originx="0"
       originy="0"
       spacingx="1"
       spacingy="1"
       empcolor="#0099e5"
       empopacity="0.30196078"
       color="#0099e5"
       opacity="0.14901961"
       empspacing="5"
       dotted="false"
       gridanglex="30"
       gridanglez="30"
       visible="true" /></sodipodi:namedview><defs
     id="defs1" /><g
     inkscape:label="Layer 1"
     inkscape:groupmode="layer"
     id="layer1"><path
       style="display:inline;fill:#3d83a3;fill-opacity:1;stroke-width:0.655091"
       d="M 164.39946,443.09192 V 427.08293 H 148.95895 133.51842 V 411.40745 395.73198 H 118.39958 103.28074 V 316.02054 236.30911 H 73.043059 42.805375 V 141.92276 47.536429 h 75.915885 75.91589 V 78.887371 110.2383 h 14.79716 14.79716 v 16.00899 16.00899 h 31.52439 31.5244 V 126.24729 110.2383 h 15.11883 15.11885 V 78.887371 47.536429 h 75.91589 75.91589 v 94.386331 94.38635 h -30.55936 -30.55937 v 79.37791 79.37792 h -15.44051 -15.44053 v 16.00899 16.009 h -15.11883 -15.11884 v 16.00899 16.00899 h -91.35642 -91.3564 z"
       id="path12"
       inkscape:label="chestplate" /><path
       style="display:inline;fill:#7fbcd7;fill-opacity:1;stroke-width:1.35427"
       d="m 28.10597,490.89175 h 85.41149 v -59.91541 h 27.13529 v -28.12356 h 29.63426 v -28.65143 h 28.63727 v 28.66222 h 58.27569 v 28.12355 h 57.28388 v -55.74615 h -27.13528 v -31.25858 h -31.14611 v -31.2532 h 31.1513 v -28.12356 h 27.1353 v -28.65144 h 28.1328 v -31.77031 h 28.63675 V 194.4982 h 31.1513 v -27.08932 h 27.12491 v -31.26395 h 29.1303 v -30.20281 h 26.13259 V 19.993173 H 403.39702 V 49.68424 h -31.14609 v 30.741459 h -28.62118 v 26.556041 h -28.14319 v 30.20818 h -27.1353 v 31.25858 h -31.14091 v 27.07855 H 229.5867 v 29.70184 h -30.66295 v 31.77497 H 170.28701 V 225.2235 H 140.65275 V 195.53243 H 82.875309 v 60.43541 h 31.650041 v 56.77213 h 27.13531 v 31.25858 h -27.13531 v 31.25319 H 82.875309 V 403.8978 H 28.11636 Z"
       id="path11"
       inkscape:label="sword" /></g></svg>
