<?xml version="1.0" encoding="utf-8"?>
<!-- Generator: Adobe Illustrator 23.0.6, SVG Export Plug-In . SVG Version: 6.00 Build 0)  -->
<svg version="1.1" id="heart_canisters" xmlns="http://www.w3.org/2000/svg" xmlns:xlink="http://www.w3.org/1999/xlink" x="0px"
	 y="0px" viewBox="0 0 512 512" style="enable-background:new 0 0 512 512;" xml:space="preserve">
<style type="text/css">
	.st0{fill:#FFFFFF;}
	.st1{fill:#7FBCD7;}
	.st2{fill:#387895;}
	.st3{fill:#A1CEE2;}
	.st4{fill:#3D83A3;}
</style>
<rect class="st0" width="512" height="512"/>
<g>
	<polygon class="st1" points="325.02,317.79 332.41,451.89 393.74,449.25 384.16,272.9 325.56,275.55 325.56,167.84 206.22,167.84 
		208.87,276 151.32,270.26 134.02,449.25 193.55,453.46 207.81,323.58 207.5,512 324.38,512 	"/>
</g>
<g>
	<polygon class="st2" points="159.23,429.06 160.96,439.3 150.72,441.03 152.45,451.27 142.21,453 143.94,463.24 133.7,464.97 
		123.46,466.7 121.73,456.46 111.49,458.19 109.76,447.95 99.52,449.68 97.79,439.44 87.54,441.17 89.28,451.41 91.01,461.65 
		92.73,471.89 94.46,482.13 104.71,480.4 114.95,478.67 125.19,476.94 135.43,475.21 145.67,473.48 155.91,471.75 166.15,470.02 
		176.39,468.29 174.66,458.05 172.93,447.81 171.2,437.57 169.47,427.33 	"/>
	<polygon class="st0" points="145.53,410.31 135.29,412.04 137.02,422.28 126.78,424.01 116.54,425.74 114.81,415.5 104.57,417.23 
		94.33,418.96 96.06,429.2 97.79,439.44 108.03,437.71 109.76,447.95 120,446.22 121.73,456.46 131.97,454.73 142.21,453 
		140.48,442.76 150.72,441.03 148.99,430.79 159.23,429.06 157.5,418.82 155.77,408.58 	"/>
	<g>
		<polygon class="st3" points="121.73,456.46 123.46,466.7 133.7,464.97 143.94,463.24 142.21,453 131.97,454.73 		"/>
		
			<rect x="141.27" y="441.81" transform="matrix(0.986 -0.1666 0.1666 0.986 -72.4252 30.6482)" class="st3" width="10.39" height="10.38"/>
		
			<rect x="110.53" y="446.97" transform="matrix(0.986 -0.1666 0.1666 0.986 -73.715 25.599)" class="st3" width="10.39" height="10.39"/>
		
			<rect x="149.77" y="429.84" transform="matrix(0.986 -0.1666 0.1666 0.986 -70.312 31.8986)" class="st3" width="10.39" height="10.38"/>
		
			<rect x="98.56" y="438.46" transform="matrix(0.986 -0.1666 0.1666 0.986 -72.4645 23.4859)" class="st3" width="10.39" height="10.39"/>
		<polygon class="st3" points="155.77,408.58 157.5,418.82 159.23,429.06 169.47,427.33 167.74,417.09 166.01,406.85 		"/>
		<polygon class="st3" points="126.78,424.01 137.02,422.28 135.29,412.04 125.05,413.77 114.81,415.5 116.54,425.74 		"/>
		<polygon class="st3" points="94.33,418.96 84.09,420.69 85.81,430.93 87.54,441.17 97.79,439.44 96.06,429.2 		"/>
		<polygon class="st3" points="155.77,408.58 154.04,398.34 143.8,400.07 133.56,401.8 135.29,412.04 145.53,410.31 		"/>
		<polygon class="st3" points="114.81,415.5 113.08,405.26 102.84,406.99 92.6,408.72 94.33,418.96 104.57,417.23 		"/>
	</g>
	<polygon class="st2" points="152.31,388.1 142.07,389.83 131.83,391.56 121.59,393.29 111.35,395.02 101.11,396.75 90.87,398.48 
		80.63,400.21 82.36,410.45 84.09,420.69 94.33,418.96 92.6,408.72 102.84,406.99 113.08,405.26 114.81,415.5 125.05,413.77 
		135.29,412.04 133.56,401.8 143.8,400.07 154.04,398.34 155.77,408.58 166.01,406.85 164.28,396.61 162.55,386.37 	"/>
</g>
<polygon class="st4" points="226.08,69.89 213.73,69.89 213.73,57.54 213.73,45.2 201.39,45.2 189.04,45.2 189.04,57.54 
	189.04,69.89 176.7,69.89 164.35,69.89 164.35,82.23 164.35,94.58 176.7,94.58 189.04,94.58 189.04,106.93 189.04,119.27 
	201.39,119.27 213.73,119.27 213.73,106.93 213.73,94.58 226.08,94.58 238.42,94.58 238.42,82.23 238.42,69.89 "/>
<g>
	<polygon class="st1" points="283.87,45.22 271.61,45.22 271.61,57.52 271.61,69.82 283.87,69.82 283.87,57.52 296.13,57.52 
		296.13,45.22 	"/>
	<g>
		<polygon class="st4" points="345.18,45.24 345.18,32.94 332.92,32.94 320.65,32.94 320.65,45.24 308.39,45.24 296.13,45.24 
			296.13,57.54 283.86,57.54 283.86,69.84 271.6,69.84 271.6,57.54 271.6,45.24 259.34,45.24 259.34,57.54 259.34,69.84 
			259.34,82.14 271.6,82.14 271.6,94.43 283.86,94.43 283.86,106.73 296.13,106.73 296.13,119.03 308.39,119.03 320.65,119.03 
			320.65,106.73 332.92,106.73 332.92,94.43 345.18,94.43 345.18,82.14 357.44,82.14 357.44,69.84 357.44,57.54 357.44,45.24 		"/>
		<polygon class="st4" points="296.13,45.22 296.13,32.93 283.87,32.93 271.61,32.93 271.61,45.22 283.87,45.22 		"/>
	</g>
</g>
</svg>
