<?xml version="1.0" encoding="UTF-8" standalone="no"?>
<!-- Created with Inkscape (http://www.inkscape.org/) -->

<svg
   width="1024"
   height="1024"
   viewBox="0 0 270.93333 270.93333"
   version="1.1"
   id="svg5"
   xml:space="preserve"
   inkscape:version="1.2.1 (9c6d41e410, 2022-07-14)"
   sodipodi:docname="pack.svg"
   inkscape:export-filename="pack.png"
   inkscape:export-xdpi="48"
   inkscape:export-ydpi="48"
   xmlns:inkscape="http://www.inkscape.org/namespaces/inkscape"
   xmlns:sodipodi="http://sodipodi.sourceforge.net/DTD/sodipodi-0.dtd"
   xmlns="http://www.w3.org/2000/svg"
   xmlns:svg="http://www.w3.org/2000/svg"><sodipodi:namedview
     id="namedview7"
     pagecolor="#ffffff"
     bordercolor="#666666"
     borderopacity="1.0"
     inkscape:showpageshadow="2"
     inkscape:pageopacity="0.0"
     inkscape:pagecheckerboard="0"
     inkscape:deskcolor="#d1d1d1"
     inkscape:document-units="mm"
     showgrid="true"
     inkscape:zoom="0.79414637"
     inkscape:cx="439.46559"
     inkscape:cy="512.49998"
     inkscape:window-width="1920"
     inkscape:window-height="1017"
     inkscape:window-x="-8"
     inkscape:window-y="-8"
     inkscape:window-maximized="1"
     inkscape:current-layer="layer1"><inkscape:grid
       type="xygrid"
       id="grid1310" /></sodipodi:namedview><defs
     id="defs2"><filter
       style="color-interpolation-filters:sRGB;"
       inkscape:label="Colorize"
       id="filter729114"
       x="0"
       y="0"
       width="1"
       height="1"><feComposite
         in2="SourceGraphic"
         operator="arithmetic"
         k1="0"
         k2="1"
         result="composite1"
         id="feComposite729100" /><feColorMatrix
         in="composite1"
         values="1"
         type="saturate"
         result="colormatrix1"
         id="feColorMatrix729102" /><feFlood
         flood-opacity="1"
         flood-color="rgb(74,160,199)"
         result="flood1"
         id="feFlood729104" /><feBlend
         in="flood1"
         in2="colormatrix1"
         mode="multiply"
         result="blend1"
         id="feBlend729106" /><feBlend
         in2="blend1"
         mode="screen"
         result="blend2"
         id="feBlend729108" /><feColorMatrix
         in="blend2"
         values="1"
         type="saturate"
         result="colormatrix2"
         id="feColorMatrix729110" /><feComposite
         in="colormatrix2"
         in2="SourceGraphic"
         operator="in"
         k2="1"
         result="composite2"
         id="feComposite729112" /></filter></defs><g
     inkscape:label="Layer 1"
     inkscape:groupmode="layer"
     id="layer1"><rect
       style="fill:#ffffff;stroke-width:1.49"
       id="rect728871"
       width="271.19791"
       height="271.19791"
       x="0"
       y="0" /><path
       style="fill:#4aa0c7;stroke-width:1.1181;fill-opacity:1"
       d="m 21.241673,205.79824 c 0.07088,-20.58454 -0.129028,-41.75657 -0.129028,-41.75657 0,0 2.398431,0 6.7939,0 h 6.308625 l 0.252579,32.15018 0.232698,32.16175 4.860345,0.25782 c 12.030037,0.63817 28.969298,2.097 37.479356,3.51448 11.644685,1.93961 42.945082,9.54847 42.945082,10.43959 0,0.36164 -22.122683,0.65752 -49.161509,0.65752 l -49.711076,0.0374 z m 128.414737,36.77848 c 0,-0.94916 31.60558,-8.51396 43.7259,-10.4658 9.95274,-1.60277 25.07493,-3.07118 35.91772,-3.48775 l 5.82053,-0.26957 0.0534,-32.20731 -0.0534,-32.10462 h 7.27916 6.30861 l 0.11202,39.5551 -0.11202,39.23766 -49.46999,0.19969 c -27.27014,0.11622 -49.58207,-0.0897 -49.58207,-0.4574 z m -28.89034,-3.85606 C 94.429845,230.8588 64.310098,225.61134 45.520551,225.61134 h -5.178929 v -39.74176 -39.74179 l 11.454779,0.44411 c 18.613777,0.72163 46.329133,6.11088 71.702539,13.9425 l 9.2278,2.67546 v 39.18341 c 2e-5,21.54241 0,39.60935 0,39.60935 0,0 -6.80725,-1.72359 -11.96067,-3.26196 z m 17.78402,-36.34739 c 0.38495,-35.92087 0,-39.18341 0,-39.18341 0,0 38.53164,-11.24658 52.7853,-13.64962 8.15958,-1.37565 19.93044,-2.70622 26.15748,-2.9568 l 11.80716,-0.45565 v 39.74179 39.74176 h -5.17893 c -18.56515,0 -47.27911,4.91856 -73.05651,12.51421 -6.52616,1.92302 -12.5145,3.85707 -12.5145,3.85707 0,0 -0.23055,-18.09585 0,-39.60935 z"
       id="path1259"
       sodipodi:nodetypes="scscccsssscssssccccccccssscccsscsscsscscccssscs" /><g
       id="g729082"
       transform="matrix(2.7142855,0,0,2.7142855,-186.75619,-163.74673)"
       style="filter:url(#filter729114)"><path
         style="fill:#d4d4d4;fill-opacity:1;stroke-width:0.264583"
         d="m 124.08891,80.937398 v -1.322917 h -1.32292 -1.32291 v -1.322916 -1.322917 h 1.32291 1.32292 v 1.322917 1.322916 h 1.32292 1.32291 v 1.322917 1.322917 h -1.32291 -1.32292 z"
         id="path729098" /><path
         style="fill:#c2c2c2;fill-opacity:1;stroke-width:0.264583"
         d="m 105.56808,102.10406 v -1.32291 h -1.32292 -1.32292 v -1.322919 -1.322917 h 1.32292 1.32292 v -2.645833 -2.645833 h 1.32291 1.32292 v -1.322917 -1.322917 h 1.32292 1.32291 v -1.322916 -1.322917 h 1.32292 1.32292 v -1.322917 -1.322916 h 2.64583 2.64583 v -1.322917 -1.322916 h 1.32292 1.32292 v -1.322917 -1.322917 h 1.32291 1.32292 v 1.322917 1.322917 h 1.32292 1.32291 v 2.645833 2.645833 h -1.32291 -1.32292 v -1.322917 -1.322916 h -2.64583 -2.64584 v 1.322916 1.322917 h -1.32291 -1.32292 v 1.322917 1.322916 h 1.32292 1.32291 v 1.322917 1.322917 h 1.32292 1.32292 v -1.322917 -1.322917 h 1.32291 1.32292 v 1.322917 1.322917 h -1.32292 -1.32291 v 1.322916 1.322917 h -1.32292 -1.32292 v 1.322916 1.322917 h -1.32291 -1.32292 v 1.322917 1.322919 h -1.32292 -1.32291 v 1.32291 1.32292 h -1.32292 -1.32292 v -1.32292 -1.32291 h -1.32291 -1.32292 v 1.32291 1.32292 h -1.32292 -1.32291 z m 2.64583,-2.645829 v -1.322917 h -1.32292 -1.32291 v 1.322917 1.322919 h 1.32291 1.32292 z m 7.9375,-3.96875 v -2.645833 h -1.32292 -1.32291 v 1.322916 1.322917 h -1.32292 -1.32292 v -1.322917 -1.322916 h -1.32291 -1.32292 v 1.322916 1.322917 h 1.32292 1.32291 v 1.322916 1.322917 h 2.64584 2.64583 z m 21.16667,-19.84375 v -1.322916 h -1.32292 -1.32292 v -1.322917 -1.322916 h -1.32291 -1.32292 v -1.322917 -1.322917 h 2.64583 2.64584 v 1.322917 1.322917 h 1.32291 1.32292 v 2.645833 2.645833 h -1.32292 -1.32291 z"
         id="path729096" /><path
         style="fill:#b0b0b0;fill-opacity:1;stroke-width:0.264583"
         d="m 105.56808,104.7499 v -1.32292 h -1.32292 -1.32292 v -1.32292 -1.32291 h 1.32292 1.32292 v 1.32291 1.32292 h 1.32291 1.32292 v 1.32292 1.32291 h -1.32292 -1.32291 z m 5.29166,0 v -1.32292 h 1.32292 1.32292 v -1.32292 -1.32291 h 1.32291 1.32292 v -1.322919 -1.322917 h 1.32292 1.32291 v -1.322917 -1.322916 h 1.32292 1.32292 v -1.322917 -1.322916 h 1.32291 1.32292 v -2.645834 -2.645833 h 1.32292 1.32291 v -2.645833 -2.645833 h 1.32292 1.32292 v 3.968749 3.96875 h -1.32292 -1.32292 v 1.322917 1.322917 h -1.32291 -1.32292 v 1.322916 1.322917 h -1.32292 -1.32291 v 1.322916 1.322917 h -1.32292 -1.32292 v 1.322917 1.322919 h -1.32291 -1.32292 v 1.32291 1.32292 h -1.32292 -1.32291 v 1.32292 1.32291 h -1.32292 -1.32292 z m -7.9375,-7.937503 v -1.322916 h 1.32292 1.32292 v 1.322916 1.322917 h -1.32292 -1.32292 z m 13.22917,-13.229166 v -1.322916 h 1.32292 1.32291 v -1.322917 -1.322917 h 1.32292 1.32292 v 1.322917 1.322917 h -1.32292 -1.32292 v 1.322916 1.322917 h -1.32291 -1.32292 z"
         id="path729094" /><path
         style="fill:#9e9e9e;fill-opacity:1;stroke-width:0.264583"
         d="m 121.44308,86.229064 v -1.322916 h 1.32291 1.32292 v 1.322916 1.322917 h -1.32292 -1.32291 z m 10.58333,0 v -1.322916 h 1.32292 1.32291 v -1.322917 -1.322916 h 1.32292 1.32292 v -2.645834 -2.645833 h -3.96875 -3.96875 v 1.322917 1.322916 h -1.32292 -1.32292 v -1.322916 -1.322917 h 1.32292 1.32292 v -1.322917 -1.322916 h 3.96875 3.96875 v 1.322916 1.322917 h 1.32291 1.32292 v 2.645833 2.645834 h -1.32292 -1.32291 v 1.322916 1.322917 h -1.32292 -1.32292 v 1.322916 1.322917 h -1.32291 -1.32292 z"
         id="path729092" /><path
         style="fill:#8c8c8c;fill-opacity:1;stroke-width:0.264583"
         d="m 132.02641,88.874898 v -1.322917 h 1.32292 1.32291 v -1.322917 -1.322916 h 1.32292 1.32292 v -1.322917 -1.322916 h -1.32292 -1.32292 v -2.645834 -2.645833 h 1.32292 1.32292 v 2.645833 2.645834 h 1.32291 1.32292 v 1.322916 1.322917 h -1.32292 -1.32291 v 1.322916 1.322917 h -1.32292 -1.32292 v 1.322917 1.322916 h -1.32291 -1.32292 z"
         id="path729090" /><path
         style="fill:#7a7a7a;fill-opacity:1;stroke-width:0.264583"
         d="m 108.21391,103.42698 v -2.64583 h -1.32292 -1.32291 v -1.322919 -1.322917 h 1.32291 1.32292 v 1.322917 1.322919 h 1.32292 1.32291 v 2.64583 2.64583 h -1.32291 -1.32292 z m 2.64583,-6.614583 v -1.322916 h -1.32291 -1.32292 v -1.322917 -1.322916 h 1.32292 1.32291 v 1.322916 1.322917 h 1.32292 1.32292 v -1.322917 -1.322916 h 1.32291 1.32292 v 2.645833 2.645833 h -2.64583 -2.64584 z m 7.9375,-5.291666 v -1.322917 h -1.32291 -1.32292 v -1.322916 -1.322917 h 1.32292 1.32291 v -1.322917 -1.322916 h 1.32292 1.32292 v 1.322916 1.322917 h 1.32291 1.32292 v 1.322917 1.322916 h -1.32292 -1.32291 v 1.322917 1.322917 h -1.32292 -1.32292 z"
         id="path729088" /><path
         style="fill:#686868;fill-opacity:1;stroke-width:0.264583"
         d="m 102.92224,104.7499 v -1.32292 h -1.32291 -1.32292 v -3.968749 -3.96875 h 1.32292 1.32291 v -1.322917 -1.322916 h 1.32292 1.32292 v -1.322917 -1.322917 h 1.32291 1.32292 v -1.322916 -1.322917 h 1.32292 1.32291 v -1.322917 -1.322916 h 1.32292 1.32292 v -1.322917 -1.322916 h 1.32291 1.32292 v -1.322917 -1.322917 h 1.32292 1.32291 v -1.322916 -1.322917 h 1.32292 1.32292 v 1.322917 1.322916 h -1.32292 -1.32292 v 1.322917 1.322917 h -1.32291 -1.32292 v 1.322916 1.322917 h -1.32292 -1.32291 v 1.322916 1.322917 h -1.32292 -1.32292 v 1.322917 1.322916 h -1.32291 -1.32292 v 1.322917 1.322917 h -1.32292 -1.32291 v 1.322916 1.322917 h -1.32292 -1.32292 v 3.96875 3.968749 h 1.32292 1.32292 v 1.32292 1.32291 h -1.32292 -1.32292 z"
         id="path729086" /><path
         style="fill:#454545;fill-opacity:1;stroke-width:0.264583"
         d="m 105.56808,107.39573 v -1.32292 h 3.96875 3.96875 v -1.32291 -1.32292 h 1.32291 1.32292 v -1.32292 -1.32291 h 1.32292 1.32291 v -1.322919 -1.322917 h 1.32292 1.32292 v -1.322917 -1.322916 h 1.32291 1.32292 v -1.322917 -1.322916 h 1.32292 1.32291 v -1.322917 -1.322917 h 1.32292 1.32292 v -3.96875 -3.968749 h -1.32292 -1.32292 v -1.322917 -1.322917 h 1.32292 1.32292 v 1.322917 1.322917 h 1.32291 1.32292 v 3.968749 3.96875 h -1.32292 -1.32291 v 1.322917 1.322917 h -1.32292 -1.32292 v 1.322916 1.322917 h -1.32291 -1.32292 v 1.322916 1.322917 h -1.32292 -1.32291 v 1.322917 1.322919 h -1.32292 -1.32292 v 1.32291 1.32292 h -1.32291 -1.32292 v 1.32292 1.32291 h -1.32292 -1.32291 v 1.32292 1.32292 h -3.96875 -3.96875 z"
         id="path729084" /></g></g></svg>
