<?xml version="1.0" encoding="utf-8"?>
<!-- Generator: Adobe Illustrator 23.0.6, SVG Export Plug-In . SVG Version: 6.00 Build 0)  -->
<svg version="1.1" id="book_binders" xmlns="http://www.w3.org/2000/svg" xmlns:xlink="http://www.w3.org/1999/xlink" x="0px"
	 y="0px" viewBox="0 0 512 512" style="enable-background:new 0 0 512 512;" xml:space="preserve">
<style type="text/css">
	.st0{fill:#FFFFFF;}
	.st1{fill:#4AA0C7;}
	.st2{fill:#3D83A3;}
	.st3{fill:#7FBCD7;}
</style>
<rect class="st0" width="512" height="512"/>
<g id="Icon">
	<g id="Book">
		<g id="Cover_1_">
			<g>
				<rect x="206.13" y="353.44" class="st1" width="123.69" height="82.44"/>
				<rect x="261.11" y="339.69" class="st1" width="54.96" height="96.22"/>
				<rect x="164.9" y="380.9" class="st1" width="192.43" height="41.26"/>
				<rect x="206.13" y="422.15" class="st1" width="68.73" height="41.21"/>
				<rect x="192.39" y="422.15" class="st1" width="13.74" height="27.49"/>
				<rect x="178.64" y="408.4" class="st1" width="27.49" height="27.48"/>
			</g>
			<g>
				<rect x="219.87" y="463.37" class="st2" width="27.48" height="13.75"/>
				<rect x="247.35" y="449.64" class="st2" width="27.5" height="13.73"/>
				<rect x="274.86" y="435.89" class="st2" width="27.5" height="13.75"/>
				<rect x="302.36" y="422.15" class="st2" width="27.46" height="13.74"/>
				<rect x="329.82" y="408.4" class="st2" width="27.5" height="13.75"/>
				<rect x="357.33" y="394.65" class="st2" width="13.76" height="13.75"/>
				<rect x="343.58" y="380.9" class="st2" width="13.75" height="13.75"/>
				<rect x="329.82" y="367.17" class="st2" width="13.75" height="13.73"/>
				<rect x="206.13" y="449.64" class="st2" width="13.75" height="13.73"/>
				<rect x="192.39" y="435.89" class="st2" width="13.74" height="13.75"/>
				<rect x="178.64" y="422.15" class="st2" width="13.75" height="13.74"/>
				<rect x="164.9" y="408.4" class="st2" width="13.75" height="13.75"/>
				<rect x="151.16" y="380.9" class="st2" width="13.74" height="27.5"/>
				<rect x="151.16" y="380.9" class="st2" width="27.48" height="13.75"/>
				<rect x="178.64" y="367.17" class="st2" width="27.49" height="13.73"/>
				<rect x="206.13" y="353.44" class="st2" width="27.5" height="13.74"/>
				<rect x="233.62" y="339.69" class="st2" width="27.48" height="13.76"/>
				<rect x="261.11" y="325.93" class="st2" width="41.25" height="13.75"/>
				<rect x="316.07" y="353.44" class="st2" width="13.75" height="13.74"/>
				<rect x="302.36" y="339.69" class="st2" width="13.71" height="13.76"/>
			</g>
		</g>
		<g id="Page_2_">
			<g>
				<rect x="206.13" y="298.43" class="st0" width="123.69" height="82.47"/>
				<rect x="261.11" y="284.68" class="st0" width="54.96" height="96.22"/>
				<rect x="164.9" y="325.93" class="st0" width="192.43" height="41.24"/>
				<rect x="206.13" y="367.17" class="st0" width="68.73" height="41.23"/>
				<rect x="192.39" y="367.17" class="st0" width="13.74" height="27.48"/>
				<rect x="178.64" y="353.44" class="st0" width="27.49" height="27.46"/>
			</g>
			<g>
				<rect x="219.87" y="408.4" class="st3" width="27.48" height="13.75"/>
				<rect x="247.35" y="394.65" class="st3" width="27.5" height="13.75"/>
				<rect x="274.86" y="380.9" class="st3" width="27.5" height="13.75"/>
				<rect x="302.36" y="367.17" class="st3" width="27.46" height="13.73"/>
				<rect x="329.82" y="353.44" class="st3" width="27.5" height="13.74"/>
				<rect x="357.33" y="339.69" class="st3" width="13.76" height="13.76"/>
				<rect x="343.58" y="325.93" class="st3" width="13.75" height="13.75"/>
				<rect x="329.82" y="312.18" class="st3" width="13.75" height="13.75"/>
				<rect x="206.13" y="394.65" class="st3" width="13.75" height="13.75"/>
				<rect x="192.39" y="380.9" class="st3" width="13.74" height="13.75"/>
				<rect x="178.64" y="367.17" class="st3" width="13.75" height="13.73"/>
				<rect x="164.9" y="353.44" class="st3" width="13.75" height="13.74"/>
				<rect x="151.16" y="325.93" class="st3" width="13.74" height="27.5"/>
				<rect x="151.16" y="325.93" class="st3" width="27.48" height="13.75"/>
				<rect x="178.64" y="312.18" class="st3" width="27.49" height="13.75"/>
				<rect x="206.13" y="298.43" class="st3" width="27.5" height="13.76"/>
				<rect x="233.62" y="284.68" class="st3" width="27.48" height="13.75"/>
				<rect x="261.11" y="270.97" class="st3" width="41.25" height="13.75"/>
				<rect x="316.07" y="298.43" class="st3" width="13.75" height="13.76"/>
				<rect x="302.36" y="284.68" class="st3" width="13.71" height="13.75"/>
			</g>
		</g>
		<g id="Page_1_">
			<g>
				<rect x="206.13" y="243.47" class="st0" width="123.69" height="82.46"/>
				<rect x="261.11" y="229.71" class="st0" width="54.96" height="96.22"/>
				<rect x="164.9" y="270.97" class="st0" width="192.43" height="41.22"/>
				<rect x="206.13" y="312.18" class="st0" width="68.73" height="41.26"/>
				<rect x="192.39" y="312.18" class="st0" width="13.74" height="27.5"/>
				<rect x="178.64" y="298.43" class="st0" width="27.49" height="27.5"/>
			</g>
			<g>
				<rect x="219.87" y="353.44" class="st3" width="27.48" height="13.74"/>
				<rect x="247.35" y="339.69" class="st3" width="27.5" height="13.76"/>
				<rect x="274.86" y="325.93" class="st3" width="27.5" height="13.75"/>
				<rect x="302.36" y="312.18" class="st3" width="27.46" height="13.75"/>
				<rect x="329.82" y="298.43" class="st3" width="27.5" height="13.76"/>
				<rect x="357.33" y="284.68" class="st3" width="13.76" height="13.75"/>
				<rect x="343.58" y="270.97" class="st3" width="13.75" height="13.75"/>
				<rect x="329.82" y="257.22" class="st3" width="13.75" height="13.75"/>
				<rect x="206.13" y="339.69" class="st3" width="13.75" height="13.76"/>
				<rect x="192.39" y="325.93" class="st3" width="13.74" height="13.75"/>
				<rect x="178.64" y="312.18" class="st3" width="13.75" height="13.75"/>
				<rect x="164.9" y="298.43" class="st3" width="13.75" height="13.76"/>
				<rect x="151.16" y="270.97" class="st3" width="13.74" height="27.46"/>
				<rect x="151.16" y="270.97" class="st3" width="27.48" height="13.75"/>
				<rect x="178.64" y="257.22" class="st3" width="27.49" height="13.75"/>
				<rect x="206.13" y="243.47" class="st3" width="27.5" height="13.75"/>
				<rect x="233.62" y="229.71" class="st3" width="27.48" height="13.75"/>
				<rect x="261.11" y="215.99" class="st3" width="41.25" height="13.73"/>
				<rect x="316.07" y="243.47" class="st3" width="13.75" height="13.75"/>
				<rect x="302.36" y="229.71" class="st3" width="13.71" height="13.75"/>
			</g>
		</g>
		<g id="Page">
			<g>
				<rect x="206.13" y="188.48" class="st0" width="123.69" height="82.48"/>
				<rect x="261.11" y="174.75" class="st0" width="54.96" height="96.22"/>
				<rect x="164.9" y="215.99" class="st0" width="192.43" height="41.23"/>
				<rect x="206.13" y="257.22" class="st0" width="68.73" height="41.22"/>
				<rect x="192.39" y="257.22" class="st0" width="13.74" height="27.47"/>
				<rect x="178.64" y="243.47" class="st0" width="27.49" height="27.5"/>
			</g>
			<g>
				<rect x="219.87" y="298.43" class="st3" width="27.48" height="13.76"/>
				<rect x="247.35" y="284.68" class="st3" width="27.5" height="13.75"/>
				<rect x="274.86" y="270.97" class="st3" width="27.5" height="13.75"/>
				<rect x="302.36" y="257.22" class="st3" width="27.46" height="13.75"/>
				<rect x="329.82" y="243.47" class="st3" width="27.5" height="13.75"/>
				<rect x="357.33" y="229.71" class="st3" width="13.76" height="13.75"/>
				<rect x="343.58" y="215.99" class="st3" width="13.75" height="13.73"/>
				<rect x="329.82" y="202.23" class="st3" width="13.75" height="13.75"/>
				<rect x="206.13" y="284.68" class="st3" width="13.75" height="13.75"/>
				<rect x="192.39" y="270.97" class="st3" width="13.74" height="13.75"/>
				<rect x="178.64" y="257.22" class="st3" width="13.75" height="13.75"/>
				<rect x="164.9" y="243.47" class="st3" width="13.75" height="13.75"/>
				<rect x="151.16" y="215.99" class="st3" width="13.74" height="27.48"/>
				<rect x="151.16" y="215.99" class="st3" width="27.48" height="13.73"/>
				<rect x="178.64" y="202.23" class="st3" width="27.49" height="13.75"/>
				<rect x="206.13" y="188.48" class="st3" width="27.5" height="13.75"/>
				<rect x="233.62" y="174.75" class="st3" width="27.48" height="13.74"/>
				<rect x="261.11" y="161" class="st3" width="41.25" height="13.75"/>
				<rect x="316.07" y="188.48" class="st3" width="13.75" height="13.75"/>
				<rect x="302.36" y="174.75" class="st3" width="13.71" height="13.74"/>
			</g>
		</g>
		<g id="Cover">
			<g>
				<rect x="206.13" y="119.77" class="st1" width="123.69" height="82.46"/>
				<rect x="261.11" y="106.02" class="st1" width="54.96" height="96.21"/>
				<rect x="164.9" y="147.26" class="st1" width="192.43" height="41.23"/>
				<rect x="206.13" y="188.48" class="st1" width="68.73" height="41.23"/>
				<rect x="192.39" y="188.48" class="st1" width="13.74" height="27.5"/>
				<rect x="178.64" y="174.75" class="st1" width="27.49" height="27.48"/>
			</g>
			<g>
				<rect x="219.87" y="229.71" class="st2" width="27.48" height="13.75"/>
				<rect x="247.35" y="215.99" class="st2" width="27.5" height="13.73"/>
				<rect x="274.86" y="202.23" class="st2" width="27.5" height="13.75"/>
				<rect x="302.36" y="188.48" class="st2" width="27.46" height="13.75"/>
				<rect x="329.82" y="174.75" class="st2" width="27.5" height="13.74"/>
				<rect x="357.33" y="161" class="st2" width="13.76" height="13.75"/>
				<rect x="343.58" y="147.26" class="st2" width="13.75" height="13.75"/>
				<rect x="329.82" y="133.52" class="st2" width="13.75" height="13.74"/>
				<rect x="206.13" y="215.99" class="st2" width="13.75" height="13.73"/>
				<rect x="192.39" y="202.23" class="st2" width="13.74" height="13.75"/>
				<rect x="178.64" y="188.48" class="st2" width="13.75" height="13.75"/>
				<rect x="164.9" y="174.75" class="st2" width="13.75" height="13.74"/>
				<rect x="151.16" y="147.26" class="st2" width="13.74" height="27.49"/>
				<rect x="151.16" y="147.26" class="st2" width="27.48" height="13.75"/>
				<rect x="178.64" y="133.52" class="st2" width="27.49" height="13.74"/>
				<rect x="206.13" y="119.77" class="st2" width="27.5" height="13.75"/>
				<rect x="233.62" y="106.02" class="st2" width="27.48" height="13.75"/>
				<rect x="261.11" y="92.28" class="st2" width="41.25" height="13.74"/>
				<rect x="316.07" y="119.77" class="st2" width="13.75" height="13.75"/>
				<rect x="302.36" y="106.02" class="st2" width="13.71" height="13.75"/>
			</g>
		</g>
		<g id="Binding">
			<rect x="302.36" y="188.48" class="st3" width="13.71" height="13.75"/>
			<rect x="274.86" y="188.48" class="st3" width="13.75" height="13.75"/>
			<rect x="261.11" y="174.75" class="st3" width="13.75" height="13.74"/>
			<rect x="274.86" y="161" class="st3" width="27.5" height="13.75"/>
			<rect x="261.11" y="133.52" class="st3" width="27.5" height="13.74"/>
			<rect x="247.35" y="106.02" class="st3" width="13.75" height="27.49"/>
			<rect x="219.87" y="92.28" class="st3" width="27.48" height="13.74"/>
			<rect x="206.13" y="78.53" class="st3" width="13.75" height="13.75"/>
			<rect x="219.87" y="51.05" class="st3" width="13.75" height="27.49"/>
			<rect x="247.35" y="37.3" class="st3" width="13.75" height="13.74"/>
			<rect x="233.62" y="37.3" class="st1" width="13.73" height="27.49"/>
			<rect x="219.87" y="78.53" class="st1" width="13.75" height="13.75"/>
			<rect x="206.13" y="64.78" class="st1" width="13.75" height="13.75"/>
		</g>
	</g>
</g>
</svg>
