<?xml version="1.0" encoding="utf-8"?>
<!-- Generator: Adobe Illustrator 23.0.6, SVG Export Plug-In . SVG Version: 6.00 Build 0)  -->
<svg version="1.1" id="boots_of_ostara" xmlns="http://www.w3.org/2000/svg" xmlns:xlink="http://www.w3.org/1999/xlink" x="0px"
	 y="0px" viewBox="0 0 512 512" style="enable-background:new 0 0 512 512;" xml:space="preserve">
<style type="text/css">
	.st0{fill:#FFFFFF;}
	.st1{fill:#7FBCD7;}
	.st2{fill:#A1CEE2;}
	.st3{fill:#3D83A3;}
</style>
<rect class="st0" width="512" height="512"/>
<g id="Player">
	<path id="path6524" class="st1" d="M434.77,273.97l-22.37-31.2l-0.32-15.12l4.07-3.15l-0.6-36.88l19.52,12.61l42.23,11.97
		l7.9-28.68l-37.53-15.13l-23.31-21.13l0.31-8.52l5.02,2.53l17.36-54.53l-79.74-27.42l-20.18,48.86l11.97,9.13l-0.65,4.1l-16.68,1.9
		l-25.83,32.14l-2.23,57.69l14.21,4.71l17.64-0.63l-1.25-36.25l5.34-11.65l7.28,6.29l4.08,50.12l1.58,24.58l-38.47,28.05l5.05,23.34
		l20.19,9.43l33.7-21.73l6.96-9.14l20.15,11.97L434.77,273.97z"/>
</g>
<path id="rect6526-6" class="st2" d="M153.2,415.32l89.46-25.63l67.51,37.04l-95.13,25.83L153.2,415.32z"/>
<path id="rect6526-4" class="st2" d="M175.85,317.43l72.51-21.01l56.07,27.52l-77.18,25.55L175.85,317.43z"/>
<path id="rect6526-7" class="st2" d="M28.85,353.95l92.74-24.91l70.4,40.01l-98.81,30.8L28.85,353.95z"/>
<g>
	<polygon class="st3" points="243.04,404.4 237.17,404.4 237.17,410.23 243.04,410.23 248.9,410.23 248.9,404.4 	"/>
	<polygon class="st3" points="231.31,404.4 231.31,398.58 231.31,392.75 231.31,386.93 231.31,381.1 237.17,381.1 237.17,375.28 
		243.04,375.28 243.04,369.46 243.04,363.63 237.17,363.63 237.17,357.81 231.31,357.81 225.45,357.81 225.45,363.63 219.58,363.63 
		213.72,363.63 213.72,369.46 207.86,369.46 207.86,375.28 207.86,381.1 213.72,381.1 213.72,386.93 219.58,386.93 225.45,386.93 
		225.45,392.75 225.45,398.58 225.45,404.4 225.45,410.23 225.45,416.05 219.58,416.05 219.58,421.87 225.45,421.87 231.31,421.87 
		237.17,421.87 237.17,416.05 237.17,410.23 231.31,410.23 	"/>
	<polygon class="st3" points="219.58,404.4 213.72,404.4 207.86,404.4 207.86,410.23 213.72,410.23 213.72,416.05 219.58,416.05 
		219.58,410.23 	"/>
</g>
<polygon class="st3" points="340.62,266.37 324.13,278.37 329.19,301.71 349.36,311.14 370.06,297.82 364.76,271.48 "/>
<polygon class="st3" points="421.31,255.21 400.6,269.96 396.09,268.52 390.03,280.28 410.18,292.25 434.77,273.97 "/>
<g>
	<polygon class="st1" points="155.79,165.73 147.03,165.73 147.03,174.46 147.03,183.18 155.79,183.18 155.79,174.46 164.55,174.46 
		164.55,165.73 	"/>
	<polygon class="st3" points="199.58,165.73 199.58,157.01 190.82,157.01 182.06,157.01 182.06,165.73 173.3,165.73 164.55,165.73 
		164.55,174.46 155.79,174.46 155.79,183.18 147.03,183.18 147.03,174.46 147.03,165.73 138.27,165.73 138.27,174.46 138.27,183.18 
		138.27,191.9 147.03,191.9 147.03,200.63 155.79,200.63 155.79,209.35 164.55,209.35 164.55,218.07 173.3,218.07 182.06,218.07 
		182.06,209.35 190.82,209.35 190.82,200.63 199.58,200.63 199.58,191.9 208.34,191.9 208.34,183.18 208.34,174.46 208.34,165.73 	
		"/>
	<polygon class="st3" points="155.79,157.01 147.03,157.01 147.03,165.73 155.79,165.73 164.55,165.73 164.55,157.01 	"/>
</g>
<g>
	<polygon class="st3" points="123.26,341.07 123.26,335.13 123.26,329.19 117.34,329.19 117.34,335.13 117.34,341.07 111.42,341.07 
		111.42,335.13 111.42,329.19 111.42,323.25 111.42,317.31 111.42,311.37 105.5,311.37 105.5,317.31 105.5,323.25 105.5,329.19 
		105.5,335.13 99.57,335.13 99.57,341.07 93.65,341.07 93.65,335.13 87.73,335.13 87.73,329.19 87.73,323.25 81.8,323.25 
		81.8,329.19 81.8,335.13 81.8,341.07 87.73,341.07 87.73,347 87.73,352.94 81.8,352.94 81.8,347 75.88,347 75.88,352.94 
		75.88,358.88 81.8,358.88 87.73,358.88 93.65,358.88 99.57,358.88 105.5,358.88 111.42,358.88 117.34,358.88 123.26,358.88 
		129.19,358.88 135.11,358.88 135.11,352.94 129.19,352.94 129.19,347 123.26,347 	"/>
	<rect x="69.96" y="341.07" class="st3" width="5.92" height="5.94"/>
	<polygon class="st3" points="129.19,341.07 129.19,347 135.11,347 135.11,341.07 135.11,335.13 129.19,335.13 	"/>
	<rect x="135.11" y="329.19" class="st3" width="5.92" height="5.94"/>
	<polygon class="st3" points="99.57,329.19 99.57,323.25 99.57,317.31 93.65,317.31 93.65,323.25 93.65,329.19 93.65,335.13 
		99.57,335.13 	"/>
	<polygon class="st3" points="129.19,323.25 129.19,317.31 123.26,317.31 123.26,323.25 123.26,329.19 129.19,329.19 	"/>
	<rect x="75.88" y="317.31" class="st3" width="5.92" height="5.94"/>
	<rect x="129.19" y="311.37" class="st3" width="5.92" height="5.94"/>
	<rect x="87.73" y="311.37" class="st3" width="5.92" height="5.94"/>
	<polygon class="st3" points="117.34,305.43 117.34,299.49 117.34,293.55 117.34,287.61 111.42,287.61 111.42,293.55 111.42,299.49 
		111.42,305.43 111.42,311.37 117.34,311.37 	"/>
	<polygon class="st3" points="105.5,299.49 105.5,293.55 99.57,293.55 99.57,287.61 99.57,281.67 93.65,281.67 93.65,287.61 
		93.65,293.55 93.65,299.49 99.57,299.49 99.57,305.43 99.57,311.37 105.5,311.37 105.5,305.43 	"/>
	<polygon class="st3" points="123.26,281.67 123.26,275.73 117.34,275.73 117.34,281.67 117.34,287.61 123.26,287.61 	"/>
	<rect x="87.73" y="275.73" class="st3" width="5.92" height="5.94"/>
	<rect x="123.26" y="269.79" class="st3" width="5.92" height="5.94"/>
</g>
<polygon class="st3" points="260.41,290.02 260.41,285.27 255.65,285.27 255.65,280.51 250.9,280.51 246.14,280.51 241.39,280.51 
	236.64,280.51 236.64,285.27 231.88,285.27 231.88,290.02 227.13,290.02 227.13,294.78 227.13,299.53 231.88,299.53 236.64,299.53 
	241.39,299.53 241.39,304.29 241.39,309.04 241.39,313.8 241.39,318.55 246.14,318.55 250.9,318.55 250.9,313.8 250.9,309.04 
	250.9,304.29 250.9,299.53 255.65,299.53 260.41,299.53 265.17,299.53 265.17,294.78 265.17,290.02 "/>
</svg>
