<?xml version="1.0" encoding="utf-8"?>
<!-- Generator: Adobe Illustrator 23.0.6, SVG Export Plug-In . SVG Version: 6.00 Build 0)  -->
<svg version="1.1" id="standard_crafting" xmlns="http://www.w3.org/2000/svg" xmlns:xlink="http://www.w3.org/1999/xlink" x="0px"
	 y="0px" viewBox="0 0 512 512" style="enable-background:new 0 0 512 512;" xml:space="preserve">
<style type="text/css">
	.st0{fill:#BEE9FD;}
	.st1{fill:#4AA0C7;}
	.st2{fill:none;}
</style>
<g id="grid" transform="matrix(1.1876553,0,0,1.1876553,579.25835,-183.2473)">
	<g id="g4206" transform="translate(-547.85714,2.6913062e-7)">
		<g id="rect4204">
			<rect x="60.12" y="154.29" class="st0" width="430.44" height="431.1"/>
		</g>
		<g id="g4197">
			<g id="rect4150">
				<rect x="201.96" y="154.29" class="st1" width="5.04" height="431.1"/>
			</g>
			<g id="rect4150-5">
				<rect x="343.79" y="154.29" class="st1" width="5.04" height="431.1"/>
			</g>
			<g id="rect4150-5-7">
				<rect x="60.12" y="439.54" class="st1" width="430.44" height="5.05"/>
			</g>
			<g id="rect4150-5-7-7">
				<rect x="60.12" y="295.89" class="st1" width="430.44" height="5.05"/>
			</g>
		</g>
	</g>
</g>
<g>
	<g>
		<path class="st2" d="M51.62,512h410.52c27.54,0,49.86-22.36,49.86-49.93V50.91c0-27.58-22.33-49.94-49.86-49.94H51.62
			c-27.54,0-49.86,22.36-49.86,49.94v411.15C1.75,489.64,24.08,512,51.62,512z"/>
	</g>
</g>
<g id="cross" transform="translate(0,-1.6839903)">
	<rect id="rect4332" x="248.81" y="207" class="st1" width="14.44" height="102.33"/>
	<rect id="rect4332-5" x="204.24" y="250.64" class="st1" width="102.18" height="14.46"/>
</g>
</svg>
