<?xml version="1.0" encoding="utf-8"?>
<!-- Generator: Adobe Illustrator 19.0.0, SVG Export Plug-In . SVG Version: 6.00 Build 0)  -->
<svg version="1.1" id="auto_crafting" xmlns="http://www.w3.org/2000/svg" xmlns:xlink="http://www.w3.org/1999/xlink" x="0px" y="0px"
	 viewBox="0 0 512 512" style="enable-background:new 0 0 512 512;" xml:space="preserve">
<style type="text/css">
	.st0{fill:#FFFFFF;}
	.st1{fill:none;stroke:#4AA0C7;stroke-width:9;stroke-linecap:round;stroke-linejoin:round;stroke-miterlimit:10;}
	.st2{fill:#4AA0C7;}
</style>
<rect id="XMLID_2_" class="st0" width="512" height="512"/>
<g id="XMLID_1_">
	<path id="XMLID_340_" class="st1" d="M256,201.5"/>
	<g id="XMLID_66_">
		<path id="XMLID_146_" class="st2" d="M464.3,340.7l-21,9.5c14-28.5,21.4-59.8,21.4-92c0-114.9-93.5-208.4-208.4-208.4
			c-59,0-115.5,25.2-155,69.1l12.9,11.6c36.2-40.3,88-63.4,142.1-63.4c105.3,0,191,85.7,191,191c0,28.9-6.5,57-18.8,82.7l-1.9-22.3
			l-17.3,1.5l5.2,62.2l56.8-25.7L464.3,340.7z"/>
		<path id="XMLID_145_" class="st2" d="M47.7,177l21-9.5c-14,28.5-21.4,59.8-21.4,92c0,114.9,93.5,208.4,208.4,208.4
			c59,0,115.5-25.2,155-69.1l-12.9-11.6c-36.2,40.3-88,63.4-142.1,63.4c-105.3,0-191-85.7-191-191c0-28.9,6.5-57,18.8-82.7l1.9,22.3
			l17.3-1.5l-5.2-62.2l-56.8,25.7L47.7,177z"/>
	</g>
	<g id="XMLID_27_">
		<path id="XMLID_351_" class="st2" d="M380.3,225.9c-3-11.4-7.5-22.1-13.3-32l21.7-33.6l-10.8-10.8l-12.8-12.8l-10.8-10.8
			l-33.6,21.7c-9.9-5.8-20.7-10.3-32-13.3l-8.4-39.1h-15.2h-18.1h-15.2l-8.4,39.1c-11.4,3-22.1,7.5-32,13.3l-33.6-21.7l-10.8,10.8
			l-12.8,12.8l-10.8,10.8l21.7,33.6c-5.8,9.9-10.3,20.7-13.3,32l-39.1,8.4v15.2v18.1v15.2l39.1,8.4c3,11.4,7.5,22.1,13.3,32
			L123.3,357l10.8,10.8l12.8,12.8l10.8,10.8l33.6-21.7c9.9,5.8,20.7,10.3,32,13.3l8.4,39.1h15.2h18.1h15.2l8.4-39.1
			c11.4-3,22.1-7.5,32-13.3l33.6,21.7l10.8-10.8l12.8-12.8l10.8-10.8L367,323.3c5.8-9.9,10.3-20.7,13.3-32l39.1-8.4v-15.2v-18.1
			v-15.2L380.3,225.9z"/>
		<path id="XMLID_24_" class="st0" d="M279,183.9h-46h-51.8v51.8v46v51.8H233h46h51.8v-51.8v-46v-51.8H279z M319.2,229.8h-34.4
			v-34.4h34.4V229.8z M319.2,275.8h-34.4v-34.4h34.4V275.8z M192.8,241.4h34.4v34.4h-34.4V241.4z M238.8,275.8v-34.4h34.4v34.4
			H238.8z M273.2,229.8h-34.4v-34.4h34.4V229.8z M238.8,287.4h34.4v34.4h-34.4V287.4z M227.2,195.4v34.4h-34.4v-34.4H227.2z
			 M192.8,287.4h34.4v34.4h-34.4V287.4z M284.8,321.8v-34.4h34.4v34.4H284.8z"/>
	</g>
</g>
</svg>
