<?xml version="1.0" encoding="UTF-8"?>
<svg xmlns="http://www.w3.org/2000/svg" viewBox="0 0 3544.54 2136.965">
  <defs>
    <style>
      .c {
        fill: #85cceb;
      }

      .c, .d, .e, .f, .g, .h, .i {
        stroke-width: 0px;
      }

      .d {
        fill: none;
      }

      .e {
        fill: #fff;
      }

      .f {
        fill: #207598;
      }

      .g {
        fill: #328bb0;
      }

      .h {
        fill: #64b6d9;
      }

      .i {
        fill: #4aa0c7;
      }
    </style>
  </defs>
  <g id="a" data-name="Layer 5">
    <rect class="e" x="1437.086" y="443.605" width="512" height="512"/>
  </g>
  <g id="b" data-name="Layer 4">
    <g>
      <path class="i" d="m1659.474,607.762v261.237l-113.124,65.309v-32.655l7.07-4.082v-16.327l-7.07,4.082v-73.473l7.07-4.082v-16.327l-7.07,4.082v-73.473l7.07-4.082v-16.327l-7.07,4.082v-32.655l113.124-65.309Zm-10.85,130.619v-8.164l-7.078,4.082-14.139,8.164-14.139,8.164v24.491l28.279-16.327v-16.327l7.078-4.082Zm-7.078,118.373v-24.491l-28.279,16.327v24.491l28.279-16.327Zm0-48.982v-24.491l-28.279,16.327v24.491l28.279-16.327Zm0-97.964v-24.491l-28.279,16.327v24.491l28.279-16.327Zm0-40.818v-24.491l-28.279,16.327v24.491l28.279-16.327Zm-42.427,212.255v-24.491l-28.279,16.327v24.491l28.279-16.327Zm0-48.982v-24.491l-28.279,16.327v24.491l28.279-16.327Zm0-48.982v-24.491l-28.279,16.327v24.491l28.279-16.327Zm0-48.982v-24.491l-28.279,16.327v24.491l28.279-16.327Zm0-40.818v-24.491l-28.279,16.327v24.491l28.279-16.327Z"/>
      <path class="i" d="m1659.474,477.143v130.619l-113.124,65.309v-130.619l113.124-65.309Zm-21.209,118.373v-24.491l-21.209,12.245v24.491l21.209-12.245Zm0-57.146v-24.491l-21.209,12.245v24.491l21.209-12.245Zm-49.488,85.718v-24.491l-21.217,12.245v24.491l21.217-12.245Zm0-57.146v-24.491l-21.217,12.245v24.491l21.217-12.245Z"/>
      <polygon class="f" points="1659.474 477.143 1546.35 542.453 1525.141 530.207 1638.265 464.898 1659.474 477.143"/>
      <polygon class="c" points="1648.624 730.217 1648.624 738.381 1641.546 742.463 1634.477 746.544 1634.477 754.708 1627.407 758.79 1627.407 742.463 1641.546 734.299 1648.624 730.217"/>
      <polygon class="h" points="1641.546 832.263 1641.546 856.754 1613.267 873.081 1613.267 848.59 1641.546 832.263"/>
      <polygon class="h" points="1641.546 783.281 1641.546 807.772 1613.267 824.099 1613.267 799.608 1641.546 783.281"/>
      <polygon class="h" points="1641.546 742.463 1641.546 758.79 1613.267 775.117 1613.267 750.626 1627.407 742.463 1627.407 758.79 1634.477 754.708 1634.477 746.544 1641.546 742.463"/>
      <polygon class="h" points="1599.12 856.754 1599.12 881.245 1570.841 897.572 1570.841 873.081 1599.12 856.754"/>
      <polygon class="h" points="1599.12 807.772 1599.12 832.263 1570.841 848.59 1570.841 824.099 1599.12 807.772"/>
      <polygon class="h" points="1599.12 758.79 1599.12 783.281 1570.841 799.608 1570.841 775.117 1599.12 758.79"/>
      <polygon class="c" points="1553.42 881.245 1553.42 897.572 1546.35 901.654 1546.35 885.327 1553.42 881.245"/>
      <polygon class="c" points="1553.42 791.445 1553.42 807.772 1546.35 811.854 1546.35 795.526 1553.42 791.445"/>
      <polygon class="c" points="1553.42 701.644 1553.42 717.972 1546.35 722.053 1546.35 705.726 1553.42 701.644"/>
      <polygon class="f" points="1546.35 901.654 1546.35 934.309 1525.141 922.063 1525.141 660.826 1546.35 673.071 1546.35 705.726 1539.28 701.644 1539.28 717.972 1546.35 722.053 1546.35 795.526 1539.28 791.445 1539.28 807.772 1546.35 811.854 1546.35 885.327 1539.28 881.245 1539.28 897.572 1546.35 901.654"/>
      <polygon class="g" points="1546.35 885.327 1546.35 901.654 1539.28 897.572 1539.28 881.245 1546.35 885.327"/>
      <polygon class="g" points="1546.35 795.526 1546.35 811.854 1539.28 807.772 1539.28 791.445 1546.35 795.526"/>
      <polygon class="g" points="1546.35 705.726 1546.35 722.053 1539.28 717.972 1539.28 701.644 1546.35 705.726"/>
      <polygon class="f" points="1546.35 542.453 1546.35 673.071 1525.141 660.826 1525.141 530.207 1546.35 542.453"/>
    </g>
    <g>
      <path class="i" d="m1726.698,607.76v261.237l113.124,65.309v-32.655l-7.07-4.082v-16.327l7.07,4.082v-73.473l-7.07-4.082v-16.327l7.07,4.082v-73.473l-7.07-4.082v-16.327l7.07,4.082v-32.655l-113.124-65.309Zm10.85,130.619v-8.164l7.078,4.082,14.139,8.164,14.139,8.164v24.491l-28.279-16.327v-16.327l-7.078-4.082Zm7.078,118.373v-24.491l28.279,16.327v24.491l-28.279-16.327Zm0-48.982v-24.491l28.279,16.327v24.491l-28.279-16.327Zm0-97.964v-24.491l28.279,16.327v24.491l-28.279-16.327Zm0-40.818v-24.491l28.279,16.327v24.491l-28.279-16.327Zm42.427,212.255v-24.491l28.279,16.327v24.491l-28.279-16.327Zm0-48.982v-24.491l28.279,16.327v24.491l-28.279-16.327Zm0-48.982v-24.491l28.279,16.327v24.491l-28.279-16.327Zm0-48.982v-24.491l28.279,16.327v24.491l-28.279-16.327Zm0-40.818v-24.491l28.279,16.327v24.491l-28.279-16.327Z"/>
      <path class="i" d="m1726.698,477.142v130.619l113.124,65.309v-130.619l-113.124-65.309Zm21.209,118.373v-24.491l21.209,12.245v24.491l-21.209-12.245Zm0-57.146v-24.491l21.209,12.245v24.491l-21.209-12.245Zm49.488,85.718v-24.491l21.217,12.245v24.491l-21.217-12.245Zm0-57.146v-24.491l21.217,12.245v24.491l-21.217-12.245Z"/>
      <polygon class="f" points="1726.698 477.142 1839.822 542.451 1861.031 530.206 1747.907 464.896 1726.698 477.142"/>
      <polygon class="c" points="1737.548 730.215 1737.548 738.379 1744.625 742.461 1751.695 746.543 1751.695 754.706 1758.765 758.788 1758.765 742.461 1744.625 734.297 1737.548 730.215"/>
      <polygon class="h" points="1744.625 832.261 1744.625 856.752 1772.904 873.08 1772.904 848.589 1744.625 832.261"/>
      <polygon class="h" points="1744.625 783.279 1744.625 807.77 1772.904 824.098 1772.904 799.607 1744.625 783.279"/>
      <polygon class="h" points="1744.625 742.461 1744.625 758.788 1772.904 775.116 1772.904 750.625 1758.765 742.461 1758.765 758.788 1751.695 754.706 1751.695 746.543 1744.625 742.461"/>
      <polygon class="h" points="1787.052 856.752 1787.052 881.243 1815.331 897.571 1815.331 873.08 1787.052 856.752"/>
      <polygon class="h" points="1787.052 807.77 1787.052 832.261 1815.331 848.589 1815.331 824.098 1787.052 807.77"/>
      <polygon class="h" points="1787.052 758.788 1787.052 783.279 1815.331 799.607 1815.331 775.116 1787.052 758.788"/>
      <polygon class="c" points="1832.752 881.243 1832.752 897.571 1839.822 901.652 1839.822 885.325 1832.752 881.243"/>
      <polygon class="c" points="1832.752 791.443 1832.752 807.77 1839.822 811.852 1839.822 795.525 1832.752 791.443"/>
      <polygon class="c" points="1832.752 701.643 1832.752 717.97 1839.822 722.052 1839.822 705.724 1832.752 701.643"/>
      <polygon class="f" points="1839.822 901.652 1839.822 934.307 1861.031 922.062 1861.031 660.824 1839.822 673.07 1839.822 705.724 1846.892 701.643 1846.892 717.97 1839.822 722.052 1839.822 795.525 1846.892 791.443 1846.892 807.77 1839.822 811.852 1839.822 885.325 1846.892 881.243 1846.892 897.571 1839.822 901.652"/>
      <polygon class="g" points="1839.822 885.325 1839.822 901.652 1846.892 897.571 1846.892 881.243 1839.822 885.325"/>
      <polygon class="g" points="1839.822 795.525 1839.822 811.852 1846.892 807.77 1846.892 791.443 1839.822 795.525"/>
      <polygon class="g" points="1839.822 705.724 1839.822 722.052 1846.892 717.97 1846.892 701.643 1839.822 705.724"/>
      <polygon class="f" points="1839.822 542.451 1839.822 673.07 1861.031 660.824 1861.031 530.206 1839.822 542.451"/>
    </g>
    <rect class="d" x="1373.086" y="379.605" width="640" height="640"/>
  </g>
</svg>