<?xml version="1.0" encoding="UTF-8"?>
<svg xmlns="http://www.w3.org/2000/svg" viewBox="0 0 512 512">
  <defs>
    <style>
      .c {
        fill: #85cceb;
      }

      .c, .d, .e, .f, .g, .h {
        stroke-width: 0px;
      }

      .d {
        fill: #fff;
      }

      .e {
        fill: #207598;
      }

      .f {
        fill: #328bb0;
      }

      .g {
        fill: #64b6d9;
      }

      .h {
        fill: #4aa0c7;
      }
    </style>
  </defs>
  <g id="a" data-name="Layer 5">
    <rect class="d" width="512" height="512"/>
  </g>
  <g id="b" data-name="Layer 4">
    <g>
      <path class="h" d="m222.388,164.157v261.237l-113.124,65.309v-32.655l7.07-4.082v-16.327l-7.07,4.082v-73.473l7.07-4.082v-16.327l-7.07,4.082v-73.473l7.07-4.082v-16.327l-7.07,4.082v-32.655l113.124-65.309Zm-10.85,130.619v-8.164l-7.078,4.082-14.139,8.164-14.139,8.164v24.491l28.279-16.327v-16.327l7.078-4.082Zm-7.078,118.373v-24.491l-28.279,16.327v24.491l28.279-16.327Zm0-48.982v-24.491l-28.279,16.327v24.491l28.279-16.327Zm0-97.964v-24.491l-28.279,16.327v24.491l28.279-16.327Zm0-40.818v-24.491l-28.279,16.327v24.491l28.279-16.327Zm-42.427,212.255v-24.491l-28.279,16.327v24.491l28.279-16.327Zm0-48.982v-24.491l-28.279,16.327v24.491l28.279-16.327Zm0-48.982v-24.491l-28.279,16.327v24.491l28.279-16.327Zm0-48.982v-24.491l-28.279,16.327v24.491l28.279-16.327Zm0-40.818v-24.491l-28.279,16.327v24.491l28.279-16.327Z"/>
      <path class="h" d="m222.388,33.539v130.619l-113.124,65.309V98.848l113.124-65.309Zm-21.209,118.373v-24.491l-21.209,12.245v24.491l21.209-12.245Zm0-57.146v-24.491l-21.209,12.245v24.491l21.209-12.245Zm-49.488,85.718v-24.491l-21.217,12.245v24.491l21.217-12.245Zm0-57.146v-24.491l-21.217,12.245v24.491l21.217-12.245Z"/>
      <polygon class="e" points="222.388 33.539 109.264 98.848 88.055 86.602 201.179 21.293 222.388 33.539"/>
      <polygon class="c" points="211.539 286.612 211.539 294.776 204.461 298.858 197.391 302.939 197.391 311.103 190.321 315.185 190.321 298.858 204.461 290.694 211.539 286.612"/>
      <polygon class="g" points="204.461 388.658 204.461 413.149 176.182 429.476 176.182 404.985 204.461 388.658"/>
      <polygon class="g" points="204.461 339.676 204.461 364.167 176.182 380.494 176.182 356.003 204.461 339.676"/>
      <polygon class="g" points="204.461 298.858 204.461 315.185 176.182 331.512 176.182 307.021 190.321 298.858 190.321 315.185 197.391 311.103 197.391 302.939 204.461 298.858"/>
      <polygon class="g" points="162.034 413.149 162.034 437.64 133.755 453.967 133.755 429.476 162.034 413.149"/>
      <polygon class="g" points="162.034 364.167 162.034 388.658 133.755 404.985 133.755 380.494 162.034 364.167"/>
      <polygon class="g" points="162.034 315.185 162.034 339.676 133.755 356.003 133.755 331.512 162.034 315.185"/>
      <polygon class="c" points="116.334 437.64 116.334 453.967 109.264 458.049 109.264 441.722 116.334 437.64"/>
      <polygon class="c" points="116.334 347.84 116.334 364.167 109.264 368.249 109.264 351.921 116.334 347.84"/>
      <polygon class="c" points="116.334 258.039 116.334 274.367 109.264 278.448 109.264 262.121 116.334 258.039"/>
      <polygon class="e" points="109.264 458.049 109.264 490.704 88.055 478.458 88.055 217.221 109.264 229.466 109.264 262.121 102.195 258.039 102.195 274.367 109.264 278.448 109.264 351.921 102.195 347.84 102.195 364.167 109.264 368.249 109.264 441.722 102.195 437.64 102.195 453.967 109.264 458.049"/>
      <polygon class="f" points="109.264 441.722 109.264 458.049 102.195 453.967 102.195 437.64 109.264 441.722"/>
      <polygon class="f" points="109.264 351.921 109.264 368.249 102.195 364.167 102.195 347.84 109.264 351.921"/>
      <polygon class="f" points="109.264 262.121 109.264 278.448 102.195 274.367 102.195 258.039 109.264 262.121"/>
      <polygon class="e" points="109.264 98.848 109.264 229.466 88.055 217.221 88.055 86.602 109.264 98.848"/>
    </g>
    <g>
      <path class="h" d="m289.612,164.156v261.237l113.124,65.309v-32.655l-7.07-4.082v-16.327l7.07,4.082v-73.473l-7.07-4.082v-16.327l7.07,4.082v-73.473l-7.07-4.082v-16.327l7.07,4.082v-32.655l-113.124-65.309Zm10.85,130.619v-8.164l7.078,4.082,14.139,8.164,14.139,8.164v24.491l-28.279-16.327v-16.327l-7.078-4.082Zm7.078,118.373v-24.491l28.279,16.327v24.491l-28.279-16.327Zm0-48.982v-24.491l28.279,16.327v24.491l-28.279-16.327Zm0-97.964v-24.491l28.279,16.327v24.491l-28.279-16.327Zm0-40.818v-24.491l28.279,16.327v24.491l-28.279-16.327Zm42.427,212.255v-24.491l28.279,16.327v24.491l-28.279-16.327Zm0-48.982v-24.491l28.279,16.327v24.491l-28.279-16.327Zm0-48.982v-24.491l28.279,16.327v24.491l-28.279-16.327Zm0-48.982v-24.491l28.279,16.327v24.491l-28.279-16.327Zm0-40.818v-24.491l28.279,16.327v24.491l-28.279-16.327Z"/>
      <path class="h" d="m289.612,33.537v130.619l113.124,65.309V98.846l-113.124-65.309Zm21.209,118.373v-24.491l21.209,12.245v24.491l-21.209-12.245Zm0-57.146v-24.491l21.209,12.245v24.491l-21.209-12.245Zm49.488,85.718v-24.491l21.217,12.245v24.491l-21.217-12.245Zm0-57.146v-24.491l21.217,12.245v24.491l-21.217-12.245Z"/>
      <polygon class="e" points="289.612 33.537 402.736 98.846 423.946 86.601 310.822 21.291 289.612 33.537"/>
      <polygon class="c" points="300.462 286.61 300.462 294.774 307.54 298.856 314.61 302.938 314.61 311.101 321.679 315.183 321.679 298.856 307.54 290.692 300.462 286.61"/>
      <polygon class="g" points="307.54 388.656 307.54 413.147 335.819 429.475 335.819 404.984 307.54 388.656"/>
      <polygon class="g" points="307.54 339.674 307.54 364.165 335.819 380.493 335.819 356.002 307.54 339.674"/>
      <polygon class="g" points="307.54 298.856 307.54 315.183 335.819 331.511 335.819 307.02 321.679 298.856 321.679 315.183 314.61 311.101 314.61 302.938 307.54 298.856"/>
      <polygon class="g" points="349.966 413.147 349.966 437.638 378.245 453.966 378.245 429.475 349.966 413.147"/>
      <polygon class="g" points="349.966 364.165 349.966 388.656 378.245 404.984 378.245 380.493 349.966 364.165"/>
      <polygon class="g" points="349.966 315.183 349.966 339.674 378.245 356.002 378.245 331.511 349.966 315.183"/>
      <polygon class="c" points="395.667 437.638 395.667 453.966 402.736 458.047 402.736 441.72 395.667 437.638"/>
      <polygon class="c" points="395.667 347.838 395.667 364.165 402.736 368.247 402.736 351.92 395.667 347.838"/>
      <polygon class="c" points="395.667 258.038 395.667 274.365 402.736 278.447 402.736 262.119 395.667 258.038"/>
      <polygon class="e" points="402.736 458.047 402.736 490.702 423.946 478.457 423.946 217.219 402.736 229.465 402.736 262.119 409.806 258.038 409.806 274.365 402.736 278.447 402.736 351.92 409.806 347.838 409.806 364.165 402.736 368.247 402.736 441.72 409.806 437.638 409.806 453.966 402.736 458.047"/>
      <polygon class="f" points="402.736 441.72 402.736 458.047 409.806 453.966 409.806 437.638 402.736 441.72"/>
      <polygon class="f" points="402.736 351.92 402.736 368.247 409.806 364.165 409.806 347.838 402.736 351.92"/>
      <polygon class="f" points="402.736 262.119 402.736 278.447 409.806 274.365 409.806 258.038 402.736 262.119"/>
      <polygon class="e" points="402.736 98.846 402.736 229.465 423.946 217.219 423.946 86.601 402.736 98.846"/>
    </g>
  </g>
</svg>