<?xml version="1.0" encoding="utf-8"?>
<!-- Generator: Adobe Illustrator 23.0.6, SVG Export Plug-In . SVG Version: 6.00 Build 0)  -->
<svg version="1.1" id="phantom_scarecrows" xmlns="http://www.w3.org/2000/svg" xmlns:xlink="http://www.w3.org/1999/xlink" x="0px"
	 y="0px" viewBox="0 0 512 512" style="enable-background:new 0 0 512 512;" xml:space="preserve">
<style type="text/css">
	.st0{fill:#FFFFFF;}
	.st1{fill:#A1CEE2;}
	.st2{fill:#3D83A3;}
	.st3{fill:#4AA0C7;}
</style>
<rect x="0" y="0" class="st0" width="512" height="512"/>
<g>
	<path class="st1" d="M371.96,345.78l-71.47-10.14v-2.86h-33.71v-40.41h-13.43v40.41h-34.39v2.79l-71.97,10.2l1.71,12.12l70.26-9.97
		v6.04l3.6,1.35h16.93v42.43l-4.75-0.05l-1.64,0.65v14.97l7.42-0.02l0.25,72.72l12.89,0.03l0.47-72.77l11.31-0.01l0.65,72.75
		l13.48,0.09l-0.63-72.86l7.4-0.01l0.03-14.9l-1.6-0.69l-4.72-0.01v-42.31h16.78l3.66-1.35V348l69.76,9.91L371.96,345.78z
		 M253.09,397.58v-42.26h12.07v42.29L253.09,397.58z"/>
	<g id="Icon">
		<g id="Phantom_Outlines">
			<polygon id="Phantom_Outline" class="st1" points="428.22,110.8 424.31,110.8 415.94,105.22 413.17,105.22 408.14,113.58 
				405.34,113.58 399.23,125.29 394.76,124.73 392.52,123.07 393.09,119.16 396.99,110.8 396.99,106.33 396.99,104.1 400.35,97.97 
				388.63,94.62 387.52,93.5 387.52,89.05 386.4,88.49 385.29,85.7 380.26,85.7 379.15,84.59 373.58,84.03 372.46,82.91 
				371.89,80.12 367.44,79.56 366.32,78.45 361.29,78.45 359.64,80.68 355.72,80.12 352.38,79.56 351.27,78.45 350.7,80.12 
				349.04,81.79 346.24,81.79 344.58,81.24 344.01,82.91 342.9,84.59 339.56,85.14 337.87,83.47 337.87,79.56 346.24,46.67 
				347.93,44.99 352.38,44.99 411.48,70.09 417.06,61.73 420.97,61.73 436.58,70.65 438.82,72.87 440.48,76.22 440.48,79.01 
				436.58,84.03 473.95,108.57 476.17,111.35 476.73,114.7 473.39,118.04 472.83,118.04 457.78,133.1 453.88,133.1 452.76,131.43 
				452.19,124.18 448.85,121.39 448.85,118.04 447.73,116.93 447.73,116.37 445.51,115.81 443.82,114.7 439.36,114.7 436.58,110.8 
				435.47,111.35 432.68,108.01 430.45,108.01 			"/>
			<polygon id="Phantom_Outline_1_" class="st1" points="94.19,110.24 98.09,110.24 106.46,104.66 109.25,104.66 114.26,113.02 
				117.06,113.02 123.19,124.73 127.65,124.18 129.88,122.51 129.32,118.6 125.42,110.24 125.42,105.77 125.42,103.55 122.07,97.41 
				133.78,94.06 134.9,92.95 134.9,88.49 136.01,87.93 137.13,85.14 142.15,85.14 143.27,84.03 148.84,83.47 149.96,82.36 
				150.51,79.56 154.98,79.01 156.09,77.89 161.1,77.89 162.77,80.12 166.69,79.56 170.03,79.01 171.15,77.89 171.7,79.56 
				173.37,81.24 176.16,81.24 177.83,80.68 178.39,82.36 179.51,84.03 182.86,84.59 184.53,82.91 184.53,79.01 176.16,46.11 
				174.49,44.44 170.03,44.44 110.92,69.53 105.34,61.17 101.43,61.17 85.82,70.09 83.6,72.32 81.92,75.66 81.92,78.45 85.82,83.47 
				48.46,108.01 46.23,110.8 45.68,114.14 49.02,117.49 49.57,117.49 64.63,132.54 68.54,132.54 69.66,130.87 70.21,123.62 
				73.56,120.83 73.56,117.49 74.67,116.37 74.67,115.81 76.9,115.26 78.58,114.14 83.04,114.14 85.82,110.24 86.94,110.8 
				89.73,107.45 91.96,107.45 			"/>
		</g>
		<g id="Particles">
			<g id="Particle_8_">
				<polygon class="st1" points="426.56,138 425.37,138.71 424.65,137.52 425.86,136.8 				"/>
				<polygon class="st1" points="427.11,136 425.9,136.71 425.19,135.51 426.38,134.8 				"/>
				<polygon class="st1" points="424.6,137.42 423.4,138.14 422.69,136.94 423.89,136.23 				"/>
				
					<rect x="424.45" y="138.98" transform="matrix(0.8589 -0.5121 0.5121 0.8589 -11.55 237.4306)" class="st1" width="1.4" height="1.4"/>
				<polygon class="st1" points="428.54,138.43 427.33,139.14 426.63,137.95 427.81,137.24 				"/>
			</g>
			<g id="Particle_1_">
				<polygon class="st1" points="462.62,142.97 461.23,143.1 461.12,141.71 462.5,141.59 				"/>
				<polygon class="st1" points="463.93,141.49 462.55,141.61 462.43,140.22 463.82,140.1 				"/>
				<polygon class="st1" points="461.13,141.67 459.74,141.79 459.61,140.4 461.01,140.28 				"/>
				<polygon class="st1" points="461.34,144.54 459.94,144.67 459.82,143.28 461.21,143.16 				"/>
				<polygon class="st1" points="464.22,144.25 462.83,144.37 462.72,142.98 464.11,142.86 				"/>
			</g>
			<g id="Particle_2_">
				<polygon class="st1" points="454.01,127.46 452.93,128.33 452.04,127.24 453.13,126.37 				"/>
				
					<rect x="452.57" y="124.79" transform="matrix(0.7804 -0.6253 0.6253 0.7804 21.0795 310.983)" class="st1" width="1.4" height="1.39"/>
				<polygon class="st1" points="451.99,127.26 450.9,128.13 450.03,127.04 451.1,126.17 				"/>
				<polygon class="st1" points="453.8,129.5 452.73,130.37 451.85,129.29 452.94,128.42 				"/>
				<polygon class="st1" points="455.94,127.67 454.85,128.54 453.98,127.46 455.05,126.58 				"/>
			</g>
			<g id="Particle_3_">
				<polygon class="st1" points="438.93,116.31 437.74,117.02 437.01,115.82 438.22,115.11 				"/>
				<polygon class="st1" points="439.39,114.45 438.21,115.16 437.48,113.96 438.69,113.25 				"/>
				<polygon class="st1" points="437,115.88 435.82,116.59 435.09,115.4 436.3,114.68 				"/>
				<polygon class="st1" points="438.42,118.27 437.24,118.98 436.51,117.78 437.72,117.07 				"/>
				<polygon class="st1" points="440.84,116.82 439.64,117.53 438.92,116.33 440.13,115.62 				"/>
			</g>
			<g id="Particle_4_">
				<polygon class="st1" points="469.28,101.46 467.88,101.5 467.84,100.11 469.24,100.07 				"/>
				<polygon class="st1" points="470.62,100 469.23,100.04 469.19,98.65 470.57,98.61 				"/>
				<polygon class="st1" points="467.83,100.13 466.43,100.17 466.4,98.77 467.79,98.73 				"/>
				<polygon class="st1" points="467.85,102.9 466.45,102.94 466.41,101.54 467.81,101.5 				"/>
				<polygon class="st1" points="470.72,102.87 469.35,102.91 469.29,101.52 470.69,101.48 				"/>
			</g>
			<g id="Particle_5_">
				<polygon class="st1" points="427.4,57.07 426.2,57.78 425.49,56.59 426.68,55.88 				"/>
				<polygon class="st1" points="427.85,55.15 426.65,55.86 425.93,54.66 427.14,53.95 				"/>
				<polygon class="st1" points="425.45,56.59 424.27,57.31 423.54,56.11 424.75,55.4 				"/>
				<polygon class="st1" points="426.92,59.03 425.72,59.74 425.01,58.54 426.2,57.83 				"/>
				<polygon class="st1" points="429.35,57.61 428.14,58.32 427.44,57.13 428.64,56.41 				"/>
			</g>
			<g id="Particle_6_">
				<polygon class="st1" points="416.42,43.21 415.35,44.08 414.47,43 415.56,42.12 				"/>
				<polygon class="st1" points="416.55,41.25 415.46,42.12 414.6,41.04 415.68,40.17 				"/>
				<polygon class="st1" points="414.46,43.06 413.37,43.93 412.5,42.85 413.57,41.98 				"/>
				<polygon class="st1" points="416.2,45.2 415.11,46.07 414.24,44.99 415.31,44.11 				"/>
				<polygon class="st1" points="418.4,43.49 417.31,44.37 416.42,43.28 417.51,42.41 				"/>
			</g>
			<g id="Particle_7_">
				<polygon class="st1" points="396.71,62.82 395.32,63.02 395.12,61.65 396.49,61.43 				"/>
				<polygon class="st1" points="397.86,61.14 396.5,61.34 396.28,59.97 397.67,59.76 				"/>
				<polygon class="st1" points="395.05,61.62 393.69,61.83 393.47,60.45 394.85,60.24 				"/>
				<polygon class="st1" points="395.51,64.37 394.14,64.58 393.92,63.21 395.31,63 				"/>
				<polygon class="st1" points="398.32,63.97 396.93,64.18 396.73,62.8 398.12,62.59 				"/>
			</g>
			<g id="Particle_9_">
				<polygon class="st1" points="378.3,97.22 378.05,98.59 376.67,98.33 376.94,96.97 				"/>
				<polygon class="st1" points="379.88,96.06 379.63,97.43 378.25,97.18 378.51,95.81 				"/>
				<polygon class="st1" points="377.15,95.59 376.91,96.97 375.53,96.71 375.8,95.34 				"/>
				<polygon class="st1" points="376.65,98.32 376.41,99.7 375.04,99.44 375.29,98.07 				"/>
				<polygon class="st1" points="379.44,98.9 379.18,100.27 377.82,100.02 378.06,98.65 				"/>
			</g>
			<g id="Particle_10_">
				
					<rect x="96.63" y="127.76" transform="matrix(0.8595 -0.5112 0.5112 0.8595 -51.9878 67.8075)" class="st1" width="1.4" height="1.39"/>
				
					<rect x="97.14" y="125.79" transform="matrix(0.8595 -0.5111 0.5111 0.8595 -50.9064 67.7749)" class="st1" width="1.4" height="1.4"/>
				<polygon class="st1" points="96.38,128.18 95.18,128.89 94.47,127.7 95.67,126.98 				"/>
				
					<rect x="96.2" y="129.69" transform="matrix(0.8601 -0.5102 0.5102 0.8601 -52.9609 67.6838)" class="st1" width="1.4" height="1.39"/>
				
					<rect x="98.6" y="128.26" transform="matrix(0.8589 -0.5122 0.5122 0.8589 -52.0403 69.0564)" class="st1" width="1.39" height="1.4"/>
			</g>
			<g id="Particle_11_">
				<polygon class="st1" points="84.86,115.2 84.42,116.53 83.1,116.09 83.53,114.76 				"/>
				
					<rect x="82.38" y="113.17" transform="matrix(0.3134 -0.9496 0.9496 0.3134 -51.0899 157.0794)" class="st1" width="1.4" height="1.4"/>
				<polygon class="st1" points="83.07,116.09 82.64,117.41 81.31,116.97 81.75,115.64 				"/>
				<polygon class="st1" points="85.79,116.94 85.35,118.26 84.02,117.83 84.47,116.5 				"/>
				<polygon class="st1" points="86.65,114.32 86.22,115.64 84.89,115.2 85.33,113.88 				"/>
			</g>
			<g id="Particle_12_">
				<polygon class="st1" points="126.8,116.92 126.21,118.17 124.95,117.58 125.54,116.32 				"/>
				
					<rect x="124.43" y="114.72" transform="matrix(0.4266 -0.9045 0.9045 0.4266 -32.6391 179.3575)" class="st1" width="1.39" height="1.39"/>
				
					<rect x="123.2" y="117.3" transform="matrix(0.4277 -0.9039 0.9039 0.4277 -35.7546 179.5226)" class="st1" width="1.4" height="1.39"/>
				
					<rect x="125.8" y="118.45" transform="matrix(0.4281 -0.9037 0.9037 0.4281 -35.3285 182.4596)" class="st1" width="1.4" height="1.39"/>
				
					<rect x="127.03" y="115.93" transform="matrix(0.4242 -0.9056 0.9056 0.4242 -32.0678 182.8199)" class="st1" width="1.39" height="1.39"/>
			</g>
			<g id="Particle_13_">
				
					<rect x="156.3" y="107.17" transform="matrix(0.9586 -0.2847 0.2847 0.9586 -24.2121 49.1604)" class="st1" width="1.39" height="1.39"/>
				
					<rect x="157.3" y="105.45" transform="matrix(0.9579 -0.2871 0.2871 0.9579 -23.8223 49.8298)" class="st1" width="1.4" height="1.39"/>
				
					<rect x="154.6" y="106.24" transform="matrix(0.9583 -0.2858 0.2858 0.9583 -24.0856 48.8444)" class="st1" width="1.39" height="1.4"/>
				
					<rect x="155.39" y="108.94" transform="matrix(0.9583 -0.2859 0.2859 0.9583 -24.8311 49.1982)" class="st1" width="1.39" height="1.4"/>
				
					<rect x="158.05" y="108.14" transform="matrix(0.9584 -0.2854 0.2854 0.9584 -24.459 49.8341)" class="st1" width="1.4" height="1.39"/>
			</g>
			<g id="Particle_14_">
				
					<rect x="153.81" y="92.74" transform="matrix(0.86 -0.5104 0.5104 0.86 -26.0509 91.9435)" class="st1" width="1.4" height="1.4"/>
				
					<rect x="154.32" y="90.79" transform="matrix(0.8588 -0.5124 0.5124 0.8588 -24.9796 92.3467)" class="st1" width="1.39" height="1.39"/>
				
					<rect x="151.88" y="92.21" transform="matrix(0.8588 -0.5123 0.5123 0.8588 -26.056 91.2833)" class="st1" width="1.39" height="1.4"/>
				
					<rect x="153.34" y="94.67" transform="matrix(0.8587 -0.5124 0.5124 0.8587 -27.1073 92.405)" class="st1" width="1.39" height="1.39"/>
				
					<rect x="155.74" y="93.21" transform="matrix(0.8582 -0.5133 0.5133 0.8582 -26.022 93.6153)" class="st1" width="1.39" height="1.4"/>
			</g>
			<g id="Particle_15_">
				
					<rect x="157.13" y="81.03" transform="matrix(0.8587 -0.5124 0.5124 0.8587 -19.5841 92.4193)" class="st1" width="1.39" height="1.4"/>
				
					<rect x="157.63" y="79.08" transform="matrix(0.8586 -0.5127 0.5127 0.8586 -18.5089 92.4554)" class="st1" width="1.39" height="1.4"/>
				
					<rect x="155.24" y="80.51" transform="matrix(0.859 -0.512 0.512 0.859 -19.5883 91.2904)" class="st1" width="1.39" height="1.39"/>
				
					<rect x="156.7" y="82.96" transform="matrix(0.8588 -0.5124 0.5124 0.8588 -20.6343 92.4592)" class="st1" width="1.39" height="1.39"/>
				
					<rect x="159.09" y="81.51" transform="matrix(0.8593 -0.5114 0.5114 0.8593 -19.5634 93.2845)" class="st1" width="1.4" height="1.39"/>
			</g>
			<g id="Particle_16_">
				
					<rect x="180.02" y="72.68" transform="matrix(0.4111 -0.9116 0.9116 0.4111 39.5377 207.9431)" class="st1" width="1.39" height="1.39"/>
				
					<rect x="179.3" y="70.8" transform="matrix(0.4076 -0.9132 0.9132 0.4076 41.3458 206.7212)" class="st1" width="1.39" height="1.39"/>
				<polygon class="st1" points="179.77,73.66 179.2,74.93 177.92,74.37 178.5,73.09 				"/>
				
					<rect x="180.69" y="74.52" transform="matrix(0.4074 -0.9132 0.9132 0.4074 38.7991 210.2209)" class="st1" width="1.39" height="1.39"/>
				
					<rect x="181.89" y="71.94" transform="matrix(0.4074 -0.9132 0.9132 0.4074 41.8642 209.7856)" class="st1" width="1.39" height="1.39"/>
			</g>
			<g id="Particle_17_">
				
					<rect x="124.77" y="62.67" transform="matrix(0.29 -0.957 0.957 0.29 28.4334 165.0624)" class="st1" width="1.39" height="1.4"/>
				
					<rect x="123.81" y="60.92" transform="matrix(0.2921 -0.9564 0.9564 0.2921 29.2098 162.7023)" class="st1" width="1.4" height="1.39"/>
				
					<rect x="123" y="63.65" transform="matrix(0.2918 -0.9565 0.9565 0.2918 26.068 163.8876)" class="st1" width="1.4" height="1.39"/>
				
					<rect x="125.67" y="64.45" transform="matrix(0.2914 -0.9566 0.9566 0.2914 27.2239 167.044)" class="st1" width="1.4" height="1.39"/>
				<polygon class="st1" points="128.1,61.94 127.69,63.27 126.36,62.86 126.76,61.53 				"/>
			</g>
			<g id="Particle_18_">
				<polygon class="st1" points="109.66,71.96 109.05,73.22 107.8,72.6 108.41,71.36 				"/>
				<polygon class="st1" points="111.54,71.3 110.93,72.56 109.67,71.95 110.29,70.69 				"/>
				<polygon class="st1" points="109,70.09 108.39,71.34 107.13,70.73 107.74,69.48 				"/>
				<polygon class="st1" points="107.73,72.59 107.12,73.85 105.87,73.23 106.48,71.98 				"/>
				
					<rect x="108.7" y="73.47" transform="matrix(0.4406 -0.8977 0.8977 0.4406 -5.3814 139.6949)" class="st1" width="1.39" height="1.39"/>
			</g>
			<g id="Particle_19_">
				
					<rect x="89.56" y="61.39" transform="matrix(0.9994 -0.0343 0.0343 0.9994 -2.0832 3.1391)" class="st1" width="1.78" height="1.79"/>
				
					<rect x="91.29" y="59.49" transform="matrix(0.9994 -0.0337 0.0337 0.9994 -1.9825 3.1408)" class="st1" width="1.78" height="1.78"/>
				<polygon class="st1" points="89.48,61.36 87.69,61.42 87.64,59.64 89.42,59.58 				"/>
				<polygon class="st1" points="89.59,64.99 87.8,65.05 87.74,63.26 89.52,63.21 				"/>
				<polygon class="st1" points="93.22,64.87 91.44,64.93 91.37,63.15 93.16,63.08 				"/>
			</g>
			<g id="Particle_20_">
				
					<rect x="88.71" y="67.31" transform="matrix(0.4179 -0.9085 0.9085 0.4179 -9.7398 120.8119)" class="st1" width="1.39" height="1.39"/>
				<polygon class="st1" points="92.25,66.97 91.67,68.24 90.41,67.66 90.98,66.39 				"/>
				
					<rect x="88.08" y="65.43" transform="matrix(0.4177 -0.9086 0.9086 0.4177 -8.385 119.1629)" class="st1" width="1.39" height="1.39"/>
				
					<rect x="86.87" y="68.03" transform="matrix(0.4172 -0.9088 0.9088 0.4172 -11.4306 119.6314)" class="st1" width="1.39" height="1.39"/>
				
					<rect x="89.45" y="69.17" transform="matrix(0.4161 -0.9093 0.9093 0.4161 -10.8986 122.7688)" class="st1" width="1.4" height="1.4"/>
			</g>
			<g id="Particle_21_">
				
					<rect x="39" y="122.09" transform="matrix(0.8219 -0.5697 0.5697 0.8219 -62.8786 44.4863)" class="st1" width="1.4" height="1.39"/>
				
					<rect x="39.38" y="120.09" transform="matrix(0.8205 -0.5716 0.5716 0.8205 -61.849 44.5846)" class="st1" width="1.39" height="1.39"/>
				
					<rect x="37.04" y="121.73" transform="matrix(0.8203 -0.5719 0.5719 0.8203 -63.2374 43.5806)" class="st1" width="1.39" height="1.4"/>
				<polygon class="st1" points="40.31,124.9 39.17,125.69 38.38,124.55 39.52,123.75 				"/>
				<polygon class="st1" points="42.65,123.26 41.5,124.06 40.7,122.91 41.85,122.12 				"/>
			</g>
			<g id="Particle_22_">
				<polygon class="st1" points="36.16,74.59 34.76,74.63 34.72,73.23 36.11,73.19 				"/>
				<polygon class="st1" points="37.5,73.14 36.1,73.17 36.07,71.78 37.46,71.74 				"/>
				<polygon class="st1" points="34.71,73.24 33.32,73.29 33.28,71.89 34.67,71.85 				"/>
				<polygon class="st1" points="34.76,76.04 33.37,76.07 33.33,74.68 34.73,74.64 				"/>
				<polygon class="st1" points="37.61,75.97 36.22,76.01 36.18,74.62 37.58,74.58 				"/>
			</g>
			<g id="Particle_23_">
				
					<rect x="70.83" y="45.4" transform="matrix(0.9494 -0.314 0.314 0.9494 -10.8929 24.8413)" class="st1" width="1.67" height="1.67"/>
				<polygon class="st1" points="73.83,44.57 72.24,45.1 71.71,43.51 73.3,42.98 				"/>
				<polygon class="st1" points="70.6,45.65 69.01,46.17 68.48,44.58 70.07,44.06 				"/>
				<polygon class="st1" points="71.65,48.87 70.06,49.4 69.53,47.81 71.12,47.28 				"/>
				
					<rect x="73" y="46.46" transform="matrix(0.9485 -0.3169 0.3169 0.9485 -11.1827 25.836)" class="st1" width="1.67" height="1.67"/>
			</g>
			<g id="Particle_24_">
				<polygon class="st1" points="94.1,34.43 93.02,35.31 92.13,34.23 93.22,33.35 				"/>
				<polygon class="st1" points="94.31,32.41 93.24,33.29 92.36,32.21 93.43,31.33 				"/>
				
					<rect x="90.43" y="33.4" transform="matrix(0.7755 -0.6313 0.6313 0.7755 -1.07 65.1795)" class="st1" width="1.39" height="1.39"/>
				<polygon class="st1" points="93.9,36.37 92.83,37.25 91.94,36.17 93.02,35.29 				"/>
				
					<rect x="94.41" y="33.8" transform="matrix(0.7748 -0.6322 0.6322 0.7748 -0.3912 67.8924)" class="st1" width="1.39" height="1.39"/>
			</g>
			<g id="Particle_25_">
				<polygon class="st1" points="341.59,46.38 340.83,47.56 339.66,46.82 340.38,45.64 				"/>
				
					<rect x="339.5" y="43.97" transform="matrix(0.5393 -0.8421 0.8421 0.5393 119.1176 307.063)" class="st1" width="1.4" height="1.38"/>
				<polygon class="st1" points="339.69,46.85 338.93,48.03 337.76,47.29 338.49,46.11 				"/>
				<polygon class="st1" points="342.08,48.35 341.32,49.53 340.16,48.78 340.88,47.6 				"/>
				<polygon class="st1" points="343.57,45.98 342.84,47.16 341.65,46.42 342.4,45.24 				"/>
			</g>
			<g id="Particle_26_">
				<polygon class="st1" points="361.25,28.06 361.12,29.44 359.72,29.33 359.85,27.94 				"/>
				<polygon class="st1" points="362.74,26.81 362.65,28.19 361.25,28.08 361.38,26.69 				"/>
				<polygon class="st1" points="359.98,26.53 359.85,27.92 358.45,27.8 358.58,26.42 				"/>
				<polygon class="st1" points="359.7,29.35 359.57,30.74 358.21,30.62 358.3,29.22 				"/>
				<polygon class="st1" points="362.51,29.6 362.38,30.99 360.98,30.87 361.11,29.48 				"/>
			</g>
			<g id="Particle_27_">
				<polygon class="st1" points="390.4,126.87 388.61,127.99 387.48,126.2 389.27,125.07 				"/>
				<polygon class="st1" points="390.86,131.46 387.32,133.69 385.07,130.15 388.63,127.92 				"/>
				<polygon class="st1" points="393.72,132.16 391.92,133.29 390.79,131.5 392.59,130.36 				"/>
				<polygon class="st1" points="385.05,130.16 383.27,131.3 382.14,129.5 383.92,128.37 				"/>
				<polygon class="st1" points="388.38,135.47 386.6,136.61 385.47,134.81 387.25,133.68 				"/>
			</g>
			<g id="Particle_28_">
				<polygon class="st1" points="372.83,146.89 371.16,148.45 369.6,146.78 371.26,145.22 				"/>
				<polygon class="st1" points="374.27,151.77 370.96,154.86 367.89,151.56 371.2,148.48 				"/>
				<polygon class="st1" points="377.56,151.85 375.88,153.41 374.33,151.74 376,150.17 				"/>
				<polygon class="st1" points="367.93,151.59 366.28,153.15 364.71,151.49 366.36,149.92 				"/>
				<polygon class="st1" points="372.55,156.47 370.89,158.03 369.33,156.35 370.99,154.79 				"/>
			</g>
			<g id="Particle_29_">
				
					<rect x="377.01" y="146.02" transform="matrix(0.8474 -0.531 0.531 0.8474 -20.2356 222.9144)" class="st1" width="1.29" height="1.28"/>
				<polygon class="st1" points="378.77,149.67 376.64,151.01 375.32,148.88 377.43,147.54 				"/>
				<polygon class="st1" points="380.6,150.09 379.51,150.78 378.84,149.69 379.93,149.01 				"/>
				<polygon class="st1" points="375.28,148.87 374.21,149.54 373.5,148.46 374.59,147.78 				"/>
				<polygon class="st1" points="377.35,152.1 376.27,152.78 375.57,151.7 376.66,151.02 				"/>
			</g>
			<g id="Particle_30_">
				<polygon class="st1" points="361.88,171.05 360.18,171.64 359.58,169.96 361.27,169.36 				"/>
				<polygon class="st1" points="361.43,175.09 358.01,176.31 356.8,172.9 360.19,171.68 				"/>
				<polygon class="st1" points="363.69,176.19 362.03,176.78 361.42,175.1 363.11,174.5 				"/>
				<polygon class="st1" points="356.82,172.89 355.12,173.49 354.53,171.81 356.21,171.21 				"/>
				<polygon class="st1" points="358.58,177.96 356.9,178.57 356.31,176.89 357.97,176.29 				"/>
			</g>
			<g id="Particle_31_">
				<polygon class="st1" points="346.34,187.45 345.14,189.27 343.33,188.08 344.51,186.26 				"/>
				
					<rect x="343.6" y="190.18" transform="matrix(0.547 -0.8371 0.8371 0.547 -4.3944 376.5894)" class="st1" width="4.35" height="4.35"/>
				<polygon class="st1" points="351.85,191.04 350.66,192.86 348.84,191.67 350.03,189.85 				"/>
				<polygon class="st1" points="342.82,192.92 341.63,194.74 339.81,193.56 341,191.74 				"/>
				<polygon class="st1" points="348.29,196.45 347.12,198.27 345.28,197.08 346.49,195.26 				"/>
			</g>
			<g id="Particle_32_">
				<polygon class="st1" points="345.27,196.08 344.23,197.1 343.22,196.07 344.26,195.05 				"/>
				<polygon class="st1" points="346.23,199.12 344.2,201.12 342.22,199.09 344.24,197.1 				"/>
				<polygon class="st1" points="348.31,199.12 347.3,200.14 346.26,199.11 347.31,198.09 				"/>
				<polygon class="st1" points="342.25,199.06 341.2,200.06 340.2,199.03 341.22,198.02 				"/>
				<polygon class="st1" points="345.27,202.12 344.24,203.14 343.22,202.1 344.26,201.09 				"/>
			</g>
			<g id="Particle_33_">
				<polygon class="st1" points="333.06,213.68 332.48,214.96 331.21,214.39 331.78,213.12 				"/>
				<polygon class="st1" points="334.95,216.09 333.85,218.58 331.34,217.47 332.45,214.98 				"/>
				<polygon class="st1" points="336.76,215.33 336.22,216.6 334.94,216.04 335.49,214.76 				"/>
				<polygon class="st1" points="331.38,217.38 330.83,218.65 329.56,218.09 330.11,216.82 				"/>
				<polygon class="st1" points="335.13,219.09 334.55,220.37 333.28,219.8 333.86,218.52 				"/>
			</g>
			<g id="Particle_34_">
				<polygon class="st1" points="321.18,222.23 320.93,224.62 318.54,224.38 318.8,221.99 				"/>
				
					<rect x="320.64" y="224.77" transform="matrix(0.0986 -0.9951 0.9951 0.0986 65.1307 526.2336)" class="st1" width="4.81" height="4.79"/>
				<polygon class="st1" points="328.3,222.93 328.05,225.32 325.67,225.08 325.92,222.7 				"/>
				<polygon class="st1" points="320.45,229.32 320.23,231.7 317.85,231.47 318.07,229.08 				"/>
				<polygon class="st1" points="327.66,230.11 327.41,232.5 325.03,232.26 325.28,229.88 				"/>
			</g>
			<g id="Particle_35_">
				
					<rect x="317.37" y="240.44" transform="matrix(0.935 -0.3546 0.3546 0.935 -64.8802 128.5201)" class="st1" width="1.68" height="1.68"/>
				<polygon class="st1" points="318.85,245.56 315.7,246.73 314.55,243.59 317.69,242.41 				"/>
				<polygon class="st1" points="321.03,246.5 319.46,247.08 318.86,245.51 320.43,244.93 				"/>
				<polygon class="st1" points="314.59,243.56 313.02,244.14 312.45,242.57 314.03,241.99 				"/>
				<polygon class="st1" points="316.3,248.24 314.73,248.82 314.14,247.25 315.71,246.67 				"/>
			</g>
			<g id="Particle_36_">
				<polygon class="st1" points="310.46,257.79 308.89,259.21 307.46,257.65 309.03,256.2 				"/>
				<polygon class="st1" points="311.68,262.25 308.58,265.08 305.78,261.98 308.85,259.15 				"/>
				<polygon class="st1" points="314.75,262.41 313.19,263.84 311.76,262.27 313.32,260.84 				"/>
				<polygon class="st1" points="305.86,262.01 304.29,263.44 302.86,261.91 304.43,260.47 				"/>
				<polygon class="st1" points="310.04,266.66 308.48,268.09 307.05,266.52 308.59,265.09 				"/>
			</g>
			<g id="Particle_37_">
				<polygon class="st1" points="296.5,271.9 295.4,273.42 293.84,272.35 294.94,270.8 				"/>
				<polygon class="st1" points="298.37,275.57 296.19,278.61 293.16,276.47 295.33,273.39 				"/>
				
					<rect x="298.8" y="274.38" transform="matrix(0.5783 -0.8158 0.8158 0.5783 -98.2226 360.6433)" class="st1" width="1.9" height="1.9"/>
				<polygon class="st1" points="293.24,276.42 292.16,277.97 290.61,276.87 291.71,275.31 				"/>
				<polygon class="st1" points="297.82,279.74 296.74,281.29 295.2,280.19 296.3,278.64 				"/>
			</g>
			<g id="Particle_38_">
				<polygon class="st1" points="210.82,266.82 210.04,268.47 208.37,267.69 209.15,266.04 				"/>
				
					<rect x="209.13" y="269.12" transform="matrix(0.4235 -0.9059 0.9059 0.4235 -123.8366 347.3297)" class="st1" width="3.68" height="3.68"/>
				<polygon class="st1" points="215.8,269.13 215.02,270.81 213.35,270.03 214.13,268.35 				"/>
				<polygon class="st1" points="208.48,271.8 207.71,273.49 206.05,272.71 206.81,271.02 				"/>
				<polygon class="st1" points="213.52,274.12 212.74,275.77 211.07,275 211.85,273.34 				"/>
			</g>
			<g id="Particle_39_">
				<polygon class="st1" points="206.22,256.57 205.7,259.42 202.84,258.92 203.37,256.05 				"/>
				<polygon class="st1" points="211.52,260.49 210.48,266.24 204.71,265.22 205.75,259.44 				"/>
				<polygon class="st1" points="214.86,258.09 214.34,260.95 211.49,260.41 212.01,257.56 				"/>
				<polygon class="st1" points="204.71,265.23 204.19,268.09 201.34,267.55 201.86,264.69 				"/>
				<polygon class="st1" points="213.33,266.74 212.81,269.6 209.96,269.09 210.48,266.24 				"/>
			</g>
			<g id="Particle_40_">
				
					<rect x="198.36" y="241.78" transform="matrix(0.9517 -0.307 0.307 0.9517 -64.8424 72.8384)" class="st1" width="1.5" height="1.5"/>
				<polygon class="st1" points="199.58,246.36 196.72,247.29 195.79,244.41 198.66,243.5 				"/>
				<polygon class="st1" points="201.42,247.3 199.99,247.76 199.53,246.33 200.97,245.87 				"/>
				<polygon class="st1" points="195.73,244.41 194.29,244.87 193.83,243.44 195.28,242.97 				"/>
				<polygon class="st1" points="197.12,248.71 195.69,249.16 195.22,247.72 196.66,247.28 				"/>
			</g>
			<g id="Particle_41_">
				<polygon class="st1" points="190.64,222.85 188.56,223.23 188.18,221.13 190.27,220.77 				"/>
				<polygon class="st1" points="189.34,227.3 185.23,228.05 184.48,223.94 188.59,223.19 				"/>
				<polygon class="st1" points="191.76,229.03 189.67,229.41 189.3,227.33 191.38,226.95 				"/>
				<polygon class="st1" points="184.45,223.95 182.37,224.32 181.99,222.23 184.07,221.87 				"/>
				<polygon class="st1" points="185.57,230.18 183.5,230.54 183.11,228.46 185.2,228.08 				"/>
			</g>
			<g id="Particle_42_">
				<polygon class="st1" points="173.25,209.44 172.44,211.38 170.49,210.57 171.3,208.61 				"/>
				<polygon class="st1" points="176.25,213.04 174.64,216.9 170.78,215.3 172.38,211.44 				"/>
				
					<rect x="176.64" y="211.37" transform="matrix(0.381 -0.9246 0.9246 0.381 -86.4102 295.7914)" class="st1" width="2.12" height="2.12"/>
				<polygon class="st1" points="170.79,215.29 169.98,217.24 168.02,216.43 168.84,214.47 				"/>
				<polygon class="st1" points="176.67,217.65 175.85,219.61 173.9,218.8 174.71,216.84 				"/>
			</g>
			<g id="Particle_43_">
				
					<rect x="162.66" y="181.65" transform="matrix(0.9971 -0.0755 0.0755 0.9971 -13.3281 12.8831)" class="st1" width="2.12" height="2.12"/>
				
					<rect x="158.75" y="184.04" transform="matrix(0.9971 -0.0766 0.0766 0.9971 -13.7842 12.8668)" class="st1" width="4.19" height="4.18"/>
				
					<rect x="163.1" y="187.99" transform="matrix(0.9971 -0.0763 0.0763 0.9971 -13.9456 13.0765)" class="st1" width="2.12" height="2.11"/>
				
					<rect x="156.36" y="182.17" transform="matrix(0.9971 -0.076 0.076 0.9971 -13.4702 12.4938)" class="st1" width="2.12" height="2.12"/>
				
					<rect x="156.86" y="188.43" transform="matrix(0.9971 -0.0758 0.0758 0.9971 -13.9091 12.5151)" class="st1" width="2.11" height="2.12"/>
			</g>
			<g id="Particle_44_">
				<polygon class="st1" points="162.97,186.55 161.24,186.64 161.16,184.91 162.88,184.82 				"/>
				<polygon class="st1" points="161.47,190.16 157.95,190.35 157.77,186.83 161.28,186.66 				"/>
				<polygon class="st1" points="163.27,191.76 161.55,191.86 161.45,190.13 163.18,190.05 				"/>
				<polygon class="st1" points="157.75,186.81 156.02,186.9 155.94,185.17 157.66,185.08 				"/>
				
					<rect x="156.29" y="190.36" transform="matrix(0.9987 -0.0508 0.0508 0.9987 -9.5113 8.2301)" class="st1" width="1.72" height="1.73"/>
			</g>
			<g id="Particle_45_">
				<polygon class="st1" points="140.47,151.28 139.27,152.75 137.81,151.55 139.01,150.08 				"/>
				<polygon class="st1" points="142.19,155.15 139.79,158.08 136.86,155.68 139.26,152.75 				"/>
				<polygon class="st1" points="144.86,154.92 143.66,156.39 142.19,155.19 143.39,153.72 				"/>
				<polygon class="st1" points="136.91,155.65 135.71,157.12 134.25,155.92 135.45,154.44 				"/>
				<polygon class="st1" points="141.24,159.21 140.04,160.67 138.57,159.47 139.78,158 				"/>
			</g>
			<g id="Particle_46_">
				<polygon class="st1" points="138.52,141.71 136.73,143.92 134.52,142.14 136.3,139.93 				"/>
				<polygon class="st1" points="141.23,147.54 137.62,152 133.15,148.39 136.77,143.92 				"/>
				
					<rect x="141.78" y="145.9" transform="matrix(0.6288 -0.7776 0.7776 0.6288 -61.3988 166.0361)" class="st1" width="2.84" height="2.84"/>
				
					<rect x="129.67" y="147.2" transform="matrix(0.6275 -0.7786 0.7786 0.6275 -66.8898 157.4329)" class="st1" width="2.84" height="2.85"/>
				<polygon class="st1" points="139.79,153.82 138,156.03 135.78,154.24 137.57,152.04 				"/>
			</g>
			<g id="Particle_47_">
				<polygon class="st1" points="122.85,126.06 122.55,127.76 120.85,127.45 121.15,125.75 				"/>
				
					<rect x="122.16" y="128.06" transform="matrix(0.1763 -0.9843 0.9843 0.1763 -25.7036 228.9081)" class="st1" width="3.52" height="3.51"/>
				
					<rect x="126.12" y="126.78" transform="matrix(0.1786 -0.9839 0.9839 0.1786 -21.2942 229.7903)" class="st1" width="1.73" height="1.73"/>
				
					<rect x="120.06" y="131.01" transform="matrix(0.1783 -0.984 0.984 0.1783 -30.3913 227.3478)" class="st1" width="1.73" height="1.73"/>
				<polygon class="st1" points="127.09,132.12 126.79,133.83 125.09,133.52 125.39,131.82 				"/>
			</g>
		</g>
		<g id="Phantoms">
			<polygon id="Phantom_2_" class="st2" points="426.54,108.01 415.4,101.31 415.4,102.43 412.06,100.76 406.47,111.35 
				403.69,110.24 397.54,122.51 395.32,121.95 395.32,119.71 401.46,109.13 399.77,108.57 400.35,105.77 404.8,97.41 403.69,97.41 
				403.69,95.74 390.29,91.83 390.29,88.49 391.4,86.82 389.17,86.26 390.29,84.03 387.52,83.47 388.06,81.24 385.29,80.68 
				384.17,82.91 381.38,82.36 383.6,77.34 381.38,76.78 380.82,77.89 379.69,77.89 378.03,81.79 374.69,80.68 378.58,71.2 
				375.81,70.09 376.35,68.97 375.23,68.97 371.89,77.34 368,76.78 369.11,73.43 365.21,72.87 364.09,75.66 359.64,74.55 
				358.52,77.89 353.5,76.78 354.61,73.43 349.58,72.32 347.93,79.01 342.34,77.89 341.78,80.12 340.1,83.47 349.04,48.34 
				350.15,47.78 413.17,74.55 419.3,64.51 435.47,73.99 437.7,77.34 432.13,84.59 471.72,111.35 473.39,113.02 455.53,130.31 
				455.53,128.64 456.65,126.96 454.42,124.73 457.78,121.39 454.99,119.16 453.88,120.83 451.07,119.16 452.76,116.93 
				450.52,115.26 452.19,113.58 449.96,111.91 447.73,113.58 445.51,111.91 449.96,106.89 447.73,105.22 444.94,109.13 
				443.82,109.13 441.59,111.91 439.36,110.24 442.16,106.33 441.05,105.22 439.36,105.77 437.14,108.01 435.47,106.89 
				436.58,104.66 434.35,102.99 433.24,105.22 431,103.55 429.88,105.22 428.76,104.66 			"/>
			<polygon id="Phantom_1_" class="st2" points="95.3,107.45 106.46,100.76 106.46,101.87 109.81,100.2 115.38,110.8 118.17,109.68 
				124.3,121.95 126.53,121.39 126.53,119.16 120.4,108.57 122.07,108.01 121.51,105.22 117.06,96.86 118.17,96.86 118.17,95.18 
				131.55,91.28 131.55,87.93 130.44,86.26 132.67,85.7 131.55,83.47 134.34,82.91 133.78,80.68 136.57,80.12 137.69,82.36 
				140.47,81.79 138.24,76.78 140.47,76.22 141.03,77.34 142.15,77.34 143.82,81.24 147.16,80.12 143.27,70.65 146.05,69.53 
				145.49,68.41 146.61,68.41 149.96,76.78 153.86,76.22 152.74,72.87 156.65,72.32 157.76,75.11 162.22,73.99 163.33,77.34 
				168.36,76.22 167.25,72.87 172.26,71.76 173.93,78.45 179.51,77.34 180.07,79.56 181.74,82.91 172.82,47.78 171.7,47.23 
				108.69,73.99 102.55,63.95 86.38,73.43 84.15,76.78 89.73,84.03 50.13,110.8 48.46,112.47 66.31,129.76 66.31,128.08 
				65.19,126.41 67.42,124.18 64.08,120.83 66.87,118.6 67.98,120.27 70.77,118.6 69.1,116.37 71.33,114.7 69.66,113.02 
				71.89,111.35 74.11,113.02 76.34,111.35 71.89,106.33 74.11,104.66 76.9,108.57 78.02,108.57 80.25,111.35 82.48,109.68 
				79.69,105.77 80.81,104.66 82.48,105.22 84.71,107.45 86.38,106.33 85.27,104.1 87.5,102.43 88.61,104.66 90.84,102.99 
				91.96,104.66 93.08,104.1 			"/>
		</g>
		<g id="Scarecrow">
			<rect id="Head" x="224.12" y="258.15" class="st3" width="71.39" height="70.27"/>
			<g id="Shirt">
				<rect x="215.19" y="317.11" class="st3" width="8.93" height="8.94"/>
				<rect x="206.28" y="326.06" class="st3" width="8.91" height="8.91"/>
				<rect x="197.36" y="317.11" class="st3" width="8.93" height="8.94"/>
				<rect x="188.43" y="326.06" class="st3" width="8.93" height="8.91"/>
				<rect x="197.36" y="334.97" class="st3" width="8.93" height="8.91"/>
				<rect x="197.36" y="352.82" class="st3" width="8.93" height="8.91"/>
				<rect x="188.43" y="343.88" class="st3" width="8.93" height="8.95"/>
				<rect x="206.28" y="343.88" class="st3" width="8.91" height="8.95"/>
				<rect x="215.19" y="334.97" class="st3" width="8.93" height="8.91"/>
				<rect x="188.43" y="361.73" class="st3" width="8.93" height="8.91"/>
				<rect x="206.28" y="361.73" class="st3" width="8.91" height="8.91"/>
				<rect x="215.19" y="352.82" class="st3" width="8.93" height="8.91"/>
				<rect x="224.12" y="343.88" class="st3" width="8.93" height="8.95"/>
				<rect x="233.05" y="334.97" class="st3" width="8.91" height="8.91"/>
				<rect x="224.12" y="326.06" class="st3" width="8.93" height="8.91"/>
				<rect x="241.96" y="361.73" class="st3" width="8.93" height="8.91"/>
				<rect x="241.96" y="379.59" class="st3" width="8.93" height="8.91"/>
				<rect x="241.96" y="397.42" class="st3" width="8.93" height="8.94"/>
				<rect x="224.12" y="397.42" class="st3" width="8.93" height="8.94"/>
				<rect x="233.05" y="388.5" class="st3" width="8.91" height="8.92"/>
				<rect x="224.12" y="379.59" class="st3" width="8.93" height="8.91"/>
				<rect x="233.05" y="370.64" class="st3" width="8.91" height="8.95"/>
				<rect x="224.12" y="361.73" class="st3" width="8.93" height="8.91"/>
				<rect x="250.89" y="334.97" class="st3" width="8.91" height="8.91"/>
				<rect x="241.96" y="343.88" class="st3" width="8.93" height="8.95"/>
				<rect x="233.05" y="352.82" class="st3" width="8.91" height="8.91"/>
				<rect x="268.74" y="352.82" class="st3" width="8.91" height="8.91"/>
				<rect x="268.74" y="388.5" class="st3" width="8.91" height="8.92"/>
				<rect x="268.74" y="370.64" class="st3" width="8.91" height="8.95"/>
				<rect x="259.8" y="361.73" class="st3" width="8.94" height="8.91"/>
				<rect x="259.8" y="379.59" class="st3" width="8.94" height="8.91"/>
				<rect x="259.8" y="397.42" class="st3" width="8.94" height="8.94"/>
				<rect x="250.89" y="388.5" class="st3" width="8.91" height="8.92"/>
				<rect x="250.89" y="370.64" class="st3" width="8.91" height="8.95"/>
				<rect x="250.89" y="352.82" class="st3" width="8.91" height="8.91"/>
				<rect x="259.8" y="343.88" class="st3" width="8.94" height="8.95"/>
				<rect x="295.51" y="343.88" class="st3" width="8.91" height="8.95"/>
				<rect x="286.56" y="334.97" class="st3" width="8.94" height="8.91"/>
				<rect x="268.74" y="334.97" class="st3" width="8.91" height="8.91"/>
				<rect x="277.65" y="343.88" class="st3" width="8.91" height="8.95"/>
				<rect x="286.56" y="352.82" class="st3" width="8.94" height="8.91"/>
				<rect x="277.65" y="361.73" class="st3" width="8.91" height="8.91"/>
				<rect x="286.56" y="370.64" class="st3" width="8.94" height="8.95"/>
				<rect x="277.65" y="379.59" class="st3" width="8.91" height="8.91"/>
				<rect x="286.56" y="388.5" class="st3" width="8.94" height="8.92"/>
				<rect x="277.65" y="397.42" class="st3" width="8.91" height="8.94"/>
				<rect x="322.27" y="317.11" class="st3" width="8.91" height="8.94"/>
				<rect x="304.42" y="317.11" class="st3" width="8.91" height="8.94"/>
				<rect x="313.33" y="326.06" class="st3" width="8.95" height="8.91"/>
				<rect x="322.27" y="334.97" class="st3" width="8.91" height="8.91"/>
				<rect x="295.51" y="326.06" class="st3" width="8.91" height="8.91"/>
				<rect x="286.56" y="317.11" class="st3" width="8.94" height="8.94"/>
				<rect x="277.65" y="326.06" class="st3" width="8.91" height="8.91"/>
				<rect x="304.42" y="334.97" class="st3" width="8.91" height="8.91"/>
				<rect x="313.33" y="343.88" class="st3" width="8.95" height="8.95"/>
				<rect x="322.27" y="352.82" class="st3" width="8.91" height="8.91"/>
				<rect x="313.33" y="361.73" class="st3" width="8.95" height="8.91"/>
				<rect x="304.42" y="352.82" class="st3" width="8.91" height="8.91"/>
				<rect x="295.51" y="361.73" class="st3" width="8.91" height="8.91"/>
			</g>
		</g>
	</g>
</g>
</svg>
