<?xml version="1.0" encoding="UTF-8" standalone="no"?>
<!-- Created with Inkscape (http://www.inkscape.org/) -->

<svg
   width="640mm"
   height="640mm"
   viewBox="0 0 640 640"
   version="1.1"
   id="svg1"
   xml:space="preserve"
   sodipodi:docname="pack.svg"
   inkscape:version="1.4.2 (f4327f4, 2025-05-13)"
   inkscape:export-filename="reeling2.png"
   inkscape:export-xdpi="96"
   inkscape:export-ydpi="96"
   xmlns:inkscape="http://www.inkscape.org/namespaces/inkscape"
   xmlns:sodipodi="http://sodipodi.sourceforge.net/DTD/sodipodi-0.dtd"
   xmlns="http://www.w3.org/2000/svg"
   xmlns:svg="http://www.w3.org/2000/svg"><sodipodi:namedview
     id="namedview1"
     pagecolor="#505050"
     bordercolor="#eeeeee"
     borderopacity="1"
     inkscape:showpageshadow="0"
     inkscape:pageopacity="0"
     inkscape:pagecheckerboard="0"
     inkscape:deskcolor="#505050"
     inkscape:document-units="mm"
     showguides="true"
     showgrid="false"
     inkscape:zoom="0.25"
     inkscape:cx="1118"
     inkscape:cy="1234"
     inkscape:window-width="1920"
     inkscape:window-height="1051"
     inkscape:window-x="-9"
     inkscape:window-y="-9"
     inkscape:window-maximized="1"
     inkscape:current-layer="svg1"><inkscape:grid
       id="grid11"
       units="mm"
       originx="0"
       originy="0"
       spacingx="0.99999997"
       spacingy="0.99999997"
       empcolor="#0099e5"
       empopacity="0.30196078"
       color="#0099e5"
       opacity="0.14901961"
       empspacing="5"
       enabled="true"
       visible="false" /></sodipodi:namedview><defs
     id="defs1" /><rect
     style="display:inline;fill:#ffffff;fill-opacity:1;stroke:#64b6d9;stroke-width:0;stroke-linejoin:round;stroke-dasharray:none;stroke-opacity:0"
     id="rect13"
     width="640"
     height="640"
     x="0"
     y="0"
     inkscape:label="white" /><g
     id="layer3-5-0-7-0"
     inkscape:label="rod"
     style="display:inline"
     transform="matrix(2.0107072,-0.19468644,0.19468644,2.0107072,-740.58478,-458.18211)"><path
       class="st1"
       d="m 422.44503,469.55569 c -48.23152,-86.59371 39.80486,-161.75256 49.88414,-171.15954 l -14.45343,-1.93987 c -20.58447,20.92196 -84.8457,92.10126 -37.36162,173.83268 z"
       id="path43"
       style="display:inline;fill:#85cceb;fill-opacity:1;stroke-width:0.812914"
       inkscape:label="line"
       transform="translate(-5.7459085e-6)" /><path
       id="rect12-3-9-7-5-2"
       style="display:inline;fill:#85cceb;fill-opacity:1;stroke:#64b6d9;stroke-width:0;stroke-linejoin:round;stroke-dasharray:none;stroke-opacity:0"
       d="m 320.00011,90.000191 v 9.999909 h 19.99981 v -9.999909 z m 19.99981,9.999909 V 110 h 9.99991 v -9.9999 z M 349.99983,110 v 9.99991 h 10.00042 V 110 Z m 10.00042,9.99991 v 9.99991 h 9.9999 v -9.99991 z m 9.9999,9.99991 v 10.00042 h 9.99991 v -10.00042 z m 9.99991,10.00042 v 9.99991 h 9.99991 v -9.99991 z m 9.99991,9.99991 v 9.9999 h 9.9999 v -9.9999 z m 9.9999,9.9999 v 9.99991 h 9.99991 v -9.99991 z m 9.99991,9.99991 v 9.99991 h 10.00042 v -9.99991 z"
       transform="translate(137.89844,206.43857)"
       inkscape:label="upper_line" /><path
       id="rect11-1-2-8-0"
       style="display:inline;fill:#4aa0c7;fill-opacity:1;stroke:#64b6d9;stroke-width:0;stroke-linejoin:round;stroke-dasharray:none;stroke-opacity:0"
       d="m 320.00011,100.0001 v 19.99981 h 9.9999 v 9.99991 h 9.99991 v 10.00042 h 9.99991 v 9.99991 h 10.00042 v 9.9999 h 9.9999 v 9.99991 h 9.99991 v 9.99991 h 9.99991 v 9.9999 20.00033 h 21.00027 8.99996 v 9.99991 h 9.99991 v 9.9999 h 19.99981 V 210.0001 h -9.9999 v -9.9999 h -9.99991 v -10.00043 h -9.99991 v -9.9999 h -10.00042 v -9.99991 h -9.99991 v -9.99991 h -9.9999 v -9.9999 h -9.99991 v -9.99991 h -9.99991 v -10.00042 h -9.9999 v -9.99991 H 349.99983 V 110 h -9.99991 v -9.9999 z"
       transform="translate(137.89844,206.43857)"
       inkscape:label="rod_base" /><path
       id="rect12-2-0-2-4"
       style="display:inline;fill:#207598;fill-opacity:1;stroke:#64b6d9;stroke-width:0;stroke-linejoin:round;stroke-dasharray:none;stroke-opacity:0"
       d="m 457.89855,306.43867 v 19.99981 h 9.9999 v -19.99981 z m 9.9999,19.99981 v 9.99991 h 9.99991 v -9.99991 z m 9.99991,9.99991 v 10.00042 h 9.99991 v -10.00042 z m 9.99991,10.00042 v 9.99991 h 10.00042 v -9.99991 z m 10.00042,9.99991 v 9.9999 h 9.9999 v -9.9999 z m 9.9999,9.9999 v 9.99991 h 9.99991 v -9.99991 z m 9.99991,9.99991 v 9.99991 h 9.99991 v -9.99991 z m 9.99991,9.99991 v 9.9999 h 9.9999 v -9.9999 z m 0,9.9999 h -9.99991 v 20.00033 h 9.99991 z m 0,20.00033 v 9.99991 h 19.99981 v -9.99991 z m 19.99981,0 h 10.00042 v -9.9999 h -10.00042 z m 10.00042,0 v 9.99991 h 9.99991 v -9.99991 z m 9.99991,9.99991 v 9.9999 h 19.99981 v -9.9999 z"
       inkscape:label="rod_shadow"
       transform="translate(1.1041667e-5)" /></g><path
     style="display:inline;fill:#4aa0c7;fill-opacity:1;stroke-width:1.01282"
     d="m 46.679031,498.30836 c -7.441762,-17.06635 -15.322441,-34.5201 -15.322441,-34.5201 0,0 1.991493,-0.87658 5.641191,-2.48305 l 5.238252,-2.30569 11.924644,26.52248 11.912349,26.53935 4.129644,-1.56296 c 10.221461,-3.86849 24.818237,-8.85184 32.40091,-10.7887 10.37571,-2.65026 39.13796,-7.79123 39.46267,-7.05352 0.13183,0.29936 -18.12959,8.62979 -40.58079,18.51203 L 60.222401,529.36773 Z M 166.70726,481.82114 c -0.34586,-0.78574 23.14081,-18.5994 32.49347,-24.64497 7.68004,-4.96438 19.70143,-11.70688 28.55276,-16.01458 l 4.73476,-2.35047 -11.6914,-26.68161 -11.74268,-26.55758 6.04414,-2.66042 5.23822,-2.30568 14.50614,32.70386 14.20445,32.52296 -41.00374,18.24576 c -22.6009,10.063 -41.20224,18.04717 -41.33625,17.74277 z m -25.39364,7.36677 c -24.73253,3.1172 -51.653983,9.78147 -67.255547,16.64873 l -4.300226,1.89282 -14.481147,-32.89931 -14.481156,-32.89936 9.673093,-3.81888 c 15.71856,-6.20564 40.695249,-11.87378 64.617293,-14.66409 l 8.63702,-1.15778 14.27769,32.43709 c 7.84966,17.8334 14.43291,32.78972 14.43291,32.78972 0,0 -6.28033,1.06108 -11.11993,1.67106 z m 1.52233,-36.58911 c -12.76924,-29.87698 -14.27769,-32.43712 -14.27769,-32.43712 0,0 27.896,-23.3929 38.85564,-30.59167 6.27391,-4.12099 15.5628,-9.52454 20.64199,-12.00786 l 9.63784,-4.69253 14.48115,32.89937 14.48114,32.89931 -4.30021,1.89282 c -15.41524,6.78526 -37.46513,21.35145 -56.10123,37.06054 -4.71816,3.97713 -8.98572,7.76683 -8.98572,7.76683 0,0 -6.78522,-14.89596 -14.43291,-32.78969 z"
     id="path1259"
     sodipodi:nodetypes="scscccsssscssssccccccccssscccsscsscsscscccssscs"
     transform="matrix(2.3570588,1.0374959,-1.0374959,2.3570588,461.26911,-700.33623)" /></svg>
