<?xml version="1.0" encoding="utf-8"?>
<!-- Generator: Adobe Illustrator 19.0.0, SVG Export Plug-In . SVG Version: 6.00 Build 0)  -->
<svg version="1.1" id="percurro_shamir" xmlns="http://www.w3.org/2000/svg" xmlns:xlink="http://www.w3.org/1999/xlink" x="0px"
	 y="0px" viewBox="0 0 512 512" style="enable-background:new 0 0 512 512;" xml:space="preserve">
<style type="text/css">
	.st0{fill:#FFFFFF;}
	.st1{fill:#3C83A1;}
	.st2{fill:#A0CCE0;}
	.st3{fill:#4A9FC6;}
	.st4{fill:#397894;}
	.st5{fill:#80BBD6;}
	.st6{fill:#3F82A2;}
	.st7{fill:#4085A5;}
</style>
<rect class="st0" width="512" height="512"/>
<g>
	<g>
		<g id="XMLID_39_">
			<rect id="XMLID_41_" x="304.6" y="332.9" class="st1" width="26" height="26"/>
			<polygon class="st2" points="203.5,370.4 177.4,370.4 177.4,396.4 203.5,396.4 229.5,396.4 229.5,370.4 			"/>
			<rect id="XMLID_111_" x="201.2" y="332.9" class="st1" width="26" height="26"/>
			<polygon class="st2" points="255.5,344.3 229.5,344.3 229.5,370.4 255.5,370.4 281.5,370.4 281.5,344.3 			"/>
			<rect id="XMLID_166_" x="151.4" y="422.4" class="st3" width="26" height="26"/>
			<rect id="XMLID_241_" x="333.6" y="422.4" class="st3" width="26" height="26"/>
			<polygon class="st4" points="307.6,318.3 281.5,318.3 255.5,318.3 229.5,318.3 203.5,318.3 177.4,318.3 177.4,344.3 203.5,344.3 
				229.5,344.3 255.5,344.3 281.5,344.3 307.6,344.3 333.6,344.3 333.6,318.3 			"/>
			<polygon class="st2" points="307.6,370.4 281.5,370.4 281.5,396.4 307.6,396.4 333.6,396.4 333.6,370.4 			"/>
			<g>
				<polygon class="st1" points="151.4,344.3 151.4,370.4 151.4,396.4 151.4,422.4 177.4,422.4 177.4,448.4 203.5,448.4 
					229.5,448.4 229.5,422.4 229.5,396.4 203.5,396.4 177.4,396.4 177.4,370.4 177.4,344.3 177.4,318.3 151.4,318.3 				"/>
				<polygon class="st1" points="333.6,318.3 333.6,344.3 333.6,370.4 333.6,396.4 307.6,396.4 281.5,396.4 281.5,422.4 
					281.5,448.4 307.6,448.4 333.6,448.4 333.6,422.4 359.6,422.4 359.6,396.4 359.6,370.4 359.6,344.3 359.6,318.3 				"/>
				<polygon class="st1" points="307.6,292.3 281.5,292.3 255.5,292.3 229.5,292.3 203.5,292.3 177.4,292.3 177.4,318.3 
					203.5,318.3 229.5,318.3 255.5,318.3 281.5,318.3 307.6,318.3 333.6,318.3 333.6,292.3 				"/>
			</g>
			<polygon class="st5" points="284.2,452.9 284.2,424.1 284.2,395.3 284.2,366.6 255.4,366.6 226.6,366.6 226.6,395.3 226.6,424.1 
				226.6,452.9 226.6,481.7 255.4,481.7 255.4,481.7 284.2,481.7 284.2,452.9 			"/>
		</g>
		<polygon class="st3" points="359.6,266.2 359.6,240.2 359.6,214.2 359.6,188.2 333.6,188.2 307.6,188.2 281.5,188.2 255.5,188.2 
			229.5,188.2 203.5,188.2 177.4,188.2 151.4,188.2 151.4,214.2 151.4,240.2 151.4,266.2 141.1,266.2 141.1,294.9 169.8,294.9 
			169.8,266.3 177.4,266.3 203.5,266.3 229.5,266.3 255.5,266.3 281.5,266.3 307.6,266.3 333.6,266.3 342.2,266.3 342.2,294.9 
			370.9,294.9 370.9,266.2 		"/>
		<g>
			<polygon class="st5" points="169.8,266.2 169.8,294.9 141.1,294.9 141.1,323.6 141.1,352.3 169.8,352.3 169.8,323.6 198.6,323.6 
				198.6,294.9 227.3,294.9 227.3,266.2 198.6,266.2 			"/>
			<polygon class="st5" points="342.2,294.9 342.2,266.2 313.4,266.2 284.7,266.2 284.7,294.9 313.4,294.9 313.4,323.6 342.2,323.6 
				342.2,352.3 370.9,352.3 370.9,323.6 370.9,294.9 			"/>
		</g>
		<g>
			<polygon class="st2" points="141.1,381 141.1,409.8 141.1,438.5 169.8,438.5 169.8,409.8 169.8,381 169.8,352.3 141.1,352.3 			
				"/>
			<polygon class="st2" points="227.3,266.2 227.3,294.9 256,294.9 284.7,294.9 284.7,266.2 256,266.2 			"/>
			<polygon class="st2" points="342.2,352.3 342.2,381 342.2,409.8 342.2,438.5 370.9,438.5 370.9,409.8 370.9,381 370.9,352.3 			
				"/>
		</g>
	</g>
	<g>
		<g id="XMLID_687_">
			<g id="XMLID_7_">
				<g>
					<polygon class="st2" points="233.5,120.7 242.1,122.2 250.7,123.7 259.2,125.2 267.8,126.7 269.3,118.1 260.7,116.6 
						252.1,115.2 243.6,113.7 235,112.2 226.5,110.7 217.9,109.2 216.4,117.8 225,119.3 					"/>
					<polygon class="st2" points="266.3,135.3 257.7,133.8 249.2,132.3 240.6,130.8 232,129.3 223.5,127.8 214.9,126.3 206.3,124.8 
						204.9,133.4 213.4,134.9 222,136.4 230.6,137.9 239.1,139.4 247.7,140.8 256.2,142.3 264.8,143.8 273.4,145.3 274.9,136.7 
											"/>
				</g>
				<g>
					<polygon class="st5" points="269.6,65.2 261.1,63.8 252.5,62.3 243.9,60.8 235.4,59.3 226.8,57.8 225.3,66.4 223.8,74.9 
						222.3,83.5 220.9,92.1 219.4,100.6 217.9,109.2 226.5,110.7 235,112.2 243.6,113.7 252.1,115.2 260.7,116.6 269.3,118.1 
						270.8,109.6 272.3,101 273.7,92.4 275.2,83.9 276.7,75.3 278.2,66.7 					"/>
					<polygon class="st5" points="232,129.3 240.6,130.8 249.2,132.3 257.7,133.8 266.3,135.3 267.8,126.7 259.2,125.2 250.7,123.7 
						242.1,122.2 233.5,120.7 225,119.3 216.4,117.8 214.9,126.3 223.5,127.8 					"/>
					<polygon class="st5" points="256.2,142.3 247.7,140.8 239.1,139.4 230.6,137.9 222,136.4 213.4,134.9 204.9,133.4 203.4,142 
						211.9,143.5 220.5,144.9 229.1,146.4 237.6,147.9 246.2,149.4 254.8,150.9 263.3,152.4 271.9,153.9 273.4,145.3 264.8,143.8 
											"/>
				</g>
				<g>
					<polygon class="st3" points="271.9,153.9 280.5,155.4 281.9,146.8 283.4,138.2 274.9,136.7 273.4,145.3 					"/>
					<polygon class="st3" points="254.8,150.9 246.2,149.4 237.6,147.9 229.1,146.4 220.5,144.9 211.9,143.5 203.4,142 201.9,150.5 
						210.4,152 219,153.5 227.6,155 236.1,156.5 244.7,158 253.3,159.5 261.8,161 270.4,162.4 271.9,153.9 263.3,152.4 					"/>
					<polygon class="st3" points="206.3,124.8 197.8,123.4 196.3,131.9 194.8,140.5 203.4,142 204.9,133.4 					"/>
					<polygon class="st3" points="278.2,66.7 276.7,75.3 275.2,83.9 273.7,92.4 272.3,101 270.8,109.6 269.3,118.1 267.8,126.7 
						266.3,135.3 274.9,136.7 276.4,128.2 277.8,119.6 279.3,111 280.8,102.5 282.3,93.9 283.8,85.4 285.3,76.8 286.8,68.2 					"/>
					<polygon class="st3" points="216.4,117.8 217.9,109.2 219.4,100.6 220.9,92.1 222.3,83.5 223.8,74.9 225.3,66.4 226.8,57.8 
						218.2,56.3 216.8,64.9 215.3,73.5 213.8,82 212.3,90.6 210.8,99.1 209.3,107.7 207.8,116.3 206.3,124.8 214.9,126.3 					"/>
					<polygon class="st3" points="243.9,60.8 252.5,62.3 261.1,63.8 269.6,65.2 278.2,66.7 279.7,58.2 271.1,56.7 262.6,55.2 
						254,53.7 245.4,52.2 236.9,50.7 228.3,49.2 226.8,57.8 235.4,59.3 					"/>
				</g>
			</g>
			<polygon id="XMLID_4_" class="st6" points="295.2,36.3 286.5,36.3 286.5,36.3 274.9,36.3 263.4,36.3 251.8,36.3 240.2,36.3 
				228.6,36.3 217,36.3 217,36.3 208.3,36.3 199.6,36.3 199.6,45 199.6,53.7 208.3,53.7 217,53.7 228.6,53.7 240.2,53.7 251.8,53.7 
				263.4,53.7 274.9,53.7 286.5,53.7 295.2,53.7 303.9,53.7 303.9,45 303.9,36.3 			"/>
		</g>
		<g id="XMLID_348_">
			<path id="XMLID_347_" class="st7" d="M407,149l-8.8-3.9c6.3-14.3,9.4-29.5,9.4-45.2s-3.2-30.9-9.4-45.2l8.8-3.9
				c6.8,15.5,10.2,32,10.2,49.1S413.8,133.4,407,149z"/>
			<path id="XMLID_350_" class="st7" d="M382,138l-8.8-3.9c4.7-10.9,7.2-22.4,7.2-34.3s-2.4-23.4-7.2-34.3l8.8-3.9
				c5.3,12.1,8,24.9,8,38.1S387.3,125.9,382,138z"/>
			<path id="XMLID_346_" class="st7" d="M382,138l-8.8-3.9c4.7-10.9,7.2-22.4,7.2-34.3s-2.4-23.4-7.2-34.3l8.8-3.9
				c5.3,12.1,8,24.9,8,38.1S387.3,125.9,382,138z"/>
			<path id="XMLID_351_" class="st7" d="M357,127.1l-8.8-3.9c3.2-7.4,4.9-15.2,4.9-23.3s-1.6-15.9-4.9-23.3l8.8-3.9
				c3.8,8.6,5.7,17.8,5.7,27.2S360.7,118.5,357,127.1z"/>
			<path id="XMLID_353_" class="st7" d="M357,127.1l-8.8-3.9c3.2-7.4,4.9-15.2,4.9-23.3s-1.6-15.9-4.9-23.3l8.8-3.9
				c3.8,8.6,5.7,17.8,5.7,27.2S360.7,118.5,357,127.1z"/>
			<path id="XMLID_358_" class="st7" d="M332,116.2l-8.8-3.9c1.7-3.9,2.6-8.1,2.6-12.4s-0.9-8.5-2.6-12.4l8.8-3.9
				c2.3,5.2,3.4,10.6,3.4,16.3S334.2,111,332,116.2z"/>
		</g>
		<g id="XMLID_352_">
			<path id="XMLID_357_" class="st7" d="M105,149c-6.8-15.5-10.2-32-10.2-49.1s3.4-33.5,10.2-49.1l8.8,3.9
				c-6.3,14.3-9.4,29.5-9.4,45.2s3.2,30.9,9.4,45.2L105,149z"/>
			<path id="XMLID_356_" class="st7" d="M130,138c-5.3-12.1-8-24.9-8-38.1s2.7-26,8-38.1l8.8,3.9c-4.7,10.9-7.2,22.4-7.2,34.3
				s2.4,23.4,7.2,34.3L130,138z"/>
			<path id="XMLID_355_" class="st7" d="M130,138c-5.3-12.1-8-24.9-8-38.1s2.7-26,8-38.1l8.8,3.9c-4.7,10.9-7.2,22.4-7.2,34.3
				s2.4,23.4,7.2,34.3L130,138z"/>
			<path id="XMLID_354_" class="st7" d="M155,127.1c-3.8-8.6-5.7-17.8-5.7-27.2s1.9-18.6,5.7-27.2l8.8,3.9
				c-3.2,7.4-4.9,15.2-4.9,23.3s1.6,15.9,4.9,23.3L155,127.1z"/>
			<path id="XMLID_441_" class="st7" d="M155,127.1c-3.8-8.6-5.7-17.8-5.7-27.2s1.9-18.6,5.7-27.2l8.8,3.9
				c-3.2,7.4-4.9,15.2-4.9,23.3s1.6,15.9,4.9,23.3L155,127.1z"/>
			<path id="XMLID_645_" class="st7" d="M180,116.2c-2.3-5.2-3.4-10.6-3.4-16.3s1.1-11.1,3.4-16.3l8.8,3.9
				c-1.7,3.9-2.6,8.1-2.6,12.4s0.9,8.5,2.6,12.4L180,116.2z"/>
		</g>
		<g id="XMLID_707_">
			<g id="XMLID_714_">
				
					<rect id="XMLID_1545_" x="287" y="97.2" transform="matrix(0.9648 -0.2628 0.2628 0.9648 -16.2765 79.9292)" class="st2" width="7.2" height="7.2"/>
				
					<rect id="XMLID_1542_" x="295.9" y="102.3" transform="matrix(0.9648 -0.2628 0.2628 0.9648 -17.2932 82.4276)" class="st2" width="7.2" height="7.2"/>
				
					<rect id="XMLID_1539_" x="300.3" y="145.8" transform="matrix(0.9648 -0.2628 0.2628 0.9648 -28.5797 85.1153)" class="st2" width="7.2" height="7.2"/>
				<polygon class="st2" points="279.3,100.2 286.2,98.3 284.3,91.3 277.4,93.2 270.4,95.1 263.5,97 265.4,104 267.3,110.9 
					269.2,117.8 276.1,115.9 283.1,114.1 281.2,107.1 				"/>
				
					<rect id="XMLID_1524_" x="285.1" y="90.3" transform="matrix(0.9648 -0.2628 0.2628 0.9648 -14.5189 79.1883)" class="st1" width="7.2" height="7.2"/>
				
					<rect id="XMLID_1523_" x="250.4" y="99.7" transform="matrix(0.9648 -0.2628 0.2628 0.9648 -18.2232 70.4003)" class="st1" width="7.2" height="7.2"/>
				
					<rect id="XMLID_1522_" x="245.4" y="108.6" transform="matrix(0.9648 -0.2628 0.2628 0.9648 -20.7217 69.3836)" class="st1" width="7.2" height="7.2"/>
				<g>
					<polygon class="st1" points="254,144.3 252.1,137.4 250.2,130.4 248.4,123.5 246.5,116.6 239.5,118.5 241.4,125.4 243.3,132.3 
						245.2,139.3 247.1,146.2 249,153.2 250.9,160.1 257.8,158.2 255.9,151.3 					"/>
					
						<rect x="258.6" y="157.1" transform="matrix(-0.2628 -0.9648 0.9648 -0.2628 176.0628 455.9773)" class="st1" width="7.2" height="7.2"/>
					
						<rect x="267.5" y="162.2" transform="matrix(-0.2628 -0.9648 0.9648 -0.2628 182.3448 470.8752)" class="st1" width="7.2" height="7.2"/>
					<polygon class="st1" points="303.2,160.7 296.3,162.6 289.3,164.5 282.4,166.4 275.5,168.3 277.4,175.2 284.3,173.4 
						291.2,171.5 298.2,169.6 305.1,167.7 					"/>
				</g>
				<g>
					<polygon class="st1" points="275.5,86.3 268.6,88.2 261.6,90.1 254.7,92 256.6,98.9 263.5,97 270.4,95.1 277.4,93.2 
						284.3,91.3 282.4,84.4 					"/>
					<polygon class="st1" points="318.4,134.2 316.5,127.3 314.6,120.4 312.7,113.4 310.8,106.5 308.9,99.5 302,101.4 303.9,108.4 
						305.8,115.3 307.7,122.3 309.5,129.2 311.4,136.1 313.3,143.1 320.3,141.2 					"/>
					
						<rect x="302.2" y="152.7" transform="matrix(-0.9648 0.2628 -0.2628 -0.9648 641.8471 226.7975)" class="st1" width="7.2" height="7.2"/>
					
						<rect x="307.2" y="143.9" transform="matrix(0.9648 -0.2628 0.2628 0.9648 -27.8385 86.8712)" class="st1" width="7.2" height="7.2"/>
				</g>
				<polygon class="st3" points="299.5,146.9 299.4,146.9 313.3,143.1 303.9,108.4 283.1,114.1 292.5,148.7 292.5,148.7 
					292.5,148.8 271.7,154.4 275.5,168.3 303.2,160.7 299.5,146.9 				"/>
				
					<rect id="XMLID_1501_" x="294" y="95.3" transform="matrix(0.9648 -0.2628 0.2628 0.9648 -15.5356 81.6868)" class="st1" width="7.2" height="7.2"/>
				
					<rect id="XMLID_1469_" x="265.6" y="155.2" transform="matrix(0.9648 -0.2628 0.2628 0.9648 -32.284 76.3273)" class="st5" width="7.2" height="7.2"/>
				
					<rect id="XMLID_1468_" x="295.2" y="154.6" transform="matrix(0.9648 -0.2628 0.2628 0.9648 -31.0781 84.0985)" class="st5" width="7.2" height="7.2"/>
				
					<rect id="XMLID_1467_" x="274.4" y="160.3" transform="matrix(0.9648 -0.2628 0.2628 0.9648 -33.3008 78.8257)" class="st5" width="7.2" height="7.2"/>
				<polyline class="st5" points="286.2,98.3 279.3,100.2 283.1,114.1 290,112.2 290,112.2 296.9,110.3 295,103.3 288.1,105.2 				
					"/>
				
					<rect id="XMLID_1466_" x="301.5" y="108.7" transform="matrix(0.9648 -0.2628 0.2628 0.9648 -22.566 84.6502)" class="st5" width="7.2" height="36"/>
				<polygon class="st2" points="276.7,145.6 274.8,138.7 273,131.7 271.1,124.8 269.2,117.8 262.2,119.7 255.3,121.6 257.2,128.6 
					259.1,135.5 261,142.4 262.9,149.4 264.7,156.3 271.7,154.4 278.6,152.5 				"/>
			</g>
			<polygon class="st0" points="269.2,117.8 265.4,104 263.5,97 256.6,98.9 258.5,105.8 251.5,107.7 253.4,114.7 246.5,116.6 
				257.8,158.2 264.7,156.3 255.3,121.6 			"/>
			
				<rect id="XMLID_708_" x="273.6" y="115.3" transform="matrix(0.9648 -0.2628 0.2628 0.9648 -25.1591 78.4986)" class="st0" width="14.4" height="36"/>
		</g>
	</g>
</g>
</svg>
