<?xml version="1.0" encoding="utf-8"?>
<!-- Generator: Adobe Illustrator 19.0.0, SVG Export Plug-In . SVG Version: 6.00 Build 0)  -->
<svg version="1.1" id="calling_bell" xmlns="http://www.w3.org/2000/svg" xmlns:xlink="http://www.w3.org/1999/xlink" x="0px"
	 y="0px" viewBox="0 0 512 512" style="enable-background:new 0 0 512 512;" xml:space="preserve">
<style type="text/css">
	.st0{fill:#FFFFFF;}
	.st1{fill:#3C83A1;}
	.st2{fill:#A0CCE0;}
	.st3{fill:#4A9FC6;}
	.st4{fill:#397894;}
	.st5{fill:#80BBD6;}
	.st6{fill:#3F82A2;}
	.st7{fill:#4085A5;}
</style>
<rect class="st0" width="512" height="512"/>
<g>
	<g>
		<g id="XMLID_39_">
			<rect id="XMLID_41_" x="304.6" y="332.9" class="st1" width="26" height="26"/>
			<polygon class="st2" points="203.5,370.4 177.4,370.4 177.4,396.4 203.5,396.4 229.5,396.4 229.5,370.4 			"/>
			<rect id="XMLID_111_" x="201.2" y="332.9" class="st1" width="26" height="26"/>
			<polygon class="st2" points="255.5,344.3 229.5,344.3 229.5,370.4 255.5,370.4 281.5,370.4 281.5,344.3 			"/>
			<rect id="XMLID_166_" x="151.4" y="422.4" class="st3" width="26" height="26"/>
			<rect id="XMLID_241_" x="333.6" y="422.4" class="st3" width="26" height="26"/>
			<polygon class="st4" points="307.6,318.3 281.5,318.3 255.5,318.3 229.5,318.3 203.5,318.3 177.4,318.3 177.4,344.3 203.5,344.3 
				229.5,344.3 255.5,344.3 281.5,344.3 307.6,344.3 333.6,344.3 333.6,318.3 			"/>
			<polygon class="st2" points="307.6,370.4 281.5,370.4 281.5,396.4 307.6,396.4 333.6,396.4 333.6,370.4 			"/>
			<g>
				<polygon class="st1" points="151.4,344.3 151.4,370.4 151.4,396.4 151.4,422.4 177.4,422.4 177.4,448.4 203.5,448.4 
					229.5,448.4 229.5,422.4 229.5,396.4 203.5,396.4 177.4,396.4 177.4,370.4 177.4,344.3 177.4,318.3 151.4,318.3 				"/>
				<polygon class="st1" points="333.6,318.3 333.6,344.3 333.6,370.4 333.6,396.4 307.6,396.4 281.5,396.4 281.5,422.4 
					281.5,448.4 307.6,448.4 333.6,448.4 333.6,422.4 359.6,422.4 359.6,396.4 359.6,370.4 359.6,344.3 359.6,318.3 				"/>
				<polygon class="st1" points="307.6,292.3 281.5,292.3 255.5,292.3 229.5,292.3 203.5,292.3 177.4,292.3 177.4,318.3 
					203.5,318.3 229.5,318.3 255.5,318.3 281.5,318.3 307.6,318.3 333.6,318.3 333.6,292.3 				"/>
			</g>
			<polygon class="st5" points="284.2,452.9 284.2,424.1 284.2,395.3 284.2,366.6 255.4,366.6 226.6,366.6 226.6,395.3 226.6,424.1 
				226.6,452.9 226.6,481.7 255.4,481.7 255.4,481.7 284.2,481.7 284.2,452.9 			"/>
		</g>
		<polygon class="st3" points="359.6,266.2 359.6,240.2 359.6,214.2 359.6,188.2 333.6,188.2 307.6,188.2 281.5,188.2 255.5,188.2 
			229.5,188.2 203.5,188.2 177.4,188.2 151.4,188.2 151.4,214.2 151.4,240.2 151.4,266.2 141.1,266.2 141.1,294.9 169.8,294.9 
			169.8,266.3 177.4,266.3 203.5,266.3 229.5,266.3 255.5,266.3 281.5,266.3 307.6,266.3 333.6,266.3 342.2,266.3 342.2,294.9 
			370.9,294.9 370.9,266.2 		"/>
		<g>
			<polygon class="st5" points="169.8,266.2 169.8,294.9 141.1,294.9 141.1,323.6 141.1,352.3 169.8,352.3 169.8,323.6 198.6,323.6 
				198.6,294.9 227.3,294.9 227.3,266.2 198.6,266.2 			"/>
			<polygon class="st5" points="342.2,294.9 342.2,266.2 313.4,266.2 284.7,266.2 284.7,294.9 313.4,294.9 313.4,323.6 342.2,323.6 
				342.2,352.3 370.9,352.3 370.9,323.6 370.9,294.9 			"/>
		</g>
		<g>
			<polygon class="st2" points="141.1,381 141.1,409.8 141.1,438.5 169.8,438.5 169.8,409.8 169.8,381 169.8,352.3 141.1,352.3 			
				"/>
			<polygon class="st2" points="227.3,266.2 227.3,294.9 256,294.9 284.7,294.9 284.7,266.2 256,266.2 			"/>
			<polygon class="st2" points="342.2,352.3 342.2,381 342.2,409.8 342.2,438.5 370.9,438.5 370.9,409.8 370.9,381 370.9,352.3 			
				"/>
		</g>
	</g>
	<g>
		<g id="XMLID_687_">
			<g id="XMLID_7_">
				
					<rect id="XMLID_343_" x="274.4" y="84.5" transform="matrix(-0.9853 -0.1711 0.1711 -0.9853 538.2085 224.1706)" class="st3" width="8.7" height="8.7"/>
				
					<rect id="XMLID_342_" x="245.4" y="150.1" transform="matrix(0.1711 -0.9853 0.9853 0.1711 54.8459 374.065)" class="st3" width="8.7" height="8.7"/>
				
					<rect id="XMLID_341_" x="228.3" y="147.1" transform="matrix(0.1711 -0.9853 0.9853 0.1711 43.578 354.722)" class="st3" width="8.7" height="8.7"/>
				
					<rect id="XMLID_340_" x="236.8" y="148.6" transform="matrix(0.1711 -0.9853 0.9853 0.1711 49.2119 364.3935)" class="st3" width="8.7" height="8.7"/>
				
					<rect id="XMLID_339_" x="219.7" y="145.6" transform="matrix(0.1711 -0.9853 0.9853 0.1711 37.944 345.0504)" class="st3" width="8.7" height="8.7"/>
				
					<rect id="XMLID_338_" x="195.5" y="132.6" transform="matrix(0.9853 0.1711 -0.1711 0.9853 26.3788 -32.1723)" class="st3" width="8.7" height="8.7"/>
				
					<rect id="XMLID_337_" x="197" y="124" transform="matrix(0.9853 0.1711 -0.1711 0.9853 24.9353 -32.5531)" class="st3" width="8.7" height="8.7"/>
				
					<rect id="XMLID_336_" x="202.6" y="142.7" transform="matrix(0.1711 -0.9853 0.9853 0.1711 26.676 325.7074)" class="st3" width="8.7" height="8.7"/>
				
					<rect id="XMLID_335_" x="274.1" y="137.4" transform="matrix(-0.9853 -0.1711 0.1711 -0.9853 528.4474 329.0832)" class="st3" width="8.7" height="8.7"/>
				
					<rect id="XMLID_334_" x="262.5" y="153.1" transform="matrix(0.1711 -0.9853 0.9853 0.1711 66.1139 393.4081)" class="st3" width="8.7" height="8.7"/>
				
					<rect id="XMLID_333_" x="272.6" y="146" transform="matrix(-0.9853 -0.1711 0.1711 -0.9853 524.0291 345.8322)" class="st3" width="8.7" height="8.7"/>
				
					<rect id="XMLID_332_" x="254" y="151.6" transform="matrix(0.1711 -0.9853 0.9853 0.1711 60.4799 383.7365)" class="st3" width="8.7" height="8.7"/>
				
					<rect id="XMLID_331_" x="241.6" y="70" transform="matrix(-0.1711 0.9853 -0.9853 -0.1711 361.3627 -155.2608)" class="st5" width="8.7" height="8.7"/>
				
					<rect id="XMLID_330_" x="233.1" y="68.5" transform="matrix(-0.1711 0.9853 -0.9853 -0.1711 349.8669 -148.5641)" class="st5" width="8.7" height="8.7"/>
				
					<rect id="XMLID_329_" x="250.2" y="71.5" transform="matrix(-0.1711 0.9853 -0.9853 -0.1711 372.8586 -161.9576)" class="st5" width="8.7" height="8.7"/>
				
					<rect id="XMLID_328_" x="224.5" y="67.1" transform="matrix(-0.1711 0.9853 -0.9853 -0.1711 338.371 -141.8674)" class="st5" width="8.7" height="8.7"/>
				
					<rect id="XMLID_327_" x="275.9" y="76" transform="matrix(-0.1711 0.9853 -0.9853 -0.1711 407.3462 -182.0477)" class="st3" width="8.7" height="8.7"/>
				
					<rect id="XMLID_326_" x="235.7" y="104.3" transform="matrix(0.9853 0.1711 -0.1711 0.9853 22.1279 -39.4697)" class="st5" width="8.7" height="8.7"/>
				
					<rect id="XMLID_325_" x="267.3" y="74.5" transform="matrix(-0.1711 0.9853 -0.9853 -0.1711 395.8503 -175.351)" class="st5" width="8.7" height="8.7"/>
				
					<rect id="XMLID_324_" x="216" y="65.6" transform="matrix(-0.1711 0.9853 -0.9853 -0.1711 326.8752 -135.1707)" class="st3" width="8.7" height="8.7"/>
				
					<rect id="XMLID_323_" x="211.1" y="144.1" transform="matrix(0.1711 -0.9853 0.9853 0.1711 32.31 335.3789)" class="st3" width="8.7" height="8.7"/>
				
					<rect id="XMLID_322_" x="268.8" y="65.9" transform="matrix(-0.1711 0.9853 -0.9853 -0.1711 389.1536 -186.8468)" class="st5" width="8.7" height="8.7"/>
				
					<rect id="XMLID_321_" x="260.3" y="64.4" transform="matrix(-0.1711 0.9853 -0.9853 -0.1711 377.6578 -180.1501)" class="st5" width="8.7" height="8.7"/>
				
					<rect id="XMLID_320_" x="277.4" y="67.4" transform="matrix(-0.1711 0.9853 -0.9853 -0.1711 400.6495 -193.5435)" class="st3" width="8.7" height="8.7"/>
				
					<rect id="XMLID_319_" x="251.7" y="63" transform="matrix(-0.1711 0.9853 -0.9853 -0.1711 366.1619 -173.4534)" class="st5" width="8.7" height="8.7"/>
				
					<rect id="XMLID_318_" x="217.4" y="57" transform="matrix(-0.1711 0.9853 -0.9853 -0.1711 320.1785 -146.6666)" class="st3" width="8.7" height="8.7"/>
				
					<rect id="XMLID_317_" x="243.1" y="61.5" transform="matrix(-0.1711 0.9853 -0.9853 -0.1711 354.666 -166.7567)" class="st5" width="8.7" height="8.7"/>
				
					<rect id="XMLID_316_" x="234.6" y="60" transform="matrix(-0.1711 0.9853 -0.9853 -0.1711 343.1702 -160.06)" class="st5" width="8.7" height="8.7"/>
				
					<rect id="XMLID_315_" x="226" y="58.5" transform="matrix(-0.1711 0.9853 -0.9853 -0.1711 331.6743 -153.3633)" class="st5" width="8.7" height="8.7"/>
				
					<rect id="XMLID_314_" x="258.8" y="73" transform="matrix(-0.1711 0.9853 -0.9853 -0.1711 384.3545 -168.6543)" class="st5" width="8.7" height="8.7"/>
				
					<rect id="XMLID_313_" x="220.1" y="92.8" transform="matrix(0.9853 0.1711 -0.1711 0.9853 19.9227 -36.9634)" class="st5" width="8.7" height="8.7"/>
				
					<rect id="XMLID_312_" x="218.6" y="101.3" transform="matrix(0.9853 0.1711 -0.1711 0.9853 21.3662 -36.5826)" class="st5" width="8.7" height="8.7"/>
				
					<rect id="XMLID_311_" x="221.5" y="84.2" transform="matrix(0.9853 0.1711 -0.1711 0.9853 18.4792 -37.3442)" class="st5" width="8.7" height="8.7"/>
				
					<rect id="XMLID_310_" x="217.1" y="109.9" transform="matrix(0.9853 0.1711 -0.1711 0.9853 22.8098 -36.2018)" class="st2" width="8.7" height="8.7"/>
				
					<rect id="XMLID_309_" x="247.2" y="88.6" transform="matrix(-0.1711 0.9853 -0.9853 -0.1711 386.252 -138.9658)" class="st5" width="8.7" height="8.7"/>
				
					<rect id="XMLID_308_" x="238.7" y="87.2" transform="matrix(-0.1711 0.9853 -0.9853 -0.1711 374.7562 -132.2691)" class="st5" width="8.7" height="8.7"/>
				
					<rect id="XMLID_307_" x="255.8" y="90.1" transform="matrix(-0.1711 0.9853 -0.9853 -0.1711 397.7479 -145.6625)" class="st5" width="8.7" height="8.7"/>
				
					<rect id="XMLID_306_" x="230.1" y="85.7" transform="matrix(-0.1711 0.9853 -0.9853 -0.1711 363.2603 -125.5724)" class="st5" width="8.7" height="8.7"/>
				
					<rect id="XMLID_305_" x="256.9" y="134.4" transform="matrix(-0.9853 -0.1711 0.1711 -0.9853 494.9494 320.2465)" class="st2" width="8.7" height="8.7"/>
				
					<rect id="XMLID_304_" x="239.8" y="131.5" transform="matrix(0.1711 -0.9853 0.9853 0.1711 68.555 353.1255)" class="st2" width="8.7" height="8.7"/>
				
					<rect id="XMLID_303_" x="215.6" y="118.4" transform="matrix(0.9853 0.1711 -0.1711 0.9853 24.2533 -35.821)" class="st5" width="8.7" height="8.7"/>
				
					<rect id="XMLID_302_" x="231.2" y="130" transform="matrix(0.1711 -0.9853 0.9853 0.1711 62.921 343.454)" class="st2" width="8.7" height="8.7"/>
				
					<rect id="XMLID_301_" x="214.1" y="127" transform="matrix(0.1711 -0.9853 0.9853 0.1711 51.653 324.111)" class="st2" width="8.7" height="8.7"/>
				
					<rect id="XMLID_300_" x="222.7" y="128.5" transform="matrix(0.1711 -0.9853 0.9853 0.1711 57.287 333.7825)" class="st2" width="8.7" height="8.7"/>
				
					<rect id="XMLID_299_" x="248.4" y="133" transform="matrix(0.1711 -0.9853 0.9853 0.1711 74.189 362.7971)" class="st2" width="8.7" height="8.7"/>
				
					<rect id="XMLID_298_" x="237.2" y="95.7" transform="matrix(-0.1711 0.9853 -0.9853 -0.1711 381.4529 -120.7732)" class="st5" width="8.7" height="8.7"/>
				
					<rect id="XMLID_297_" x="228.6" y="94.2" transform="matrix(0.9853 0.1711 -0.1711 0.9853 20.3035 -38.4069)" class="st5" width="8.7" height="8.7"/>
				
					<rect id="XMLID_296_" x="245.7" y="97.2" transform="matrix(-0.1711 0.9853 -0.9853 -0.1711 392.9488 -127.47)" class="st5" width="8.7" height="8.7"/>
				
					<rect id="XMLID_295_" x="234.2" y="112.9" transform="matrix(0.1711 -0.9853 0.9853 0.1711 82.2641 332.1861)" class="st2" width="8.7" height="8.7"/>
				
					<rect id="XMLID_294_" x="244.3" y="105.8" transform="matrix(-0.9853 -0.1711 0.1711 -0.9853 474.7064 261.1627)" class="st5" width="8.7" height="8.7"/>
				
					<rect id="XMLID_293_" x="227.1" y="102.8" transform="matrix(0.9853 0.1711 -0.1711 0.9853 21.7471 -38.0261)" class="st5" width="8.7" height="8.7"/>
				
					<rect id="XMLID_292_" x="242.8" y="114.3" transform="matrix(-0.9853 -0.1711 0.1711 -0.9853 470.288 277.9117)" class="st2" width="8.7" height="8.7"/>
				
					<rect id="XMLID_291_" x="272.9" y="93.1" transform="matrix(-0.9853 -0.1711 0.1711 -0.9853 533.7902 240.9197)" class="st3" width="8.7" height="8.7"/>
				
					<rect id="XMLID_290_" x="251.3" y="115.8" transform="matrix(-0.9853 -0.1711 0.1711 -0.9853 487.037 282.3301)" class="st2" width="8.7" height="8.7"/>
				
					<rect id="XMLID_289_" x="252.8" y="107.3" transform="matrix(-0.9853 -0.1711 0.1711 -0.9853 491.4554 265.5811)" class="st5" width="8.7" height="8.7"/>
				
					<rect id="XMLID_288_" x="249.9" y="124.4" transform="matrix(-0.9853 -0.1711 0.1711 -0.9853 482.6187 299.0791)" class="st5" width="8.7" height="8.7"/>
				
					<rect id="XMLID_287_" x="254.3" y="98.7" transform="matrix(-0.9853 -0.1711 0.1711 -0.9853 495.8737 248.832)" class="st5" width="8.7" height="8.7"/>
				
					<rect id="XMLID_286_" x="225.6" y="111.4" transform="matrix(0.9853 0.1711 -0.1711 0.9853 23.1906 -37.6453)" class="st2" width="8.7" height="8.7"/>
				
					<rect id="XMLID_285_" x="224.2" y="119.9" transform="matrix(0.1711 -0.9853 0.9853 0.1711 66.9585 328.1485)" class="st5" width="8.7" height="8.7"/>
				
					<rect id="XMLID_284_" x="232.7" y="121.4" transform="matrix(0.1711 -0.9853 0.9853 0.1711 72.5925 337.82)" class="st5" width="8.7" height="8.7"/>
				
					<rect id="XMLID_283_" x="241.3" y="122.9" transform="matrix(0.1711 -0.9853 0.9853 0.1711 78.2265 347.4916)" class="st5" width="8.7" height="8.7"/>
				
					<rect id="XMLID_282_" x="229.7" y="138.6" transform="matrix(0.1711 -0.9853 0.9853 0.1711 53.2495 349.088)" class="st5" width="8.7" height="8.7"/>
				
					<rect id="XMLID_281_" x="238.3" y="140" transform="matrix(0.1711 -0.9853 0.9853 0.1711 58.8835 358.7595)" class="st5" width="8.7" height="8.7"/>
				
					<rect id="XMLID_280_" x="221.2" y="137.1" transform="matrix(0.1711 -0.9853 0.9853 0.1711 47.6155 339.4164)" class="st5" width="8.7" height="8.7"/>
				
					<rect id="XMLID_279_" x="246.9" y="141.5" transform="matrix(0.1711 -0.9853 0.9853 0.1711 64.5174 368.431)" class="st5" width="8.7" height="8.7"/>
				
					<rect id="XMLID_278_" x="205.5" y="125.5" transform="matrix(0.9853 0.1711 -0.1711 0.9853 25.3161 -33.9966)" class="st2" width="8.7" height="8.7"/>
				
					<rect id="XMLID_277_" x="212.6" y="135.6" transform="matrix(0.1711 -0.9853 0.9853 0.1711 41.9815 329.7449)" class="st5" width="8.7" height="8.7"/>
				
					<rect id="XMLID_276_" x="204.1" y="134.1" transform="matrix(0.1711 -0.9853 0.9853 0.1711 36.3476 320.0734)" class="st5" width="8.7" height="8.7"/>
				
					<rect id="XMLID_275_" x="207" y="117" transform="matrix(0.9853 0.1711 -0.1711 0.9853 23.8725 -34.3774)" class="st3" width="8.7" height="8.7"/>
				
					<rect id="XMLID_274_" x="255.4" y="143" transform="matrix(0.1711 -0.9853 0.9853 0.1711 70.1514 378.1025)" class="st5" width="8.7" height="8.7"/>
				
					<rect id="XMLID_273_" x="268.5" y="118.8" transform="matrix(-0.9853 -0.1711 0.1711 -0.9853 520.5351 291.1668)" class="st3" width="8.7" height="8.7"/>
				
					<rect id="XMLID_272_" x="258.4" y="125.9" transform="matrix(-0.9853 -0.1711 0.1711 -0.9853 499.3677 303.4975)" class="st5" width="8.7" height="8.7"/>
				
					<rect id="XMLID_271_" x="270" y="110.2" transform="matrix(-0.9853 -0.1711 0.1711 -0.9853 524.9535 274.4178)" class="st3" width="8.7" height="8.7"/>
				
					<rect id="XMLID_268_" x="267" y="127.4" transform="matrix(-0.9853 -0.1711 0.1711 -0.9853 516.1168 307.9158)" class="st3" width="8.7" height="8.7"/>
				
					<rect id="XMLID_264_" x="264" y="144.5" transform="matrix(-0.9853 -0.1711 0.1711 -0.9853 507.2801 341.4139)" class="st5" width="8.7" height="8.7"/>
				
					<rect id="XMLID_263_" x="265.5" y="135.9" transform="matrix(-0.9853 -0.1711 0.1711 -0.9853 511.6984 324.6649)" class="st2" width="8.7" height="8.7"/>
				
					<rect id="XMLID_262_" x="271.4" y="101.7" transform="matrix(-0.9853 -0.1711 0.1711 -0.9853 529.3718 257.6687)" class="st3" width="8.7" height="8.7"/>
				
					<rect id="XMLID_230_" x="265.9" y="83.1" transform="matrix(-0.1711 0.9853 -0.9853 -0.1711 402.547 -163.8551)" class="st5" width="8.7" height="8.7"/>
				
					<rect id="XMLID_228_" x="248.7" y="80.1" transform="matrix(-0.1711 0.9853 -0.9853 -0.1711 379.5553 -150.4617)" class="st5" width="8.7" height="8.7"/>
				
					<rect id="XMLID_227_" x="264.4" y="91.6" transform="matrix(-0.9853 -0.1711 0.1711 -0.9853 517.0411 236.5013)" class="st5" width="8.7" height="8.7"/>
				
					<rect id="XMLID_226_" x="257.3" y="81.6" transform="matrix(-0.1711 0.9853 -0.9853 -0.1711 391.0512 -157.1584)" class="st5" width="8.7" height="8.7"/>
				
					<rect id="XMLID_218_" x="259.9" y="117.3" transform="matrix(-0.9853 -0.1711 0.1711 -0.9853 503.7861 286.7484)" class="st2" width="8.7" height="8.7"/>
				
					<rect id="XMLID_215_" x="261.4" y="108.8" transform="matrix(-0.9853 -0.1711 0.1711 -0.9853 508.2044 269.9994)" class="st5" width="8.7" height="8.7"/>
				
					<rect id="XMLID_214_" x="262.9" y="100.2" transform="matrix(-0.9853 -0.1711 0.1711 -0.9853 512.6228 253.2504)" class="st5" width="8.7" height="8.7"/>
				
					<rect id="XMLID_180_" x="210" y="99.8" transform="matrix(0.9853 0.1711 -0.1711 0.9853 20.9854 -35.139)" class="st3" width="8.7" height="8.7"/>
				
					<rect id="XMLID_72_" x="211.5" y="91.3" transform="matrix(0.9853 0.1711 -0.1711 0.9853 19.5419 -35.5198)" class="st3" width="8.7" height="8.7"/>
				
					<rect id="XMLID_15_" x="208.5" y="108.4" transform="matrix(0.9853 0.1711 -0.1711 0.9853 22.429 -34.7582)" class="st3" width="8.7" height="8.7"/>
				
					<rect id="XMLID_14_" x="240.2" y="78.6" transform="matrix(-0.1711 0.9853 -0.9853 -0.1711 368.0594 -143.765)" class="st5" width="8.7" height="8.7"/>
				
					<rect id="XMLID_13_" x="213" y="82.7" transform="matrix(0.9853 0.1711 -0.1711 0.9853 18.0984 -35.9006)" class="st3" width="8.7" height="8.7"/>
				
					<rect id="XMLID_12_" x="231.6" y="77.1" transform="matrix(-0.1711 0.9853 -0.9853 -0.1711 356.5636 -137.0683)" class="st5" width="8.7" height="8.7"/>
				
					<rect id="XMLID_10_" x="223" y="75.6" transform="matrix(-0.1711 0.9853 -0.9853 -0.1711 345.0677 -130.3716)" class="st5" width="8.7" height="8.7"/>
				
					<rect id="XMLID_9_" x="214.5" y="74.1" transform="matrix(0.9853 0.1711 -0.1711 0.9853 16.6548 -36.2814)" class="st3" width="8.7" height="8.7"/>
				<polygon id="XMLID_8_" class="st3" points="271.1,56.7 262.6,55.2 254,53.7 245.4,52.2 236.9,50.7 228.3,49.2 226.8,57.8 
					235.4,59.3 243.9,60.8 252.5,62.3 261.1,63.8 269.6,65.2 278.2,66.7 279.7,58.2 				"/>
			</g>
			<polygon id="XMLID_4_" class="st6" points="295.2,36.3 286.5,36.3 286.5,36.3 274.9,36.3 263.4,36.3 251.8,36.3 240.2,36.3 
				228.6,36.3 217,36.3 217,36.3 208.3,36.3 199.6,36.3 199.6,45 199.6,53.7 208.3,53.7 217,53.7 228.6,53.7 240.2,53.7 251.8,53.7 
				263.4,53.7 274.9,53.7 286.5,53.7 295.2,53.7 303.9,53.7 303.9,45 303.9,36.3 			"/>
		</g>
		<g id="XMLID_348_">
			<path id="XMLID_347_" class="st7" d="M407,149l-8.8-3.9c6.3-14.3,9.4-29.5,9.4-45.2s-3.2-30.9-9.4-45.2l8.8-3.9
				c6.8,15.5,10.2,32,10.2,49.1S413.8,133.4,407,149z"/>
			<path id="XMLID_350_" class="st7" d="M382,138l-8.8-3.9c4.7-10.9,7.2-22.4,7.2-34.3s-2.4-23.4-7.2-34.3l8.8-3.9
				c5.3,12.1,8,24.9,8,38.1S387.3,125.9,382,138z"/>
			<path id="XMLID_346_" class="st7" d="M382,138l-8.8-3.9c4.7-10.9,7.2-22.4,7.2-34.3s-2.4-23.4-7.2-34.3l8.8-3.9
				c5.3,12.1,8,24.9,8,38.1S387.3,125.9,382,138z"/>
			<path id="XMLID_351_" class="st7" d="M357,127.1l-8.8-3.9c3.2-7.4,4.9-15.2,4.9-23.3s-1.6-15.9-4.9-23.3l8.8-3.9
				c3.8,8.6,5.7,17.8,5.7,27.2S360.7,118.5,357,127.1z"/>
			<path id="XMLID_353_" class="st7" d="M357,127.1l-8.8-3.9c3.2-7.4,4.9-15.2,4.9-23.3s-1.6-15.9-4.9-23.3l8.8-3.9
				c3.8,8.6,5.7,17.8,5.7,27.2S360.7,118.5,357,127.1z"/>
			<path id="XMLID_358_" class="st7" d="M332,116.2l-8.8-3.9c1.7-3.9,2.6-8.1,2.6-12.4s-0.9-8.5-2.6-12.4l8.8-3.9
				c2.3,5.2,3.4,10.6,3.4,16.3S334.2,111,332,116.2z"/>
		</g>
		<g id="XMLID_352_">
			<path id="XMLID_357_" class="st7" d="M105,149c-6.8-15.5-10.2-32-10.2-49.1s3.4-33.5,10.2-49.1l8.8,3.9
				c-6.3,14.3-9.4,29.5-9.4,45.2s3.2,30.9,9.4,45.2L105,149z"/>
			<path id="XMLID_356_" class="st7" d="M130,138c-5.3-12.1-8-24.9-8-38.1s2.7-26,8-38.1l8.8,3.9c-4.7,10.9-7.2,22.4-7.2,34.3
				s2.4,23.4,7.2,34.3L130,138z"/>
			<path id="XMLID_355_" class="st7" d="M130,138c-5.3-12.1-8-24.9-8-38.1s2.7-26,8-38.1l8.8,3.9c-4.7,10.9-7.2,22.4-7.2,34.3
				s2.4,23.4,7.2,34.3L130,138z"/>
			<path id="XMLID_354_" class="st7" d="M155,127.1c-3.8-8.6-5.7-17.8-5.7-27.2s1.9-18.6,5.7-27.2l8.8,3.9
				c-3.2,7.4-4.9,15.2-4.9,23.3s1.6,15.9,4.9,23.3L155,127.1z"/>
			<path id="XMLID_441_" class="st7" d="M155,127.1c-3.8-8.6-5.7-17.8-5.7-27.2s1.9-18.6,5.7-27.2l8.8,3.9
				c-3.2,7.4-4.9,15.2-4.9,23.3s1.6,15.9,4.9,23.3L155,127.1z"/>
			<path id="XMLID_645_" class="st7" d="M180,116.2c-2.3-5.2-3.4-10.6-3.4-16.3s1.1-11.1,3.4-16.3l8.8,3.9
				c-1.7,3.9-2.6,8.1-2.6,12.4s0.9,8.5,2.6,12.4L180,116.2z"/>
		</g>
		<g id="XMLID_707_">
			<g id="XMLID_714_">
				
					<rect id="XMLID_1559_" x="255.5" y="90.9" transform="matrix(0.9648 -0.2628 0.2628 0.9648 -15.7248 71.417)" class="st1" width="7.2" height="7.2"/>
				
					<rect id="XMLID_1558_" x="262.4" y="89" transform="matrix(0.9648 -0.2628 0.2628 0.9648 -14.9839 73.1746)" class="st1" width="7.2" height="7.2"/>
				
					<rect id="XMLID_1557_" x="269.4" y="87.1" transform="matrix(0.9648 -0.2628 0.2628 0.9648 -14.243 74.9322)" class="st1" width="7.2" height="7.2"/>
				
					<rect id="XMLID_1554_" x="264.3" y="95.9" transform="matrix(0.9648 -0.2628 0.2628 0.9648 -16.7415 73.9155)" class="st2" width="7.2" height="7.2"/>
				
					<rect id="XMLID_1551_" x="271.3" y="94" transform="matrix(0.9648 -0.2628 0.2628 0.9648 -16.0006 75.6731)" class="st2" width="7.2" height="7.2"/>
				
					<rect id="XMLID_1548_" x="278.2" y="92.2" transform="matrix(0.9648 -0.2628 0.2628 0.9648 -15.2598 77.4307)" class="st2" width="7.2" height="7.2"/>
				
					<rect id="XMLID_1545_" x="287" y="97.2" transform="matrix(0.9648 -0.2628 0.2628 0.9648 -16.2765 79.9292)" class="st2" width="7.2" height="7.2"/>
				
					<rect id="XMLID_1542_" x="295.9" y="102.3" transform="matrix(0.9648 -0.2628 0.2628 0.9648 -17.2932 82.4276)" class="st2" width="7.2" height="7.2"/>
				
					<rect id="XMLID_1539_" x="300.3" y="145.8" transform="matrix(0.9648 -0.2628 0.2628 0.9648 -28.5797 85.1153)" class="st2" width="7.2" height="7.2"/>
				
					<rect id="XMLID_1538_" x="287.4" y="110.6" transform="matrix(0.9648 -0.2628 0.2628 0.9648 -23.3069 82.8926)" class="st3" width="21.6" height="36"/>
				
					<rect id="XMLID_1535_" x="266.2" y="102.9" transform="matrix(0.9648 -0.2628 0.2628 0.9648 -18.4991 74.6564)" class="st2" width="7.2" height="7.2"/>
				
					<rect id="XMLID_1532_" x="273.2" y="101" transform="matrix(0.9648 -0.2628 0.2628 0.9648 -17.7582 76.414)" class="st2" width="7.2" height="7.2"/>
				
					<rect id="XMLID_1529_" x="268.1" y="109.8" transform="matrix(0.9648 -0.2628 0.2628 0.9648 -20.2567 75.3972)" class="st2" width="7.2" height="7.2"/>
				
					<rect id="XMLID_1526_" x="275" y="107.9" transform="matrix(0.9648 -0.2628 0.2628 0.9648 -19.5158 77.1548)" class="st2" width="7.2" height="7.2"/>
				
					<rect id="XMLID_1525_" x="276.3" y="85.2" transform="matrix(0.9648 -0.2628 0.2628 0.9648 -13.5022 76.6898)" class="st1" width="7.2" height="7.2"/>
				
					<rect id="XMLID_1524_" x="285.1" y="90.3" transform="matrix(0.9648 -0.2628 0.2628 0.9648 -14.5189 79.1883)" class="st1" width="7.2" height="7.2"/>
				
					<rect id="XMLID_1523_" x="250.4" y="99.7" transform="matrix(0.9648 -0.2628 0.2628 0.9648 -18.2232 70.4003)" class="st1" width="7.2" height="7.2"/>
				
					<rect id="XMLID_1522_" x="245.4" y="108.6" transform="matrix(0.9648 -0.2628 0.2628 0.9648 -20.7217 69.3836)" class="st1" width="7.2" height="7.2"/>
				
					<rect id="XMLID_1521_" x="240.3" y="117.4" transform="matrix(0.9648 -0.2628 0.2628 0.9648 -23.2202 68.3668)" class="st1" width="7.2" height="7.2"/>
				
					<rect id="XMLID_1520_" x="242.2" y="124.3" transform="matrix(0.9648 -0.2628 0.2628 0.9648 -24.9778 69.1077)" class="st1" width="7.2" height="7.2"/>
				
					<rect id="XMLID_1519_" x="244.1" y="131.3" transform="matrix(0.9648 -0.2628 0.2628 0.9648 -26.7354 69.8486)" class="st1" width="7.2" height="7.2"/>
				
					<rect id="XMLID_1518_" x="246" y="138.2" transform="matrix(0.9648 -0.2628 0.2628 0.9648 -28.493 70.5895)" class="st1" width="7.2" height="7.2"/>
				
					<rect id="XMLID_1517_" x="247.9" y="145.1" transform="matrix(0.9648 -0.2628 0.2628 0.9648 -30.2506 71.3303)" class="st1" width="7.2" height="7.2"/>
				
					<rect id="XMLID_1516_" x="249.8" y="152.1" transform="matrix(0.9648 -0.2628 0.2628 0.9648 -32.0082 72.0712)" class="st1" width="7.2" height="7.2"/>
				
					<rect id="XMLID_1515_" x="302.8" y="100.4" transform="matrix(0.9648 -0.2628 0.2628 0.9648 -16.5523 84.1852)" class="st1" width="7.2" height="7.2"/>
				
					<rect id="XMLID_1514_" x="304.7" y="107.3" transform="matrix(0.9648 -0.2628 0.2628 0.9648 -18.3099 84.9261)" class="st1" width="7.2" height="7.2"/>
				
					<rect id="XMLID_1513_" x="306.6" y="114.2" transform="matrix(0.9648 -0.2628 0.2628 0.9648 -20.0675 85.667)" class="st1" width="7.2" height="7.2"/>
				
					<rect id="XMLID_1512_" x="308.5" y="121.2" transform="matrix(0.9648 -0.2628 0.2628 0.9648 -21.8251 86.4078)" class="st1" width="7.2" height="7.2"/>
				
					<rect id="XMLID_1511_" x="310.4" y="128.1" transform="matrix(0.9648 -0.2628 0.2628 0.9648 -23.5827 87.1487)" class="st1" width="7.2" height="7.2"/>
				
					<rect id="XMLID_1510_" x="312.3" y="135.1" transform="matrix(0.9648 -0.2628 0.2628 0.9648 -25.3403 87.8896)" class="st1" width="7.2" height="7.2"/>
				
					<rect id="XMLID_1509_" x="258.6" y="157.1" transform="matrix(0.9648 -0.2628 0.2628 0.9648 -33.0249 74.5697)" class="st1" width="7.2" height="7.2"/>
				
					<rect id="XMLID_1508_" x="267.5" y="162.2" transform="matrix(0.9648 -0.2628 0.2628 0.9648 -34.0416 77.0681)" class="st1" width="7.2" height="7.2"/>
				
					<rect id="XMLID_1507_" x="276.3" y="167.2" transform="matrix(0.9648 -0.2628 0.2628 0.9648 -35.0583 79.5666)" class="st1" width="7.2" height="7.2"/>
				
					<rect id="XMLID_1506_" x="283.2" y="165.3" transform="matrix(0.9648 -0.2628 0.2628 0.9648 -34.3175 81.3242)" class="st1" width="7.2" height="7.2"/>
				
					<rect id="XMLID_1505_" x="290.2" y="163.5" transform="matrix(0.9648 -0.2628 0.2628 0.9648 -33.5766 83.0818)" class="st1" width="7.2" height="7.2"/>
				
					<rect id="XMLID_1504_" x="297.1" y="161.6" transform="matrix(0.9648 -0.2628 0.2628 0.9648 -32.8357 84.8394)" class="st1" width="7.2" height="7.2"/>
				
					<rect id="XMLID_1503_" x="302.2" y="152.7" transform="matrix(0.9648 -0.2628 0.2628 0.9648 -30.3373 85.8561)" class="st1" width="7.2" height="7.2"/>
				
					<rect id="XMLID_1502_" x="307.2" y="143.9" transform="matrix(0.9648 -0.2628 0.2628 0.9648 -27.8388 86.8729)" class="st1" width="7.2" height="7.2"/>
				
					<rect id="XMLID_1501_" x="294" y="95.3" transform="matrix(0.9648 -0.2628 0.2628 0.9648 -15.5356 81.6868)" class="st1" width="7.2" height="7.2"/>
				
					<rect id="XMLID_1498_" x="256.1" y="120.5" transform="matrix(0.9648 -0.2628 0.2628 0.9648 -23.496 72.6229)" class="st2" width="7.2" height="7.2"/>
				
					<rect id="XMLID_1495_" x="263.1" y="118.7" transform="matrix(0.9648 -0.2628 0.2628 0.9648 -22.7552 74.3805)" class="st2" width="7.2" height="7.2"/>
				
					<rect id="XMLID_1492_" x="258" y="127.5" transform="matrix(0.9648 -0.2628 0.2628 0.9648 -25.2536 73.3638)" class="st2" width="7.2" height="7.2"/>
				
					<rect id="XMLID_1489_" x="264.9" y="125.6" transform="matrix(0.9648 -0.2628 0.2628 0.9648 -24.5128 75.1214)" class="st2" width="7.2" height="7.2"/>
				
					<rect id="XMLID_1486_" x="259.9" y="134.4" transform="matrix(0.9648 -0.2628 0.2628 0.9648 -27.0112 74.1047)" class="st2" width="7.2" height="7.2"/>
				
					<rect id="XMLID_1483_" x="266.8" y="132.5" transform="matrix(0.9648 -0.2628 0.2628 0.9648 -26.2704 75.8623)" class="st2" width="7.2" height="7.2"/>
				
					<rect id="XMLID_1480_" x="261.8" y="141.4" transform="matrix(0.9648 -0.2628 0.2628 0.9648 -28.7688 74.8455)" class="st2" width="7.2" height="7.2"/>
				
					<rect id="XMLID_1477_" x="268.7" y="139.5" transform="matrix(0.9648 -0.2628 0.2628 0.9648 -28.028 76.6031)" class="st2" width="7.2" height="7.2"/>
				
					<rect id="XMLID_1474_" x="263.7" y="148.3" transform="matrix(0.9648 -0.2628 0.2628 0.9648 -30.5264 75.5864)" class="st2" width="7.2" height="7.2"/>
				
					<rect id="XMLID_1471_" x="270.6" y="146.4" transform="matrix(0.9648 -0.2628 0.2628 0.9648 -29.7856 77.344)" class="st2" width="7.2" height="7.2"/>
				
					<rect id="XMLID_1470_" x="273.1" y="150.4" transform="matrix(0.9648 -0.2628 0.2628 0.9648 -31.3106 81.0917)" class="st3" width="28.8" height="14.4"/>
				
					<rect id="XMLID_1469_" x="265.6" y="155.2" transform="matrix(0.9648 -0.2628 0.2628 0.9648 -32.284 76.3273)" class="st5" width="7.2" height="7.2"/>
				
					<rect id="XMLID_1468_" x="295.2" y="154.6" transform="matrix(0.9648 -0.2628 0.2628 0.9648 -31.0781 84.0985)" class="st5" width="7.2" height="7.2"/>
				
					<rect id="XMLID_1467_" x="274.4" y="160.3" transform="matrix(0.9648 -0.2628 0.2628 0.9648 -33.3008 78.8257)" class="st5" width="7.2" height="7.2"/>
				
					<rect id="XMLID_1466_" x="301.5" y="108.7" transform="matrix(0.9648 -0.2628 0.2628 0.9648 -22.566 84.6502)" class="st5" width="7.2" height="36"/>
				
					<rect id="XMLID_1412_" x="288.9" y="104.1" transform="matrix(0.9648 -0.2628 0.2628 0.9648 -18.0341 80.67)" class="st5" width="7.2" height="7.2"/>
				
					<rect id="XMLID_715_" x="281" y="99" transform="matrix(0.9648 -0.2628 0.2628 0.9648 -17.8962 78.542)" class="st5" width="7.2" height="14.4"/>
			</g>
			
				<rect id="XMLID_712_" x="252" y="114.9" transform="matrix(0.9648 -0.2628 0.2628 0.9648 -26.8733 71.9766)" class="st0" width="7.2" height="43.2"/>
			
				<rect id="XMLID_711_" x="253.2" y="105.6" transform="matrix(0.9648 -0.2628 0.2628 0.9648 -20.4892 72.3904)" class="st0" width="14.4" height="14.4"/>
			
				<rect id="XMLID_709_" x="257.4" y="97.8" transform="matrix(0.9648 -0.2628 0.2628 0.9648 -17.4824 72.1579)" class="st0" width="7.2" height="7.2"/>
			
				<rect id="XMLID_708_" x="273.6" y="115.3" transform="matrix(0.9648 -0.2628 0.2628 0.9648 -25.1591 78.4986)" class="st0" width="14.4" height="36"/>
		</g>
	</g>
</g>
</svg>
