<?xml version="1.0" encoding="utf-8"?>
<!-- Generator: Adobe Illustrator 23.0.6, SVG Export Plug-In . SVG Version: 6.00 Build 0)  -->
<svg version="1.1" id="zauber_liquids" xmlns="http://www.w3.org/2000/svg" xmlns:xlink="http://www.w3.org/1999/xlink" x="0px"
	 y="0px" viewBox="0 0 512 512" style="enable-background:new 0 0 512 512;" xml:space="preserve">
<style type="text/css">
	.st0{fill:#FFFFFF;}
	.st1{fill:#4AA0C7;}
	.st2{fill:#428FB3;}
	.st3{fill:#7FBCD7;}
</style>
<rect x="0" y="0" class="st0" width="512" height="512"/>
<g>
	<g id="Icon_1_">
		<g id="liquid_tank">
			<path id="rect4147" class="st1" d="M281.5,319.09l-52.26-0.11l-1.15-29.43h-31.86l-3.63-45.58l-85.47-0.75L94.9,138.17
				l51.27-73.64h218.81l51.27,74.08l-12.17,104.61l-85.47,0.75l-3.38,45.88l-32.27-0.15L281.5,319.09z"/>
			<path id="rect4150" class="st2" d="M169.59,74.33l4.13,52.31H141.1L169.59,74.33z"/>
			<path id="rect4153" class="st2" d="M171.23,70.74h168.96l-3.68,55.34h-161.6L171.23,70.74z"/>
			<path id="rect4150-0" class="st2" d="M342.06,73.44l-4.12,52.3h32.61L342.06,73.44z"/>
			<path id="rect4171" class="st1" d="M191.66,77.45l9.15-27.6h3.38L308.81,50l0.04,0.89l9.64,26.95l-3.17,1.94l-7.66-21.38
				l-0.5-1.1l-1.19,25.56l-2.73-4.13l1.08-25.45l-99.88-0.2l0.79,26.8l-2.88,2.54L202,55.97l-6.12,21.38l123.01,0.05v2.38v48.38
				H193.55l0.05-4.37l121.37-0.35l-0.59-42.91l-118.84,0.7v18.64l7.31-22.07l99.85,0.05l3.68,0.84l9.65,22.97l0.21,11.09
				l-12.7-31.72l-98.2,0.2l-9.74,28.74v17.85h-3.93L191.66,77.45L191.66,77.45z"/>
		</g>
		<g id="particles">
			<g id="g4809-5-5-5" transform="matrix(0.8271092,-0.27484904,0.27484904,0.8271092,218.34555,369.73633)">
				<polygon id="rect4651-24-7-2" class="st1" points="-11.2,-15.43 -14.67,-13.51 -16.55,-16.9 -13.07,-18.83 				"/>
				<polygon id="rect4651-9-1-3-0" class="st1" points="-9.61,-20.7 -13.09,-18.79 -14.98,-22.17 -11.49,-24.1 				"/>
				<polygon id="rect4651-9-5-90-2-1" class="st1" points="-14.95,-22.14 -21.91,-18.29 -23.79,-21.69 -16.82,-25.54 				"/>
				<polygon id="rect4651-9-5-8-2-9-5" class="st1" points="-16.46,-8.49 -19.84,-6.64 -25.26,-16.49 -21.88,-18.33 				"/>
				<polygon id="rect4651-9-5-8-3-5-1-0" class="st1" points="-5.91,-14.36 -4.03,-10.97 -14.62,-5.11 -16.5,-8.49 				"/>
				<polygon id="rect4651-9-4-7-1-1" class="st1" points="-2.46,-16.28 -5.94,-14.37 -7.82,-17.74 -4.34,-19.68 				"/>
				<polygon id="rect4651-9-5-8-7-1-3-5" class="st1" points="-0.9,-21.46 -4.32,-19.62 -9.75,-29.48 -6.31,-31.36 				"/>
				<polygon id="rect4651-9-6-1-3-5" class="st1" points="-9.72,-29.51 -13.2,-27.57 -15.07,-30.98 -11.59,-32.9 				"/>
				<polygon id="rect4651-9-5-8-3-0-6-2-7" class="st1" points="-16.96,-34.29 -15.06,-30.92 -25.65,-25.05 -27.49,-28.42 				"/>
			</g>
			<g id="g4809-5-5-5_1_" transform="matrix(0.8271092,-0.27484904,0.27484904,0.8271092,218.34555,369.73633)">
				<polygon id="rect4651-24-7-2_1_" class="st1" points="-29.76,-68.46 -31.42,-65.74 -34.22,-67.44 -32.57,-70.17 				"/>
				
					<rect id="rect4651-9-1-3-0_1_" x="-29.16" y="-70.59" transform="matrix(-0.5203 0.854 -0.854 -0.5203 -100.7849 -81.2774)" class="st1" width="3.19" height="3.28"/>
				<polygon id="rect4651-9-5-90-2-1_1_" class="st1" points="-26.5,-73.91 -28.16,-71.18 -33.72,-74.57 -32.08,-77.27 				"/>
				<polygon id="rect4651-9-5-8-2-9-5_1_" class="st1" points="-38.48,-66.65 -41.17,-68.34 -36.34,-76.21 -33.66,-74.58 				"/>
				<polygon id="rect4651-9-5-8-3-5-1-0_1_" class="st1" points="-30.03,-61.55 -31.68,-58.85 -40.17,-63.98 -38.48,-66.72 				"/>
				<polygon id="rect4651-9-4-7-1-1_1_" class="st1" points="-25.6,-62.54 -27.25,-59.85 -30.04,-61.56 -28.4,-64.25 				"/>
				<polygon id="rect4651-9-5-8-7-1-3-5_1_" class="st1" points="-22.87,-60.9 -25.61,-62.53 -20.73,-70.45 -18.04,-68.76 				"/>
				<polygon id="rect4651-9-6-1-3-5_1_" class="st1" points="-19.13,-73.13 -20.77,-70.43 -23.57,-72.14 -21.92,-74.84 				"/>
				<polygon id="rect4651-9-5-8-3-0-6-2-7_1_" class="st1" points="-20.23,-77.55 -21.93,-74.81 -30.38,-79.99 -28.74,-82.68 				
					"/>
			</g>
			<g id="g4809-5-5-5_2_" transform="matrix(0.8271092,-0.27484904,0.27484904,0.8271092,218.34555,369.73633)">
				<polygon id="rect4651-24-7-2_2_" class="st1" points="20.17,-57.17 18.63,-56.78 18.26,-58.28 19.8,-58.67 				"/>
				<polygon id="rect4651-9-1-3-0_2_" class="st1" points="21.34,-59.05 19.8,-58.68 19.43,-60.16 20.97,-60.55 				"/>
				
					<rect id="rect4651-9-5-90-2-1_2_" x="16.09" y="-61.31" transform="matrix(-0.9713 0.2378 -0.2378 -0.9713 20.4593 -123.5345)" class="st1" width="3.18" height="1.55"/>
				<polygon id="rect4651-9-5-8-2-9-5_2_" class="st1" points="17.4,-55.02 15.91,-54.68 14.82,-59.07 16.36,-59.41 				"/>
				<polygon id="rect4651-9-5-8-3-5-1-0_2_" class="st1" points="22.12,-56.22 22.47,-54.68 17.76,-53.55 17.4,-55.02 				"/>
				<polygon id="rect4651-9-4-7-1-1_2_" class="st1" points="23.68,-56.63 22.13,-56.24 21.76,-57.74 23.31,-58.11 				"/>
				<polygon id="rect4651-9-5-8-7-1-3-5_2_" class="st1" points="24.82,-58.46 23.27,-58.06 22.23,-62.49 23.72,-62.83 				"/>
				<polygon id="rect4651-9-6-1-3-5_2_" class="st1" points="22.23,-62.48 20.68,-62.1 20.32,-63.6 21.86,-63.99 				"/>
				<polygon id="rect4651-9-5-8-3-0-6-2-7_2_" class="st1" points="19.94,-65.12 20.29,-63.59 15.57,-62.44 15.21,-63.92 				"/>
			</g>
			<g id="g4809-5-5-5_3_" transform="matrix(0.8271092,-0.27484904,0.27484904,0.8271092,218.34555,369.73633)">
				<polygon id="rect4651-24-7-2_3_" class="st1" points="-40.09,-117.3 -41.9,-115.79 -43.41,-117.63 -41.62,-119.12 				"/>
				<polygon id="rect4651-9-1-3-0_3_" class="st1" points="-39.78,-120.59 -41.58,-119.1 -43.1,-120.93 -41.3,-122.44 				"/>
				<polygon id="rect4651-9-5-90-2-1_3_" class="st1" points="-34.95,-118.45 -36.75,-116.97 -39.81,-120.62 -38,-122.13 				"/>
				<polygon id="rect4651-9-5-8-2-9-5_3_" class="st1" points="-36.79,-116.99 -35.3,-115.18 -40.47,-110.86 -41.97,-112.65 				"/>
				<polygon id="rect4651-9-5-8-3-5-1-0_3_" class="st1" points="-41.92,-112.65 -43.71,-111.16 -48.32,-116.74 -46.59,-118.23 				
					"/>
				<polygon id="rect4651-9-4-7-1-1_3_" class="st1" points="-44.76,-119.68 -46.56,-118.2 -48.09,-120.02 -46.29,-121.51 				"/>
				<polygon id="rect4651-9-5-8-7-1-3-5_3_" class="st1" points="-42.61,-127.66 -41.12,-125.88 -46.29,-121.56 -47.78,-123.31 				
					"/>
				<polygon id="rect4651-9-6-1-3-5_3_" class="st1" points="-37.82,-125.52 -39.63,-124 -41.15,-125.86 -39.35,-127.34 				"/>
				<polygon id="rect4651-9-5-8-3-0-6-2-7_3_" class="st1" points="-31.42,-121.4 -33.21,-119.92 -37.84,-125.54 -36.05,-126.98 
									"/>
			</g>
			<g id="g4809-5-5-5_4_" transform="matrix(0.8271092,-0.27484904,0.27484904,0.8271092,218.34555,369.73633)">
				<polygon id="rect4651-24-7-2_4_" class="st1" points="99.35,14.78 97.21,17.59 94.34,15.35 96.48,12.56 				"/>
				<polygon id="rect4651-9-1-3-0_4_" class="st1" points="98.64,9.78 96.47,12.56 93.61,10.34 95.77,7.56 				"/>
				<polygon id="rect4651-9-5-90-2-1_4_" class="st1" points="106.53,11.46 104.36,14.24 98.62,9.8 100.79,7.02 				"/>
				<polygon id="rect4651-9-5-8-2-9-5_4_" class="st1" points="104.4,14.23 107.21,16.38 100.93,24.53 98.09,22.34 				"/>
				<polygon id="rect4651-9-5-8-3-5-1-0_4_" class="st1" points="98.16,22.39 96.01,25.17 87.26,18.37 89.45,15.57 				"/>
				<polygon id="rect4651-9-4-7-1-1_4_" class="st1" points="91.59,12.81 89.42,15.59 86.55,13.37 88.72,10.58 				"/>
				<polygon id="rect4651-9-5-8-7-1-3-5_4_" class="st1" points="92.18,0.3 94.96,2.44 88.71,10.6 85.92,8.42 				"/>
				<polygon id="rect4651-9-6-1-3-5_4_" class="st1" points="100,1.86 97.83,4.64 94.97,2.41 97.13,-0.37 				"/>
				<polygon id="rect4651-9-5-8-3-0-6-2-7_4_" class="st1" points="110.89,5.87 108.74,8.67 100.04,1.91 102.17,-0.87 				"/>
			</g>
			<g id="g4809-5-5-5_5_" transform="matrix(0.8271092,-0.27484904,0.27484904,0.8271092,218.34555,369.73633)">
				<polygon id="rect4651-24-7-2_5_" class="st1" points="63.37,-16.38 61.56,-16.37 61.58,-18.21 63.36,-18.21 				"/>
				<polygon id="rect4651-9-1-3-0_5_" class="st1" points="65.15,-18.21 63.38,-18.22 63.37,-20.05 65.15,-20.06 				"/>
				<polygon id="rect4651-9-5-90-2-1_5_" class="st1" points="66.93,-14.55 65.15,-14.54 65.14,-18.21 66.95,-18.21 				"/>
				<polygon id="rect4651-9-5-8-2-9-5_5_" class="st1" points="65.18,-14.51 65.18,-12.71 59.96,-12.71 59.96,-14.51 				"/>
				<polygon id="rect4651-9-5-8-3-5-1-0_5_" class="st1" points="59.96,-14.51 58.18,-14.5 58.18,-20.13 59.95,-20.12 				"/>
				<polygon id="rect4651-9-4-7-1-1_5_" class="st1" points="61.77,-20.11 59.96,-20.12 59.99,-21.95 61.77,-21.95 				"/>
				<polygon id="rect4651-9-5-8-7-1-3-5_5_" class="st1" points="66.97,-23.74 66.98,-21.96 61.76,-21.97 61.75,-23.74 				"/>
				<polygon id="rect4651-9-6-1-3-5_5_" class="st1" points="68.77,-20.13 66.99,-20.13 66.99,-21.98 68.78,-21.98 				"/>
				<polygon id="rect4651-9-5-8-3-0-6-2-7_5_" class="st1" points="70.54,-14.51 68.76,-14.5 68.76,-20.13 70.57,-20.12 				"/>
			</g>
			<g id="g4809-5-5-5_6_" transform="matrix(0.8271092,-0.27484904,0.27484904,0.8271092,218.34555,369.73633)">
				<polygon id="rect4651-24-7-2_6_" class="st1" points="46.1,26.66 43.68,26.66 43.65,24.12 46.11,24.13 				"/>
				<polygon id="rect4651-9-1-3-0_6_" class="st1" points="48.53,24.14 46.1,24.14 46.09,21.6 48.54,21.61 				"/>
				<polygon id="rect4651-9-5-90-2-1_6_" class="st1" points="50.99,29.17 48.57,29.17 48.56,24.14 51.01,24.15 				"/>
				<polygon id="rect4651-9-5-8-2-9-5_6_" class="st1" points="48.57,29.16 48.57,31.58 41.47,31.58 41.47,29.16 				"/>
				<polygon id="rect4651-9-5-8-3-5-1-0_6_" class="st1" points="41.47,29.2 39.02,29.19 39.02,21.54 41.48,21.53 				"/>
				<polygon id="rect4651-9-4-7-1-1_6_" class="st1" points="43.96,21.55 41.51,21.54 41.52,19.02 43.94,19.02 				"/>
				<polygon id="rect4651-9-5-8-7-1-3-5_6_" class="st1" points="51.01,16.58 51.01,19.01 43.9,19.05 43.91,16.62 				"/>
				
					<rect id="rect4651-9-6-1-3-5_6_" x="51.02" y="19.01" transform="matrix(-1 -2.792509e-03 2.792509e-03 -1 104.4246 40.6971)" class="st1" width="2.45" height="2.53"/>
				<polygon id="rect4651-9-5-8-3-0-6-2-7_6_" class="st1" points="55.88,29.14 53.45,29.15 53.46,21.54 55.88,21.54 				"/>
			</g>
			<g id="g4809-5-5-5_7_" transform="matrix(0.8271092,-0.27484904,0.27484904,0.8271092,218.34555,369.73633)">
				<polygon id="rect4651-24-7-2_7_" class="st1" points="107.5,-25.78 104.97,-23.68 102.83,-26.29 105.36,-28.39 				"/>
				<polygon id="rect4651-9-1-3-0_7_" class="st1" points="112.18,-25.21 109.66,-23.11 107.52,-25.72 110.04,-27.81 				"/>
				
					<rect id="rect4651-9-5-90-2-1_7_" x="107.48" y="-34.83" transform="matrix(-0.7738 0.6335 -0.6335 -0.7738 173.6295 -124.949)" class="st1" width="3.3" height="6.71"/>
				<polygon id="rect4651-9-5-8-2-9-5_7_" class="st1" points="98.4,-26.98 96.3,-29.53 103.72,-35.54 105.75,-33 				"/>
				<polygon id="rect4651-9-5-8-3-5-1-0_7_" class="st1" points="104.91,-19.09 102.36,-17.04 95.86,-24.95 98.4,-27.04 				"/>
				<polygon id="rect4651-9-4-7-1-1_7_" class="st1" points="109.57,-18.56 107.03,-16.5 104.89,-19.11 107.43,-21.18 				"/>
				<polygon id="rect4651-9-5-8-7-1-3-5_7_" class="st1" points="111.57,-15.99 109.54,-18.57 116.94,-24.59 118.97,-22.06 				"/>
				<polygon id="rect4651-9-6-1-3-5_7_" class="st1" points="119.48,-26.63 116.94,-24.55 114.8,-27.17 117.35,-29.26 				"/>
				<polygon id="rect4651-9-5-8-3-0-6-2-7_7_" class="st1" points="119.83,-31.31 117.29,-29.28 110.77,-37.18 113.32,-39.27 				
					"/>
			</g>
			<g id="g4809-5-5-5_8_" transform="matrix(0.8271092,-0.27484904,0.27484904,0.8271092,218.34555,369.73633)">
				<polygon id="rect4651-24-7-2_8_" class="st1" points="169.9,-14.92 168.55,-13.12 166.85,-14.41 168.18,-16.2 				"/>
				<polygon id="rect4651-9-1-3-0_8_" class="st1" points="169.54,-17.96 168.2,-16.17 166.49,-17.44 167.84,-19.25 				"/>
				<polygon id="rect4651-9-5-90-2-1_8_" class="st1" points="166.44,-17.46 163.78,-13.92 162.09,-15.21 164.74,-18.75 				"/>
				<polygon id="rect4651-9-5-8-2-9-5_8_" class="st1" points="168.8,-10.18 167.51,-8.5 162.54,-12.22 163.78,-13.95 				"/>
				<polygon id="rect4651-9-5-8-3-5-1-0_8_" class="st1" points="172.79,-15.56 174.53,-14.29 170.48,-8.89 168.8,-10.18 				"/>
				<polygon id="rect4651-9-4-7-1-1_8_" class="st1" points="174.18,-17.35 172.84,-15.56 171.14,-16.82 172.45,-18.62 				"/>
				<polygon id="rect4651-9-5-8-7-1-3-5_8_" class="st1" points="173.73,-20.32 172.42,-18.63 167.41,-22.38 168.7,-24.09 				"/>
				<polygon id="rect4651-9-6-1-3-5_8_" class="st1" points="167.43,-22.36 166.09,-20.55 164.37,-21.84 165.71,-23.63 				"/>
				<polygon id="rect4651-9-5-8-3-0-6-2-7_8_" class="st1" points="162.63,-23.17 164.38,-21.87 160.35,-16.48 158.66,-17.79 				
					"/>
			</g>
			<g id="g4809-5-5-5_9_" transform="matrix(0.8271092,-0.27484904,0.27484904,0.8271092,218.34555,369.73633)">
				<polygon id="rect4651-24-7-2_9_" class="st1" points="195.47,-44.15 193.76,-43.68 193.25,-45.45 194.98,-45.95 				"/>
				
					<rect id="rect4651-9-1-3-0_9_" x="191.27" y="-46.98" transform="matrix(-0.9613 0.2754 -0.2754 -0.9613 364.2151 -143.2636)" class="st1" width="1.8" height="1.83"/>
				
					<rect id="rect4651-9-5-90-2-1_9_" x="190.3" y="-44.79" transform="matrix(-0.9613 0.2755 -0.2755 -0.9613 363.1588 -136.9129)" class="st1" width="1.79" height="3.67"/>
				<polygon id="rect4651-9-5-8-2-9-5_9_" class="st1" points="197.6,-42.85 198.02,-41.1 193.03,-39.68 192.57,-41.41 				"/>
				<polygon id="rect4651-9-5-8-3-5-1-0_9_" class="st1" points="196.05,-48.2 197.75,-48.67 199.29,-43.29 197.59,-42.79 				"/>
				<polygon id="rect4651-9-4-7-1-1_9_" class="st1" points="196.05,-48.22 194.34,-47.75 193.83,-49.52 195.56,-50.01 				"/>
				<polygon id="rect4651-9-5-8-7-1-3-5_9_" class="st1" points="193.32,-51.21 193.82,-49.47 188.79,-48.06 188.29,-49.81 				"/>
				
					<rect id="rect4651-9-6-1-3-5_9_" x="187.25" y="-47.84" transform="matrix(-0.9614 0.2752 -0.2752 -0.9614 356.1279 -143.812)" class="st1" width="1.8" height="1.83"/>
				<polygon id="rect4651-9-5-8-3-0-6-2-7_9_" class="st1" points="185.85,-45.32 187.59,-45.82 189.13,-40.41 187.39,-39.9 				"/>
			</g>
		</g>
		<g id="potion">
			<rect x="236.52" y="431.93" class="st1" width="3.28" height="22.81"/>
			<rect x="236.52" y="451.46" class="st1" width="6.51" height="3.28"/>
			<rect x="239.8" y="454.74" class="st1" width="6.51" height="3.28"/>
			<rect x="239.8" y="451.46" class="st1" width="3.28" height="6.51"/>
			<rect x="246.31" y="458.02" class="st1" width="26.1" height="3.28"/>
			<rect x="272.4" y="454.74" class="st1" width="6.51" height="3.28"/>
			<rect x="275.68" y="451.46" class="st1" width="3.27" height="6.51"/>
			<rect x="275.68" y="451.46" class="st1" width="6.51" height="3.28"/>
			<rect x="278.91" y="431.93" class="st1" width="3.28" height="22.81"/>
			<rect x="272.4" y="428.63" class="st1" width="6.51" height="3.28"/>
			<rect x="272.4" y="425.34" class="st1" width="3.28" height="6.52"/>
			<rect x="265.9" y="422.12" class="st1" width="6.51" height="3.28"/>
			<rect x="262.61" y="406.27" class="st1" width="3.28" height="15.86"/>
			<rect x="246.31" y="402.53" class="st1" width="26.1" height="6.51"/>
			<rect x="252.82" y="396.02" class="st1" width="13.03" height="7.91"/>
			<rect x="252.82" y="406.27" class="st1" width="3.29" height="15.86"/>
			<rect x="246.31" y="422.12" class="st1" width="6.51" height="3.28"/>
			<rect x="243.03" y="425.34" class="st1" width="3.28" height="6.52"/>
			<rect x="239.8" y="428.63" class="st1" width="6.51" height="3.28"/>
			<rect x="252.82" y="425.34" class="st3" width="3.29" height="6.52"/>
			<rect x="249.59" y="431.93" class="st3" width="3.28" height="9.79"/>
			<rect x="262.61" y="451.46" class="st3" width="3.28" height="6.51"/>
			<rect x="265.9" y="441.71" class="st3" width="3.27" height="9.79"/>
		</g>
		<g id="potion_1_">
			<polygon class="st1" points="82.13,331.97 72.49,352.65 69.51,351.27 79.15,330.58 			"/>
			
				<rect x="71.44" y="347.84" transform="matrix(0.422 -0.9066 0.9066 0.422 -276.0576 269.1848)" class="st1" width="3.28" height="6.51"/>
			<polygon class="st1" points="78.34,355.38 76.95,358.36 71.06,355.61 72.45,352.63 			"/>
			<polygon class="st1" points="76.77,351.08 74.02,356.99 71.05,355.59 73.8,349.69 			"/>
			<polygon class="st1" points="100.65,369.36 99.26,372.33 75.59,361.31 76.98,358.34 			"/>
			<polygon class="st1" points="107.97,369.15 106.58,372.11 100.67,369.35 102.06,366.38 			"/>
			<polygon class="st1" points="109.35,366.22 106.61,372.13 103.63,370.75 106.38,364.84 			"/>
			<polygon class="st1" points="112.26,367.59 110.87,370.56 104.95,367.8 106.34,364.83 			"/>
			<polygon class="st1" points="120.54,349.93 110.9,370.61 107.92,369.21 117.56,348.53 			"/>
			
				<rect x="113.67" y="342.37" transform="matrix(0.4231 -0.9061 0.9061 0.4231 -246.6426 303.874)" class="st1" width="3.28" height="6.51"/>
			<polygon class="st1" points="117.4,341.24 114.65,347.13 111.67,345.75 114.42,339.84 			"/>
			<polygon class="st1" points="115.79,336.8 114.41,339.77 108.49,337.02 109.88,334.05 			"/>
			<polygon class="st1" points="116.63,319.74 109.92,334.11 106.95,332.72 113.66,318.33 			"/>
			<polygon class="st1" points="124.08,319.11 121.33,324.99 97.67,313.99 100.42,308.06 			"/>
			<polygon class="st1" points="120.88,310.46 117.55,317.61 105.74,312.09 109.08,304.93 			"/>
			<polygon class="st1" points="107.74,315.58 101.05,329.93 98.08,328.56 104.77,314.18 			"/>
			
				<rect x="92.77" y="325.38" transform="matrix(0.4235 -0.9059 0.9059 0.4235 -243.2875 274.985)" class="st1" width="3.28" height="6.51"/>
			<polygon class="st1" points="90.84,328.84 88.09,334.74 85.13,333.36 87.87,327.44 			"/>
			<polygon class="st1" points="89.38,331.74 87.99,334.72 82.09,331.97 83.48,329 			"/>
			<polygon class="st3" points="99.66,332.93 96.91,338.85 93.92,337.46 96.67,331.56 			"/>
			<polygon class="st3" points="93.95,337.43 89.81,346.3 86.84,344.9 90.99,336.03 			"/>
			<polygon class="st3" points="97.52,360.74 94.77,366.62 91.79,365.24 94.55,359.33 			"/>
			<polygon class="st3" points="104.61,353.18 100.47,362.05 97.49,360.65 101.63,351.78 			"/>
		</g>
		<g id="potion_2_">
			<polygon class="st1" points="447.21,351.46 444.24,352.83 434.59,332.15 437.56,330.78 			"/>
			<polygon class="st1" points="447.24,351.53 441.34,354.28 439.96,351.33 445.85,348.55 			"/>
			
				<rect x="438.84" y="354.01" transform="matrix(0.9064 -0.4225 0.4225 0.9064 -108.8641 220.0783)" class="st1" width="6.51" height="3.29"/>
			<polygon class="st1" points="445.66,355.77 442.71,357.15 439.94,351.24 442.91,349.85 			"/>
			<polygon class="st1" points="441.13,361.56 417.47,372.61 416.09,369.62 439.74,358.61 			"/>
			<polygon class="st1" points="416.03,369.65 410.12,372.4 408.74,369.43 414.65,366.68 			"/>
			<polygon class="st1" points="413.18,371.03 410.19,372.43 407.44,366.52 410.4,365.13 			"/>
			<polygon class="st1" points="411.8,368.08 405.91,370.83 404.52,367.86 410.43,365.11 			"/>
			<polygon class="st1" points="408.86,369.44 405.88,370.8 396.27,350.11 399.24,348.74 			"/>
			<polygon class="st1" points="405.11,345.9 399.19,348.65 397.81,345.68 403.71,342.93 			"/>
			<polygon class="st1" points="405.05,345.93 402.08,347.33 399.31,341.43 402.3,340.03 			"/>
			<polygon class="st1" points="408.18,337.27 402.3,340.02 400.9,337.05 406.81,334.3 			"/>
			<polygon class="st1" points="409.86,332.96 406.88,334.34 400.18,319.99 403.15,318.59 			"/>
			<polygon class="st1" points="419.05,314.27 395.4,325.3 392.65,319.4 416.3,308.37 			"/>
			<polygon class="st1" points="410.96,312.3 399.16,317.8 395.81,310.63 407.62,305.13 			"/>
			<polygon class="st1" points="418.69,328.74 415.72,330.13 409.02,315.74 411.99,314.37 			"/>
			
				<rect x="419.16" y="327.24" transform="matrix(0.9067 -0.4218 0.4218 0.9067 -99.3054 208.8611)" class="st1" width="6.52" height="3.28"/>
			<polygon class="st1" points="431.68,333.52 428.71,334.91 425.96,329 428.93,327.61 			"/>
			<polygon class="st1" points="434.61,332.21 428.71,334.96 427.31,331.99 433.22,329.24 			"/>
			<polygon class="st3" points="422.77,337.61 419.8,338.99 417.05,333.09 420.02,331.71 			"/>
			<polygon class="st3" points="429.91,345.13 426.94,346.53 422.8,337.65 425.78,336.27 			"/>
			
				<rect x="420.49" y="359.97" transform="matrix(0.9051 -0.4252 0.4252 0.9051 -114.3819 213.9612)" class="st3" width="3.29" height="6.51"/>
			<polygon class="st3" points="419.18,360.91 416.21,362.31 412.06,353.43 415.05,352.05 			"/>
		</g>
		<g id="prismarine_shard">
			<rect x="319.11" y="361.66" class="st1" width="4.47" height="22.38"/>
			<rect x="323.56" y="361.66" class="st1" width="4.48" height="4.47"/>
			<rect x="328.05" y="366.12" class="st1" width="8.94" height="4.49"/>
			<rect x="336.99" y="370.61" class="st1" width="8.96" height="4.47"/>
			<rect x="314.61" y="370.61" class="st1" width="4.49" height="4.47"/>
			<rect x="345.94" y="375.08" class="st1" width="4.47" height="8.96"/>
			<rect x="345.94" y="375.08" class="st1" width="8.95" height="4.48"/>
			<rect x="354.9" y="379.56" class="st1" width="8.95" height="4.48"/>
			<rect x="363.84" y="384.03" class="st1" width="8.94" height="4.46"/>
			<rect x="363.84" y="384.03" class="st1" width="4.47" height="13.43"/>
			<rect x="359.36" y="397.46" class="st1" width="4.48" height="8.95"/>
			<rect x="354.9" y="406.41" class="st1" width="4.47" height="4.46"/>
			<rect x="350.41" y="410.88" class="st1" width="4.48" height="4.48"/>
			<rect x="341.47" y="415.36" class="st1" width="8.94" height="4.47"/>
			<rect x="336.99" y="410.88" class="st1" width="4.49" height="4.48"/>
			<rect x="332.52" y="401.93" class="st1" width="4.46" height="8.94"/>
			<rect x="328.05" y="392.99" class="st1" width="4.47" height="8.95"/>
			<rect x="323.56" y="384.03" class="st1" width="4.48" height="8.95"/>
		</g>
		<g id="prismarine_crystal">
			<rect x="136.13" y="401.93" class="st1" width="4.48" height="17.9"/>
			<rect x="136.13" y="415.36" class="st1" width="17.9" height="4.47"/>
			<rect x="154.03" y="410.88" class="st1" width="35.8" height="4.48"/>
			<rect x="189.83" y="406.41" class="st1" width="4.48" height="4.46"/>
			<rect x="194.3" y="401.93" class="st1" width="4.48" height="4.48"/>
			<rect x="189.83" y="397.46" class="st1" width="4.48" height="4.48"/>
			<rect x="162.97" y="392.99" class="st1" width="26.85" height="4.47"/>
			<rect x="162.97" y="392.99" class="st1" width="4.48" height="13.43"/>
			<rect x="162.97" y="392.99" class="st1" width="8.95" height="8.95"/>
			<rect x="158.51" y="406.41" class="st1" width="4.47" height="4.46"/>
			<rect x="140.6" y="397.46" class="st1" width="4.47" height="4.48"/>
			<rect x="145.07" y="392.99" class="st1" width="4.48" height="4.47"/>
			<rect x="149.55" y="388.49" class="st1" width="31.32" height="4.49"/>
			<rect x="180.87" y="379.56" class="st1" width="4.48" height="8.94"/>
			<rect x="149.55" y="384.03" class="st1" width="4.47" height="8.95"/>
			<rect x="145.07" y="379.56" class="st1" width="4.48" height="4.48"/>
			<rect x="149.55" y="375.08" class="st1" width="4.47" height="4.48"/>
			<rect x="154.03" y="370.61" class="st1" width="13.42" height="4.47"/>
			<rect x="167.45" y="375.08" class="st1" width="13.42" height="4.48"/>
		</g>
	</g>
	<polyline class="st0" points="303.52,81.04 205.34,81.24 195.6,109.98 195.6,123.8 314.96,123.45 314.77,108.95 	"/>
</g>
<polyline class="st0" points="314.86,116.74 314.96,126.09 195.6,126.09 195.6,116.37 211.44,111.23 "/>
</svg>
