<?xml version="1.0" encoding="utf-8"?>
<!-- Generator: Adobe Illustrator 23.0.6, SVG Export Plug-In . SVG Version: 6.00 Build 0)  -->
<svg version="1.1" id="end_fishing" xmlns="http://www.w3.org/2000/svg" xmlns:xlink="http://www.w3.org/1999/xlink" x="0px"
	 y="0px" viewBox="0 0 512 512" style="enable-background:new 0 0 512 512;" xml:space="preserve">
<style type="text/css">
	.st0{fill:#FFFFFF;}
	.st1{fill:#4AA0C7;}
	.st2{fill:#7FBCD7;}
	.st3{fill:#3D83A3;}
</style>
<rect x="0" y="0" class="st0" width="512" height="512"/>
<g id="Icon">
	<g id="Particles">
		<g id="Particle_2_">
			<polygon class="st1" points="270.55,267.74 273.02,266.4 274.32,268.87 271.85,270.21 			"/>
			
				<rect x="274.8" y="268.01" transform="matrix(0.8787 -0.4773 0.4773 0.8787 -95.1 164.5077)" class="st1" width="2.81" height="2.81"/>
			
				<rect x="269.88" y="270.61" transform="matrix(0.8794 -0.4761 0.4761 0.8794 -96.7871 161.9661)" class="st1" width="2.81" height="2.81"/>
			<polygon class="st1" points="266.79,266.58 269.25,265.27 270.59,267.74 268.13,269.04 			"/>
			<polygon class="st1" points="271.7,263.93 274.16,262.62 275.5,265.09 273.03,266.39 			"/>
		</g>
		<g id="Particle_4_">
			<polygon class="st1" points="320.89,344.31 322.81,346.19 320.93,348.09 319,346.24 			"/>
			<polygon class="st1" points="320.97,348.09 322.89,349.98 321.03,351.9 319.11,350.01 			"/>
			
				<rect x="315.73" y="344.9" transform="matrix(0.7002 -0.714 0.714 0.7002 -152.1438 330.1987)" class="st1" width="2.7" height="2.69"/>
			
				<rect x="319.43" y="341.22" transform="matrix(0.7013 -0.7129 0.7129 0.7013 -148.39 331.0128)" class="st1" width="2.7" height="2.7"/>
			
				<rect x="323.25" y="344.71" transform="matrix(0.7011 -0.7131 0.7131 0.7011 -149.7417 334.9081)" class="st1" width="2.69" height="2.7"/>
		</g>
		<g id="Particle_5_">
			<rect x="302.38" y="278.85" class="st1" width="2.16" height="2.15"/>
			<rect x="304.51" y="280.97" class="st1" width="2.15" height="2.15"/>
			<rect x="300.2" y="280.96" class="st1" width="2.19" height="2.16"/>
			<rect x="300.21" y="276.71" class="st1" width="2.19" height="2.15"/>
			<rect x="304.53" y="276.66" class="st1" width="2.15" height="2.19"/>
		</g>
		<g id="Particle_6_">
			<polygon class="st1" points="345,244.5 346.09,245.17 345.41,246.26 344.32,245.6 			"/>
			<polygon class="st1" points="345.44,246.18 346.57,246.86 345.9,247.95 344.8,247.29 			"/>
			<polygon class="st1" points="343.21,244.91 344.3,245.57 343.62,246.68 342.54,246 			"/>
			<polygon class="st1" points="344.63,242.78 345.72,243.44 345.04,244.55 343.95,243.87 			"/>
			
				<rect x="346.35" y="244.37" transform="matrix(0.5276 -0.8495 0.8495 0.5276 -44.2112 410.5128)" class="st1" width="1.28" height="1.28"/>
		</g>
		<g id="Particle_9_">
			<polygon class="st1" points="402.92,323.87 404.19,324.51 403.55,325.81 402.25,325.15 			"/>
			<polygon class="st1" points="403.63,325.83 404.9,326.49 404.25,327.77 402.96,327.1 			"/>
			<polygon class="st1" points="401.08,324.45 402.36,325.13 401.69,326.4 400.42,325.73 			"/>
			<polygon class="st1" points="402.31,321.96 403.6,322.61 402.93,323.9 401.66,323.23 			"/>
			<polygon class="st1" points="404.86,323.2 406.13,323.87 405.49,325.14 404.19,324.48 			"/>
		</g>
		<g id="Particle_10_">
			<polygon class="st1" points="386.76,290.21 387.76,290.81 387.18,291.77 386.2,291.2 			"/>
			<polygon class="st1" points="387.16,291.76 388.14,292.37 387.57,293.32 386.58,292.75 			"/>
			<polygon class="st1" points="385.29,290.67 386.24,291.24 385.67,292.23 384.68,291.65 			"/>
			<polygon class="st1" points="386.38,288.69 387.36,289.26 386.77,290.26 385.81,289.65 			"/>
			<polygon class="st1" points="388.31,289.85 389.29,290.45 388.7,291.41 387.74,290.84 			"/>
		</g>
		<g id="Particle_12_">
			<polygon class="st1" points="266.31,399.98 267.91,402.15 265.72,403.75 264.13,401.58 			"/>
			<polygon class="st1" points="265.74,403.67 267.37,405.84 265.19,407.44 263.59,405.26 			"/>
			
				<rect x="261.06" y="399.93" transform="matrix(0.8034 -0.5955 0.5955 0.8034 -187.3501 235.1541)" class="st1" width="2.67" height="2.68"/>
			<polygon class="st1" points="266.84,396.29 268.44,398.46 266.25,400.07 264.66,397.88 			"/>
			<polygon class="st1" points="270.02,400.57 271.62,402.73 269.43,404.32 267.84,402.16 			"/>
		</g>
		<g id="Particle_13_">
			<polygon class="st1" points="335.68,435.89 337.05,435.78 337.15,437.12 335.81,437.26 			"/>
			<polygon class="st1" points="337.14,437.11 338.51,437 338.65,438.34 337.28,438.48 			"/>
			<polygon class="st1" points="334.47,437.35 335.84,437.23 335.94,438.59 334.61,438.7 			"/>
			<polygon class="st1" points="334.24,434.7 335.57,434.58 335.71,435.94 334.34,436.05 			"/>
			<polygon class="st1" points="336.91,434.43 338.26,434.29 338.38,435.66 337.03,435.8 			"/>
		</g>
		<g id="Particle_14_">
			<polygon class="st1" points="361.04,419.76 361.59,421.05 360.31,421.6 359.76,420.32 			"/>
			<polygon class="st1" points="360.38,421.53 360.95,422.81 359.66,423.36 359.11,422.09 			"/>
			<polygon class="st1" points="359.33,418.98 359.91,420.28 358.61,420.84 358.06,419.54 			"/>
			<polygon class="st1" points="361.87,417.93 362.42,419.23 361.14,419.79 360.56,418.49 			"/>
			<polygon class="st1" points="362.95,420.49 363.49,421.76 362.22,422.31 361.63,421.03 			"/>
		</g>
		<g id="Particle_15_">
			<polygon class="st1" points="371.38,426.86 372.54,427.67 371.77,428.85 370.56,428.07 			"/>
			<polygon class="st1" points="371.74,428.8 372.94,429.6 372.13,430.78 370.93,430 			"/>
			<polygon class="st1" points="369.37,427.23 370.58,428.05 369.8,429.24 368.59,428.43 			"/>
			<polygon class="st1" points="370.95,424.88 372.15,425.66 371.37,426.87 370.17,426.08 			"/>
			<polygon class="st1" points="373.35,426.44 374.55,427.24 373.73,428.44 372.53,427.63 			"/>
		</g>
		<g id="Particle_16_">
			
				<rect x="351" y="361" transform="matrix(0.5509 -0.8346 0.8346 0.5509 -143.8265 455.677)" class="st1" width="0.95" height="0.94"/>
			<polygon class="st1" points="351.49,362.12 352.29,362.64 351.76,363.47 350.97,362.95 			"/>
			<polygon class="st1" points="349.94,361.17 350.72,361.68 350.21,362.48 349.41,361.96 			"/>
			<polygon class="st1" points="350.98,359.5 351.77,360.02 351.25,360.85 350.46,360.33 			"/>
			<polygon class="st1" points="352.59,360.52 353.4,361.05 352.88,361.87 352.06,361.35 			"/>
		</g>
		<g id="Particle_17_">
			<rect x="449.16" y="293.78" class="st1" width="15.1" height="9.25"/>
			<rect x="452.19" y="290.71" class="st1" width="9.02" height="15.23"/>
		</g>
		<g id="Particle_18_">
			
				<rect x="361.33" y="327.42" transform="matrix(0.9956 -0.0937 0.0937 0.9956 -29.4925 36.0269)" class="st1" width="15.14" height="9.31"/>
			<polygon class="st1" points="363.66,324.88 372.66,324.05 374.09,339.19 365.09,340.03 			"/>
		</g>
		<g id="Particle_19_">
			<rect x="362.62" y="284.34" class="st1" width="7.49" height="4.59"/>
			<rect x="364.13" y="282.81" class="st1" width="4.47" height="7.54"/>
		</g>
		<g id="Particle_20_">
			<polygon class="st1" points="442.02,270.04 449.32,265.63 452.02,270.09 444.76,274.5 			"/>
			<polygon class="st1" points="442.48,267.6 446.84,264.96 451.28,272.26 446.92,274.9 			"/>
		</g>
		<g id="Particle_21_">
			<polygon class="st1" points="359.28,386.94 363.35,391.36 360.64,393.88 356.56,389.43 			"/>
			<polygon class="st1" points="360.91,387.05 363.36,389.7 358.91,393.79 356.47,391.14 			"/>
		</g>
		<g id="Particle_1_">
			<polygon class="st1" points="400.55,396.43 404.63,400.85 401.89,403.35 397.82,398.92 			"/>
			<polygon class="st1" points="402.21,396.48 404.65,399.15 400.17,403.25 397.76,400.6 			"/>
		</g>
		<g id="Particle_22_">
			<polygon class="st1" points="304.38,406.87 312.36,403.28 314.58,408.19 306.58,411.77 			"/>
			<polygon class="st1" points="305.29,404.55 310.06,402.41 313.69,410.44 308.92,412.59 			"/>
		</g>
		<g id="Particle_23_">
			<polygon class="st1" points="230.76,460.86 237.63,454.58 241.49,458.8 234.63,465.08 			"/>
			<polygon class="st1" points="230.77,458.29 234.88,454.52 241.21,461.44 237.1,465.2 			"/>
		</g>
		<g id="Particle_24_">
			<polygon class="st1" points="321.08,447.67 327.67,442.87 330.63,446.93 324.04,451.72 			"/>
			<polygon class="st1" points="321.48,445.44 325.46,442.55 330.27,449.21 326.33,452.07 			"/>
		</g>
		<g id="Particle_3_">
			<polygon class="st1" points="434.25,341.02 439.85,340.01 440.85,345.61 435.26,346.62 			"/>
			<polygon class="st1" points="440.82,345.59 442.68,345.26 443.02,347.13 441.15,347.46 			"/>
			<polygon class="st1" points="439.66,338.19 441.49,337.85 441.83,339.73 439.98,340.06 			"/>
			<polygon class="st1" points="432.23,339.53 434.08,339.2 434.41,341.03 432.55,341.37 			"/>
			<polygon class="st1" points="433.41,346.94 435.28,346.6 435.62,348.43 433.74,348.77 			"/>
		</g>
		<g id="Particle_7_">
			<polygon class="st1" points="402.85,282.51 410.42,281.58 411.32,289.16 403.75,290.08 			"/>
			<polygon class="st1" points="411.24,289.22 413.76,288.91 414.04,291.41 411.54,291.72 			"/>
			<polygon class="st1" points="410.08,279.19 412.58,278.89 412.87,281.38 410.35,281.69 			"/>
			<polygon class="st1" points="400.09,280.42 402.59,280.11 402.9,282.61 400.39,282.92 			"/>
			<polygon class="st1" points="401.17,290.36 403.67,290.09 403.98,292.58 401.48,292.86 			"/>
		</g>
		<g id="Particle_8_">
			
				<rect x="330.11" y="303.44" transform="matrix(0.6893 -0.7244 0.7244 0.6893 -118.5254 336.5547)" class="st1" width="6.07" height="6.07"/>
			<polygon class="st1" points="333.28,310.7 334.76,312.09 333.38,313.54 331.89,312.15 			"/>
			
				<rect x="337.83" y="305.3" transform="matrix(0.6923 -0.7216 0.7216 0.6923 -116.771 338.7556)" class="st1" width="2.01" height="2"/>
			<polygon class="st1" points="332.94,299.41 334.42,300.76 333.03,302.24 331.56,300.85 			"/>
			<polygon class="st1" points="327.47,305.15 328.96,306.54 327.57,307.99 326.09,306.63 			"/>
		</g>
		<g id="Particle_25_">
			<polygon class="st1" points="369.97,244.46 375.15,243.55 376.05,248.77 370.86,249.67 			"/>
			<polygon class="st1" points="376.1,248.77 377.81,248.46 378.11,250.19 376.38,250.48 			"/>
			<polygon class="st1" points="374.79,241.77 376.53,241.48 376.84,243.19 375.1,243.5 			"/>
			<polygon class="st1" points="367.94,242.99 369.67,242.71 369.98,244.42 368.25,244.73 			"/>
			<polygon class="st1" points="369.18,249.96 370.91,249.67 371.22,251.41 369.49,251.7 			"/>
		</g>
		<g id="Particle_26_">
			<polygon class="st1" points="311.84,264.59 316.16,263.98 316.73,268.3 312.45,268.88 			"/>
			
				<rect x="316.81" y="268.12" transform="matrix(0.9909 -0.1344 0.1344 0.9909 -33.2525 45.116)" class="st1" width="1.43" height="1.44"/>
			
				<rect x="316.05" y="262.44" transform="matrix(0.9909 -0.1346 0.1346 0.9909 -32.5381 45.0313)" class="st1" width="1.43" height="1.43"/>
			
				<rect x="310.44" y="263.16" transform="matrix(0.9908 -0.1351 0.1351 0.9908 -32.7982 44.4577)" class="st1" width="1.43" height="1.43"/>
			<polygon class="st1" points="311.13,268.98 312.57,268.79 312.78,270.21 311.34,270.4 			"/>
		</g>
		<g id="Particle_27_">
			<polygon class="st1" points="295.83,375.93 305.1,371.4 309.65,380.63 300.38,385.18 			"/>
			<polygon class="st1" points="309.58,380.68 312.65,379.17 314.16,382.22 311.08,383.74 			"/>
			<polygon class="st1" points="303.54,368.41 306.63,366.89 308.11,369.98 305.06,371.46 			"/>
			<polygon class="st1" points="291.29,374.43 294.35,372.9 295.85,375.99 292.78,377.48 			"/>
			<polygon class="st1" points="297.27,386.58 300.33,385.09 301.81,388.15 298.76,389.65 			"/>
		</g>
		<g id="Particle_28_">
			<polygon class="st1" points="270.64,451.77 275.75,448.4 279.11,453.51 274,456.88 			"/>
			<polygon class="st1" points="279.05,453.48 280.76,452.38 281.86,454.07 280.16,455.19 			"/>
			<polygon class="st1" points="274.61,446.75 276.28,445.65 277.42,447.32 275.71,448.45 			"/>
			<polygon class="st1" points="267.78,451.25 269.49,450.12 270.6,451.83 268.88,452.93 			"/>
			<polygon class="st1" points="272.23,458.01 273.94,456.89 275.05,458.58 273.37,459.7 			"/>
		</g>
		<g id="Particle_29_">
			<polygon class="st1" points="403.54,362.31 411.32,364.91 408.72,372.67 400.96,370.07 			"/>
			<polygon class="st1" points="408.69,372.66 411.25,373.52 410.41,376.07 407.83,375.23 			"/>
			
				<rect x="411.62" y="362.72" transform="matrix(0.3155 -0.9489 0.9489 0.3155 -62.8056 641.0986)" class="st1" width="2.73" height="2.73"/>
			<polygon class="st1" points="401.84,358.94 404.4,359.8 403.55,362.38 400.98,361.53 			"/>
			<polygon class="st1" points="398.44,369.19 401,370.05 400.14,372.64 397.59,371.78 			"/>
		</g>
		<g id="Particle_56_">
			<polygon class="st1" points="178.49,452.74 176.13,454.24 174.62,451.88 176.99,450.38 			"/>
			<polygon class="st1" points="174.69,451.89 172.32,453.41 170.82,451.05 173.18,449.55 			"/>
			<polygon class="st1" points="179.38,448.98 177.02,450.47 175.52,448.13 177.88,446.61 			"/>
			<polygon class="st1" points="182.3,453.61 179.94,455.12 178.44,452.75 180.8,451.26 			"/>
			<polygon class="st1" points="177.67,456.63 175.31,458.15 173.81,455.77 176.16,454.29 			"/>
		</g>
		<g id="Particle_55_">
			<polygon class="st1" points="196.54,300.99 198.03,298.75 200.28,300.23 198.77,302.47 			"/>
			<polygon class="st1" points="200.24,300.36 201.74,298.12 203.98,299.63 202.48,301.87 			"/>
			<polygon class="st1" points="197.24,304.65 198.74,302.44 200.96,303.92 199.46,306.16 			"/>
			<polygon class="st1" points="192.89,301.8 194.39,299.6 196.61,301.08 195.11,303.32 			"/>
			<polygon class="st1" points="195.8,297.38 197.3,295.17 199.52,296.66 198.02,298.9 			"/>
		</g>
		<g id="Particle_54_">
			<polygon class="st1" points="146.78,317.73 146.39,315.6 148.52,315.18 148.92,317.31 			"/>
			<polygon class="st1" points="148.49,315.26 148.09,313.12 150.23,312.71 150.61,314.84 			"/>
			<polygon class="st1" points="149.2,319.49 148.82,317.36 150.95,316.94 151.33,319.09 			"/>
			<polygon class="st1" points="145.05,320.22 144.65,318.09 146.79,317.71 147.18,319.84 			"/>
			<polygon class="st1" points="144.28,315.99 143.89,313.87 146.02,313.49 146.41,315.61 			"/>
		</g>
		<g id="Particle_53_">
			<polygon class="st1" points="243.45,343.32 242.79,344.43 241.69,343.77 242.36,342.67 			"/>
			<polygon class="st1" points="241.76,343.6 241.1,344.69 239.99,344.01 240.67,342.92 			"/>
			<polygon class="st1" points="243.09,341.49 242.44,342.58 241.33,341.91 242,340.82 			"/>
			<polygon class="st1" points="245.18,342.71 244.53,343.8 243.42,343.13 244.1,342.04 			"/>
			<polygon class="st1" points="243.86,344.96 243.18,346.07 242.1,345.39 242.77,344.3 			"/>
		</g>
		<g id="Particle_52_">
			<polygon class="st1" points="162.87,426.55 162.21,427.85 160.93,427.19 161.59,425.91 			"/>
			<polygon class="st1" points="160.91,427.21 160.26,428.48 158.97,427.83 159.64,426.53 			"/>
			<polygon class="st1" points="162.17,424.61 161.51,425.91 160.23,425.25 160.89,423.97 			"/>
			<polygon class="st1" points="164.74,425.94 164.07,427.21 162.8,426.54 163.45,425.27 			"/>
			<polygon class="st1" points="163.45,428.48 162.8,429.77 161.51,429.12 162.18,427.83 			"/>
		</g>
		<g id="Particle_51_">
			<polygon class="st1" points="197.73,384.97 197.15,385.93 196.17,385.36 196.76,384.39 			"/>
			<polygon class="st1" points="196.17,385.36 195.58,386.35 194.61,385.74 195.2,384.79 			"/>
			<polygon class="st1" points="197.36,383.43 196.78,384.42 195.81,383.82 196.38,382.86 			"/>
			<polygon class="st1" points="199.27,384.59 198.7,385.55 197.73,384.98 198.29,383.98 			"/>
			
				<rect x="196.79" y="386.18" transform="matrix(0.5069 -0.862 0.862 0.5069 -236.0645 360.8225)" class="st1" width="1.12" height="1.14"/>
		</g>
		<g id="Particle_50_">
			<polygon class="st1" points="56.17,241.14 54.02,242.74 52.42,240.59 54.57,238.98 			"/>
			<polygon class="st1" points="52.46,240.6 50.3,242.2 48.71,240.05 50.86,238.44 			"/>
			<polygon class="st1" points="56.72,237.38 54.56,238.97 52.96,236.82 55.13,235.23 			"/>
			<polygon class="st1" points="59.88,241.67 57.72,243.26 56.12,241.11 58.27,239.5 			"/>
			<polygon class="st1" points="55.62,244.91 53.47,246.5 51.87,244.34 54.03,242.74 			"/>
		</g>
		<g id="Particle_49_">
			<polygon class="st1" points="89.91,344.65 91.08,345.35 90.37,346.5 89.2,345.8 			"/>
			
				<rect x="89.9" y="346.68" transform="matrix(0.513 -0.8584 0.8584 0.513 -254.0606 246.9241)" class="st1" width="1.37" height="1.37"/>
			<polygon class="st1" points="88.08,345.07 89.26,345.77 88.56,346.96 87.38,346.25 			"/>
			<polygon class="st1" points="89.37,342.81 90.54,343.51 89.84,344.7 88.67,343.99 			"/>
			
				<rect x="91.33" y="344.39" transform="matrix(0.5144 -0.8576 0.8576 0.5144 -251.2391 246.4811)" class="st1" width="1.37" height="1.36"/>
		</g>
		<g id="Particle_48_">
			<polygon class="st1" points="223.99,260.7 224.05,259.3 225.46,259.35 225.39,260.75 			"/>
			<polygon class="st1" points="225.4,259.35 225.47,257.95 226.87,258 226.81,259.4 			"/>
			<polygon class="st1" points="225.29,262.15 225.36,260.75 226.76,260.8 226.69,262.2 			"/>
			<polygon class="st1" points="222.56,262.02 222.63,260.62 224.03,260.7 223.96,262.11 			"/>
			<polygon class="st1" points="222.63,259.2 222.68,257.8 224.08,257.89 224.03,259.29 			"/>
		</g>
		<g id="Particle_47_">
			<polygon class="st1" points="64.88,355.65 64.08,356.85 62.88,356.08 63.68,354.87 			"/>
			<polygon class="st1" points="62.94,356.05 62.14,357.23 60.94,356.45 61.75,355.25 			"/>
			<polygon class="st1" points="64.54,353.67 63.74,354.88 62.54,354.06 63.34,352.88 			"/>
			<polygon class="st1" points="66.88,355.25 66.09,356.46 64.89,355.64 65.69,354.46 			"/>
			<polygon class="st1" points="65.29,357.66 64.49,358.85 63.28,358.05 64.08,356.85 			"/>
		</g>
		<g id="Particle_46_">
			<polygon class="st1" points="200.76,311.91 200.25,311.07 201.09,310.56 201.6,311.4 			"/>
			<polygon class="st1" points="201.08,310.58 200.56,309.75 201.38,309.27 201.89,310.07 			"/>
			<polygon class="st1" points="202.09,312.2 201.6,311.4 202.41,310.89 202.93,311.72 			"/>
			<polygon class="st1" points="200.47,313.2 199.96,312.36 200.79,311.86 201.29,312.69 			"/>
			<polygon class="st1" points="199.44,311.61 198.95,310.77 199.77,310.26 200.28,311.1 			"/>
		</g>
		<g id="Particle_45_">
			<polygon class="st1" points="138.06,433.28 122.98,434.43 122.27,425.17 137.35,424.03 			"/>
			<polygon class="st1" points="135.27,436.54 126.25,437.23 125.09,422.08 134.11,421.39 			"/>
		</g>
		<g id="Particle_44_">
			<polygon class="st1" points="144.53,370.5 145.95,385.54 136.71,386.42 135.28,371.36 			"/>
			<polygon class="st1" points="147.81,373.21 148.66,382.21 133.53,383.64 132.68,374.64 			"/>
		</g>
		<g id="Particle_43_">
			<rect x="199.03" y="360.84" class="st1" width="4.6" height="7.47"/>
			<rect x="197.6" y="362.32" class="st1" width="7.54" height="4.5"/>
		</g>
		<g id="Particle_42_">
			<polygon class="st1" points="208.14,447.79 201.21,452.74 198.18,448.5 205.09,443.55 			"/>
			<polygon class="st1" points="207.86,450.05 203.72,453.01 198.73,446.05 202.87,443.08 			"/>
		</g>
		<g id="Particle_41_">
			<polygon class="st1" points="109.79,350.87 105.37,354.94 102.86,352.24 107.3,348.17 			"/>
			<polygon class="st1" points="109.7,352.53 107.05,354.95 102.96,350.5 105.61,348.06 			"/>
		</g>
		<g id="Particle_40_">
			<polygon class="st1" points="278.3,325.03 269.53,324.8 269.69,319.41 278.46,319.67 			"/>
			<polygon class="st1" points="276.47,326.74 271.26,326.58 271.5,317.78 276.74,317.93 			"/>
		</g>
		<g id="Particle_39_">
			<polygon class="st1" points="46.45,327.1 55.71,326.08 56.33,331.79 47.07,332.77 			"/>
			<polygon class="st1" points="47.97,324.99 53.51,324.41 54.52,333.72 48.98,334.31 			"/>
		</g>
		<g id="Particle_38_">
			
				<rect x="99.38" y="299.59" transform="matrix(3.799946e-03 -1 1 3.799946e-03 -202.18 404.4086)" class="st1" width="5" height="8.17"/>
			<polygon class="st1" points="99.48,299.5 104.36,299.52 104.33,307.74 99.45,307.73 			"/>
		</g>
		<g id="Particle_37_">
			<polygon class="st1" points="172.74,387.28 167.23,388.7 165.8,383.2 171.3,381.78 			"/>
			<polygon class="st1" points="165.81,383.3 163.98,383.77 163.51,381.96 165.33,381.48 			"/>
			<polygon class="st1" points="167.76,390.57 165.93,391.02 165.46,389.21 167.29,388.72 			"/>
			<polygon class="st1" points="175.11,388.63 173.29,389.07 172.81,387.26 174.63,386.78 			"/>
			<polygon class="st1" points="173.1,381.35 171.27,381.83 170.81,380.02 172.63,379.54 			"/>
		</g>
		<g id="Particle_36_">
			<polygon class="st1" points="230.63,406.85 223.12,408.34 221.67,400.84 229.16,399.39 			"/>
			<polygon class="st1" points="221.7,400.97 219.22,401.45 218.74,398.98 221.22,398.5 			"/>
			<polygon class="st1" points="223.47,410.83 220.99,411.3 220.52,408.83 222.99,408.35 			"/>
			<polygon class="st1" points="233.49,408.89 231.02,409.38 230.54,406.9 233.02,406.42 			"/>
			<polygon class="st1" points="231.58,399.02 229.1,399.48 228.62,397 231.1,396.54 			"/>
		</g>
		<g id="Particle_35_">
			<polygon class="st1" points="164.22,283.28 167.52,278.2 172.6,281.52 169.29,286.6 			"/>
			<polygon class="st1" points="172.56,281.53 173.65,279.83 175.33,280.95 174.24,282.61 			"/>
			<polygon class="st1" points="165.83,277.14 166.94,275.48 168.62,276.57 167.51,278.23 			"/>
			<polygon class="st1" points="161.5,283.85 162.59,282.19 164.27,283.28 163.17,284.98 			"/>
			<polygon class="st1" points="168.17,288.23 169.25,286.57 170.94,287.66 169.85,289.32 			"/>
		</g>
		<g id="Particle_34_">
			<polygon class="st1" points="243.5,368.08 244.4,373.3 239.18,374.21 238.29,368.98 			"/>
			<polygon class="st1" points="239.18,374.24 239.47,375.97 237.75,376.24 237.45,374.55 			"/>
			<polygon class="st1" points="246.06,373.05 246.35,374.78 244.64,375.08 244.35,373.35 			"/>
			<polygon class="st1" points="244.86,366.16 245.17,367.89 243.43,368.18 243.14,366.47 			"/>
			<polygon class="st1" points="238.02,367.35 238.31,369.07 236.58,369.36 236.29,367.63 			"/>
		</g>
		<g id="Particle_33_">
			<polygon class="st1" points="130.99,311.06 129.63,306.91 133.75,305.58 135.11,309.69 			"/>
			<polygon class="st1" points="133.79,305.49 133.34,304.15 134.7,303.69 135.15,305.06 			"/>
			<polygon class="st1" points="128.31,307.27 127.85,305.93 129.22,305.47 129.67,306.84 			"/>
			<polygon class="st1" points="130.05,312.71 129.59,311.37 130.97,310.91 131.41,312.28 			"/>
			<polygon class="st1" points="135.51,310.93 135.06,309.55 136.43,309.13 136.87,310.5 			"/>
		</g>
		<g id="Particle_32_">
			<polygon class="st1" points="250.73,311.03 240.42,311.07 240.36,300.74 250.69,300.7 			"/>
			<polygon class="st1" points="240.44,300.77 237.02,300.82 237,297.38 240.42,297.37 			"/>
			<polygon class="st1" points="240.54,314.4 237.14,314.41 237.11,310.97 240.53,310.96 			"/>
			<polygon class="st1" points="254.18,314.31 250.78,314.36 250.75,310.93 254.17,310.91 			"/>
			<polygon class="st1" points="254.12,300.72 250.7,300.73 250.69,297.33 254.09,297.32 			"/>
		</g>
		<g id="Particle_31_">
			<polygon class="st1" points="52.6,278.24 55.97,283.34 50.86,286.74 47.5,281.63 			"/>
			<polygon class="st1" points="50.86,286.65 51.98,288.36 50.28,289.47 49.16,287.79 			"/>
			<polygon class="st1" points="57.63,282.19 58.74,283.86 57.05,285 55.93,283.3 			"/>
			<polygon class="st1" points="53.19,275.47 54.3,277.14 52.61,278.25 51.49,276.58 			"/>
			<polygon class="st1" points="46.43,279.88 47.54,281.55 45.85,282.69 44.74,280.98 			"/>
		</g>
		<g id="Particle_30_">
			<polygon class="st1" points="89.48,386.09 86.9,393.88 79.12,391.3 81.71,383.54 			"/>
			<polygon class="st1" points="79.11,391.23 78.26,393.8 75.68,392.93 76.54,390.37 			"/>
			<polygon class="st1" points="89.5,394.71 88.65,397.3 86.07,396.44 86.93,393.87 			"/>
			<polygon class="st1" points="92.83,384.4 91.97,386.96 89.39,386.1 90.25,383.54 			"/>
			<polygon class="st1" points="82.65,380.96 81.79,383.55 79.21,382.69 80.07,380.1 			"/>
		</g>
		<g id="Particle_83_">
			
				<rect x="96.56" y="274.05" transform="matrix(0.9727 -0.232 0.232 0.9727 -61.2296 30.2416)" class="st1" width="2.8" height="2.78"/>
			<polygon class="st1" points="96.35,274.45 93.63,275.07 93,272.36 95.72,271.71 			"/>
			<polygon class="st1" points="101.72,273.22 98.99,273.84 98.36,271.13 101.08,270.48 			"/>
			<polygon class="st1" points="102.95,278.56 100.23,279.21 99.6,276.47 102.32,275.85 			"/>
			<polygon class="st1" points="97.57,279.88 94.85,280.5 94.21,277.79 96.94,277.14 			"/>
		</g>
		<g id="Particle_82_">
			
				<rect x="246.33" y="223.46" transform="matrix(0.4686 -0.8834 0.8834 0.4686 -66.982 338.2565)" class="st1" width="2.68" height="2.68"/>
			
				<rect x="249.94" y="222.35" transform="matrix(0.4685 -0.8835 0.8835 0.4685 -64.0673 340.8919)" class="st1" width="2.68" height="2.68"/>
			<polygon class="st1" points="246.94,228.93 248.19,226.56 250.57,227.83 249.31,230.2 			"/>
			<polygon class="st1" points="242.28,226.43 243.56,224.06 245.91,225.32 244.65,227.69 			"/>
			<polygon class="st1" points="244.79,221.72 246.05,219.36 248.42,220.63 247.14,223 			"/>
		</g>
		<g id="Particle_81_">
			
				<rect x="220.78" y="211.63" transform="matrix(0.8538 -0.5206 0.5206 0.8538 -78.3021 146.6029)" class="st1" width="2.17" height="2.17"/>
			<polygon class="st1" points="222.21,211.27 221.09,209.41 222.94,208.3 224.07,210.15 			"/>
			<polygon class="st1" points="224.45,214.94 223.34,213.09 225.19,211.96 226.32,213.82 			"/>
			<polygon class="st1" points="220.8,217.14 219.67,215.29 221.52,214.16 222.65,216.02 			"/>
			<polygon class="st1" points="218.54,213.49 217.44,211.64 219.29,210.51 220.4,212.37 			"/>
		</g>
		<g id="Particle_80_">
			<polygon class="st1" points="190.47,348.35 191.51,349.09 190.76,350.13 189.73,349.39 			"/>
			<polygon class="st1" points="190.88,350.18 191.92,350.96 191.16,351.98 190.12,351.23 			"/>
			<polygon class="st1" points="188.73,348.7 189.77,349.44 189.02,350.49 187.98,349.74 			"/>
			<polygon class="st1" points="190.28,346.63 191.32,347.38 190.56,348.42 189.52,347.68 			"/>
			<polygon class="st1" points="192.34,348.13 193.38,348.89 192.63,349.93 191.59,349.15 			"/>
		</g>
		<g id="Particle_79_">
			
				<rect x="138.7" y="156.6" transform="matrix(0.6728 -0.7398 0.7398 0.6728 -70.7727 154.6166)" class="st1" width="1.44" height="1.44"/>
			
				<rect x="138.64" y="154.58" transform="matrix(0.6739 -0.7388 0.7388 0.6739 -69.2948 153.6009)" class="st1" width="1.44" height="1.44"/>
			
				<rect x="140.67" y="156.54" transform="matrix(0.6754 -0.7374 0.7374 0.6754 -70.0784 155.3093)" class="st1" width="1.44" height="1.44"/>
			
				<rect x="138.8" y="158.6" transform="matrix(0.6686 -0.7436 0.7436 0.6686 -72.2388 156.5476)" class="st1" width="1.44" height="1.45"/>
			<polygon class="st1" points="137.47,158.44 136.4,157.47 137.36,156.4 138.44,157.37 			"/>
		</g>
		<g id="Particle_78_">
			<polygon class="st1" points="143.13,207.53 142.33,206.72 143.15,205.92 143.94,206.73 			"/>
			<polygon class="st1" points="143.16,205.94 142.37,205.13 143.19,204.34 143.98,205.14 			"/>
			<polygon class="st1" points="144.82,207.6 144.03,206.78 144.84,205.99 145.63,206.81 			"/>
			<polygon class="st1" points="143.16,209.12 142.37,208.31 143.19,207.52 143.98,208.33 			"/>
			<polygon class="st1" points="141.57,207.51 140.78,206.68 141.59,205.89 142.38,206.71 			"/>
		</g>
		<g id="Particle_77_">
			
				<rect x="217.93" y="135.15" transform="matrix(0.9883 -0.1527 0.1527 0.9883 -18.2714 35.0818)" class="st1" width="2.68" height="2.69"/>
			<polygon class="st1" points="220.36,134.99 219.94,132.34 222.6,131.94 223.01,134.59 			"/>
			<polygon class="st1" points="221.05,140.26 220.64,137.6 223.3,137.21 223.7,139.87 			"/>
			<polygon class="st1" points="215.91,141.03 215.52,138.38 218.17,137.97 218.58,140.63 			"/>
			<polygon class="st1" points="215.09,135.75 214.68,133.1 217.35,132.7 217.74,135.36 			"/>
		</g>
		<g id="Particle_76_">
			<polygon class="st1" points="188.8,60.54 187.45,60.66 187.32,59.3 188.68,59.18 			"/>
			<polygon class="st1" points="187.31,59.32 185.96,59.45 185.82,58.09 187.19,57.96 			"/>
			<polygon class="st1" points="190.02,59.07 188.66,59.2 188.52,57.84 189.89,57.72 			"/>
			<polygon class="st1" points="190.27,61.76 188.91,61.88 188.78,60.52 190.14,60.39 			"/>
			<polygon class="st1" points="187.58,62.02 186.22,62.14 186.09,60.79 187.46,60.65 			"/>
		</g>
		<g id="Particle_75_">
			<polygon class="st1" points="167.47,100.36 167.58,98.96 168.98,99.08 168.87,100.47 			"/>
			<polygon class="st1" points="168.94,99.13 169.06,97.73 170.46,97.85 170.34,99.24 			"/>
			<polygon class="st1" points="168.71,101.89 168.81,100.49 170.21,100.61 170.1,102 			"/>
			<polygon class="st1" points="165.95,101.62 166.07,100.23 167.47,100.34 167.35,101.73 			"/>
			
				<rect x="166.23" y="97.53" transform="matrix(0.0801 -0.9968 0.9968 0.0801 55.6449 256.7563)" class="st1" width="1.4" height="1.4"/>
		</g>
		<g id="Particle_74_">
			<polygon class="st1" points="161.67,89.19 160.98,87.91 162.24,87.23 162.93,88.5 			"/>
			<polygon class="st1" points="162.24,87.27 161.55,86.01 162.82,85.32 163.51,86.59 			"/>
			<polygon class="st1" points="163.61,89.81 162.92,88.54 164.19,87.86 164.87,89.13 			"/>
			<polygon class="st1" points="161.05,91.19 160.36,89.92 161.63,89.24 162.31,90.51 			"/>
			<polygon class="st1" points="159.76,88.64 159.08,87.37 160.35,86.69 161.02,87.96 			"/>
		</g>
		<g id="Particle_73_">
			<polygon class="st1" points="200.91,150.99 200.24,150.28 200.96,149.63 201.62,150.34 			"/>
			<polygon class="st1" points="200.96,149.64 200.31,148.93 201.02,148.27 201.69,148.98 			"/>
			<polygon class="st1" points="202.25,151.09 201.61,150.38 202.32,149.73 202.97,150.44 			"/>
			<polygon class="st1" points="200.85,152.37 200.21,151.66 200.92,151.01 201.57,151.73 			"/>
			<polygon class="st1" points="199.53,150.95 198.88,150.24 199.6,149.59 200.24,150.3 			"/>
		</g>
		<g id="Particle_72_">
			<polygon class="st1" points="71.71,204.26 57.1,200.34 59.49,191.38 74.11,195.29 			"/>
			<polygon class="st1" points="68.03,206.41 59.3,204.09 63.22,189.4 71.96,191.73 			"/>
		</g>
		<g id="Particle_71_">
			<polygon class="st1" points="109.45,111.61 94.54,109.09 96.08,99.94 110.99,102.45 			"/>
			<polygon class="st1" points="106,114.04 97.09,112.54 99.61,97.55 108.53,99.05 			"/>
		</g>
		<g id="Particle_70_">
			<polygon class="st1" points="164.89,219.51 157.65,217.58 158.85,213.15 166.08,215.08 			"/>
			
				<rect x="158.12" y="214.09" transform="matrix(0.2578 -0.9662 0.9662 0.2578 -88.8579 316.9736)" class="st1" width="7.53" height="4.47"/>
		</g>
		<g id="Particle_69_">
			
				<rect x="93.23" y="229.13" transform="matrix(0.9601 -0.2798 0.2798 0.9601 -60.9454 36.5309)" class="st1" width="8.52" height="5.23"/>
			<polygon class="st1" points="101.15,235.17 96.26,236.59 93.86,228.38 98.76,226.96 			"/>
		</g>
		<g id="Particle_68_">
			<polygon class="st1" points="141.67,91.13 137.59,86.7 140.31,84.21 144.39,88.63 			"/>
			<polygon class="st1" points="139.98,91.06 137.55,88.41 142,84.32 144.43,86.97 			"/>
		</g>
		<g id="Particle_67_">
			
				<rect x="236.74" y="101.32" transform="matrix(0.9119 -0.4104 0.4104 0.9119 -21.4422 108.1176)" class="st1" width="8.76" height="5.37"/>
			<polygon class="st1" points="245.34,106.93 240.57,109.08 236.93,101.06 241.72,98.9 			"/>
		</g>
		<g id="Particle_66_">
			<polygon class="st1" points="225.7,76.46 216.68,78.8 215.25,73.27 224.25,70.93 			"/>
			<polygon class="st1" points="224.34,78.69 218.96,80.09 216.6,71.03 221.99,69.63 			"/>
		</g>
		<g id="Particle_65_">
			<polygon class="st1" points="246.48,51.04 239.87,55.84 236.91,51.78 243.52,46.98 			"/>
			<polygon class="st1" points="246.16,53.31 242.21,56.18 237.37,49.54 241.33,46.66 			"/>
		</g>
		<g id="Particle_64_">
			<polygon class="st1" points="86.71,155.93 81.04,155.46 81.52,149.8 87.19,150.27 			"/>
			<polygon class="st1" points="81.57,149.77 79.7,149.62 79.86,147.74 81.74,147.89 			"/>
			<polygon class="st1" points="80.95,157.33 79.07,157.18 79.23,155.3 81.1,155.46 			"/>
			<polygon class="st1" points="88.44,157.9 86.56,157.74 86.72,155.87 88.6,156.02 			"/>
			
				<rect x="87.29" y="148.53" transform="matrix(0.086 -0.9963 0.9963 0.086 -68.2756 224.5238)" class="st1" width="1.89" height="1.89"/>
		</g>
		<g id="Particle_63_">
			<polygon class="st1" points="123.32,190 115.76,188.89 116.86,181.34 124.41,182.45 			"/>
			
				<rect x="114.55" y="178.7" transform="matrix(0.1425 -0.9898 0.9898 0.1425 -78.8122 268.9524)" class="st1" width="2.53" height="2.53"/>
			
				<rect x="113.02" y="188.67" transform="matrix(0.1431 -0.9897 0.9897 0.1431 -90.0581 275.8573)" class="st1" width="2.52" height="2.53"/>
			<polygon class="st1" points="125.38,192.84 122.88,192.48 123.24,189.98 125.74,190.35 			"/>
			
				<rect x="124.51" y="180.17" transform="matrix(0.1445 -0.9895 0.9895 0.1445 -71.9233 279.6658)" class="st1" width="2.53" height="2.52"/>
		</g>
		<g id="Particle_62_">
			<polygon class="st1" points="192.37,201.53 195.13,196.14 200.52,198.91 197.75,204.29 			"/>
			<polygon class="st1" points="200.44,198.91 201.36,197.12 203.14,198.04 202.23,199.82 			"/>
			<polygon class="st1" points="193.33,195.28 194.24,193.48 196.02,194.4 195.11,196.19 			"/>
			<polygon class="st1" points="189.65,202.34 190.56,200.56 192.36,201.47 191.43,203.26 			"/>
			<polygon class="st1" points="196.78,206.1 197.69,204.3 199.49,205.23 198.56,207.01 			"/>
		</g>
		<g id="Particle_61_">
			<polygon class="st1" points="147.56,256.1 142.29,255.63 142.77,250.36 148.04,250.83 			"/>
			<polygon class="st1" points="142.83,250.31 141.08,250.14 141.25,248.41 142.98,248.56 			"/>
			<polygon class="st1" points="142.18,257.3 140.44,257.18 140.6,255.41 142.34,255.57 			"/>
			<polygon class="st1" points="149.1,257.96 147.35,257.8 147.51,256.07 149.26,256.22 			"/>
			<polygon class="st1" points="149.72,251.01 147.97,250.85 148.13,249.12 149.88,249.27 			"/>
		</g>
		<g id="Particle_60_">
			
				<rect x="204.79" y="247.11" transform="matrix(0.1239 -0.9923 0.9923 0.1239 -66.0439 423.7539)" class="st1" width="4.34" height="4.34"/>
			
				<rect x="203.75" y="245.36" transform="matrix(0.1249 -0.9922 0.9922 0.1249 -65.2224 418.2076)" class="st1" width="1.43" height="1.43"/>
			
				<rect x="203.04" y="251.06" transform="matrix(0.1242 -0.9923 0.9923 0.1242 -71.3787 422.6818)" class="st1" width="1.43" height="1.43"/>
			
				<rect x="208.75" y="251.76" transform="matrix(0.1248 -0.9922 0.9922 0.1248 -67.1759 428.7864)" class="st1" width="1.43" height="1.43"/>
			
				<rect x="209.36" y="246.1" transform="matrix(0.1242 -0.9923 0.9923 0.1242 -60.9167 424.6208)" class="st1" width="1.45" height="1.43"/>
		</g>
		<g id="Particle_59_">
			<polygon class="st1" points="182.27,175.15 173.02,179.7 168.46,170.43 177.72,165.9 			"/>
			<polygon class="st1" points="168.48,170.43 165.42,171.94 163.92,168.88 166.98,167.37 			"/>
			<polygon class="st1" points="174.57,182.68 171.51,184.19 169.99,181.12 173.06,179.62 			"/>
			
				<rect x="182.9" y="174.22" transform="matrix(0.8982 -0.4395 0.4395 0.8982 -58.5358 99.0423)" class="st1" width="3.42" height="3.42"/>
			<polygon class="st1" points="180.81,164.45 177.76,165.96 176.24,162.9 179.31,161.39 			"/>
		</g>
		<g id="Particle_58_">
			<polygon class="st1" points="286.8,57.28 280.73,57.86 280.13,51.77 286.23,51.19 			"/>
			<polygon class="st1" points="280.22,51.67 278.19,51.86 278,49.85 280.03,49.65 			"/>
			
				<rect x="278.81" y="57.82" transform="matrix(0.9954 -0.0959 0.0959 0.9954 -4.3526 27.1069)" class="st1" width="2.04" height="2.03"/>
			<polygon class="st1" points="289.03,58.98 287,59.18 286.81,57.16 288.84,56.97 			"/>
			<polygon class="st1" points="288.25,50.96 286.25,51.15 286.06,49.13 288.06,48.94 			"/>
		</g>
		<g id="Particle_57_">
			<polygon class="st1" points="171.01,131.82 164.17,127.32 168.68,120.48 175.51,124.99 			"/>
			
				<rect x="166.98" y="117.33" transform="matrix(0.5505 -0.8348 0.8348 0.5505 -23.414 193.8805)" class="st1" width="2.71" height="2.71"/>
			
				<rect x="160.99" y="126.37" transform="matrix(0.5489 -0.8359 0.8359 0.5489 -33.5318 193.3241)" class="st1" width="2.72" height="2.72"/>
			<polygon class="st1" points="171.79,135.53 169.52,134.04 171.01,131.77 173.28,133.27 			"/>
			<polygon class="st1" points="177.75,126.48 175.48,124.99 176.98,122.72 179.24,124.21 			"/>
		</g>
		<g id="Particle_110_">
			<polygon class="st1" points="263.22,117.89 261.92,115.42 264.39,114.1 265.69,116.56 			"/>
			<polygon class="st1" points="264.32,114.17 263.03,111.7 265.49,110.38 266.79,112.85 			"/>
			<polygon class="st1" points="266.96,119.02 265.66,116.56 268.13,115.24 269.43,117.7 			"/>
			<polygon class="st1" points="262.09,121.6 260.75,119.13 263.22,117.81 264.56,120.28 			"/>
			<polygon class="st1" points="259.46,116.72 258.12,114.26 260.59,112.93 261.93,115.4 			"/>
		</g>
		<g id="Particle_109_">
			<polygon class="st1" points="343.82,215.74 345.71,213.84 347.63,215.7 345.75,217.63 			"/>
			<polygon class="st1" points="347.55,215.71 349.44,213.78 351.36,215.65 349.47,217.58 			"/>
			<polygon class="st1" points="343.94,219.52 345.79,217.6 347.71,219.48 345.86,221.41 			"/>
			<polygon class="st1" points="340.08,215.81 341.96,213.88 343.86,215.77 342.01,217.68 			"/>
			<polygon class="st1" points="343.85,211.95 345.74,210.04 347.66,211.92 345.77,213.84 			"/>
		</g>
		<g id="Particle_108_">
			<rect x="291.95" y="220.99" class="st1" width="2.19" height="2.17"/>
			<rect x="294.11" y="218.86" class="st1" width="2.16" height="2.15"/>
			<rect x="294.06" y="223.16" class="st1" width="2.19" height="2.16"/>
			<rect x="289.81" y="223.13" class="st1" width="2.15" height="2.17"/>
			<rect x="289.8" y="218.85" class="st1" width="2.15" height="2.16"/>
		</g>
		<g id="Particle_107_">
			<polygon class="st1" points="257.6,180.46 258.28,179.37 259.37,180.03 258.69,181.13 			"/>
			<polygon class="st1" points="259.35,180.05 260.03,178.95 261.11,179.62 260.44,180.71 			"/>
			<polygon class="st1" points="257.99,182.32 258.66,181.23 259.75,181.9 259.11,182.99 			"/>
			<polygon class="st1" points="255.89,180.98 256.55,179.89 257.64,180.55 257,181.65 			"/>
			<polygon class="st1" points="257.22,178.83 257.89,177.72 258.98,178.4 258.31,179.49 			"/>
		</g>
		<g id="Particle_106_">
			<polygon class="st1" points="338.57,124.97 339.24,123.69 340.51,124.35 339.88,125.63 			"/>
			<polygon class="st1" points="340.51,124.35 341.18,123.08 342.45,123.73 341.82,125.01 			"/>
			<polygon class="st1" points="339.19,126.92 339.85,125.63 341.13,126.3 340.46,127.58 			"/>
			<polygon class="st1" points="336.68,125.61 337.33,124.32 338.64,124.98 337.97,126.26 			"/>
			<polygon class="st1" points="337.94,123.07 338.57,121.78 339.88,122.45 339.21,123.73 			"/>
		</g>
		<g id="Particle_105_">
			<polygon class="st1" points="303.35,138.74 303.91,137.77 304.91,138.36 304.34,139.33 			"/>
			<polygon class="st1" points="304.89,138.36 305.46,137.38 306.45,137.95 305.84,138.93 			"/>
			<polygon class="st1" points="303.7,140.31 304.27,139.33 305.26,139.91 304.69,140.89 			"/>
			<polygon class="st1" points="301.79,139.15 302.4,138.18 303.36,138.75 302.79,139.73 			"/>
			<polygon class="st1" points="302.95,137.21 303.52,136.23 304.51,136.81 303.91,137.79 			"/>
		</g>
		<g id="Particle_104_">
			<polygon class="st1" points="419.54,240.67 421.71,239.06 423.3,241.22 421.14,242.82 			"/>
			<polygon class="st1" points="423.25,241.21 425.42,239.62 427.01,241.77 424.85,243.36 			"/>
			<polygon class="st1" points="418.91,244.41 421.06,242.82 422.66,244.98 420.51,246.58 			"/>
			
				<rect x="416.4" y="239.06" transform="matrix(0.805 -0.5933 0.5933 0.805 -61.1651 294.7212)" class="st1" width="2.68" height="2.69"/>
			<polygon class="st1" points="420.09,236.94 422.25,235.35 423.85,237.51 421.7,239.11 			"/>
		</g>
		<g id="Particle_103_">
			<polygon class="st1" points="453.89,207.99 453.77,206.64 455.12,206.5 455.24,207.87 			"/>
			<polygon class="st1" points="455.08,206.57 454.96,205.22 456.31,205.08 456.44,206.45 			"/>
			<polygon class="st1" points="455.28,209.36 455.15,207.99 456.51,207.87 456.62,209.22 			"/>
			<polygon class="st1" points="452.67,209.49 452.53,208.13 453.9,207.99 454.02,209.36 			"/>
			<polygon class="st1" points="452.39,206.75 452.26,205.4 453.62,205.26 453.76,206.63 			"/>
		</g>
		<g id="Particle_102_">
			<polygon class="st1" points="429.12,178.4 430.4,177.84 430.95,179.12 429.67,179.68 			"/>
			<polygon class="st1" points="430.89,179.18 432.17,178.62 432.72,179.91 431.44,180.46 			"/>
			<polygon class="st1" points="428.4,180.23 429.67,179.67 430.22,180.96 428.95,181.51 			"/>
			<polygon class="st1" points="427.29,177.62 428.58,177.07 429.13,178.34 427.84,178.91 			"/>
			<polygon class="st1" points="429.86,176.58 431.14,176.03 431.7,177.32 430.41,177.87 			"/>
		</g>
		<g id="Particle_101_">
			<polygon class="st1" points="436.21,168.08 437.03,166.88 438.22,167.68 437.42,168.89 			"/>
			<polygon class="st1" points="438.17,167.7 438.98,166.51 440.19,167.31 439.37,168.51 			"/>
			<polygon class="st1" points="436.57,170.07 437.39,168.88 438.59,169.68 437.78,170.87 			"/>
			<polygon class="st1" points="434.22,168.53 435.01,167.33 436.21,168.12 435.43,169.33 			"/>
			<polygon class="st1" points="435.83,166.08 436.63,164.87 437.81,165.67 437.03,166.88 			"/>
		</g>
		<g id="Particle_100_">
			<polygon class="st1" points="372.95,179.94 373.47,179.13 374.27,179.65 373.74,180.47 			"/>
			
				<rect x="374.43" y="179.05" transform="matrix(0.5411 -0.841 0.841 0.5411 21.0719 397.6808)" class="st1" width="0.97" height="0.97"/>
			<polygon class="st1" points="373.21,181.29 373.73,180.47 374.56,180.99 374.04,181.81 			"/>
			
				<rect x="371.77" y="179.56" transform="matrix(0.539 -0.8423 0.8423 0.539 19.9581 396.5522)" class="st1" width="0.97" height="0.97"/>
			
				<rect x="372.83" y="177.98" transform="matrix(0.5416 -0.8407 0.8407 0.5416 21.1142 395.6423)" class="st1" width="0.97" height="0.97"/>
		</g>
		<g id="Particle_99_">
			<rect x="311.22" y="63.86" class="st1" width="9.29" height="15.12"/>
			<rect x="308.19" y="66.89" class="st1" width="15.19" height="9.05"/>
		</g>
		<g id="Particle_98_">
			
				<rect x="367.05" y="144.35" transform="matrix(0.9955 -0.0945 0.0945 0.9955 -12.692 35.8064)" class="st1" width="9.3" height="15.12"/>
			<polygon class="st1" points="364.41,157.25 363.55,148.25 378.69,146.82 379.55,155.81 			"/>
		</g>
		<g id="Particle_97_">
			<rect x="318.75" y="161.52" class="st1" width="4.6" height="7.49"/>
			<rect x="317.23" y="163.02" class="st1" width="7.54" height="4.48"/>
		</g>
		<g id="Particle_96_">
			<polygon class="st1" points="310.33,109.92 305.92,102.65 310.38,99.93 314.79,107.22 			"/>
			<polygon class="st1" points="308.01,109.35 305.36,104.99 312.67,100.56 315.31,104.91 			"/>
		</g>
		<g id="Particle_95_">
			<polygon class="st1" points="404.13,159.07 408.55,155 411.04,157.72 406.62,161.79 			"/>
			<polygon class="st1" points="404.21,157.33 406.87,154.9 410.98,159.35 408.33,161.79 			"/>
		</g>
		<g id="Particle_94_">
			<polygon class="st1" points="425.25,127.53 421.64,119.54 426.54,117.34 430.16,125.32 			"/>
			<polygon class="st1" points="423,126.61 420.86,121.84 428.89,118.23 431.04,122.99 			"/>
		</g>
		<g id="Particle_93_">
			<polygon class="st1" points="434.74,215.7 428.44,208.83 432.65,204.97 438.95,211.84 			"/>
			<polygon class="st1" points="432.1,215.72 428.33,211.62 435.25,205.3 439,209.4 			"/>
		</g>
		<g id="Particle_92_">
			<polygon class="st1" points="459.72,230.5 454.91,223.89 458.97,220.93 463.78,227.56 			"/>
			<polygon class="st1" points="457.33,230.08 454.47,226.13 461.12,221.31 463.99,225.25 			"/>
		</g>
		<g id="Particle_91_">
			<polygon class="st1" points="354.81,82.28 353.81,76.68 359.42,75.67 360.39,81.27 			"/>
			<polygon class="st1" points="359.45,75.72 359.11,73.86 360.98,73.53 361.31,75.39 			"/>
			<polygon class="st1" points="352,77.07 351.67,75.22 353.51,74.89 353.84,76.74 			"/>
			
				<rect x="353.16" y="82.46" transform="matrix(0.984 -0.1784 0.1784 0.984 -9.1988 64.5078)" class="st1" width="1.9" height="1.89"/>
			<polygon class="st1" points="360.76,83.13 360.44,81.28 362.29,80.94 362.63,82.8 			"/>
		</g>
		<g id="Particle_90_">
			
				<rect x="282.83" y="131.96" transform="matrix(0.9932 -0.1163 0.1163 0.9932 -13.845 34.2575)" class="st1" width="7.62" height="7.62"/>
			<polygon class="st1" points="289.93,131.56 289.62,129.05 292.12,128.75 292.43,131.26 			"/>
			<polygon class="st1" points="279.94,132.78 279.64,130.27 282.17,129.97 282.44,132.48 			"/>
			<polygon class="st1" points="281.1,142.77 280.8,140.25 283.3,139.96 283.6,142.47 			"/>
			<polygon class="st1" points="291.08,141.58 290.81,139.08 293.31,138.78 293.61,141.29 			"/>
		</g>
		<g id="Particle_89_">
			<polygon class="st1" points="293.62,187.57 297.81,183.17 302.19,187.36 298.02,191.75 			"/>
			<polygon class="st1" points="302.17,187.36 303.55,185.9 305.04,187.28 303.65,188.73 			"/>
			<polygon class="st1" points="296.34,181.78 297.72,180.33 299.17,181.71 297.82,183.16 			"/>
			<polygon class="st1" points="290.82,187.6 292.21,186.15 293.66,187.54 292.28,188.98 			"/>
			<polygon class="st1" points="296.65,193.17 298.04,191.7 299.48,193.09 298.1,194.54 			"/>
		</g>
		<g id="Particle_88_">
			<polygon class="st1" points="257.58,155.54 256.69,150.33 261.92,149.43 262.81,154.65 			"/>
			<polygon class="st1" points="261.84,149.47 261.57,147.75 263.27,147.45 263.58,149.19 			"/>
			<polygon class="st1" points="254.98,150.63 254.69,148.91 256.42,148.61 256.71,150.34 			"/>
			<polygon class="st1" points="256.15,157.5 255.84,155.78 257.57,155.48 257.88,157.21 			"/>
			<polygon class="st1" points="263.04,156.43 262.73,154.72 264.47,154.41 264.78,156.14 			"/>
		</g>
		<g id="Particle_87_">
			<polygon class="st1" points="277.64,213.63 277.07,209.34 281.35,208.75 281.92,213.05 			"/>
			<polygon class="st1" points="281.27,208.79 281.04,207.37 282.51,207.18 282.7,208.6 			"/>
			<polygon class="st1" points="275.59,209.58 275.4,208.16 276.83,207.97 277.05,209.39 			"/>
			
				<rect x="276.26" y="213.74" transform="matrix(0.9911 -0.133 0.133 0.9911 -26.0619 38.7441)" class="st1" width="1.43" height="1.43"/>
			<polygon class="st1" points="282.08,214.53 281.89,213.1 283.31,212.91 283.5,214.33 			"/>
		</g>
		<g id="Particle_86_">
			<polygon class="st1" points="387.76,211.6 383.2,202.35 392.46,197.8 396.99,207.06 			"/>
			<polygon class="st1" points="392.44,197.86 390.94,194.79 393.99,193.29 395.51,196.36 			"/>
			<polygon class="st1" points="380.2,203.79 378.68,200.73 381.77,199.23 383.25,202.28 			"/>
			<polygon class="st1" points="386.21,216.08 384.72,213.01 387.78,211.5 389.29,214.57 			"/>
			<polygon class="st1" points="398.44,210.06 396.93,206.99 399.98,205.49 401.5,208.56 			"/>
		</g>
		<g id="Particle_85_">
			
				<rect x="460.57" y="250.34" transform="matrix(0.8353 -0.5498 0.5498 0.8353 -62.9538 296.6358)" class="st1" width="6.11" height="6.11"/>
			<polygon class="st1" points="464.37,249.17 463.26,247.48 464.96,246.36 466.08,248.07 			"/>
			<polygon class="st1" points="457.61,253.62 456.49,251.93 458.18,250.81 459.29,252.5 			"/>
			<polygon class="st1" points="462.15,260.38 461.02,258.67 462.73,257.57 463.83,259.24 			"/>
			<polygon class="st1" points="468.77,255.92 467.66,254.23 469.36,253.11 470.48,254.79 			"/>
		</g>
		<g id="Particle_84_">
			<polygon class="st1" points="379.7,107.54 382.29,99.77 390.06,102.35 387.46,110.13 			"/>
			<polygon class="st1" points="390.06,102.38 390.92,99.8 393.48,100.66 392.64,103.23 			"/>
			<polygon class="st1" points="379.72,98.88 380.58,96.31 383.17,97.16 382.31,99.74 			"/>
			<polygon class="st1" points="376.29,109.25 377.14,106.68 379.71,107.53 378.85,110.11 			"/>
			<polygon class="st1" points="386.53,112.68 387.39,110.09 389.94,110.95 389.08,113.53 			"/>
		</g>
	</g>
	<g id="Fishing_Rod_1_">
		<rect x="191.87" y="246.53" class="st2" width="16.33" height="16.33"/>
		<rect x="206.01" y="233.34" class="st2" width="15.62" height="15.02"/>
		<rect x="220.18" y="219.25" class="st2" width="16.15" height="18.09"/>
		<rect x="233.45" y="205.08" class="st2" width="15.18" height="16.09"/>
		<rect x="247.49" y="191.06" class="st2" width="15.17" height="14.76"/>
		<rect x="261.65" y="177.82" class="st2" width="14.96" height="15.43"/>
		<rect x="275.84" y="163.66" class="st2" width="14.87" height="16.02"/>
		<rect x="289.93" y="149.64" class="st2" width="14.96" height="15.49"/>
		<rect x="304.07" y="135.48" class="st2" width="28.19" height="15.15"/>
		<rect x="317.2" y="175.29" class="st2" width="15.19" height="85.41"/>
		<rect x="304" y="260.64" class="st2" width="13.11" height="28.33"/>
		<rect x="289.98" y="288.97" class="st2" width="14.02" height="14.26"/>
		<rect x="261.57" y="316.53" class="st2" width="14.14" height="15.03"/>
		<rect x="275.71" y="316.52" class="st2" width="14.14" height="15.02"/>
		<rect x="261.57" y="301.57" class="st2" width="14.14" height="15.03"/>
		<rect x="289.85" y="301.57" class="st2" width="14.15" height="14.94"/>
		<rect x="150.42" y="315.95" class="st3" width="27.27" height="15.6"/>
		<rect x="177.25" y="302.34" class="st3" width="14.68" height="14.02"/>
		<rect x="190.61" y="288.61" class="st3" width="15.92" height="14.68"/>
		<rect x="205.97" y="301.77" class="st3" width="27.41" height="14.64"/>
		<rect x="230.56" y="274.83" class="st3" width="16.92" height="28.38"/>
		<rect x="219.52" y="259.49" class="st3" width="14.84" height="16.29"/>
		<rect x="231.84" y="245.9" class="st3" width="15.64" height="14.89"/>
		<rect x="245.78" y="232.28" class="st3" width="15.85" height="14.37"/>
		<rect x="259.37" y="218.57" class="st3" width="16.38" height="14.9"/>
		<rect x="273.96" y="203.9" class="st3" width="15.85" height="15.32"/>
		<rect x="287.47" y="189.53" class="st3" width="16.45" height="15.73"/>
		<rect x="299.66" y="177.53" class="st3" width="17.57" height="13.39"/>
		<rect x="315.43" y="149.46" class="st3" width="17.04" height="28.6"/>
		<rect x="178.06" y="275.22" class="st1" width="28.31" height="13.74"/>
		<rect x="164.88" y="288.86" class="st1" width="26.74" height="13.74"/>
		<rect x="150.6" y="302.68" class="st1" width="27.05" height="13.74"/>
		<rect x="191.9" y="260.62" class="st1" width="28.31" height="17.59"/>
		<rect x="164.75" y="296.3" class="st1" width="12.84" height="11.76"/>
		<rect x="178.07" y="286.86" class="st1" width="13.58" height="3.86"/>
		<rect x="206.04" y="246.6" class="st1" width="28.31" height="13.76"/>
		<rect x="206.04" y="258.3" class="st1" width="14.15" height="5.09"/>
		<rect x="220.21" y="233.45" class="st1" width="27.09" height="13.16"/>
		<rect x="220.2" y="244.67" class="st1" width="14.19" height="3.61"/>
		<rect x="234.35" y="219.26" class="st1" width="27.32" height="14.15"/>
		<rect x="234.45" y="231.57" class="st1" width="12.82" height="3.26"/>
		<rect x="247.49" y="205.14" class="st1" width="28.2" height="14.11"/>
		<rect x="247.45" y="217.93" class="st1" width="14.22" height="2.86"/>
		<rect x="261.63" y="191.01" class="st1" width="28.44" height="14.25"/>
		<rect x="261.63" y="203.2" class="st1" width="14.06" height="3.43"/>
		<rect x="275.75" y="177.92" class="st1" width="28.16" height="13.16"/>
		<rect x="275.75" y="188.62" class="st1" width="14.36" height="4.85"/>
		<rect x="289.98" y="163.76" class="st1" width="27.39" height="14.1"/>
		<rect x="289.96" y="176.36" class="st1" width="13.1" height="2.47"/>
		<rect x="304.01" y="149.59" class="st1" width="13.36" height="18.8"/>
		<rect x="206.22" y="274.87" class="st1" width="27.19" height="28.4"/>
	</g>
</g>
</svg>
