<?xml version="1.0" encoding="utf-8"?>
<!-- Generator: Adobe Illustrator 19.0.0, SVG Export Plug-In . SVG Version: 6.00 Build 0)  -->
<svg version="1.1" id="Layer_1" xmlns="http://www.w3.org/2000/svg" xmlns:xlink="http://www.w3.org/1999/xlink" x="0px" y="0px"
	 viewBox="0 0 1000 1000" style="enable-background:new 0 0 1000 1000;" xml:space="preserve">
<style type="text/css">
	.st0{fill:#FFFFFF;}
	.st1{fill:#66B6D9;}
	.st2{fill:#C4E2F0;}
	.st3{fill:#4BA0C7;}
	.st4{fill:#227599;}
</style>
<rect id="XMLID_1_" class="st0" width="1000" height="1000"/>
<g id="XMLID_3_">
	<polygon id="XMLID_15_" class="st1" points="914.9,602.4 897.8,586.6 738.8,544.6 707.6,476 760.2,387 774.8,381.9 782,386.1 
		784.9,383.5 844,418.3 891.1,340.3 817.8,297.3 821.2,291.8 727.2,236.6 753.5,192.5 737.7,183.4 725.2,189.5 701.9,229.4 
		675.9,214.2 671.2,217 541.7,439 531.3,443.9 468.3,483.1 346.2,538.5 316.4,523.8 306.2,532.8 218,711.2 233.8,719 226.8,733 
		219.4,747.8 234.4,755.5 241.9,740.7 257.4,748.5 264.6,734.2 279.9,741.8 338,626.8 371.8,694.4 297.7,811.5 287.7,833.1 
		348.3,869.6 371.5,833.3 393.2,841.2 442.9,721.6 452.9,705.9 664.3,610 704,620.5 784.9,726.5 838,687.5 838.2,684.2 811.6,648.9 
		893.9,670.6 	"/>
	<g id="XMLID_9_">
		<path id="XMLID_216_" class="st2" d="M242.2,801.4l-88.4,76.7c-4.9,4.2-5.4,11.6-1.2,16.4c2.3,2.7,5.5,4,8.8,4
			c2.7,0,5.4-0.9,7.6-2.8l88.4-76.7c4.9-4.2,5.4-11.6,1.2-16.4C254.4,797.7,247.1,797.2,242.2,801.4z"/>
		<path id="XMLID_217_" class="st2" d="M537.4,729.5L449,806.3c-4.9,4.2-5.4,11.6-1.2,16.4c2.3,2.7,5.5,4,8.8,4
			c2.7,0,5.4-0.9,7.6-2.8l88.4-76.7c4.9-4.2,5.4-11.6,1.2-16.4C549.6,725.9,542.3,725.3,537.4,729.5z"/>
		<path id="XMLID_218_" class="st2" d="M692.5,680.6L571.6,785.5c-4.9,4.2-5.4,11.6-1.2,16.4c2.3,2.7,5.5,4,8.8,4
			c2.7,0,5.4-0.9,7.6-2.8l120.9-104.9c4.9-4.2,5.4-11.6,1.2-16.4C704.7,676.9,697.3,676.4,692.5,680.6z"/>
		<path id="XMLID_219_" class="st2" d="M94.7,754.3c2.7,0,5.4-0.9,7.6-2.8l94.8-82.3c4.9-4.2,5.4-11.6,1.2-16.4
			c-4.2-4.9-11.6-5.4-16.4-1.2l-94.8,82.3c-4.9,4.2-5.4,11.6-1.2,16.4C88.2,752.9,91.4,754.3,94.7,754.3z"/>
		<path id="XMLID_220_" class="st2" d="M152.3,630.6c2.7,0,5.4-0.9,7.6-2.8l98-85c4.9-4.2,5.4-11.6,1.2-16.4
			c-4.2-4.9-11.6-5.4-16.4-1.2l-98,85c-4.9,4.2-5.4,11.6-1.2,16.4C145.8,629.2,149,630.6,152.3,630.6z"/>
		<path id="XMLID_221_" class="st2" d="M190.2,755.7c-4.2-4.9-11.6-5.4-16.4-1.2L73.6,841.4c-4.9,4.2-5.4,11.6-1.2,16.4
			c2.3,2.7,5.5,4,8.8,4c2.7,0,5.4-0.9,7.6-2.8l100.2-86.9C193.9,767.9,194.4,760.5,190.2,755.7z"/>
	</g>
	<polygon id="XMLID_13_" class="st3" points="486.1,465.2 435.7,445.9 451.5,490.9 	"/>
	<g id="XMLID_11_">
		<g id="XMLID_10_">
			<g id="XMLID_26_">
				<polygon id="XMLID_28_" class="st4" points="760.6,369 636.4,359.8 635,378.2 760.2,387 763.1,387.2 774.7,388.1 775.3,382.2 
					775.7,378 776.4,370.2 773.6,370 				"/>
				<polygon id="XMLID_46_" class="st4" points="600.4,338.4 583.1,337.1 581.6,355.8 589.9,356.4 636.4,359.8 637.8,341.1 				"/>
			</g>
			<polygon id="XMLID_30_" class="st4" points="554.4,316.3 549.9,325.1 551.2,334.8 583.1,337.1 584.6,318.6 			"/>
			<polygon id="XMLID_12_" class="st4" points="830.8,345.3 848.9,315.6 850.9,312.2 832.4,301.3 830.4,304.7 812.6,334.5 
				799.8,326.9 717.8,278.2 735.3,249 738.7,243.3 727.2,236.6 721.6,233.3 718.3,239 671.3,319.5 676.1,322.4 682.2,326 
				687.4,329.2 689,326.5 707.8,295 779.4,337.9 789.5,343.9 802.5,351.7 801.6,353.1 784.6,351.9 778.2,351.4 776.9,364.5 
				776.4,370.2 790.8,371.3 783.9,382.8 782,386.1 786.7,388.9 799.8,396.6 801.8,393.4 803.8,390.1 811.4,377.4 826.6,386.4 
				841.1,394.9 860.5,363 			"/>
		</g>
		<path id="XMLID_8_" class="st4" d="M579.6,575.2l-9.6,4.4l-32.5-44.9l-11.2-23.2l36.2-16.7l-16.9-36.8l-6.5-14.6l2.7-4.5
			l-55.6,26.2L457,478.9L379.2,531l19.4,39.5l21.1-9.8L536,625.6l13.3,27.5l56-25.4L579.6,575.2z M559.5,627.4l-8.5-17.5l18.8-8.5
			l8.5,17.6L559.5,627.4z"/>
	</g>
</g>
<g id="XMLID_4_">
	<polygon id="XMLID_14_" class="st3" points="457,478.9 435.7,445.9 427.5,366.1 542.4,386.3 555.6,309 419.2,284.8 417.9,272.4 
		450.9,270.8 443.5,134.7 430.4,117.6 281.6,124.5 292.1,274.5 325.2,277.1 315,346.3 337.2,350.2 355.5,513.6 507.2,624.8 
		543,625.7 579.3,563.7 	"/>
</g>
</svg>
