<?xml version="1.0" encoding="UTF-8" standalone="no"?>
<!-- Created with Inkscape (http://www.inkscape.org/) -->

<svg
   width="640mm"
   height="640mm"
   viewBox="0 0 640 640"
   version="1.1"
   id="svg1"
   xml:space="preserve"
   sodipodi:docname="reelingpack.svg"
   inkscape:version="1.4 (86a8ad7, 2024-10-11)"
   inkscape:export-filename="reeling2.png"
   inkscape:export-xdpi="96"
   inkscape:export-ydpi="96"
   xmlns:inkscape="http://www.inkscape.org/namespaces/inkscape"
   xmlns:sodipodi="http://sodipodi.sourceforge.net/DTD/sodipodi-0.dtd"
   xmlns="http://www.w3.org/2000/svg"
   xmlns:svg="http://www.w3.org/2000/svg"><sodipodi:namedview
     id="namedview1"
     pagecolor="#505050"
     bordercolor="#eeeeee"
     borderopacity="1"
     inkscape:showpageshadow="0"
     inkscape:pageopacity="0"
     inkscape:pagecheckerboard="0"
     inkscape:deskcolor="#505050"
     inkscape:document-units="mm"
     showguides="true"
     showgrid="false"
     inkscape:zoom="0.25"
     inkscape:cx="1116"
     inkscape:cy="1238"
     inkscape:window-width="1920"
     inkscape:window-height="1057"
     inkscape:window-x="1912"
     inkscape:window-y="-8"
     inkscape:window-maximized="1"
     inkscape:current-layer="svg1"><inkscape:grid
       id="grid11"
       units="mm"
       originx="0"
       originy="0"
       spacingx="0.99999997"
       spacingy="0.99999997"
       empcolor="#0099e5"
       empopacity="0.30196078"
       color="#0099e5"
       opacity="0.14901961"
       empspacing="5"
       enabled="true"
       visible="false" /></sodipodi:namedview><defs
     id="defs1" /><rect
     style="display:inline;fill:#ffffff;fill-opacity:1;stroke:#64b6d9;stroke-width:0;stroke-linejoin:round;stroke-dasharray:none;stroke-opacity:0"
     id="rect13"
     width="640"
     height="640"
     x="0"
     y="0"
     inkscape:label="white" /><g
     id="g18-7-0"
     transform="matrix(2.1040541,0.92613195,-0.92613195,2.1040541,355.90419,-705.75047)"
     inkscape:label="Smooth Arc"
     style="display:inline"><g
       id="g16-4-0-3"
       inkscape:label="action"
       transform="matrix(1.1202463,0,0,1.1202463,42.898373,-16.309137)"
       style="display:inline"><g
         id="g14-4-0-6"
         inkscape:label="painting"
         style="display:inline"
         transform="matrix(0.50339104,-0.54390181,0.54390181,0.50339104,-243.58132,265.03508)"><rect
           style="display:inline;fill:#328bb0;fill-opacity:1;stroke:#64b6d9;stroke-width:0;stroke-linejoin:round;stroke-dasharray:none;stroke-opacity:0"
           id="rect14-4-5-7"
           width="130"
           height="110"
           x="40"
           y="440"
           inkscape:label="base" /><rect
           style="display:inline;fill:#207598;fill-opacity:1;stroke:#64b6d9;stroke-width:0;stroke-linejoin:round;stroke-dasharray:none;stroke-opacity:0"
           id="rect15-9-4-3-1"
           width="130"
           height="10"
           x="40"
           y="540"
           inkscape:label="shadow" /><rect
           style="display:inline;fill:#64b6d9;fill-opacity:1;stroke:#64b6d9;stroke-width:0;stroke-linejoin:round;stroke-dasharray:none;stroke-opacity:0"
           id="rect15-9-2-2-1-5"
           width="110"
           height="80"
           x="50"
           y="450"
           inkscape:label="inset" /><path
           id="rect17-9-0-5"
           style="display:inline;fill:#85cceb;fill-opacity:1;stroke:#64b6d9;stroke-width:0;stroke-linejoin:round;stroke-dasharray:none;stroke-opacity:0"
           d="m 69.999862,459.99983 v 10.00042 h -9.999907 v 39.99963 h 9.999907 v 9.9999 h 70.000378 v -9.9999 h 9.99991 v -39.99963 h -9.99991 v -10.00042 z"
           inkscape:label="highlight" /><path
           id="rect15-3-6-4"
           style="display:inline;fill:#207598;fill-opacity:1;stroke:#64b6d9;stroke-width:0;stroke-linejoin:round;stroke-dasharray:none;stroke-opacity:0"
           d="m 100.0001,409.99978 v 10.00042 h -9.999909 v 9.99991 H 79.999768 v 9.99991 H 100.0001 v -9.99991 H 110 v 9.99991 h 9.99991 9.99991 v -9.99991 h -9.99991 V 420.0002 H 110 v -10.00042 z"
           inkscape:label="hanger" /></g><g
         id="layer3-5-0-7-0"
         inkscape:label="rod"
         style="display:inline"
         transform="translate(-347.89844,-26.438761)"><path
           class="st1"
           d="m 422.44503,469.55569 c -48.23152,-86.59371 39.80486,-161.75256 49.88414,-171.15954 l -14.45343,-1.93987 c -20.58447,20.92196 -84.8457,92.10126 -37.36162,173.83268 z"
           id="path43"
           style="display:inline;fill:#85cceb;fill-opacity:1;stroke-width:0.812914"
           inkscape:label="line"
           transform="translate(-5.7459085e-6)" /><path
           id="rect12-3-9-7-5-2"
           style="display:inline;fill:#85cceb;fill-opacity:1;stroke:#64b6d9;stroke-width:0;stroke-linejoin:round;stroke-dasharray:none;stroke-opacity:0"
           d="m 320.00011,90.000191 v 9.999909 h 19.99981 v -9.999909 z m 19.99981,9.999909 V 110 h 9.99991 v -9.9999 z M 349.99983,110 v 9.99991 h 10.00042 V 110 Z m 10.00042,9.99991 v 9.99991 h 9.9999 v -9.99991 z m 9.9999,9.99991 v 10.00042 h 9.99991 v -10.00042 z m 9.99991,10.00042 v 9.99991 h 9.99991 v -9.99991 z m 9.99991,9.99991 v 9.9999 h 9.9999 v -9.9999 z m 9.9999,9.9999 v 9.99991 h 9.99991 v -9.99991 z m 9.99991,9.99991 v 9.99991 h 10.00042 v -9.99991 z"
           transform="translate(137.89844,206.43857)"
           inkscape:label="upper_line" /><path
           id="rect11-1-2-8-0"
           style="display:inline;fill:#4aa0c7;fill-opacity:1;stroke:#64b6d9;stroke-width:0;stroke-linejoin:round;stroke-dasharray:none;stroke-opacity:0"
           d="m 320.00011,100.0001 v 19.99981 h 9.9999 v 9.99991 h 9.99991 v 10.00042 h 9.99991 v 9.99991 h 10.00042 v 9.9999 h 9.9999 v 9.99991 h 9.99991 v 9.99991 h 9.99991 v 9.9999 20.00033 h 21.00027 8.99996 v 9.99991 h 9.99991 v 9.9999 h 19.99981 V 210.0001 h -9.9999 v -9.9999 h -9.99991 v -10.00043 h -9.99991 v -9.9999 h -10.00042 v -9.99991 h -9.99991 v -9.99991 h -9.9999 v -9.9999 h -9.99991 v -9.99991 h -9.99991 v -10.00042 h -9.9999 v -9.99991 H 349.99983 V 110 h -9.99991 v -9.9999 z"
           transform="translate(137.89844,206.43857)"
           inkscape:label="rod_base" /><path
           id="rect12-2-0-2-4"
           style="display:inline;fill:#207598;fill-opacity:1;stroke:#64b6d9;stroke-width:0;stroke-linejoin:round;stroke-dasharray:none;stroke-opacity:0"
           d="m 457.89855,306.43867 v 19.99981 h 9.9999 v -19.99981 z m 9.9999,19.99981 v 9.99991 h 9.99991 v -9.99991 z m 9.99991,9.99991 v 10.00042 h 9.99991 v -10.00042 z m 9.99991,10.00042 v 9.99991 h 10.00042 v -9.99991 z m 10.00042,9.99991 v 9.9999 h 9.9999 v -9.9999 z m 9.9999,9.9999 v 9.99991 h 9.99991 v -9.99991 z m 9.99991,9.99991 v 9.99991 h 9.99991 v -9.99991 z m 9.99991,9.99991 v 9.9999 h 9.9999 v -9.9999 z m 0,9.9999 h -9.99991 v 20.00033 h 9.99991 z m 0,20.00033 v 9.99991 h 19.99981 v -9.99991 z m 19.99981,0 h 10.00042 v -9.9999 h -10.00042 z m 10.00042,0 v 9.99991 h 9.99991 v -9.99991 z m 9.99991,9.99991 v 9.9999 h 19.99981 v -9.9999 z"
           inkscape:label="rod_shadow"
           transform="translate(1.1041667e-5)" /></g></g></g></svg>
