<?xml version="1.0" encoding="utf-8"?>
<!-- Generator: Adobe Illustrator 19.0.0, SVG Export Plug-In . SVG Version: 6.00 Build 0)  -->
<svg version="1.1" xmlns="http://www.w3.org/2000/svg" xmlns:xlink="http://www.w3.org/1999/xlink" x="0px" y="0px"
	 viewBox="0 0 1000 1000" style="enable-background:new 0 0 1000 1000;" xml:space="preserve">
<style type="text/css">
	.st0{fill:#FFFFFF;}
	.st1{fill:#86CCEA;}
	.st2{fill:#4AA0C7;}
	.st3{fill:#65B6D9;}
</style>
<g id="Layer_2">
	<rect id="XMLID_1_" class="st0" width="1000" height="1000"/>
</g>
<g id="Layer_1">
	<g id="XMLID_532_">
		<g id="XMLID_2_">
			<path id="XMLID_4_" class="st1" d="M436,845.1c-47.8-38.3-90.4-83.9-126.7-135.4c-29-41.2-54.1-86.4-74.6-134.2
				c-34.8-81.4-44.2-143.3-44.3-143.9l9.9-1.5c0.1,0.6,9.4,61.5,43.7,141.8c31.7,74,91.8,180.1,198.2,265.4L436,845.1z"/>
			<path id="XMLID_3_" class="st1" d="M496.8,755.4c-18.9-190.6-6.9-438.3-6.8-440.7l10,0.5c-0.1,2.5-12.1,249.4,6.7,439.3
				L496.8,755.4z"/>
			<path id="XMLID_44_" class="st1" d="M559,845.1c47.8-38.3,90.4-83.9,126.7-135.4c29-41.2,54.1-86.4,74.6-134.2
				c34.8-81.4,44.2-143.3,44.3-143.9l-9.9-1.5c-0.1,0.6-9.4,61.5-43.7,141.8c-31.7,74-91.8,180.1-198.2,265.4L559,845.1z"/>
		</g>
		<g id="XMLID_544_">
			<polygon id="XMLID_555_" class="st2" points="514.6,337.9 539.8,449.7 566.7,443.6 541.1,329.9 			"/>
			<polygon id="XMLID_552_" class="st2" points="468.2,331.4 425.8,437.9 451.5,448.1 494.6,339.8 			"/>
			<rect id="XMLID_551_" x="460.2" y="255.2" class="st3" width="83.3" height="83.3"/>
			<polygon id="XMLID_550_" class="st3" points="497.7,333.3 477.9,472.6 474.9,480.9 440.7,476.1 439.8,464.7 466.5,320.2 			"/>
			<polygon id="XMLID_549_" class="st3" points="506.4,335.3 521.9,477.6 556.3,473.8 540.5,329.1 			"/>
			<polygon id="XMLID_548_" class="st3" points="481.6,261.1 489.2,198.6 523.1,206.2 514.6,265.4 			"/>
			<polygon id="XMLID_547_" class="st3" points="464.1,211.5 498.7,218.5 512.3,205.4 520.8,207.1 535.2,196.6 541.8,156.4 
				490.3,145.8 477.2,155.3 476.6,159.6 469.9,163 			"/>
			<polygon id="XMLID_546_" class="st3" points="489.7,154.4 483.6,92.9 501.9,93.8 508.8,156 			"/>
			<polygon id="XMLID_545_" class="st3" points="515.9,155.2 523.7,96 539.6,100 531.9,159.9 			"/>
		</g>
		<g id="XMLID_534_">
			<rect id="XMLID_543_" x="697.6" y="392.6" class="st2" width="132.9" height="59.8"/>
			<polygon id="XMLID_542_" class="st2" points="685.6,393.8 705.5,400.1 685.8,463.7 683.9,463.2 681.7,467.7 677.3,466.4 
				675.5,471 666.1,468.1 668.8,458.5 664.2,456.7 			"/>
			<polygon id="XMLID_541_" class="st2" points="699.3,443.5 726.8,558.7 750.9,551.3 717.3,420.2 703.6,416.6 			"/>
			<polygon id="XMLID_540_" class="st2" points="727.2,453 708.4,547.8 687.7,543.8 706.7,437.9 			"/>
			<polygon id="XMLID_539_" class="st2" points="800.7,451.5 789.2,553.9 814.2,557.3 826.9,447.9 			"/>
			<polygon id="XMLID_538_" class="st2" points="801.3,454.8 869.3,531.5 886.6,516 810,429.9 			"/>
			<polygon id="XMLID_537_" class="st2" points="775.2,396 767.3,337.8 778.8,336.4 778.1,333.3 777.9,332.2 817.8,327 821.7,354.3 
				821.2,356.7 827.8,397.1 			"/>
			<polygon id="XMLID_536_" class="st2" points="775.4,317.5 781.9,316.5 784.8,338.4 778.7,339.5 			"/>
			<polygon id="XMLID_535_" class="st2" points="816.8,328.5 844.5,324.7 849.2,353.3 817.2,357.8 			"/>
		</g>
		<g id="XMLID_471_">
			<polyline id="XMLID_531_" class="st2" points="134.3,325.8 171,335.3 159.4,358.5 128.2,350.5 			"/>
			<polygon id="XMLID_530_" class="st2" points="162,331.3 135.4,436.9 191.1,451.7 185,405.7 199.7,347.3 195.3,340.4 			"/>
			<polyline id="XMLID_529_" class="st2" points="193.4,340.2 193.6,331 183.8,328.3 182.1,330.8 181.8,338.5 			"/>
			<polygon id="XMLID_526_" class="st2" points="193.9,341.5 194.9,339.7 200.2,341.7 200.4,345.1 198.7,347.2 			"/>
			<polygon id="XMLID_523_" class="st2" points="322.8,405.6 179.9,405.6 184.3,419.4 185.1,466.7 322.3,466.8 			"/>
			<polyline id="XMLID_522_" class="st2" points="186.3,458.9 132.8,523.8 150.3,538.4 154.9,534.8 186.5,497 192,480.2 
				191.1,464.2 			"/>
			<polyline id="XMLID_521_" class="st2" points="216.3,465 204.7,558.6 201.4,565.9 176.3,563.1 188.6,461.4 			"/>
			<polygon id="XMLID_517_" class="st2" points="288.5,461.5 271.2,556.4 272.3,562.1 296.9,566 315.6,465 			"/>
			<polyline id="XMLID_474_" class="st2" points="316.6,462.8 342,545.7 320.3,552.5 317.4,548 305.8,510.5 310.7,462.5 			"/>
			<polygon id="XMLID_473_" class="st2" points="226.1,406.3 226,381.7 281.4,381.6 281.3,407.3 226,407.2 			"/>
		</g>
		<g id="XMLID_533_">
			<polygon id="XMLID_561_" class="st3" points="585.4,965.4 653.2,965.4 663,908.2 642.7,810.3 584.7,810.3 584.7,652.2 
				573.4,652.2 573.4,601.7 419,601.7 419,652.2 408.5,652.2 408.5,810.3 346.8,810.3 330.9,907.4 340.7,965.4 408.5,965.4 
				408.5,1000 585.4,1000 			"/>
		</g>
	</g>
</g>
</svg>
