<?xml version="1.0" encoding="utf-8"?>
<!-- Generator: Adobe Illustrator 23.0.6, SVG Export Plug-In . SVG Version: 6.00 Build 0)  -->
<svg version="1.1"
	 id="relocators" inkscape:version="1.0.2-2 (e86c870879, 2021-01-15)" sodipodi:docname="relocators2.svg" xmlns:cc="http://creativecommons.org/ns#" xmlns:dc="http://purl.org/dc/elements/1.1/" xmlns:inkscape="http://www.inkscape.org/namespaces/inkscape" xmlns:rdf="http://www.w3.org/1999/02/22-rdf-syntax-ns#" xmlns:sodipodi="http://sodipodi.sourceforge.net/DTD/sodipodi-0.dtd" xmlns:svg="http://www.w3.org/2000/svg"
	 xmlns="http://www.w3.org/2000/svg" xmlns:xlink="http://www.w3.org/1999/xlink" x="0px" y="0px" viewBox="0 0 512 512"
	 style="enable-background:new 0 0 512 512;" xml:space="preserve">
<style type="text/css">
	.st0{fill:#FFFFFF;}
	.st1{fill:#A1CEE2;}
	.st2{fill:#3D83A3;}
	.st3{fill:#4AA0C7;}
</style>
<rect x="0" y="0" class="st0" width="512" height="512"/>
<sodipodi:namedview  bordercolor="#666666" borderopacity="1" gridtolerance="10" guidetolerance="10" id="namedview332" inkscape:current-layer="relocators" inkscape:cx="255.7365" inkscape:cy="255.737" inkscape:pageopacity="0" inkscape:pageshadow="2" inkscape:window-height="1017" inkscape:window-maximized="1" inkscape:window-width="1920" inkscape:window-x="-8" inkscape:window-y="-8" inkscape:zoom="1.6168955" objecttolerance="10" pagecolor="#ffffff" showgrid="false">
	</sodipodi:namedview>
<g id="g321">
	<path id="circle252" class="st1" d="M409.1,215.66c40.76,0,73.81,33.03,73.81,73.79s-33.05,73.81-73.81,73.81
		s-73.81-33.05-73.81-73.81S368.34,215.66,409.1,215.66z"/>
	<g id="g262">
		<polygon id="polygon254" class="st1" points="449.96,227.99 302.35,131.52 302.35,188.79 256.12,208.13 354.9,339.57 		"/>
		<polygon id="polygon256" class="st1" points="255.88,112.08 209.65,131.42 209.65,131.52 256,112.13 		"/>
		<polygon id="polygon258" class="st1" points="302.35,131.42 256.12,112.08 256,112.13 302.35,131.52 		"/>
		<polygon id="polygon260" class="st1" points="209.65,131.52 209.65,131.52 62.05,227.99 157.08,339.57 256.12,208.13 
			209.65,188.79 		"/>
	</g>
	<path id="circle264" class="st1" d="M102.89,215.66c40.76,0,73.81,33.03,73.81,73.79s-33.05,73.81-73.81,73.81
		s-73.81-33.05-73.81-73.81C29.09,248.69,62.14,215.66,102.89,215.66z"/>
	<g id="g279">
		<g id="layer1_1_" inkscape:groupmode="layer" inkscape:label="Layer 1">
			<path id="path236_1_" class="st0" d="M62.29,271.27l6.13,64.24l68.37,0.16l6.43-64.55L62.29,271.27z"/>
			<path id="path238_7_" class="st0" d="M75.89,251.04l-13.18,19.53l80.44-0.19l-15.56-19.79L75.89,251.04z"/>
			<path id="path238_6_" class="st2" d="M98.6,257.73l-2.15,2.79l13.12-0.02l-2.54-2.86L98.6,257.73z"/>
		</g>
		<g id="layer2_1_" inkscape:groupmode="layer" inkscape:label="Layer 2">
			<path id="path240_1_" sodipodi:nodetypes="ccccc" class="st1" d="M87.61,246.24l29.31,0.03l0.03,24.45l-29.31,0.12L87.61,246.24z
				"/>
			<path id="path600_1_" class="st1" d="M113.23,240.1c-0.65,0-2.89,0-8.28,0.01l0.17,1.06h8.93l-0.47-1.07
				C113.59,240.1,113.59,240.1,113.23,240.1L113.23,240.1z M104.54,240.11c-1.36,0-3.54,0.01-5.33,0.01l-0.13,1.05h5.63
				L104.54,240.11z M98.81,240.12c-2.48,0.03-4.51,0.03-7.95,0.04l-0.34,1h8.18L98.81,240.12z M90.36,241.59l-0.52,1.55h8.59
				l0.2-1.55H90.36z M99.03,241.59l-0.2,1.55H105l-0.24-1.55H99.03z M105.19,241.59l0.25,1.55h9.47l-0.66-1.55H105.19z
				 M89.71,243.53l-0.47,1.43l8.97-0.04l0.17-1.39H89.71L89.71,243.53z M98.78,243.53l-0.17,1.39l17.04-0.04l-0.58-1.35h-9.58
				l0.2,1.36h-0.42l-0.21-1.33L98.78,243.53z"/>
			<path id="rect1635_1_" class="st0" d="M104.51,239.96l0.2,1.2h-5.63l0.14-1.16h-0.41l-0.14,1.16h-8.64v0.42h8.58l-0.19,1.55H89.6
				v0.42h8.76l-0.17,1.4h0.42l0.17-1.4h6.29l0.21,1.33h0.42l-0.2-1.36h9.65v-0.41h-9.72l-0.25-1.55h9.17v-0.42h-9.24l-0.2-1.22
				L104.51,239.96z M99.03,241.59h5.74l0.25,1.55h-6.17L99.03,241.59z"/>
			<path id="path238_5_" class="st0" d="M115.04,239.21l-25.65,0.03l-2.74,5.94l0.03,27.13l31.55-0.08v-26.81L115.04,239.21z
				 M113.23,240.1c0.36,0,0.36,0,0.36,0l2.07,4.78l-26.42,0.08l1.61-4.79C107.89,240.09,112.16,240.09,113.23,240.1L113.23,240.1z
				 M88.75,246.98l27.56,0.01l0.06,22.72l-27.6,0.11L88.75,246.98z"/>
		</g>
		<g id="layer3_1_">
			<path id="path238_4_" class="st0" d="M75.89,251.04l-13.18,19.53l80.44-0.19l-15.56-19.79l-9.36,0.08v9.91l-31.59,0.36v-10
				L75.89,251.04z"/>
			<polygon id="polygon276" class="st1" points="143.23,271.11 62.29,271.27 62.71,270.58 143.15,270.39 			"/>
		</g>
	</g>
	<g id="g283">
		<path id="path281" class="st3" d="M256.12,112.08l-46.47,19.44v2.98v51.2v2.98l46.47,19.46l46.24-19.35v-57.36L256.12,112.08z
			 M253.89,202.35l-36.21-15.16l36.21-15.15V202.35z M253.89,167.19l-39.77,16.64v-47.45l39.77,16.65V167.19z M253.89,148.17
			l-36.21-15.16l36.21-15.15V148.17z M258.38,117.86l36.18,15.15l-36.18,15.16V117.86z M258.38,202.35v-30.32l36.18,15.15
			L258.38,202.35z M258.38,167.19v-14.17l39.75-16.65v47.45L258.38,167.19z"/>
	</g>
	<g id="g298">
		<g id="layer1_2_" inkscape:groupmode="layer" inkscape:label="Layer 1">
			<path id="path236_2_" class="st2" d="M368.77,271.12l6.43,64.55l68.38-0.16l6.13-64.23L368.77,271.12z"/>
			<path id="path238_8_" class="st2" d="M384.41,250.59l-15.57,19.79l80.44,0.19l-13.19-19.53L384.41,250.59z"/>
			<path id="path238_3_" class="st2" d="M404.95,257.65l-2.52,2.86l13.12,0.02l-2.15-2.79L404.95,257.65z"/>
		</g>
		<g id="layer2_2_" inkscape:groupmode="layer" inkscape:label="Layer 2">
			<path id="path240_2_" sodipodi:nodetypes="ccccc" class="st1" d="M424.35,270.84l-29.29-0.12l0.02-24.44l29.29-0.03
				L424.35,270.84z"/>
			<path id="path600_2_" class="st1" d="M398.77,240.1c-0.35,0-0.35,0-0.35,0l-0.48,1.07h8.93l0.17-1.06
				C401.66,240.1,399.43,240.1,398.77,240.1L398.77,240.1z M407.3,241.16h5.62l-0.14-1.05c-1.78,0-3.98-0.01-5.32-0.01L407.3,241.16
				z M413.31,241.15h8.18l-0.34-1c-3.45-0.01-5.47-0.01-7.97-0.04L413.31,241.15z M413.36,241.59l0.21,1.55h8.59l-0.52-1.55H413.36z
				 M407.23,241.59l-0.23,1.55h6.16l-0.19-1.55H407.23z M397.76,241.59l-0.67,1.55h9.48l0.25-1.55H397.76z M413.63,243.53l0.17,1.39
				l8.96,0.04l-0.48-1.43H413.63L413.63,243.53z M406.93,243.56l-0.22,1.33h-0.4l0.2-1.36h-9.59l-0.56,1.35l17.05,0.04l-0.17-1.39
				L406.93,243.56z"/>
			<path id="rect1635_2_" class="st2" d="M407.09,239.94l-0.21,1.22h-9.22v0.42h9.16l-0.25,1.55h-9.72v0.41h9.64l-0.2,1.35h0.4
				l0.22-1.33h6.29l0.17,1.4h0.42l-0.17-1.4h8.76v-0.42h-8.81l-0.19-1.55h8.58v-0.42h-8.64l-0.15-1.16h-0.4l0.15,1.16h-5.63l0.2-1.2
				L407.09,239.94z M413.15,243.14h-6.16l0.23-1.55h5.75L413.15,243.14z"/>
			<path id="path238_2_" class="st2" d="M393.75,245.42v26.81l31.58,0.08l0.02-27.13l-2.74-5.94l-25.63-0.03L393.75,245.42z
				 M398.77,240.1c1.07-0.01,5.32-0.01,22.39,0.07l1.6,4.79l-26.42-0.08l2.07-4.78C398.42,240.1,398.42,240.1,398.77,240.1
				L398.77,240.1z M423.24,269.82l-27.61-0.11l0.05-22.71l27.58-0.01L423.24,269.82z"/>
		</g>
		<g id="layer3_2_">
			<path id="path238_1_" class="st2" d="M425.36,250.94v10l-31.6-0.36v-9.91l-9.34-0.08l-15.57,19.79l80.44,0.19l-13.19-19.53
				L425.36,250.94z"/>
			<polygon id="polygon295" class="st1" points="368.85,270.39 449.29,270.58 449.71,271.27 368.77,271.11 			"/>
		</g>
	</g>
	<g id="g313">
		<g id="layer1_3_" inkscape:groupmode="layer" inkscape:label="Layer 1">
			<path id="path236_3_" class="st1" d="M230.73,147.42l3.83,40.1l42.68,0.1l4.01-40.29L230.73,147.42z"/>
			<path id="path238_12_" class="st1" d="M239.22,134.78l-8.23,12.2l50.23-0.13l-9.7-12.36L239.22,134.78z"/>
			<path id="path238_11_" class="st1" d="M253.39,138.95l-1.33,1.74l8.18-0.01l-1.58-1.76L253.39,138.95z"/>
		</g>
		<g id="layer2_3_" inkscape:groupmode="layer" inkscape:label="Layer 2">
			<path id="path240_3_" sodipodi:nodetypes="ccccc" class="st0" d="M246.54,131.79l18.31,0.01l0.01,15.27l-18.32,0.06V131.79z"/>
			<path id="path600_3_" class="st0" d="M262.52,127.95c-0.39,0-1.79,0-5.15,0.01l0.08,0.66h5.58l-0.27-0.67
				C262.77,127.95,262.77,127.95,262.52,127.95L262.52,127.95z M257.1,127.96c-0.84,0-2.2,0.01-3.31,0.01l-0.08,0.66h3.51
				L257.1,127.96z M253.53,127.97c-1.55,0.01-2.81,0.01-4.97,0.02l-0.2,0.63h5.1L253.53,127.97z M248.25,128.88l-0.31,0.96h5.36
				l0.13-0.96H248.25z M253.66,128.88l-0.12,0.96h3.85l-0.16-0.96H253.66z M257.53,128.88l0.16,0.96h5.88l-0.4-0.96H257.53z
				 M247.85,130.1l-0.31,0.88l5.6-0.01l0.12-0.87L247.85,130.1L247.85,130.1z M253.52,130.1l-0.12,0.87l10.64-0.04l-0.35-0.83h-5.98
				l0.14,0.84h-0.29l-0.14-0.83L253.52,130.1z"/>
			<path id="rect1635_3_" class="st1" d="M257.08,127.86l0.14,0.76h-3.51l0.09-0.72h-0.26l-0.09,0.72h-5.4v0.26h5.36l-0.12,0.96
				h-5.51v0.26h5.48l-0.12,0.87h0.26l0.12-0.87h3.91l0.14,0.83h0.29l-0.14-0.84h6.01v-0.26h-6.04l-0.16-0.96h5.7v-0.26h-5.77
				l-0.1-0.77L257.08,127.86z M253.66,128.88h3.59l0.16,0.96h-3.85L253.66,128.88z"/>
			<path id="path238_10_" class="st1" d="M263.67,127.4l-16.01,0.02l-1.72,3.71l0.01,16.94l19.7-0.07v-16.73L263.67,127.4z
				 M262.52,127.95c0.25,0,0.25,0,0.25,0l1.28,2.98l-16.5,0.05l1.01-2.99C259.19,127.94,261.88,127.94,262.52,127.95L262.52,127.95z
				 M247.25,132.25l17.19,0.01l0.07,14.2l-17.25,0.04L247.25,132.25z"/>
		</g>
		<g id="layer3_3_">
			<path id="path238_9_" class="st1" d="M239.22,134.78l-8.23,12.2l50.23-0.13l-9.7-12.36l-5.87,0.06v6.18l-19.72,0.23v-6.24
				L239.22,134.78z"/>
			<polygon id="polygon310" class="st0" points="281.25,147.32 230.73,147.42 230.99,146.99 281.22,146.87 			"/>
		</g>
	</g>
	<polygon id="polygon315" class="st3" points="253.89,189.74 253.89,153.02 231.22,143.53 233.36,139.58 256.12,149.08 
		280.01,139.11 281.03,143.53 258.38,153.02 258.38,191.72 	"/>
	<polygon id="polygon317" class="st3" points="188.73,205.63 166.01,205.17 174.07,213.57 149.63,237.03 155.77,243.42 
		180.21,219.96 188.27,228.35 	"/>
	<polygon id="polygon319" class="st3" points="360.74,241.68 338.02,242.15 346.08,233.76 321.63,210.28 327.77,203.89 
		352.22,227.36 360.27,218.97 	"/>
</g>
</svg>
