<?xml version="1.0" encoding="utf-8"?>
<!-- Generator: Adobe Illustrator 23.0.6, SVG Export Plug-In . SVG Version: 6.00 Build 0)  -->
<svg version="1.1" id="mysterious_midnights" xmlns="http://www.w3.org/2000/svg" xmlns:xlink="http://www.w3.org/1999/xlink"
	 x="0px" y="0px" viewBox="0 0 512 512" style="enable-background:new 0 0 512 512;" xml:space="preserve">
<style type="text/css">
	.st0{fill:#FFFFFF;}
	.st1{enable-background:new    ;}
	.st2{fill:#4AA0C7;}
	.st3{fill:#3D83A3;}
	.st4{fill:#7FBCD7;}
</style>
<rect x="0" y="0" class="st0" width="512" height="512"/>
<g id="Icon">
	<g class="st1">
		<path class="st2" d="M434.65,298.92l8.07,3.03l-3.01,8.09l-8.07-3.04L434.65,298.92z M435.71,345.33l8.07,3.02l-3.01,8.07
			l-8.07-3.01L435.71,345.33z M441.75,329.18l8.08,3.01l-3.02,8.1l-8.09-3.04L441.75,329.18z M466.95,310.98l-24.23-9.04l3.01-8.09
			l24.24,9.06L466.95,310.98z M452.84,324.11l8.07,3.03l-3.01,8.09l-8.07-3.04L452.84,324.11z M475.03,313.99l-6.05,16.18
			l-8.07-3.03l6.04-16.16L475.03,313.99z"/>
	</g>
	<g class="st1">
		<path class="st2" d="M418.27,147.73l8.08,3.02l-3.03,8.07l-8.07-3.01L418.27,147.73z M419.35,194.14l8.08,3.01l-3.03,8.08
			l-8.09-3.02L419.35,194.14z M425.38,177.98l8.07,3.03l-3.01,8.07l-8.07-3.02L425.38,177.98z M450.58,159.79l-24.22-9.04l3.02-8.08
			l24.21,9.05L450.58,159.79z M436.46,172.92l8.09,3.03l-3.03,8.07l-8.07-3.01L436.46,172.92z M458.64,162.81l-6.01,16.14
			l-8.08-3.01l6.03-16.16L458.64,162.81z"/>
	</g>
	<g class="st1">
		<path class="st2" d="M24.43,313.74l9.54-5.01l4.99,9.56l-9.54,4.97L24.43,313.74z M62.58,293.77l-28.61,14.96l-4.99-9.52l28.61-15
			L62.58,293.77z M58.49,332.35l9.54-4.97l4.99,9.52l-9.54,5.01L58.49,332.35z M72.12,288.76l9.99,19.08l-9.54,5.01l-9.99-19.08
			L72.12,288.76z M63.03,317.82l9.54-4.98l4.99,9.52l-9.54,5.01L63.03,317.82z M68.47,351.43l9.54-4.97l5,9.52l-9.54,5.01
			L68.47,351.43z"/>
	</g>
	<g class="st1">
		<path class="st2" d="M48.48,163.67l7.1-3.72l3.72,7.1l-7.11,3.73L48.48,163.67z M76.9,148.79l-21.31,11.16l-3.72-7.1l21.31-11.17
			L76.9,148.79z M73.85,177.54l7.11-3.71l3.72,7.1l-7.11,3.71L73.85,177.54z M84,145.07l7.44,14.21L84.33,163l-7.44-14.21L84,145.07
			z M77.24,166.72l7.1-3.72l3.72,7.1l-7.1,3.73L77.24,166.72z M81.29,191.76l7.11-3.73l3.72,7.1l-7.11,3.73L81.29,191.76z"/>
	</g>
	<g class="st1">
		<path class="st2" d="M146.7,84.96l4.49-2.47l2.47,4.5l-4.49,2.47L146.7,84.96z M164.68,75.08l-13.48,7.41L148.74,78l13.49-7.41
			L164.68,75.08z M163.1,93.5l4.51-2.47l2.47,4.5l-4.5,2.46L163.1,93.5z M169.19,72.61l4.93,8.99l-4.49,2.48l-4.95-9L169.19,72.61z
			 M165.13,86.54l4.5-2.46l2.46,4.49l-4.49,2.47L165.13,86.54z M168.04,102.5l4.49-2.47l2.46,4.5l-4.49,2.48L168.04,102.5z"/>
	</g>
	<g class="st1">
		<path class="st2" d="M341.05,70.14l4.32,1.72l-1.72,4.31l-4.32-1.71L341.05,70.14z M341.08,95.11l4.32,1.71l-1.72,4.31l-4.3-1.72
			L341.08,95.11z M344.52,86.49l4.31,1.72l-1.71,4.31l-4.32-1.71L344.52,86.49z M358.29,77l-12.92-5.15l1.71-4.31l12.9,5.15
			L358.29,77z M350.53,83.91l4.32,1.71l-1.72,4.31l-4.3-1.72L350.53,83.91z M362.58,78.72l-3.42,8.62l-4.31-1.72l3.43-8.61
			L362.58,78.72z"/>
	</g>
	<g id="Clock">
		<g id="Back">
			<rect x="108.88" y="200" class="st2" width="294.78" height="147.37"/>
			<rect x="150.99" y="157.88" class="st2" width="210.54" height="210.55"/>
			<rect x="172.04" y="115.77" class="st2" width="168.45" height="294.76"/>
		</g>
		<g id="Outline">
			<rect x="108.88" y="200" class="st3" width="21.06" height="147.37"/>
			<rect x="129.93" y="347.37" class="st3" width="21.06" height="21.07"/>
			<rect x="150.99" y="368.43" class="st3" width="21.05" height="21.06"/>
			<rect x="172.04" y="389.49" class="st3" width="42.12" height="21.05"/>
			<rect x="214.16" y="410.53" class="st3" width="84.21" height="21.06"/>
			<rect x="298.37" y="389.49" class="st3" width="42.12" height="21.05"/>
			<rect x="340.49" y="368.43" class="st3" width="21.05" height="21.06"/>
			<rect x="361.53" y="347.37" class="st3" width="21.07" height="21.07"/>
			<rect x="382.6" y="200" class="st3" width="21.06" height="147.37"/>
			<rect x="361.53" y="157.88" class="st3" width="21.07" height="42.12"/>
			<rect x="340.49" y="136.83" class="st3" width="21.05" height="21.05"/>
			<rect x="298.37" y="115.77" class="st3" width="42.12" height="21.06"/>
			<rect x="214.16" y="94.71" class="st3" width="84.21" height="21.06"/>
			<rect x="172.04" y="115.77" class="st3" width="42.12" height="21.06"/>
			<rect x="150.99" y="136.83" class="st3" width="21.05" height="21.05"/>
			<rect x="129.93" y="157.88" class="st3" width="21.06" height="42.12"/>
			<rect x="108.88" y="305.26" class="st3" width="42.12" height="21.07"/>
			<rect x="150.99" y="326.33" class="st3" width="21.05" height="21.04"/>
			<rect x="172.04" y="347.37" class="st3" width="42.12" height="21.07"/>
			<rect x="214.16" y="368.43" class="st3" width="84.21" height="21.06"/>
			<rect x="298.37" y="346.84" class="st3" width="42.12" height="21.05"/>
			<rect x="340.49" y="325.8" class="st3" width="21.05" height="21.04"/>
			<rect x="361.53" y="304.72" class="st3" width="42.12" height="21.08"/>
		</g>
		<g id="Display">
			<rect x="150.99" y="200" class="st3" width="84.21" height="63.17"/>
			<rect x="172.04" y="157.88" class="st3" width="63.16" height="126.32"/>
			<rect x="172.04" y="157.88" class="st3" width="168.45" height="83.69"/>
			<rect x="214.16" y="136.83" class="st3" width="84.21" height="104.74"/>
			<rect x="277.32" y="157.88" class="st3" width="63.17" height="126.32"/>
			<rect x="277.32" y="199.47" class="st3" width="84.21" height="63.17"/>
		</g>
		<g id="Moon">
			<rect x="235.2" y="146.83" class="st4" width="42.12" height="21.06"/>
			<rect x="256.26" y="167.89" class="st4" width="42.11" height="42.1"/>
			<rect x="235.2" y="209.99" class="st4" width="42.12" height="21.06"/>
			<rect x="256.26" y="146.83" class="st4" width="21.06" height="84.23"/>
		</g>
	</g>
</g>
</svg>
