<?xml version="1.0" encoding="utf-8"?>
<!-- Generator: Adobe Illustrator 23.0.6, SVG Export Plug-In . SVG Version: 6.00 Build 0)  -->
<svg version="1.1" id="ambrosia" xmlns="http://www.w3.org/2000/svg" xmlns:xlink="http://www.w3.org/1999/xlink" x="0px" y="0px"
	 viewBox="0 0 512 512" style="enable-background:new 0 0 512 512;" xml:space="preserve">
<style type="text/css">
	.st0{fill:#FFFFFF;}
	.st1{fill:#7FBCD7;}
	.st2{fill:#4AA0C7;}
	.st3{fill:#A1CEE2;}
	.st4{fill:#DBECF4;}
</style>
<rect class="st0" width="512" height="512"/>
<g id="Icon">
	<g id="trail">
		<g id="Particle">
			<rect x="347.13" y="199.89" class="st1" width="1.56" height="1.55"/>
			<rect x="348.7" y="198.33" class="st1" width="1.55" height="1.56"/>
			<rect x="348.7" y="201.44" class="st1" width="1.55" height="1.55"/>
			<rect x="345.59" y="201.44" class="st1" width="1.54" height="1.55"/>
			<rect x="345.59" y="198.33" class="st1" width="1.54" height="1.56"/>
		</g>
		<g id="Particle_1_">
			<rect x="315.34" y="178.95" class="st1" width="1.56" height="1.55"/>
			<rect x="316.91" y="177.4" class="st1" width="1.53" height="1.56"/>
			<rect x="316.91" y="180.5" class="st1" width="1.53" height="1.55"/>
			<rect x="313.78" y="180.5" class="st1" width="1.56" height="1.55"/>
			<rect x="313.78" y="177.4" class="st1" width="1.56" height="1.56"/>
		</g>
		<g id="Particle_2_">
			<rect x="318.44" y="142.48" class="st1" width="3.13" height="1.55"/>
			<rect x="321.56" y="140.94" class="st1" width="1.53" height="1.55"/>
			<rect x="321.56" y="144.03" class="st1" width="1.53" height="1.56"/>
			<rect x="316.91" y="144.03" class="st1" width="1.53" height="1.56"/>
			<rect x="316.91" y="140.94" class="st1" width="1.53" height="1.55"/>
		</g>
		<g id="Particle_3_">
			<rect x="329.31" y="192.13" class="st1" width="1.56" height="1.55"/>
			<rect x="330.86" y="190.59" class="st1" width="1.53" height="1.55"/>
			<rect x="330.86" y="193.68" class="st1" width="1.53" height="1.56"/>
			<rect x="327.74" y="193.68" class="st1" width="1.56" height="1.56"/>
			<rect x="327.74" y="190.59" class="st1" width="1.56" height="1.55"/>
		</g>
		<g id="Particle_4_">
			<rect x="312.25" y="160.34" class="st2" width="1.53" height="1.55"/>
			<rect x="313.78" y="158.78" class="st2" width="1.56" height="1.55"/>
			<rect x="313.78" y="161.89" class="st2" width="1.56" height="1.55"/>
			<rect x="310.69" y="161.89" class="st2" width="1.56" height="1.55"/>
			<rect x="310.69" y="158.78" class="st2" width="1.56" height="1.55"/>
		</g>
		<g id="Particle_5_">
			<rect x="330.86" y="128.54" class="st2" width="1.53" height="1.55"/>
			<rect x="332.39" y="126.99" class="st2" width="1.56" height="1.55"/>
			<rect x="332.39" y="130.09" class="st2" width="1.56" height="1.55"/>
			<rect x="329.31" y="130.09" class="st2" width="1.56" height="1.55"/>
			<rect x="329.31" y="126.99" class="st2" width="1.56" height="1.55"/>
		</g>
		<g id="Particle_6_">
			<rect x="347.13" y="117.68" class="st2" width="1.56" height="1.55"/>
			<rect x="348.7" y="116.13" class="st2" width="1.55" height="1.55"/>
			<rect x="348.7" y="119.23" class="st2" width="1.55" height="1.55"/>
			<rect x="345.59" y="119.23" class="st2" width="1.54" height="1.55"/>
			<rect x="345.59" y="116.13" class="st2" width="1.54" height="1.55"/>
		</g>
		<g id="Particle_7_">
			<rect x="365.75" y="111.47" class="st2" width="1.56" height="1.55"/>
			<rect x="367.31" y="109.93" class="st2" width="1.55" height="1.55"/>
			<rect x="367.31" y="113.03" class="st2" width="1.55" height="1.55"/>
			<rect x="364.21" y="113.03" class="st2" width="1.54" height="1.55"/>
			<rect x="364.21" y="109.93" class="st2" width="1.54" height="1.55"/>
		</g>
		<g id="Particle_8_">
			<rect x="385.14" y="110.7" class="st2" width="1.56" height="1.55"/>
			<rect x="386.7" y="109.15" class="st2" width="1.53" height="1.56"/>
			<rect x="386.7" y="112.25" class="st2" width="1.53" height="1.55"/>
			<rect x="383.59" y="112.25" class="st2" width="1.55" height="1.55"/>
			<rect x="383.59" y="109.15" class="st2" width="1.55" height="1.56"/>
		</g>
		<g id="Particle_9_">
			<rect x="402.64" y="114.84" class="st2" width="3.1" height="1.55"/>
			<rect x="405.74" y="113.29" class="st2" width="1.56" height="1.55"/>
			<rect x="405.74" y="116.39" class="st2" width="1.56" height="1.56"/>
			<rect x="401.09" y="116.39" class="st2" width="1.56" height="1.56"/>
			<rect x="401.09" y="113.29" class="st2" width="1.56" height="1.55"/>
		</g>
		<g id="Particle_10_">
			<rect x="420.48" y="122.6" class="st1" width="3.09" height="1.55"/>
			<rect x="423.57" y="121.04" class="st1" width="1.56" height="1.56"/>
			<rect x="423.57" y="124.15" class="st1" width="1.56" height="1.55"/>
			<rect x="418.92" y="124.15" class="st1" width="1.56" height="1.55"/>
			<rect x="418.92" y="121.04" class="st1" width="1.56" height="1.56"/>
		</g>
		<g id="Particle_11_">
			<rect x="436.33" y="133.19" class="st1" width="1.55" height="1.55"/>
			<rect x="437.89" y="131.64" class="st1" width="1.55" height="1.55"/>
			<rect x="437.89" y="134.74" class="st1" width="1.55" height="1.55"/>
			<rect x="434.78" y="134.74" class="st1" width="1.55" height="1.55"/>
			<rect x="434.78" y="131.64" class="st1" width="1.55" height="1.55"/>
		</g>
		<g id="Particle_12_">
			<rect x="448.74" y="147.93" class="st3" width="1.55" height="1.55"/>
			<rect x="450.29" y="146.38" class="st3" width="1.56" height="1.55"/>
			<rect x="450.29" y="149.48" class="st3" width="1.56" height="1.55"/>
			<rect x="447.19" y="149.48" class="st3" width="1.53" height="1.55"/>
			<rect x="447.19" y="146.38" class="st3" width="1.53" height="1.55"/>
		</g>
		<g id="Particle_13_">
			<rect x="456.5" y="164.99" class="st3" width="1.53" height="1.55"/>
			<rect x="458.05" y="163.44" class="st3" width="1.55" height="1.55"/>
			<rect x="458.05" y="166.54" class="st3" width="1.55" height="1.55"/>
			<rect x="454.94" y="166.54" class="st3" width="1.56" height="1.55"/>
			<rect x="454.94" y="163.44" class="st3" width="1.56" height="1.55"/>
		</g>
		<g id="Particle_14_">
			<rect x="462.7" y="184.38" class="st4" width="1.54" height="1.56"/>
			<rect x="464.25" y="182.83" class="st4" width="1.56" height="1.55"/>
			<rect x="464.25" y="185.93" class="st4" width="1.56" height="1.55"/>
			<rect x="461.15" y="185.93" class="st4" width="1.54" height="1.55"/>
			<rect x="461.15" y="182.83" class="st4" width="1.54" height="1.55"/>
		</g>
		<g id="Particle_15_">
			<rect x="464.31" y="201.5" class="st4" width="1.54" height="3.11"/>
			<rect x="465.85" y="204.61" class="st4" width="1.56" height="1.55"/>
			<rect x="462.76" y="204.61" class="st4" width="1.55" height="1.55"/>
			<rect x="462.76" y="199.96" class="st4" width="1.55" height="1.55"/>
			<rect x="465.85" y="199.96" class="st4" width="1.56" height="1.55"/>
		</g>
		<g id="Particle_16_">
			<rect x="464.76" y="220.85" class="st4" width="1.54" height="3.11"/>
			<rect x="466.31" y="223.96" class="st4" width="1.54" height="1.55"/>
			<rect x="463.2" y="223.96" class="st4" width="1.56" height="1.55"/>
			<rect x="463.2" y="219.31" class="st4" width="1.56" height="1.55"/>
			<rect x="466.31" y="219.31" class="st4" width="1.54" height="1.55"/>
		</g>
		<g id="Particle_17_">
			<rect x="462.73" y="239.73" class="st4" width="1.54" height="3.11"/>
			<rect x="464.27" y="242.84" class="st4" width="1.55" height="1.55"/>
			<rect x="461.18" y="242.84" class="st4" width="1.55" height="1.55"/>
			<rect x="461.18" y="238.19" class="st4" width="1.55" height="1.55"/>
			<rect x="464.27" y="238.19" class="st4" width="1.55" height="1.55"/>
		</g>
		<g id="Particle_18_">
			<rect x="458.24" y="258.87" class="st4" width="1.55" height="3.09"/>
			<rect x="459.78" y="261.97" class="st4" width="1.54" height="1.56"/>
			<rect x="456.67" y="261.97" class="st4" width="1.56" height="1.56"/>
			<rect x="456.67" y="257.32" class="st4" width="1.56" height="1.56"/>
			<rect x="459.78" y="257.32" class="st4" width="1.54" height="1.56"/>
		</g>
		<g id="Particle_19_">
			<rect x="451.24" y="277.48" class="st4" width="3.11" height="1.56"/>
			<rect x="449.7" y="279.04" class="st4" width="1.54" height="1.53"/>
			<rect x="449.7" y="275.92" class="st4" width="1.54" height="1.56"/>
			<rect x="454.35" y="275.92" class="st4" width="1.54" height="1.56"/>
			<rect x="454.35" y="279.04" class="st4" width="1.54" height="1.53"/>
		</g>
		<g id="Particle_20_">
			<rect x="443.85" y="293.96" class="st4" width="1.53" height="3.09"/>
			<rect x="445.39" y="297.05" class="st4" width="1.55" height="1.56"/>
			<rect x="442.3" y="297.05" class="st4" width="1.55" height="1.56"/>
			<rect x="442.3" y="292.4" class="st4" width="1.55" height="1.56"/>
			<rect x="445.39" y="292.4" class="st4" width="1.55" height="1.56"/>
		</g>
		<g id="Particle_21_">
			<rect x="431.21" y="309.54" class="st4" width="3.1" height="1.56"/>
			<rect x="429.66" y="311.1" class="st4" width="1.55" height="1.53"/>
			<rect x="429.66" y="307.98" class="st4" width="1.55" height="1.56"/>
			<rect x="434.31" y="307.98" class="st4" width="1.55" height="1.56"/>
			<rect x="434.31" y="311.1" class="st4" width="1.55" height="1.53"/>
		</g>
		<g id="Particle_22_">
			<rect x="418.5" y="322.42" class="st4" width="1.55" height="1.56"/>
			<rect x="420.04" y="320.86" class="st4" width="1.54" height="1.55"/>
			<rect x="420.04" y="323.98" class="st4" width="1.54" height="1.53"/>
			<rect x="416.93" y="323.98" class="st4" width="1.56" height="1.53"/>
			<rect x="416.93" y="320.86" class="st4" width="1.56" height="1.55"/>
		</g>
		<g id="Particle_23_">
			<rect x="402.19" y="333.29" class="st4" width="1.55" height="1.53"/>
			<rect x="403.76" y="331.73" class="st4" width="1.56" height="1.56"/>
			<rect x="403.76" y="334.82" class="st4" width="1.56" height="1.55"/>
			<rect x="400.66" y="334.82" class="st4" width="1.53" height="1.55"/>
			<rect x="400.66" y="331.73" class="st4" width="1.53" height="1.56"/>
		</g>
		<g id="Particle_24_">
			<rect x="385.14" y="341.04" class="st4" width="1.56" height="1.56"/>
			<rect x="386.7" y="339.47" class="st4" width="1.53" height="1.55"/>
			<rect x="386.7" y="342.6" class="st4" width="1.53" height="1.53"/>
			<rect x="383.59" y="342.6" class="st4" width="1.55" height="1.53"/>
			<rect x="383.59" y="339.47" class="st4" width="1.55" height="1.55"/>
		</g>
		<g id="Particle_25_">
			<rect x="365.75" y="346.47" class="st4" width="1.56" height="1.55"/>
			<rect x="367.31" y="344.91" class="st4" width="1.55" height="1.56"/>
			<rect x="367.31" y="348.02" class="st4" width="1.55" height="1.54"/>
			<rect x="364.21" y="348.02" class="st4" width="1.54" height="1.54"/>
			<rect x="364.21" y="344.91" class="st4" width="1.54" height="1.56"/>
		</g>
	</g>
	<g id="trail_1_">
		<g id="Particle_26_">
			<rect x="283.55" y="77.35" class="st2" width="1.56" height="1.55"/>
			<rect x="285.11" y="75.8" class="st2" width="1.53" height="1.55"/>
			<rect x="285.11" y="78.9" class="st2" width="1.53" height="1.56"/>
			<rect x="281.99" y="78.9" class="st2" width="1.56" height="1.56"/>
			<rect x="281.99" y="75.8" class="st2" width="1.56" height="1.55"/>
		</g>
		<g id="Particle_27_">
			<rect x="265.72" y="70.37" class="st2" width="1.53" height="1.55"/>
			<rect x="267.25" y="68.82" class="st2" width="1.56" height="1.55"/>
			<rect x="267.25" y="71.92" class="st2" width="1.56" height="1.56"/>
			<rect x="264.16" y="71.92" class="st2" width="1.56" height="1.56"/>
			<rect x="264.16" y="68.82" class="st2" width="1.56" height="1.55"/>
		</g>
		<g id="Particle_28_">
			<rect x="247.09" y="64.94" class="st2" width="1.56" height="1.56"/>
			<rect x="248.65" y="63.39" class="st2" width="1.55" height="1.55"/>
			<rect x="248.65" y="66.5" class="st2" width="1.55" height="1.55"/>
			<rect x="245.54" y="66.5" class="st2" width="1.55" height="1.55"/>
			<rect x="245.54" y="63.39" class="st2" width="1.55" height="1.55"/>
		</g>
		<g id="Particle_29_">
			<rect x="227.71" y="68.05" class="st2" width="1.55" height="1.55"/>
			<rect x="229.26" y="66.5" class="st2" width="1.54" height="1.55"/>
			<rect x="229.26" y="69.59" class="st2" width="1.54" height="1.56"/>
			<rect x="226.15" y="69.59" class="st2" width="1.56" height="1.56"/>
			<rect x="226.15" y="66.5" class="st2" width="1.56" height="1.55"/>
		</g>
		<g id="Particle_30_">
			<rect x="212.19" y="77.35" class="st2" width="1.56" height="1.55"/>
			<rect x="213.75" y="75.8" class="st2" width="1.55" height="1.55"/>
			<rect x="213.75" y="78.9" class="st2" width="1.55" height="1.56"/>
			<rect x="210.65" y="78.9" class="st2" width="1.54" height="1.56"/>
			<rect x="210.65" y="75.8" class="st2" width="1.54" height="1.55"/>
		</g>
		<g id="Particle_31_">
			<rect x="199.01" y="92.09" class="st1" width="1.55" height="1.55"/>
			<rect x="200.56" y="90.54" class="st1" width="1.56" height="1.55"/>
			<rect x="200.56" y="93.64" class="st1" width="1.56" height="1.55"/>
			<rect x="197.47" y="93.64" class="st1" width="1.54" height="1.55"/>
			<rect x="197.47" y="90.54" class="st1" width="1.54" height="1.55"/>
		</g>
		<g id="Particle_32_">
			<rect x="191.26" y="109.93" class="st1" width="1.56" height="1.55"/>
			<rect x="192.81" y="108.38" class="st1" width="1.54" height="1.55"/>
			<rect x="192.81" y="111.47" class="st1" width="1.54" height="1.55"/>
			<rect x="189.71" y="111.47" class="st1" width="1.55" height="1.55"/>
			<rect x="189.71" y="108.38" class="st1" width="1.55" height="1.55"/>
		</g>
		<g id="Particle_33_">
			<rect x="188.16" y="126.99" class="st3" width="1.54" height="3.1"/>
			<rect x="189.71" y="125.43" class="st3" width="1.55" height="1.55"/>
			<rect x="189.71" y="130.09" class="st3" width="1.55" height="1.55"/>
			<rect x="186.6" y="130.09" class="st3" width="1.56" height="1.55"/>
			<rect x="186.6" y="125.43" class="st3" width="1.56" height="1.55"/>
		</g>
		<g id="Particle_34_">
			<rect x="190.49" y="146.38" class="st3" width="1.54" height="1.55"/>
			<rect x="192.03" y="144.83" class="st3" width="1.55" height="1.55"/>
			<rect x="192.03" y="147.93" class="st3" width="1.55" height="1.55"/>
			<rect x="188.93" y="147.93" class="st3" width="1.56" height="1.55"/>
			<rect x="188.93" y="144.83" class="st3" width="1.56" height="1.55"/>
		</g>
		<g id="Particle_35_">
			<rect x="200.56" y="161.89" class="st3" width="1.56" height="1.55"/>
			<rect x="202.12" y="160.34" class="st3" width="1.54" height="1.55"/>
			<rect x="202.12" y="163.44" class="st3" width="1.54" height="1.55"/>
			<rect x="199.01" y="163.44" class="st3" width="1.55" height="1.55"/>
			<rect x="199.01" y="160.34" class="st3" width="1.55" height="1.55"/>
		</g>
		<g id="Particle_36_">
			<rect x="215.3" y="174.3" class="st4" width="1.54" height="1.55"/>
			<rect x="216.85" y="172.74" class="st4" width="1.56" height="1.56"/>
			<rect x="216.85" y="175.85" class="st4" width="1.56" height="1.55"/>
			<rect x="213.75" y="175.85" class="st4" width="1.55" height="1.55"/>
			<rect x="213.75" y="172.74" class="st4" width="1.55" height="1.56"/>
		</g>
		<g id="Particle_37_">
			<rect x="232.37" y="184.38" class="st4" width="1.54" height="3.11"/>
			<rect x="233.91" y="182.83" class="st4" width="1.55" height="1.55"/>
			<rect x="233.91" y="187.48" class="st4" width="1.55" height="1.55"/>
			<rect x="230.8" y="187.48" class="st4" width="1.56" height="1.55"/>
			<rect x="230.8" y="182.83" class="st4" width="1.56" height="1.55"/>
		</g>
		<g id="Particle_38_">
			<rect x="248.65" y="195.24" class="st4" width="1.55" height="1.55"/>
			<rect x="250.2" y="193.68" class="st4" width="1.55" height="1.56"/>
			<rect x="250.2" y="196.79" class="st4" width="1.55" height="1.55"/>
			<rect x="247.09" y="196.79" class="st4" width="1.56" height="1.55"/>
			<rect x="247.09" y="193.68" class="st4" width="1.56" height="1.56"/>
		</g>
		<g id="Particle_39_">
			<rect x="265.72" y="203.77" class="st4" width="1.53" height="1.55"/>
			<rect x="267.25" y="202.22" class="st4" width="1.56" height="1.55"/>
			<rect x="267.25" y="205.31" class="st4" width="1.56" height="1.56"/>
			<rect x="264.16" y="205.31" class="st4" width="1.56" height="1.56"/>
			<rect x="264.16" y="202.22" class="st4" width="1.56" height="1.55"/>
		</g>
		<g id="Particle_40_">
			<rect x="283.55" y="211.53" class="st4" width="1.56" height="1.55"/>
			<rect x="285.11" y="209.97" class="st4" width="1.53" height="1.56"/>
			<rect x="285.11" y="213.07" class="st4" width="1.53" height="1.55"/>
			<rect x="281.99" y="213.07" class="st4" width="1.56" height="1.55"/>
			<rect x="281.99" y="209.97" class="st4" width="1.56" height="1.56"/>
		</g>
		<g id="Particle_41_">
			<rect x="299.07" y="220.83" class="st4" width="1.53" height="1.55"/>
			<rect x="300.6" y="219.27" class="st4" width="1.56" height="1.56"/>
			<rect x="300.6" y="222.38" class="st4" width="1.56" height="1.55"/>
			<rect x="297.51" y="222.38" class="st4" width="1.56" height="1.55"/>
			<rect x="297.51" y="219.27" class="st4" width="1.56" height="1.56"/>
		</g>
		<g id="Particle_42_">
			<rect x="314.56" y="231.69" class="st4" width="1.56" height="1.55"/>
			<rect x="316.13" y="230.14" class="st4" width="1.55" height="1.55"/>
			<rect x="316.13" y="233.23" class="st4" width="1.55" height="1.56"/>
			<rect x="313.03" y="233.23" class="st4" width="1.53" height="1.56"/>
			<rect x="313.03" y="230.14" class="st4" width="1.53" height="1.55"/>
		</g>
		<g id="Particle_43_">
			<rect x="324.65" y="247.97" class="st4" width="1.56" height="3.11"/>
			<rect x="326.21" y="246.43" class="st4" width="1.53" height="1.55"/>
			<rect x="326.21" y="251.08" class="st4" width="1.53" height="1.55"/>
			<rect x="323.09" y="251.08" class="st4" width="1.56" height="1.55"/>
			<rect x="323.09" y="246.43" class="st4" width="1.56" height="1.55"/>
		</g>
	</g>
	<g id="trail_2_">
		<g id="Particle_44_">
			<rect x="65.62" y="166.54" class="st2" width="1.55" height="3.11"/>
			<rect x="67.17" y="164.99" class="st2" width="1.56" height="1.55"/>
			<rect x="67.17" y="169.65" class="st2" width="1.56" height="1.55"/>
			<rect x="64.07" y="169.65" class="st2" width="1.55" height="1.55"/>
			<rect x="64.07" y="164.99" class="st2" width="1.55" height="1.55"/>
		</g>
		<g>
			<rect x="73.38" y="151.03" class="st2" width="1.55" height="1.55"/>
			<rect x="74.92" y="149.48" class="st2" width="1.55" height="1.55"/>
			<rect x="74.92" y="152.58" class="st2" width="1.55" height="1.55"/>
			<rect x="71.82" y="152.58" class="st2" width="1.56" height="1.55"/>
			<rect x="71.82" y="149.48" class="st2" width="1.56" height="1.55"/>
		</g>
		<g>
			<rect x="85.01" y="134.74" class="st2" width="1.55" height="1.55"/>
			<rect x="86.56" y="133.19" class="st2" width="1.55" height="1.55"/>
			<rect x="86.56" y="136.29" class="st2" width="1.55" height="1.55"/>
			<rect x="83.46" y="136.29" class="st2" width="1.55" height="1.55"/>
			<rect x="83.46" y="133.19" class="st2" width="1.55" height="1.55"/>
		</g>
		<g>
			<rect x="97.41" y="120.78" class="st2" width="1.55" height="1.55"/>
			<rect x="98.97" y="119.23" class="st2" width="1.55" height="1.55"/>
			<rect x="98.97" y="122.33" class="st2" width="1.55" height="1.55"/>
			<rect x="95.87" y="122.33" class="st2" width="1.55" height="1.55"/>
			<rect x="95.87" y="119.23" class="st2" width="1.55" height="1.55"/>
		</g>
		<g id="Particle_45_">
			<rect x="115.26" y="114.58" class="st2" width="3.11" height="1.55"/>
			<rect x="118.36" y="116.13" class="st2" width="1.55" height="1.55"/>
			<rect x="113.7" y="116.13" class="st2" width="1.55" height="1.55"/>
			<rect x="113.7" y="113.03" class="st2" width="1.55" height="1.55"/>
			<rect x="118.36" y="113.03" class="st2" width="1.55" height="1.55"/>
		</g>
		<g>
			<rect x="134.65" y="117.68" class="st2" width="1.55" height="1.55"/>
			<rect x="136.19" y="116.13" class="st2" width="1.55" height="1.55"/>
			<rect x="136.19" y="119.23" class="st2" width="1.55" height="1.55"/>
			<rect x="133.09" y="119.23" class="st2" width="1.55" height="1.55"/>
			<rect x="133.09" y="116.13" class="st2" width="1.55" height="1.55"/>
		</g>
		<g>
			<rect x="148.61" y="130.09" class="st2" width="1.55" height="1.55"/>
			<rect x="150.15" y="128.54" class="st2" width="1.55" height="1.55"/>
			<rect x="150.15" y="131.64" class="st2" width="1.55" height="1.55"/>
			<rect x="147.05" y="131.64" class="st2" width="1.55" height="1.55"/>
			<rect x="147.05" y="128.54" class="st2" width="1.55" height="1.55"/>
		</g>
		<g id="Particle_46_">
			<rect x="151.7" y="149.48" class="st2" width="3.1" height="1.55"/>
			<rect x="154.81" y="151.03" class="st2" width="1.55" height="1.55"/>
			<rect x="150.15" y="151.03" class="st2" width="1.55" height="1.55"/>
			<rect x="150.15" y="147.93" class="st2" width="1.55" height="1.55"/>
			<rect x="154.81" y="147.93" class="st2" width="1.55" height="1.55"/>
		</g>
		<g>
			<rect x="151.7" y="168.09" class="st2" width="1.56" height="1.56"/>
			<rect x="153.26" y="166.54" class="st2" width="1.54" height="1.55"/>
			<rect x="153.26" y="169.65" class="st2" width="1.54" height="1.55"/>
			<rect x="150.15" y="169.65" class="st2" width="1.55" height="1.55"/>
			<rect x="150.15" y="166.54" class="st2" width="1.55" height="1.55"/>
		</g>
		<g>
			<rect x="147.05" y="187.48" class="st1" width="1.55" height="1.55"/>
			<rect x="148.61" y="185.93" class="st1" width="1.55" height="1.55"/>
			<rect x="148.61" y="189.03" class="st1" width="1.55" height="1.56"/>
			<rect x="145.5" y="189.03" class="st1" width="1.55" height="1.56"/>
			<rect x="145.5" y="185.93" class="st1" width="1.55" height="1.55"/>
		</g>
		<g id="Particle_47_">
			<rect x="129.21" y="220.83" class="st1" width="3.11" height="1.55"/>
			<rect x="132.32" y="222.38" class="st1" width="1.55" height="1.55"/>
			<rect x="127.67" y="222.38" class="st1" width="1.55" height="1.55"/>
			<rect x="127.67" y="219.27" class="st1" width="1.55" height="1.56"/>
			<rect x="132.32" y="219.27" class="st1" width="1.55" height="1.56"/>
		</g>
		<g id="Particle_48_">
			<rect x="138.52" y="204.55" class="st1" width="3.11" height="1.55"/>
			<rect x="141.63" y="206.09" class="st1" width="1.55" height="1.55"/>
			<rect x="136.97" y="206.09" class="st1" width="1.55" height="1.55"/>
			<rect x="136.97" y="202.99" class="st1" width="1.55" height="1.56"/>
			<rect x="141.63" y="202.99" class="st1" width="1.55" height="1.56"/>
		</g>
		<g>
			<rect x="118.36" y="236.34" class="st1" width="1.55" height="1.55"/>
			<rect x="119.91" y="234.79" class="st1" width="1.55" height="1.55"/>
			<rect x="119.91" y="237.89" class="st1" width="1.55" height="1.56"/>
			<rect x="116.81" y="237.89" class="st1" width="1.55" height="1.56"/>
			<rect x="116.81" y="234.79" class="st1" width="1.55" height="1.55"/>
		</g>
		<g>
			<rect x="106.72" y="251.08" class="st1" width="1.55" height="1.55"/>
			<rect x="108.28" y="249.52" class="st1" width="1.55" height="1.56"/>
			<rect x="108.28" y="252.63" class="st1" width="1.55" height="1.55"/>
			<rect x="105.17" y="252.63" class="st1" width="1.55" height="1.55"/>
			<rect x="105.17" y="249.52" class="st1" width="1.55" height="1.56"/>
		</g>
		<g>
			<rect x="94.32" y="266.59" class="st3" width="1.55" height="1.56"/>
			<rect x="95.87" y="265.02" class="st3" width="1.55" height="1.56"/>
			<rect x="95.87" y="268.15" class="st3" width="1.55" height="1.53"/>
			<rect x="92.76" y="268.15" class="st3" width="1.55" height="1.53"/>
			<rect x="92.76" y="265.02" class="st3" width="1.55" height="1.56"/>
		</g>
		<g>
			<rect x="86.56" y="284.42" class="st3" width="1.55" height="1.56"/>
			<rect x="88.11" y="282.86" class="st3" width="1.55" height="1.55"/>
			<rect x="88.11" y="285.98" class="st3" width="1.55" height="1.53"/>
			<rect x="85.01" y="285.98" class="st3" width="1.55" height="1.53"/>
			<rect x="85.01" y="282.86" class="st3" width="1.55" height="1.55"/>
		</g>
		<g>
			<rect x="86.56" y="303.03" class="st1" width="1.55" height="1.55"/>
			<rect x="88.11" y="301.48" class="st1" width="1.55" height="1.55"/>
			<rect x="88.11" y="304.59" class="st1" width="1.55" height="1.55"/>
			<rect x="85.01" y="304.59" class="st1" width="1.55" height="1.55"/>
			<rect x="85.01" y="301.48" class="st1" width="1.55" height="1.55"/>
		</g>
		<g id="Particle_49_">
			<rect x="92.76" y="320.86" class="st4" width="3.1" height="1.55"/>
			<rect x="95.87" y="322.42" class="st4" width="1.55" height="1.56"/>
			<rect x="91.21" y="322.42" class="st4" width="1.55" height="1.56"/>
			<rect x="91.21" y="319.33" class="st4" width="1.55" height="1.53"/>
			<rect x="95.87" y="319.33" class="st4" width="1.55" height="1.53"/>
		</g>
		<g>
			<rect x="108.28" y="331.73" class="st4" width="1.55" height="1.56"/>
			<rect x="109.83" y="330.17" class="st4" width="1.55" height="1.55"/>
			<rect x="109.83" y="333.29" class="st4" width="1.55" height="1.53"/>
			<rect x="106.72" y="333.29" class="st4" width="1.55" height="1.53"/>
			<rect x="106.72" y="330.17" class="st4" width="1.55" height="1.55"/>
		</g>
		<g>
			<rect x="127.67" y="334.82" class="st4" width="1.55" height="1.55"/>
			<rect x="129.21" y="333.29" class="st4" width="1.55" height="1.53"/>
			<rect x="129.21" y="336.38" class="st4" width="1.55" height="1.56"/>
			<rect x="126.11" y="336.38" class="st4" width="1.55" height="1.56"/>
			<rect x="126.11" y="333.29" class="st4" width="1.55" height="1.53"/>
		</g>
		<g>
			<rect x="147.05" y="333.29" class="st4" width="1.55" height="1.53"/>
			<rect x="148.61" y="331.73" class="st4" width="1.55" height="1.56"/>
			<rect x="148.61" y="334.82" class="st4" width="1.55" height="1.55"/>
			<rect x="145.5" y="334.82" class="st4" width="1.55" height="1.55"/>
			<rect x="145.5" y="331.73" class="st4" width="1.55" height="1.56"/>
		</g>
	</g>
	<g id="block">
		<path id="rect4153" class="st2" d="M158.55,277.99l98.56-54.81l98.55,54.81v116.5l-98.55,54.81l-98.56-54.81L158.55,277.99
			L158.55,277.99z"/>
	</g>
	<g id="block_1_">
		<path id="rect4153_1_" class="st2" d="M43.69,183.5l18.26-10.15l18.26,10.15v21.59l-18.26,10.15l-18.26-10.15L43.69,183.5
			L43.69,183.5z"/>
	</g>
	<g id="block_2_">
		<path id="rect4153_2_" class="st2" d="M282.51,79.86l18.24-10.15l18.28,10.15v21.58l-18.28,10.15l-18.24-10.15V79.86z"/>
	</g>
	<g id="block_3_">
		<path id="rect4153_3_" class="st2" d="M368.38,196.77l18.25-10.16l18.27,10.16v21.57l-18.27,10.16l-18.25-10.16V196.77z"/>
	</g>
</g>
</svg>
