<?xml version="1.0" encoding="utf-8"?>
<!-- Generator: Adobe Illustrator 26.5.0, SVG Export Plug-In . SVG Version: 6.00 Build 0)  -->
<svg version="1.1" id="rope_ladders" xmlns="http://www.w3.org/2000/svg" xmlns:xlink="http://www.w3.org/1999/xlink" x="0px"
	 y="0px" viewBox="0 0 512 512" style="enable-background:new 0 0 512 512;" xml:space="preserve">
<style type="text/css">
	.st0{fill:#FFFFFF;}
	.st1{fill:#7FBCD7;}
	.st2{fill:#3D83A3;}
</style>
<g id="Background">
	<rect class="st0" width="512" height="512"/>
</g>
<g id="Icon">
	<polygon class="st1" points="255.28,220.13 173.5,184.26 173.5,75.22 259.59,52.26 338.5,73.78 337.07,185.7 	"/>
	<g id="Ladder">
		<polygon class="st2" points="273.93,452.57 268.2,459.74 271.07,93.87 281.11,91 		"/>
		<polygon class="st2" points="309.8,423.87 304.07,429.61 324.15,80.96 334.2,78.09 		"/>
		<polygon class="st2" points="337.07,99.61 265.33,121.13 265.33,103.91 337.07,83.83 		"/>
		<polygon class="st2" points="335.63,129.74 265.33,151.26 265.33,134.04 335.63,113.96 		"/>
		<polygon class="st2" points="334.2,155.57 265.33,182.83 265.33,165.61 334.2,142.65 		"/>
		<polygon class="st2" points="331.33,184.26 263.89,211.52 263.89,197.17 331.33,168.48 		"/>
		<polygon class="st2" points="329.89,207.22 263.89,237.35 263.89,223 329.89,194.3 		"/>
		<polygon class="st2" points="328.46,230.17 263.89,263.17 263.89,250.26 328.46,217.26 		"/>
		<polygon class="st2" points="325.59,253.13 263.89,286.13 263.89,273.22 325.59,240.22 		"/>
		<polygon class="st2" points="325.59,273.22 263.89,309.09 263.89,297.61 325.59,263.17 		"/>
		<polygon class="st2" points="324.15,293.3 262.46,332.04 262.46,320.57 324.15,283.26 		"/>
		<polygon class="st2" points="322.72,313.39 262.46,352.13 262.46,342.09 322.72,303.35 		"/>
		<polygon class="st2" points="319.85,352.13 263.89,390.87 263.89,380.83 319.85,342.09 		"/>
		<polygon class="st2" points="318.41,369.35 263.89,409.52 263.89,399.48 318.41,359.3 		"/>
		<polygon class="st2" points="316.98,385.13 263.89,425.3 263.89,418.13 316.98,376.52 		"/>
		<polygon class="st2" points="315.54,402.35 262.46,442.52 262.46,435.35 315.54,393.74 		"/>
		<polygon class="st2" points="314.11,418.13 262.46,459.74 262.46,452.57 314.11,409.52 		"/>
		<polygon class="st2" points="321.28,333.48 262.46,372.22 262.46,362.17 321.28,323.43 		"/>
	</g>
</g>
</svg>
