<?xml version="1.0" encoding="utf-8"?>
<!-- Generator: Adobe Illustrator 23.0.6, SVG Export Plug-In . SVG Version: 6.00 Build 0)  -->
<svg version="1.1" id="cavotio_shamir" xmlns="http://www.w3.org/2000/svg" xmlns:xlink="http://www.w3.org/1999/xlink" x="0px"
	 y="0px" viewBox="0 0 512 512" style="enable-background:new 0 0 512 512;" xml:space="preserve">
<style type="text/css">
	.st0{fill:#FFFFFF;}
	.st1{fill:#3D83A3;}
	.st2{fill:#7FBCD7;}
	.st3{fill:#DBECF4;}
	.st4{fill:#4AA0C7;}
	.st5{fill:#A1CEE2;}
</style>
<g id="Background">
	<rect class="st0" width="512" height="512"/>
</g>
<g id="Icon">
	<g id="Shamir">
		<rect id="Cast" x="224.1" y="53.2" class="st1" width="67.8" height="67.8"/>
		<rect id="Band" x="217.6" y="74.2" class="st2" width="80.2" height="22.2"/>
	</g>
	<g id="Shamir_Particles">
		<g>
			<polygon class="st2" points="312,139.7 313.5,133.1 320.2,134.6 318.6,141.3 			"/>
			<polygon class="st2" points="318,143.9 318.6,141.3 321.3,141.9 320.7,144.6 			"/>
			<polygon class="st2" points="320.3,134.7 320.9,132 323.5,132.6 322.9,135.3 			"/>
			<polygon class="st2" points="310.9,132.5 311.5,129.9 314.2,130.5 313.6,133.2 			"/>
			<polygon class="st2" points="308.7,141.8 309.4,139.1 312,139.7 311.4,142.4 			"/>
		</g>
		<g>
			<polygon class="st2" points="193.5,131.6 196.4,121 207,123.8 204.1,134.4 			"/>
			<polygon class="st2" points="203,138.6 204.1,134.4 208.3,135.5 207.2,139.8 			"/>
			<polygon class="st2" points="206.9,123.8 208,119.6 212.3,120.8 211.1,125 			"/>
			<polygon class="st2" points="192.1,119.8 193.2,115.6 197.4,116.7 196.3,120.9 			"/>
			<polygon class="st2" points="188.1,134.7 189.2,130.4 193.5,131.6 192.4,135.8 			"/>
		</g>
		<g>
			<polygon class="st2" points="181.4,55.5 185,49.8 190.8,53.4 187.1,59.2 			"/>
			<polygon class="st2" points="185.7,61.5 187.2,59.2 189.5,60.7 188,63 			"/>
			<polygon class="st2" points="190.8,53.5 192.3,51.1 194.6,52.6 193.1,54.9 			"/>
			<polygon class="st2" points="182.7,48.3 184.2,46 186.5,47.5 185.1,49.8 			"/>
			<polygon class="st2" points="177.6,56.4 179,54 181.4,55.5 179.9,57.8 			"/>
		</g>
		<g>
			<polygon class="st2" points="262.4,30.1 263.3,27.5 266,28.3 265,31 			"/>
			
				<rect x="261" y="24.3" transform="matrix(0.3086 -0.9512 0.9512 0.3086 156.9509 267.3338)" class="st2" width="2.8" height="2.8"/>
			<polygon class="st2" points="266,28.3 266.8,25.6 269.5,26.5 268.6,29.1 			"/>
			<polygon class="st2" points="258.8,31.9 259.7,29.2 262.4,30.1 261.5,32.8 			"/>
			
				<rect x="264.5" y="31.3" transform="matrix(0.3083 -0.9513 0.9513 0.3083 152.7853 275.6329)" class="st2" width="2.8" height="2.8"/>
		</g>
		<g>
			<polygon class="st2" points="325.2,70 332.1,69.9 332.1,76.8 325.3,76.8 			"/>
			<polygon class="st2" points="332.1,76.8 334.9,76.7 334.9,79.5 332.1,79.5 			"/>
			<polygon class="st2" points="332,67.2 334.8,67.2 334.8,69.9 332.1,69.9 			"/>
			<polygon class="st2" points="322.5,67.3 325.2,67.3 325.3,70.1 322.5,70.1 			"/>
			<polygon class="st2" points="322.6,76.9 325.4,76.8 325.4,79.6 322.6,79.6 			"/>
		</g>
	</g>
	<g id="Sweep_1_">
		<path class="st3" d="M142.7,323.1c-48.5-34-87-30.9-86.5-30.7c85.5-81.6,179.3-77.8,256.7-37.3L186.2,450.8
			C183.4,390.1,176.2,348.4,142.7,323.1z"/>
	</g>
	<g id="Shovel">
		<g>
			<polygon class="st4" points="232.5,259.4 247.7,255.4 272.1,346.4 256.9,350.5 			"/>
			<polygon class="st4" points="221.4,278.7 266.9,266.5 287.3,342.3 241.7,354.5 			"/>
			<polygon class="st4" points="214.4,313.1 320.6,284.6 324.7,299.8 218.5,328.3 			"/>
			<polygon class="st4" points="282.1,262.4 312.5,254.3 324.7,299.8 294.3,307.9 			"/>
			<polygon class="st4" points="225.5,293.9 301.4,273.5 313.5,319 237.7,339.4 			"/>
			<polygon class="st4" points="225.5,293.9 286.2,277.6 302.5,338.3 241.8,354.5 			"/>
			<polygon class="st4" points="251.8,270.5 266.9,266.5 291.3,357.5 276.2,361.6 			"/>
			
				<rect x="226" y="338.8" transform="matrix(0.9659 -0.2588 0.2588 0.9659 -83.5269 74.6333)" class="st4" width="31.4" height="31.4"/>
			<polygon class="st4" points="211.4,362.7 241.8,354.5 249.9,384.9 219.6,393 			"/>
			<polygon class="st4" points="200.3,381.9 230.6,373.8 238.8,404.1 208.4,412.3 			"/>
			<polygon class="st4" points="189.2,401.2 219.5,393 227.6,423.4 197.3,431.5 			"/>
			<polygon class="st4" points="178.1,420.4 208.4,412.3 216.5,442.6 186.2,450.8 			"/>
			<polygon class="st4" points="182.1,435.6 212.5,427.4 220.6,457.8 190.3,465.9 			"/>
			<polygon class="st5" points="166.9,439.6 212.5,427.5 216.5,442.6 171,454.8 			"/>
		</g>
		<polygon class="st1" points="221.4,278.7 236.6,274.6 244.7,304.9 229.5,309 		"/>
		
			<rect x="234.3" y="257.1" transform="matrix(0.966 -0.2587 0.2587 0.966 -60.3103 71.6636)" class="st1" width="15.7" height="15.7"/>
		<polygon class="st1" points="251.8,270.5 267,266.5 271,281.6 255.8,285.7 		"/>
		<polygon class="st1" points="271,281.6 286.2,277.6 290.3,292.8 275.1,296.8 		"/>
		<polygon class="st1" points="282.1,262.4 312.5,254.3 316.5,269.4 286.2,277.6 		"/>
		<polygon class="st1" points="297.3,258.4 312.4,254.3 324.6,299.8 309.5,303.9 		"/>
		<polygon class="st1" points="294.3,307.9 309.5,303.8 313.6,319 298.4,323.1 		"/>
		<polygon class="st1" points="283.2,327.2 298.4,323.1 302.5,338.3 287.3,342.3 		"/>
		<polygon class="st1" points="272.1,346.4 287.3,342.3 291.3,357.5 276.2,361.6 		"/>
		<polygon class="st1" points="252.9,335.3 268.1,331.3 272.1,346.4 257,350.5 		"/>
		<polygon class="st1" points="214.4,313.1 229.5,309 233.6,324.2 218.5,328.3 		"/>
		<polygon class="st1" points="241.6,354.2 256.8,350.1 260.9,365.3 245.7,369.3 		"/>
		<polygon class="st1" points="230.6,373.4 245.7,369.3 249.8,384.5 234.6,388.6 		"/>
		<polygon class="st1" points="219.4,392.7 234.6,388.6 238.7,403.8 223.5,407.8 		"/>
		<polygon class="st1" points="208.3,411.9 223.5,407.9 227.6,423 212.4,427.1 		"/>
		<polygon class="st1" points="197.3,431.5 212.4,427.5 220.6,457.8 205.4,461.9 		"/>
		
			<rect x="187.7" y="446.4" transform="matrix(0.9659 -0.2589 0.2589 0.9659 -110.6771 68.15)" class="st1" width="31.4" height="15.7"/>
		<polygon class="st1" points="167,439.6 182.1,435.6 186.2,450.8 171,454.8 		"/>
		<polygon class="st1" points="178,420.4 193.2,416.3 197.3,431.5 182.1,435.6 		"/>
		<polygon class="st1" points="189.1,400.8 204.3,396.7 208.3,411.9 193.2,415.9 		"/>
		<polygon class="st1" points="200.3,381.9 215.4,377.9 219.5,393 204.3,397.1 		"/>
		<polygon class="st1" points="211.4,362.7 226.6,358.6 230.6,373.8 215.5,377.9 		"/>
		<polygon class="st1" points="222.5,343.5 237.7,339.4 241.7,354.6 226.5,358.6 		"/>
		<polygon class="st1" points="233.6,324.2 248.8,320.1 252.9,335.3 237.7,339.3 		"/>
	</g>
	<g id="Haste_Particles">
		<g id="g4809" transform="matrix(-0.3597918,0.79578233,-0.79578233,-0.3597918,563.12199,205.68914)">
			<polygon id="rect4651" class="st1" points="170.9,336.4 175.5,337.4 174.5,342.2 169.9,341.2 			"/>
			<polygon id="rect4651-9" class="st1" points="176.5,332.7 181.1,333.7 180.1,338.4 175.5,337.4 			"/>
			<polygon id="rect4651-9-5" class="st1" points="180,338.4 184.6,339.4 182.6,348.8 178,347.8 			"/>
			<polygon id="rect4651-9-5-8" class="st1" points="178.1,347.8 177.1,352.4 163.8,349.5 164.7,345 			"/>
			<polygon id="rect4651-9-5-8-3" class="st1" points="164.7,345 160.2,344 163.3,329.7 167.9,330.7 			"/>
			<polygon id="rect4651-9-4" class="st1" points="168.9,326 173.4,326.9 172.4,331.7 167.8,330.7 			"/>
			<polygon id="rect4651-9-5-8-7" class="st1" points="187.7,325.2 186.8,329.8 173.4,327 174.4,322.4 			"/>
			<polygon id="rect4651-9-6" class="st1" points="186.7,329.8 191.3,330.8 190.3,335.5 185.7,334.5 			"/>
			<polygon id="rect4651-9-5-8-3-0" class="st1" points="191.8,350.8 187.2,349.8 190.3,335.5 194.9,336.5 			"/>
		</g>
		<g id="g4809_1_" transform="matrix(-0.3597918,0.79578233,-0.79578233,-0.3597918,563.12199,205.68914)">
			<polygon id="rect4651_1_" class="st1" points="149.5,170.7 154.2,169.4 155.6,174.2 150.9,175.6 			"/>
			<polygon id="rect4651-9_1_" class="st1" points="152.8,164.5 157.5,163.1 158.9,168 154.2,169.4 			"/>
			<polygon id="rect4651-9-5_1_" class="st1" points="158.9,168 163.6,166.6 166.4,176.3 161.7,177.7 			"/>
			<polygon id="rect4651-9-5-8_1_" class="st1" points="161.7,177.7 163.1,182.4 149.4,186.4 148,181.7 			"/>
			<polygon id="rect4651-9-5-8-3_1_" class="st1" points="148,181.7 143.3,183.1 139,168.3 143.7,166.9 			"/>
			<polygon id="rect4651-9-4_1_" class="st1" points="142.3,162.1 147,160.7 148.5,165.6 143.7,166.9 			"/>
			<polygon id="rect4651-9-5-8-7_1_" class="st1" points="159.4,151.9 160.8,156.7 147,160.7 145.6,156 			"/>
			<polygon id="rect4651-9-6_1_" class="st1" points="160.8,156.7 165.5,155.3 166.9,160.2 162.2,161.6 			"/>
			<polygon id="rect4651-9-5-8-3-0_1_" class="st1" points="175.9,173.6 171.2,175 166.9,160.2 171.6,158.8 			"/>
		</g>
		<g id="g4809-4-7" transform="matrix(-0.17201655,-0.51611078,0.51611078,-0.17201655,407.35524,472.00207)">
			<polygon id="rect4651-7-2" class="st1" points="451.1,-269.2 452,-273.6 456.3,-272.8 455.4,-268.3 			"/>
			<polygon id="rect4651-9-9-9" class="st1" points="456.3,-272.7 457.2,-277.1 461.5,-276.3 460.5,-271.8 			"/>
			<polygon id="rect4651-9-5-0-93" class="st1" points="458.7,-263.1 460.5,-271.9 464.8,-271 463,-262.2 			"/>
			<polygon id="rect4651-9-5-8-74-3" class="st1" points="458.8,-263.1 458,-258.9 445.5,-261.4 446.4,-265.6 			"/>
			<polygon id="rect4651-9-5-8-3-8-9" class="st1" points="446.4,-265.6 442.1,-266.4 444.9,-279.8 449.1,-278.9 			"/>
			<polygon id="rect4651-9-4-5-2" class="st1" points="449.1,-278.9 450,-283.3 454.3,-282.4 453.4,-278.1 			"/>
			<polygon id="rect4651-9-5-8-7-7-7" class="st1" points="467.5,-284.2 466.7,-280 454.2,-282.4 455.1,-286.7 			"/>
			<polygon id="rect4651-9-6-66-1" class="st1" points="465.8,-275.5 466.7,-280 470.9,-279.1 470,-274.7 			"/>
			<polygon id="rect4651-9-5-8-3-0-1-8" class="st1" points="471.5,-260.5 467.3,-261.4 470,-274.7 474.3,-273.8 			"/>
		</g>
		<g id="g4809-4-7_1_" transform="matrix(-0.17201655,-0.51611078,0.51611078,-0.17201655,407.35524,472.00207)">
			<polygon id="rect4651-7-2_1_" class="st1" points="295.3,-35.3 296.3,-40.3 301.2,-39.3 300.2,-34.2 			"/>
			<polygon id="rect4651-9-9-9_1_" class="st1" points="301.2,-39.3 302.2,-44.4 307.2,-43.4 306.1,-38.3 			"/>
			<polygon id="rect4651-9-5-0-93_1_" class="st1" points="304,-28.2 306.1,-38.3 311,-37.3 309,-27.2 			"/>
			<polygon id="rect4651-9-5-8-74-3_1_" class="st1" points="304.1,-28.3 303.1,-23.3 288.8,-26.2 289.7,-31.1 			"/>
			<polygon id="rect4651-9-5-8-3-8-9_1_" class="st1" points="289.8,-31.1 284.8,-32.1 288,-47.5 292.9,-46.5 			"/>
			<polygon id="rect4651-9-4-5-2_1_" class="st1" points="292.9,-46.5 293.9,-51.6 298.9,-50.5 297.8,-45.5 			"/>
			<polygon id="rect4651-9-5-8-7-7-7_1_" class="st1" points="314.2,-52.6 313.2,-47.7 298.8,-50.5 299.8,-55.5 			"/>
			<polygon id="rect4651-9-6-66-1_1_" class="st1" points="312.1,-42.6 313.2,-47.7 318.1,-46.7 317.1,-41.6 			"/>
			<polygon id="rect4651-9-5-8-3-0-1-8_1_" class="st1" points="318.8,-25.2 313.9,-26.2 317.1,-41.6 322,-40.6 			"/>
		</g>
		<g id="g4809_2_" transform="matrix(-0.3597918,0.79578233,-0.79578233,-0.3597918,563.12199,205.68914)">
			<polygon id="rect4651_2_" class="st1" points="121.5,256.1 122.6,253.8 124.9,255 123.8,257.2 			"/>
			<polygon id="rect4651-9_2_" class="st1" points="120.3,252.7 121.4,250.4 123.8,251.6 122.6,253.8 			"/>
			<polygon id="rect4651-9-5_2_" class="st1" points="123.7,251.6 124.9,249.4 129.5,251.7 128.3,253.9 			"/>
			<polygon id="rect4651-9-5-8_2_" class="st1" points="128.3,253.9 130.6,255 127.3,261.5 125.1,260.4 			"/>
			<polygon id="rect4651-9-5-8-3_2_" class="st1" points="125.1,260.4 124,262.7 117,259.1 118.1,256.9 			"/>
			<polygon id="rect4651-9-4_2_" class="st1" points="115.8,255.7 116.9,253.5 119.2,254.7 118.1,256.9 			"/>
			<polygon id="rect4651-9-5-8-7_2_" class="st1" points="117.9,245.9 120.2,247 116.9,253.5 114.7,252.4 			"/>
			<polygon id="rect4651-9-6_2_" class="st1" points="120.2,247 121.3,244.8 123.6,245.9 122.5,248.2 			"/>
			<polygon id="rect4651-9-5-8-3-0_2_" class="st1" points="131.7,247.2 130.6,249.5 123.6,245.9 124.7,243.7 			"/>
		</g>
	</g>
</g>
</svg>
