<?xml version="1.0" encoding="utf-8"?>
<!-- Generator: Adobe Illustrator 23.0.6, SVG Export Plug-In . SVG Version: 6.00 Build 0)  -->
<svg version="1.1" id="bat_grenades" xmlns="http://www.w3.org/2000/svg" xmlns:xlink="http://www.w3.org/1999/xlink" x="0px"
	 y="0px" viewBox="0 0 512 512" style="enable-background:new 0 0 512 512;" xml:space="preserve">
<style type="text/css">
	.st0{fill:#FFFFFF;}
	.st1{fill:#68AECF;fill-opacity:0.5216;}
	.st2{fill:#67AFD0;fill-opacity:0.7412;}
	.st3{fill:#67AFD0;}
	.st4{fill:#4AA0C7;}
</style>
<rect class="st0" width="512" height="512"/>
<g id="Icon">
	<g id="explosion">
		<g id="explosion_3">
			<g id="g4177_3_" transform="translate(-1402.7388,-50.60915)">
			</g>
			<a id="a4378_3_">
				<g id="g4323_3_">
					<g id="g4384_3_">
					</g>
				</g>
			</a>
			<a id="a4357_3_" transform="translate(554,0)">
			</a>
			<path id="path5429-1-3" class="st1" d="M191.34,279.26c9.23,11.6,9.69,55.6-21.1,73.13c-36.8,20.9-72.05,3.72-85.58-7.36
				c-17.51-14.37-27.26-56.85-9.55-80.29c20.43-27.1,53.75-35.73,76.36-28.46c1.31-1.99-37.73-3.06-54.04,31.32
				c-6.54,13.78-0.82,41.17,11.84,54.24c8.99,9.3,34.55,18.78,53.39,9.83C174.37,326.1,200.65,303.36,191.34,279.26L191.34,279.26z"
				/>
		</g>
		<g id="exploosion_2">
			<g id="g4177_2_" transform="translate(-1402.7388,-50.60915)">
			</g>
			<a id="a4378_2_">
				<g id="g4323_2_">
					<g id="g4384_2_">
					</g>
				</g>
			</a>
			<a id="a4357_2_" transform="translate(554,0)">
			</a>
			<path id="path5429" class="st2" d="M179.39,298.97c-29.13,6.27-114.53-24.72-129.06-102.11c-16.98-90.3,37.35-127.3,67.9-145.14
				c48.37-28.25,126.35-20.32,174.7,51.84c37.98,56.68-6.27,166.19-47.69,172.12c3.97,4.86,71.81-58.36,21.26-131.68
				c-20.79-30.12-67.49-48.95-102.64-38.88c-40.31,11.54-76.26,55.02-75.17,96.94C89.81,245.56,127.67,294.17,179.39,298.97
				L179.39,298.97z"/>
		</g>
		<g id="explosion_1">
			<g id="g4177" transform="translate(-1402.7388,-50.60915)">
			</g>
			<a id="a4378">
				<g id="g4323">
					<g id="g4384">
					</g>
				</g>
			</a>
			<a id="a4357" transform="translate(554,0)">
			</a>
			<path id="path5429-1" class="st3" d="M229.96,181.6c26.58-29.59,118.98-52.04,192.47,23.13c75.93,77.7,40.86,175.84,11.79,213.08
				c-47.74,61.13-133.13,72.64-203.1,36.19c-80.79-42.07-100.06-165.46-59.91-204.35c-5.82-2.56-24.65,95.91,73.65,123.78
				c39.46,11.21,84.61-3.48,113.57-42.82c20.59-27.95,31.45-69.44-0.59-115.33C337.88,186.71,289.64,146.25,229.96,181.6
				L229.96,181.6z"/>
		</g>
	</g>
	<g id="bat">
		<g id="g4177_1_" transform="translate(-1402.7388,-50.60915)">
		</g>
		<a id="a4378_1_">
			<g id="g4323_1_">
				<g id="g4384_1_">
				</g>
			</g>
		</a>
		<a id="a4357_1_" transform="translate(554,0)">
		</a>
		<path id="path5408" class="st4" d="M244.67,257.94l-9.34-3.98l2.2-8.07l8.42-2.18l-0.92-5.26l3.99-0.93l5.38-0.78l-0.75-5.87
			l25.37-12.62l-1.54-6.07l11.38-9.55l3.67-5.13l5.85,1.47l8.49-8.97l-3.39-2.95l4.8-6.05l-2.72-3.48l-2.41,2.75l-4.04-2.93
			l4.44-5.44l-15.05-9.23l-14.28,12.88l-5.54-2.61l-15.76,16.13l-4.76-2.2L239,198.62l-3.34-2.86l-9.82,9.38l-3.48-3.15l-18.2,7.99
			l-2.94-4.03c0,0-4.77-17.96-5.14-19.43c-0.36-1.46,0.36-13.56,0.36-13.56l-2.93-0.36l0.36-16.5l0.36-2.5l0.36-4.09l6.98,0.74
			l0.73-15.4l-5.16-0.11l0.04-7.96l-6.6-0.36l0.36-10.26l-17.58-6.6l-0.12,6.34l-5.4-0.11l-0.11,7.96h-5.52l0.14,18.44l-6.69,0.51
			l0.95,11.29l-6.37,1.03l1.03,11.32l-5.43,1.52l5.14,19.05l1.09,5.87l4.03,1.46l2.56,7.34l6.6,2.56l0.37,11l-1.84,1.83l-13.93-9.9
			l-10.26,8.8l0.38-10.61l-18.35-8.43l-1.46,3.29l-0.74,62.31l30.43,15.05l11.36-4.03l63.49,27.12L235.12,281l21.56,8.14l1.06-2.52
			l-20.45-9.56L244.67,257.94z"/>
	</g>
</g>
</svg>
