<?xml version="1.0" encoding="utf-8"?>
<!-- Generator: Adobe Illustrator 23.0.6, SVG Export Plug-In . SVG Version: 6.00 Build 0)  -->
<svg version="1.1"
	 id="speed_paths" xmlns:cc="http://creativecommons.org/ns#" xmlns:dc="http://purl.org/dc/elements/1.1/" xmlns:inkscape="http://www.inkscape.org/namespaces/inkscape" xmlns:rdf="http://www.w3.org/1999/02/22-rdf-syntax-ns#" xmlns:sodipodi="http://sodipodi.sourceforge.net/DTD/sodipodi-0.dtd" xmlns:svg="http://www.w3.org/2000/svg"
	 xmlns="http://www.w3.org/2000/svg" xmlns:xlink="http://www.w3.org/1999/xlink" x="0px" y="0px" viewBox="0 0 512 512"
	 style="enable-background:new 0 0 512 512;" xml:space="preserve">
<style type="text/css">
	.st0{fill:#FFFFFF;}
	.st1{fill:#4AA0C7;}
	.st2{fill:#A1CEE2;}
	.st3{fill:#7FBCD7;}
	.st4{fill:#3D83A3;}
	.st5{fill:#387895;}
</style>
<rect class="st0" width="512" height="511.73"/>
<g>
	<g id="Icon">
		<g id="layer1_1_" inkscape:groupmode="layer" inkscape:label="Layer 1">
			<g id="g4380">
				<path id="path4152" inkscape:connector-curvature="0" sodipodi:nodetypes="sscs" class="st1" d="M180.96,285.3
					c3.83-6.9,10.48-3.34,5.84,2.74c-20.07,26.37-34.03,46.26-34.03,46.26S165.11,313.79,180.96,285.3L180.96,285.3z"/>
				<path id="path4154" inkscape:connector-curvature="0" sodipodi:nodetypes="sscs" class="st1" d="M109.15,322.11
					c5.73-7.19,12.16-2.34,5.73,3.84c-27.81,26.78-47.49,47.14-47.49,47.14S85.47,351.81,109.15,322.11L109.15,322.11z"/>
				<path id="path4156" inkscape:connector-curvature="0" sodipodi:nodetypes="sscs" class="st1" d="M192.42,351.45
					c3.33-10.04,11.58-7.65,7.19,1.62c-18.94,40.13-31.86,70.02-31.86,70.02S178.71,392.93,192.42,351.45z"/>
				<path id="path4158" inkscape:connector-curvature="0" sodipodi:nodetypes="sscs" class="st1" d="M116.95,399.23
					c4.31-7.76,11.79-3.77,6.57,3.08c-22.58,29.67-38.28,52.06-38.28,52.06S99.13,431.28,116.95,399.23L116.95,399.23z"/>
				
					<path id="path4160" inkscape:connector-curvature="0" inkscape:transform-center-x="30.707643" inkscape:transform-center-y="25.084314" sodipodi:nodetypes="sscs" class="st1" d="
					M48.74,301.59c6.06-5.84,11.74-0.18,5.11,4.6c-28.69,20.7-49.11,36.67-49.11,36.67S23.71,325.73,48.74,301.59L48.74,301.59z"/>
				<path id="path4162" inkscape:connector-curvature="0" sodipodi:nodetypes="sscs" class="st1" d="M344.45,296.75
					c-3.59-7.9-11.21-4.62-6.67,2.51c19.71,30.77,33.27,53.88,33.27,53.88S359.32,329.49,344.45,296.75z"/>
				<path id="path4164" inkscape:connector-curvature="0" sodipodi:nodetypes="sscs" class="st1" d="M424.59,349.75
					c-5.2-7.72-12.09-3.32-6.11,3.43c25.9,29.3,44.1,51.44,44.1,51.44S446.07,381.68,424.59,349.75L424.59,349.75z"/>
				
					<path id="path4166" inkscape:connector-curvature="0" inkscape:transform-center-x="16.325906" inkscape:transform-center-y="-54.472732" sodipodi:nodetypes="sscs" class="st1" d="
					M332.81,387.84c-2.14-10.19-10.38-8.73-7.12,0.84c14.11,41.38,23.45,72.08,23.45,72.08S341.71,430,332.81,387.84z"/>
				<path id="path4168" inkscape:connector-curvature="0" sodipodi:nodetypes="sscs" class="st1" d="M393.78,417.57
					c-2.91-7.16-9.8-4.5-6.01,1.99c16.39,28.06,27.59,49.09,27.59,49.09S405.8,447.2,393.78,417.57z"/>
				
					<path id="path4170" inkscape:connector-curvature="0" inkscape:transform-center-x="-28.997539" inkscape:transform-center-y="21.895877" sodipodi:nodetypes="sscs" class="st1" d="
					M457.92,299.89c-5.71-5.09-11.08-0.15-4.82,4.03c27.09,18.04,46.38,31.98,46.38,31.98S481.56,320.98,457.92,299.89z"/>
			</g>
		</g>
	</g>
	<g>
		<polygon class="st2" points="12.5,262.63 49.87,262.63 49.87,262.63 		"/>
		<polygon class="st2" points="462.47,262.63 499.84,262.63 499.84,262.63 		"/>
		<polygon class="st3" points="49.87,262.63 88.73,262.63 88.73,262.63 		"/>
		<path class="st2" d="M306.31,0.79h-100.3C107.66,19.49,28.46,92.16,0.41,186.81v75.81h246.11h19.31h246.08v-75.8
			C483.87,92.17,404.67,19.49,306.31,0.79z"/>
		<path class="st3" d="M256.18,81.67c100,0,181.07,81.03,181.07,180.97h42.04c0-123.15-99.88-222.99-223.1-222.99
			c-123.23,0-223.12,99.84-223.12,222.99h42.04C75.09,162.7,156.16,81.67,256.18,81.67z"/>
		<polygon class="st1" points="88.73,262.63 124.61,262.63 124.61,262.63 		"/>
		<polygon class="st1" points="387.71,262.63 423.6,262.63 423.6,262.63 		"/>
		<path class="st1" d="M256.18,81.67C156.16,81.67,75.1,162.7,75.1,262.64h38.8c0-78.54,63.7-142.2,142.28-142.2
			c78.57,0,142.26,63.66,142.26,142.2h38.81C437.24,162.7,356.17,81.67,256.18,81.67z"/>
		<polygon class="st4" points="351.34,262.63 387.71,262.63 387.71,262.63 		"/>
		<path class="st4" d="M256.18,159.77c56.83,0,102.92,46.05,102.92,102.87h39.34c0-78.53-63.69-142.19-142.25-142.19
			c-78.58,0-142.28,63.66-142.28,142.19h39.34C153.23,205.82,199.32,159.77,256.18,159.77z"/>
		<polygon class="st5" points="160.99,262.63 351.34,262.63 351.34,262.63 		"/>
		<path class="st5" d="M256.18,159.77c-56.86,0-102.94,46.05-102.94,102.87H359.1C359.09,205.82,313.01,159.77,256.18,159.77z"/>
	</g>
</g>
<g>
	<polygon class="st2" points="246.52,262.63 194.53,512 317.8,512 265.83,262.63 	"/>
	<path class="st1" d="M206.01,0.79h100.3"/>
</g>
</svg>
